<?xml version="1.0" encoding="utf-8"?>
<!-- Generator: Adobe Illustrator 23.0.3, SVG Export Plug-In . SVG Version: 6.00 Build 0)  -->
<svg version="1.1" xmlns="http://www.w3.org/2000/svg" xmlns:xlink="http://www.w3.org/1999/xlink" x="0px" y="0px"
	 viewBox="0 0 959.2 818.6" style="enable-background:new 0 0 959.2 818.6;" xml:space="preserve">
<style type="text/css">
	.st0{fill:#3F3D56;}
	.st1{fill:#F2F2F2;}
	.st2{fill:#6ED397;}
	.st3{fill:none;stroke:#3F3D56;stroke-width:2.3265;stroke-miterlimit:10;}
	.st4{fill:#FBBEBE;}
	.st5{fill:#2F2E41;}
	.st6{opacity:0.1;enable-background:new    ;}
	.st7{fill:#FF6584;}
	.st8{display:none;}
</style>
<g id="f3dab87e-8e17-45b3-a71d-8ebfb46e2440">
	<title>airport</title>
	<ellipse class="st0" cx="714.5" cy="782.4" rx="222.2" ry="18.6"/>
	<path class="st1" d="M935.5,574.2c0,91.2-54.2,123.1-121.1,123.1s-121.1-31.8-121.1-123.1S814.4,367,814.4,367
		S935.5,483,935.5,574.2z"/>
	<polygon class="st0" points="810,683.3 811.3,607 862.9,512.6 811.5,595 812,560.7 847.6,492.4 812.2,551.6 812.2,551.6 
		813.2,489.9 851.3,435.5 813.3,480.2 814,367 810,516.8 810.3,510.7 771.6,451.4 809.7,522.5 806.1,591.5 806,589.6 761.4,527.3 
		805.9,596.1 805.4,604.7 805.3,604.9 805.4,605.6 796.2,780.5 808.5,780.5 809.9,690.1 854.3,621.4 	"/>
	<path class="st2" d="M897.7,738.4c0,26.1-15.5,35.3-34.7,35.3c-0.4,0-0.9,0-1.3,0c-0.9,0-1.8-0.1-2.6-0.1
		c-17.3-1.2-30.7-10.8-30.7-35.1c0-25.2,32.1-56.9,34.6-59.2l0,0c0.1-0.1,0.1-0.1,0.1-0.1S897.7,712.2,897.7,738.4z"/>
	<path class="st0" d="M861.7,769.6l12.7-17.7l-12.7,19.7l0,2c-0.9,0-1.8-0.1-2.6-0.1l1.4-26.1l0-0.2l0,0l0.1-2.5l-12.8-19.7
		l12.8,17.9l0,0.5l1-19.8l-10.9-20.4l11.1,16.9l1.1-41l0-0.1v0.1l-0.2,32.3l10.9-12.8l-10.9,15.6l-0.3,17.7l10.2-17l-10.2,19.6
		l-0.2,9.8l14.7-23.6l-14.8,27.1L861.7,769.6z"/>
	<circle class="st1" cx="261.2" cy="275.3" r="55.7"/>
	<circle class="st3" cx="272.7" cy="258.7" r="55.7"/>
	<path class="st0" d="M195.2,170.9l-44.9-75.1c12.2-15.5,9.6-38.1-6-50.3c-15.5-12.2-38.1-9.6-50.3,6c-12.2,15.5-9.6,38.1,6,50.3
		c10.1,8,23.7,9.9,35.6,5.1L195.2,170.9z"/>
	<circle class="st2" cx="122.2" cy="73.5" r="16.7"/>
	<path class="st0" d="M339.1,162.2l62.1-61.7c18,8.1,39.3,0.1,47.4-18s0.1-39.3-18-47.4c-18-8.1-39.3-0.1-47.4,18
		c-5.3,11.7-3.9,25.4,3.7,35.8L339.1,162.2z"/>
	<circle class="st2" cx="415.9" cy="67.8" r="16.7"/>
	<path class="st0" d="M382.3,299.7l74.9,45.3c-3.5,19.5,9.4,38.1,28.9,41.6c19.5,3.5,38.1-9.4,41.6-28.9
		c3.5-19.5-9.4-38.1-28.9-41.6c-12.6-2.3-25.5,2.4-33.8,12.2L382.3,299.7z"/>
	<circle class="st2" cx="492.5" cy="351.4" r="16.7"/>
	<path class="st0" d="M259.4,375l-25.8,83.6c-19.7,1.3-34.7,18.4-33.4,38.1c1.3,19.7,18.4,34.7,38.1,33.4s34.7-18.4,33.4-38.1
		c-0.8-12.8-8.5-24.2-20-29.8L259.4,375z"/>
	<circle class="st2" cx="235.9" cy="494.4" r="16.7"/>
	<path class="st0" d="M156.6,273.8L69.2,269c-6-18.8-26.2-29.2-45.1-23.2S-5,272,1,290.9c6,18.8,26.2,29.2,45.1,23.2
		c12.2-3.9,21.4-14.1,24.1-26.7L156.6,273.8z"/>
	<circle class="st2" cx="35.1" cy="279.9" r="16.7"/>
	<circle class="st1" cx="942" cy="88.4" r="17.2"/>
	<circle class="st3" cx="935" cy="82.6" r="17.2"/>
	<rect x="794.8" y="92.2" class="st2" width="38.8" height="38.8"/>
	<rect x="802.5" y="84.5" class="st3" width="38.8" height="38.8"/>
	<path class="st4" d="M705.8,714.4c0,0-3.5,22.1-9.3,25.6s30.2,11.6,30.2,11.6l5.8-34.9L705.8,714.4z"/>
	<path class="st5" d="M748.8,462l12.8,15.1l-5.8,52.3L751.2,633c0,0,9.3,89.6,0,91.9s-51.2,1.2-50-4.7s2.3-10.5,4.7-18.6
		s-2.3-37.2-2.3-37.2l5.8-32.6L688.4,491L748.8,462z"/>
	<path class="st5" d="M707,736.5c0,0-12.8-2.3-14,0s-23.3,26.8-26.8,26.8s-29.1,23.3-2.3,24.4s71-19.8,71-19.8s-6.5-29.6-6.2-28.2
		S707,742.3,707,736.5z"/>
	<path class="st4" d="M693,683c0,0,32.6,36.1,33.7,39.6s18.6,0,18.6,0l7-23.3l-5.8-8.1l-32.6-26.8L693,683z"/>
	<path class="st5" d="M739.5,709.7l-16.9,15.9c0,0,21.5,33,21.5,36.5s1.2,32.6,12.8,27.9s12.8-51.2,12.8-51.2s-1.2-47.7-8.1-51.2
		s-22.3-2.4-22.3-2.4S748.8,708.6,739.5,709.7z"/>
	<path class="st5" d="M643,358.4c0,0-5.8,18.6-7,23.3s-8.1,17.4-8.1,37.2s2.3,43,0,45.4s-39.6,132.6-23.3,146.6s69.8,60.5,73.3,66.3
		s4.7,19.8,11.6,17.4s33.7-25.6,34.9-30.2s-15.1-12.8-15.1-12.8s-32.6-47.7-40.7-46.5s-7-5.8-5.8-9.3s3.5-5.8,0-5.8s-1.2-9.3,0-14
		s27.9-67.5,27.9-67.5l71-31.4c0,0-3.5-84.9-29.1-108.2l-5.8-14C726.7,354.9,661.6,350.3,643,358.4z"/>
	<path class="st4" d="M672.1,174.6c0,0,5.8,40.7-8.1,43s-25.6,1.2-25.6,2.3s34.9,37.2,34.9,37.2l32.6-2.3l29.1-31.4
		c0,0-26.8-4.7-26.8-20.9s-1.2-27.9-1.2-27.9H672.1z"/>
	<path class="st6" d="M672.1,174.6c0,0,5.8,40.7-8.1,43s-25.6,1.2-25.6,2.3s34.9,37.2,34.9,37.2l32.6-2.3l29.1-31.4
		c0,0-26.8-4.7-26.8-20.9s-1.2-27.9-1.2-27.9H672.1z"/>
	<circle class="st4" cx="690.1" cy="155.4" r="36.1"/>
	<path class="st0" d="M658.1,214.2c0,0-45.4,5.8-48.9,20.9s23.3,109.3,26.8,117.5s2.3,14,2.3,14c10.6-8,24.2-10.9,37.2-8.1
		c22.1,4.7,53.5,2.3,53.5,2.3s10.5-43,12.8-47.7s11.6-30.2,11.6-37.2s14-36.1,14-36.1s-7-20.9-32.6-19.8c0,0-11.2-5-14.3-1.3
		s-20.6,19.9-42.7,13S658.1,214.2,658.1,214.2z"/>
	<path class="st0" d="M622,234h-12.8l-7,91.9c0,0,25.6,7,29.1,2.3S622,234,622,234z"/>
	<path class="st0" d="M605.8,316.6l-3.5,9.3c0,0-2.3,30.2,11.6,29.1s22.1-18.6,22.1-18.6s-8.1-22.1-17.4-19.8
		C609.3,318.9,605.8,316.6,605.8,316.6z"/>
	<path class="st0" d="M745.4,234l22.1,5.8c0,0,16.3,59.3,17.4,60.5s2.3,8.1,2.3,8.1s0,1.2,2.3,4.7s5.8,1.2,3.5,5.8
		c-2.3,4.7-5.8,2.3-3.5,7s1.2,17.4,1.2,17.4s-5.8-22.1-26.8-16.3l-14-62.8L745.4,234z"/>
	<path class="st7" d="M649,125.7c-7.3,12.9-9,28.1-10,42.9c-0.4,6.3-0.8,12.9,1.1,18.9c2,6.4,6.4,12.9,4.1,19.2
		c-2.2,6.1-9.5,8.5-13.6,13.6c-3.5,4.3-4.3,10.1-4,15.6c0.3,5.5,1.6,10.9,2,16.4c0.8,12-2.9,23.9-10.4,33.4
		c17.5-0.7,36.3-8.4,43.6-24.3c2.2-4.8,3.3-10,5.3-14.8c2.3-5.5,5.7-10.4,7.8-16c3.2-8.3,3.4-17.5,3.5-26.5
		c0.1-5.4,0.1-10.9-1.7-15.9c-4.1-11.1-16.8-18.2-18-29.9c-0.2-1.2,0-2.5,0.5-3.6c0.6-0.8,1.3-1.6,2.1-2.2c7.9-7,6.6-21.8,16-26.6
		c4.2-2.1,9.3-1.4,13.9,0c5,1.5,10.1,3.8,13.4,7.9c6.6,8.3,4,20.3,2,30.7c-3,15.1-4,30.5-3.1,45.8c0.1,2.5,0.4,4.9,1.1,7.3
		c1.2,3.8,3.8,7.1,5.8,10.6c4,7.2,5.3,15.7,3.6,23.8c-1.4,7-5,14.6-1.9,21c1.4,2.5,3.3,4.6,5.7,6.3c10.3,8.1,23.4,13.1,31.1,23.7
		c1.3-8.7-1.2-17.4-3.1-26c-1.9-8.6-3-17.9,0.8-25.8c1.7-3.5,4.2-6.5,5.6-10.1c3.2-8.3-0.6-17.4-2.9-26c-1.6-6.7-2.8-13.6-3.5-20.5
		l-2.4-18.6c-2-15.4-4-31.1-10.8-45.1c-12.8-26.3-41.6-36.1-67.4-21.5C658.5,113.3,652.9,118.9,649,125.7z"/>
	<path class="st4" d="M617.4,322.4c0,0-7,20.9,1.2,20.9s23.3-12.8,24.4-23.3c1.2-10.5,22.1-50,7-46.5s-22.1,32.6-22.1,32.6
		L617.4,322.4z"/>
	<polygon class="st2" points="734.9,234 696.5,358.4 748.8,370.1 787.2,249.1 	"/>
	<path class="st4" d="M783.7,323.5l7.3,12.1c0,0,3.2,22.8-13.1,22.8s-39.6-22.1-39.6-22.1s-11.6-4.7-18.6-3.5s-45.4,0-29.1-19.8
		c16.3-19.8,44.2,0,44.2,0l29.1,14l15.1-8.1L783.7,323.5z"/>
	<path class="st0" d="M773.9,307.8l-11.6,18.6c0,0,26.8,3.5,29.1,9.3s-10.5-30.2-10.5-30.2L773.9,307.8z"/>
</g>
<g id="Calque_2" class="st8">
</g>
</svg>
