<?xml version="1.0" encoding="utf-8"?>
<!-- Generator: Adobe Illustrator 23.0.3, SVG Export Plug-In . SVG Version: 6.00 Build 0)  -->
<svg version="1.1" id="Calque_1" xmlns="http://www.w3.org/2000/svg" xmlns:xlink="http://www.w3.org/1999/xlink" x="0px" y="0px"
	 viewBox="0 0 800 800" style="enable-background:new 0 0 800 800;" xml:space="preserve">
<style type="text/css">
	.st0{opacity:0.5;}
	.st1{fill:url(#SVGID_1_);}
	.st2{fill:#E6E6E5;}
	.st3{fill:#FFFFFF;}
	.st4{fill:url(#SVGID_2_);}
	.st5{fill:url(#SVGID_3_);}
	.st6{fill:url(#SVGID_4_);}
	.st7{fill:url(#SVGID_5_);}
	.st8{fill:#6466AF;}
	.st9{fill:#E0E1E0;}
	.st10{fill:url(#SVGID_6_);}
	.st11{fill:url(#SVGID_7_);}
	.st12{fill:url(#SVGID_8_);}
	.st13{fill:url(#SVGID_9_);}
	.st14{fill:url(#SVGID_10_);}
	.st15{fill:url(#SVGID_11_);}
	.st16{fill:url(#SVGID_12_);}
	.st17{fill:#D0D9DC;}
	.st18{opacity:0.1;fill:#010101;enable-background:new    ;}
	.st19{opacity:0.2;fill:#FFFFFF;enable-background:new    ;}
	.st20{fill:url(#SVGID_13_);}
	.st21{fill:url(#SVGID_14_);}
	.st22{fill:none;stroke:#57BF99;stroke-width:2;stroke-miterlimit:10;stroke-dasharray:12;}
	.st23{fill:url(#SVGID_15_);}
	.st24{fill:url(#SVGID_16_);}
</style>
<title>filter</title>
<g class="st0">
	<g class="st0">
		
			<linearGradient id="SVGID_1_" gradientUnits="userSpaceOnUse" x1="995.1343" y1="127.02" x2="995.1343" y2="162.8988" gradientTransform="matrix(-0.8447 -0.5385 0.5385 -0.8447 1015.4186 973.6204)">
			<stop  offset="0" style="stop-color:#818181;stop-opacity:0.25"/>
			<stop  offset="0.54" style="stop-color:#818181;stop-opacity:0.12"/>
			<stop  offset="1" style="stop-color:#818181;stop-opacity:0.1"/>
		</linearGradient>
		<polygon class="st1" points="240.7,330.7 240.9,302.4 263.4,302.6 263.1,331 		"/>
	</g>
	<polygon class="st2" points="262.4,330.1 240.7,329.9 240.9,302.7 262.6,302.9 	"/>
	<ellipse class="st3" cx="251.6" cy="315.7" rx="4" ry="4.2"/>
	<ellipse class="st3" cx="251.6" cy="317.1" rx="3.6" ry="3.8"/>
	<polygon class="st3" points="252.4,322.4 250.7,322.4 250.7,319.3 252.4,319.3 	"/>
	<path class="st3" d="M255.5,330l-8.4-0.1l0,0l0-4c0-2.4,1.9-4.4,4.2-4.4l0,0c2.3,0,4.2,2,4.1,4.5L255.5,330L255.5,330z"/>
	<ellipse class="st3" cx="251.6" cy="311.4" rx="1.5" ry="1.5"/>
	<path class="st3" d="M251.2,308.9c-0.8-0.1-1.6,0-2.3,0.4c-0.6,0.2-1.2,0.5-1.8,1c-0.8,1-1.3,2.4-1.2,3.7c0.1,1.3-0.1,2.7-0.5,4
		c-0.7,1.4-2,2.2-3.4,2.1c0.9,0.5,1.9,0.6,2.8,0.1c0.8-0.4,1.5-1,1.9-1.8c0.3-0.6,0.5-1.1,0.7-1.7c0.6-1.8,1.4-3.4,2.4-5
		c0.2-0.2,0.3-0.5,0.5-0.7c0.3-0.2,0.7-0.4,1-0.4c0.3,0,0.8,0.1,1-0.2C252.9,309.7,251.6,309,251.2,308.9z"/>
</g>
<g class="st0">
	<g class="st0">
		
			<linearGradient id="SVGID_2_" gradientUnits="userSpaceOnUse" x1="751.159" y1="277.7393" x2="751.159" y2="325.9845" gradientTransform="matrix(0.8457 -0.5336 -0.5336 -0.8457 71.1147 972.4982)">
			<stop  offset="0" style="stop-color:#818181;stop-opacity:0.25"/>
			<stop  offset="0.54" style="stop-color:#818181;stop-opacity:0.12"/>
			<stop  offset="1" style="stop-color:#818181;stop-opacity:0.1"/>
		</linearGradient>
		<polygon class="st4" points="530.1,297.5 560.2,297.2 560.6,335.3 530.4,335.6 		"/>
	</g>
	<polygon class="st2" points="530.6,298.2 559.8,297.9 560.1,334.5 530.9,334.8 	"/>
	<ellipse class="st3" cx="545.4" cy="315.3" rx="5.4" ry="5.7"/>
	<ellipse class="st3" cx="545.4" cy="317.2" rx="4.9" ry="5.2"/>
	<polygon class="st3" points="544.3,320.3 546.6,320.3 546.6,324.5 544.4,324.5 	"/>
	<path class="st3" d="M545.7,323.2L545.7,323.2c3.1,0,5.6,2.6,5.7,5.9v0l0,5.4l0,0l-11.2,0.1l0,0l0-5.4
		C540.1,326,542.6,323.3,545.7,323.2L545.7,323.2L545.7,323.2z"/>
	<ellipse class="st3" cx="545.4" cy="309.6" rx="2" ry="2.1"/>
	<path class="st3" d="M546,306.3c1-0.1,2.1,0.1,3.1,0.5c0.9,0.3,1.7,0.7,2.4,1.4c1.3,1.2,1.5,3.2,1.6,5c0,1.8-0.1,3.7,0.7,5.4
		c0.9,1.8,2.7,2.9,4.6,2.9c-1.2,0.7-2.6,0.8-3.8,0.1c-1.1-0.5-2-1.4-2.5-2.4c-0.4-0.7-0.7-1.5-0.9-2.3c-0.8-2.4-1.9-4.6-3.3-6.7
		c-0.2-0.3-0.4-0.6-0.7-0.9c-0.4-0.3-0.9-0.5-1.4-0.6c-0.4-0.1-1.1,0.1-1.4-0.3C543.7,307.4,545.4,306.4,546,306.3z"/>
</g>
<g class="st0">
	<g class="st0">
		
			<linearGradient id="SVGID_3_" gradientUnits="userSpaceOnUse" x1="800.0524" y1="406.6466" x2="800.0524" y2="483.1543" gradientTransform="matrix(0.8452 -0.5377 -0.5377 -0.8452 73.6455 972.6467)">
			<stop  offset="0" style="stop-color:#818181;stop-opacity:0.25"/>
			<stop  offset="0.54" style="stop-color:#818181;stop-opacity:0.12"/>
			<stop  offset="1" style="stop-color:#818181;stop-opacity:0.1"/>
		</linearGradient>
		<polygon class="st5" points="487.5,138.2 535.3,137.7 535.8,198.1 488,198.6 		"/>
	</g>
	<polygon class="st2" points="488.4,139.4 534.6,138.9 535.1,196.9 488.9,197.3 	"/>
	<ellipse class="st3" cx="511.9" cy="166.5" rx="8.5" ry="9"/>
	<ellipse class="st3" cx="511.9" cy="169.5" rx="7.7" ry="8.2"/>
	<polygon class="st3" points="510.1,174.4 513.7,174.4 513.8,181 510.2,181 	"/>
	<path class="st3" d="M512.5,178.5L512.5,178.5c4.9-0.1,8.9,4.1,9,9.3l0.1,8.6l0,0l-17.8,0.2l0,0l-0.1-8.6
		C503.7,182.8,507.6,178.6,512.5,178.5z"/>
	<ellipse class="st3" cx="511.8" cy="157.5" rx="3.1" ry="3.3"/>
	<path class="st3" d="M512.8,152.2c1.7-0.2,3.3,0.1,4.9,0.8c1.4,0.4,2.6,1.2,3.7,2.2c2,2,2.4,5.1,2.5,8c0.1,2.9-0.1,5.9,1.1,8.5
		c1.4,2.9,4.3,4.6,7.3,4.5c-1.8,1.1-4.1,1.2-6,0.2c-1.7-0.8-3.1-2.2-4.1-3.9c-0.6-1.2-1.1-2.4-1.4-3.7c-1.3-3.7-3.1-7.3-5.2-10.6
		c-0.3-0.5-0.7-1-1.2-1.4c-0.6-0.5-1.4-0.8-2.2-0.9c-0.7-0.1-1.8,0.2-2.2-0.5C509.2,154,511.8,152.4,512.8,152.2z"/>
</g>
<g class="st0">
	<g class="st0">
		
			<linearGradient id="SVGID_4_" gradientUnits="userSpaceOnUse" x1="390.7398" y1="534.9916" x2="390.7398" y2="610.3922" gradientTransform="matrix(0.9187 0.3951 0.3951 -0.9187 -275.9843 537.7087)">
			<stop  offset="0" style="stop-color:#818181;stop-opacity:0.25"/>
			<stop  offset="0.54" style="stop-color:#818181;stop-opacity:0.12"/>
			<stop  offset="1" style="stop-color:#818181;stop-opacity:0.1"/>
		</linearGradient>
		<polygon class="st6" points="284.3,135.9 333.6,135.4 334.1,196.1 284.9,196.5 		"/>
	</g>
	<polygon class="st2" points="285.3,137.1 332.7,136.6 333.3,196.1 285.9,196.5 	"/>
	<ellipse class="st3" cx="308.9" cy="164.9" rx="8.7" ry="9.3"/>
	<ellipse class="st3" cx="308.9" cy="168" rx="7.9" ry="8.4"/>
	<polygon class="st3" points="307.1,173 310.8,173 310.9,179.7 307.2,179.8 	"/>
	<path class="st3" d="M309.4,177.8L309.4,177.8c5,0,9.2,4.2,9.2,9.6l0,0l0.1,8.8l0,0l-18.3,0.2l0,0l-0.1-8.8
		C300.3,182.2,304.3,177.8,309.4,177.8C309.4,177.8,309.4,177.8,309.4,177.8z"/>
	<path class="st3" d="M302.7,158.2c0,0,5.3-3.4,6.3-7.1c1.6,3.3,3.7,6.3,6.2,8.9L302.7,158.2z"/>
</g>
<linearGradient id="SVGID_5_" gradientUnits="userSpaceOnUse" x1="147.8817" y1="2.2008" x2="147.8817" y2="210.4976" gradientTransform="matrix(1 0 0 -1 0 801)">
	<stop  offset="0" style="stop-color:#818181;stop-opacity:0.25"/>
	<stop  offset="0.54" style="stop-color:#818181;stop-opacity:0.12"/>
	<stop  offset="1" style="stop-color:#818181;stop-opacity:0.1"/>
</linearGradient>
<rect x="47.5" y="590.5" class="st7" width="200.7" height="208.3"/>
<rect x="48.6" y="592.1" class="st3" width="198.7" height="205.1"/>
<rect x="68.7" y="609.1" class="st8" width="158.3" height="130.2"/>
<rect x="72.2" y="692.1" class="st9" width="139.8" height="6.8"/>
<rect x="94.5" y="705.8" class="st9" width="95.2" height="6.8"/>
<g class="st0">
	
		<linearGradient id="SVGID_6_" gradientUnits="userSpaceOnUse" x1="407.9316" y1="453.4688" x2="407.9316" y2="538.814" gradientTransform="matrix(1 0 0 -1 0 801)">
		<stop  offset="0" style="stop-color:#818181;stop-opacity:0.25"/>
		<stop  offset="0.54" style="stop-color:#818181;stop-opacity:0.12"/>
		<stop  offset="1" style="stop-color:#818181;stop-opacity:0.1"/>
	</linearGradient>
	<rect x="372.5" y="262.2" class="st10" width="70.8" height="85.3"/>
</g>
<rect x="374.8" y="263.4" class="st2" width="67.1" height="84.2"/>
<ellipse class="st3" cx="407.6" cy="303.1" rx="12.4" ry="13.1"/>
<ellipse class="st3" cx="407.6" cy="307.4" rx="11.2" ry="11.9"/>
<rect x="404.9" y="314.6" class="st3" width="5.2" height="9.5"/>
<path class="st3" d="M406.3,321.3h3.7c6.1,0,11.1,5.3,11.1,11.7v14.5l0,0h-25.9l0,0v-14.5C395.2,326.6,400.1,321.3,406.3,321.3z"/>
<path class="st3" d="M401.7,289.1c-0.8,0.4-1.6,0.9-2.3,1.4c-0.7,0.4-1.3,0.9-1.7,1.6c-0.1,0.3-0.2,0.6-0.4,0.8
	c-0.4,0.4-0.9,0.4-1.5,0.5c-1.7,0.4-2.5,2.3-3,4.1c-0.3,1-0.5,2.1-0.6,3.1c-0.2,0.7-0.1,1.4,0.1,2.1c0.1,0.3,0.3,0.5,0.4,0.8
	c0.3,1.1-0.6,2.1-0.8,3.2c-0.1,1,0.1,2,0.5,2.9c0.1,0.3,0.2,0.6,0.4,0.8c0.1,0.2,0.3,0.4,0.5,0.5c0.4,0.4,0.6,0.9,0.8,1.4
	c1.8,0.3,3.5,0.9,5.2,1.6c2.8,1.1,5.5,2.7,8.5,2.6c0.8,0,1.6-0.2,2.3-0.5c1.5-0.6,2.8-1.6,4.2-2.2c1.4-0.3,2.8-0.6,4.2-0.8
	c0.7-0.1,1.5-0.7,1.2-1.4c0.7,0.3,1.5,0.1,2-0.4c0.5-0.5,1-1.2,1.2-1.9c0.6-1.2,1.1-2.4,1.4-3.7c0.6-2.5,0.2-5.1-0.9-7.4
	c-0.2-0.4-0.5-0.8-0.8-1.1c-0.3-0.2-0.6-0.3-0.8-0.6c-0.3-0.3-0.5-0.6-0.7-0.9c-0.9-1.6-1.9-3.2-3-4.8c-1-1.5-2.2-3.1-3.9-3.8
	c-2.5-1-4.3,0.6-6.6,0.7c-1,0-1.9-0.4-3-0.2C403.7,288.1,402.7,288.5,401.7,289.1z"/>
<g class="st0">
	
		<linearGradient id="SVGID_7_" gradientUnits="userSpaceOnUse" x1="274.214" y1="561.706" x2="274.214" y2="634.6861" gradientTransform="matrix(1 0 0 -1 0 801)">
		<stop  offset="0" style="stop-color:#818181;stop-opacity:0.25"/>
		<stop  offset="0.54" style="stop-color:#818181;stop-opacity:0.12"/>
		<stop  offset="1" style="stop-color:#818181;stop-opacity:0.1"/>
	</linearGradient>
	<rect x="243.9" y="166.3" class="st11" width="60.6" height="73"/>
</g>
<rect x="245.9" y="167.3" class="st2" width="57.4" height="72"/>
<ellipse class="st3" cx="273.9" cy="201.3" rx="10.6" ry="11.2"/>
<ellipse class="st3" cx="273.9" cy="205" rx="9.6" ry="10.2"/>
<rect x="271.6" y="211.1" class="st3" width="4.5" height="8.1"/>
<path class="st3" d="M274.4,216.9L274.4,216.9c6.1,0,11,5.3,11,11.7v10.7l0,0h-22.1l0,0v-10.7C263.3,222.1,268.3,216.9,274.4,216.9
	C274.4,216.9,274.4,216.9,274.4,216.9z"/>
<path class="st3" d="M268.9,189.3c-0.7,0.4-1.3,0.8-2,1.2c-0.6,0.3-1.1,0.8-1.4,1.4c-0.1,0.2-0.2,0.5-0.3,0.7
	c-0.3,0.3-0.8,0.3-1.2,0.4c-1.4,0.3-2.1,2-2.5,3.5c-0.2,0.9-0.4,1.8-0.6,2.7c-0.1,0.6-0.1,1.2,0.1,1.8c0.1,0.2,0.2,0.5,0.3,0.7
	c0.3,0.9-0.5,1.8-0.7,2.7c-0.1,0.9,0,1.7,0.4,2.5c0.1,0.2,0.2,0.5,0.3,0.7c0.1,0.2,0.3,0.3,0.4,0.5c0.3,0.4,0.6,0.8,0.7,1.2
	c1.5,0.3,3,0.7,4.5,1.3c2.4,1,4.7,2.3,7.2,2.2c0.7,0,1.4-0.2,2-0.4c1.3-0.5,2.4-1.4,3.6-1.8c1.2-0.3,2.4-0.5,3.6-0.6
	c0.6-0.1,1.3-0.6,1.1-1.2c0.6,0.2,1.2,0.1,1.7-0.4c0.5-0.5,0.8-1,1.1-1.6c0.5-1,0.9-2.1,1.2-3.2c0.5-2.1,0.2-4.4-0.8-6.3
	c-0.2-0.4-0.4-0.7-0.7-1c-0.2-0.2-0.5-0.3-0.7-0.5c-0.2-0.2-0.4-0.5-0.6-0.8c-0.8-1.4-1.6-2.8-2.5-4.1c-0.8-1.4-1.9-2.5-3.3-3.2
	c-2.1-0.9-3.7,0.5-5.7,0.6c-0.9,0-1.7-0.3-2.6-0.1C270.5,188.6,269.7,188.9,268.9,189.3z"/>
<g class="st0">
	
		<linearGradient id="SVGID_8_" gradientUnits="userSpaceOnUse" x1="890.016" y1="168.4425" x2="890.016" y2="275.3348" gradientTransform="matrix(0.8453 -0.5344 -0.5344 -0.8453 71.9001 972.4175)">
		<stop  offset="0" style="stop-color:#818181;stop-opacity:0.25"/>
		<stop  offset="0.54" style="stop-color:#818181;stop-opacity:0.12"/>
		<stop  offset="1" style="stop-color:#818181;stop-opacity:0.1"/>
	</linearGradient>
	<polygon class="st12" points="671.8,267.3 738.6,266.6 739.4,351.1 672.6,351.8 	"/>
</g>
<polygon class="st2" points="672.8,269.8 737.4,269.1 738.1,350.1 673.5,350.8 "/>
<ellipse class="st3" cx="705.6" cy="307.7" rx="11.9" ry="12.6"/>
<ellipse class="st3" cx="705.7" cy="311.9" rx="10.8" ry="11.5"/>
<polygon class="st3" points="703.2,318.8 708.3,318.7 708.3,327.9 703.3,327.9 "/>
<path class="st3" d="M705,325.3l2.7,0c6.1-0.1,11.1,5.1,11.2,11.6l0,0l0.1,13.4l0,0l-24.9,0.2l0,0l-0.1-13.4
	C693.9,330.6,698.8,325.3,705,325.3L705,325.3z"/>
<ellipse class="st3" cx="705.5" cy="295.1" rx="4.3" ry="4.6"/>
<path class="st3" d="M706.9,287.7c2.3-0.5,4.6,0.3,6.8,1.2c1.9,0.6,3.7,1.6,5.2,3c2.8,2.8,3.4,7.2,3.5,11.2c0.1,4-0.1,8.2,1.6,11.8
	c2,4,6,6.5,10.2,6.3c-2.4,1.7-5.7,1.6-8.4,0.3c-2.4-1.1-4.4-3-5.7-5.4c-0.8-1.6-1.5-3.4-2-5.1c-1.8-5.2-4.3-10.2-7.3-14.8
	c-0.4-0.7-1-1.4-1.6-2c-0.9-0.7-2-1.2-3.1-1.3c-0.9-0.1-2.5,0.3-3.1-0.6C701.8,290.1,705.6,287.9,706.9,287.7z"/>
<g class="st0">
	
		<linearGradient id="SVGID_9_" gradientUnits="userSpaceOnUse" x1="483.071" y1="513.9726" x2="483.071" y2="605.3571" gradientTransform="matrix(0.8447 -0.5385 -0.5385 -0.8447 74.4436 972.5774)">
		<stop  offset="0" style="stop-color:#818181;stop-opacity:0.25"/>
		<stop  offset="0.54" style="stop-color:#818181;stop-opacity:0.12"/>
		<stop  offset="1" style="stop-color:#818181;stop-opacity:0.1"/>
	</linearGradient>
	<polygon class="st13" points="152.8,204.8 209.9,204.2 210.6,276.4 153.4,277 	"/>
</g>
<polygon class="st2" points="153.7,206.4 208.9,205.9 209.5,275.2 154.3,275.7 "/>
<ellipse class="st3" cx="181.7" cy="238.8" rx="10.2" ry="10.8"/>
<ellipse class="st3" cx="181.7" cy="242.4" rx="9.3" ry="9.8"/>
<polygon class="st3" points="179.6,248.3 183.9,248.3 184,256.1 179.7,256.1 "/>
<path class="st3" d="M182.3,253.8L182.3,253.8c5.9-0.1,10.7,4.9,10.7,11.2l0,0l0.1,10.3l0,0l-21.3,0.2l0,0l-0.1-10.3
	C171.7,259,176.4,253.9,182.3,253.8z"/>
<ellipse class="st3" cx="181.6" cy="228" rx="3.7" ry="3.9"/>
<path class="st3" d="M182.8,221.7c1.9-0.4,3.9,0.3,5.8,1c1.6,0.5,3.2,1.4,4.5,2.6c2.4,2.3,2.9,6.1,3,9.5c0.1,3.4-0.1,7,1.3,10.1
	c1.7,3.4,5.1,5.5,8.7,5.4c-2.1,1.5-4.9,1.3-7.2,0.2c-2-1-3.7-2.6-4.9-4.6c-0.7-1.4-1.2-2.9-1.7-4.4c-1.6-4.5-3.6-8.7-6.2-12.6
	c-0.4-0.6-0.8-1.2-1.4-1.7c-0.8-0.6-1.7-1-2.6-1.1c-0.8-0.1-2.1,0.3-2.6-0.6C178.5,223.8,181.7,221.9,182.8,221.7z"/>
<g class="st0">
	
		<linearGradient id="SVGID_10_" gradientUnits="userSpaceOnUse" x1="245.925" y1="293.7454" x2="245.925" y2="399.0826" gradientTransform="matrix(0.9187 0.3951 0.3951 -0.9187 -275.9925 537.7148)">
		<stop  offset="0" style="stop-color:#818181;stop-opacity:0.25"/>
		<stop  offset="0.54" style="stop-color:#818181;stop-opacity:0.12"/>
		<stop  offset="1" style="stop-color:#818181;stop-opacity:0.1"/>
	</linearGradient>
	<polygon class="st14" points="52,274.6 120.8,273.9 121.5,358.7 52.8,359.3 	"/>
</g>
<polygon class="st2" points="53.4,276.3 119.7,275.6 120.4,358.7 54.2,359.3 "/>
<ellipse class="st3" cx="86.3" cy="315.1" rx="12.2" ry="12.9"/>
<ellipse class="st3" cx="86.4" cy="319.4" rx="11.1" ry="11.8"/>
<polygon class="st3" points="83.8,326.5 89,326.5 89.1,335.9 83.9,335.9 "/>
<path class="st3" d="M85.4,333.2l3.4,0c6.1-0.1,11.1,5.1,11.2,11.6l0.1,14.1l0,0l-25.5,0.2l0,0L74.4,345
	C74.3,338.5,79.2,333.2,85.4,333.2L85.4,333.2z"/>
<path class="st3" d="M77.8,305.8c0,0,7.4-4.8,8.8-9.9c0,0,3.4,7.4,8.6,12.5L77.8,305.8z"/>
<ellipse class="st3" cx="147.7" cy="666.5" rx="21.1" ry="22.3"/>
<ellipse class="st3" cx="147.7" cy="673.9" rx="19.2" ry="20.3"/>
<polygon class="st3" points="143.4,686.1 152.3,686 152.4,702.3 143.5,702.4 "/>
<path class="st3" d="M148.2,697.6l1.3,0c11.8-0.1,21.5,9.9,21.6,22.4c0,0,0,0,0,0l0.2,22l0,0l-44.1,0.4l0,0l-0.2-22
	C126.9,708,136.4,697.7,148.2,697.6C148.2,697.6,148.2,697.6,148.2,697.6z"/>
<path class="st3" d="M132.8,650.3c0,0,12.7-8.2,15.2-17c0,0,5.9,12.8,14.9,21.5L132.8,650.3z"/>
<g class="st0">
	
		<linearGradient id="SVGID_11_" gradientUnits="userSpaceOnUse" x1="618.4642" y1="584.7612" x2="618.4642" y2="674.7706" gradientTransform="matrix(0.8935 0.3819 0.382 -0.8835 -248.6877 526.8702)">
		<stop  offset="0" style="stop-color:#818181;stop-opacity:0.25"/>
		<stop  offset="0.54" style="stop-color:#818181;stop-opacity:0.12"/>
		<stop  offset="1" style="stop-color:#818181;stop-opacity:0.1"/>
	</linearGradient>
	<polygon class="st15" points="516.5,169.8 573.9,169.3 574.5,238.7 517.1,239.2 	"/>
</g>
<polygon class="st2" points="517.7,171.2 572.9,170.7 573.5,238.7 518.3,239.2 "/>
<ellipse transform="matrix(4.274234e-03 -1 1 4.274234e-03 339.7748 747.2976)" class="st3" cx="545.1" cy="203" rx="10.6" ry="10.2"/>
<ellipse transform="matrix(3.966541e-03 -1 1 3.966541e-03 336.4574 750.9089)" class="st3" cx="545.2" cy="206.6" rx="9.6" ry="9.3"/>
<polygon class="st3" points="543.2,211.7 547.5,211.7 547.6,219.4 543.3,219.4 "/>
<path class="st3" d="M545.7,217.8L545.7,217.8c5.9-0.1,10.7,4.9,10.7,11.2v0l0.1,9.9l0,0l-21.3,0.2l0,0l-0.1-9.9
	C535.1,222.9,539.8,217.8,545.7,217.8C545.7,217.8,545.7,217.8,545.7,217.8z"/>
<path class="st3" d="M538,195.4c0,0,6.1-3.9,7.3-8.1c1.8,3.8,4.3,7.2,7.2,10.2L538,195.4z"/>
<g class="st0">
	
		<linearGradient id="SVGID_12_" gradientUnits="userSpaceOnUse" x1="397.8165" y1="232.0805" x2="397.8165" y2="345.4377" gradientTransform="matrix(1 0 0 -1 0 801)">
		<stop  offset="0" style="stop-color:#818181;stop-opacity:0.25"/>
		<stop  offset="0.54" style="stop-color:#818181;stop-opacity:0.12"/>
		<stop  offset="1" style="stop-color:#818181;stop-opacity:0.1"/>
	</linearGradient>
	<polygon class="st16" points="352.3,455.6 352.3,457.2 385.7,518.5 385.7,555 410.2,568.9 410.2,568.1 410.2,518.5 443.3,457.2 
		443.3,455.6 	"/>
</g>
<rect x="353.3" y="456.4" class="st17" width="88.5" height="1.6"/>
<rect x="353.3" y="456.4" class="st18" width="88.5" height="1.6"/>
<polygon class="st17" points="353.3,458 385.8,518.4 385.8,554.4 409.6,567.3 409.6,518.4 441.8,458 "/>
<polygon class="st19" points="387.3,554.4 387.3,518.4 354.8,458 353.3,458 385.8,518.4 385.8,554.4 "/>
<polygon class="st17" points="385.8,554.4 409.6,568.1 409.6,567.3 387.3,554.4 "/>
<polygon class="st18" points="385.8,554.4 409.6,568.1 409.6,567.3 387.3,554.4 "/>
<linearGradient id="SVGID_13_" gradientUnits="userSpaceOnUse" x1="673.5553" y1="2.6402" x2="673.5553" y2="210.937" gradientTransform="matrix(1 0 0 -1 0 801)">
	<stop  offset="0" style="stop-color:#818181;stop-opacity:0.25"/>
	<stop  offset="0.54" style="stop-color:#818181;stop-opacity:0.12"/>
	<stop  offset="1" style="stop-color:#818181;stop-opacity:0.1"/>
</linearGradient>
<rect x="573.2" y="590.1" class="st20" width="200.7" height="208.3"/>
<rect x="574.2" y="591.7" class="st3" width="198.7" height="205.1"/>
<rect x="594.4" y="608.7" class="st8" width="158.3" height="130.2"/>
<rect x="599.5" y="696.1" class="st9" width="139.8" height="6.8"/>
<rect x="621.8" y="709.7" class="st9" width="95.2" height="6.8"/>
<linearGradient id="SVGID_14_" gradientUnits="userSpaceOnUse" x1="410.4921" y1="1.8331" x2="410.4921" y2="211.6364" gradientTransform="matrix(1 0 0 -1 0 801)">
	<stop  offset="0" style="stop-color:#818181;stop-opacity:0.25"/>
	<stop  offset="0.54" style="stop-color:#818181;stop-opacity:0.12"/>
	<stop  offset="1" style="stop-color:#818181;stop-opacity:0.1"/>
</linearGradient>
<rect x="309.4" y="589.4" class="st21" width="202.1" height="209.8"/>
<rect x="310.5" y="591" class="st3" width="200.1" height="206.6"/>
<rect x="330.8" y="608.1" class="st8" width="159.5" height="131.1"/>
<rect x="330.6" y="693.9" class="st9" width="140.8" height="6.9"/>
<rect x="353.1" y="707.6" class="st9" width="95.9" height="6.9"/>
<path class="st22" d="M84.1,375c0,0-0.8,99.5,82.1,80.7s85.5-49.3,180.3-9.9"/>
<path class="st22" d="M705.4,366.1c0,0,0.8,99.5-82.1,80.7s-85.5-49.3-180.3-9.9"/>
<path class="st22" d="M407.4,366.1c0,0-11,27.8,5.1,41.2c16.1,13.5-1.7,42.1-1.7,42.1"/>
<path class="st22" d="M181.8,295.4c0,0,12.7,65.5,74.5,65.5s116,73.5,104.1,82.5"/>
<path class="st22" d="M271.5,258.7c0,0-16.3,31.7,1.6,64c8.6,15.2,22.5,26.3,38.7,30.9c38.4,11.1,55.1,6,79.9,72.8"/>
<path class="st22" d="M544.9,260.5c0,0,13,16.8-11.3,52.2c-9.7,13.9-23,24.5-38.4,30.3c-24.5,9.7-48.5,37.6-48.5,78.8"/>
<g class="st0">
	<g class="st0">
		
			<linearGradient id="SVGID_15_" gradientUnits="userSpaceOnUse" x1="409.506" y1="619.0123" x2="409.506" y2="680.1025" gradientTransform="matrix(1 0 0 -1 0 801)">
			<stop  offset="0" style="stop-color:#818181;stop-opacity:0.25"/>
			<stop  offset="0.54" style="stop-color:#818181;stop-opacity:0.12"/>
			<stop  offset="1" style="stop-color:#818181;stop-opacity:0.1"/>
		</linearGradient>
		<rect x="384.2" y="120.9" class="st23" width="50.7" height="61.1"/>
	</g>
	<rect x="385.8" y="121.7" class="st2" width="48" height="60.2"/>
	<ellipse class="st3" cx="409.2" cy="150.2" rx="8.9" ry="9.4"/>
	<ellipse class="st3" cx="409.2" cy="153.3" rx="8" ry="8.5"/>
	<rect x="407.4" y="158.4" class="st3" width="3.8" height="6.8"/>
	<path class="st3" d="M409.6,163.2L409.6,163.2c5.1,0,9.3,4.4,9.3,9.8c0,0,0,0,0,0v9l0,0h-18.5l0,0v-9
		C400.4,167.6,404.5,163.2,409.6,163.2z"/>
	<path class="st3" d="M405.1,140.2c-0.6,0.3-1.1,0.7-1.7,1c-0.5,0.3-0.9,0.7-1.2,1.2c-0.1,0.2-0.2,0.4-0.3,0.6
		c-0.3,0.3-0.7,0.3-1,0.4c-1.2,0.3-1.8,1.7-2.1,2.9c-0.2,0.7-0.3,1.5-0.5,2.3c-0.1,0.5-0.1,1,0,1.5c0.1,0.2,0.2,0.4,0.3,0.6
		c0.2,0.8-0.4,1.5-0.6,2.3c-0.1,0.7,0,1.4,0.3,2.1c0.1,0.2,0.2,0.4,0.3,0.6c0.1,0.1,0.2,0.3,0.3,0.4c0.3,0.3,0.5,0.6,0.6,1
		c1.3,0.3,2.5,0.6,3.7,1.1c2,0.8,3.9,2,6,1.9c0.6,0,1.2-0.2,1.7-0.4c1.1-0.4,2-1.2,3-1.5c1-0.2,2-0.4,3-0.5c0.5-0.1,1.1-0.5,0.9-1
		c0.5,0.2,1.1,0.1,1.4-0.3c0.4-0.4,0.7-0.8,0.8-1.3c0.4-0.8,0.8-1.7,1-2.6c0.4-1.8,0.2-3.7-0.6-5.3c-0.1-0.3-0.4-0.6-0.6-0.8
		c-0.2-0.2-0.4-0.2-0.6-0.4c-0.2-0.2-0.3-0.4-0.5-0.6c-0.7-1.2-1.4-2.3-2.1-3.4c-0.7-1.2-1.6-2.1-2.8-2.7c-1.8-0.7-3.1,0.4-4.7,0.5
		c-0.7-0.1-1.4-0.2-2.2-0.1C406.4,139.5,405.7,139.8,405.1,140.2z"/>
</g>
<g class="st0">
	<g class="st0">
		
			<linearGradient id="SVGID_16_" gradientUnits="userSpaceOnUse" x1="652.4364" y1="555.3486" x2="652.4364" y2="616.4388" gradientTransform="matrix(1 0 0 -1 0 801)">
			<stop  offset="0" style="stop-color:#818181;stop-opacity:0.25"/>
			<stop  offset="0.54" style="stop-color:#818181;stop-opacity:0.12"/>
			<stop  offset="1" style="stop-color:#818181;stop-opacity:0.1"/>
		</linearGradient>
		<rect x="627.1" y="184.6" class="st24" width="50.7" height="61.1"/>
	</g>
	<rect x="628.7" y="185.4" class="st2" width="48" height="60.2"/>
	<ellipse class="st3" cx="652.2" cy="213.8" rx="8.9" ry="9.4"/>
	<ellipse class="st3" cx="652.2" cy="217" rx="8" ry="8.5"/>
	<rect x="650.3" y="222.1" class="st3" width="3.8" height="6.8"/>
	<path class="st3" d="M652.6,226.9L652.6,226.9c5.1,0,9.3,4.4,9.3,9.8v9l0,0h-18.5l0,0v-9C643.3,231.3,647.5,226.9,652.6,226.9z"/>
	<path class="st3" d="M648,203.8c-0.6,0.3-1.1,0.7-1.7,1c-0.5,0.3-0.9,0.7-1.2,1.2c-0.1,0.2-0.2,0.4-0.3,0.6c-0.3,0.3-0.7,0.3-1,0.4
		c-1.2,0.3-1.8,1.7-2.1,2.9c-0.2,0.7-0.3,1.5-0.5,2.3c-0.1,0.5-0.1,1,0,1.5c0.1,0.2,0.2,0.4,0.3,0.6c0.2,0.8-0.4,1.5-0.6,2.3
		c-0.1,0.7,0,1.4,0.3,2.1c0.1,0.2,0.2,0.4,0.3,0.6c0.1,0.1,0.2,0.3,0.3,0.4c0.3,0.3,0.5,0.6,0.6,1c1.3,0.3,2.5,0.6,3.7,1.1
		c2,0.8,3.9,2,6,1.9c0.6,0,1.2-0.2,1.7-0.4c1.1-0.4,2-1.2,3-1.5c1-0.2,2-0.4,3-0.5c0.5-0.1,1.1-0.5,0.9-1c0.5,0.2,1.1,0.1,1.4-0.3
		c0.4-0.4,0.7-0.8,0.8-1.3c0.4-0.8,0.8-1.7,1-2.6c0.4-1.8,0.2-3.7-0.6-5.3c-0.1-0.3-0.4-0.6-0.6-0.8c-0.2-0.2-0.4-0.2-0.6-0.4
		c-0.2-0.2-0.3-0.4-0.5-0.6c-0.7-1.2-1.4-2.3-2.1-3.4c-0.7-1.2-1.6-2.1-2.8-2.7c-1.8-0.7-3.1,0.4-4.7,0.5c-0.7-0.1-1.4-0.2-2.2-0.1
		C649.4,203.2,648.7,203.4,648,203.8z"/>
</g>
<ellipse class="st3" cx="407.7" cy="668" rx="20" ry="21.2"/>
<ellipse class="st3" cx="407.7" cy="675.1" rx="18.2" ry="19.3"/>
<polygon class="st3" points="403.6,686.7 412.1,686.6 412.2,702 403.7,702.1 "/>
<path class="st3" d="M408.8,697.6L408.8,697.6c11.6-0.1,21,9.7,21.1,22l0.2,20.2l0,0l-41.9,0.4l0,0l-0.2-20.2
	C388,707.7,397.3,697.7,408.8,697.6z"/>
<ellipse class="st3" cx="678" cy="669.9" rx="19.4" ry="20.6"/>
<rect x="673.5" y="682.3" class="st3" width="9.1" height="16.5"/>
<path class="st3" d="M678,693.9h1.9c11.8,0,21.4,10.1,21.4,22.6v22.6l0,0h-44.7l0,0v-22.6C656.6,704.1,666.2,693.9,678,693.9
	C678,693.9,678,693.9,678,693.9z"/>
<path class="st3" d="M699.8,690.7c-0.8,0.9-40.6,2.7-43.2,0c1.7-9,0-30.9,0-30.9c0-12.6,9.7-22.9,21.6-22.9l0,0l0,0
	c11.9,0,21.6,10.2,21.6,22.9l0,0C699.8,659.7,697.2,687.1,699.8,690.7z"/>
</svg>
