<?xml version="1.0" encoding="utf-8"?>
<!-- Generator: Adobe Illustrator 23.0.3, SVG Export Plug-In . SVG Version: 6.00 Build 0)  -->
<svg version="1.1" id="Calque_1" xmlns="http://www.w3.org/2000/svg" xmlns:xlink="http://www.w3.org/1999/xlink" x="0px" y="0px"
	 viewBox="0 0 835.6 660" style="enable-background:new 0 0 835.6 660;" xml:space="preserve">
<style type="text/css">
	.st0{fill:url(#SVGID_1_);}
	.st1{fill:#FFFFFF;}
	.st2{fill:#6C63FF;}
	.st3{fill:url(#SVGID_2_);}
	.st4{opacity:0.5;fill:#6C63FF;enable-background:new    ;}
	.st5{opacity:0.2;fill:#6C63FF;enable-background:new    ;}
	.st6{fill:#69F0AE;}
	.st7{fill:url(#SVGID_3_);}
	.st8{fill:url(#SVGID_4_);}
	.st9{fill:none;}
	.st10{fill:url(#SVGID_5_);}
	.st11{fill:#2196F3;}
	.st12{fill:url(#SVGID_6_);}
	.st13{fill:url(#SVGID_7_);}
	.st14{fill:url(#SVGID_8_);}
	.st15{fill:url(#SVGID_9_);}
	.st16{fill:url(#SVGID_10_);}
	.st17{fill:url(#SVGID_11_);}
	.st18{fill:url(#SVGID_12_);}
	.st19{fill:url(#SVGID_13_);}
	.st20{fill:url(#SVGID_14_);}
	.st21{fill:url(#SVGID_15_);}
	.st22{fill:url(#SVGID_16_);}
	.st23{fill:url(#SVGID_17_);}
	.st24{fill:url(#SVGID_18_);}
	.st25{fill:#A1616A;}
	.st26{fill:#3F3D56;}
	.st27{opacity:0.1;enable-background:new    ;}
	.st28{opacity:0.15;enable-background:new    ;}
	.st29{fill:#FBBEBE;}
	.st30{opacity:0.1;}
	.st31{fill:#3C354C;}
	.st32{fill:#FFC1C7;}
	.st33{fill:#F2F2F2;}
	.st34{fill:#2F2E41;}
	.st35{fill:#192534;}
</style>
<title>calendar</title>
<linearGradient id="SVGID_1_" gradientUnits="userSpaceOnUse" x1="435.61" y1="133" x2="435.61" y2="662" gradientTransform="matrix(1 0 0 -1 0 662)">
	<stop  offset="0" style="stop-color:#808080;stop-opacity:0.25"/>
	<stop  offset="0.54" style="stop-color:#808080;stop-opacity:0.12"/>
	<stop  offset="1" style="stop-color:#808080;stop-opacity:0.1"/>
</linearGradient>
<rect x="35.6" class="st0" width="800" height="529"/>
<rect x="42.6" y="62.5" class="st1" width="784" height="450.5"/>
<rect x="42.6" y="11" class="st2" width="784" height="51.5"/>
<linearGradient id="SVGID_2_" gradientUnits="userSpaceOnUse" x1="435.61" y1="174" x2="435.61" y2="567" gradientTransform="matrix(1 0 0 -1 0 662)">
	<stop  offset="0" style="stop-color:#808080;stop-opacity:0.25"/>
	<stop  offset="0.54" style="stop-color:#808080;stop-opacity:0.12"/>
	<stop  offset="1" style="stop-color:#808080;stop-opacity:0.1"/>
</linearGradient>
<rect x="53.6" y="95" class="st3" width="764" height="393"/>
<rect x="63.1" y="102" class="st4" width="92" height="73.5"/>
<rect x="156.1" y="102" class="st1" width="92" height="73.5"/>
<rect x="249.1" y="102" class="st5" width="92" height="73.5"/>
<rect x="342.1" y="102" class="st1" width="92" height="73.5"/>
<rect x="435.1" y="102" class="st1" width="92" height="73.5"/>
<rect x="528.1" y="102" class="st4" width="92" height="73.5"/>
<rect x="621.1" y="102" class="st1" width="92" height="73.5"/>
<rect x="714.1" y="102" class="st5" width="92" height="73.5"/>
<rect x="63.1" y="177" class="st5" width="92" height="73.5"/>
<rect x="156.1" y="177" class="st5" width="92" height="73.5"/>
<rect x="249.1" y="177" class="st1" width="92" height="73.5"/>
<rect x="342.1" y="177" class="st4" width="92" height="73.5"/>
<rect x="435.1" y="177" class="st1" width="92" height="73.5"/>
<rect x="528.1" y="177" class="st5" width="92" height="73.5"/>
<rect x="621.1" y="177" class="st4" width="92" height="73.5"/>
<rect x="714.1" y="177" class="st1" width="92" height="73.5"/>
<rect x="63.1" y="251" class="st1" width="92" height="73.5"/>
<rect x="156.1" y="251" class="st1" width="92" height="73.5"/>
<rect x="249.1" y="251" class="st5" width="92" height="73.5"/>
<rect x="342.1" y="251" class="st1" width="92" height="73.5"/>
<rect x="435.1" y="251" class="st5" width="92" height="73.5"/>
<rect x="528.1" y="251" class="st1" width="92" height="73.5"/>
<rect x="621.1" y="251" class="st1" width="92" height="73.5"/>
<rect x="714.1" y="251" class="st5" width="92" height="73.5"/>
<rect x="63.1" y="325" class="st1" width="92" height="73.5"/>
<rect x="156.1" y="325" class="st4" width="92" height="73.5"/>
<rect x="249.1" y="325" class="st4" width="92" height="73.5"/>
<rect x="342.1" y="325" class="st1" width="92" height="73.5"/>
<rect x="435.1" y="325" class="st1" width="92" height="73.5"/>
<rect x="528.1" y="325" class="st4" width="92" height="73.5"/>
<rect x="621.1" y="325" class="st1" width="92" height="73.5"/>
<rect x="714.1" y="325" class="st4" width="92" height="73.5"/>
<rect x="63.1" y="400" class="st4" width="92" height="73.5"/>
<rect x="156.1" y="400" class="st5" width="92" height="73.5"/>
<rect x="249.1" y="400" class="st1" width="92" height="73.5"/>
<rect x="342.1" y="400" class="st4" width="92" height="73.5"/>
<rect x="435.1" y="400" class="st5" width="92" height="73.5"/>
<rect x="528.1" y="400" class="st1" width="92" height="73.5"/>
<rect x="621.1" y="400" class="st5" width="92" height="73.5"/>
<rect x="714.1" y="400" class="st1" width="92" height="73.5"/>
<rect x="70.6" y="258" class="st6" width="28" height="28"/>
<rect x="348.6" y="110" class="st6" width="28" height="28"/>
<rect x="345.6" y="258" class="st6" width="28" height="28"/>
<rect x="440.6" y="329" class="st6" width="28" height="28"/>
<rect x="625.6" y="258" class="st6" width="28" height="28"/>
<linearGradient id="SVGID_3_" gradientUnits="userSpaceOnUse" x1="171.55" y1="1.95" x2="171.55" y2="345.05" gradientTransform="matrix(1 0 0 -1 0 662)">
	<stop  offset="0" style="stop-color:#808080;stop-opacity:0.25"/>
	<stop  offset="0.54" style="stop-color:#808080;stop-opacity:0.12"/>
	<stop  offset="1" style="stop-color:#808080;stop-opacity:0.1"/>
</linearGradient>
<circle class="st7" cx="171.6" cy="488.5" r="171.5"/>
<circle class="st2" cx="171.6" cy="488.5" r="166.9"/>
<circle class="st1" cx="171.6" cy="488.5" r="135.6"/>
<linearGradient id="SVGID_4_" gradientUnits="userSpaceOnUse" x1="171.55" y1="165.39" x2="171.55" y2="181.61" gradientTransform="matrix(1 0 0 -1 0 662)">
	<stop  offset="0" style="stop-color:#808080;stop-opacity:0.25"/>
	<stop  offset="0.54" style="stop-color:#808080;stop-opacity:0.12"/>
	<stop  offset="1" style="stop-color:#808080;stop-opacity:0.1"/>
</linearGradient>
<circle class="st8" cx="171.6" cy="488.5" r="8.1"/>
<line class="st9" x1="216.8" y1="384.2" x2="172.7" y2="488.5"/>
<linearGradient id="SVGID_5_" gradientUnits="userSpaceOnUse" x1="194.61" y1="172.5" x2="194.61" y2="279.5" gradientTransform="matrix(1 0 0 -1 0 662)">
	<stop  offset="0" style="stop-color:#808080;stop-opacity:0.25"/>
	<stop  offset="0.54" style="stop-color:#808080;stop-opacity:0.12"/>
	<stop  offset="1" style="stop-color:#808080;stop-opacity:0.1"/>
</linearGradient>
<polygon class="st10" points="174.6,489.5 169.6,487.8 214.6,382.5 219.6,384.9 "/>
<rect x="138.1" y="434.6" transform="matrix(0.389 -0.9213 0.9213 0.389 -282.9647 445.9895)" class="st11" width="113.2" height="3.5"/>
<line class="st9" x1="172.7" y1="489.7" x2="201.7" y2="543"/>
<linearGradient id="SVGID_6_" gradientUnits="userSpaceOnUse" x1="187.61" y1="117.5" x2="187.61" y2="173.5" gradientTransform="matrix(1 0 0 -1 0 662)">
	<stop  offset="0" style="stop-color:#808080;stop-opacity:0.25"/>
	<stop  offset="0.54" style="stop-color:#808080;stop-opacity:0.12"/>
	<stop  offset="1" style="stop-color:#808080;stop-opacity:0.1"/>
</linearGradient>
<polygon class="st12" points="199.6,544.5 170.6,490.5 174.6,488.5 204.6,541.5 "/>
<rect x="185.4" y="486" transform="matrix(0.8787 -0.4775 0.4775 0.8787 -223.8273 152.0326)" class="st11" width="3.5" height="60.7"/>
<circle class="st2" cx="297.9" cy="492" r="3.5"/>
<linearGradient id="SVGID_7_" gradientUnits="userSpaceOnUse" x1="621.83" y1="-181.3819" x2="621.83" y2="-172.3519" gradientTransform="matrix(0.5 0.866 0.866 -0.5 -95.0326 -200.9344)">
	<stop  offset="0" style="stop-color:#808080;stop-opacity:0.25"/>
	<stop  offset="0.54" style="stop-color:#808080;stop-opacity:0.12"/>
	<stop  offset="1" style="stop-color:#808080;stop-opacity:0.1"/>
</linearGradient>
<circle class="st13" cx="62.7" cy="426" r="4.5"/>
<linearGradient id="SVGID_8_" gradientUnits="userSpaceOnUse" x1="246.0687" y1="-17.17" x2="246.0687" y2="-8.14" gradientTransform="matrix(1 0 0 -1 -182.1958 542.0143)">
	<stop  offset="0" style="stop-color:#808080;stop-opacity:0.25"/>
	<stop  offset="0.54" style="stop-color:#808080;stop-opacity:0.12"/>
	<stop  offset="1" style="stop-color:#808080;stop-opacity:0.1"/>
</linearGradient>
<circle class="st14" cx="63.9" cy="554.7" r="4.5"/>
<linearGradient id="SVGID_9_" gradientUnits="userSpaceOnUse" x1="411.9559" y1="-151.3197" x2="411.9559" y2="-142.2782" gradientTransform="matrix(0.866 0.5 0.5 -0.866 -238.1548 158.8705)">
	<stop  offset="0" style="stop-color:#808080;stop-opacity:0.25"/>
	<stop  offset="0.54" style="stop-color:#808080;stop-opacity:0.12"/>
	<stop  offset="1" style="stop-color:#808080;stop-opacity:0.1"/>
</linearGradient>
<circle class="st15" cx="45.2" cy="492" r="4.5"/>
<linearGradient id="SVGID_10_" gradientUnits="userSpaceOnUse" x1="820.6306" y1="-104.4822" x2="820.6306" y2="-95.4407" gradientTransform="matrix(0 1 1 0 208.8043 -440.9785)">
	<stop  offset="0" style="stop-color:#808080;stop-opacity:0.25"/>
	<stop  offset="0.54" style="stop-color:#808080;stop-opacity:0.12"/>
	<stop  offset="1" style="stop-color:#808080;stop-opacity:0.1"/>
</linearGradient>
<circle class="st16" cx="108.8" cy="379.7" r="4.5"/>
<linearGradient id="SVGID_11_" gradientUnits="userSpaceOnUse" x1="804.4095" y1="-41.8865" x2="804.4095" y2="-32.845" gradientTransform="matrix(0 1 1 0 208.8031 -440.9794)">
	<stop  offset="0" style="stop-color:#808080;stop-opacity:0.25"/>
	<stop  offset="0.54" style="stop-color:#808080;stop-opacity:0.12"/>
	<stop  offset="1" style="stop-color:#808080;stop-opacity:0.1"/>
</linearGradient>
<circle class="st17" cx="171.4" cy="363.4" r="4.5"/>
<linearGradient id="SVGID_12_" gradientUnits="userSpaceOnUse" x1="820.6251" y1="20.7072" x2="820.6251" y2="29.7372" gradientTransform="matrix(0 1 1 0 208.8026 -440.9681)">
	<stop  offset="0" style="stop-color:#808080;stop-opacity:0.25"/>
	<stop  offset="0.54" style="stop-color:#808080;stop-opacity:0.12"/>
	<stop  offset="1" style="stop-color:#808080;stop-opacity:0.1"/>
</linearGradient>
<circle class="st18" cx="234" cy="379.7" r="4.5"/>
<linearGradient id="SVGID_13_" gradientUnits="userSpaceOnUse" x1="866.9991" y1="67.0651" x2="866.9991" y2="76.1066" gradientTransform="matrix(0 1 1 0 208.8086 -440.9745)">
	<stop  offset="0" style="stop-color:#808080;stop-opacity:0.25"/>
	<stop  offset="0.54" style="stop-color:#808080;stop-opacity:0.12"/>
	<stop  offset="1" style="stop-color:#808080;stop-opacity:0.1"/>
</linearGradient>
<circle class="st19" cx="280.4" cy="426" r="4.5"/>
<linearGradient id="SVGID_14_" gradientUnits="userSpaceOnUse" x1="995.663" y1="65.9126" x2="995.663" y2="74.9541" gradientTransform="matrix(0 1 1 0 208.8065 -440.9756)">
	<stop  offset="0" style="stop-color:#808080;stop-opacity:0.25"/>
	<stop  offset="0.54" style="stop-color:#808080;stop-opacity:0.12"/>
	<stop  offset="1" style="stop-color:#808080;stop-opacity:0.1"/>
</linearGradient>
<circle class="st20" cx="279.2" cy="554.7" r="4.5"/>
<linearGradient id="SVGID_15_" gradientUnits="userSpaceOnUse" x1="1040.8712" y1="18.3898" x2="1040.8712" y2="27.4198" gradientTransform="matrix(0 1 1 0 208.8008 -440.9807)">
	<stop  offset="0" style="stop-color:#808080;stop-opacity:0.25"/>
	<stop  offset="0.54" style="stop-color:#808080;stop-opacity:0.12"/>
	<stop  offset="1" style="stop-color:#808080;stop-opacity:0.1"/>
</linearGradient>
<circle class="st21" cx="231.7" cy="599.9" r="4.5"/>
<linearGradient id="SVGID_16_" gradientUnits="userSpaceOnUse" x1="1054.7848" y1="-41.8892" x2="1054.7848" y2="-32.8477" gradientTransform="matrix(0 1 1 0 208.8008 -440.9779)">
	<stop  offset="0" style="stop-color:#808080;stop-opacity:0.25"/>
	<stop  offset="0.54" style="stop-color:#808080;stop-opacity:0.12"/>
	<stop  offset="1" style="stop-color:#808080;stop-opacity:0.1"/>
</linearGradient>
<circle class="st22" cx="171.4" cy="613.8" r="4.5"/>
<linearGradient id="SVGID_17_" gradientUnits="userSpaceOnUse" x1="1040.8672" y1="-102.1632" x2="1040.8672" y2="-93.1332" gradientTransform="matrix(0 1 1 0 208.8044 -440.9717)">
	<stop  offset="0" style="stop-color:#808080;stop-opacity:0.25"/>
	<stop  offset="0.54" style="stop-color:#808080;stop-opacity:0.12"/>
	<stop  offset="1" style="stop-color:#808080;stop-opacity:0.1"/>
</linearGradient>
<circle class="st23" cx="111.2" cy="599.9" r="4.5"/>
<circle class="st6" cx="171.6" cy="363.3" r="3.5"/>
<circle class="st6" cx="234.1" cy="380.1" r="3.5"/>
<ellipse transform="matrix(0.866 -0.5 0.5 0.866 -175.4451 197.0417)" class="st6" cx="280" cy="425.9" rx="3.5" ry="3.5"/>
<ellipse transform="matrix(0.5 -0.866 0.866 0.5 -340.7481 519.1669)" class="st6" cx="279.2" cy="554.7" rx="3.5" ry="3.5"/>
<ellipse transform="matrix(0.866 -0.5 0.5 0.866 -268.783 196.194)" class="st6" cx="231.7" cy="599.7" rx="3.5" ry="3.5"/>
<circle class="st6" cx="109" cy="380.1" r="3.5"/>
<ellipse transform="matrix(0.5 -0.866 0.866 0.5 -337.2767 267.6356)" class="st6" cx="63.1" cy="425.9" rx="3.5" ry="3.5"/>
<ellipse transform="matrix(0.866 -0.5 0.5 0.866 -206.1528 214.8236)" class="st6" cx="297.8" cy="492.1" rx="4.5" ry="4.5"/>
<ellipse transform="matrix(0.866 -0.5 0.5 0.866 -268.7815 106.2492)" class="st6" cx="63.9" cy="554.7" rx="3.5" ry="3.5"/>
<ellipse transform="matrix(0.5 -0.866 0.866 0.5 -463.6245 396.2933)" class="st6" cx="111.4" cy="599.7" rx="3.5" ry="3.5"/>
<circle class="st6" cx="45.2" cy="492" r="3.5"/>
<circle class="st6" cx="171.6" cy="613.7" r="3.5"/>
<path class="st5" d="M42.9,501.2c0-74.9,60.8-135.6,135.7-135.6c48.6,0,93.4,26,117.6,68.1c-29.6-68.8-109.4-100.6-178.2-71
	S17.4,472.2,47,541c2,4.7,4.3,9.3,6.9,13.8C46.6,537.9,42.9,519.7,42.9,501.2z"/>
<circle class="st6" cx="171.6" cy="488.5" r="5.8"/>
<linearGradient id="SVGID_18_" gradientUnits="userSpaceOnUse" x1="497.0787" y1="34.8313" x2="497.0787" y2="479.3087" gradientTransform="matrix(1 0 0 -1 -35.84 605.37)">
	<stop  offset="0" style="stop-color:#808080;stop-opacity:0.25"/>
	<stop  offset="0.54" style="stop-color:#808080;stop-opacity:0.12"/>
	<stop  offset="1" style="stop-color:#808080;stop-opacity:0.1"/>
</linearGradient>
<path class="st24" d="M548.5,524.2c-2.3-1.7-4.8-3.1-7.4-4.2c-0.2-0.1-0.4-0.2-0.7-0.2c-5.5-3.9-10.6-8.3-15.3-13.2
	c1-0.8,1.9-1.6,2.9-2.3c-6-2.9-9.3-9.4-12.6-15.3c-8.6-15.7-19.9-29.8-33.3-41.5c-0.3-1.3-2.3-1-3.3-1.8c-0.7-0.7-1-1.6-0.7-2.5
	c0.2-0.9,0.6-1.8,0.8-2.7c0.5-2.1,0.1-4.3-0.2-6.5s-0.1-4.6,1.3-6.2c0.5-0.5,1-0.9,1.5-1.5c1-1.3,1.3-2.9,1-4.5
	c-0.1-1.6-0.4-3.1-1-4.5c4.9-13.3,9.8-26.7,14.7-40.1c3.4-9.3,6.9-18.9,7.2-28.8c0.3-8-1.8-16.3-6.6-22.4c0.9-0.2,1.8-0.4,2.6-0.7
	c-5.7-7.6-6.3-17.6-6.5-27.2c-0.1-4.8-0.2-9.5-0.5-14.3c1.7,0.7,3.3,1.4,5.1,1.9l1.6,0.5c2.6,0.8,5.2,1.3,7.9,1.7
	c1.2,0.2,2.4,0.3,3.6,0.4l0,0c-1.7-4.3-3.4-8.6-5.2-12.9c-0.9-1.9-1.4-4-1.6-6.1l0,0v-0.4c0-0.2,0-0.5,0-0.7
	c0.1-0.6,0.2-1.1,0.4-1.7c0.1-0.3,0.2-0.5,0.3-0.8c0.4-0.8,0.8-1.5,1.3-2.3c0.4-0.5,0.8-1.1,1.2-1.6c1.5-1.7,2.7-3.7,3.6-5.8
	c0.4-1.1,0.5-2.2,0.5-3.3c0-1.1-0.1-2.3-0.3-3.4c-0.1-0.7-0.3-1.5-0.5-2.2l0,0c-0.1-0.5-0.3-0.9-0.4-1.3l-0.1-0.4
	c-0.1-0.3-0.2-0.7-0.3-1l-0.1-0.3c-0.1-0.4-0.3-0.7-0.4-1.1l-0.1-0.2c-1.9-4.9-4.5-9.6-6-14.6c-0.4-1.3-0.7-2.7-1-4.1
	c-0.1-0.4-0.1-0.7-0.2-1.1s-0.1-0.6-0.1-0.9s-0.1-0.7-0.1-1l-0.1-1c0-0.3,0-0.6-0.1-1c0-0.6-0.1-1.2-0.1-1.8c0-0.2,0-0.4,0-0.6
	c0-0.5,0-0.9,0-1.4c0-0.3,0-0.5,0-0.7c0-0.5,0.1-0.9,0.1-1.4c0-0.2,0-0.4,0.1-0.6c0.1-0.7,0.2-1.3,0.3-2l0,0
	c0.1-0.6,0.2-1.2,0.3-1.8c0.4-1.6,0.5-3.3,0.6-5c0-0.3,0-0.6-0.1-1s-0.1-0.5-0.1-0.8c0-0.1,0-0.2,0-0.2c0-0.2-0.1-0.4-0.1-0.5
	s0-0.2-0.1-0.3s-0.1-0.4-0.2-0.5s0-0.1-0.1-0.2s-0.1-0.4-0.2-0.5l-0.1-0.2c-0.1-0.2-0.2-0.4-0.3-0.6l0,0c-0.4-0.7-0.8-1.4-1.3-2.1
	l0,0c-3.3-4.3-8.8-7.6-11.8-12.4c-1.8-3.1-2.9-6.5-3.4-10c-0.2-0.8-0.3-1.6-0.4-2.4s-0.3-1.6-0.4-2.4c-0.1-0.5-0.2-1-0.3-1.4
	l-0.1-0.3c-0.1-0.4-0.2-0.8-0.3-1.1l-0.1-0.3c-0.1-0.4-0.2-0.8-0.3-1.2l-0.1-0.2c-0.1-0.4-0.2-0.8-0.3-1.3c0,0,0-0.1,0-0.1
	c-0.1-0.4-0.3-0.9-0.4-1.3V162c-0.1-0.5-0.3-0.9-0.4-1.4l0,0c-0.2-0.5-0.3-0.9-0.5-1.4l0,0c-0.2-0.5-0.3-0.9-0.5-1.4l0,0
	c-1.3-3.2-3-6.3-5.1-9c-4.6-5.9-11.7-10.1-19-9.8c-3.9,0.1-7.7,1.5-11.4,2.9l-9.6,3.5l2.7-1.2c-2.8,0.3-5.7,0.5-8.2,1.8
	s-4.7,3.7-4.8,6.5c0,1.6,0.6,3.3,0.4,4.9c-0.3,2.7-2.8,4.5-4.1,7c-0.8,1.4-1.1,3.1-1,4.7v0.1c0,0.2,0,0.4,0,0.6c0,0.1,0,0.1,0,0.2
	v0.3c-4-1.7-8-3.5-12-5.5c-6.6-3.3-13.3-7.1-17.4-13.2c-1.3-2-2.3-4.2-3.7-6.1c-1.5-2.1-3.2-4.1-5-6l-12.3-13.3
	c-0.9,1.8,0.3,3.9,1.2,5.6c1,1.8,1.8,3.8,2.3,5.9c0.2,0.7,0.2,1.4-0.1,2c-0.4,0.5-1,0.9-1.7,1.2c-2.3,1.5-3.3,4.3-2.5,6.9
	c0.9,2.5,3,4.4,5.7,4.9c0.9,0.1,1.7,0.3,2.5,0.6c1.5,0.7,2.2,2.4,3.2,3.7c1.9,2.3,5,3.2,7.9,4c4.5,5.2,9.3,10.3,13.8,15.5
	c6.9,7.9,13.9,16,22.9,21.4c0.9,0.6,1.9,1.1,2.8,1.6c0,0.2,0,0.3,0,0.5c-0.3,1.2-0.1,2.4,0.4,3.5c0.8,1.3,2.5,1.6,3.9,1.9l6.8,1.2
	c-0.1,0.9-0.2,1.8-0.3,2.6c-0.1,0.5-0.2,1-0.3,1.6l0,0l-0.1,0.7c0,0,0,0.1,0,0.1s0,0.4-0.1,0.5s0,0.1,0,0.2v0.5v0.2
	c0,0.2,0,0.4,0,0.6c0.2,2.7,2,4.9,3.8,6.9l1,1.1c-1.5,1.9-2.6,4.1-3.1,6.5c-0.3,1.5-0.4,3-0.4,4.5c-0.9,0.9-1.6,1.9-2,3.1
	c-0.5,1.6-0.7,3.3-0.5,5.1v0.1c0,0.6,0,1.3,0,1.9c-0.1,2.4,0.3,4.8,1.2,7c0.1,0.2,0.2,0.3,0.3,0.5c-1.5,2.9-4,5.2-5.8,8
	c-3.7,6.3-3.1,14.2,1.6,19.9c1.4,1.6,3.1,3.1,3.3,5.2c0,1-0.1,1.9-0.3,2.8c-0.2,2.3,0.9,4.4,1.4,6.6c0.5,1.8,0.5,4-0.5,5.5
	c-1.1,1.5-1.5,3.4-1.4,5.2c0.5,2.8-0.7,5.7-0.9,8.5c-0.1,1.2,0,2.5-0.1,3.7c-0.1,1.2-0.4,2.3-0.7,3.5c0,0.1-0.1,0.3-0.1,0.4
	c-2.5,1.1-4.9,2.2-7.3,3.5c-1.3,0.6-2.3,1.5-3,2.8c-0.4,1.2-0.5,2.5-0.2,3.8l2.1,14.8l-0.4-0.2c0.2,2.4,0.3,4.9,0.5,7.3
	c0.1,1.8,0.3,3.8,1.4,5.3c0.6,0.6,1.1,1.2,1.5,1.9c0.8,1.7-0.2,3.7-0.9,5.4s-1,4.2,0.6,5.2c0.9,0.6,1.8,1.1,2.7,1.5
	c-2,8.3-0.2,17.1,1.7,25.5c1.4,6.4,2.8,12.8,4.3,19.2c0.6,2.7,0.9,5.5,0.9,8.2c0,0.4,0,0.8,0,1.2c0.2,3.8,0.9,7.6,2,11.2
	c2.2,7.5,0.1,16.5,0.8,24.6c0.5,3.9,1.2,7.8,2.3,11.6c4.8,19.2,9.1,37.9,10.8,57.6c1.8,2.3,4.2,3.9,6.9,4.8c-0.2,2.4,0.1,5.2,0,6.6
	c0,1.2-0.2,2.3-0.5,3.4c-0.8,2.2-3,3.7-5.2,4.5c-0.7,0.2-1.4,0.4-2.1,0.6l0.8-0.7c-4.6-1-9.4-0.2-13.3,2.3c-1.3,0.6-2.2,1.8-2.6,3.1
	c-0.2,1.3,0.2,2.6,0.9,3.6c2.2,3.2,5.5,5.6,9.3,6.6c3.7,1,7.6,1.5,11.4,1.6l7.1,0.4c-0.5,0.8-0.3,1.9,0.5,2.5
	c0.8,0.6,1.7,0.9,2.6,0.9c2.9,0.4,5.8,0.5,8.7,0.1c0.7,0,1.4-0.3,2-0.7c0.5-0.5,0.6-1.3,0.1-1.8c0,0-0.1-0.1-0.1-0.1
	c0.9,0,1.6-0.6,1.9-1.4c0.3-0.8,0.4-1.7,0.3-2.5c-0.2-3.3-0.5-8.1-2.2-11c-0.6-1.1-1.9-1.7-3.1-1.4c-1.1-5.9-1.8-11.8-2-17.7
	c1.8-0.7,3.5-1.4,5.1-2.3c-4.9-7.9-5-18-3.5-27.2c0.6-2.9,1-5.9,1.3-8.8c0.3-5.9-0.6-12.6-3.8-17.5c6,3.8,11.2,8.6,15.6,14.1
	c6.9,9,11.1,19.9,19.6,27.4c1.1-1.1,2.2-2.2,3.4-3.2c1.8,3,3.5,6.1,5.1,9.3c1.3,2.3,2.2,4.8,2.9,7.3c0.8,3.9,0.9,7.9,0.3,11.8
	c-0.2,2.1-0.5,4.1-0.8,6.2c-0.1,0.9-0.3,1.8-0.6,2.6c0-0.3-0.1-0.5-0.2-0.8c-0.5-0.9-2-0.5-2.8,0.1c-1.4,1.1-2.6,2.4-3.5,4
	c-0.5,0.8-0.7,1.7-0.6,2.5c0.3,1.1,1,2,2,2.5c3.7,2.2,8.4,0.6,12.3-1c1.1-0.4,2.1-0.9,3.1-1.6c2-1.4,3.1-3.8,5.1-5.2
	c1.1-0.6,2.1-1.2,3.1-1.9c1.8-1.7,2-4.5,3.3-6.7c2.2-3.7,7.3-4.6,9.2-8.5C554.5,532.4,551.9,527,548.5,524.2z"/>
<path class="st25" d="M462.3,541.8c0,1.2-0.2,2.3-0.5,3.4c-0.8,2.2-3,3.6-5.2,4.4s-4.6,1-6.8,1.7c-1,0.2-1.9,0.7-2.7,1.4
	c-2,2-0.8,5.6,1.5,7.1s5.3,1.4,8.1,1.3c5.9-0.3,11.8-1.2,17.5-2.5c2.1-0.5,4.5-1.5,4.8-3.6c0.1-0.7,0-1.3-0.2-2
	c-1.4-7.2-2.2-14.4-2.3-21.7c0-0.5-11.6-0.8-12.7-0.1C461.5,532.7,462.4,539.3,462.3,541.8z"/>
<path class="st25" d="M514,516.3c1.9,3.2,3.7,6.4,5.4,9.7c1.2,2.3,2.2,4.7,2.9,7.2c0.8,3.8,0.9,7.8,0.3,11.6c-0.2,2-0.5,4.1-0.9,6.1
	c-0.3,2-0.9,4.3-2.6,5.4c1.5,0.9,3.4,1.1,5.1,0.5c1.7-0.6,3.2-1.6,4.5-2.8c8.6-7.1,15-17.3,15.3-28.5c0.1-0.9-0.1-1.7-0.5-2.5
	c-0.4-0.5-0.9-1-1.5-1.3c-6.4-4.4-12.3-9.3-17.7-14.9c-0.3-0.4-0.8-0.7-1.3-0.8c-0.4,0-0.8,0.1-1.2,0.3c-3.3,1.7-8.8,4-10.2,7.8
	C512.7,514.6,513.5,515.4,514,516.3z"/>
<path class="st26" d="M474,553.4c-7.2,3-15,4.1-22.8,5.1c-1,0.1-2.1,0.2-2.7-0.5c-0.5-0.7-0.6-1.6-0.2-2.3c0.4-0.7,1-1.3,1.7-1.8
	l5.2-4.3c-4.5-1-9.2-0.1-13.1,2.3c-1.2,0.6-2.2,1.7-2.6,3c-0.2,1.3,0.2,2.5,0.9,3.5c2.2,3.2,5.5,5.5,9.2,6.5c3.7,1,7.5,1.5,11.4,1.6
	l7,0.4c-0.5,0.8-0.3,1.9,0.5,2.5c0.8,0.6,1.7,0.9,2.6,1c2.9,0.4,5.8,0.5,8.7,0.1c0.7,0,1.4-0.3,2-0.7c0.5-0.5,0.6-1.3,0.1-1.8
	c0,0-0.1-0.1-0.1-0.1c0.9,0,1.6-0.6,1.9-1.4c0.3-0.8,0.4-1.7,0.3-2.5c-0.2-3.2-0.5-8-2.2-10.8S476.4,552.4,474,553.4z"/>
<path class="st26" d="M548.3,524.8c-2.3-1.7-4.8-3.1-7.4-4.1c-0.4-0.3-0.9-0.2-1.2,0.2c0,0.1-0.1,0.1-0.1,0.2
	c-4.7,6.4-8.4,13.5-10.9,21.1c-1.4,4.3-2.6,8.9-5.5,12.4c-0.4,0.5-1,0.9-1.5,0.7c-0.8-0.4-0.3-1.6-0.7-2.3c-0.5-0.9-1.9-0.5-2.8,0.1
	c-1.4,1.1-2.6,2.4-3.4,4c-0.5,0.7-0.7,1.6-0.6,2.5c0.3,1.1,1,2,2,2.5c3.7,2.2,8.4,0.6,12.3-1c1.1-0.4,2.1-0.9,3.1-1.5
	c2-1.4,3.1-3.8,5.1-5.1c1.1-0.6,2.1-1.2,3.1-1.9c1.8-1.7,2-4.5,3.3-6.6c2.2-3.6,7.3-4.6,9.2-8.4
	C554.3,532.9,551.7,527.6,548.3,524.8z"/>
<path class="st26" d="M492.5,325c7.9,5.9,11.2,16.4,10.8,26.2s-3.8,19.2-7.2,28.5c-4.9,13.2-9.8,26.4-14.7,39.5c0.5,1.4,0.9,3,1,4.5
	c0.3,1.5-0.1,3.2-1,4.4c-0.5,0.5-1,0.9-1.5,1.5c-1.4,1.6-1.5,4-1.3,6.1s0.7,4.3,0.2,6.4c-0.2,0.9-0.7,1.7-0.8,2.6
	c-0.2,0.9,0.1,1.9,0.7,2.5c1,0.8,3,0.5,3.3,1.8c13.4,11.6,24.7,25.5,33.3,41c3.2,5.8,6.5,12.3,12.6,15.1
	c-5.9,4.7-11.5,9.6-16.9,14.9c-8.5-7.4-12.7-18.2-19.6-27c-4.4-5.5-9.6-10.2-15.6-13.9c3.3,4.8,4.2,11.4,3.8,17.2
	c-0.3,2.9-0.7,5.8-1.3,8.7c-1.5,9.1-1.4,19,3.5,26.9c-5.2,2.7-11.3,4.7-17.1,3.9c-3.7-0.5-7-2.4-9.3-5.3c-1.7-19.4-6-38-10.8-56.9
	c-1.1-3.8-1.9-7.6-2.3-11.5c-0.7-8,1.4-16.9-0.8-24.3c-1.1-3.6-1.8-7.3-2-11.1c0-0.4,0-0.8,0-1.2c-0.1-2.7-0.4-5.4-0.9-8.1
	l-4.3-18.9c-1.9-8.3-3.7-16.9-1.7-25.1c-1-0.4-1.9-0.9-2.7-1.4c-1.6-0.9-1.4-3.4-0.6-5.1s1.7-3.7,0.9-5.3c-0.4-0.7-0.9-1.3-1.5-1.9
	c-1.1-1.5-1.3-3.4-1.4-5.2l-0.5-7.2c3,1.2,5.5,3.4,7.1,6.2c-3.9-6.1-2-14.8,0.9-21.5c1.1-4.2,4.8-7.1,9.2-7.3
	C459.9,322,479.5,315.2,492.5,325z"/>
<path class="st27" d="M485.2,366.1c0,0-7.9,5.3-7.9,9.2s-2,39.4-2,39.4v25c0,0,1.3,13.1,0,16.4s0,18.4,0,20.4s2-20.4,2-20.4v-23.7
	l2-53.9L485.2,366.1z"/>
<path class="st25" d="M441.2,184l-4.6-1.8c-9.4-3.8-18.8-7.5-27.8-11.9c-6.6-3.2-13.3-7-17.4-13c-1.3-2-2.3-4.1-3.7-6.1
	c-1.5-2.1-3.2-4.1-5-5.9l-12.3-13.1c-0.9,1.8,0.3,3.8,1.2,5.5c1,1.8,1.8,3.8,2.3,5.8c0.2,0.7,0.2,1.4-0.1,2c-0.4,0.5-1,0.9-1.7,1.2
	c-2.3,1.4-3.3,4.2-2.5,6.8c0.9,2.5,3,4.4,5.7,4.9c0.9,0.1,1.7,0.3,2.5,0.6c1.5,0.7,2.2,2.4,3.2,3.6c1.9,2.3,5,3.2,7.9,3.9
	c4.5,5.2,9.3,10.1,13.8,15.3c6.9,7.8,13.9,15.8,22.8,21.1c3.2,1.9,6.7,3.3,10.3,4.1C437.2,199.1,438.9,191.5,441.2,184z"/>
<path class="st28" d="M441.2,184l-4.6-1.8c-9.4-3.8-18.8-7.5-27.8-11.9c-6.6-3.2-13.3-7-17.4-13c-1.3-2-2.3-4.1-3.7-6.1
	c-1.5-2.1-3.2-4.1-5-5.9l-12.3-13.1c-0.9,1.8,0.3,3.8,1.2,5.5c1,1.8,1.8,3.8,2.3,5.8c0.2,0.7,0.2,1.4-0.1,2c-0.4,0.5-1,0.9-1.7,1.2
	c-2.3,1.4-3.3,4.2-2.5,6.8c0.9,2.5,3,4.4,5.7,4.9c0.9,0.1,1.7,0.3,2.5,0.6c1.5,0.7,2.2,2.4,3.2,3.6c1.9,2.3,5,3.2,7.9,3.9
	c4.5,5.2,9.3,10.1,13.8,15.3c6.9,7.8,13.9,15.8,22.8,21.1c3.2,1.9,6.7,3.3,10.3,4.1C437.2,199.1,438.9,191.5,441.2,184z"/>
<path class="st2" d="M432.8,210.1c-1.5-0.3-3.1-0.6-3.9-1.9c-0.5-1.1-0.7-2.3-0.4-3.5c0.8-7.5,2.5-15,5-22.1
	c2.2,4.1,6.6,6.5,10.8,8.7c3.7,2.1,7.6,3.8,11.6,5.3c-1-0.3-3.5,15.1-4.8,16c-1.7,1.2-5.9-0.4-7.9-0.8L432.8,210.1z"/>
<circle class="st25" cx="443.5" cy="184.5" r="21"/>
<path class="st29" d="M439.2,201.9c0,0,13.8,11.8,7.9,19.7s-9.2,13.1-1.3,13.8s34.2-13.1,34.2-13.1s-24.3-19.7-20.4-31.5
	S439.2,201.9,439.2,201.9z"/>
<path class="st2" d="M452.4,220.4c-6,1.4-10.7,6.1-12.1,12.1c-1.5,7.1,1.7,15-1.4,21.5c-1.5,3.1-4.2,5.4-6,8.3
	c-3.7,6.2-3.1,14.1,1.6,19.6c1.4,1.6,3.1,3.1,3.3,5.1c0,0.9-0.1,1.9-0.3,2.8c-0.2,2.2,0.9,4.3,1.4,6.5c0.5,1.8,0.5,3.9-0.5,5.4
	c-1,1.5-1.5,3.3-1.4,5.2c0.5,2.8-0.7,5.6-0.9,8.4c-0.1,1.2,0,2.4-0.1,3.7c-0.1,1.2-0.4,2.3-0.7,3.4l-1.8,6.5
	c9.5,4.1,19.7,5.5,30,5.4c9.2-0.2,18.3-2.1,27.4-4c2.8-0.6,5.5-1.2,8.2-1.9c-5.7-7.5-6.3-17.4-6.5-26.8c-0.2-15.7-1.4-31.3-3.5-46.9
	c2.8-5.2,4-11.1,5.1-16.9c0.5-2.3,0.7-4.7,0.6-7.1c-0.3-5-2.6-9.8-4.8-14.3c-2.1-4.1-4.3-8.5-8.9-10.3c-2.3-0.9-4.8-0.7-6.8,0.8
	c-3.5,2.6-2.4,7.1-3.3,11c-1.2,5-5.8,8.6-10.7,10c-3.7,1-7.5,1.3-11.2,1c-1.1-0.1-1.9-1-1.9-2.1c0-0.4,0.2-0.8,0.5-1.2
	C449.4,223.9,451,222.1,452.4,220.4z"/>
<path class="st25" d="M468.7,301.7c-7.8,6.4-15.7,12.8-24.6,17.3c-5.3,2.6-10.9,4.6-16,7.4c-1.3,0.6-2.3,1.5-3,2.7
	c-0.4,1.2-0.5,2.5-0.2,3.8l2.3,15.7c0.6,4.3,4.7,7,8,9.7c-0.2-1.4-0.5-2.5,0.2-3.8c0.2-0.4,0.5-0.8,0.8-1.2c1.4-2.1,1.5-4.9,1.1-7.4
	s-1-5-0.9-7.6c-0.1-0.9,0.3-1.7,1.1-2.2c11.2-5.4,23.2-9.5,34.5-14.6c3-1.2,5.8-2.8,8.4-4.8c2.6-2,4.3-4.9,4.9-8.1
	c0.1-0.4,0-0.9-0.2-1.2c-0.2-0.2-0.5-0.4-0.8-0.5C479.1,305.2,473.7,303.5,468.7,301.7z"/>
<path class="st27" d="M447.1,235.7c-3.9,0.6-7.9,2.6-9.2,6.4c-0.5,1.6-0.6,3.3-0.5,5c-0.1,2.4,0.3,4.7,1.2,6.9
	c0.7,1.2,1.4,2.4,2.3,3.4c9.2,11.8,13.9,26.7,22.9,38.7c0.8,1.1,2.3,2.4,1.8,3.7c-0.2,0.3-0.3,0.7-0.4,1c-0.1,0.7,0.2,1.3,0.7,1.8
	c0.5,0.4,0.9,1,1.1,1.6c0.2,0.6-0.3,1.5-0.9,1.4c1.1,3.3,4.4,5.3,7.5,6.9c5.2,2.6,11,4.7,16.8,4.1c1.1-4.4,2.6-9.3,2-13.8
	c-0.6-3.4-1.8-6.7-3.3-9.8l-3.9-8.5c-3.3-7.3-6.7-14.6-11.3-21.2c-1.7-2.1-3.1-4.3-4.2-6.8c-1.2-3.1-4.5-5.3-6.4-7.9
	c-2.9-4-6-8-9.9-10.9C451.6,236.6,449,235.4,447.1,235.7z"/>
<path class="st2" d="M447.1,233.7c-3.9,0.6-7.9,2.6-9.2,6.3c-0.5,1.6-0.6,3.3-0.5,5c-0.1,2.4,0.3,4.7,1.2,6.9
	c0.7,1.2,1.4,2.4,2.3,3.4c9.2,11.8,13.9,26.7,22.9,38.7c0.8,1.1,2.3,2.4,1.8,3.7c-0.2,0.3-0.3,0.7-0.4,1c-0.1,0.7,0.2,1.3,0.7,1.8
	c0.5,0.4,0.9,1,1.1,1.6c0.2,0.6-0.3,1.5-0.9,1.4c1.1,3.3,4.4,5.3,7.5,6.9c5.2,2.6,11,4.7,16.8,4.1c1.1-4.4,2.6-9.3,2-13.8
	c-0.6-3.4-1.8-6.7-3.3-9.8l-3.9-8.5c-3.3-7.3-6.7-14.6-11.3-21.2c-1.7-2.1-3.1-4.3-4.2-6.8c-1.2-3.1-4.5-5.3-6.4-7.9
	c-2.9-4-6-8-9.9-10.9C451.6,234.6,449,233.4,447.1,233.7z"/>
<path class="st26" d="M438.3,150c-2.8,0.2-5.7,0.5-8.2,1.7s-4.7,3.6-4.8,6.4c0,1.6,0.6,3.3,0.4,4.9c-0.3,2.7-2.8,4.5-4.1,6.9
	c-2.2,4.1-0.5,9.4,2.4,13s6.8,6.4,9.8,10.1c4.8,5.9,6.7,13.5,5.4,20.9c-0.4,1.4-0.5,2.9-0.5,4.4c0.2,2.6,2,4.8,3.8,6.8
	c8.6,10,16.5,20.6,23.7,31.6c2.2,3.2,4.1,6.5,5.8,10c1.7,3.6,3,7.4,5.4,10.6c2.2,2.7,4.8,5,7.9,6.8c7.6,4.7,16.3,7.5,25.2,8.1
	l-5.2-12.8c-0.9-2.3-1.8-4.7-1.5-7.1c0.6-4.6,5.2-7.6,6.7-12c1-2.8,0.5-5.9-0.3-8.8c-1.8-6.5-5.5-12.3-7.4-18.7
	c-1.7-5.6-2.1-11.6-1.1-17.4c0.4-2.6,1.1-5.1,0.8-7.7c-1-7.8-10.1-11.6-14.4-18.2c-2.7-4.3-3.3-9.5-4.2-14.5
	c-1.3-7.3-3.7-14.5-8.3-20.3s-11.6-10-19-9.7c-3.9,0.1-7.7,1.5-11.4,2.9l-9.6,3.5"/>
<g class="st30">
	<path d="M481.3,166.3c0.8,4.5,1.3,9.2,3.5,13.2c-0.3-1.6-0.5-3.1-0.8-4.7c-0.7-3.9-1.8-7.8-3.2-11.5
		C481,164.4,481.1,165.3,481.3,166.3z"/>
	<path d="M499.1,206.7c-1,5.8-0.6,11.8,1.1,17.4c0.5,1.5,1,3,1.6,4.5c-0.8-4.4-0.9-8.9-0.1-13.4c0.4-2.6,1.1-5.1,0.8-7.7
		c-0.3-2.2-1.2-4.3-2.6-6C499.7,203.3,499.3,205,499.1,206.7z"/>
	<path d="M510.2,251.4c-0.6-1.9-1.2-3.7-2-5.5c0.3,1.9,0.2,3.9-0.4,5.8c-1.5,4.4-6.2,7.4-6.7,12c-0.3,2.4,0.6,4.8,1.5,7.1
		c0.3,0.8,0.7,1.7,1,2.6c0-0.4,0-0.7,0-1.1c0.6-4.6,5.2-7.6,6.7-12C511.5,257.3,511,254.2,510.2,251.4z"/>
	<path d="M482.7,275.3c-3-1.7-5.7-4-7.9-6.8c-2.4-3.2-3.7-7-5.4-10.6c-1.7-3.5-3.7-6.8-5.8-10c-7.2-11-15.2-21.6-23.7-31.6
		c-0.3-0.4-0.6-0.7-0.9-1.1c-0.2,0.9-0.3,1.9-0.2,2.8c0.2,2.6,2,4.8,3.8,6.8c8.6,10,16.5,20.6,23.7,31.6c2.2,3.2,4.1,6.5,5.8,10
		c1.7,3.6,3,7.4,5.4,10.6c2.2,2.7,4.8,5,7.9,6.8c7.6,4.7,16.3,7.5,25.2,8.1l-3.5-8.6C498.4,282.6,490,279.9,482.7,275.3z"/>
	<path d="M431.2,184.4c-3-3.6-6.9-6.4-9.8-10c-0.3-0.3-0.5-0.7-0.8-1.1c-0.1,3.5,1.1,6.9,3.4,9.6c2.9,3.7,6.8,6.4,9.8,10.1
		c1.2,1.4,2.2,2.9,3,4.6C436.2,192.7,434.3,188.1,431.2,184.4z"/>
</g>
<rect x="501.1" y="776.6" class="st31" width="392.7" height="0.7"/>
<path class="st32" d="M672.8,483.2l-12.7-7c0,0-30.7-4-26.5-18c4.2-14,25.4,0,25.4,0l13.8,8.9V483.2z"/>
<path class="st27" d="M672.8,483.2l-12.7-7c0,0-30.7-4-26.5-18c4.2-14,25.4,0,25.4,0l13.8,8.9V483.2z"/>
<path class="st32" d="M719.5,412.2c0,0-30.7,21-30.7,14c0-4.2-5.4-17.1-9.6-26.7c-2.8-6.4-5.2-11.3-5.2-11.3l31.7-8
	c-1,4.8-0.9,9.8,0.4,14.6C707.9,402.1,712.7,408.4,719.5,412.2z"/>
<path class="st32" d="M655.9,590.5c0,0-24.4,51-15.9,70c0,0-26.5,76-35,79c-8.5,3,21.2,8,21.2,8s34.9-44,37-79
	c2.1-35,40.3-71,40.3-71L655.9,590.5z"/>
<path class="st32" d="M712,611.2c0,0,13.8,42,31.8,54c0,0,37.1,58,31.7,76c0,0,21.2,3,22.3,0c0,0-9.5-63-32.8-88
	c-23.3-25-12.7-55-12.7-55L712,611.2z"/>
<path class="st33" d="M618.8,740.5c0,0-12.7-10-22.2-2c-9.5,8-26.5,6-39.2,2c-12.7-4-11.6,6,18,19c29.7,13,46.6,16,46.6,16
	s4.2-16,4.2-20s2.6-11.5,2.6-11.5L618.8,740.5z"/>
<path class="st33" d="M786.2,739.2c0,0-12.7-7-14.8,6c-2.1,13-32.8,21-32.8,21s-14.8,13,30.7,9c45.6-4,42.4-12,42.4-12l-14.4-25.9
	L786.2,739.2z"/>
<path class="st26" d="M672.8,544.2c0,0-32.8,44-20.1,49s11.7-8,24.4,6c12.7,14,45.6,7,49.8,4c4.2-3,14.8-16,23.3-15
	c8.5,1-13.8-51-13.8-51L672.8,544.2z"/>
<path class="st27" d="M703.2,390.6c-4.5,4-7.7,10.8-14.4,10.8c-3.3,0-6.6-0.6-9.6-1.8c-2.8-6.4-5.2-11.3-5.2-11.3l31.7-8
	C704.6,386,702.1,386.5,703.2,390.6z"/>
<ellipse class="st32" cx="688.7" cy="375.3" rx="25.4" ry="24"/>
<path class="st33" d="M703.6,409.3c0,0-11,10.5-16.1,11.3s-24.2,31.7-18.9,56.7c5.3,25-6.4,77-1.1,80c5.3,3,90.1-11,90.1-11
	L703.6,409.3z"/>
<path class="st2" d="M714.2,404.3c0,0-19.1-6-25.4,26s-14.8,5-14.8,46s-3.2,56,2.1,91c5.3,35,9.5,35,3.2,47c-6.4,12,67.8,9,85.8-14
	c18-23-5.3-109-14.8-122c-9.5-13-9.5-53-17-63C728.7,409.3,721.8,405.3,714.2,404.3z"/>
<path class="st34" d="M713.6,600l-9.4-11.1l-30-134.9l20.1-35.5c3.5-6.1,9.8-10.2,17.1-11c7.2-0.8,14.4,1.8,19.2,7
	c29.1,31.3,43.8,128.4,44.4,132.5l0.1,0.4l-3,7.3l-15.5,32.8L713.6,600z M707.2,587.6l7.6,8.9l39.6-11.5l14.9-31.5l2.7-6.5
	c-1-6.8-15.9-100.9-43.6-130.6c-7-7.4-19-8.1-26.9-1.6c-1.7,1.4-3.1,3.1-4.2,5l-19.6,34.5L707.2,587.6z"/>
<path class="st2" d="M649.5,465.2L649.5,465.2L622,442.1c-0.6-0.5-0.7-1.4-0.3-2l0.3-0.5l0,0c0.4-0.6,1.4-0.8,2-0.4
	c0.1,0,0.2,0.1,0.2,0.2l25.1,21.9C650.6,462.3,650.7,464,649.5,465.2C649.6,465.2,649.6,465.2,649.5,465.2z"/>
<path class="st35" d="M649.5,465.2L649.5,465.2L622,442.1c-0.6-0.5-0.7-1.4-0.3-2l0.3-0.5l27.4,23.2
	C650.2,463.4,650.3,464.5,649.5,465.2C649.6,465.2,649.6,465.2,649.5,465.2z"/>
<path class="st32" d="M731.1,470.2c0,0-39.2-3-46.6-16c-7.4-13-26.5-6-21.2,0s4.2,20,19.1,21c14.8,1,51.9,8,51.9,8L731.1,470.2z"/>
<path class="st34" d="M773.5,547.2c0,0-26.5,2-32.8,28c-6.4,26-35,13-35,13s-3.2,68,43.4,51c46.6-17,57.2-49,57.2-53
	S774.5,558.2,773.5,547.2z"/>
<path class="st27" d="M707.8,593.2c0,0,28.6,13,35-13c6.1-24.8,30.3-27.8,32.7-28c-1-1.5-1.6-3.2-1.9-5c0,0-26.5,2-32.8,28
	c-6.4,26-35,13-35,13s-1,22.2,6.8,38C707,611.1,707.8,593.2,707.8,593.2z"/>
<path class="st27" d="M806.1,587.8c0.1-0.5,0.2-1,0.2-1.5c0-3.4-23.3-21.5-30.6-33.5C777.2,562,798.9,579.8,806.1,587.8z"/>
<path class="st34" d="M655.9,358.4c-1.5,4.4,3.3,8.8,8.1,9.3c4.8,0.5,9.5-1.7,13.9-3.7s9.3-3.8,14.1-2.6c5.2,1.3,8.6,5.8,10.9,10.4
	c2,4,3.5,8.1,4.3,12.5c0.9,4.6,1.4,9.7,4.7,13.2c3.4,3.5,8.9,4.4,14,4.4c5.1,0,10.2-0.7,15.2,0.5c9.7,2.4,15.8,11.6,19.3,20.5
	c3.5,8.9,5.6,18.6,11.9,26c5.2,6.2,12.9,10.1,20.6,13.4c3.9,1.6,7.9,3.2,12.1,3.5s8.8-0.6,11.8-3.3c3.4-3.1,4.6-7.7,5.5-12.1
	c1.4-6.3,2.7-12.8,1.6-19.2c-1.5-8.4-7.2-15.7-8.5-24.1c-1.3-8.2,1.7-16.4,1.4-24.7c-0.5-13.8-11.3-26.8-25.4-30.5
	c-5.2-1.4-10.6-1.6-15.6-3.5c-6.5-2.4-11.5-7.3-16.7-11.6c-12.6-10.2-27.7-17.3-43.9-20.7c-10.9-2.3-23.8-2.3-31.4,5.3
	c-3.1,3.1-5.2,7.3-9.2,9.3c-2,1.1-4.4,1.4-6.6,2.2c-10.9,3.5-17.1,16.3-12.9,26.4"/>
<path class="st27" d="M811.4,455.6c-4.2-0.4-8.2-1.9-12.1-3.5c-7.7-3.3-15.3-7.2-20.6-13.4c-6.3-7.4-8.4-17.1-11.9-26
	c-3.5-8.9-9.5-18.1-19.3-20.5c-4.9-1.2-10.1-0.5-15.2-0.5s-10.6-0.9-14-4.4s-3.8-8.6-4.7-13.2c-0.9-4.3-2.3-8.5-4.3-12.5
	c-2.3-4.5-5.8-9.1-10.9-10.4c-4.7-1.2-9.6,0.6-14.1,2.6s-9.1,4.1-13.9,3.7c-4.9-0.5-9.6-4.9-8.1-9.3l-0.7,0.7
	c-1.6-3.9-1.8-8.3-0.5-12.3c-6.3,5.5-9.1,14.7-5.9,22.3l0.7-0.7c-1.5,4.4,3.3,8.8,8.1,9.3s9.5-1.7,13.9-3.7s9.3-3.8,14.1-2.6
	c5.2,1.3,8.6,5.8,10.9,10.4c2,4,3.5,8.1,4.3,12.5c0.9,4.6,1.4,9.7,4.7,13.2c3.4,3.5,8.9,4.4,14,4.4s10.2-0.7,15.2,0.5
	c9.7,2.4,15.8,11.6,19.3,20.5c3.5,8.9,5.6,18.6,11.9,26c5.2,6.2,12.9,10.1,20.6,13.4c3.9,1.6,7.9,3.2,12.1,3.5
	c4.2,0.4,8.8-0.6,11.8-3.3c2.6-2.3,3.9-5.5,4.7-8.8C818.5,455.3,814.9,456,811.4,455.6z"/>
<path class="st2" d="M703.6,418.2c0,0-3.2,22,8.5,27c11.7,5,20.1,22,20.1,22l-9.5,2c0,0-3.2,14,5.3,18c8.5,4,31.8,0,31.8,0
	s10.6-5,2.1-21c-8.5-16-32.8-51-32.8-51S716.3,402.3,703.6,418.2z"/>
<ellipse class="st32" cx="706.7" cy="375.6" rx="5.1" ry="7.2"/>
<ellipse class="st33" cx="706.7" cy="376.4" rx="2.5" ry="2.4"/>
<ellipse transform="matrix(0.4803 -0.8771 0.8771 0.4803 32.8394 815.4323)" class="st33" cx="704.5" cy="380" rx="2.8" ry="1.3"/>
</svg>
