<?xml version="1.0" encoding="utf-8"?>
<!-- Generator: Adobe Illustrator 23.0.3, SVG Export Plug-In . SVG Version: 6.00 Build 0)  -->
<svg version="1.1" id="a4bcfc6d-da0f-4ee2-80ea-b3481570728c"
	 xmlns="http://www.w3.org/2000/svg" xmlns:xlink="http://www.w3.org/1999/xlink" x="0px" y="0px" viewBox="0 0 905 685"
	 style="enable-background:new 0 0 905 685;" xml:space="preserve">
<style type="text/css">
	.st0{fill:#F5F5F5;}
	.st1{fill:#535461;}
	.st2{fill:url(#SVGID_1_);}
	.st3{fill:#FE5858;}
	.st4{fill:#F2B08D;}
	.st5{opacity:0.1;enable-background:new    ;}
	.st6{fill:#F0F1F5;}
	.st7{fill:#39447A;}
	.st8{opacity:5.000000e-02;enable-background:new    ;}
	.st9{fill:#CD9494;}
	.st10{fill:#3F3D56;}
	.st11{fill:#6C63FF;}
	.st12{opacity:0.1;fill:#0A5DD3;enable-background:new    ;}
	.st13{fill:none;stroke:#535461;stroke-miterlimit:10;}
	.st14{fill:#0A5DD3;}
	.st15{fill:url(#SVGID_2_);}
	.st16{fill:url(#SVGID_3_);}
	.st17{fill:#1A2246;}
	.st18{fill:#3B477B;}
	.st19{opacity:0.1;}
	.st20{fill:#E0A17E;}
	.st21{fill:#293158;}
	.st22{opacity:2.000000e-02;enable-background:new    ;}
	.st23{fill:#463E3B;}
	.st24{fill:#FFC1C7;}
	.st25{fill:#F2F2F2;}
	.st26{fill:#2F2E41;}
	.st27{fill:#192534;}
	.st28{fill:#57B894;}
	.st29{fill:#EDEDF4;}
	.st30{fill:#F4F4F8;}
	.st31{fill:none;stroke:#535461;stroke-linecap:round;stroke-miterlimit:10;}
	.st32{fill:none;stroke:#535461;stroke-width:2;stroke-linecap:round;stroke-miterlimit:10;}
</style>
<title>in_the_office</title>
<ellipse class="st0" cx="450.3" cy="556.4" rx="450.3" ry="128.6"/>
<path class="st1" d="M546.4,308.6c0,0,12.4-61.1,60-55.4c0,0,32.8,2.3,39.6,23.8v47.5L546.4,308.6z"/>
<linearGradient id="SVGID_1_" gradientUnits="userSpaceOnUse" x1="679.6489" y1="818.2001" x2="679.6489" y2="1022.098" gradientTransform="matrix(1 0 0 -1 -147.48 1143.5)">
	<stop  offset="0" style="stop-color:#808080;stop-opacity:0.25"/>
	<stop  offset="0.54" style="stop-color:#808080;stop-opacity:0.12"/>
	<stop  offset="1" style="stop-color:#808080;stop-opacity:0.1"/>
</linearGradient>
<path class="st2" d="M657.8,208c-5.6-0.6-10.9-3-16.1-5.3c-8.7-4-17.7-8.1-24.5-15.5c-10.2-11-13.8-27.2-21-40.9
	c-2.6-5.3-6.2-10.2-10.5-14.3c-3.5-3.2-7.6-5.8-12.1-7.5c-8.8-3.5-18.5-3.8-27.5-1l5-0.8l-21.4,6.8c-2.7,0.9-5.6,1.9-6.9,4.6
	s-0.5,6.5,1.4,9s4.6,3.9,7.2,5.3l2.3,1.2c-3.7,8.7-2.6,18.7,2.8,26.4v21.9c-5.3,1.9-10.9,2.6-16.5,2.1c-1.5,0.5-3,1.3-4.2,2.4
	c-2.6,2-5.9,6-7.3,13.4c-2.3,12.5-28,54.9-30.7,59.3l-42,11l0.3,0.2l-0.8,0.2c0,0,0.3,0.3,0.8,0.9c-4.7,0.3-13.1,0.3-19.7-2.8
	c-6.8-3.2-17.7,0.1-23.8,2.4c-1.3,0.5-2,2-1.5,3.3c0.2,0.6,0.6,1,1.1,1.3c8.2,4.6,17.4,7.3,26.8,7.6c10.3,0.5,18.7,0.6,24.4,0.5
	c0.3,1.8-0.2,3.5-1.3,4.9l50.2-7.2c1.5-0.8,2.9-1.8,4.2-2.9c3.1-2.5,5.7-5.4,7.9-8.7l10.8-14.1c0.7,2.4,7.7,28.3,5.4,36.9l-2.5,9.5
	l14.8,1.5v-0.3l44.7,6v-1h0.1l0.2-8.4l51.8-1.7c0,0,9-7.3,5.1-19s-2.5-45.6-2.5-45.6c-1.4-9.4-3.4-18.7-6.2-27.8
	c11.5-1.6,22.6-4.8,33.3-9.4c5.2-2.2,10.4-4.9,14-9.6C669.4,207.3,663.4,208.6,657.8,208z"/>
<rect x="536.5" y="150.5" class="st3" width="42" height="65"/>
<rect x="536.5" y="150.5" class="st1" width="42" height="65"/>
<path class="st4" d="M545.2,174.4c5.3,7,6.3,16.3,2.5,24.2c-6.4,13.8-2.5,33.7,2.7,36.7s25.7,7.2,32.1-1.7s6-34.3,3.9-38
	s-17.8-6.8-17.1-27.7L545.2,174.4z"/>
<path class="st5" d="M542.5,200.1c0,0,8.2,55.2,36.1,17.2l-2.3,104l-50.5-6.7L542.5,200.1z"/>
<path class="st6" d="M542.5,201c0,0,8.2,55.2,36.1,17.2l-2.3,104l-50.5-6.7L542.5,201z"/>
<path class="st4" d="M573.3,298.5c0,0-15.2,1.9-25.7-2.7c0,0-20,5.4-18,10.1s47.9,5,47.9,5L573.3,298.5z"/>
<path class="st4" d="M442.9,285c0,0-13.2,2.1-22.7-2.4c-6.6-3.1-17.2,0.1-23.1,2.3c-1.3,0.5-1.9,2-1.4,3.2c0.2,0.5,0.6,1,1.1,1.3
	c7.9,4.5,16.8,7,25.9,7.4c19.4,1,31.9,0.3,31.9,0.3L442.9,285z"/>
<path class="st5" d="M569.8,225.8l-7.7,74l7.1-1.3c0,0,11,9.1,1.5,14.6l55.1-1.7c0,0,8.7-7.1,4.9-18.5s-2.4-44.2-2.4-44.2
	s-5.7-41.5-16.9-43.7c0,0-22.8-4.5-36.1-19.3L569.8,225.8z"/>
<path class="st7" d="M570.8,225.9l-7.7,74l7.1-1.3c0,0,11,9.1,1.5,14.6l55.1-1.8c0,0,8.7-7.1,4.9-18.5s-2.4-44.2-2.4-44.2
	s-5.7-41.5-16.9-43.7c0,0-22.8-4.5-36.1-19.3L570.8,225.9z"/>
<path class="st5" d="M549.1,192c0,0-12.9,10.9-29.2,9.2c0,0-8.2,2.1-10.5,14.9s-29.9,57.8-29.9,57.8l-41,10.7
	c0,0,11.8,11.2,6.7,17.7l48.6-6.9c4.5-2.7,8.3-6.4,11.1-10.8l11-14.3c0,0,7.7,27.2,5.3,36l-2.5,9.2L533,317c0,0,0.7-36.2,4.1-50.3
	c1.5-6.1,2.7-12.2,3.6-18.4c2.3-15.8,6-39.8,7.4-43L549.1,192z"/>
<path class="st7" d="M549.7,191.6c0,0-12.9,10.9-29.2,9.2c0,0-8.2,2.1-10.5,14.9s-29.9,57.8-29.9,57.8l-41,10.7
	c0,0,11.8,11.2,6.7,17.7l48.6-6.9c4.5-2.7,8.3-6.4,11.1-10.8l11-14.3c0,0,7.7,27.2,5.3,36l-2.5,9.2l14.3,1.4c0,0,0.7-36.2,4.1-50.3
	c1.5-6.1,2.7-12.2,3.6-18.4c2.3-15.8,6-39.8,7.4-43L549.7,191.6z"/>
<path class="st5" d="M573.3,181.8c-2.3-3.7-4.4-5.3-4.1-12.4l-24.1,6.5c2.9,3.7,4.5,8.2,4.8,12.9c1.7,0.5,3.5,0.9,5.3,1.1
	C561.7,190.6,568.3,185.3,573.3,181.8z"/>
<circle class="st4" cx="557.9" cy="162.2" r="26.3"/>
<path class="st5" d="M520.4,237.9c0,0,4.8,7,1.8,11.2s-3.6,10.6-2.5,14.7"/>
<path class="st5" d="M597.4,236.9c0,0,8.8,40.3,6.4,44.1"/>
<path class="st5" d="M577.5,292.4c0,0,24.9,1.9,23.5-3.7"/>
<path class="st1" d="M545.8,126.5c8.7-2.7,18.1-2.4,26.6,1c4.3,1.7,8.3,4.2,11.8,7.3c4.1,4,7.6,8.7,10.1,13.9
	c6.9,13.2,10.5,29,20.3,39.6c6.5,7.1,15.2,11.1,23.7,15c5,2.3,10.2,4.5,15.6,5.2s11.2-0.6,15.3-4.7c-3.5,4.5-8.5,7.1-13.5,9.3
	c-19.7,8.5-41.2,11.8-62.5,9.6c-6-0.6-12-1.7-17.6-4.4c-4-1.9-7.9-4.9-9.5-9.4c-3.6-10.4,6.6-21.4,4.7-32.4c-1-5.6-5.1-10-9.7-12.7
	s-9.7-4-14.5-5.8c-5.1-2.1-10.1-4.5-14.9-7.1c-2.5-1.3-5.2-2.8-7-5.1s-2.8-6-1.4-8.7s4.1-3.7,6.7-4.5l20.7-6.7"/>
<polygon class="st8" points="807.2,331.2 806,408.2 760.2,429.6 759.7,349.3 "/>
<polygon class="st8" points="799.8,411.5 800.4,532.6 756.3,569.9 759.1,429.6 "/>
<ellipse class="st9" cx="849.7" cy="475.5" rx="32.6" ry="12"/>
<ellipse class="st8" cx="849.7" cy="474.2" rx="16.6" ry="6.1"/>
<path class="st10" d="M817.2,472.9c0,0,35.9,19.9,65.1,2.7c0,0-4,69.1-23.9,75.8h-26.6C831.8,551.3,809.2,504.8,817.2,472.9z"/>
<path class="st11" d="M877.9,346.2C887,379.6,848,474.7,848,474.7s-82-62-91.1-95.4c-8.8-33.5,11.2-67.8,44.7-76.6
	C834.6,294.1,868.5,313.4,877.9,346.2L877.9,346.2z"/>
<path class="st12" d="M877.9,346.2C887,379.6,848,474.7,848,474.7s-82-62-91.1-95.4c-8.8-33.5,11.2-67.8,44.7-76.6
	C834.6,294.1,868.5,313.4,877.9,346.2L877.9,346.2z"/>
<path class="st13" d="M801.2,302.5c0,0,51,77,47.2,172.4"/>
<path class="st14" d="M890.9,407.3c0,0-46.3-25.2-40.4,67.7c0,0,38.6-1.4,52.3-32.9c5.5-12.7,0.7-27.5-11.2-34.5L890.9,407.3z"/>
<path class="st13" d="M891.6,407.4c0,0-6,48.2-41.2,67.6"/>
<path class="st8" d="M878,477.8c-1.3,15.9-6.9,65.3-23.6,70.8h-23.9c0.8,1.7,1.2,2.7,1.2,2.7h26.6c19.9-6.7,23.9-75.8,23.9-75.8
	C880.9,476.4,879.4,477.1,878,477.8z"/>
<circle class="st1" cx="691.2" cy="146.8" r="2.3"/>
<linearGradient id="SVGID_2_" gradientUnits="userSpaceOnUse" x1="1220.3406" y1="599.2226" x2="1220.3406" y2="1070.55" gradientTransform="matrix(-1 0 0 -1 1922.96 1143.5)">
	<stop  offset="0" style="stop-color:#808080;stop-opacity:0.25"/>
	<stop  offset="0.54" style="stop-color:#808080;stop-opacity:0.12"/>
	<stop  offset="1" style="stop-color:#808080;stop-opacity:0.1"/>
</linearGradient>
<path class="st15" d="M619.9,537.1c10,4,22.4,4.9,28.2-11.4l10.8-6.5l-0.8-9.8v-0.1v-0.1l0.1-0.2v-0.1l0.2-0.9l0,0
	c1.3-5.6,5.6-24.5,6.3-29.3c0.8-5.7,3.3-14.6,3.3-14.6s5.8-26.8,5-39s28.4-82,28.4-82c1.2,1.5,2.3,3.2,3.3,4.9l0.2,0.3l0.6,1.1v0.1
	l0.6,1.1l0.2,0.4l0.5,1l0.2,0.4c0.2,0.5,0.5,1,0.7,1.5l0.1,0.3c0.2,0.4,0.4,0.9,0.6,1.3l0.2,0.5c0.2,0.5,0.4,0.9,0.6,1.4l0.2,0.4
	c0.3,0.6,0.5,1.2,0.8,1.9l0.2,0.5c0.2,0.5,0.4,1,0.6,1.6l0.2,0.6c0.2,0.6,0.5,1.2,0.7,1.9l0.1,0.3c0.3,0.7,0.5,1.5,0.8,2.3l0.2,0.7
	c0.2,0.6,0.4,1.2,0.6,1.9l0.2,0.7c0.3,0.9,0.5,1.7,0.8,2.6v0.1c0.3,0.9,0.5,1.8,0.8,2.7l0.2,0.8c0.2,0.7,0.4,1.5,0.6,2.2l0.2,0.8
	c0.2,1,0.5,2,0.7,3l0.1,0.5c0.2,0.9,0.4,1.8,0.6,2.7l0.2,1c0.2,0.9,0.3,1.8,0.5,2.7l0.1,0.8c0.2,1.1,0.4,2.3,0.6,3.5
	c0,0.3,0.1,0.6,0.1,0.8c0.2,0.9,0.3,1.9,0.4,2.9l0.2,1.1c0.1,1.1,0.3,2.2,0.4,3.3c0,0.2,0.1,0.4,0.1,0.6c0.2,1.3,0.3,2.6,0.4,4
	c0,0.4,0.1,0.7,0.1,1.1c0.1,1.1,0.2,2.1,0.3,3.2c0,0.4,0.1,0.8,0.1,1.2c0.1,1.4,0.2,2.9,0.3,4.4c3.3,52.8,5.8,61.7,5.8,61.7
	s-3.8,25.9-0.5,31.1l-2,13.6l11.6,4.1l0.8,7.3c1.7,9.7,14.9,12.2,24.9,8.9c10-3.2,2.5-14.6-5-21.1c-3.9-3.4-5.8-9.3-6.7-14.2
	l1.7-0.4c0,0-2.5-38.2,0-47.1s-2.5-57.6-2.5-57.6s5.7-38.9,5.9-74.4c0.5-0.2,0.7-0.3,0.7-0.3s0.5-0.1,1-1.3c0.4-0.2,0.7-0.3,0.7-0.3
	s5-0.9-3.3-31.7c-0.7-2.5-1.2-5-1.7-7.5c1.2-1.7,2.5-3.5,3.8-5.3c0,1.9-0.2,3.7-0.5,5.6c2.1-0.6,4.6-2.6,7.4-5.4l0.5-0.5
	c11.9-11.5,28.7-41.4,24.5-46.8c-5-6.5-12.5-39.8-14.1-42.2c-3.4-5.2-6.1-10.8-7.8-16.7c-2.5-8.2-8.6-14.8-16.6-18.1
	c-11.7-4.7-22.1-13.3-23.6-14.6c-0.1-1.5-0.1-2.9,0-4.4l0.2-0.1c0-0.2,0.1-0.5,0.1-0.7c-0.1,2.2,0.5,4.5,2.2,5.9
	c0.3,0.2,0.6,0.4,0.9,0.5c1.2,0.4,2.4-0.3,3.4-1c2.5-1.5,4.8-3.3,6.7-5.4c1.3-1.7,2.5-3.5,3.3-5.4c2.6-5.5,4.4-11.4,5.1-17.5
	c0.2-1.8,0.3-3.6,0.3-5.4c0-2-0.2-4-0.6-6c-0.8-3.5-2.8-6.6-5.6-8.8c-1.8-1.3-3.9-2.1-5.8-3.2c-1.9-1.1-3.7-2.7-4.1-4.9
	c-0.1-0.3-0.1-0.6-0.1-1c0.1-0.8,0.1-1.5,0.1-2.3c0-0.5,0-1,0-1.5c-0.5-2.3-1.9-4.3-4-5.4s-4.4-1.9-6.7-2.2c-4.3-1-8.7-1.4-13.1-1.2
	c-4.4,0.4-8.8,1.9-11.9,5c-2.1,2-3.5,4.7-5.6,6.7c-0.6,0.7-1.5,1.2-2.4,1.4c-3,0.5-5.3-4-8.3-3.4c-2.3,0.5-2.9,3.4-2.8,5.7
	c0,0.4,0,0.8,0,1.1c0.4,7,2.4,14.8,8.5,18.4c0.4,0.2,0.9,0.5,1.3,0.7c-1.5,9,1.8,18,8.7,24.1c-0.2,1.9-0.6,3.8-1,5.6
	c-2,1.9-13.9,12.8-31.3,13.5c-6,0.2-11.6,3-15.2,7.8c-5-10.6-24.1-16.7-22.2-7.8c1.8,8.1,1,22.2,0.5,29.8c-0.6-1.8-1-3.6-1.3-5.4
	l-10,36.5c0,0,0,0.7,0,1.8c-0.1,2-0.2,19.5,10,23.4c3.2,1.2,6.7-0.1,10-2.4c0.1,0,0.4-0.2,1-0.5l-0.2,2.1c0,0,15.6-6.4,19-20.8
	l1,2.6l0,0l2.4,6c0,0-14.1,56.8-31.6,77.9c0.4,1.2,0.9,2.4,1.6,3.5c1.8,3.8,7,12.3,19.4,16.8l-2.7,79.6c0,0-1.7,14.6-3.3,18.7
	c-1.7,4.1-9.1,80.4-9.1,80.4l2.3,0.8c-1,4.6-2.9,10-6.4,12.2C623.1,518.4,609.9,533.1,619.9,537.1z M642.1,184v0.2l-0.1,0.1
	L642.1,184z M752.3,225.5c0.3,0.5,0.7,1.1,1.1,1.7c-0.9,9.3-1.2,18.6-1.1,27.9c0.6-0.5,1.3-1.1,1.9-1.7l0.4-0.5
	c-0.6,0.8-1.3,1.6-2,2.3c-0.6,0.6-1.2,1.1-1.8,1.6C750.6,246.5,751.2,236,752.3,225.5z"/>
<linearGradient id="SVGID_3_" gradientUnits="userSpaceOnUse" x1="1673.308" y1="889.1" x2="1673.308" y2="1010.8" gradientTransform="matrix(1 0 0 -1 -973.04 1143.5)">
	<stop  offset="0" style="stop-color:#808080;stop-opacity:0.25"/>
	<stop  offset="0.54" style="stop-color:#808080;stop-opacity:0.12"/>
	<stop  offset="1" style="stop-color:#808080;stop-opacity:0.1"/>
</linearGradient>
<path class="st16" d="M727.8,132.7l-0.2,0.3v-0.2L727.8,132.7z M750.9,254.4c-0.1-10.6,0.4-21.2,1.6-31.8c2,3,5.6,9.4,6.2,17.1
	c0.4,4.9-2.6,9.5-6,13C752.1,253.4,751.5,253.9,750.9,254.4z M641.9,180.8l-0.1,0.1L641.9,180.8L641.9,180.8z"/>
<path class="st17" d="M658.4,493.4l1.6,19.9l-10.5,6.3c-5.7,15.9-17.8,15.1-27.5,11.1s3.2-18.3,9.7-22.3s7.3-19.1,7.3-19.1
	L658.4,493.4z"/>
<path class="st17" d="M727.9,494.2l-3.2,22.3l11.3,4l0.8,7.2c1.6,9.5,14.5,11.9,24.2,8.8c9.7-3.2,2.4-14.3-4.8-20.7
	c-7.3-6.4-7.3-21.5-7.3-21.5L727.9,494.2L727.9,494.2z"/>
<path class="st18" d="M660.9,267.5l84,5.5c19.4,20.7,4.1,125.7,4.1,125.7s4.8,47.7,2.4,56.5c-2.4,8.8,0,46.1,0,46.1
	s-20.2,5.6-24.2,2.4s0-31,0-31s-2.4-8.8-5.7-60.5c-3.3-51.6-20.2-71.6-20.2-71.6S673,409,673.8,421s-4.8,38.2-4.8,38.2
	s-2.4,8.8-3.2,14.3s-6.4,30.2-6.4,30.2l-23.4-8c0,0,7.3-74.8,8.9-78.8c1.6-4,3.2-18.3,3.2-18.3l3.2-96.3L660.9,267.5z"/>
<g class="st19">
	<path d="M659.6,502.2l-0.3,1.5l-23.4-8c0,0,7.2-74.8,8.9-78.8c1.6-4,3.2-18.3,3.2-18.3l3.2-96.3l9.7-35l4.8,0.3l-9.6,34.7
		l-3.2,96.3c0,0-1.6,14.3-3.2,18.3c-1.6,4-8.9,78.8-8.9,78.8L659.6,502.2z"/>
	<path d="M734.5,504.6c-3.3,0.3-6.1,0.1-7.4-0.9c-4-3.2,0-31,0-31s-2.4-8.8-5.7-60.5c-2.4-37.9-12.1-58.8-17.2-67.1
		c1.2-2.8,1.8-4.5,1.8-4.5s17,19.9,20.2,71.6s5.7,60.5,5.7,60.5s-4,27.8,0,31C732.7,504.2,733.6,504.5,734.5,504.6z"/>
</g>
<path class="st20" d="M730.4,125c-8.9,21.5,0,28.6,0,28.6s17.8,6.4,7.3,19.1c-10.5,12.7-70.3,0.8-52.5-14.3
	c17.7-15.1,11.3-43.8,11.3-43.8L730.4,125z"/>
<path class="st6" d="M683.5,207.7l-6.4,69.2c21.8,19.9,60.6,9.5,60.6,9.5l4.8-74.7l-13.6-64.3l-16.3,21.3l-21-22.3L683.5,207.7z"/>
<path class="st5" d="M734.4,285.8l3.2,11.1c-12.9,3.2-50.9-3.2-50.9-3.2l3.2-10.4C698.8,294.5,734.4,285.8,734.4,285.8z"/>
<path class="st17" d="M734.4,284.1l3.2,11.1c-12.9,3.2-50.9-3.2-50.9-3.2l3.2-10.3C698.8,292.9,734.4,284.1,734.4,284.1z"/>
<path class="st5" d="M701.5,220.1c0.4,12.4-0.5,24.9-2.8,37.1l-6.3,34.9c0.8,22.3-18.6,31-18.6,31c-35.5,3.2-42.8-20.7-42.8-20.7
	c17-20.7,30.7-76.4,30.7-76.4l-4-10.3c-3.2,14.3-18.6,20.7-18.6,20.7l6.4-58.9c0,0,2.4-22.3,21-23.1s30.7-13.5,30.7-13.5
	L701.5,220.1z"/>
<path class="st21" d="M700.7,218.5c0.4,12.4-0.5,24.9-2.8,37.1l-6.3,34.8c0.8,22.3-18.6,31-18.6,31c-35.5,3.2-42.8-20.7-42.8-20.7
	c17-20.7,30.7-76.3,30.7-76.3l-4-10.3c-3.2,14.3-18.6,20.7-18.6,20.7l6.4-58.9c0,0,2.4-22.3,21-23.1s30.7-13.5,30.7-13.5
	L700.7,218.5z"/>
<path class="st5" d="M727.9,164c0,0,4,27.8-0.8,102.6s28.3,58.9,28.3,58.9s4.8-0.8-3.2-31c-8.1-30.2-2.4-70.8-2.4-70.8
	s6.5,8,7.3,18.3s-13.7,19.1-13.7,19.1c16.2,2.4,12.1,24.7,12.1,24.7c10.5-3.2,34.7-43.8,29.9-50.1c-4.8-6.4-12.1-39-13.7-41.4
	c-3.3-5.1-5.9-10.6-7.6-16.4c-2.4-8-8.3-14.5-16.1-17.7c-12.3-5-21.3-15.4-21.3-15.4L727.9,164z"/>
<path class="st21" d="M763.1,279.9c11.6-11.3,27.9-40.6,23.8-45.9c-4.8-6.4-12.1-39-13.7-41.4c-3.3-5.1-5.9-10.6-7.6-16.4
	c-2.4-8-8.3-14.5-16.1-17.7c-12.3-5-23.2-14.4-23.2-14.4l3.2,18.3c0,0,4,27.8-0.8,102.6c-4,61.8,17.9,61.7,25.6,59.8
	c0.9-0.2,1.8-0.5,2.6-0.9c0,0,4.8-0.8-3.2-31c-2.7-10.1-3.9-21.4-4.2-31.9c10.6,5.6,7.5,23.2,7.5,23.2
	C758.7,283.6,760.8,282.1,763.1,279.9z M757.5,246.4c-1.8,4-5.2,7.4-8,9.7c-0.1-11.4,0.5-22.8,1.9-34.1c0,0,0.4,0.5,1.1,1.5
	c1.9,2.8,5.6,9.1,6.2,16.8C758.7,242.5,758.4,244.5,757.5,246.4L757.5,246.4z"/>
<path class="st5" d="M697.1,135.7c0.8-6.5,0.5-13.1-0.7-19.5l33.9,10.3c-1.8,4.2-3.1,8.7-3.7,13.3c-3.6,1.7-7.6,2.6-11.6,2.6
	C708.4,142.5,702,140.1,697.1,135.7z"/>
<ellipse class="st20" cx="715" cy="114.7" rx="26.7" ry="26.3"/>
<g class="st19">
	<path d="M668.3,321.8c-31.5,0.8-38.1-20.9-38.1-20.9c17-20.7,30.7-76.4,30.7-76.4l-2.3-5.9c0.6-1.4,1.1-2.9,1.5-4.5l4,10.3
		c0,0-13.7,55.7-30.7,76.4C633.4,300.8,639.6,321,668.3,321.8z"/>
</g>
<path class="st20" d="M638.2,193.4c0,0,6.5-8.8,12.9-23.9c6.5-15.1-24.2-27.8-21.8-16.7s0,34.2,0,34.2L638.2,193.4z"/>
<path class="st5" d="M645.5,183.1l6.4,33.4c0,0-12.9,23.1-23.4,19.1s-9.7-23.1-9.7-23.1l9.7-35.8
	C631.8,198.2,645.5,183.1,645.5,183.1z"/>
<path class="st21" d="M645.5,184.7l6.4,33.4c0,0-12.9,23.1-23.4,19.1s-9.7-23.1-9.7-23.1l9.7-35.8
	C631.8,199.8,645.5,184.7,645.5,184.7z"/>
<path class="st22" d="M645.5,184.7l6.4,33.4c0,0-12.9,23.1-23.4,19.1s-9.7-23.1-9.7-23.1l9.7-35.8
	C631.8,199.8,645.5,184.7,645.5,184.7z"/>
<path class="st5" d="M749.5,261c-0.2-1.6-0.2-3.2-0.1-4.8c-0.1-11.4,0.5-22.8,1.9-34.1c0,0,0.4,0.5,1.1,1.5c-1.1-4-2.2-6.7-3.1-7.5
	c-2,14.2-3.3,28.6-3.7,42.9c0,0.2,0,0.4,0,0.6c-0.7,22.7,0.7,49.1,8.8,65.2c0.9-0.2,1.8-0.5,2.6-0.9c0,0,4.8-0.8-3.2-31
	C751.1,282.8,749.9,271.5,749.5,261z"/>
<path class="st20" d="M749.5,261l-1.6,0.8l0,0c-2.1,1.1-4.4,2.3-6.7,3.6c-14.4,8.3,2.5,36.6,7.3,26.3c2.3-4.4,5-8.5,8.1-12.4l0,0
	l0.9-1.1C757.4,272.5,756.2,264.4,749.5,261z"/>
<path class="st5" d="M724,105.6c-1.3,2.1-1.8,4.6-1.6,7.1c0.3,3,1.5,5.9,2.8,8.6c0.4,1.1,1,2.1,1.8,3c0.6,0.5,1.1,1,1.6,1.6
	c0.4,0.7,0.6,1.6,0.5,2.4c-0.1,2.9-1.4,5.7-2.1,8.6c-0.7,2.9-0.5,6.3,1.8,8.2c0.3,0.2,0.6,0.4,0.9,0.5c1.1,0.4,2.3-0.3,3.3-1
	c2.4-1.5,4.6-3.3,6.5-5.3c1.3-1.6,2.4-3.4,3.2-5.3c2.6-5.4,4.2-11.2,4.9-17.2c0.5-3.4,0.4-6.9-0.3-10.3s-2.7-6.4-5.5-8.6
	c-1.7-1.3-3.8-2-5.7-3.1s-3.6-2.7-4-4.8c-0.3-1.5,0.1-3.1-0.1-4.6c-0.4-2.3-1.9-4.2-3.9-5.4c-2-1.1-4.3-1.8-6.5-2.2
	c-4.2-1-8.4-1.4-12.7-1.2c-4.3,0.2-8.4,2-11.5,4.9c-2,2-3.4,4.6-5.4,6.6c-0.6,0.7-1.4,1.2-2.3,1.4c-3,0.5-5.1-3.9-8.1-3.3
	c-2.3,0.5-2.8,3.5-2.7,5.8c0.4,6.9,2.3,14.5,8.3,18c2.6,1.5,5.7,2.1,8.6,2.6c1.7,0.4,3.5,0.5,5.2,0.2c2.8-0.6,4.9-2.9,7-4.8
	c0.5-0.5,1.1-1,1.8-1.2c1.5-0.5,3.1,0.3,4.6,0.8C717.9,108.6,721.4,107.9,724,105.6z"/>
<path class="st23" d="M724,104.7c-1.3,2.1-1.8,4.6-1.6,7.1c0.3,3,1.5,5.9,2.8,8.6c0.4,1.1,1,2.1,1.8,3c0.6,0.5,1.1,1,1.6,1.6
	c0.4,0.7,0.6,1.6,0.5,2.4c-0.1,2.9-1.4,5.7-2.1,8.6c-0.7,2.9-0.5,6.3,1.8,8.2c0.3,0.2,0.6,0.4,0.9,0.5c1.1,0.4,2.3-0.3,3.3-1
	c2.4-1.5,4.6-3.3,6.5-5.3c1.3-1.6,2.4-3.4,3.2-5.3c2.6-5.4,4.2-11.2,4.9-17.2c0.5-3.4,0.4-6.9-0.3-10.3s-2.7-6.4-5.5-8.6
	c-1.7-1.3-3.8-2-5.7-3.1s-3.6-2.7-4-4.8c-0.3-1.5,0.1-3.1-0.1-4.6c-0.4-2.3-1.9-4.2-3.9-5.4c-2-1.1-4.3-1.8-6.5-2.2
	c-4.2-1-8.4-1.4-12.7-1.2c-4.3,0.2-8.4,2-11.5,4.9c-2,2-3.4,4.6-5.4,6.6c-0.6,0.7-1.4,1.2-2.3,1.4c-3,0.5-5.1-3.9-8.1-3.3
	c-2.3,0.5-2.8,3.5-2.7,5.8c0.4,6.9,2.3,14.5,8.3,18c2.6,1.5,5.7,2.1,8.6,2.6c1.7,0.4,3.5,0.5,5.2,0.2c2.8-0.6,4.9-2.9,7-4.8
	c0.5-0.5,1.1-1,1.8-1.2c1.5-0.5,3.1,0.3,4.6,0.8C717.9,107.7,721.4,107,724,104.7z"/>
<path class="st5" d="M-68-23.9l-1.8,0.9l0,0c9,3,9.4,19.4,9.4,19.4l0,0l1-1.3C-59.4-11.1-60.8-20-68-23.9z"/>
<path class="st24" d="M184.7,237.7l11.4-8.7c0,0,17.6-13.6,21.1,0s-22,17.4-22,17.4l-10.5,6.7V237.7z"/>
<path class="st5" d="M184.7,237.7l11.4-8.7c0,0,17.6-13.6,21.1,0s-22,17.4-22,17.4l-10.5,6.7V237.7z"/>
<path class="st24" d="M157.1,167.6c1-4.6,1.1-9.5,0.3-14.2l26.3,7.7c0,0-1.9,4.8-4.3,10.9c-3.6,9.3-8,21.8-8,25.9
	c0,6.8-25.5-13.6-25.5-13.6C151.6,180.7,155.6,174.6,157.1,167.6z"/>
<path class="st24" d="M159.2,363.9c0,0,31.7,34.8,33.4,68.7c1.7,33.9,30.7,76.5,30.7,76.5s24.6-4.8,17.6-7.7c-7-2.9-29-76.5-29-76.5
	c7-18.4-13.2-67.8-13.2-67.8L159.2,363.9z"/>
<path class="st24" d="M118.8,364.5c0,0,8.8,29.1-10.5,53.3C88.9,442,81,503,81,503c0.9,2.9,18.5,0,18.5,0
	c-4.4-17.4,26.3-73.6,26.3-73.6c14.9-11.6,26.4-52.3,26.4-52.3L118.8,364.5z"/>
<path class="st21" d="M221.2,505.7c0,0,2.2,7.3,2.2,11.1s3.5,19.4,3.5,19.4s14.1-2.9,38.7-15.5s25.5-22.3,14.9-18.4
	c-10.5,3.9-24.6,5.8-32.5-1.9c-7.9-7.7-18.5,1.9-18.5,1.9L221.2,505.7z"/>
<path class="st21" d="M81.5,499.2l-12,25.1c0,0-2.6,7.7,35.2,11.6s25.5-8.7,25.5-8.7s-25.5-7.8-27.2-20.3
	c-1.8-12.6-12.3-5.8-12.3-5.8L81.5,499.2z"/>
<path class="st10" d="M132,305.5c0,0-18.5,50.4-11.4,49.4s15.8,11.6,19.3,14.5s30.8,9.7,41.3-3.9s9.7-1,20.2-5.8
	s-16.7-47.4-16.7-47.4L132,305.5z"/>
<path class="st5" d="M157.4,153.5l26.3,7.7c0,0-1.9,4.8-4.3,10.9c-2.5,1.1-5.3,1.7-8,1.7c-5.5,0-8.2-6.6-12-10.4
	C160.4,159.5,158.3,159,157.4,153.5z"/>
<ellipse class="st24" cx="171.5" cy="148.6" rx="21.1" ry="23.2"/>
<path class="st25" d="M114.3,314.2c0,0,70.3,13.5,74.7,10.6s-5.3-53.3-0.9-77.5s-11.4-54.2-15.7-54.9c-4.2-0.7-13.3-10.9-13.3-10.9
	L114.3,314.2z"/>
<path class="st14" d="M134.6,187.3c-6.2,9.7-6.2,48.4-14.1,61s-27.2,95.9-12.3,118.1c14.9,22.3,76.5,25.2,71.2,13.6
	c-5.3-11.6-1.8-11.6,2.6-45.5c4.4-33.9,1.8-48.4,1.8-88.1s-7-13.5-12.3-44.5s-21.1-25.2-21.1-25.2
	C144,177.7,138.3,181.6,134.6,187.3z"/>
<path class="st26" d="M115.1,354.1l-12.9-31.8l-2.4-7v-0.4c0.5-4,12.6-98,36.8-128.3c4-5,9.9-7.6,15.9-6.7c6,0.8,11.3,4.7,14.2,10.6
	l16.7,34.3l-24.8,130.6l-7.8,10.7L115.1,354.1z M180.7,225.3l-16.2-33.4c-0.9-1.8-2.1-3.5-3.5-4.8c-6.5-6.4-16.5-5.7-22.3,1.5
	c-22.9,28.7-35.3,119.9-36.1,126.5l2.2,6.3l12.3,30.5l32.9,11.2l6.3-8.6L180.7,225.3z"/>
<path class="st11" d="M203.9,235.7c-0.9-1.1-0.8-2.7,0.2-3.7l20.8-21.3c0.1-0.1,0.1-0.1,0.2-0.2c0.6-0.4,1.3-0.2,1.7,0.4l0,0
	l0.3,0.5c0.4,0.6,0.3,1.5-0.2,2L203.9,235.7L203.9,235.7C204,235.7,203.9,235.7,203.9,235.7z"/>
<path class="st27" d="M203.9,235.7c-0.5-0.7-0.5-1.7,0.1-2.3l22.7-22.5l0.3,0.5c0.4,0.6,0.3,1.5-0.2,2L203.9,235.7L203.9,235.7
	C204,235.7,204,235.7,203.9,235.7z"/>
<path class="st24" d="M133.7,253.2c0,0,30.8-6.8,43.1-7.8c12.3-1,11.4-14.5,15.8-20.3c4.4-5.8-11.4-12.6-17.6,0
	c-6.1,12.6-38.7,15.5-38.7,15.5L133.7,253.2z"/>
<path class="st26" d="M73.9,352.9c0,3.9,8.8,34.9,47.5,51.3c38.7,16.5,36-49.4,36-49.4s-23.7,12.6-29-12.6s-27.2-27.1-27.2-27.1
	C100.3,325.8,73.9,349.1,73.9,352.9z"/>
<path class="st5" d="M151.8,391.7c6.5-15.4,5.6-36.8,5.6-36.8s-23.7,12.6-29-12.6s-27.2-27.1-27.2-27.1c-0.2,1.7-0.8,3.4-1.6,4.9
	c1.9,0.2,22.1,3.1,27.1,27.1c5.3,25.2,29,12.6,29,12.6S156.4,377.1,151.8,391.7z"/>
<path class="st5" d="M-360.9,275.5c-6.1,11.7-25.4,29.1-25.4,32.5c0,0.5,0.1,1,0.2,1.5C-380.1,301.7-362.2,284.5-360.9,275.5z"/>
<path class="st26" d="M199.4,133c3.5-9.7-1.7-22.1-10.7-25.5c-1.8-0.7-3.8-1.1-5.5-2.1c-3.3-2-5-6-7.6-9c-6.4-7.3-17.1-7.3-26.1-5.1
	c-13.5,3.3-26,10.2-36.4,20.1c-4.4,4.1-8.5,8.9-13.9,11.2c-4.1,1.8-8.6,2-12.9,3.4c-11.7,3.7-20.7,16.2-21.1,29.6
	c-0.3,8,2.2,16,1.2,23.9c-1.1,8.1-5.8,15.2-7,23.3c-0.9,6.2,0.2,12.5,1.3,18.6c0.8,4.2,1.7,8.7,4.6,11.7c2.5,2.6,6.3,3.5,9.8,3.2
	c3.5-0.4,6.8-1.8,10-3.4c6.4-3.2,12.7-6.9,17.1-12.9c5.2-7.2,7-16.6,9.8-25.2c2.9-8.6,7.9-17.5,16-19.8c4.1-1.1,8.3-0.5,12.6-0.5
	c4.2,0,8.8-0.9,11.6-4.3c2.8-3.4,3.1-8.3,3.9-12.8c0.7-4.2,1.9-8.2,3.6-12.1c1.9-4.4,4.8-8.8,9-10c3.9-1.1,8,0.6,11.7,2.5
	s7.5,4,11.5,3.6s8-4.7,6.7-9"/>
<path class="st5" d="M61.3,224.4c0.7,3.2,1.8,6.3,3.9,8.6c2.5,2.6,6.3,3.5,9.8,3.2c3.5-0.4,6.8-1.8,10-3.4
	c6.4-3.2,12.7-6.9,17.1-12.9c5.2-7.2,7-16.6,9.8-25.2c2.9-8.6,7.9-17.5,16-19.8c4.1-1.1,8.3-0.5,12.6-0.5c4.2,0,8.8-0.9,11.6-4.3
	c2.8-3.4,3.1-8.3,3.9-12.8c0.7-4.2,1.9-8.2,3.6-12.1c1.9-4.4,4.8-8.8,9-10c3.9-1.1,8,0.6,11.7,2.5s7.5,4,11.5,3.6s8-4.7,6.7-9
	l0.6,0.7c2.6-7.4,0.3-16.2-4.9-21.6c1,3.9,0.9,8.1-0.4,11.9l-0.6-0.7c1.2,4.2-2.7,8.5-6.7,9c-4,0.4-7.9-1.7-11.5-3.6
	c-3.7-1.9-7.8-3.7-11.7-2.5c-4.3,1.3-7.1,5.6-9,10c-1.7,3.8-2.9,7.9-3.6,12.1c-0.8,4.5-1.1,9.3-3.9,12.8c-2.8,3.4-7.4,4.3-11.6,4.3
	c-4.2,0-8.5-0.7-12.6,0.5c-8.1,2.3-13.1,11.2-16,19.8s-4.6,18-9.8,25.2c-4.4,6-10.7,9.8-17.1,12.9c-3.2,1.6-6.5,3.1-10,3.4
	C66.8,226.8,63.8,226.1,61.3,224.4z"/>
<path class="st14" d="M138.1,187.4c0,0-20.2,33.9-27.2,49.4s1.8,20.3,1.8,20.3s19.3,3.9,26.4,0c7-3.9,4.4-17.4,4.4-17.4l-7.9-1.9
	c0,0,7-16.4,16.7-21.3c9.7-4.8,7-26.1,7-26.1C148.6,174.8,138.1,187.4,138.1,187.4z"/>
<ellipse class="st24" cx="156.6" cy="148.9" rx="4.2" ry="7"/>
<ellipse class="st25" cx="156.6" cy="149.7" rx="2.1" ry="2.3"/>
<ellipse transform="matrix(0.9159 -0.4014 0.4014 0.9159 -48.1713 76.4657)" class="st25" cx="158.4" cy="153.2" rx="1.1" ry="2.7"/>
<path class="st28" d="M148.9,386.9c2.8-1.3,4.8-3.3,5.7-5.2l-3.9,0.6l4.3-1.9c0.1-0.5,0-1.1-0.2-1.6c-1.1-2.3-5.5-2.5-9.9-0.4
	c-4.3,2.1-6.9,5.7-5.8,8.1C140.1,388.9,144.5,389,148.9,386.9z"/>
<path class="st5" d="M146.5,387.3c-0.6-0.9-1.5-1.7-2-2.6c-0.5-1-0.5-2.3,0.7-3.6c0.6-0.7,1.5-1.3,2.3-2c0.6-0.5,1.1-1.2,1.5-2
	c-1.4,0.2-2.8,0.7-4.1,1.3c-4.3,2.1-6.9,5.7-5.8,8.1c0.9,2,4.2,2.4,7.8,1.2C146.7,387.6,146.6,387.4,146.5,387.3z"/>
<polygon class="st29" points="806.6,331.2 383.5,296.2 329.2,307.5 332.6,383.3 336.3,383.7 340.5,497.5 755.7,572.2 799.8,534.9 
	799.8,411.5 805.5,408.2 "/>
<polygon class="st8" points="336.9,388.2 759.4,439.8 759.7,430 336.6,384.4 "/>
<polygon class="st8" points="799.8,416 799.8,411.5 758,430 758,439.8 "/>
<polygon class="st30" points="328.6,307.5 382.9,296.2 806,331.2 758.5,349.3 "/>
<ellipse class="st1" cx="404.2" cy="90" rx="65.1" ry="63.3"/>
<ellipse class="st29" cx="404.2" cy="90" rx="55.3" ry="53.8"/>
<ellipse class="st1" cx="404.2" cy="90" rx="3.9" ry="3.8"/>
<line class="st31" x1="427.9" y1="49.7" x2="404.2" y2="90"/>
<line class="st32" x1="405.4" y1="90.4" x2="428.9" y2="102.5"/>
</svg>
