<?xml version="1.0" encoding="utf-8"?>
<!-- Generator: Adobe Illustrator 23.0.3, SVG Export Plug-In . SVG Version: 6.00 Build 0)  -->
<svg version="1.1" id="ecb8a146-dd8f-4f83-ab4e-53bb1469e238"
	 xmlns="http://www.w3.org/2000/svg" xmlns:xlink="http://www.w3.org/1999/xlink" x="0px" y="0px" viewBox="0 0 1099 797.7"
	 style="enable-background:new 0 0 1099 797.7;" xml:space="preserve">
<style type="text/css">
	.st0{fill:#3561AD;fill-opacity:0.2;}
	.st1{fill:#F2F2F2;}
	.st2{fill:#2F2E41;}
	.st3{fill:#FFB9B9;}
	.st4{opacity:0.1;enable-background:new    ;}
	.st5{fill:#575A89;}
	.st6{opacity:0.2;enable-background:new    ;}
	.st7{fill:#84EBAD;}
	.st8{opacity:0.2;fill:none;stroke:#000000;stroke-width:2;stroke-miterlimit:10;enable-background:new    ;}
	.st9{fill:none;stroke:#3F3D56;stroke-width:2;stroke-miterlimit:10;}
	.st10{fill:#3F3D56;}
	.st11{fill:none;stroke:#3F3D56;stroke-miterlimit:10;}
	.st12{fill:#FFC1C7;}
	.st13{fill:#FFFFFF;}
	.st14{fill:url(#SVGID_1_);}
	.st15{fill:#6C63FF;}
	.st16{fill:#F5F5F5;}
	.st17{opacity:0.3;enable-background:new    ;}
	.st18{fill:url(#SVGID_2_);}
	.st19{fill:#78EBAD;}
</style>
<title>transfer money</title>
<circle class="st0" cx="471" cy="373" r="373"/>
<ellipse class="st1" cx="148" cy="774" rx="148" ry="23.7"/>
<ellipse class="st1" cx="870" cy="737" rx="229" ry="36.6"/>
<path class="st2" d="M819.1,384.8c0,0,1.9,6.5-9.1,12.3s-14.3,27.9-1.3,34.4s16.9,14.9,10.4,20.8s-18.2,21.4-2.6,25.3
	s17.5,11.7,13,14.9s10.4-5.8,10.4-5.8s2.6,15.6,16.2,11.7s52-78,32.5-88.4S819.1,384.8,819.1,384.8z"/>
<path class="st3" d="M842.7,447.5c0,0,6.7,23.6-5.1,25.3c-7.3,1.1-14.3,4-20.2,8.4l21.9,28.7h40.4l25.3-25.3c0,0-33.7-25.3-27-40.4
	S842.7,447.5,842.7,447.5z"/>
<path class="st4" d="M842.7,447.5c0,0,6.7,23.6-5.1,25.3c-7.3,1.1-14.3,4-20.2,8.4l21.9,28.7h40.4l25.3-25.3c0,0-33.7-25.3-27-40.4
	S842.7,447.5,842.7,447.5z"/>
<polygon class="st3" points="852.8,740.8 891.5,754.3 918.5,755.9 916.8,732.4 861.2,715.9 "/>
<path class="st5" d="M902.5,735.7c0,0,0,23.6,3.4,23.6s48.9-5.1,62.4,0s33.7-13.5,23.6-23.6s-26.6-25.3-36.9-21.9
	s-52.4,11.8-52.4,11.8V735.7z"/>
<path class="st5" d="M778.6,713.8c0,0-20.2,40.4-6.7,43.8s28.7-1.7,30.3-3.4s25.3-8.4,28.7-5.1s3.4-13.5,3.4-13.5L778.6,713.8z"/>
<path class="st2" d="M795.5,658.2c0,0-32,43.8-8.4,55.6s136.5,11.8,144.9,0s11.8-48.9,0-52.2S795.5,658.2,795.5,658.2z"/>
<path class="st6" d="M795.5,658.2c0,0-32,43.8-8.4,55.6s136.5,11.8,144.9,0s11.8-48.9,0-52.2S795.5,658.2,795.5,658.2z"/>
<circle class="st3" cx="856.2" cy="420.6" r="38.8"/>
<path class="st7" d="M795.5,481.2l33.7-6.7c0,0,8.4,27,35.4,21.9s33.7-21.9,33.7-21.9s20.2,8.4,21.9,8.4s23.6,8.4,23.6,13.5
	S918.5,552,918.5,552l3.4,91l-124.7-3.4l8.4-89.3L795.5,481.2z"/>
<path class="st3" d="M776.9,525.1c0,0-10.1,89.3-3.4,96.1s33.7,25.3,33.7,25.3v-20.2l-13.5-25.3l13.5-59L776.9,525.1z"/>
<path class="st3" d="M951.4,522.5c0,0-5.9,91.8-5.9,95.2s-15.2,15.2-20.2,15.2s-8.4-8.4-8.4-8.4l11.8-13.5l-8.4-69.1L951.4,522.5z"
	/>
<path class="st2" d="M935.4,651.5c0,0,75.8-42.1,77.5,0s-38.8,59-38.8,59s-104.5,31.3-108.7,19.9s-12.6-30-5.9-31.7
	s15.2-5.1,18.5-1.7s45.5-25.3,45.5-25.3L935.4,651.5z"/>
<path class="st8" d="M970.8,646.4c0,0-15.2,6.7-20.2,11.8s-27,13.5-27,13.5"/>
<path class="st7" d="M805.6,484.6l-10.1-3.4c0,0-37.1,38.8-25.3,48.9s18.5,13.5,21.9,16.9s20.2,5.1,20.2,5.1L805.6,484.6z"/>
<path class="st7" d="M928.6,493l15.2,3.4c0,0,11.8,25.3,15.2,28.6s-5.1,1.7-10.1,8.4S938.7,552,928.6,552S905,535.2,905,535.2
	L928.6,493z"/>
<path class="st2" d="M798.9,666.6c0,0-64-45.5-86-11.8s94.4,79.2,111.2,86s32,13.5,32,13.5s15.2-37.1,15.2-43.8s-11.8-6.7-15.2-6.7
	s-18.5-3.4-21.9-8.4S798.9,666.6,798.9,666.6z"/>
<path class="st8" d="M763.5,654.8c0,0,16.9,13.5,32,16.9s20.2,11.8,20.2,11.8"/>
<path class="st5" d="M787.2,591.5l1.3,71.4c0.1,4.9,4.1,8.8,9,8.8l132.8-1.5c4.7-0.1,8.5-3.7,8.8-8.4l4-69.9
	c0.3-4.9-3.5-9.1-8.4-9.4c-0.2,0-0.3,0-0.5,0H796.2c-4.9,0-8.9,4-8.9,8.9C787.2,591.3,787.2,591.4,787.2,591.5z"/>
<path class="st2" d="M858.2,371.9c0,0,2.2,7.2-10.1,13.7s-15.8,31-1.4,38.2s18.7,16.6,11.5,23s-20.2,23.8-2.9,28.1
	s19.4,13,14.4,16.6s11.5-6.5,11.5-6.5s2.9,17.3,18,13s30.2-82.8,13.4-103.1C896.9,376,858.2,371.9,858.2,371.9z"/>
<path class="st2" d="M853.6,364.5c0-10.5,31.6-3,45.1,11.8c9.4,10.2,23.6,25.5,11.7,36.4s20.4,25,29.1,29.3s25.8,17.4,10.3,26.3
	s-15.2,17.7-9.4,19.8s-12.8-3.1-12.8-3.1s1.9,17.4-13.8,17.3s-60.8-86.5-50.1-110.5C873.7,369.3,853.6,364.5,853.6,364.5z"/>
<path class="st2" d="M860.5,362.2c-42.2-2.5-46.4,29.2-46.4,29.2c0.3,18.4,29.5,9.4,37.6,12.2c9.8-7,28.6-20.4,42.1-29.9
	C884,366.8,872.4,362.8,860.5,362.2z"/>
<path class="st9" d="M848.4,564.8c0,0-37.9-177.4-274.8-306.1"/>
<polygon class="st10" points="583.4,254.9 583.9,256.8 574.3,259.2 577.3,268.5 575.4,269.2 571.8,257.7 "/>
<path class="st7" d="M68.5,746.1c0,22.5-13.4,30.3-29.8,30.3c-0.4,0-0.8,0-1.1,0c-0.8,0-1.5-0.1-2.3-0.1
	c-14.9-1.1-26.4-9.3-26.4-30.2c0-21.6,27.6-48.9,29.7-50.9l0,0c0.1-0.1,0.1-0.1,0.1-0.1S68.5,723.6,68.5,746.1z"/>
<path class="st10" d="M37.6,773l10.9-15.2l-10.9,16.9l0,1.8c-0.8,0-1.5-0.1-2.3-0.1l1.2-22.5l0-0.2l0,0l0.1-2.1l-11-17l11,15.4
	l0,0.5l0.9-17l-9.4-17.5l9.5,14.5l0.9-35.2l0-0.1v0.1l-0.2,27.8l9.3-11l-9.4,13.4l-0.2,15.2l8.7-14.6L38,742.8l-0.1,8.5l12.7-20.3
	l-12.7,23.3L37.6,773z"/>
<path class="st9" d="M414.9,214.1c0,0-73.5-10.1-126,20.7"/>
<polygon class="st10" points="290.7,224.5 292.6,225.1 289.6,234.5 299.2,236.8 298.8,238.7 287.1,235.9 "/>
<line class="st11" x1="-417.2" y1="779.8" x2="-5.2" y2="779.8"/>
<path class="st12" d="M143.8,320.7c0,0-59.1,9.4-51.8-2.4s45.9-23.6,53-21.1S143.8,320.7,143.8,320.7z"/>
<path class="st4" d="M143.8,320.7c0,0-59.1,9.4-51.8-2.4s45.9-23.6,53-21.1S143.8,320.7,143.8,320.7z"/>
<path class="st7" d="M211.6,188.7c0,0-38.2,10.3-20.5,42.9c0,0,28.9,56.9,16.8,60.6c-12.1,3.7-67.9,1.9-67.9,1.9s-13,31.7-6.5,32.6
	c6.5,0.9,110.8,22.4,121.9,1.9s0-109.1,0-109.1S239.5,175.7,211.6,188.7z"/>
<path class="st4" d="M211.6,188.7c0,0-38.2,10.3-20.5,42.9c0,0,28.9,56.9,16.8,60.6c-12.1,3.7-67.9,1.9-67.9,1.9s-13,31.7-6.5,32.6
	c6.5,0.9,110.8,22.4,121.9,1.9s0-109.1,0-109.1S239.5,175.7,211.6,188.7z"/>
<path class="st10" d="M319.6,673.7c0,0,16.8,40.1,7.4,47.6s-7.4,21.4-0.9,21.4c6.5,0,21.4-13.1,29.8-28.9
	c6.2-11.8,16.6-35.5,21.5-46.8c1.3-3.1-0.1-6.7-3.2-8.1c-0.2-0.1-0.4-0.2-0.6-0.2l-27-8.3L319.6,673.7z"/>
<path class="st10" d="M142.7,722.2c0,0-35.4,28.9-54,28s-21.4,18.7,0,21.4s85.6,3.7,91.2,0c5.6-3.7,3.7-42.9,0-43.8
	C176.2,726.8,142.7,722.2,142.7,722.2z"/>
<path class="st2" d="M262.8,424.7c0,0,0,28.9-14.9,41c0,0-17.7,90.5-1.9,96.1s87.5,54.1,94,78.3l15.8,12.1c0,0-28.9,28.9-34.4,28.9
	c-5.6,0-60.5-75.5-109.8-89.5c0,0-30.7-7.5-29.8-47.6c0.9-40.1,37.2-146.4,37.2-146.4h41.9L262.8,424.7z"/>
<path class="st4" d="M262.8,424.7c0,0,0,28.9-14.9,41c0,0-17.7,90.5-1.9,96.1s87.5,54.1,94,78.3l15.8,12.1c0,0-28.9,28.9-34.4,28.9
	c-5.6,0-60.5-75.5-109.8-89.5c0,0-30.7-7.5-29.8-47.6c0.9-40.1,37.2-146.4,37.2-146.4h41.9L262.8,424.7z"/>
<path class="st2" d="M166,405.1c0,0-27.9,87.7-23.3,122.2c0,0-11.2,32.6-2.8,68.1c8.4,35.4-0.9,126.8-2.8,128.7s20.5,21.4,44.7,5.6
	c0,0,0.9-22.4,5.6-27s4.7-102.6,0-116.6c-4.7-14,50.3-115.6,50.3-115.6s29.8-27,18.6-41c-11.2-14,0.9-42,0.9-42l-84.7,5.6L166,405.1
	z"/>
<ellipse class="st12" cx="153" cy="154.2" rx="37.2" ry="37.3"/>
<path class="st12" d="M177.2,137.5c0,0,29.8,34.5,37.2,35.4s-24.2,41-24.2,41s-17.7-29.8-29.8-32.6
	C148.3,178.5,177.2,137.5,177.2,137.5z"/>
<path class="st10" d="M220,172l-4.7-6.5c0,0-32.1,28.6-33.3,36.2c-0.8,4.3,0.1,8.7,2.5,12.3l18.6-8.4l9.3-18.7L220,172z"/>
<path class="st10" d="M164.1,403.2c0,0-7.4,22.4-1.9,21.4c5.6-0.9,5.6-13.1,12.1-13.1c6.5,0,10.2-10.3,10.2-10.3L164.1,403.2z"/>
<path class="st10" d="M211.6,405.1c0,0,21.4,46.6,48.4,42l5.3-2.3c4.5-1.9,7-6.9,5.9-11.7c-2.6-10.7-7.3-28-11.1-28H211.6z"/>
<path class="st2" d="M115.8,156.6c0,0,3.6-11.7,15.7-7s22.3,14.9,25.1,7.5c2.8-7.5,9.9-14.3,14.7-8.6c4.8,5.8,26.7,16.5,25.7,10.9
	c-0.9-5.6,11.6-38.7-12.6-50.8s-37.2-21.4-49.3-12.1s-41.9,27-37.2,38.2c4.7,11.2,2.8,16.8,10.2,19.6
	C115.7,157,115.8,156.6,115.8,156.6z"/>
<path class="st7" d="M224.6,177.6c0,0-0.9-8.4-9.3-6.5c-8.4,1.9-30.7,39.2-30.7,39.2c-3.6,11.9-6.4,24.1-8.4,36.4
	c-3.7,22.4-11.2,104.4-18.6,118.4s6.5,46.6,6.5,46.6s8.4-9.3,35.4-3.7s62.4,11.2,65.1,8.4c2.8-2.8-2.8-10.3,4.7-19.6
	c7.4-9.3,17.7-185.6-19.5-205.2C249.8,191.5,232.1,177.6,224.6,177.6z"/>
<path class="st4" d="M215.3,205.5c0,0-38.2,10.3-20.5,42.9c0,0,28.9,56.9,16.8,60.6c-12.1,3.7-67.9,1.9-67.9,1.9s-6,20,0.5,21
	c6.5,0.9,103.8,34,114.9,13.5c11.2-20.5,0-109.1,0-109.1S243.2,192.5,215.3,205.5z"/>
<path class="st2" d="M52.5,306.5l61.9,34c1.4,0.9,3.2,0.5,4.1-0.8c0.1-0.1,0.2-0.3,0.2-0.5l15.2-31.7c0.6-1.9-0.3-3.9-2-4.8
	l-51.4-26.5c-1.3-0.8-3-0.5-3.9,0.8l-25.7,24.2c-1,1.8-0.4,4.2,1.5,5.2C52.4,306.5,52.4,306.5,52.5,306.5z"/>
<polygon class="st13" points="56.6,301.8 114.6,335.1 130,307.2 80.3,280.1 "/>
<ellipse transform="matrix(0.7718 -0.6359 0.6359 0.7718 -184.4364 126.6973)" class="st1" cx="84.3" cy="320.3" rx="0.5" ry="0.6"/>
<path class="st12" d="M144.7,334.8c0,0-59.7,4.2-51.4-6.9c8.3-11.1,47.8-19.5,54.6-16.5S144.7,334.8,144.7,334.8z"/>
<path class="st7" d="M215.3,199.9c0,0-38.2,10.3-20.5,42.9c0,0,28.9,56.9,16.8,60.6c-12.1,3.7-67.9,1.9-67.9,1.9s-13,31.7-6.5,32.6
	s110.8,22.4,121.9,1.9s0-109.1,0-109.1S243.2,186.9,215.3,199.9z"/>
<title>mail</title>
<linearGradient id="SVGID_1_" gradientUnits="userSpaceOnUse" x1="734.0604" y1="442.2768" x2="734.0604" y2="545.4589" gradientTransform="matrix(0.9404 0.34 0.34 -0.9404 -355.3855 436.3504)">
	<stop  offset="0" style="stop-color:#808080;stop-opacity:0.25"/>
	<stop  offset="0.54" style="stop-color:#808080;stop-opacity:0.12"/>
	<stop  offset="1" style="stop-color:#808080;stop-opacity:0.1"/>
</linearGradient>
<path class="st14" d="M561.6,232.9c1.3-3.6,0.8-4.9-0.6-6.9l-38.3-51.4c-1.1-1.5-3.1-2.2-4.9-1.8l-61.1,14.4c-2.4,0.7-4.7,1.7-6,5.3
	l-0.1,0l-18.1,49.6l0,0l-0.8,2.2c-1.1,3,0.8,6.4,4.2,7.7c0,0,0,0,0,0l2.4,0.9l0,0l46.8,17l49.3,17.9c3.4,1.2,7.1-0.2,8.2-3.2
	c0,0,0,0,0,0L561.6,232.9L561.6,232.9z"/>
<path class="st15" d="M451.5,193l109,39.6l0,0l-16.8,46.2c-1.9,5.2-8.3,7.7-14.3,5.5l-87.5-31.8c-5.9-2.1-9.1-8-7.2-13.2L451.5,193
	L451.5,193L451.5,193z"/>
<path class="st16" d="M451.5,193l-17.6,48.2c-1.5,4.1,1.1,8.8,5.8,10.5l92,33.5"/>
<path class="st13" d="M560.4,232.7l-17.6,48.2c-1.5,4.1-6.5,6-11.2,4.3l-92-33.5"/>
<path class="st15" d="M517.3,174.1l-59.9,13.8c-2.3,0.7-4.6,1.6-5.9,5.1l109,39.7c1.3-3.5,0.8-4.8-0.6-6.8l-37.8-50.1
	C521,174.4,519.1,173.7,517.3,174.1z"/>
<path class="st17" d="M517.3,174.1l-59.9,13.8c-2.3,0.7-4.6,1.6-5.9,5.1l109,39.7c1.3-3.5,0.8-4.8-0.6-6.8l-37.8-50.1
	C521,174.4,519.1,173.7,517.3,174.1z"/>
<linearGradient id="SVGID_2_" gradientUnits="userSpaceOnUse" x1="740.0339" y1="481.486" x2="740.0339" y2="541.8845" gradientTransform="matrix(0.9397 0.3421 0.3421 -0.9397 -355.5075 435.0233)">
	<stop  offset="0" style="stop-color:#000000;stop-opacity:0.12"/>
	<stop  offset="0.55" style="stop-color:#000000;stop-opacity:9.000000e-02"/>
	<stop  offset="1" style="stop-color:#000000;stop-opacity:2.000000e-02"/>
</linearGradient>
<polygon class="st18" points="558.4,201.3 548.5,187.5 503.8,211.3 490.9,193.5 475.8,201.6 494.7,227.3 494.7,227.3 499.3,233.9 
	"/>
<polygon class="st13" points="557.5,200.8 548.5,188.4 503.7,213.1 490.4,195 477.4,202.1 495.3,226.5 495.3,226.5 499.9,232.6 "/>
<g>
	<g>
		<path class="st19" d="M46.1,289.8c0,0.7,0.6,1.5,1.4,1.6c0.8,0.2,1.4-0.2,1.4-1c0-0.1,0-0.3-0.1-0.4c-1-6,3-10.6,9.1-10.6
			c0.7,0,1.2-0.6,1-1.3c-0.1-0.7-0.9-1.4-1.6-1.4C49.7,276.6,44.8,282.3,46.1,289.8z"/>
	</g>
</g>
<g>
	<g>
		<path class="st19" d="M37.6,288.4c0,0.7,0.6,1.5,1.4,1.6c0.8,0.2,1.4-0.2,1.4-1c0-0.1,0-0.3-0.1-0.4c-1.6-9.8,4.8-17.3,14.7-17.2
			c0.7-0.1,1-0.8,0.7-1.5c-0.2-0.6-0.8-1-1.4-1.1l0.1-0.1C43.1,268.5,35.7,277.1,37.6,288.4z"/>
	</g>
</g>
<g>
	<g>
		<path class="st19" d="M28.9,287.3c0.1,0.7,0.8,1.4,1.6,1.4c0,0,0.1,0,0.1,0c0.8,0,1.2-0.5,1.1-1.3c-2.3-14,6.9-24.7,21-24.5
			c0.8,0.1,1.3-0.4,1.3-1.1c-0.1-0.7-0.7-1.4-1.5-1.6c-0.2,0-0.3,0-0.4,0C36.4,260.1,26.3,271.9,28.9,287.3z"/>
	</g>
</g>
</svg>
