<?xml version="1.0" encoding="utf-8"?>
<!-- Generator: Adobe Illustrator 23.0.3, SVG Export Plug-In . SVG Version: 6.00 Build 0)  -->
<svg version="1.1" id="Calque_1" xmlns="http://www.w3.org/2000/svg" xmlns:xlink="http://www.w3.org/1999/xlink" x="0px" y="0px"
	 viewBox="0 0 500 460" style="enable-background:new 0 0 500 460;" xml:space="preserve">
<style type="text/css">
	.st0{display:none;opacity:0.5;}
	.st1{display:inline;fill:#36334A;}
	.st2{display:inline;fill:#6C63FF;}
	.st3{display:inline;opacity:0.3;fill:#6C63FF;enable-background:new    ;}
	.st4{fill:#3F3D56;}
	.st5{fill:#E6E8EC;}
	.st6{fill:#36334A;}
	.st7{display:none;fill:#3195FF;}
	.st8{display:none;fill:#6ED397;}
	.st9{fill:#3195FF;}
	.st10{fill:#6ED397;}
	.st11{fill:none;stroke:#FFFFFF;stroke-linecap:round;stroke-miterlimit:10;}
	.st12{fill:none;stroke:#FF00FF;stroke-miterlimit:10;}
	.st13{fill:#F2F2F2;}
	.st14{display:none;}
	.st15{display:inline;fill:#4C4C4C;}
	.st16{display:inline;fill:#3195FF;}
	.st17{fill:#4C4C4C;}
	.st18{fill:#000333;}
</style>
<g>
	<g>
		<g id="ada6f7ae-8394-4767-8700-18704e9e9034">
			<title>note list</title>
			<g class="st0">
				<path class="st1" d="M320,8h364c10.5,0,19,8.5,19,19v83c0,10.5-8.5,19-19,19H320c-10.5,0-19-8.5-19-19V27
					C301,16.5,309.5,8,320,8z"/>
				<rect x="350" y="34" class="st2" width="93" height="21"/>
				<rect x="350" y="68" class="st3" width="285" height="11"/>
				<rect x="350" y="92" class="st3" width="114" height="11"/>
			</g>
			<g class="st0">
				<path class="st1" d="M-184,106.5h364c10.5,0,19,8.5,19,19v82.9c0,10.5-8.5,19-19,19h-364c-10.5,0-19-8.5-19-19v-82.9
					C-203,115-194.5,106.5-184,106.5z"/>
				<rect x="-154" y="132.5" class="st1" width="93" height="21"/>
				<rect x="-154" y="166.5" class="st1" width="285" height="11"/>
				<rect x="-154" y="190.5" class="st1" width="114" height="11"/>
				<path class="st1" d="M-184,106.5h364c10.5,0,19,8.5,19,19v82.9c0,10.5-8.5,19-19,19h-364c-10.5,0-19-8.5-19-19v-82.9
					C-203,115-194.5,106.5-184,106.5z"/>
				<rect x="-154" y="132.5" class="st2" width="93" height="21"/>
				<rect x="-154" y="166.5" class="st3" width="285" height="11"/>
				<rect x="-154" y="190.5" class="st3" width="114" height="11"/>
			</g>
			<path class="st4" d="M418.9,219.5h5.7c1.3,0,2.3,1,2.3,2.3v80.4c0,1.3-1,2.3-2.3,2.3h-5.7c-1.3,0-2.3-1-2.3-2.3v-80.4
				C416.6,220.6,417.6,219.5,418.9,219.5z"/>
			<path class="st4" d="M75.3,152.9h2.8c0.8,0,1.5,0.7,1.5,1.5v25c0,0.8-0.7,1.5-1.5,1.5h-2.8c-0.8,0-1.5-0.7-1.5-1.5v-25
				C73.8,153.6,74.4,152.9,75.3,152.9z"/>
			<path class="st4" d="M75.2,204.2h3.1c0.9,0,1.7,0.8,1.7,1.7v45.3c0,0.9-0.8,1.7-1.7,1.7h-3.1c-0.9,0-1.7-0.8-1.7-1.7v-45.3
				C73.5,204.9,74.3,204.2,75.2,204.2z"/>
			<path class="st4" d="M75.3,269.9h3c0.9,0,1.6,0.7,1.6,1.6v45.9c0,0.9-0.7,1.6-1.6,1.6h-3c-0.9,0-1.6-0.7-1.6-1.6v-45.9
				C73.6,270.7,74.4,269.9,75.3,269.9z"/>
			<path class="st4" d="M112.7,60.4h273.7c19.7,0,35.7,16,35.7,35.7v630c0,19.7-16,35.7-35.7,35.7H112.7c-19.7,0-35.7-16-35.7-35.7
				v-630C77,76.4,93,60.4,112.7,60.4z"/>
			<path class="st5" d="M218.8,81.4H262c1.4,0,2.5,1.1,2.5,2.5v4.7c0,1.4-1.1,2.5-2.5,2.5h-43.1c-1.4,0-2.5-1.1-2.5-2.5v-4.7
				C216.3,82.5,217.4,81.4,218.8,81.4z"/>
			<circle class="st5" cx="277.3" cy="86.3" r="5.5"/>
			<path class="st6" d="M400.8,106.1v610c0,15.1-12.3,27.4-27.4,27.4H125.8c-15.1,0-27.4-12.3-27.4-27.4v-610
				c0-15.1,12.3-27.4,27.4-27.4l0,0h37.1v4.8c0,12.5,10.1,22.6,22.6,22.6h126c12.4,0,22.5-10.1,22.5-22.6v-4.8h39.5
				C388.5,78.7,400.8,91,400.8,106.1z"/>
			<rect x="107" y="137" class="st4" width="31" height="4"/>
			<rect x="107" y="144" class="st4" width="31" height="4"/>
			<rect x="107" y="151" class="st4" width="31" height="4"/>
			<rect x="107" y="137" class="st5" width="31" height="4"/>
			<rect x="107" y="144" class="st5" width="31" height="4"/>
			<rect x="107" y="151" class="st5" width="31" height="4"/>
			<path class="st5" d="M386.7,147h-0.9l-0.3-0.3c1.1-1.4,1.8-3.1,1.8-4.9c0-4.1-3.4-7.4-7.5-7.4s-7.4,3.4-7.4,7.5s3.4,7.4,7.5,7.4
				c1.8,0,3.5-0.6,4.9-1.8l0.3,0.3v0.9l5.7,5.8l1.7-1.7L386.7,147z M379.8,147c-2.9,0-5.2-2.3-5.2-5.2s2.3-5.2,5.2-5.2
				s5.2,2.3,5.2,5.2l0,0C385,144.7,382.7,147,379.8,147L379.8,147L379.8,147z"/>
			<rect x="107" y="208" class="st7" width="93" height="21"/>
			<rect x="107" y="242" class="st8" width="285" height="11"/>
			<rect x="107" y="266" class="st8" width="114" height="11"/>
			<rect x="107" y="322" class="st7" width="93" height="21"/>
			<rect x="107" y="356" class="st8" width="285" height="11"/>
			<rect x="107" y="380" class="st8" width="114" height="11"/>
			<rect x="107" y="404" class="st9" width="93" height="21"/>
			<rect x="107" y="438" class="st10" width="285" height="11"/>
			<rect x="107" y="462" class="st10" width="114" height="11"/>
			<rect x="107" y="526" class="st9" width="93" height="21"/>
			<rect x="107" y="560" class="st10" width="285" height="11"/>
			<rect x="107" y="584" class="st10" width="114" height="11"/>
			<circle class="st9" cx="341" cy="684" r="34"/>
			<path class="st11" d="M358.3,681.3v16.4c0,0.7-0.6,1.3-1.3,1.3h-33.5c-0.7,0-1.3-0.6-1.3-1.3v-26.2c0-0.7,0.6-1.3,1.3-1.3h23.3"
				/>
			<line class="st11" x1="328.7" y1="680" x2="351.3" y2="680"/>
			<line class="st11" x1="329" y1="684.7" x2="351.7" y2="684.7"/>
			<line class="st11" x1="329.3" y1="689.3" x2="352" y2="689.3"/>
			<line class="st12" x1="354" y1="669" x2="354" y2="680.3"/>
			<line class="st12" x1="359.7" y1="674.7" x2="348.3" y2="674.7"/>
			<line class="st11" x1="354" y1="669" x2="354" y2="680.3"/>
			<line class="st11" x1="359.7" y1="674.7" x2="348.3" y2="674.7"/>
			<path class="st8" d="M-24,303h364c10.5,0,19,8.5,19,19v83c0,10.5-8.5,19-19,19H-24c-10.5,0-19-8.5-19-19v-83
				C-43,311.5-34.5,303-24,303z"/>
		</g>
	</g>
</g>
<g id="Calque_3">
	<path class="st13" d="M376.8,335.7H122.2c-8.4,0-15.2-6.8-15.2-15.2v-97.3c0-8.4,6.8-15.2,15.2-15.2h254.7
		c8.4,0,15.2,6.8,15.2,15.2v97.3C392,328.9,385.2,335.7,376.8,335.7z"/>
	<g class="st14">
		<path class="st15" d="M128.6,259.6l-3,10.2h-1l-3-10.2h1l2.4,8.3l2.5-8.3H128.6z"/>
		<path class="st15" d="M129.7,269.4c-0.4-0.3-0.7-0.8-1-1.5c-0.2-0.6-0.3-1.2-0.3-2.1s0.1-1.5,0.3-2.1c0.2-0.6,0.6-1,1-1.4
			c0.4-0.3,0.9-0.5,1.4-0.5s1,0.2,1.4,0.5c0.4,0.3,0.7,0.8,1,1.4c0.2,0.6,0.3,1.2,0.3,2.1s-0.1,1.5-0.3,2.1c-0.2,0.6-0.6,1-1,1.5
			c-0.4,0.3-0.8,0.5-1.4,0.5C130.6,269.9,130.1,269.7,129.7,269.4z M132,268.4c0.3-0.2,0.5-0.5,0.6-0.9c0.1-0.4,0.2-0.9,0.2-1.5
			c0-0.5-0.1-1-0.2-1.5c-0.1-0.4-0.3-0.7-0.6-0.9s-0.6-0.3-0.9-0.3s-0.6,0.1-0.9,0.3c-0.3,0.2-0.5,0.5-0.6,0.9
			c-0.1,0.4-0.2,0.9-0.2,1.5c0,0.5,0.1,1,0.2,1.5c0.1,0.4,0.3,0.7,0.6,0.9c0.3,0.2,0.6,0.3,0.9,0.3S131.7,268.6,132,268.4z"/>
		<path class="st15" d="M139.9,262.1v7.7H139v-1.1c-0.2,0.4-0.4,0.7-0.8,0.9c-0.3,0.2-0.6,0.3-1,0.3c-0.7,0-1.3-0.3-1.6-0.8
			c-0.4-0.5-0.6-1.5-0.6-2.5v-4.5h0.9v4.3c0,0.7,0.1,1.4,0.3,1.7c0.2,0.3,0.6,0.6,1,0.6s0.9-0.2,1.2-0.6c0.3-0.4,0.4-1,0.4-1.9v-3.9
			h1V262.1z"/>
		<path class="st15" d="M142,269.6c-0.4-0.2-0.7-0.4-0.9-0.6l0.4-1.1c0.2,0.2,0.5,0.4,0.8,0.6s0.6,0.2,1,0.2c0.8,0,1.3-0.3,1.3-1
			c0-0.2-0.1-0.4-0.1-0.5c-0.1-0.1-0.3-0.2-0.4-0.3s-0.4-0.1-0.7-0.2c-0.4-0.1-0.8-0.2-1-0.3c-0.3-0.1-0.5-0.3-0.7-0.6
			s-0.3-0.7-0.3-1.2c0-0.7,0.2-1.2,0.6-1.7c0.4-0.4,0.9-0.6,1.6-0.6c0.3,0,0.7,0.1,1,0.2c0.3,0.1,0.6,0.3,0.8,0.5l-0.4,1.1
			c-0.4-0.4-0.9-0.6-1.5-0.6c-0.4,0-0.7,0.1-0.9,0.3c-0.2,0.2-0.3,0.4-0.3,0.7c0,0.2,0.1,0.4,0.2,0.6c0.1,0.1,0.3,0.2,0.4,0.3
			s0.4,0.1,0.7,0.2c0.4,0.1,0.8,0.2,1,0.3c0.2,0.1,0.5,0.3,0.6,0.6c0.2,0.3,0.3,0.7,0.3,1.2c0,0.7-0.2,1.2-0.6,1.7s-1,0.6-1.6,0.6
			C142.7,269.9,142.4,269.8,142,269.6z"/>
		<path class="st15" d="M154.1,259v10.8h-0.9v-1.2c-0.2,0.4-0.5,0.7-0.8,0.9c-0.3,0.2-0.7,0.3-1,0.3c-0.5,0-1-0.2-1.3-0.5
			c-0.4-0.3-0.7-0.8-0.9-1.4c-0.2-0.6-0.3-1.2-0.3-2.1s0.1-1.5,0.3-2.1c0.2-0.6,0.6-1,0.9-1.4c0.4-0.3,0.8-0.5,1.3-0.5
			c0.3,0,0.7,0.1,1,0.3c0.3,0.2,0.6,0.5,0.8,0.9v-4.3h0.9V259z M152.3,268.4c0.3-0.2,0.5-0.5,0.6-0.9c0.1-0.4,0.2-0.9,0.2-1.5
			c0-0.5-0.1-1-0.2-1.5c-0.1-0.4-0.3-0.7-0.6-0.9s-0.6-0.3-0.9-0.3s-0.6,0.1-0.9,0.3s-0.5,0.5-0.6,0.9c-0.1,0.4-0.2,0.9-0.2,1.5
			c0,0.5,0.1,1,0.2,1.5c0.1,0.4,0.3,0.7,0.6,0.9c0.3,0.2,0.6,0.3,0.9,0.3S152.1,268.6,152.3,268.4z"/>
		<path class="st15" d="M160.5,266.4h-4.2c0.1,0.7,0.3,1.2,0.6,1.7s0.8,0.6,1.3,0.6c0.6,0,1.1-0.3,1.5-0.9l0.5,0.9
			c-0.2,0.4-0.6,0.7-0.9,0.9s-0.8,0.3-1.2,0.3c-0.6,0-1-0.2-1.5-0.5c-0.4-0.3-0.8-0.8-1-1.5c-0.2-0.6-0.3-1.2-0.3-2.1
			c0-0.7,0.1-1.5,0.3-2c0.2-0.6,0.6-1,0.9-1.5c0.4-0.3,0.8-0.5,1.3-0.5c0.5,0,0.9,0.2,1.3,0.5s0.7,0.8,0.9,1.5
			c0.2,0.6,0.3,1.2,0.3,2.1C160.6,266.1,160.6,266.3,160.5,266.4z M156.9,263.8c-0.3,0.4-0.5,0.9-0.6,1.6h3.3
			c-0.1-0.6-0.2-1.1-0.6-1.6c-0.3-0.4-0.7-0.6-1.1-0.6S157.2,263.4,156.9,263.8z M158.6,259.1h1.2l-1.7,1.9h-0.8L158.6,259.1z"/>
		<path class="st15" d="M169.9,262.8c0.3,0.5,0.6,1.4,0.6,2.5v4.5h-0.9v-4.3c0-0.7-0.1-1.4-0.3-1.7c-0.2-0.4-0.6-0.5-1-0.5
			c-0.5,0-0.8,0.2-1.1,0.6c-0.3,0.4-0.4,1-0.4,1.9v3.9h-0.9v-4.3c0-0.7-0.1-1.4-0.3-1.7c-0.2-0.4-0.6-0.5-1-0.5
			c-0.5,0-0.8,0.2-1.1,0.6c-0.3,0.4-0.4,1-0.4,1.9v3.9H162v-7.7h0.9v1.1c0.2-0.4,0.4-0.7,0.8-0.9c0.3-0.2,0.6-0.3,1-0.3
			s0.8,0.1,1,0.4c0.3,0.2,0.6,0.6,0.7,1c0.2-0.4,0.5-0.8,0.8-1c0.3-0.2,0.8-0.4,1.2-0.4C169,262,169.5,262.3,169.9,262.8z"/>
		<path class="st15" d="M176.8,266.4h-4.2c0.1,0.7,0.3,1.2,0.6,1.7s0.8,0.6,1.3,0.6c0.6,0,1.1-0.3,1.5-0.9l0.5,0.9
			c-0.2,0.4-0.6,0.7-0.9,0.9s-0.8,0.3-1.2,0.3c-0.6,0-1-0.2-1.5-0.5c-0.4-0.3-0.8-0.8-1-1.5c-0.2-0.6-0.3-1.2-0.3-2.1
			c0-0.7,0.1-1.5,0.3-2c0.2-0.6,0.6-1,0.9-1.5c0.4-0.3,0.8-0.5,1.3-0.5s0.9,0.2,1.3,0.5c0.4,0.3,0.7,0.8,0.9,1.5
			c0.2,0.6,0.3,1.2,0.3,2.1C176.9,266.1,176.9,266.3,176.8,266.4z M173.2,263.8c-0.3,0.4-0.5,0.9-0.6,1.6h3.3
			c-0.1-0.6-0.2-1.1-0.6-1.6c-0.3-0.4-0.7-0.6-1.1-0.6C173.9,263.2,173.5,263.4,173.2,263.8z M174.9,259.1h1.2l-1.7,1.9h-0.9
			L174.9,259.1z"/>
		<path class="st15" d="M182.5,262.8c0.4,0.5,0.6,1.4,0.6,2.5v4.5h-0.9v-4.3c0-0.7-0.1-1.4-0.3-1.7c-0.2-0.4-0.6-0.5-1-0.5
			s-0.9,0.2-1.2,0.6c-0.3,0.4-0.4,1-0.4,1.9v3.9h-1v-7.7h0.9v1.1c0.2-0.4,0.4-0.7,0.8-0.9c0.3-0.2,0.7-0.3,1.1-0.3
			C181.6,262,182.1,262.3,182.5,262.8z"/>
		<path class="st15" d="M188.3,262.8c0.3,0.5,0.6,1.4,0.6,2.4v4.7H188v-1c-0.1,0.3-0.3,0.6-0.7,0.8c-0.3,0.2-0.6,0.3-1,0.3
			c-0.6,0-1-0.2-1.4-0.6s-0.5-0.9-0.5-1.7c0-0.7,0.1-1.2,0.5-1.7s0.8-0.6,1.6-0.6h1.5v-0.3c0-0.6-0.1-1-0.3-1.4s-0.6-0.5-1-0.5
			c-0.3,0-0.6,0.1-0.9,0.2c-0.3,0.1-0.6,0.3-0.8,0.6l-0.4-1c0.3-0.3,0.6-0.5,1-0.7c0.3-0.2,0.8-0.2,1.2-0.2
			C187.4,262,188,262.3,188.3,262.8z M187.4,268.5c0.3-0.2,0.4-0.6,0.6-1v-1h-1.5c-0.8,0-1.2,0.4-1.2,1.1c0,0.4,0.1,0.7,0.3,0.9
			c0.2,0.2,0.5,0.3,0.8,0.3S187.2,268.7,187.4,268.5z"/>
		<path class="st15" d="M195.7,262.1v6.6c0,1.4-0.2,2.4-0.7,3c-0.4,0.6-1.1,0.9-2,0.9c-0.5,0-1-0.1-1.4-0.3c-0.4-0.2-0.8-0.5-1-0.8
			l0.4-1c0.2,0.3,0.6,0.5,0.9,0.7c0.3,0.2,0.7,0.3,1.1,0.3c0.6,0,1-0.2,1.3-0.6c0.3-0.4,0.4-1,0.4-2v-0.6c-0.2,0.4-0.5,0.7-0.8,0.9
			c-0.3,0.2-0.7,0.3-1,0.3c-0.5,0-1-0.2-1.3-0.5c-0.4-0.3-0.7-0.7-1-1.4c-0.2-0.5-0.3-1.2-0.3-2s0.1-1.4,0.3-2c0.2-0.5,0.6-1,1-1.4
			c0.4-0.3,0.8-0.4,1.3-0.4c0.4,0,0.8,0.1,1.1,0.3s0.6,0.5,0.8,0.9v-1.1L195.7,262.1L195.7,262.1z M193.9,267.9
			c0.3-0.2,0.5-0.5,0.6-0.9s0.2-0.8,0.2-1.4c0-0.7-0.1-1.4-0.5-1.8c-0.3-0.4-0.8-0.7-1.3-0.7c-0.6,0-1,0.2-1.3,0.7
			c-0.3,0.5-0.5,1-0.5,1.8c0,0.5,0.1,0.9,0.2,1.4s0.3,0.7,0.6,0.9c0.3,0.2,0.6,0.3,0.9,0.3C193.3,268.2,193.6,268.1,193.9,267.9z"/>
		<path class="st15" d="M202.1,266.4h-4.2c0.1,0.7,0.3,1.2,0.6,1.7c0.3,0.4,0.8,0.6,1.3,0.6c0.6,0,1.1-0.3,1.5-0.9l0.5,0.9
			c-0.2,0.4-0.6,0.7-0.9,0.9s-0.8,0.3-1.2,0.3c-0.6,0-1-0.2-1.5-0.5c-0.4-0.3-0.8-0.8-1-1.5c-0.2-0.6-0.3-1.2-0.3-2.1
			c0-0.7,0.1-1.5,0.3-2c0.2-0.6,0.6-1,0.9-1.5c0.4-0.3,0.8-0.5,1.3-0.5s0.9,0.2,1.3,0.5s0.7,0.8,0.9,1.5c0.2,0.6,0.3,1.2,0.3,2.1
			C202.1,266.1,202.1,266.3,202.1,266.4z M198.5,263.8c-0.3,0.4-0.5,0.9-0.6,1.6h3.3c-0.1-0.6-0.2-1.1-0.6-1.6
			c-0.3-0.4-0.7-0.6-1.1-0.6S198.7,263.4,198.5,263.8z"/>
		<path class="st15" d="M207.2,268.7v1.1h-4.3v-0.9l3.1-5.6h-3v-1.1h4.2v0.9l-3.1,5.6H207.2z"/>
		<path class="st15" d="M212.6,265.5c0.1-0.3,0.2-0.5,0.3-0.7c0.1-0.2,0.3-0.4,0.5-0.7c0.3-0.3,0.4-0.6,0.6-0.8
			c0.1-0.2,0.2-0.5,0.2-0.9c0-0.5-0.1-0.8-0.3-1.1c-0.3-0.3-0.6-0.4-1-0.4c-0.8,0-1.3,0.4-1.7,1.1l-0.7-0.7c0.3-0.5,0.6-0.9,1-1.2
			c0.4-0.3,0.9-0.4,1.5-0.4c0.7,0,1.3,0.2,1.7,0.7c0.4,0.5,0.6,1.1,0.6,1.9c0,0.4-0.1,0.7-0.1,1c-0.1,0.3-0.2,0.5-0.3,0.7
			c-0.1,0.2-0.3,0.4-0.5,0.7c-0.3,0.3-0.5,0.6-0.6,0.9c-0.1,0.3-0.2,0.6-0.2,1h-1C212.4,266.2,212.5,265.9,212.6,265.5z
			 M212.5,269.6c-0.1-0.2-0.2-0.4-0.2-0.6s0.1-0.5,0.2-0.6c0.1-0.2,0.3-0.3,0.5-0.3c0.2,0,0.3,0.1,0.4,0.3c0.1,0.2,0.2,0.4,0.2,0.6
			s-0.1,0.5-0.2,0.6c-0.1,0.1-0.3,0.3-0.4,0.3C212.8,269.9,212.6,269.8,212.5,269.6z"/>
		<path class="st15" d="M225.4,259.6l-3,10.2h-1l-3-10.2h1l2.4,8.3l2.5-8.3H225.4z"/>
		<path class="st15" d="M230.4,266.4h-4.2c0.1,0.7,0.3,1.2,0.6,1.7c0.3,0.4,0.8,0.6,1.3,0.6c0.6,0,1.1-0.3,1.5-0.9l0.5,0.9
			c-0.2,0.4-0.6,0.7-0.9,0.9s-0.8,0.3-1.2,0.3c-0.6,0-1-0.2-1.5-0.5c-0.4-0.3-0.8-0.8-1-1.5c-0.2-0.6-0.3-1.2-0.3-2.1
			c0-0.7,0.1-1.5,0.3-2c0.2-0.6,0.6-1,0.9-1.5c0.4-0.3,0.8-0.5,1.3-0.5s0.9,0.2,1.3,0.5s0.7,0.8,0.9,1.5c0.2,0.6,0.3,1.2,0.3,2.1
			C230.4,266.1,230.4,266.3,230.4,266.4z M226.7,263.8c-0.3,0.4-0.5,0.9-0.6,1.6h3.3c-0.1-0.6-0.2-1.1-0.6-1.6
			c-0.3-0.4-0.7-0.6-1.1-0.6C227.4,263.2,227,263.4,226.7,263.8z"/>
		<path class="st15" d="M236.1,262.8c0.4,0.5,0.6,1.4,0.6,2.5v4.5h-0.9v-4.3c0-0.7-0.1-1.4-0.3-1.7c-0.2-0.4-0.6-0.5-1-0.5
			s-0.9,0.2-1.2,0.6c-0.3,0.4-0.4,1-0.4,1.9v3.9h-0.9v-7.7h0.9v1.1c0.2-0.4,0.4-0.7,0.8-0.9s0.7-0.3,1.1-0.3
			C235.2,262,235.6,262.3,236.1,262.8z"/>
		<path class="st15" d="M243,266.4h-4.2c0.1,0.7,0.3,1.2,0.6,1.7s0.8,0.6,1.3,0.6c0.6,0,1.1-0.3,1.5-0.9l0.5,0.9
			c-0.2,0.4-0.6,0.7-0.9,0.9s-0.8,0.3-1.2,0.3c-0.6,0-1-0.2-1.5-0.5c-0.4-0.3-0.8-0.8-1-1.5c-0.2-0.6-0.3-1.2-0.3-2.1
			c0-0.7,0.1-1.5,0.3-2c0.2-0.6,0.6-1,0.9-1.5c0.4-0.3,0.8-0.5,1.3-0.5c0.5,0,0.9,0.2,1.3,0.5s0.7,0.8,0.9,1.5s0.3,1.2,0.3,2.1
			C243,266.1,243,266.3,243,266.4z M239.3,263.8c-0.3,0.4-0.5,0.9-0.6,1.6h3.3c-0.1-0.6-0.2-1.1-0.6-1.6c-0.3-0.4-0.7-0.6-1.1-0.6
			C240,263.2,239.7,263.4,239.3,263.8z"/>
		<path class="st15" d="M248.1,268.7v1.1h-4.3v-0.9l3.1-5.6h-3v-1.1h4.2v0.9l-3.1,5.6H248.1z"/>
		<path class="st15" d="M256.9,259v10.8H256v-1.2c-0.2,0.4-0.5,0.7-0.8,0.9c-0.3,0.2-0.7,0.3-1,0.3c-0.5,0-1-0.2-1.3-0.5
			c-0.4-0.3-0.7-0.8-0.9-1.4c-0.2-0.6-0.3-1.2-0.3-2.1s0.1-1.5,0.3-2.1c0.2-0.6,0.6-1,0.9-1.4c0.4-0.3,0.8-0.5,1.3-0.5
			c0.3,0,0.7,0.1,1,0.3c0.3,0.2,0.6,0.5,0.8,0.9v-4.3h0.9V259z M255.1,268.4c0.3-0.2,0.5-0.5,0.6-0.9s0.2-0.9,0.2-1.5
			c0-0.5-0.1-1-0.2-1.5c-0.1-0.4-0.3-0.7-0.6-0.9c-0.3-0.2-0.6-0.3-0.9-0.3s-0.6,0.1-0.9,0.3s-0.5,0.5-0.6,0.9
			c-0.1,0.4-0.2,0.9-0.2,1.5c0,0.5,0.1,1,0.2,1.5c0.1,0.4,0.3,0.7,0.6,0.9c0.3,0.2,0.6,0.3,0.9,0.3S254.9,268.6,255.1,268.4z"/>
		<path class="st15" d="M263.3,266.4h-4.2c0.1,0.7,0.3,1.2,0.6,1.7s0.8,0.6,1.3,0.6c0.6,0,1.1-0.3,1.5-0.9l0.5,0.9
			c-0.2,0.4-0.6,0.7-0.9,0.9c-0.3,0.2-0.8,0.3-1.2,0.3c-0.6,0-1-0.2-1.5-0.5c-0.4-0.3-0.8-0.8-1-1.5c-0.2-0.6-0.3-1.2-0.3-2.1
			c0-0.7,0.1-1.5,0.3-2c0.2-0.5,0.6-1,0.9-1.5c0.4-0.3,0.8-0.5,1.3-0.5c0.5,0,0.9,0.2,1.3,0.5s0.7,0.8,0.9,1.5s0.3,1.2,0.3,2.1
			C263.3,266.1,263.3,266.3,263.3,266.4z M259.7,263.8c-0.3,0.4-0.5,0.9-0.6,1.6h3.3c-0.1-0.6-0.2-1.1-0.6-1.6
			c-0.3-0.4-0.7-0.6-1.1-0.6C260.3,263.2,260,263.4,259.7,263.8z M261.4,259.1h1.2l-1.7,1.9H260L261.4,259.1z"/>
		<path class="st15" d="M265.5,269.4c-0.4-0.3-0.8-0.8-1-1.5c-0.2-0.6-0.3-1.2-0.3-2.1s0.1-1.5,0.3-2.1c0.2-0.6,0.6-1,1-1.4
			c0.4-0.3,0.9-0.5,1.4-0.5s0.9,0.1,1.3,0.4c0.3,0.3,0.6,0.7,0.8,1.2l-0.7,0.7c-0.1-0.4-0.3-0.6-0.6-0.8s-0.5-0.3-0.8-0.3
			c-0.3,0-0.6,0.1-0.9,0.3s-0.5,0.5-0.6,0.9c-0.1,0.4-0.2,0.9-0.2,1.5c0,0.5,0.1,1,0.2,1.5s0.3,0.7,0.6,0.9c0.3,0.2,0.6,0.3,0.9,0.3
			c0.3,0,0.6-0.1,0.8-0.3c0.2-0.2,0.4-0.4,0.6-0.8l0.7,0.6c-0.2,0.5-0.5,0.9-0.8,1.2c-0.3,0.3-0.8,0.4-1.3,0.4
			C266.4,269.9,265.9,269.7,265.5,269.4z"/>
		<path class="st15" d="M271,269.4c-0.4-0.3-0.7-0.8-1-1.5c-0.2-0.6-0.3-1.2-0.3-2.1s0.1-1.5,0.3-2.1c0.2-0.6,0.6-1,1-1.4
			c0.4-0.3,0.9-0.5,1.4-0.5s1,0.2,1.4,0.5c0.4,0.3,0.7,0.8,1,1.4c0.2,0.6,0.3,1.2,0.3,2.1s-0.1,1.5-0.3,2.1c-0.2,0.6-0.6,1-1,1.5
			c-0.4,0.3-0.8,0.5-1.4,0.5C271.9,269.9,271.4,269.7,271,269.4z M273.3,268.4c0.3-0.2,0.5-0.5,0.6-0.9c0.1-0.4,0.2-0.9,0.2-1.5
			c0-0.5-0.1-1-0.2-1.5c-0.1-0.4-0.3-0.7-0.6-0.9c-0.3-0.2-0.6-0.3-0.9-0.3c-0.3,0-0.6,0.1-0.9,0.3s-0.5,0.5-0.6,0.9
			c-0.1,0.4-0.2,0.9-0.2,1.5c0,0.5,0.1,1,0.2,1.5c0.1,0.4,0.3,0.7,0.6,0.9c0.3,0.2,0.6,0.3,0.9,0.3
			C272.7,268.7,273,268.6,273.3,268.4z"/>
		<path class="st15" d="M281.2,262.1v7.7h-0.9v-1.1c-0.2,0.4-0.4,0.7-0.8,0.9c-0.3,0.2-0.6,0.3-1,0.3c-0.7,0-1.3-0.3-1.6-0.8
			c-0.3-0.5-0.6-1.5-0.6-2.5v-4.5h0.9v4.3c0,0.7,0.1,1.4,0.3,1.7c0.2,0.4,0.6,0.6,1,0.6s0.9-0.2,1.2-0.6c0.3-0.4,0.4-1,0.4-1.9v-3.9
			h1V262.1z"/>
		<path class="st15" d="M287.6,262.1l-2.2,7.7h-1l-2.2-7.7h1l1.7,6.1l1.8-6.1H287.6z"/>
		<path class="st15" d="M290.1,262.3c0.3-0.2,0.7-0.3,1.2-0.3v1.4c-0.1,0-0.1,0-0.2,0c-0.5,0-0.9,0.2-1.2,0.7
			c-0.3,0.4-0.4,1.1-0.4,2v3.8h-0.9v-7.7h0.9v1.2C289.5,263,289.7,262.6,290.1,262.3z"/>
		<path class="st15" d="M292.4,260.4c-0.1-0.2-0.2-0.4-0.2-0.6c0-0.2,0.1-0.5,0.2-0.6s0.3-0.3,0.5-0.3c0.2,0,0.3,0.1,0.5,0.2
			c0.1,0.2,0.2,0.4,0.2,0.6c0,0.3-0.1,0.5-0.2,0.6c-0.1,0.1-0.3,0.3-0.5,0.3C292.6,260.7,292.5,260.6,292.4,260.4z M292.4,262.1h0.9
			v7.7h-0.9V262.1z"/>
		<path class="st15" d="M296.7,262.3c0.3-0.2,0.7-0.3,1.2-0.3v1.4c-0.1,0-0.1,0-0.2,0c-0.5,0-0.9,0.2-1.2,0.7
			c-0.3,0.4-0.4,1.1-0.4,2v3.8h-0.9v-7.7h0.9v1.2C296.1,263,296.4,262.6,296.7,262.3z"/>
		<path class="st15" d="M306,262.8c0.4,0.5,0.6,1.4,0.6,2.5v4.5h-0.9v-4.3c0-0.7-0.1-1.4-0.3-1.7c-0.2-0.4-0.6-0.5-1-0.5
			s-0.9,0.2-1.2,0.6c-0.3,0.4-0.4,1-0.4,1.9v3.9h-0.9v-7.7h0.9v1.1c0.2-0.4,0.4-0.7,0.8-0.9c0.3-0.2,0.7-0.3,1.1-0.3
			C305.1,262,305.7,262.3,306,262.8z"/>
		<path class="st15" d="M309.3,269.4c-0.4-0.3-0.7-0.8-1-1.5c-0.2-0.6-0.3-1.2-0.3-2.1s0.1-1.5,0.3-2.1c0.2-0.6,0.6-1,1-1.4
			c0.4-0.3,0.9-0.5,1.4-0.5s1,0.2,1.4,0.5c0.4,0.3,0.7,0.8,1,1.4c0.2,0.6,0.3,1.2,0.3,2.1s-0.1,1.5-0.3,2.1c-0.2,0.6-0.6,1-1,1.5
			c-0.4,0.3-0.8,0.5-1.4,0.5S309.7,269.7,309.3,269.4z M311.6,268.4c0.3-0.2,0.5-0.5,0.6-0.9c0.1-0.4,0.2-0.9,0.2-1.5
			c0-0.5-0.1-1-0.2-1.5c-0.1-0.4-0.3-0.7-0.6-0.9c-0.3-0.2-0.6-0.3-0.9-0.3c-0.3,0-0.6,0.1-0.9,0.3s-0.5,0.5-0.6,0.9
			c-0.1,0.4-0.2,0.9-0.2,1.5c0,0.5,0.1,1,0.2,1.5c0.1,0.4,0.3,0.7,0.6,0.9c0.3,0.2,0.6,0.3,0.9,0.3
			C311,268.7,311.3,268.6,311.6,268.4z"/>
		<path class="st15" d="M314.9,269.6c-0.4-0.2-0.7-0.4-0.9-0.6l0.4-1.1c0.2,0.2,0.5,0.4,0.8,0.6c0.3,0.2,0.6,0.2,1,0.2
			c0.8,0,1.3-0.3,1.3-1c0-0.2-0.1-0.4-0.1-0.5c-0.1-0.1-0.3-0.2-0.4-0.3c-0.1-0.1-0.4-0.1-0.7-0.2c-0.4-0.1-0.8-0.2-1-0.3
			c-0.3-0.1-0.5-0.3-0.7-0.6s-0.3-0.7-0.3-1.2c0-0.7,0.2-1.2,0.6-1.7c0.4-0.4,0.9-0.6,1.6-0.6c0.3,0,0.7,0.1,1,0.2
			c0.3,0.1,0.6,0.3,0.8,0.5l-0.4,1.1c-0.4-0.4-0.9-0.6-1.5-0.6c-0.4,0-0.7,0.1-0.9,0.3s-0.3,0.4-0.3,0.7c0,0.2,0.1,0.4,0.2,0.6
			c0.1,0.2,0.3,0.2,0.4,0.3c0.1,0.1,0.4,0.1,0.7,0.2c0.4,0.1,0.8,0.2,1,0.3c0.3,0.1,0.5,0.3,0.6,0.6c0.2,0.3,0.3,0.7,0.3,1.2
			c0,0.7-0.2,1.2-0.6,1.7c-0.4,0.4-1,0.6-1.6,0.6C315.7,269.9,315.3,269.8,314.9,269.6z"/>
		<path class="st15" d="M325.6,262.8c0.3,0.5,0.6,1.4,0.6,2.4v4.7h-0.8v-1c-0.1,0.3-0.3,0.6-0.7,0.8c-0.3,0.2-0.6,0.3-1,0.3
			c-0.6,0-1-0.2-1.4-0.6c-0.3-0.4-0.5-0.9-0.5-1.7c0-0.7,0.1-1.2,0.5-1.7c0.3-0.4,0.8-0.6,1.6-0.6h1.5v-0.3c0-0.6-0.1-1-0.3-1.4
			s-0.6-0.5-1-0.5c-0.3,0-0.6,0.1-0.9,0.2c-0.3,0.1-0.6,0.3-0.8,0.6l-0.4-1c0.3-0.3,0.6-0.5,1-0.7c0.3-0.2,0.8-0.2,1.2-0.2
			C324.7,262,325.3,262.3,325.6,262.8z M324.7,268.5c0.3-0.2,0.4-0.6,0.6-1v-1h-1.5c-0.8,0-1.2,0.4-1.2,1.1c0,0.4,0.1,0.7,0.3,0.9
			c0.2,0.2,0.5,0.3,0.8,0.3C324.1,268.8,324.5,268.7,324.7,268.5z"/>
		<path class="st15" d="M328.2,269.6c-0.4-0.2-0.7-0.4-0.9-0.6l0.4-1.1c0.2,0.2,0.5,0.4,0.8,0.6c0.3,0.2,0.6,0.2,1,0.2
			c0.8,0,1.3-0.3,1.3-1c0-0.2-0.1-0.4-0.1-0.5c-0.1-0.1-0.3-0.2-0.4-0.3c-0.1-0.1-0.4-0.1-0.7-0.2c-0.4-0.1-0.8-0.2-1-0.3
			c-0.3-0.1-0.5-0.3-0.7-0.6s-0.3-0.7-0.3-1.2c0-0.7,0.2-1.2,0.6-1.7c0.4-0.4,0.9-0.6,1.6-0.6c0.3,0,0.7,0.1,1,0.2
			c0.3,0.1,0.6,0.3,0.8,0.5l-0.4,1.1c-0.4-0.4-0.9-0.6-1.5-0.6c-0.4,0-0.7,0.1-0.9,0.3s-0.3,0.4-0.3,0.7c0,0.2,0.1,0.4,0.2,0.6
			c0.1,0.2,0.3,0.2,0.4,0.3s0.4,0.1,0.7,0.2c0.4,0.1,0.8,0.2,1,0.3c0.3,0.1,0.5,0.3,0.6,0.6c0.2,0.3,0.3,0.7,0.3,1.2
			c0,0.7-0.2,1.2-0.6,1.7c-0.4,0.4-1,0.6-1.6,0.6C329.1,269.9,328.6,269.8,328.2,269.6z"/>
		<path class="st15" d="M333.1,269.6c-0.4-0.2-0.7-0.4-0.9-0.6l0.4-1.1c0.2,0.2,0.5,0.4,0.8,0.6c0.3,0.2,0.6,0.2,1,0.2
			c0.8,0,1.3-0.3,1.3-1c0-0.2-0.1-0.4-0.1-0.5c-0.1-0.1-0.3-0.2-0.4-0.3c-0.1-0.1-0.4-0.1-0.7-0.2c-0.4-0.1-0.8-0.2-1-0.3
			c-0.3-0.1-0.5-0.3-0.7-0.6s-0.3-0.7-0.3-1.2c0-0.7,0.2-1.2,0.6-1.7c0.4-0.4,0.9-0.6,1.6-0.6c0.3,0,0.7,0.1,1,0.2
			c0.3,0.1,0.6,0.3,0.8,0.5L336,264c-0.4-0.4-0.9-0.6-1.5-0.6c-0.4,0-0.7,0.1-0.9,0.3s-0.3,0.4-0.3,0.7c0,0.2,0.1,0.4,0.2,0.6
			c0.1,0.2,0.3,0.2,0.4,0.3c0.1,0.1,0.4,0.1,0.7,0.2c0.4,0.1,0.8,0.2,1,0.3c0.3,0.1,0.5,0.3,0.6,0.6c0.2,0.3,0.3,0.7,0.3,1.2
			c0,0.7-0.2,1.2-0.6,1.7c-0.4,0.4-1,0.6-1.6,0.6C333.9,269.9,333.5,269.8,333.1,269.6z"/>
		<path class="st15" d="M342.6,262.1v7.7h-0.9v-1.1c-0.2,0.4-0.4,0.7-0.8,0.9c-0.3,0.2-0.6,0.3-1,0.3c-0.7,0-1.3-0.3-1.6-0.8
			c-0.3-0.5-0.6-1.5-0.6-2.5v-4.5h0.9v4.3c0,0.7,0.1,1.4,0.3,1.7c0.2,0.4,0.6,0.6,1,0.6c0.5,0,0.9-0.2,1.2-0.6
			c0.3-0.4,0.4-1,0.4-1.9v-3.9h1V262.1z"/>
		<path class="st15" d="M346,262.3c0.3-0.2,0.7-0.3,1.2-0.3v1.4c-0.1,0-0.1,0-0.2,0c-0.5,0-0.9,0.2-1.2,0.7c-0.3,0.4-0.4,1.1-0.4,2
			v3.8h-0.9v-7.7h0.9v1.2C345.5,263,345.7,262.6,346,262.3z"/>
		<path class="st15" d="M351.8,262.8c0.3,0.5,0.6,1.4,0.6,2.4v4.7h-0.9v-1c-0.1,0.3-0.3,0.6-0.7,0.8c-0.3,0.2-0.6,0.3-1,0.3
			c-0.6,0-1-0.2-1.4-0.6c-0.3-0.4-0.5-0.9-0.5-1.7c0-0.7,0.1-1.2,0.5-1.7c0.3-0.4,0.8-0.6,1.6-0.6h1.5v-0.3c0-0.6-0.1-1-0.3-1.4
			s-0.6-0.5-1-0.5c-0.3,0-0.6,0.1-0.9,0.2c-0.3,0.1-0.6,0.3-0.8,0.6l-0.4-1c0.3-0.3,0.6-0.5,1-0.7c0.3-0.2,0.8-0.2,1.2-0.2
			C350.9,262,351.5,262.3,351.8,262.8z M350.9,268.5c0.3-0.2,0.4-0.6,0.6-1v-1H350c-0.8,0-1.2,0.4-1.2,1.1c0,0.4,0.1,0.7,0.3,0.9
			c0.2,0.2,0.5,0.3,0.8,0.3C350.3,268.8,350.6,268.7,350.9,268.5z"/>
		<path class="st15" d="M358.5,262.8c0.4,0.5,0.6,1.4,0.6,2.5v4.5h-0.9v-4.3c0-0.7-0.1-1.4-0.3-1.7c-0.2-0.4-0.6-0.5-1-0.5
			c-0.5,0-0.9,0.2-1.2,0.6c-0.3,0.4-0.4,1-0.4,1.9v3.9h-0.9v-7.7h0.9v1.1c0.2-0.4,0.4-0.7,0.8-0.9c0.3-0.2,0.7-0.3,1.1-0.3
			C357.6,262,358.1,262.3,358.5,262.8z"/>
		<path class="st15" d="M361.6,269.4c-0.4-0.3-0.8-0.8-1-1.5c-0.2-0.6-0.3-1.2-0.3-2.1s0.1-1.5,0.3-2.1c0.2-0.6,0.6-1,1-1.4
			c0.4-0.3,0.9-0.5,1.4-0.5s0.9,0.1,1.3,0.4c0.3,0.3,0.6,0.7,0.8,1.2l-0.7,0.7c-0.1-0.4-0.3-0.6-0.6-0.8c-0.2-0.2-0.5-0.3-0.8-0.3
			c-0.3,0-0.6,0.1-0.9,0.3c-0.3,0.2-0.5,0.5-0.6,0.9c-0.1,0.4-0.2,0.9-0.2,1.5c0,0.5,0.1,1,0.2,1.5s0.3,0.7,0.6,0.9
			c0.3,0.2,0.6,0.3,0.9,0.3c0.3,0,0.6-0.1,0.8-0.3c0.2-0.2,0.4-0.4,0.6-0.8l0.7,0.6c-0.2,0.5-0.5,0.9-0.8,1.2
			c-0.3,0.3-0.8,0.4-1.3,0.4C362.6,269.9,362.1,269.7,361.6,269.4z"/>
		<path class="st15" d="M371,266.4h-4.2c0.1,0.7,0.3,1.2,0.6,1.7c0.3,0.4,0.8,0.6,1.3,0.6c0.6,0,1.1-0.3,1.5-0.9l0.5,0.9
			c-0.2,0.4-0.6,0.7-0.9,0.9c-0.3,0.2-0.8,0.3-1.2,0.3c-0.6,0-1-0.2-1.5-0.5c-0.4-0.3-0.8-0.8-1-1.5s-0.3-1.2-0.3-2.1
			c0-0.7,0.1-1.5,0.3-2c0.2-0.6,0.6-1,0.9-1.5c0.4-0.3,0.8-0.5,1.3-0.5c0.5,0,0.9,0.2,1.3,0.5s0.7,0.8,0.9,1.5s0.3,1.2,0.3,2.1
			C371,266.1,371,266.3,371,266.4z M367.3,263.8c-0.3,0.4-0.5,0.9-0.6,1.6h3.3c-0.1-0.6-0.2-1.1-0.6-1.6c-0.3-0.4-0.7-0.6-1.1-0.6
			C368,263.2,367.6,263.4,367.3,263.8z"/>
		<path class="st15" d="M372.6,269.6c-0.4-0.2-0.7-0.4-0.9-0.6l0.4-1.1c0.2,0.2,0.5,0.4,0.8,0.6c0.3,0.2,0.6,0.2,1,0.2
			c0.8,0,1.3-0.3,1.3-1c0-0.2-0.1-0.4-0.1-0.5c-0.1-0.1-0.3-0.2-0.4-0.3c-0.1-0.1-0.4-0.1-0.7-0.2c-0.4-0.1-0.8-0.2-1-0.3
			c-0.3-0.1-0.5-0.3-0.7-0.6s-0.3-0.7-0.3-1.2c0-0.7,0.2-1.2,0.6-1.7c0.4-0.4,0.9-0.6,1.6-0.6c0.3,0,0.7,0.1,1,0.2
			c0.3,0.1,0.6,0.3,0.8,0.5l-0.4,1.1c-0.4-0.4-0.9-0.6-1.5-0.6c-0.4,0-0.7,0.1-0.9,0.3s-0.3,0.4-0.3,0.7c0,0.2,0.1,0.4,0.2,0.6
			c0.1,0.2,0.3,0.2,0.4,0.3c0.1,0.1,0.4,0.1,0.7,0.2c0.4,0.1,0.8,0.2,1,0.3c0.3,0.1,0.5,0.3,0.6,0.6c0.2,0.3,0.3,0.7,0.3,1.2
			c0,0.7-0.2,1.2-0.6,1.7c-0.4,0.4-1,0.6-1.6,0.6C373.4,269.9,372.9,269.8,372.6,269.6z"/>
		<path class="st15" d="M126.8,280.3c0.4,0.5,0.6,1.4,0.6,2.5v4.5h-0.9V283c0-0.7-0.1-1.4-0.3-1.7c-0.2-0.4-0.6-0.5-1-0.5
			c-0.5,0-0.9,0.2-1.2,0.6c-0.3,0.4-0.4,1-0.4,1.9v3.9h-0.9v-10.8h0.9v4.2c0.2-0.4,0.4-0.6,0.8-0.8c0.3-0.2,0.7-0.3,1-0.3
			C125.9,279.5,126.4,279.8,126.8,280.3z"/>
		<path class="st15" d="M132.7,280.3c0.3,0.5,0.6,1.4,0.6,2.4v4.7h-0.9v-1c-0.1,0.3-0.3,0.6-0.7,0.8c-0.3,0.2-0.6,0.3-1,0.3
			c-0.6,0-1-0.2-1.4-0.6c-0.3-0.4-0.5-0.9-0.5-1.7s0.1-1.2,0.5-1.7s0.8-0.6,1.6-0.6h1.5v-0.3c0-0.6-0.1-1-0.3-1.4
			c-0.2-0.3-0.6-0.5-1-0.5c-0.3,0-0.6,0.1-0.9,0.2c-0.3,0.1-0.6,0.3-0.8,0.6l-0.4-1c0.3-0.3,0.6-0.5,1-0.7c0.3-0.2,0.8-0.2,1.2-0.2
			C131.7,279.5,132.3,279.8,132.7,280.3z M131.7,285.9c0.3-0.2,0.4-0.6,0.6-1v-1h-1.5c-0.8,0-1.2,0.4-1.2,1.1c0,0.4,0.1,0.7,0.3,0.9
			c0.2,0.2,0.5,0.3,0.8,0.3S131.4,286.1,131.7,285.9z"/>
		<path class="st15" d="M139,280c0.4,0.3,0.7,0.8,0.9,1.4c0.2,0.6,0.3,1.2,0.3,2.1s-0.1,1.5-0.3,2.1c-0.2,0.6-0.6,1-0.9,1.4
			c-0.4,0.3-0.8,0.5-1.3,0.5c-0.4,0-0.8-0.1-1-0.3c-0.3-0.2-0.6-0.5-0.8-0.9v1.2H135v-10.8h0.9v4.3c0.2-0.4,0.5-0.7,0.8-0.9
			c0.3-0.2,0.6-0.3,1-0.3C138.2,279.5,138.7,279.7,139,280z M138.5,285.8c0.3-0.2,0.5-0.5,0.6-0.9c0.1-0.4,0.2-0.9,0.2-1.5
			c0-0.5-0.1-1-0.2-1.5c-0.1-0.4-0.3-0.7-0.6-0.9c-0.3-0.2-0.6-0.3-0.9-0.3s-0.6,0.1-0.9,0.3c-0.3,0.2-0.5,0.5-0.6,0.9
			c-0.1,0.4-0.2,0.9-0.2,1.5c0,0.5,0.1,1,0.2,1.5c0.1,0.4,0.3,0.7,0.6,0.9c0.3,0.2,0.6,0.3,0.9,0.3C138,286.1,138.3,286,138.5,285.8
			z"/>
		<path class="st15" d="M141.6,277.8c-0.1-0.2-0.2-0.4-0.2-0.6s0.1-0.5,0.2-0.6c0.1-0.1,0.3-0.3,0.5-0.3s0.3,0.1,0.5,0.2
			c0.1,0.2,0.2,0.4,0.2,0.6c0,0.3-0.1,0.5-0.2,0.6c-0.1,0.2-0.3,0.3-0.5,0.3S141.7,278,141.6,277.8z M141.6,279.6h1v7.7h-0.9
			L141.6,279.6L141.6,279.6z"/>
		<path class="st15" d="M147.3,286.8c-0.1,0.2-0.3,0.3-0.5,0.4c-0.2,0.1-0.4,0.1-0.6,0.1c-0.5,0-0.9-0.2-1.2-0.6
			c-0.3-0.4-0.4-1-0.4-1.8v-4.3h-0.9v-1.1h0.9v-1.7h0.9v1.7h1.5v1.1h-1.5v4.2c0,0.4,0.1,0.7,0.2,0.9c0.1,0.2,0.3,0.3,0.6,0.3
			s0.6-0.1,0.7-0.4L147.3,286.8z"/>
		<path class="st15" d="M151.9,280.3c0.3,0.5,0.6,1.4,0.6,2.4v4.7h-0.9v-1c-0.1,0.3-0.3,0.6-0.7,0.8c-0.3,0.2-0.6,0.3-1,0.3
			c-0.6,0-1-0.2-1.4-0.6c-0.3-0.4-0.5-0.9-0.5-1.7s0.1-1.2,0.5-1.7s0.8-0.6,1.6-0.6h1.5v-0.3c0-0.6-0.1-1-0.3-1.4
			c-0.2-0.3-0.6-0.5-1-0.5c-0.3,0-0.6,0.1-0.9,0.2c-0.3,0.1-0.6,0.3-0.8,0.6l-0.4-1c0.3-0.3,0.6-0.5,1-0.7c0.3-0.2,0.8-0.2,1.2-0.2
			C151,279.5,151.5,279.8,151.9,280.3z M151,285.9c0.3-0.2,0.4-0.6,0.6-1v-1H150c-0.8,0-1.2,0.4-1.2,1.1c0,0.4,0.1,0.7,0.3,0.9
			c0.2,0.2,0.5,0.3,0.8,0.3S150.7,286.1,151,285.9z"/>
		<path class="st15" d="M157.2,286.8c-0.1,0.2-0.3,0.3-0.5,0.4c-0.2,0.1-0.4,0.1-0.6,0.1c-0.5,0-0.9-0.2-1.2-0.6
			c-0.3-0.4-0.4-1-0.4-1.8v-4.3h-0.9v-1.1h0.9v-1.7h0.9v1.7h1.5v1.1h-1.5v4.2c0,0.4,0.1,0.7,0.2,0.9c0.1,0.2,0.3,0.3,0.6,0.3
			s0.6-0.1,0.7-0.4L157.2,286.8z"/>
		<path class="st15" d="M158.3,277.8c-0.1-0.2-0.2-0.4-0.2-0.6s0.1-0.5,0.2-0.6c0.1-0.1,0.3-0.3,0.5-0.3c0.2,0,0.3,0.1,0.5,0.2
			c0.1,0.2,0.2,0.4,0.2,0.6c0,0.3-0.1,0.5-0.2,0.6c-0.1,0.2-0.3,0.3-0.5,0.3C158.6,278,158.4,278,158.3,277.8z M158.3,279.6h0.9v7.7
			h-0.9V279.6z"/>
		<path class="st15" d="M161.8,286.8c-0.4-0.3-0.7-0.8-1-1.5c-0.2-0.6-0.3-1.2-0.3-2.1s0.1-1.5,0.3-2.1c0.2-0.6,0.6-1,1-1.4
			c0.4-0.3,0.9-0.5,1.4-0.5s1,0.2,1.4,0.5c0.4,0.3,0.7,0.8,1,1.4c0.2,0.6,0.3,1.2,0.3,2.1s-0.1,1.5-0.3,2.1c-0.2,0.6-0.6,1-1,1.5
			c-0.4,0.3-0.8,0.5-1.4,0.5S162.3,287.2,161.8,286.8z M164.1,285.8c0.3-0.2,0.5-0.5,0.6-0.9c0.1-0.4,0.2-0.9,0.2-1.5
			c0-0.5-0.1-1-0.2-1.5c-0.1-0.4-0.3-0.7-0.6-0.9s-0.6-0.3-0.9-0.3s-0.6,0.1-0.9,0.3s-0.5,0.5-0.6,0.9c-0.1,0.4-0.2,0.9-0.2,1.5
			c0,0.5,0.1,1,0.2,1.5c0.1,0.4,0.3,0.7,0.6,0.9c0.3,0.2,0.6,0.3,0.9,0.3S163.9,286,164.1,285.8z"/>
		<path class="st15" d="M171.5,280.3c0.4,0.5,0.6,1.4,0.6,2.5v4.5h-0.9V283c0-0.7-0.1-1.4-0.3-1.7c-0.2-0.4-0.6-0.5-1-0.5
			s-0.9,0.2-1.2,0.6c-0.3,0.4-0.4,1-0.4,1.9v3.9h-0.9v-7.7h0.9v1.1c0.2-0.4,0.4-0.7,0.8-0.9s0.7-0.3,1.1-0.3
			C170.6,279.5,171.1,279.8,171.5,280.3z"/>
		<path class="st15" d="M174.1,287c-0.4-0.2-0.7-0.4-0.9-0.6l0.4-1.1c0.2,0.2,0.5,0.4,0.8,0.6c0.3,0.2,0.6,0.2,1,0.2
			c0.8,0,1.3-0.3,1.3-1c0-0.2-0.1-0.4-0.1-0.5c-0.1-0.1-0.3-0.2-0.4-0.3c-0.1-0.1-0.4-0.1-0.7-0.2c-0.4-0.1-0.8-0.2-1-0.3
			c-0.3-0.1-0.5-0.3-0.7-0.6c-0.2-0.3-0.3-0.7-0.3-1.2c0-0.7,0.2-1.2,0.6-1.7c0.3-0.4,0.9-0.6,1.6-0.6c0.3,0,0.7,0.1,1,0.2
			c0.3,0.1,0.6,0.3,0.8,0.5l-0.4,1.1c-0.4-0.4-0.9-0.6-1.5-0.6c-0.4,0-0.7,0.1-0.9,0.3c-0.2,0.2-0.3,0.4-0.3,0.7
			c0,0.2,0.1,0.4,0.2,0.6c0.1,0.1,0.3,0.2,0.4,0.3c0.1,0.1,0.4,0.1,0.7,0.2c0.4,0.1,0.8,0.2,1,0.3s0.5,0.3,0.6,0.6
			c0.1,0.3,0.3,0.7,0.3,1.2c0,0.7-0.2,1.2-0.6,1.7s-1,0.6-1.6,0.6C174.9,287.4,174.5,287.3,174.1,287z"/>
		<path class="st15" d="M186,283.8h-4.2c0.1,0.7,0.3,1.2,0.6,1.7c0.3,0.4,0.8,0.6,1.3,0.6c0.6,0,1.1-0.3,1.5-0.9l0.5,0.9
			c-0.2,0.4-0.6,0.7-0.9,0.9c-0.3,0.2-0.8,0.3-1.2,0.3c-0.6,0-1-0.2-1.5-0.5c-0.4-0.3-0.8-0.8-1-1.5c-0.2-0.6-0.3-1.2-0.3-2.1
			c0-0.7,0.1-1.5,0.3-2c0.2-0.6,0.6-1,0.9-1.5c0.4-0.3,0.8-0.5,1.3-0.5s0.9,0.2,1.3,0.5s0.7,0.8,0.9,1.5c0.2,0.6,0.3,1.2,0.3,2.1
			C186,283.5,186,283.7,186,283.8z M182.3,281.2c-0.3,0.4-0.5,0.9-0.6,1.6h3.3c-0.1-0.6-0.2-1.1-0.6-1.6c-0.3-0.4-0.7-0.6-1.1-0.6
			C183,280.6,182.6,280.8,182.3,281.2z"/>
		<path class="st15" d="M190.2,286.8c-0.1,0.2-0.3,0.3-0.5,0.4c-0.2,0.1-0.4,0.1-0.6,0.1c-0.5,0-0.9-0.2-1.2-0.6s-0.4-1-0.4-1.8
			v-4.3h-0.9v-1.1h0.9v-1.7h0.9v1.7h1.5v1.1h-1.5v4.2c0,0.4,0.1,0.7,0.2,0.9c0.1,0.2,0.3,0.3,0.6,0.3s0.6-0.1,0.7-0.4L190.2,286.8z"
			/>
		<path class="st15" d="M198.7,283.8h-4.2c0.1,0.7,0.3,1.2,0.6,1.7c0.3,0.4,0.8,0.6,1.3,0.6c0.6,0,1.1-0.3,1.5-0.9l0.5,0.9
			c-0.2,0.4-0.6,0.7-0.9,0.9c-0.3,0.2-0.8,0.3-1.2,0.3c-0.6,0-1-0.2-1.5-0.5c-0.4-0.3-0.8-0.8-1-1.5c-0.2-0.6-0.3-1.2-0.3-2.1
			c0-0.7,0.1-1.5,0.3-2c0.2-0.6,0.6-1,0.9-1.5c0.4-0.3,0.8-0.5,1.3-0.5s0.9,0.2,1.3,0.5s0.7,0.8,0.9,1.5c0.2,0.6,0.3,1.2,0.3,2.1
			C198.7,283.5,198.7,283.7,198.7,283.8z M195,281.2c-0.3,0.4-0.5,0.9-0.6,1.6h3.3c-0.1-0.6-0.2-1.1-0.6-1.6
			c-0.3-0.4-0.7-0.6-1.1-0.6C195.7,280.6,195.3,280.8,195,281.2z"/>
		<path class="st15" d="M200.3,287c-0.4-0.2-0.7-0.4-0.9-0.6l0.4-1.1c0.2,0.2,0.5,0.4,0.8,0.6s0.6,0.2,1,0.2c0.8,0,1.3-0.3,1.3-1
			c0-0.2-0.1-0.4-0.1-0.5c-0.1-0.1-0.3-0.2-0.4-0.3c-0.1-0.1-0.4-0.1-0.7-0.2c-0.4-0.1-0.8-0.2-1-0.3c-0.3-0.1-0.5-0.3-0.7-0.6
			c-0.2-0.3-0.3-0.7-0.3-1.2c0-0.7,0.2-1.2,0.6-1.7c0.3-0.4,0.9-0.6,1.6-0.6c0.3,0,0.7,0.1,1,0.2c0.3,0.1,0.6,0.3,0.8,0.5l-0.4,1.1
			c-0.4-0.4-0.9-0.6-1.5-0.6c-0.4,0-0.7,0.1-0.9,0.3c-0.2,0.2-0.3,0.4-0.3,0.7c0,0.2,0.1,0.4,0.2,0.6c0.1,0.1,0.3,0.2,0.4,0.3
			c0.1,0.1,0.4,0.1,0.7,0.2c0.4,0.1,0.8,0.2,1,0.3s0.5,0.3,0.6,0.6c0.1,0.3,0.3,0.7,0.3,1.2c0,0.7-0.2,1.2-0.6,1.7s-1,0.6-1.6,0.6
			C201,287.4,200.6,287.3,200.3,287z"/>
		<path class="st15" d="M207.8,286.8c-0.1,0.2-0.3,0.3-0.5,0.4c-0.2,0.1-0.4,0.1-0.6,0.1c-0.5,0-0.9-0.2-1.2-0.6
			c-0.3-0.4-0.4-1-0.4-1.8v-4.3h-0.9v-1.1h0.9v-1.7h0.9v1.7h1.5v1.1H206v4.2c0,0.4,0.1,0.7,0.2,0.9c0.1,0.2,0.3,0.3,0.6,0.3
			c0.3,0,0.6-0.1,0.7-0.4L207.8,286.8z"/>
		<path class="st15" d="M208.9,277.8c-0.1-0.2-0.2-0.4-0.2-0.6s0.1-0.5,0.2-0.6c0.1-0.1,0.3-0.3,0.5-0.3c0.2,0,0.3,0.1,0.5,0.2
			c0.1,0.2,0.2,0.4,0.2,0.6c0,0.3-0.1,0.5-0.2,0.6c-0.1,0.2-0.3,0.3-0.5,0.3C209.2,278,209.1,278,208.9,277.8z M208.9,279.6h0.9v7.7
			h-0.9V279.6z"/>
		<path class="st15" d="M219.7,280.3c0.3,0.5,0.6,1.4,0.6,2.5v4.5h-0.9V283c0-0.7-0.1-1.4-0.3-1.7c-0.2-0.4-0.6-0.5-1-0.5
			c-0.5,0-0.8,0.2-1.1,0.6c-0.3,0.4-0.4,1-0.4,1.9v3.9h-0.9V283c0-0.7-0.1-1.4-0.3-1.7c-0.2-0.4-0.6-0.5-1-0.5
			c-0.5,0-0.8,0.2-1.1,0.6c-0.3,0.4-0.4,1-0.4,1.9v3.9h-1v-7.7h0.9v1.1c0.2-0.4,0.4-0.7,0.8-0.9c0.3-0.2,0.6-0.3,1-0.3
			c0.4,0,0.8,0.1,1,0.3s0.6,0.6,0.7,1c0.2-0.4,0.5-0.8,0.8-1s0.8-0.4,1.2-0.4C218.8,279.5,219.3,279.8,219.7,280.3z"/>
		<path class="st15" d="M226.6,283.8h-4.2c0.1,0.7,0.3,1.2,0.6,1.7c0.3,0.4,0.8,0.6,1.3,0.6c0.6,0,1.1-0.3,1.5-0.9l0.5,0.9
			c-0.2,0.4-0.6,0.7-0.9,0.9c-0.3,0.2-0.8,0.3-1.2,0.3c-0.6,0-1-0.2-1.5-0.5c-0.4-0.3-0.8-0.8-1-1.5c-0.2-0.6-0.3-1.2-0.3-2.1
			c0-0.7,0.1-1.5,0.3-2c0.2-0.6,0.6-1,0.9-1.5c0.4-0.3,0.8-0.5,1.3-0.5s0.9,0.2,1.3,0.5s0.7,0.8,0.9,1.5c0.2,0.6,0.3,1.2,0.3,2.1
			C226.7,283.5,226.6,283.7,226.6,283.8z M223,281.2c-0.3,0.4-0.5,0.9-0.6,1.6h3.3c-0.1-0.6-0.2-1.1-0.6-1.6
			c-0.3-0.4-0.7-0.6-1.1-0.6S223.3,280.8,223,281.2z"/>
		<path class="st15" d="M231.7,286.1v1.1h-4.3v-0.9l3.1-5.6h-3v-1.1h4.2v0.9l-3.1,5.6H231.7z"/>
		<path class="st15" d="M240.3,279.6l-2.2,7.7h-1l-2.2-7.7h1l1.7,6.1l1.8-6.1H240.3z"/>
		<path class="st15" d="M241.8,286.8c-0.4-0.3-0.7-0.8-1-1.5c-0.2-0.6-0.3-1.2-0.3-2.1s0.1-1.5,0.3-2.1c0.2-0.6,0.6-1,1-1.4
			c0.4-0.3,0.9-0.5,1.4-0.5c0.5,0,1,0.2,1.4,0.5c0.4,0.3,0.7,0.8,1,1.4c0.2,0.6,0.3,1.2,0.3,2.1s-0.1,1.5-0.3,2.1
			c-0.2,0.6-0.6,1-1,1.5c-0.4,0.3-0.8,0.5-1.4,0.5C242.7,287.4,242.2,287.2,241.8,286.8z M244.1,285.8c0.3-0.2,0.5-0.5,0.6-0.9
			s0.2-0.9,0.2-1.5c0-0.5-0.1-1-0.2-1.5c-0.1-0.4-0.3-0.7-0.6-0.9c-0.3-0.2-0.6-0.3-0.9-0.3c-0.3,0-0.6,0.1-0.9,0.3
			s-0.5,0.5-0.6,0.9c-0.1,0.4-0.2,0.9-0.2,1.5c0,0.5,0.1,1,0.2,1.5s0.3,0.7,0.6,0.9c0.3,0.2,0.6,0.3,0.9,0.3
			C243.5,286.1,243.8,286,244.1,285.8z"/>
		<path class="st15" d="M250.1,286.8c-0.1,0.2-0.3,0.3-0.5,0.4c-0.2,0.1-0.4,0.1-0.6,0.1c-0.5,0-0.9-0.2-1.2-0.6s-0.4-1-0.4-1.8
			v-4.3h-0.9v-1.1h0.9v-1.7h0.9v1.7h1.5v1.1h-1.5v4.2c0,0.4,0.1,0.7,0.2,0.9c0.1,0.2,0.3,0.3,0.6,0.3s0.6-0.1,0.7-0.4L250.1,286.8z"
			/>
		<path class="st15" d="M252.8,279.8c0.3-0.2,0.7-0.3,1.2-0.3v1.4c-0.1,0-0.1,0-0.2,0c-0.5,0-0.9,0.2-1.2,0.7
			c-0.3,0.4-0.4,1.1-0.4,2v3.8h-0.9v-7.7h0.9v1.2C252.3,280.4,252.5,280.1,252.8,279.8z"/>
		<path class="st15" d="M259.8,283.8h-4.2c0.1,0.7,0.3,1.2,0.6,1.7c0.3,0.4,0.8,0.6,1.3,0.6c0.6,0,1.1-0.3,1.5-0.9l0.5,0.9
			c-0.2,0.4-0.6,0.7-0.9,0.9c-0.3,0.2-0.8,0.3-1.2,0.3c-0.6,0-1-0.2-1.5-0.5c-0.4-0.3-0.8-0.8-1-1.5c-0.2-0.6-0.3-1.2-0.3-2.1
			c0-0.7,0.1-1.5,0.3-2c0.2-0.6,0.6-1,0.9-1.5c0.4-0.3,0.8-0.5,1.3-0.5c0.5,0,0.9,0.2,1.3,0.5c0.4,0.3,0.7,0.8,0.9,1.5
			c0.2,0.6,0.3,1.2,0.3,2.1C259.8,283.5,259.8,283.7,259.8,283.8z M256.1,281.2c-0.3,0.4-0.5,0.9-0.6,1.6h3.3
			c-0.1-0.6-0.2-1.1-0.6-1.6c-0.3-0.4-0.7-0.6-1.1-0.6C256.8,280.6,256.4,280.8,256.1,281.2z"/>
		<path class="st15" d="M266.6,286.8c-0.1,0.2-0.3,0.3-0.5,0.4c-0.2,0.1-0.4,0.1-0.6,0.1c-0.5,0-0.9-0.2-1.2-0.6
			c-0.3-0.4-0.4-1-0.4-1.8v-4.3H263v-1.1h0.9v-1.7h0.9v1.7h1.5v1.1h-1.5v4.2c0,0.4,0.1,0.7,0.2,0.9c0.1,0.2,0.3,0.3,0.6,0.3
			s0.6-0.1,0.7-0.4L266.6,286.8z"/>
		<path class="st15" d="M271.3,280.3c0.3,0.5,0.6,1.4,0.6,2.4v4.7h-0.9v-1c-0.1,0.3-0.3,0.6-0.7,0.8c-0.3,0.2-0.6,0.3-1,0.3
			c-0.6,0-1-0.2-1.4-0.6c-0.3-0.4-0.5-0.9-0.5-1.7s0.1-1.2,0.5-1.7s0.8-0.6,1.6-0.6h1.5v-0.3c0-0.6-0.1-1-0.3-1.4
			c-0.2-0.3-0.6-0.5-1-0.5c-0.3,0-0.6,0.1-0.9,0.2s-0.6,0.3-0.8,0.6l-0.4-1c0.3-0.3,0.6-0.5,1-0.7c0.3-0.2,0.8-0.2,1.2-0.2
			C270.3,279.5,270.9,279.8,271.3,280.3z M270.3,285.9c0.3-0.2,0.4-0.6,0.6-1v-1h-1.5c-0.8,0-1.2,0.4-1.2,1.1c0,0.4,0.1,0.7,0.3,0.9
			c0.2,0.2,0.5,0.3,0.8,0.3C269.7,286.2,270.1,286.1,270.3,285.9z"/>
		<path class="st15" d="M275.2,279.8c0.3-0.2,0.7-0.3,1.2-0.3v1.4c-0.1,0-0.1,0-0.2,0c-0.5,0-0.9,0.2-1.2,0.7
			c-0.3,0.4-0.4,1.1-0.4,2v3.8h-0.9v-7.7h0.9v1.2C274.6,280.4,274.9,280.1,275.2,279.8z"/>
		<path class="st15" d="M277.5,277.8c-0.1-0.2-0.2-0.4-0.2-0.6s0.1-0.5,0.2-0.6c0.1-0.1,0.3-0.3,0.5-0.3c0.2,0,0.3,0.1,0.5,0.2
			c0.1,0.2,0.2,0.4,0.2,0.6c0,0.3-0.1,0.5-0.2,0.6c-0.1,0.2-0.3,0.3-0.5,0.3C277.8,278.1,277.6,278,277.5,277.8z M277.5,279.6h0.9
			v7.7h-0.9V279.6z"/>
		<path class="st15" d="M281.3,278.8v0.6h1.5v1.1h-1.5v6.5h-0.9v-6.5h-0.9v-1.1h0.9v-0.7c0-0.7,0.1-1.4,0.4-1.9
			c0.3-0.4,0.7-0.6,1.3-0.6c0.2,0,0.4,0,0.6,0.1c0.2,0.1,0.3,0.2,0.5,0.3l-0.3,1c-0.2-0.2-0.5-0.4-0.7-0.4
			C281.6,277.5,281.3,278,281.3,278.8z"/>
		<path class="st15" d="M286.6,287c-0.4-0.2-0.7-0.4-0.9-0.6l0.4-1.1c0.2,0.2,0.5,0.4,0.8,0.6c0.3,0.2,0.6,0.2,1,0.2
			c0.8,0,1.3-0.3,1.3-1c0-0.2-0.1-0.4-0.1-0.5c-0.1-0.1-0.3-0.2-0.4-0.3c-0.1-0.1-0.4-0.1-0.7-0.2c-0.4-0.1-0.8-0.2-1-0.3
			c-0.3-0.1-0.5-0.3-0.7-0.6s-0.3-0.7-0.3-1.2c0-0.7,0.2-1.2,0.6-1.7c0.4-0.4,0.9-0.6,1.6-0.6c0.3,0,0.7,0.1,1,0.2
			c0.3,0.1,0.6,0.3,0.8,0.5l-0.4,1.1c-0.4-0.4-0.9-0.6-1.5-0.6c-0.4,0-0.7,0.1-0.9,0.3s-0.3,0.4-0.3,0.7c0,0.2,0.1,0.4,0.2,0.6
			c0.1,0.2,0.3,0.2,0.4,0.3s0.4,0.1,0.7,0.2c0.4,0.1,0.8,0.2,1,0.3c0.3,0.1,0.5,0.3,0.6,0.6c0.2,0.3,0.3,0.7,0.3,1.2
			c0,0.7-0.2,1.2-0.6,1.7s-1,0.6-1.6,0.6C287.4,287.4,287,287.3,286.6,287z"/>
		<path class="st15" d="M296.1,279.6v7.7h-0.9v-1.1c-0.2,0.4-0.4,0.7-0.8,0.9c-0.3,0.2-0.6,0.3-1,0.3c-0.7,0-1.3-0.3-1.6-0.8
			c-0.4-0.5-0.6-1.5-0.6-2.5v-4.5h0.9v4.3c0,0.7,0.1,1.4,0.3,1.7c0.2,0.4,0.6,0.6,1,0.6s0.9-0.2,1.2-0.6c0.3-0.4,0.4-1,0.4-1.9v-3.9
			h1V279.6z"/>
		<path class="st15" d="M299.5,279.8c0.3-0.2,0.7-0.3,1.2-0.3v1.4c-0.1,0-0.1,0-0.2,0c-0.5,0-0.9,0.2-1.2,0.7
			c-0.3,0.4-0.4,1.1-0.4,2v3.8h-0.9v-7.7h0.9v1.2C298.9,280.4,299.1,280.1,299.5,279.8z"/>
		<path class="st16" d="M126.8,297.7c0.4,0.5,0.6,1.4,0.6,2.5v4.5h-0.9v-4.3c0-0.7-0.1-1.4-0.3-1.7c-0.2-0.4-0.6-0.5-1-0.5
			c-0.5,0-0.9,0.2-1.2,0.6c-0.3,0.4-0.4,1-0.4,1.9v3.9h-0.9v-10.8h0.9v4.2c0.2-0.4,0.4-0.6,0.8-0.8s0.7-0.3,1-0.3
			C125.9,296.9,126.4,297.2,126.8,297.7z"/>
		<path class="st16" d="M132,304.3c-0.1,0.2-0.3,0.3-0.5,0.4c-0.2,0.1-0.4,0.1-0.6,0.1c-0.5,0-0.9-0.2-1.2-0.6
			c-0.3-0.4-0.4-1-0.4-1.8v-4.3h-0.9V297h0.9v-1.7h0.9v1.7h1.5v1.1h-1.5v4.2c0,0.4,0.1,0.7,0.2,0.9c0.1,0.2,0.3,0.3,0.6,0.3
			c0.3,0,0.6-0.1,0.7-0.3L132,304.3z"/>
		<path class="st16" d="M136,304.3c-0.1,0.2-0.3,0.3-0.5,0.4c-0.2,0.1-0.4,0.1-0.6,0.1c-0.5,0-0.9-0.2-1.2-0.6
			c-0.3-0.4-0.4-1-0.4-1.8v-4.3h-0.9V297h0.9v-1.7h0.9v1.7h1.5v1.1h-1.5v4.2c0,0.4,0.1,0.7,0.2,0.9c0.1,0.2,0.3,0.3,0.6,0.3
			s0.6-0.1,0.7-0.3L136,304.3z"/>
		<path class="st16" d="M141.2,297.4c0.4,0.3,0.7,0.8,0.9,1.4c0.2,0.6,0.3,1.2,0.3,2.1c0,0.7-0.1,1.5-0.3,2.1
			c-0.2,0.6-0.6,1-0.9,1.4c-0.4,0.3-0.8,0.5-1.3,0.5c-0.3,0-0.7-0.1-1-0.3c-0.3-0.2-0.6-0.5-0.8-0.9v3.9h-0.9V297h0.9v1.2
			c0.2-0.4,0.5-0.7,0.8-0.9c0.3-0.2,0.7-0.3,1-0.3C140.3,296.9,140.8,297.1,141.2,297.4z M140.6,303.3c0.3-0.2,0.5-0.5,0.6-0.9
			c0.1-0.4,0.2-0.9,0.2-1.5c0-0.5-0.1-1-0.2-1.5c-0.1-0.4-0.3-0.7-0.6-0.9c-0.3-0.2-0.6-0.3-0.9-0.3s-0.6,0.1-0.9,0.3
			c-0.3,0.2-0.5,0.5-0.6,0.9c-0.1,0.4-0.2,0.8-0.2,1.5c0,0.5,0.1,1,0.2,1.5c0.1,0.4,0.3,0.7,0.6,0.9c0.3,0.2,0.6,0.3,0.9,0.3
			C140.1,303.6,140.3,303.5,140.6,303.3z"/>
		<path class="st16" d="M143.5,298.7c-0.1-0.2-0.2-0.4-0.2-0.7c0-0.3,0.1-0.5,0.2-0.7c0.1-0.2,0.3-0.3,0.5-0.3
			c0.2,0,0.3,0.1,0.5,0.3c0.1,0.2,0.2,0.4,0.2,0.7c0,0.3-0.1,0.5-0.2,0.7c-0.1,0.2-0.3,0.3-0.5,0.3
			C143.8,298.9,143.6,298.8,143.5,298.7z M143.5,304.5c-0.1-0.2-0.2-0.4-0.2-0.7c0-0.3,0.1-0.5,0.2-0.7c0.1-0.2,0.3-0.3,0.5-0.3
			c0.2,0,0.3,0.1,0.5,0.3s0.2,0.4,0.2,0.7s-0.1,0.5-0.2,0.7s-0.3,0.3-0.5,0.3C143.8,304.8,143.6,304.7,143.5,304.5z"/>
		<path class="st16" d="M148.5,292.5h0.8l-3.2,13.7h-0.8L148.5,292.5z"/>
		<path class="st16" d="M151.2,292.5h0.8l-3.2,13.7H148L151.2,292.5z"/>
		<path class="st16" d="M152.2,304.5c-0.4-0.2-0.7-0.4-0.9-0.6l0.4-1.1c0.2,0.2,0.5,0.4,0.8,0.6c0.3,0.1,0.6,0.2,1,0.2
			c0.8,0,1.3-0.3,1.3-1c0-0.2-0.1-0.4-0.1-0.5c-0.1-0.1-0.3-0.2-0.4-0.3c-0.1-0.1-0.4-0.1-0.7-0.2c-0.4-0.1-0.8-0.2-1-0.3
			c-0.3-0.1-0.5-0.3-0.7-0.6c-0.2-0.3-0.3-0.7-0.3-1.2c0-0.7,0.2-1.2,0.6-1.7c0.4-0.4,0.9-0.6,1.6-0.6c0.3,0,0.7,0.1,1,0.2
			s0.6,0.3,0.8,0.5l-0.4,1.1c-0.4-0.4-0.9-0.6-1.5-0.6c-0.4,0-0.7,0.1-0.9,0.3c-0.2,0.2-0.3,0.4-0.3,0.7c0,0.2,0.1,0.4,0.2,0.6
			c0.1,0.1,0.3,0.2,0.4,0.3s0.4,0.1,0.7,0.2c0.4,0.1,0.8,0.2,1,0.3c0.3,0.1,0.5,0.3,0.6,0.6c0.2,0.3,0.3,0.7,0.3,1.2
			c0,0.7-0.2,1.2-0.6,1.7s-1,0.6-1.6,0.6C153,304.8,152.6,304.7,152.2,304.5z"/>
		<path class="st16" d="M164.9,297.7c0.3,0.5,0.6,1.4,0.6,2.5v4.5h-0.9v-4.3c0-0.7-0.1-1.4-0.3-1.7c-0.2-0.4-0.6-0.5-1-0.5
			c-0.5,0-0.8,0.2-1.1,0.6s-0.4,1-0.4,1.9v3.9h-1v-4.3c0-0.7-0.1-1.4-0.3-1.7c-0.2-0.4-0.6-0.5-1-0.5c-0.5,0-0.8,0.2-1.1,0.6
			c-0.3,0.4-0.4,1-0.4,1.9v3.9H157V297h0.9v1.1c0.2-0.4,0.4-0.7,0.8-0.9c0.3-0.2,0.6-0.3,1-0.3s0.8,0.1,1,0.3c0.3,0.2,0.6,0.6,0.7,1
			c0.2-0.4,0.5-0.8,0.8-1c0.3-0.2,0.8-0.4,1.2-0.4C164,296.9,164.5,297.2,164.9,297.7z"/>
		<path class="st16" d="M166.9,304.5c-0.1-0.2-0.2-0.4-0.2-0.7c0-0.3,0.1-0.5,0.2-0.7c0.1-0.2,0.3-0.3,0.5-0.3
			c0.2,0,0.3,0.1,0.5,0.3s0.2,0.4,0.2,0.7s-0.1,0.5-0.2,0.7c-0.1,0.2-0.3,0.3-0.5,0.3S167.1,304.7,166.9,304.5z"/>
		<path class="st16" d="M169.6,304.5c-0.4-0.2-0.7-0.4-0.9-0.6l0.4-1.1c0.2,0.2,0.5,0.4,0.8,0.6c0.3,0.1,0.6,0.2,1,0.2
			c0.8,0,1.3-0.3,1.3-1c0-0.2-0.1-0.4-0.1-0.5c-0.1-0.1-0.3-0.2-0.4-0.3c-0.1-0.1-0.4-0.1-0.7-0.2c-0.4-0.1-0.8-0.2-1-0.3
			c-0.3-0.1-0.5-0.3-0.7-0.6c-0.2-0.3-0.3-0.7-0.3-1.2c0-0.7,0.2-1.2,0.6-1.7c0.4-0.4,0.9-0.6,1.6-0.6c0.3,0,0.7,0.1,1,0.2
			c0.3,0.1,0.6,0.3,0.8,0.5l-0.4,1.1c-0.4-0.4-0.9-0.6-1.5-0.6c-0.4,0-0.7,0.1-0.9,0.3c-0.2,0.2-0.3,0.4-0.3,0.7
			c0,0.2,0.1,0.4,0.2,0.6c0.1,0.1,0.3,0.2,0.4,0.3s0.4,0.1,0.7,0.2c0.4,0.1,0.8,0.2,1,0.3c0.3,0.1,0.5,0.3,0.6,0.6
			c0.2,0.3,0.3,0.7,0.3,1.2c0,0.7-0.2,1.2-0.6,1.7c-0.4,0.4-1,0.6-1.6,0.6C170.5,304.8,170.1,304.7,169.6,304.5z"/>
		<path class="st16" d="M179.3,297v6.6c0,1.4-0.2,2.4-0.7,3c-0.4,0.6-1.1,0.9-2,0.9c-0.5,0-1-0.1-1.4-0.3c-0.4-0.2-0.8-0.5-1-0.8
			l0.4-1c0.2,0.3,0.6,0.5,0.9,0.7c0.3,0.2,0.7,0.3,1.1,0.3c0.6,0,1-0.2,1.3-0.6c0.3-0.4,0.4-1,0.4-2v-0.6c-0.2,0.4-0.5,0.7-0.8,0.9
			c-0.3,0.2-0.7,0.3-1,0.3c-0.5,0-1-0.2-1.3-0.5c-0.4-0.3-0.7-0.7-1-1.4c-0.2-0.5-0.3-1.2-0.3-2c0-0.7,0.1-1.4,0.3-2
			c0.2-0.5,0.6-1,1-1.4s0.8-0.4,1.3-0.4c0.4,0,0.8,0.1,1.1,0.3c0.3,0.2,0.6,0.5,0.8,0.9V297H179.3z M177.5,302.8
			c0.3-0.2,0.5-0.5,0.6-0.9c0.1-0.4,0.2-0.8,0.2-1.4c0-0.7-0.1-1.4-0.5-1.8c-0.3-0.4-0.8-0.7-1.3-0.7c-0.6,0-1,0.2-1.3,0.7
			c-0.3,0.5-0.5,1-0.5,1.8c0,0.5,0.1,0.9,0.2,1.4s0.3,0.7,0.6,0.9c0.3,0.2,0.6,0.3,0.9,0.3S177.2,303,177.5,302.8z"/>
		<path class="st16" d="M183.1,292.5h0.8l-3.2,13.7h-0.8L183.1,292.5z"/>
		<path class="st16" d="M188.8,297v6.6c0,1.4-0.2,2.4-0.7,3c-0.4,0.6-1.1,0.9-2,0.9c-0.5,0-1-0.1-1.4-0.3c-0.4-0.2-0.8-0.5-1-0.8
			l0.4-1c0.2,0.3,0.6,0.5,0.9,0.7c0.3,0.2,0.7,0.3,1.1,0.3c0.6,0,1-0.2,1.3-0.6c0.3-0.4,0.4-1,0.4-2v-0.6c-0.2,0.4-0.5,0.7-0.8,0.9
			s-0.7,0.3-1,0.3c-0.5,0-1-0.2-1.3-0.5c-0.4-0.3-0.7-0.7-1-1.4c-0.2-0.5-0.3-1.2-0.3-2c0-0.7,0.1-1.4,0.3-2c0.2-0.5,0.6-1,1-1.4
			c0.4-0.3,0.8-0.4,1.3-0.4c0.4,0,0.8,0.1,1.1,0.3c0.3,0.2,0.6,0.5,0.8,0.9V297H188.8z M187,302.8c0.3-0.2,0.5-0.5,0.6-0.9
			s0.2-0.8,0.2-1.4c0-0.7-0.1-1.4-0.5-1.8c-0.3-0.4-0.8-0.7-1.3-0.7c-0.6,0-1,0.2-1.3,0.7c-0.3,0.5-0.5,1-0.5,1.8
			c0,0.5,0.1,0.9,0.2,1.4s0.3,0.7,0.6,0.9c0.3,0.2,0.6,0.3,0.9,0.3C186.4,303.1,186.7,303,187,302.8z"/>
		<path class="st16" d="M197.1,304.7v-7.4l-2.4,6.2h-0.4l-2.4-6.1v7.4h-1v-10.2h0.8l2.9,7.2l2.8-7.2h0.8v10.2h-0.8V304.7z"/>
		<path class="st16" d="M203.2,304.7l-1.5-2.9l-1.5,2.9h-1l2-3.9l-2-3.7h1l1.4,2.8l1.4-2.8h1l-2,3.7l2.1,3.9H203.2z"/>
		<path class="st16" d="M206.6,304.2c-0.6-0.4-1-1-1.3-1.9c-0.3-0.8-0.5-1.7-0.5-2.7c0-1,0.1-1.9,0.5-2.7c0.3-0.8,0.8-1.5,1.3-1.9
			c0.6-0.4,1.2-0.7,1.9-0.7c0.6,0,1,0.1,1.5,0.4c0.4,0.3,0.8,0.6,1.1,1.1l-0.6,0.9c-0.5-0.8-1.2-1.2-2-1.2c-0.5,0-1,0.2-1.4,0.5
			c-0.4,0.3-0.7,0.8-1,1.4c-0.2,0.6-0.3,1.2-0.3,2s0.1,1.5,0.3,2c0.2,0.6,0.6,1,1,1.5c0.4,0.3,0.8,0.5,1.4,0.5c0.8,0,1.4-0.4,2-1.2
			l0.6,0.9c-0.3,0.5-0.7,0.9-1.1,1.1s-0.9,0.4-1.5,0.4C207.7,304.8,207.1,304.6,206.6,304.2z"/>
		<path class="st15" d="M215.2,304.5c-0.2-1.1-0.3-2.4-0.3-3.7s0.1-2.6,0.3-3.7c0.2-1.1,0.5-2.2,0.8-3h0.9c-0.4,1-0.7,2.1-0.8,3.2
			c-0.2,1.1-0.3,2.3-0.3,3.6c0,1.2,0.1,2.5,0.3,3.6s0.5,2.2,0.8,3.2H216C215.7,306.7,215.4,305.6,215.2,304.5z"/>
		<path class="st15" d="M218.8,304.5c-0.5-0.2-0.8-0.5-1.1-0.9l0.3-1.1c0.3,0.3,0.6,0.6,1,0.8s0.8,0.3,1.3,0.3c0.6,0,1-0.1,1.3-0.4
			c0.3-0.3,0.4-0.6,0.4-1.1c0-0.3-0.1-0.6-0.2-0.8c-0.1-0.2-0.3-0.4-0.6-0.5s-0.6-0.2-1-0.4c-0.5-0.2-0.9-0.4-1.3-0.5
			c-0.3-0.2-0.6-0.4-0.8-0.8c-0.2-0.4-0.3-0.9-0.3-1.6c0-0.5,0.1-1,0.3-1.5c0.2-0.4,0.5-0.8,0.9-1c0.4-0.2,0.9-0.4,1.5-0.4
			c0.4,0,0.8,0.1,1.2,0.2c0.4,0.1,0.7,0.4,1,0.6l-0.3,1.1c-0.3-0.3-0.6-0.5-0.9-0.6s-0.6-0.2-1-0.2c-0.6,0-1,0.1-1.3,0.4
			c-0.3,0.3-0.4,0.7-0.4,1.1c0,0.3,0.1,0.6,0.2,0.8c0.1,0.2,0.3,0.4,0.6,0.5c0.2,0.1,0.6,0.2,1,0.4c0.5,0.2,0.9,0.4,1.3,0.5
			c0.3,0.2,0.6,0.4,0.8,0.8c0.2,0.4,0.3,0.9,0.3,1.6c0,0.5-0.1,1-0.3,1.5c-0.2,0.4-0.5,0.8-0.9,1s-0.9,0.4-1.5,0.4
			C219.8,304.8,219.3,304.7,218.8,304.5z"/>
		<path class="st15" d="M225.7,295.8h-2.4v-1.2h5.7v1.2h-2.4v8.9h-1L225.7,295.8L225.7,295.8z"/>
		<path class="st15" d="M231.2,304.2c-0.6-0.4-1-1-1.3-1.9c-0.3-0.8-0.5-1.7-0.5-2.7c0-1,0.1-1.9,0.5-2.7s0.8-1.5,1.3-1.9
			s1.2-0.7,1.9-0.7c0.7,0,1.3,0.2,1.9,0.7c0.6,0.4,1,1,1.3,1.9c0.3,0.8,0.5,1.7,0.5,2.7c0,1-0.1,1.9-0.5,2.7
			c-0.3,0.8-0.8,1.5-1.3,1.9c-0.6,0.4-1.2,0.7-1.9,0.7C232.3,304.8,231.7,304.6,231.2,304.2z M234.4,303c0.4-0.3,0.7-0.8,1-1.5
			c0.2-0.6,0.3-1.2,0.3-2s-0.1-1.5-0.3-2c-0.2-0.6-0.6-1-1-1.4c-0.4-0.3-0.8-0.5-1.3-0.5s-1,0.2-1.4,0.5c-0.4,0.3-0.7,0.8-1,1.4
			c-0.2,0.6-0.3,1.2-0.3,2s0.1,1.5,0.3,2c0.2,0.6,0.6,1,1,1.5c0.4,0.3,0.8,0.5,1.4,0.5C233.6,303.6,234,303.4,234.4,303z"/>
		<path class="st15" d="M242.9,295.5c0.5,0.6,0.8,1.5,0.8,2.6s-0.3,2-0.8,2.6c-0.5,0.6-1.2,0.9-2.1,0.9h-1.7v3.1h-1v-10.2h2.7
			C241.7,294.5,242.4,294.8,242.9,295.5z M242.2,299.7c0.3-0.4,0.5-0.9,0.5-1.7c0-0.7-0.1-1.4-0.5-1.7s-0.8-0.6-1.4-0.6h-1.7v4.6
			h1.7C241.4,300.3,241.9,300.1,242.2,299.7z"/>
		<path class="st15" d="M251.2,297.7c0.3,0.5,0.6,1.4,0.6,2.4v4.7h-0.9v-1c-0.1,0.3-0.3,0.6-0.7,0.8s-0.6,0.3-1,0.3
			c-0.6,0-1-0.2-1.4-0.6s-0.5-0.9-0.5-1.7c0-0.7,0.1-1.2,0.5-1.7c0.3-0.4,0.8-0.6,1.6-0.6h1.5V300c0-0.6-0.1-1-0.3-1.4
			c-0.2-0.3-0.6-0.5-1-0.5c-0.3,0-0.6,0.1-0.9,0.2c-0.3,0.1-0.6,0.3-0.8,0.6l-0.4-1c0.3-0.3,0.6-0.5,1-0.7c0.3-0.2,0.8-0.2,1.2-0.2
			C250.3,296.9,250.9,297.2,251.2,297.7z M250.3,303.4c0.3-0.2,0.4-0.6,0.6-1v-1h-1.5c-0.8,0-1.2,0.4-1.2,1.1c0,0.4,0.1,0.7,0.3,0.9
			c0.2,0.2,0.5,0.3,0.8,0.3S250,303.6,250.3,303.4z"/>
		<path class="st15" d="M258.3,297v7.7h-0.9v-1.1c-0.2,0.4-0.4,0.7-0.8,0.9c-0.3,0.2-0.6,0.3-1,0.3c-0.7,0-1.3-0.3-1.6-0.8
			c-0.4-0.5-0.6-1.5-0.6-2.5V297h0.9v4.3c0,0.7,0.1,1.4,0.3,1.7c0.2,0.4,0.6,0.6,1,0.6c0.5,0,0.9-0.2,1.2-0.6s0.4-1,0.4-1.9v-3.9h1
			V297z"/>
		<path class="st16" d="M266.5,299.7c0.3,0.5,0.6,1.1,0.6,2c0,0.6-0.1,1.1-0.3,1.6c-0.2,0.5-0.5,0.8-0.9,1.1
			c-0.4,0.3-0.8,0.4-1.4,0.4c-0.5,0-1-0.1-1.4-0.3c-0.4-0.2-0.8-0.5-1.1-0.9l0.4-1.1c0.2,0.3,0.6,0.6,0.9,0.8
			c0.3,0.2,0.8,0.3,1.2,0.3c0.5,0,0.9-0.2,1.2-0.5c0.3-0.3,0.4-0.7,0.4-1.4c0-0.5-0.1-1-0.4-1.4c-0.3-0.3-0.7-0.4-1.3-0.4h-0.6v-1
			l1.7-3.1h-3.3v-1.2h4.5v1l-1.8,3.3C265.6,298.9,266.1,299.2,266.5,299.7z"/>
		<path class="st16" d="M272.1,298.9c0.3,0.2,0.6,0.6,0.8,1c0.2,0.5,0.3,1,0.3,1.7c0,0.6-0.1,1.2-0.3,1.7c-0.2,0.5-0.5,0.8-0.8,1.1
			c-0.3,0.3-0.8,0.4-1.3,0.4c-0.9,0-1.6-0.4-2.1-1.4c-0.5-0.8-0.8-2.2-0.8-3.7c0-1.1,0.1-2.1,0.4-2.9s0.6-1.5,1.1-1.9s1-0.6,1.7-0.6
			c0.3,0,0.6,0,0.9,0.1s0.6,0.2,0.8,0.4l-0.3,1.1c-0.3-0.3-0.8-0.5-1.3-0.5c-0.7,0-1.3,0.3-1.7,0.9c-0.4,0.6-0.6,1.6-0.6,2.9
			c0,0.1,0,0.3,0,0.4c0.2-0.4,0.5-0.7,0.8-1c0.3-0.2,0.7-0.3,1.2-0.3C271.3,298.5,271.7,298.7,272.1,298.9z M271.9,303.1
			c0.3-0.3,0.4-0.8,0.4-1.5s-0.1-1-0.4-1.5c-0.3-0.4-0.7-0.5-1.1-0.5c-0.3,0-0.6,0.1-0.8,0.3c-0.2,0.2-0.4,0.4-0.6,0.7
			c-0.1,0.3-0.2,0.6-0.2,1c0,0.3,0.1,0.7,0.2,0.9c0.1,0.3,0.3,0.5,0.6,0.7c0.2,0.2,0.6,0.3,0.9,0.3
			C271.2,303.7,271.6,303.5,271.9,303.1z"/>
		<path class="st16" d="M276,294.5v10.2h-1v-8.9h-1.5v-1.2L276,294.5L276,294.5z"/>
		<path class="st16" d="M282.4,303.5v1.2h-4.9v-1l2.8-3.9c0.3-0.5,0.6-0.9,0.7-1.2c0.1-0.3,0.2-0.7,0.2-1c0-0.5-0.1-0.9-0.3-1.2
			s-0.6-0.4-1-0.4c-0.8,0-1.3,0.4-1.7,1.1l-0.7-0.8c0.3-0.5,0.6-0.8,1-1.1c0.4-0.3,0.9-0.4,1.5-0.4c0.7,0,1.3,0.2,1.7,0.7
			c0.4,0.5,0.6,1.2,0.6,2.1c0,0.5-0.1,1-0.2,1.6c-0.1,0.5-0.4,1-0.9,1.7l-2.1,3h3.3V303.5z"/>
		<path class="st16" d="M287.3,299.7c0.3,0.5,0.6,1.1,0.6,2c0,0.6-0.1,1.1-0.3,1.6c-0.2,0.4-0.5,0.8-0.9,1.1
			c-0.4,0.3-0.8,0.4-1.4,0.4c-0.5,0-1-0.1-1.4-0.3c-0.4-0.2-0.8-0.5-1.1-0.9l0.4-1.1c0.2,0.3,0.6,0.6,0.9,0.8
			c0.3,0.2,0.8,0.3,1.2,0.3c0.5,0,0.9-0.2,1.2-0.5s0.4-0.7,0.4-1.4c0-0.5-0.1-1-0.4-1.4c-0.3-0.3-0.7-0.4-1.3-0.4h-0.6v-1l1.7-3.1
			h-3.3v-1.2h4.5v1l-1.8,3.3C286.4,298.9,287,299.2,287.3,299.7z"/>
		<path class="st15" d="M288.6,307.5c0.4-1,0.7-2.1,0.8-3.2c0.2-1.1,0.3-2.3,0.3-3.6c0-1.2-0.1-2.5-0.3-3.6
			c-0.2-1.1-0.5-2.2-0.8-3.2h0.9c0.3,0.8,0.7,1.9,0.8,3c0.2,1.1,0.3,2.4,0.3,3.7c0,1.4-0.1,2.6-0.3,3.7s-0.5,2.2-0.8,3.1h-0.9V307.5
			z"/>
	</g>
</g>
<g>
	<path class="st17" d="M125.8,253.2c0.4,0.5,0.6,1.1,0.6,1.8c0,1-0.4,1.7-1.1,2.2s-1.8,0.8-3.2,0.8h-5.3v-11.2h5
		c1.3,0,2.3,0.3,3,0.8c0.7,0.5,1,1.2,1,2.1c0,0.6-0.1,1.1-0.4,1.5s-0.6,0.8-1.1,1C124.9,252.4,125.4,252.7,125.8,253.2z
		 M118.3,248.1v3.6h3.3c0.8,0,1.5-0.2,1.9-0.5c0.4-0.3,0.7-0.7,0.7-1.3s-0.2-1-0.7-1.3c-0.4-0.3-1.1-0.5-1.9-0.5H118.3z M124,256.3
		c0.5-0.3,0.7-0.8,0.7-1.4c0-1.2-0.9-1.9-2.7-1.9h-3.7v3.7h3.7C122.9,256.7,123.6,256.6,124,256.3z"/>
	<path class="st17" d="M130,257.5c-0.7-0.4-1.2-0.9-1.6-1.5c-0.4-0.7-0.6-1.4-0.6-2.2s0.2-1.6,0.6-2.2c0.4-0.7,0.9-1.2,1.6-1.5
		c0.7-0.4,1.4-0.6,2.3-0.6s1.6,0.2,2.3,0.6c0.7,0.4,1.2,0.9,1.6,1.5c0.4,0.7,0.6,1.4,0.6,2.2s-0.2,1.6-0.6,2.2
		c-0.4,0.7-0.9,1.2-1.6,1.5c-0.7,0.4-1.4,0.6-2.3,0.6S130.6,257.9,130,257.5z M133.7,256.4c0.4-0.3,0.8-0.6,1-1.1
		c0.2-0.5,0.4-1,0.4-1.6s-0.1-1.1-0.4-1.6c-0.2-0.5-0.6-0.8-1-1c-0.4-0.2-0.9-0.4-1.5-0.4s-1,0.1-1.5,0.4c-0.4,0.2-0.8,0.6-1,1
		c-0.3,0.5-0.4,1-0.4,1.6s0.1,1.1,0.4,1.6c0.3,0.5,0.6,0.8,1,1.1s0.9,0.4,1.5,0.4S133.3,256.6,133.7,256.4z"/>
	<path class="st17" d="M145.8,250.4c0.6,0.6,1,1.5,1,2.7v4.9h-1.5v-4.7c0-0.8-0.2-1.4-0.6-1.9s-1-0.6-1.7-0.6c-0.8,0-1.5,0.2-2,0.7
		s-0.7,1.2-0.7,2.1v4.4h-1.5v-8.5h1.5v1.3c0.3-0.4,0.7-0.8,1.3-1c0.5-0.2,1.1-0.4,1.8-0.4C144.4,249.4,145.2,249.8,145.8,250.4z"/>
	<path class="st17" d="M147.5,261.1c-0.3-0.1-0.6-0.2-0.8-0.4l0.5-1.2c0.3,0.3,0.7,0.4,1.2,0.4c0.4,0,0.7-0.1,0.9-0.4
		c0.2-0.3,0.3-0.6,0.3-1.1v-8.9h1.5v8.9c0,0.9-0.2,1.6-0.7,2.1c-0.5,0.5-1.1,0.8-2,0.8C148.2,261.2,147.8,261.2,147.5,261.1z
		 M149.8,247.6c-0.2-0.2-0.3-0.4-0.3-0.7s0.1-0.5,0.3-0.7c0.2-0.2,0.4-0.3,0.7-0.3c0.3,0,0.5,0.1,0.7,0.3s0.3,0.4,0.3,0.7
		c0,0.3-0.1,0.5-0.3,0.7s-0.4,0.3-0.7,0.3C150.2,247.9,149.9,247.8,149.8,247.6z"/>
	<path class="st17" d="M155.6,257.5c-0.7-0.4-1.2-0.9-1.6-1.5c-0.4-0.7-0.6-1.4-0.6-2.2s0.2-1.6,0.6-2.2c0.4-0.7,0.9-1.2,1.6-1.5
		c0.7-0.4,1.4-0.6,2.3-0.6s1.6,0.2,2.3,0.6c0.7,0.4,1.2,0.9,1.6,1.5c0.4,0.7,0.6,1.4,0.6,2.2s-0.2,1.6-0.6,2.2
		c-0.4,0.7-0.9,1.2-1.6,1.5c-0.7,0.4-1.4,0.6-2.3,0.6S156.2,257.9,155.6,257.5z M159.3,256.4c0.4-0.3,0.8-0.6,1-1.1
		c0.2-0.5,0.4-1,0.4-1.6s-0.1-1.1-0.4-1.6c-0.2-0.5-0.6-0.8-1-1c-0.4-0.2-0.9-0.4-1.5-0.4s-1,0.1-1.5,0.4c-0.4,0.2-0.8,0.6-1,1
		c-0.3,0.5-0.4,1-0.4,1.6s0.1,1.1,0.4,1.6c0.3,0.5,0.6,0.8,1,1.1s0.9,0.4,1.5,0.4S158.9,256.6,159.3,256.4z"/>
	<path class="st17" d="M172.3,249.5v8.5h-1.5v-1.3c-0.3,0.4-0.7,0.8-1.2,1c-0.5,0.2-1.1,0.4-1.7,0.4c-1.1,0-2-0.3-2.7-0.9
		c-0.7-0.6-1-1.5-1-2.8v-4.9h1.5v4.7c0,0.8,0.2,1.4,0.6,1.9s1,0.6,1.7,0.6c0.8,0,1.5-0.2,1.9-0.7c0.5-0.5,0.7-1.2,0.7-2.1v-4.4
		H172.3z"/>
	<path class="st17" d="M177.8,249.8c0.5-0.3,1.2-0.4,1.9-0.4v1.5c-0.1,0-0.2,0-0.4,0c-0.8,0-1.5,0.2-2,0.7c-0.5,0.5-0.7,1.2-0.7,2.1
		v4.2h-1.5v-8.5h1.5v1.4C176.9,250.5,177.3,250.1,177.8,249.8z"/>
	<path class="st17" d="M181.2,257.8c-0.2-0.2-0.3-0.5-0.3-0.8c0-0.3,0.1-0.6,0.3-0.8c0.2-0.2,0.5-0.3,0.8-0.3c0.3,0,0.5,0.1,0.8,0.3
		c0.2,0.2,0.3,0.5,0.3,0.8c0,0.3-0.1,0.6-0.3,0.8s-0.5,0.3-0.7,0.3C181.7,258.1,181.4,258,181.2,257.8z"/>
	<path class="st17" d="M199.5,246.8l-4.9,11.2H193l-4.9-11.2h1.7l4,9.2l4.1-9.2H199.5z"/>
	<path class="st17" d="M201.4,257.5c-0.7-0.4-1.2-0.9-1.6-1.5c-0.4-0.7-0.6-1.4-0.6-2.2s0.2-1.6,0.6-2.2c0.4-0.7,0.9-1.2,1.6-1.5
		c0.7-0.4,1.4-0.6,2.3-0.6s1.6,0.2,2.3,0.6c0.7,0.4,1.2,0.9,1.6,1.5c0.4,0.7,0.6,1.4,0.6,2.2s-0.2,1.6-0.6,2.2
		c-0.4,0.7-0.9,1.2-1.6,1.5c-0.7,0.4-1.4,0.6-2.3,0.6S202.1,257.9,201.4,257.5z M205.1,256.4c0.4-0.3,0.8-0.6,1-1.1
		c0.2-0.5,0.4-1,0.4-1.6s-0.1-1.1-0.4-1.6c-0.2-0.5-0.6-0.8-1-1c-0.4-0.2-0.9-0.4-1.5-0.4s-1,0.1-1.5,0.4c-0.4,0.2-0.8,0.6-1,1
		c-0.3,0.5-0.4,1-0.4,1.6s0.1,1.1,0.4,1.6c0.3,0.5,0.6,0.8,1,1.1s0.9,0.4,1.5,0.4S204.7,256.6,205.1,256.4z"/>
	<path class="st17" d="M215,257.5c-0.2,0.2-0.5,0.3-0.8,0.4c-0.3,0.1-0.7,0.2-1,0.2c-0.9,0-1.5-0.2-2-0.7c-0.5-0.5-0.7-1.1-0.7-2
		v-4.7H209v-1.3h1.4v-1.9h1.5v1.9h2.4v1.3h-2.4v4.6c0,0.5,0.1,0.8,0.3,1.1c0.2,0.2,0.6,0.4,1,0.4c0.5,0,0.9-0.1,1.2-0.4L215,257.5z"
		/>
	<path class="st17" d="M219.5,249.8c0.5-0.3,1.2-0.4,1.9-0.4v1.5c-0.1,0-0.2,0-0.4,0c-0.8,0-1.5,0.2-2,0.7c-0.5,0.5-0.7,1.2-0.7,2.1
		v4.2h-1.5v-8.5h1.5v1.4C218.6,250.5,218.9,250.1,219.5,249.8z"/>
	<path class="st17" d="M230.8,254.3h-6.9c0.1,0.7,0.4,1.3,1,1.8c0.6,0.5,1.3,0.7,2.1,0.7c1,0,1.8-0.3,2.4-1l0.8,1
		c-0.4,0.4-0.9,0.8-1.4,1c-0.6,0.2-1.2,0.4-1.9,0.4c-0.9,0-1.7-0.2-2.4-0.6c-0.7-0.4-1.2-0.9-1.6-1.5c-0.4-0.7-0.6-1.4-0.6-2.2
		c0-0.8,0.2-1.6,0.6-2.2c0.4-0.7,0.9-1.2,1.5-1.5c0.6-0.4,1.4-0.6,2.2-0.6c0.8,0,1.5,0.2,2.2,0.6c0.6,0.4,1.1,0.9,1.5,1.5
		c0.4,0.7,0.5,1.4,0.5,2.3C230.8,253.9,230.8,254.1,230.8,254.3z M224.8,251.4c-0.5,0.4-0.8,1-0.9,1.8h5.4c-0.1-0.7-0.4-1.3-0.9-1.8
		s-1.1-0.7-1.8-0.7C225.9,250.7,225.3,251,224.8,251.4z"/>
	<path class="st17" d="M244.9,254.3H238c0.1,0.7,0.4,1.3,1,1.8c0.6,0.5,1.3,0.7,2.1,0.7c1,0,1.8-0.3,2.4-1l0.8,1
		c-0.4,0.4-0.9,0.8-1.4,1c-0.6,0.2-1.2,0.4-1.9,0.4c-0.9,0-1.7-0.2-2.4-0.6c-0.7-0.4-1.2-0.9-1.6-1.5c-0.4-0.7-0.6-1.4-0.6-2.2
		c0-0.8,0.2-1.6,0.6-2.2c0.4-0.7,0.9-1.2,1.5-1.5c0.6-0.4,1.4-0.6,2.2-0.6c0.8,0,1.5,0.2,2.2,0.6c0.6,0.4,1.1,0.9,1.5,1.5
		c0.4,0.7,0.5,1.4,0.5,2.3C244.9,253.9,244.9,254.1,244.9,254.3z M238.9,251.4c-0.5,0.4-0.8,1-0.9,1.8h5.4c-0.1-0.7-0.4-1.3-0.9-1.8
		s-1.1-0.7-1.8-0.7C240,250.7,239.4,251,238.9,251.4z"/>
	<path class="st17" d="M254.2,250.4c0.6,0.6,1,1.5,1,2.7v4.9h-1.5v-4.7c0-0.8-0.2-1.4-0.6-1.9s-1-0.6-1.7-0.6c-0.8,0-1.5,0.2-2,0.7
		s-0.7,1.2-0.7,2.1v4.4h-1.5v-8.5h1.5v1.3c0.3-0.4,0.7-0.8,1.3-1c0.5-0.2,1.1-0.4,1.8-0.4C252.7,249.4,253.5,249.8,254.2,250.4z"/>
	<path class="st17" d="M259.7,248.8v0.7h2.5v1.3h-2.4v7.2h-1.5v-7.2h-1.4v-1.3h1.4v-0.8c0-0.8,0.2-1.5,0.7-2
		c0.5-0.5,1.2-0.7,2.1-0.7c0.3,0,0.7,0,1,0.1c0.3,0.1,0.6,0.2,0.8,0.4l-0.5,1.2c-0.4-0.3-0.7-0.4-1.2-0.4
		C260.2,247.3,259.7,247.8,259.7,248.8z"/>
	<path class="st17" d="M269.2,250.3c0.6,0.6,0.9,1.4,0.9,2.6v5.1h-1.5v-1.1c-0.3,0.4-0.6,0.7-1.1,0.9s-1,0.3-1.7,0.3
		c-1,0-1.7-0.2-2.3-0.7c-0.6-0.5-0.9-1.1-0.9-1.8c0-0.7,0.3-1.3,0.8-1.8s1.4-0.7,2.6-0.7h2.4v-0.3c0-0.7-0.2-1.2-0.6-1.5
		c-0.4-0.4-1-0.5-1.7-0.5c-0.5,0-1,0.1-1.5,0.2c-0.5,0.2-0.9,0.4-1.2,0.7l-0.6-1.2c0.4-0.4,1-0.6,1.6-0.8c0.6-0.2,1.3-0.3,1.9-0.3
		C267.7,249.4,268.6,249.7,269.2,250.3z M267.7,256.5c0.4-0.3,0.7-0.6,0.9-1.1v-1.2h-2.4c-1.3,0-2,0.4-2,1.3c0,0.4,0.2,0.8,0.5,1
		c0.3,0.2,0.8,0.4,1.4,0.4C266.8,256.9,267.3,256.8,267.7,256.5z"/>
	<path class="st17" d="M280.1,250.4c0.6,0.6,1,1.5,1,2.7v4.9h-1.5v-4.7c0-0.8-0.2-1.4-0.6-1.9s-1-0.6-1.7-0.6c-0.8,0-1.5,0.2-2,0.7
		c-0.5,0.5-0.7,1.2-0.7,2.1v4.4H273v-8.5h1.5v1.3c0.3-0.4,0.7-0.8,1.3-1s1.1-0.4,1.8-0.4C278.6,249.4,279.5,249.8,280.1,250.4z"/>
	<path class="st17" d="M288.7,257.5c-0.2,0.2-0.5,0.3-0.8,0.4c-0.3,0.1-0.7,0.2-1,0.2c-0.9,0-1.5-0.2-2-0.7c-0.5-0.5-0.7-1.1-0.7-2
		v-4.7h-1.4v-1.3h1.4v-1.9h1.5v1.9h2.4v1.3h-2.4v4.6c0,0.5,0.1,0.8,0.3,1.1c0.2,0.2,0.6,0.4,1,0.4c0.5,0,0.9-0.1,1.2-0.4
		L288.7,257.5z"/>
	<path class="st17" d="M302.5,254.3h-6.9c0.1,0.7,0.4,1.3,1,1.8c0.6,0.5,1.3,0.7,2.1,0.7c1,0,1.8-0.3,2.4-1l0.8,1
		c-0.4,0.4-0.9,0.8-1.4,1c-0.6,0.2-1.2,0.4-1.9,0.4c-0.9,0-1.7-0.2-2.4-0.6c-0.7-0.4-1.2-0.9-1.6-1.5s-0.6-1.4-0.6-2.2
		c0-0.8,0.2-1.6,0.6-2.2c0.4-0.7,0.9-1.2,1.5-1.5c0.6-0.4,1.4-0.6,2.2-0.6c0.8,0,1.5,0.2,2.2,0.6c0.6,0.4,1.1,0.9,1.5,1.5
		c0.4,0.7,0.5,1.4,0.5,2.3C302.5,253.9,302.5,254.1,302.5,254.3z M296.5,251.4c-0.5,0.4-0.8,1-0.9,1.8h5.4c-0.1-0.7-0.4-1.3-0.9-1.8
		s-1.1-0.7-1.8-0.7C297.6,250.7,297,251,296.5,251.4z M299.3,246.2h2l-2.7,2.1h-1.4L299.3,246.2z"/>
	<path class="st17" d="M309.4,257.5c-0.2,0.2-0.5,0.3-0.8,0.4c-0.3,0.1-0.7,0.2-1,0.2c-0.9,0-1.5-0.2-2-0.7c-0.5-0.5-0.7-1.1-0.7-2
		v-4.7h-1.4v-1.3h1.4v-1.9h1.5v1.9h2.4v1.3h-2.4v4.6c0,0.5,0.1,0.8,0.3,1.1c0.2,0.2,0.6,0.4,1,0.4c0.5,0,0.9-0.1,1.2-0.4
		L309.4,257.5z"/>
	<path class="st17" d="M317,250.3c0.6,0.6,0.9,1.4,0.9,2.6v5.1h-1.5v-1.1c-0.3,0.4-0.6,0.7-1.1,0.9s-1,0.3-1.7,0.3
		c-1,0-1.7-0.2-2.3-0.7c-0.6-0.5-0.9-1.1-0.9-1.8c0-0.7,0.3-1.3,0.8-1.8s1.4-0.7,2.6-0.7h2.4v-0.3c0-0.7-0.2-1.2-0.6-1.5
		c-0.4-0.4-1-0.5-1.7-0.5c-0.5,0-1,0.1-1.5,0.2c-0.5,0.2-0.9,0.4-1.2,0.7l-0.6-1.2c0.4-0.4,1-0.6,1.6-0.8c0.6-0.2,1.3-0.3,1.9-0.3
		C315.5,249.4,316.4,249.7,317,250.3z M315.5,256.5c0.4-0.3,0.7-0.6,0.9-1.1v-1.2h-2.4c-1.3,0-2,0.4-2,1.3c0,0.4,0.2,0.8,0.5,1
		c0.3,0.2,0.8,0.4,1.4,0.4C314.6,256.9,315.1,256.8,315.5,256.5z"/>
	<path class="st17" d="M320.9,247.6c-0.2-0.2-0.3-0.4-0.3-0.7s0.1-0.5,0.3-0.7s0.4-0.3,0.7-0.3c0.3,0,0.5,0.1,0.7,0.3
		s0.3,0.4,0.3,0.7c0,0.3-0.1,0.5-0.3,0.7s-0.4,0.3-0.7,0.3C321.3,247.9,321,247.8,320.9,247.6z M320.8,249.5h1.5v8.5h-1.5V249.5z"/>
	<path class="st17" d="M330.1,257.5c-0.2,0.2-0.5,0.3-0.8,0.4c-0.3,0.1-0.7,0.2-1,0.2c-0.9,0-1.5-0.2-2-0.7c-0.5-0.5-0.7-1.1-0.7-2
		v-4.7h-1.4v-1.3h1.4v-1.9h1.5v1.9h2.4v1.3h-2.4v4.6c0,0.5,0.1,0.8,0.3,1.1c0.2,0.2,0.6,0.4,1,0.4c0.5,0,0.9-0.1,1.2-0.4
		L330.1,257.5z"/>
	<path class="st17" d="M122.3,269.5c0.6,0.6,0.9,1.4,0.9,2.6v5.1h-1.5v-1.1c-0.3,0.4-0.6,0.7-1.1,0.9s-1,0.3-1.7,0.3
		c-0.9,0-1.7-0.2-2.3-0.7c-0.6-0.5-0.9-1.1-0.9-1.8c0-0.7,0.3-1.3,0.8-1.8c0.5-0.5,1.4-0.7,2.6-0.7h2.4V272c0-0.7-0.2-1.2-0.6-1.5
		c-0.4-0.4-0.9-0.5-1.7-0.5c-0.5,0-1,0.1-1.5,0.2c-0.5,0.2-0.9,0.4-1.2,0.7l-0.6-1.2c0.4-0.4,1-0.6,1.6-0.8s1.3-0.3,1.9-0.3
		C120.7,268.6,121.6,268.9,122.3,269.5z M120.7,275.7c0.4-0.3,0.7-0.6,0.9-1.1v-1.2h-2.4c-1.3,0-2,0.4-2,1.3c0,0.4,0.2,0.8,0.5,1
		s0.8,0.4,1.4,0.4S120.3,276,120.7,275.7z"/>
	<path class="st17" d="M132.8,269.2c0.7,0.4,1.2,0.9,1.5,1.5s0.6,1.4,0.6,2.3s-0.2,1.6-0.6,2.3c-0.4,0.7-0.9,1.2-1.5,1.5
		c-0.7,0.4-1.4,0.5-2.2,0.5c-0.6,0-1.2-0.1-1.7-0.4c-0.5-0.2-1-0.6-1.3-1.1v1.3H126v-11.9h1.5v4.7c0.3-0.4,0.8-0.8,1.3-1
		s1.1-0.3,1.7-0.3C131.4,268.6,132.1,268.8,132.8,269.2z M131.9,275.6c0.4-0.3,0.8-0.6,1-1.1c0.3-0.5,0.4-1,0.4-1.6
		s-0.1-1.1-0.4-1.6c-0.3-0.5-0.6-0.8-1-1c-0.4-0.2-0.9-0.4-1.5-0.4c-0.5,0-1,0.1-1.5,0.4c-0.4,0.2-0.8,0.6-1,1
		c-0.2,0.5-0.4,1-0.4,1.6s0.1,1.1,0.4,1.6c0.2,0.5,0.6,0.8,1,1.1c0.4,0.3,0.9,0.4,1.5,0.4C131,276,131.4,275.8,131.9,275.6z"/>
	<path class="st17" d="M137.4,277c-0.6-0.2-1.1-0.4-1.5-0.7l0.6-1.2c0.4,0.3,0.8,0.5,1.4,0.6c0.5,0.2,1.1,0.2,1.6,0.2
		c1.3,0,2-0.4,2-1.2c0-0.3-0.1-0.5-0.3-0.6c-0.2-0.1-0.4-0.3-0.7-0.3s-0.7-0.1-1.2-0.2c-0.7-0.1-1.2-0.2-1.7-0.4s-0.8-0.4-1.1-0.7
		c-0.3-0.3-0.5-0.8-0.5-1.4c0-0.8,0.3-1.4,1-1.8c0.6-0.5,1.5-0.7,2.6-0.7c0.6,0,1.1,0.1,1.7,0.2c0.6,0.1,1,0.3,1.4,0.6l-0.7,1.2
		c-0.7-0.4-1.5-0.7-2.4-0.7c-0.7,0-1.1,0.1-1.5,0.3c-0.3,0.2-0.5,0.5-0.5,0.8c0,0.3,0.1,0.5,0.3,0.7c0.2,0.2,0.4,0.3,0.7,0.4
		c0.3,0.1,0.7,0.2,1.2,0.3c0.7,0.1,1.2,0.2,1.7,0.4c0.4,0.1,0.8,0.4,1.1,0.7c0.3,0.3,0.4,0.8,0.4,1.3c0,0.8-0.3,1.4-1,1.8
		c-0.7,0.5-1.5,0.7-2.7,0.7C138.7,277.3,138,277.2,137.4,277z"/>
	<path class="st17" d="M152.6,273.5h-6.9c0.1,0.7,0.4,1.3,1,1.8c0.6,0.5,1.3,0.7,2.1,0.7c1,0,1.8-0.3,2.4-1l0.8,1
		c-0.4,0.4-0.9,0.8-1.4,1c-0.6,0.2-1.2,0.4-1.9,0.4c-0.9,0-1.7-0.2-2.4-0.6c-0.7-0.4-1.2-0.9-1.6-1.5c-0.4-0.7-0.6-1.4-0.6-2.2
		c0-0.8,0.2-1.6,0.6-2.2c0.4-0.7,0.9-1.2,1.5-1.5c0.6-0.4,1.4-0.6,2.2-0.6c0.8,0,1.5,0.2,2.2,0.6c0.6,0.4,1.1,0.9,1.5,1.5
		c0.4,0.7,0.5,1.4,0.5,2.3C152.6,273.1,152.6,273.3,152.6,273.5z M146.6,270.6c-0.5,0.4-0.8,1-0.9,1.8h5.4c-0.1-0.7-0.4-1.3-0.9-1.8
		s-1.1-0.7-1.8-0.7C147.7,269.9,147.1,270.2,146.6,270.6z"/>
	<path class="st17" d="M161.9,269.6c0.6,0.6,1,1.5,1,2.7v4.9h-1.5v-4.7c0-0.8-0.2-1.4-0.6-1.9s-1-0.6-1.7-0.6c-0.8,0-1.5,0.2-2,0.7
		s-0.7,1.2-0.7,2.1v4.4h-1.5v-8.5h1.5v1.3c0.3-0.4,0.7-0.8,1.3-1c0.5-0.2,1.1-0.4,1.8-0.4C160.4,268.6,161.2,269,161.9,269.6z"/>
	<path class="st17" d="M170.4,276.7c-0.2,0.2-0.5,0.3-0.8,0.4c-0.3,0.1-0.7,0.2-1,0.2c-0.9,0-1.5-0.2-2-0.7c-0.5-0.5-0.7-1.1-0.7-2
		V270h-1.4v-1.3h1.4v-1.9h1.5v1.9h2.4v1.3h-2.4v4.6c0,0.5,0.1,0.8,0.3,1.1c0.2,0.2,0.6,0.4,1,0.4c0.5,0,0.9-0.1,1.2-0.4L170.4,276.7
		z"/>
	<path class="st17" d="M182.4,269.5c0.6,0.6,0.9,1.4,0.9,2.6v5.1h-1.5v-1.1c-0.3,0.4-0.6,0.7-1.1,0.9s-1,0.3-1.7,0.3
		c-0.9,0-1.7-0.2-2.3-0.7c-0.6-0.5-0.9-1.1-0.9-1.8c0-0.7,0.3-1.3,0.8-1.8c0.5-0.5,1.4-0.7,2.6-0.7h2.4V272c0-0.7-0.2-1.2-0.6-1.5
		c-0.4-0.4-0.9-0.5-1.7-0.5c-0.5,0-1,0.1-1.5,0.2c-0.5,0.2-0.9,0.4-1.2,0.7l-0.6-1.2c0.4-0.4,1-0.6,1.6-0.8s1.3-0.3,1.9-0.3
		C180.9,268.6,181.8,268.9,182.4,269.5z M180.8,275.7c0.4-0.3,0.7-0.6,0.9-1.1v-1.2h-2.4c-1.3,0-2,0.4-2,1.3c0,0.4,0.2,0.8,0.5,1
		s0.8,0.4,1.4,0.4S180.4,276,180.8,275.7z"/>
	<path class="st17" d="M194.1,268.7v8.5h-1.5v-1.3c-0.3,0.4-0.7,0.8-1.2,1c-0.5,0.2-1.1,0.4-1.7,0.4c-1.1,0-2-0.3-2.7-0.9
		c-0.7-0.6-1-1.5-1-2.8v-4.9h1.5v4.7c0,0.8,0.2,1.4,0.6,1.9s1,0.6,1.7,0.6c0.8,0,1.5-0.2,1.9-0.7c0.5-0.5,0.7-1.2,0.7-2.1v-4.4
		H194.1z"/>
	<path class="st17" d="M194.9,280.3c-0.3-0.1-0.6-0.2-0.8-0.4l0.5-1.2c0.3,0.3,0.7,0.4,1.2,0.4c0.4,0,0.7-0.1,0.9-0.4
		c0.2-0.3,0.3-0.6,0.3-1.1v-8.9h1.5v8.9c0,0.9-0.2,1.6-0.7,2.1c-0.5,0.5-1.1,0.8-2,0.8C195.5,280.4,195.2,280.4,194.9,280.3z
		 M197.1,266.8c-0.2-0.2-0.3-0.4-0.3-0.7s0.1-0.5,0.3-0.7c0.2-0.2,0.4-0.3,0.7-0.3c0.3,0,0.5,0.1,0.7,0.3s0.3,0.4,0.3,0.7
		c0,0.3-0.1,0.5-0.3,0.7s-0.4,0.3-0.7,0.3C197.5,267.1,197.3,267,197.1,266.8z"/>
	<path class="st17" d="M202.9,276.7c-0.7-0.4-1.2-0.9-1.6-1.5c-0.4-0.7-0.6-1.4-0.6-2.2s0.2-1.6,0.6-2.2c0.4-0.7,0.9-1.2,1.6-1.5
		c0.7-0.4,1.4-0.6,2.3-0.6s1.6,0.2,2.3,0.6c0.7,0.4,1.2,0.9,1.6,1.5c0.4,0.7,0.6,1.4,0.6,2.2s-0.2,1.6-0.6,2.2
		c-0.4,0.7-0.9,1.2-1.6,1.5c-0.7,0.4-1.4,0.6-2.3,0.6S203.6,277.1,202.9,276.7z M206.6,275.6c0.4-0.3,0.8-0.6,1-1.1
		c0.2-0.5,0.4-1,0.4-1.6s-0.1-1.1-0.4-1.6c-0.2-0.5-0.6-0.8-1-1c-0.4-0.2-0.9-0.4-1.5-0.4s-1,0.1-1.5,0.4c-0.4,0.2-0.8,0.6-1,1
		c-0.3,0.5-0.4,1-0.4,1.6s0.1,1.1,0.4,1.6c0.3,0.5,0.6,0.8,1,1.1s0.9,0.4,1.5,0.4S206.2,275.8,206.6,275.6z"/>
	<path class="st17" d="M219.6,268.7v8.5h-1.5v-1.3c-0.3,0.4-0.7,0.8-1.2,1c-0.5,0.2-1.1,0.4-1.7,0.4c-1.1,0-2-0.3-2.7-0.9
		c-0.7-0.6-1-1.5-1-2.8v-4.9h1.5v4.7c0,0.8,0.2,1.4,0.6,1.9s1,0.6,1.7,0.6c0.8,0,1.5-0.2,1.9-0.7c0.5-0.5,0.7-1.2,0.7-2.1v-4.4
		H219.6z"/>
	<path class="st17" d="M225.2,269c0.5-0.3,1.2-0.4,1.9-0.4v1.5c-0.1,0-0.2,0-0.4,0c-0.8,0-1.5,0.2-2,0.7c-0.5,0.5-0.7,1.2-0.7,2.1
		v4.2h-1.5v-8.5h1.5v1.4C224.3,269.7,224.7,269.3,225.2,269z"/>
	<path class="st17" d="M236.9,265.3v11.9h-1.5v-1.3c-0.3,0.5-0.8,0.8-1.3,1.1c-0.5,0.2-1.1,0.4-1.7,0.4c-0.8,0-1.6-0.2-2.2-0.5
		c-0.7-0.4-1.2-0.9-1.5-1.5c-0.4-0.7-0.6-1.4-0.6-2.3s0.2-1.6,0.6-2.3c0.4-0.7,0.9-1.2,1.5-1.5c0.7-0.4,1.4-0.5,2.2-0.5
		c0.6,0,1.2,0.1,1.7,0.3c0.5,0.2,0.9,0.6,1.3,1v-4.7H236.9z M234,275.6c0.4-0.3,0.8-0.6,1-1.1c0.2-0.5,0.4-1,0.4-1.6
		s-0.1-1.1-0.4-1.6c-0.2-0.5-0.6-0.8-1-1c-0.4-0.2-0.9-0.4-1.5-0.4c-0.5,0-1,0.1-1.5,0.4c-0.4,0.2-0.8,0.6-1,1
		c-0.3,0.5-0.4,1-0.4,1.6s0.1,1.1,0.4,1.6c0.3,0.5,0.6,0.8,1,1.1s0.9,0.4,1.5,0.4C233.1,276,233.5,275.8,234,275.6z"/>
	<path class="st17" d="M239.4,266h1.3l-0.1,4.3h-1.1L239.4,266z"/>
	<path class="st17" d="M250.3,269.6c0.6,0.6,1,1.5,1,2.7v4.9h-1.5v-4.7c0-0.8-0.2-1.4-0.6-1.9s-1-0.6-1.7-0.6c-0.8,0-1.5,0.2-2,0.7
		s-0.7,1.2-0.7,2.1v4.4h-1.5v-11.9h1.5v4.6c0.3-0.4,0.7-0.7,1.3-0.9c0.5-0.2,1.1-0.3,1.7-0.3C248.8,268.6,249.6,269,250.3,269.6z"/>
	<path class="st17" d="M262,268.7v8.5h-1.5v-1.3c-0.3,0.4-0.7,0.8-1.2,1c-0.5,0.2-1.1,0.4-1.7,0.4c-1.1,0-2-0.3-2.7-0.9
		c-0.7-0.6-1-1.5-1-2.8v-4.9h1.5v4.7c0,0.8,0.2,1.4,0.6,1.9s1,0.6,1.7,0.6c0.8,0,1.5-0.2,1.9-0.7c0.5-0.5,0.7-1.2,0.7-2.1v-4.4H262z
		"/>
	<path class="st17" d="M264.9,266.8c-0.2-0.2-0.3-0.4-0.3-0.7s0.1-0.5,0.3-0.7s0.4-0.3,0.7-0.3c0.3,0,0.5,0.1,0.7,0.3
		s0.3,0.4,0.3,0.7c0,0.3-0.1,0.5-0.3,0.7s-0.4,0.3-0.7,0.3C265.4,267.1,265.1,267,264.9,266.8z M264.9,268.7h1.5v8.5h-1.5V268.7z"/>
	<path class="st17" d="M269,277c-0.2-0.2-0.3-0.5-0.3-0.8c0-0.3,0.1-0.6,0.3-0.8c0.2-0.2,0.5-0.3,0.8-0.3s0.5,0.1,0.8,0.3
		c0.2,0.2,0.3,0.5,0.3,0.8c0,0.3-0.1,0.6-0.3,0.8s-0.5,0.3-0.7,0.3C269.4,277.3,269.2,277.2,269,277z"/>
	<path class="st17" d="M287.9,277.2l0-8.2l-4,6.8h-0.7l-4-6.8v8.1h-1.5V266h1.3l4.7,7.9l4.6-7.9h1.3l0,11.2H287.9z"/>
	<path class="st17" d="M300.2,273.5h-6.9c0.1,0.7,0.4,1.3,1,1.8c0.6,0.5,1.3,0.7,2.1,0.7c1,0,1.8-0.3,2.4-1l0.8,1
		c-0.4,0.4-0.9,0.8-1.4,1c-0.6,0.2-1.2,0.4-1.9,0.4c-0.9,0-1.7-0.2-2.4-0.6c-0.7-0.4-1.2-0.9-1.6-1.5s-0.6-1.4-0.6-2.2
		c0-0.8,0.2-1.6,0.6-2.2c0.4-0.7,0.9-1.2,1.5-1.5c0.6-0.4,1.4-0.6,2.2-0.6c0.8,0,1.5,0.2,2.2,0.6c0.6,0.4,1.1,0.9,1.5,1.5
		c0.4,0.7,0.5,1.4,0.5,2.3C300.2,273.1,300.2,273.3,300.2,273.5z M294.2,270.6c-0.5,0.4-0.8,1-0.9,1.8h5.4c-0.1-0.7-0.4-1.3-0.9-1.8
		s-1.1-0.7-1.8-0.7C295.3,269.9,294.7,270.2,294.2,270.6z"/>
	<path class="st17" d="M305,269c0.5-0.3,1.2-0.4,1.9-0.4v1.5c-0.1,0-0.2,0-0.4,0c-0.8,0-1.5,0.2-2,0.7c-0.5,0.5-0.7,1.2-0.7,2.1v4.2
		h-1.5v-8.5h1.5v1.4C304.1,269.7,304.5,269.3,305,269z"/>
	<path class="st17" d="M310.1,276.7c-0.7-0.4-1.2-0.9-1.6-1.5c-0.4-0.7-0.6-1.4-0.6-2.2s0.2-1.6,0.6-2.2c0.4-0.7,0.9-1.2,1.6-1.5
		c0.7-0.4,1.4-0.6,2.3-0.6c0.8,0,1.5,0.2,2.1,0.5c0.6,0.3,1.1,0.8,1.4,1.3l-1.2,0.8c-0.3-0.4-0.6-0.7-1-0.9
		c-0.4-0.2-0.8-0.3-1.3-0.3c-0.6,0-1.1,0.1-1.5,0.4c-0.4,0.2-0.8,0.6-1,1c-0.3,0.5-0.4,1-0.4,1.6c0,0.6,0.1,1.1,0.4,1.6s0.6,0.8,1,1
		s0.9,0.4,1.5,0.4c0.5,0,0.9-0.1,1.3-0.3c0.4-0.2,0.7-0.5,1-0.9l1.2,0.7c-0.3,0.6-0.8,1-1.4,1.4s-1.3,0.5-2.1,0.5
		C311.6,277.3,310.8,277.1,310.1,276.7z"/>
	<path class="st17" d="M317.9,266.8c-0.2-0.2-0.3-0.4-0.3-0.7s0.1-0.5,0.3-0.7s0.4-0.3,0.7-0.3c0.3,0,0.5,0.1,0.7,0.3
		s0.3,0.4,0.3,0.7c0,0.3-0.1,0.5-0.3,0.7s-0.4,0.3-0.7,0.3C318.3,267.1,318.1,267,317.9,266.8z M317.9,268.7h1.5v8.5h-1.5V268.7z"/>
	<path class="st17" d="M334.6,265.3v11.9h-1.5v-1.3c-0.3,0.5-0.8,0.8-1.3,1.1c-0.5,0.2-1.1,0.4-1.7,0.4c-0.8,0-1.6-0.2-2.2-0.5
		s-1.2-0.9-1.5-1.5c-0.4-0.7-0.6-1.4-0.6-2.3s0.2-1.6,0.6-2.3c0.4-0.7,0.9-1.2,1.5-1.5c0.7-0.4,1.4-0.5,2.2-0.5
		c0.6,0,1.2,0.1,1.7,0.3c0.5,0.2,0.9,0.6,1.3,1v-4.7H334.6z M331.7,275.6c0.4-0.3,0.8-0.6,1-1.1c0.2-0.5,0.4-1,0.4-1.6
		s-0.1-1.1-0.4-1.6c-0.2-0.5-0.6-0.8-1-1c-0.4-0.2-0.9-0.4-1.5-0.4c-0.5,0-1,0.1-1.5,0.4c-0.4,0.2-0.8,0.6-1,1
		c-0.3,0.5-0.4,1-0.4,1.6s0.1,1.1,0.4,1.6c0.3,0.5,0.6,0.8,1,1.1c0.4,0.3,0.9,0.4,1.5,0.4C330.8,276,331.3,275.8,331.7,275.6z"/>
	<path class="st17" d="M345.2,273.5h-6.9c0.1,0.7,0.4,1.3,1,1.8c0.6,0.5,1.3,0.7,2.1,0.7c1,0,1.8-0.3,2.4-1l0.8,1
		c-0.4,0.4-0.9,0.8-1.4,1c-0.6,0.2-1.2,0.4-1.9,0.4c-0.9,0-1.7-0.2-2.4-0.6s-1.2-0.9-1.6-1.5c-0.4-0.7-0.6-1.4-0.6-2.2
		c0-0.8,0.2-1.6,0.6-2.2c0.4-0.7,0.9-1.2,1.5-1.5c0.6-0.4,1.4-0.6,2.2-0.6s1.5,0.2,2.2,0.6c0.6,0.4,1.1,0.9,1.5,1.5
		c0.4,0.7,0.5,1.4,0.5,2.3C345.2,273.1,345.2,273.3,345.2,273.5z M339.2,270.6c-0.5,0.4-0.8,1-0.9,1.8h5.4c-0.1-0.7-0.4-1.3-0.9-1.8
		s-1.1-0.7-1.8-0.7C340.3,269.9,339.7,270.2,339.2,270.6z"/>
	<path class="st17" d="M117.9,295.9c-0.7-0.4-1.2-0.9-1.6-1.5c-0.4-0.7-0.6-1.4-0.6-2.2c0-0.8,0.2-1.6,0.6-2.2
		c0.4-0.7,0.9-1.2,1.6-1.5s1.4-0.6,2.3-0.6c0.8,0,1.5,0.2,2.1,0.5s1.1,0.8,1.4,1.3l-1.2,0.8c-0.3-0.4-0.6-0.7-1-0.9
		c-0.4-0.2-0.8-0.3-1.3-0.3c-0.6,0-1.1,0.1-1.5,0.4c-0.4,0.2-0.8,0.6-1,1c-0.3,0.5-0.4,1-0.4,1.6c0,0.6,0.1,1.1,0.4,1.6
		c0.3,0.5,0.6,0.8,1,1c0.4,0.2,0.9,0.4,1.5,0.4c0.5,0,0.9-0.1,1.3-0.3c0.4-0.2,0.7-0.5,1-0.9l1.2,0.7c-0.3,0.6-0.8,1-1.4,1.4
		c-0.6,0.3-1.3,0.5-2.1,0.5C119.3,296.5,118.5,296.3,117.9,295.9z"/>
	<path class="st17" d="M126.8,295.9c-0.7-0.4-1.2-0.9-1.6-1.5c-0.4-0.7-0.6-1.4-0.6-2.2c0-0.8,0.2-1.6,0.6-2.2
		c0.4-0.7,0.9-1.2,1.6-1.5s1.4-0.6,2.3-0.6s1.6,0.2,2.3,0.6c0.7,0.4,1.2,0.9,1.6,1.5c0.4,0.7,0.6,1.4,0.6,2.2c0,0.8-0.2,1.6-0.6,2.2
		c-0.4,0.7-0.9,1.2-1.6,1.5c-0.7,0.4-1.4,0.6-2.3,0.6S127.5,296.3,126.8,295.9z M130.6,294.8c0.4-0.3,0.8-0.6,1-1.1s0.4-1,0.4-1.6
		c0-0.6-0.1-1.1-0.4-1.6s-0.6-0.8-1-1c-0.4-0.2-0.9-0.4-1.5-0.4s-1,0.1-1.5,0.4s-0.8,0.6-1,1c-0.3,0.5-0.4,1-0.4,1.6
		c0,0.6,0.1,1.1,0.4,1.6c0.3,0.5,0.6,0.8,1,1.1c0.4,0.3,0.9,0.4,1.5,0.4S130.2,295,130.6,294.8z"/>
	<path class="st17" d="M142.7,288.8c0.6,0.6,1,1.5,1,2.7v4.9h-1.5v-4.7c0-0.8-0.2-1.4-0.6-1.9s-1-0.6-1.7-0.6c-0.8,0-1.5,0.2-2,0.7
		s-0.7,1.2-0.7,2.1v4.4h-1.5v-8.5h1.5v1.3c0.3-0.4,0.7-0.8,1.3-1c0.5-0.2,1.1-0.4,1.8-0.4C141.3,287.8,142.1,288.2,142.7,288.8z"/>
	<path class="st17" d="M151.3,295.9c-0.2,0.2-0.5,0.3-0.8,0.4c-0.3,0.1-0.7,0.2-1,0.2c-0.9,0-1.5-0.2-2-0.7c-0.5-0.5-0.7-1.1-0.7-2
		v-4.7h-1.4v-1.3h1.4v-1.9h1.5v1.9h2.4v1.3h-2.4v4.6c0,0.5,0.1,0.8,0.3,1.1c0.2,0.2,0.6,0.4,1,0.4c0.5,0,0.9-0.1,1.2-0.4
		L151.3,295.9z"/>
	<path class="st17" d="M159,288.7c0.6,0.6,0.9,1.4,0.9,2.6v5.1h-1.5v-1.1c-0.3,0.4-0.6,0.7-1.1,0.9s-1,0.3-1.7,0.3
		c-0.9,0-1.7-0.2-2.3-0.7c-0.6-0.5-0.9-1.1-0.9-1.8c0-0.7,0.3-1.3,0.8-1.8c0.5-0.5,1.4-0.7,2.6-0.7h2.4v-0.3c0-0.7-0.2-1.2-0.6-1.5
		c-0.4-0.4-0.9-0.5-1.7-0.5c-0.5,0-1,0.1-1.5,0.2c-0.5,0.2-0.9,0.4-1.2,0.7l-0.6-1.2c0.4-0.4,1-0.6,1.6-0.8s1.3-0.3,1.9-0.3
		C157.4,287.8,158.3,288.1,159,288.7z M157.4,294.9c0.4-0.3,0.7-0.6,0.9-1.1v-1.2H156c-1.3,0-2,0.4-2,1.3c0,0.4,0.2,0.8,0.5,1
		c0.3,0.2,0.8,0.4,1.4,0.4S157,295.2,157.4,294.9z"/>
	<path class="st17" d="M164.2,295.9c-0.7-0.4-1.2-0.9-1.6-1.5c-0.4-0.7-0.6-1.4-0.6-2.2c0-0.8,0.2-1.6,0.6-2.2
		c0.4-0.7,0.9-1.2,1.6-1.5s1.4-0.6,2.3-0.6c0.8,0,1.5,0.2,2.1,0.5s1.1,0.8,1.4,1.3l-1.2,0.8c-0.3-0.4-0.6-0.7-1-0.9
		c-0.4-0.2-0.8-0.3-1.3-0.3c-0.6,0-1.1,0.1-1.5,0.4c-0.4,0.2-0.8,0.6-1,1c-0.3,0.5-0.4,1-0.4,1.6c0,0.6,0.1,1.1,0.4,1.6
		c0.3,0.5,0.6,0.8,1,1c0.4,0.2,0.9,0.4,1.5,0.4c0.5,0,0.9-0.1,1.3-0.3c0.4-0.2,0.7-0.5,1-0.9l1.2,0.7c-0.3,0.6-0.8,1-1.4,1.4
		c-0.6,0.3-1.3,0.5-2.1,0.5C165.6,296.5,164.8,296.3,164.2,295.9z"/>
	<path class="st17" d="M176.8,295.9c-0.2,0.2-0.5,0.3-0.8,0.4c-0.3,0.1-0.7,0.2-1,0.2c-0.9,0-1.5-0.2-2-0.7c-0.5-0.5-0.7-1.1-0.7-2
		v-4.7h-1.4v-1.3h1.4v-1.9h1.5v1.9h2.4v1.3h-2.4v4.6c0,0.5,0.1,0.8,0.3,1.1c0.2,0.2,0.6,0.4,1,0.4c0.5,0,0.9-0.1,1.2-0.4
		L176.8,295.9z"/>
	<path class="st17" d="M186,292.7h-6.9c0.1,0.7,0.4,1.3,1,1.8s1.3,0.7,2.1,0.7c1,0,1.8-0.3,2.4-1l0.8,1c-0.4,0.4-0.9,0.8-1.4,1
		c-0.6,0.2-1.2,0.4-1.9,0.4c-0.9,0-1.7-0.2-2.4-0.6c-0.7-0.4-1.2-0.9-1.6-1.5c-0.4-0.7-0.6-1.4-0.6-2.2c0-0.8,0.2-1.6,0.6-2.2
		c0.4-0.7,0.9-1.2,1.5-1.5c0.6-0.4,1.4-0.6,2.2-0.6c0.8,0,1.5,0.2,2.2,0.6c0.6,0.4,1.1,0.9,1.5,1.5s0.5,1.4,0.5,2.3
		C186,292.3,186,292.5,186,292.7z M180,289.8c-0.5,0.4-0.8,1-0.9,1.8h5.4c-0.1-0.7-0.4-1.3-0.9-1.8c-0.5-0.5-1.1-0.7-1.8-0.7
		C181.1,289.1,180.5,289.4,180,289.8z"/>
	<path class="st17" d="M190.8,288.2c0.5-0.3,1.2-0.4,1.9-0.4v1.5c-0.1,0-0.2,0-0.4,0c-0.8,0-1.5,0.2-2,0.7s-0.7,1.2-0.7,2.1v4.2
		h-1.5v-8.5h1.5v1.4C189.9,288.9,190.3,288.5,190.8,288.2z"/>
	<path class="st17" d="M207,284.5v11.9h-1.5v-1.3c-0.3,0.5-0.8,0.8-1.3,1.1c-0.5,0.2-1.1,0.4-1.7,0.4c-0.8,0-1.6-0.2-2.2-0.5
		c-0.7-0.4-1.2-0.9-1.5-1.5c-0.4-0.7-0.6-1.4-0.6-2.3c0-0.9,0.2-1.6,0.6-2.3c0.4-0.7,0.9-1.2,1.5-1.5c0.7-0.4,1.4-0.5,2.2-0.5
		c0.6,0,1.2,0.1,1.7,0.3c0.5,0.2,0.9,0.6,1.3,1v-4.7H207z M204.1,294.8c0.4-0.3,0.8-0.6,1-1.1s0.4-1,0.4-1.6c0-0.6-0.1-1.1-0.4-1.6
		s-0.6-0.8-1-1s-0.9-0.4-1.5-0.4c-0.5,0-1,0.1-1.5,0.4s-0.8,0.6-1,1c-0.3,0.5-0.4,1-0.4,1.6c0,0.6,0.1,1.1,0.4,1.6
		c0.3,0.5,0.6,0.8,1,1.1c0.4,0.3,0.9,0.4,1.5,0.4C203.2,295.2,203.7,295,204.1,294.8z"/>
	<path class="st17" d="M217.6,292.7h-6.9c0.1,0.7,0.4,1.3,1,1.8s1.3,0.7,2.1,0.7c1,0,1.8-0.3,2.4-1l0.8,1c-0.4,0.4-0.9,0.8-1.4,1
		c-0.6,0.2-1.2,0.4-1.9,0.4c-0.9,0-1.7-0.2-2.4-0.6c-0.7-0.4-1.2-0.9-1.6-1.5c-0.4-0.7-0.6-1.4-0.6-2.2c0-0.8,0.2-1.6,0.6-2.2
		c0.4-0.7,0.9-1.2,1.5-1.5c0.6-0.4,1.4-0.6,2.2-0.6c0.8,0,1.5,0.2,2.2,0.6c0.6,0.4,1.1,0.9,1.5,1.5s0.5,1.4,0.5,2.3
		C217.6,292.3,217.6,292.5,217.6,292.7z M210.5,284.6h2l2.2,2.1h-1.4L210.5,284.6z M211.6,289.8c-0.5,0.4-0.8,1-0.9,1.8h5.4
		c-0.1-0.7-0.4-1.3-0.9-1.8c-0.5-0.5-1.1-0.7-1.8-0.7C212.7,289.1,212.1,289.4,211.6,289.8z"/>
	<path class="st17" d="M220.2,296.2c-0.6-0.2-1.1-0.4-1.5-0.7l0.6-1.2c0.4,0.3,0.8,0.5,1.4,0.6c0.5,0.2,1.1,0.2,1.6,0.2
		c1.3,0,2-0.4,2-1.2c0-0.3-0.1-0.5-0.3-0.6c-0.2-0.1-0.4-0.3-0.7-0.3s-0.7-0.1-1.2-0.2c-0.7-0.1-1.2-0.2-1.7-0.4s-0.8-0.4-1.1-0.7
		c-0.3-0.3-0.5-0.8-0.5-1.4c0-0.8,0.3-1.4,1-1.8c0.6-0.5,1.5-0.7,2.6-0.7c0.6,0,1.1,0.1,1.7,0.2c0.6,0.1,1,0.3,1.4,0.6l-0.7,1.2
		c-0.7-0.4-1.5-0.7-2.4-0.7c-0.7,0-1.1,0.1-1.5,0.3c-0.3,0.2-0.5,0.5-0.5,0.8c0,0.3,0.1,0.5,0.3,0.7s0.4,0.3,0.7,0.4
		c0.3,0.1,0.7,0.2,1.2,0.3c0.7,0.1,1.2,0.2,1.7,0.4c0.4,0.1,0.8,0.4,1.1,0.7c0.3,0.3,0.4,0.8,0.4,1.3c0,0.8-0.3,1.4-1,1.8
		c-0.7,0.5-1.5,0.7-2.7,0.7C221.5,296.5,220.8,296.4,220.2,296.2z"/>
	<path class="st17" d="M240,287.9v11.6h-1.5v-4.4c-0.4,0.4-0.8,0.8-1.3,1c-0.5,0.2-1.1,0.4-1.7,0.4c-0.8,0-1.6-0.2-2.2-0.5
		c-0.7-0.4-1.2-0.9-1.5-1.5c-0.4-0.7-0.6-1.4-0.6-2.3c0-0.9,0.2-1.6,0.6-2.3c0.4-0.7,0.9-1.2,1.5-1.5c0.7-0.4,1.4-0.5,2.2-0.5
		c0.6,0,1.2,0.1,1.7,0.4c0.5,0.2,1,0.6,1.3,1.1v-1.3H240z M237.1,294.8c0.4-0.3,0.8-0.6,1-1.1s0.4-1,0.4-1.6c0-0.6-0.1-1.1-0.4-1.6
		c-0.3-0.4-0.6-0.8-1-1c-0.4-0.3-0.9-0.4-1.4-0.4c-0.5,0-1,0.1-1.5,0.4s-0.8,0.6-1,1c-0.3,0.5-0.4,1-0.4,1.6c0,0.6,0.1,1.1,0.4,1.6
		c0.3,0.5,0.6,0.8,1,1.1c0.4,0.3,0.9,0.4,1.5,0.4C236.2,295.2,236.7,295,237.1,294.8z"/>
	<path class="st17" d="M250.9,287.9v8.5h-1.5v-1.3c-0.3,0.4-0.7,0.8-1.2,1c-0.5,0.2-1.1,0.4-1.7,0.4c-1.1,0-2-0.3-2.7-0.9
		c-0.7-0.6-1-1.5-1-2.8v-4.9h1.5v4.7c0,0.8,0.2,1.4,0.6,1.9c0.4,0.4,1,0.6,1.7,0.6c0.8,0,1.5-0.2,1.9-0.7c0.5-0.5,0.7-1.2,0.7-2.1
		v-4.4H250.9z"/>
	<path class="st17" d="M261.4,292.7h-6.9c0.1,0.7,0.4,1.3,1,1.8c0.6,0.5,1.3,0.7,2.1,0.7c1,0,1.8-0.3,2.4-1l0.8,1
		c-0.4,0.4-0.9,0.8-1.4,1c-0.6,0.2-1.2,0.4-1.9,0.4c-0.9,0-1.7-0.2-2.4-0.6c-0.7-0.4-1.2-0.9-1.6-1.5c-0.4-0.7-0.6-1.4-0.6-2.2
		c0-0.8,0.2-1.6,0.6-2.2c0.4-0.7,0.9-1.2,1.5-1.5s1.4-0.6,2.2-0.6c0.8,0,1.5,0.2,2.2,0.6c0.6,0.4,1.1,0.9,1.5,1.5s0.5,1.4,0.5,2.3
		C261.5,292.3,261.4,292.5,261.4,292.7z M255.4,289.8c-0.5,0.4-0.8,1-0.9,1.8h5.4c-0.1-0.7-0.4-1.3-0.9-1.8
		c-0.5-0.5-1.1-0.7-1.8-0.7C256.5,289.1,255.9,289.4,255.4,289.8z"/>
	<path class="st17" d="M274.6,288.4c0.7,0.4,1.2,0.9,1.5,1.5c0.4,0.7,0.6,1.4,0.6,2.3c0,0.9-0.2,1.6-0.6,2.3s-0.9,1.2-1.5,1.5
		c-0.7,0.4-1.4,0.5-2.2,0.5c-0.6,0-1.2-0.1-1.7-0.4s-0.9-0.6-1.3-1v4.4h-1.5v-11.6h1.5v1.3c0.3-0.5,0.8-0.8,1.3-1.1
		c0.5-0.2,1.1-0.4,1.7-0.4C273.2,287.8,273.9,288,274.6,288.4z M273.7,294.8c0.4-0.3,0.8-0.6,1-1.1c0.3-0.5,0.4-1,0.4-1.6
		c0-0.6-0.1-1.1-0.4-1.6c-0.3-0.5-0.6-0.8-1-1c-0.4-0.2-0.9-0.4-1.5-0.4c-0.5,0-1,0.1-1.4,0.4c-0.4,0.3-0.8,0.6-1,1
		c-0.3,0.4-0.4,1-0.4,1.6c0,0.6,0.1,1.1,0.4,1.6c0.2,0.5,0.6,0.8,1,1.1c0.4,0.3,0.9,0.4,1.5,0.4C272.8,295.2,273.3,295,273.7,294.8z
		"/>
	<path class="st17" d="M280.2,295.9c-0.7-0.4-1.2-0.9-1.6-1.5s-0.6-1.4-0.6-2.2c0-0.8,0.2-1.6,0.6-2.2s0.9-1.2,1.6-1.5
		s1.4-0.6,2.3-0.6s1.6,0.2,2.3,0.6c0.7,0.4,1.2,0.9,1.6,1.5s0.6,1.4,0.6,2.2c0,0.8-0.2,1.6-0.6,2.2s-0.9,1.2-1.6,1.5
		c-0.7,0.4-1.4,0.6-2.3,0.6S280.8,296.3,280.2,295.9z M283.9,294.8c0.4-0.3,0.8-0.6,1-1.1c0.2-0.5,0.4-1,0.4-1.6
		c0-0.6-0.1-1.1-0.4-1.6c-0.2-0.5-0.6-0.8-1-1c-0.4-0.2-0.9-0.4-1.5-0.4s-1,0.1-1.5,0.4c-0.4,0.2-0.8,0.6-1,1
		c-0.3,0.5-0.4,1-0.4,1.6c0,0.6,0.1,1.1,0.4,1.6c0.3,0.5,0.6,0.8,1,1.1c0.4,0.3,0.9,0.4,1.5,0.4S283.5,295,283.9,294.8z"/>
	<path class="st17" d="M289.4,296.2c-0.6-0.2-1.1-0.4-1.5-0.7l0.6-1.2c0.4,0.3,0.8,0.5,1.4,0.6s1.1,0.2,1.6,0.2c1.3,0,2-0.4,2-1.2
		c0-0.3-0.1-0.5-0.3-0.6c-0.2-0.1-0.4-0.3-0.7-0.3c-0.3-0.1-0.7-0.1-1.2-0.2c-0.7-0.1-1.2-0.2-1.7-0.4c-0.4-0.1-0.8-0.4-1.1-0.7
		c-0.3-0.3-0.5-0.8-0.5-1.4c0-0.8,0.3-1.4,1-1.8c0.6-0.5,1.5-0.7,2.6-0.7c0.6,0,1.1,0.1,1.7,0.2s1,0.3,1.4,0.6l-0.7,1.2
		c-0.7-0.4-1.5-0.7-2.4-0.7c-0.7,0-1.1,0.1-1.5,0.3c-0.3,0.2-0.5,0.5-0.5,0.8c0,0.3,0.1,0.5,0.3,0.7c0.2,0.2,0.4,0.3,0.7,0.4
		c0.3,0.1,0.7,0.2,1.2,0.3c0.7,0.1,1.2,0.2,1.7,0.4c0.4,0.1,0.8,0.4,1.1,0.7s0.4,0.8,0.4,1.3c0,0.8-0.3,1.4-1,1.8
		c-0.7,0.5-1.5,0.7-2.7,0.7C290.7,296.5,290,296.4,289.4,296.2z"/>
	<path class="st17" d="M297.4,296.2c-0.6-0.2-1.1-0.4-1.5-0.7l0.6-1.2c0.4,0.3,0.8,0.5,1.4,0.6c0.5,0.2,1.1,0.2,1.6,0.2
		c1.3,0,2-0.4,2-1.2c0-0.3-0.1-0.5-0.3-0.6c-0.2-0.1-0.4-0.3-0.7-0.3c-0.3-0.1-0.7-0.1-1.2-0.2c-0.7-0.1-1.2-0.2-1.7-0.4
		c-0.4-0.1-0.8-0.4-1.1-0.7c-0.3-0.3-0.5-0.8-0.5-1.4c0-0.8,0.3-1.4,1-1.8c0.6-0.5,1.5-0.7,2.6-0.7c0.6,0,1.1,0.1,1.7,0.2
		c0.6,0.1,1,0.3,1.4,0.6l-0.7,1.2c-0.7-0.4-1.5-0.7-2.4-0.7c-0.7,0-1.1,0.1-1.5,0.3c-0.3,0.2-0.5,0.5-0.5,0.8c0,0.3,0.1,0.5,0.3,0.7
		c0.2,0.2,0.4,0.3,0.7,0.4c0.3,0.1,0.7,0.2,1.2,0.3c0.7,0.1,1.2,0.2,1.7,0.4c0.4,0.1,0.8,0.4,1.1,0.7c0.3,0.3,0.4,0.8,0.4,1.3
		c0,0.8-0.3,1.4-1,1.8c-0.7,0.5-1.5,0.7-2.7,0.7C298.7,296.5,298,296.4,297.4,296.2z"/>
	<path class="st17" d="M305,286c-0.2-0.2-0.3-0.4-0.3-0.7s0.1-0.5,0.3-0.7s0.4-0.3,0.7-0.3c0.3,0,0.5,0.1,0.7,0.3
		c0.2,0.2,0.3,0.4,0.3,0.7c0,0.3-0.1,0.5-0.3,0.7c-0.2,0.2-0.4,0.3-0.7,0.3C305.5,286.3,305.2,286.2,305,286z M305,287.9h1.5v8.5
		H305V287.9z"/>
	<path class="st17" d="M316.2,288.4c0.7,0.4,1.2,0.9,1.5,1.5c0.4,0.7,0.6,1.4,0.6,2.3c0,0.9-0.2,1.6-0.6,2.3s-0.9,1.2-1.5,1.5
		c-0.7,0.4-1.4,0.5-2.2,0.5c-0.6,0-1.2-0.1-1.7-0.4c-0.5-0.2-1-0.6-1.3-1.1v1.3h-1.5v-11.9h1.5v4.7c0.3-0.4,0.8-0.8,1.3-1
		c0.5-0.2,1.1-0.3,1.7-0.3C314.8,287.8,315.5,288,316.2,288.4z M315.3,294.8c0.4-0.3,0.8-0.6,1-1.1c0.3-0.5,0.4-1,0.4-1.6
		c0-0.6-0.1-1.1-0.4-1.6c-0.3-0.5-0.6-0.8-1-1c-0.4-0.2-0.9-0.4-1.5-0.4c-0.5,0-1,0.1-1.5,0.4s-0.8,0.6-1,1c-0.2,0.5-0.4,1-0.4,1.6
		c0,0.6,0.1,1.1,0.4,1.6c0.2,0.5,0.6,0.8,1,1.1c0.4,0.3,0.9,0.4,1.5,0.4C314.4,295.2,314.9,295,315.3,294.8z"/>
	<path class="st17" d="M320.4,284.5h1.5v11.9h-1.5V284.5z"/>
	<path class="st17" d="M332.5,292.7h-6.9c0.1,0.7,0.4,1.3,1,1.8c0.6,0.5,1.3,0.7,2.1,0.7c1,0,1.8-0.3,2.4-1l0.8,1
		c-0.4,0.4-0.9,0.8-1.4,1c-0.6,0.2-1.2,0.4-1.9,0.4c-0.9,0-1.7-0.2-2.4-0.6c-0.7-0.4-1.2-0.9-1.6-1.5c-0.4-0.7-0.6-1.4-0.6-2.2
		c0-0.8,0.2-1.6,0.6-2.2c0.4-0.7,0.9-1.2,1.5-1.5s1.4-0.6,2.2-0.6c0.8,0,1.5,0.2,2.2,0.6c0.6,0.4,1.1,0.9,1.5,1.5s0.5,1.4,0.5,2.3
		C332.5,292.3,332.5,292.5,332.5,292.7z M326.5,289.8c-0.5,0.4-0.8,1-0.9,1.8h5.4c-0.1-0.7-0.4-1.3-0.9-1.8
		c-0.5-0.5-1.1-0.7-1.8-0.7C327.6,289.1,326.9,289.4,326.5,289.8z"/>
	<path class="st17" d="M338.9,284.5h1.5v11.9h-1.5V284.5z"/>
	<path class="st17" d="M349.2,288.7c0.6,0.6,0.9,1.4,0.9,2.6v5.1h-1.5v-1.1c-0.3,0.4-0.6,0.7-1.1,0.9s-1,0.3-1.7,0.3
		c-0.9,0-1.7-0.2-2.3-0.7c-0.6-0.5-0.9-1.1-0.9-1.8c0-0.7,0.3-1.3,0.8-1.8c0.5-0.5,1.4-0.7,2.6-0.7h2.4v-0.3c0-0.7-0.2-1.2-0.6-1.5
		c-0.4-0.4-1-0.5-1.7-0.5c-0.5,0-1,0.1-1.5,0.2c-0.5,0.2-0.9,0.4-1.2,0.7l-0.6-1.2c0.4-0.4,1-0.6,1.6-0.8c0.6-0.2,1.3-0.3,1.9-0.3
		C347.6,287.8,348.5,288.1,349.2,288.7z M347.6,294.9c0.4-0.3,0.7-0.6,0.9-1.1v-1.2h-2.4c-1.3,0-2,0.4-2,1.3c0,0.4,0.2,0.8,0.5,1
		c0.3,0.2,0.8,0.4,1.4,0.4C346.7,295.3,347.2,295.2,347.6,294.9z"/>
	<path class="st17" d="M124,307.1l-3.7,8.5h-1.6l-3.7-8.5h1.6l2.9,6.8l3-6.8H124z"/>
	<path class="st17" d="M125.4,305.2c-0.2-0.2-0.3-0.4-0.3-0.7s0.1-0.5,0.3-0.7s0.4-0.3,0.7-0.3c0.3,0,0.5,0.1,0.7,0.3
		c0.2,0.2,0.3,0.4,0.3,0.7c0,0.3-0.1,0.5-0.3,0.7c-0.2,0.2-0.4,0.3-0.7,0.3C125.9,305.5,125.6,305.4,125.4,305.2z M125.4,307.1h1.5
		v8.5h-1.5V307.1z"/>
	<path class="st17" d="M137.5,311.9h-6.9c0.1,0.7,0.4,1.3,1,1.8s1.3,0.7,2.1,0.7c1,0,1.8-0.3,2.4-1l0.8,1c-0.4,0.4-0.9,0.8-1.4,1
		c-0.6,0.2-1.2,0.4-1.9,0.4c-0.9,0-1.7-0.2-2.4-0.6c-0.7-0.4-1.2-0.9-1.6-1.5c-0.4-0.7-0.6-1.4-0.6-2.2c0-0.8,0.2-1.6,0.6-2.2
		c0.4-0.7,0.9-1.2,1.5-1.5c0.6-0.4,1.4-0.6,2.2-0.6c0.8,0,1.5,0.2,2.2,0.6c0.6,0.4,1.1,0.9,1.5,1.5s0.5,1.4,0.5,2.3
		C137.6,311.5,137.5,311.7,137.5,311.9z M131.5,309c-0.5,0.4-0.8,1-0.9,1.8h5.4c-0.1-0.7-0.4-1.3-0.9-1.8c-0.5-0.5-1.1-0.7-1.8-0.7
		C132.6,308.3,132,308.6,131.5,309z"/>
	<path class="st17" d="M144.4,315.4c-0.6-0.2-1.1-0.4-1.5-0.7l0.6-1.2c0.4,0.3,0.8,0.5,1.4,0.6c0.5,0.2,1.1,0.2,1.6,0.2
		c1.3,0,2-0.4,2-1.2c0-0.3-0.1-0.5-0.3-0.6c-0.2-0.1-0.4-0.3-0.7-0.3s-0.7-0.1-1.2-0.2c-0.7-0.1-1.2-0.2-1.7-0.4s-0.8-0.4-1.1-0.7
		c-0.3-0.3-0.5-0.8-0.5-1.4c0-0.8,0.3-1.4,1-1.8c0.6-0.5,1.5-0.7,2.6-0.7c0.6,0,1.1,0.1,1.7,0.2c0.6,0.1,1,0.3,1.4,0.6l-0.7,1.2
		c-0.7-0.4-1.5-0.7-2.4-0.7c-0.7,0-1.1,0.1-1.5,0.3c-0.3,0.2-0.5,0.5-0.5,0.8c0,0.3,0.1,0.5,0.3,0.7s0.4,0.3,0.7,0.4
		c0.3,0.1,0.7,0.2,1.2,0.3c0.7,0.1,1.2,0.2,1.7,0.4c0.4,0.1,0.8,0.4,1.1,0.7c0.3,0.3,0.4,0.8,0.4,1.3c0,0.8-0.3,1.4-1,1.8
		c-0.7,0.5-1.5,0.7-2.7,0.7C145.7,315.7,145.1,315.6,144.4,315.4z"/>
	<path class="st17" d="M153.4,315.1c-0.7-0.4-1.2-0.9-1.6-1.5c-0.4-0.7-0.6-1.4-0.6-2.2c0-0.8,0.2-1.6,0.6-2.2
		c0.4-0.7,0.9-1.2,1.6-1.5s1.4-0.6,2.3-0.6c0.8,0,1.5,0.2,2.1,0.5s1.1,0.8,1.4,1.3l-1.2,0.8c-0.3-0.4-0.6-0.7-1-0.9
		c-0.4-0.2-0.8-0.3-1.3-0.3c-0.6,0-1.1,0.1-1.5,0.4c-0.4,0.2-0.8,0.6-1,1c-0.3,0.5-0.4,1-0.4,1.6c0,0.6,0.1,1.1,0.4,1.6
		c0.3,0.5,0.6,0.8,1,1c0.4,0.2,0.9,0.4,1.5,0.4c0.5,0,0.9-0.1,1.3-0.3c0.4-0.2,0.7-0.5,1-0.9l1.2,0.7c-0.3,0.6-0.8,1-1.4,1.4
		c-0.6,0.3-1.3,0.5-2.1,0.5C154.8,315.7,154.1,315.5,153.4,315.1z"/>
	<path class="st17" d="M162.4,315.1c-0.7-0.4-1.2-0.9-1.6-1.5c-0.4-0.7-0.6-1.4-0.6-2.2c0-0.8,0.2-1.6,0.6-2.2
		c0.4-0.7,0.9-1.2,1.6-1.5s1.4-0.6,2.3-0.6s1.6,0.2,2.3,0.6c0.7,0.4,1.2,0.9,1.6,1.5c0.4,0.7,0.6,1.4,0.6,2.2c0,0.8-0.2,1.6-0.6,2.2
		c-0.4,0.7-0.9,1.2-1.6,1.5c-0.7,0.4-1.4,0.6-2.3,0.6S163,315.5,162.4,315.1z M166.1,314c0.4-0.3,0.8-0.6,1-1.1s0.4-1,0.4-1.6
		c0-0.6-0.1-1.1-0.4-1.6s-0.6-0.8-1-1c-0.4-0.2-0.9-0.4-1.5-0.4s-1,0.1-1.5,0.4s-0.8,0.6-1,1c-0.3,0.5-0.4,1-0.4,1.6
		c0,0.6,0.1,1.1,0.4,1.6c0.3,0.5,0.6,0.8,1,1.1c0.4,0.3,0.9,0.4,1.5,0.4S165.7,314.2,166.1,314z"/>
	<path class="st17" d="M171.2,303.7h1.5v11.9h-1.5V303.7z"/>
	<path class="st17" d="M181.4,307.9c0.6,0.6,0.9,1.4,0.9,2.6v5.1h-1.5v-1.1c-0.3,0.4-0.6,0.7-1.1,0.9s-1,0.3-1.7,0.3
		c-0.9,0-1.7-0.2-2.3-0.7c-0.6-0.5-0.9-1.1-0.9-1.8c0-0.7,0.3-1.3,0.8-1.8c0.5-0.5,1.4-0.7,2.6-0.7h2.4v-0.3c0-0.7-0.2-1.2-0.6-1.5
		c-0.4-0.4-0.9-0.5-1.7-0.5c-0.5,0-1,0.1-1.5,0.2c-0.5,0.2-0.9,0.4-1.2,0.7l-0.6-1.2c0.4-0.4,1-0.6,1.6-0.8s1.3-0.3,1.9-0.3
		C179.9,307,180.8,307.3,181.4,307.9z M179.9,314.1c0.4-0.3,0.7-0.6,0.9-1.1v-1.2h-2.4c-1.3,0-2,0.4-2,1.3c0,0.4,0.2,0.8,0.5,1
		c0.3,0.2,0.8,0.4,1.4,0.4S179.5,314.4,179.9,314.1z"/>
	<path class="st17" d="M185.2,305.2c-0.2-0.2-0.3-0.4-0.3-0.7s0.1-0.5,0.3-0.7s0.4-0.3,0.7-0.3c0.3,0,0.5,0.1,0.7,0.3
		c0.2,0.2,0.3,0.4,0.3,0.7c0,0.3-0.1,0.5-0.3,0.7c-0.2,0.2-0.4,0.3-0.7,0.3C185.7,305.5,185.4,305.4,185.2,305.2z M185.2,307.1h1.5
		v8.5h-1.5V307.1z"/>
	<path class="st17" d="M192.3,307.4c0.5-0.3,1.2-0.4,1.9-0.4v1.5c-0.1,0-0.2,0-0.4,0c-0.8,0-1.5,0.2-2,0.7s-0.7,1.2-0.7,2.1v4.2
		h-1.5v-8.5h1.5v1.4C191.4,308.1,191.8,307.7,192.3,307.4z"/>
	<path class="st17" d="M203.7,311.9h-6.9c0.1,0.7,0.4,1.3,1,1.8s1.3,0.7,2.1,0.7c1,0,1.8-0.3,2.4-1l0.8,1c-0.4,0.4-0.9,0.8-1.4,1
		c-0.6,0.2-1.2,0.4-1.9,0.4c-0.9,0-1.7-0.2-2.4-0.6c-0.7-0.4-1.2-0.9-1.6-1.5c-0.4-0.7-0.6-1.4-0.6-2.2c0-0.8,0.2-1.6,0.6-2.2
		c0.4-0.7,0.9-1.2,1.5-1.5c0.6-0.4,1.4-0.6,2.2-0.6c0.8,0,1.5,0.2,2.2,0.6c0.6,0.4,1.1,0.9,1.5,1.5s0.5,1.4,0.5,2.3
		C203.7,311.5,203.7,311.7,203.7,311.9z M197.7,309c-0.5,0.4-0.8,1-0.9,1.8h5.4c-0.1-0.7-0.4-1.3-0.9-1.8c-0.5-0.5-1.1-0.7-1.8-0.7
		C198.8,308.3,198.1,308.6,197.7,309z"/>
	<path class="st17" d="M215.9,307.9c0.6,0.6,0.9,1.4,0.9,2.6v5.1h-1.5v-1.1c-0.3,0.4-0.6,0.7-1.1,0.9s-1,0.3-1.7,0.3
		c-0.9,0-1.7-0.2-2.3-0.7c-0.6-0.5-0.9-1.1-0.9-1.8c0-0.7,0.3-1.3,0.8-1.8c0.5-0.5,1.4-0.7,2.6-0.7h2.4v-0.3c0-0.7-0.2-1.2-0.6-1.5
		c-0.4-0.4-0.9-0.5-1.7-0.5c-0.5,0-1,0.1-1.5,0.2c-0.5,0.2-0.9,0.4-1.2,0.7l-0.6-1.2c0.4-0.4,1-0.6,1.6-0.8s1.3-0.3,1.9-0.3
		C214.4,307,215.3,307.3,215.9,307.9z M214.4,314.1c0.4-0.3,0.7-0.6,0.9-1.1v-1.2h-2.4c-1.3,0-2,0.4-2,1.3c0,0.4,0.2,0.8,0.5,1
		c0.3,0.2,0.8,0.4,1.4,0.4S214,314.4,214.4,314.1z"/>
	<path class="st17" d="M227.6,307.1v8.5h-1.5v-1.3c-0.3,0.4-0.7,0.8-1.2,1c-0.5,0.2-1.1,0.4-1.7,0.4c-1.1,0-2-0.3-2.7-0.9
		c-0.7-0.6-1-1.5-1-2.8v-4.9h1.5v4.7c0,0.8,0.2,1.4,0.6,1.9c0.4,0.4,1,0.6,1.7,0.6c0.8,0,1.5-0.2,1.9-0.7c0.5-0.5,0.7-1.2,0.7-2.1
		v-4.4H227.6z"/>
	<path class="st9" d="M236.4,315c-0.7-0.5-1.2-1.1-1.6-2c-0.4-0.9-0.6-1.9-0.6-3.1c0-1.2,0.2-2.2,0.6-3.1s0.9-1.5,1.6-2
		s1.5-0.7,2.4-0.7c0.9,0,1.7,0.2,2.3,0.7s1.2,1.1,1.6,2s0.6,1.9,0.6,3.1c0,1.2-0.2,2.2-0.6,3.1c-0.4,0.9-0.9,1.5-1.6,2
		s-1.5,0.7-2.3,0.7C237.8,315.7,237,315.5,236.4,315z M240.9,313.2c0.5-0.7,0.8-1.8,0.8-3.2s-0.3-2.5-0.8-3.2
		c-0.5-0.7-1.3-1.1-2.2-1.1c-0.9,0-1.6,0.4-2.2,1.1s-0.8,1.8-0.8,3.2s0.3,2.5,0.8,3.2c0.5,0.7,1.3,1.1,2.2,1.1
		C239.6,314.3,240.3,313.9,240.9,313.2z"/>
	<path class="st9" d="M251.9,305.7c0.8,1,1.2,2.3,1.2,4.1c0,1.2-0.2,2.3-0.7,3.2c-0.4,0.9-1.1,1.5-1.9,2s-1.7,0.7-2.8,0.7
		c-0.5,0-1.1-0.1-1.5-0.2c-0.5-0.1-0.9-0.3-1.2-0.5l0.6-1.2c0.5,0.4,1.3,0.5,2.2,0.5c1.2,0,2.1-0.4,2.7-1.1c0.7-0.7,1-1.8,1-3.1
		v-0.4c-0.3,0.5-0.8,0.8-1.3,1.1c-0.6,0.3-1.2,0.4-1.9,0.4c-0.7,0-1.4-0.1-2-0.4s-1-0.7-1.4-1.2c-0.3-0.5-0.5-1.1-0.5-1.8
		c0-0.7,0.2-1.3,0.5-1.9s0.8-0.9,1.4-1.2c0.6-0.3,1.3-0.4,2-0.4C249.9,304.3,251.1,304.8,251.9,305.7z M249.9,309.6
		c0.4-0.2,0.7-0.5,0.9-0.8c0.2-0.3,0.3-0.7,0.3-1.1c0-0.4-0.1-0.8-0.3-1.1c-0.2-0.3-0.5-0.6-0.9-0.8c-0.4-0.2-0.9-0.3-1.4-0.3
		c-0.7,0-1.3,0.2-1.8,0.6c-0.5,0.4-0.7,0.9-0.7,1.6s0.2,1.2,0.7,1.6c0.5,0.4,1.1,0.6,1.9,0.6C249.1,309.9,249.5,309.8,249.9,309.6z"
		/>
	<path class="st9" d="M254.8,315.4c-0.2-0.2-0.3-0.5-0.3-0.8c0-0.3,0.1-0.6,0.3-0.8c0.2-0.2,0.5-0.3,0.8-0.3s0.5,0.1,0.8,0.3
		c0.2,0.2,0.3,0.5,0.3,0.8s-0.1,0.6-0.3,0.8s-0.5,0.3-0.7,0.3C255.3,315.7,255,315.6,254.8,315.4z"/>
	<path class="st9" d="M266.6,310.8c0.3,0.5,0.5,1,0.5,1.6c0,0.7-0.2,1.3-0.5,1.8c-0.4,0.5-0.9,0.9-1.6,1.1s-1.5,0.4-2.4,0.4
		c-0.9,0-1.7-0.1-2.3-0.4c-0.7-0.3-1.2-0.6-1.5-1.1s-0.5-1.1-0.5-1.8c0-0.6,0.2-1.2,0.5-1.6c0.3-0.5,0.8-0.8,1.5-1.1
		c-0.5-0.2-0.9-0.6-1.2-1s-0.4-0.9-0.4-1.4c0-0.6,0.2-1.2,0.5-1.6c0.3-0.5,0.8-0.8,1.4-1.1c0.6-0.2,1.3-0.4,2.1-0.4
		c0.8,0,1.5,0.1,2.1,0.4c0.6,0.2,1.1,0.6,1.4,1.1c0.3,0.5,0.5,1,0.5,1.6c0,0.5-0.1,1-0.4,1.4c-0.3,0.4-0.7,0.7-1.2,1
		C265.8,310,266.3,310.3,266.6,310.8z M264.7,313.9c0.5-0.4,0.8-0.9,0.8-1.5c0-0.6-0.3-1.1-0.8-1.5s-1.2-0.5-2.1-0.5
		c-0.9,0-1.6,0.2-2.1,0.5c-0.5,0.4-0.8,0.8-0.8,1.5c0,0.6,0.3,1.1,0.8,1.5c0.5,0.4,1.2,0.6,2.1,0.6
		C263.5,314.4,264.2,314.2,264.7,313.9z M260.9,306.1c-0.4,0.3-0.7,0.8-0.7,1.3s0.2,1,0.6,1.3c0.4,0.3,1,0.5,1.8,0.5
		c0.8,0,1.4-0.2,1.8-0.5c0.4-0.3,0.7-0.8,0.7-1.3s-0.2-1-0.7-1.3c-0.5-0.3-1.1-0.5-1.8-0.5C261.9,305.6,261.3,305.7,260.9,306.1z"/>
	<path class="st9" d="M275.4,310.1c0.6,0.6,0.9,1.3,0.9,2.2c0,0.6-0.2,1.2-0.5,1.7s-0.8,0.9-1.4,1.2c-0.6,0.3-1.4,0.5-2.3,0.5
		c-0.8,0-1.6-0.1-2.3-0.4c-0.7-0.2-1.3-0.6-1.8-1l0.7-1.3c0.4,0.4,0.9,0.7,1.5,0.9c0.6,0.2,1.2,0.3,1.9,0.3c0.8,0,1.5-0.2,1.9-0.5
		c0.5-0.4,0.7-0.8,0.7-1.5c0-0.6-0.2-1.1-0.7-1.4c-0.5-0.3-1.2-0.5-2.1-0.5H271v-1.1l2.8-3.5h-5.4v-1.4h7.4v1.1l-2.9,3.6
		C274,309.2,274.8,309.5,275.4,310.1z"/>
	<path class="st9" d="M278,315.4c-0.2-0.2-0.3-0.5-0.3-0.8c0-0.3,0.1-0.6,0.3-0.8c0.2-0.2,0.5-0.3,0.8-0.3s0.5,0.1,0.8,0.3
		c0.2,0.2,0.3,0.5,0.3,0.8s-0.1,0.6-0.3,0.8s-0.5,0.3-0.7,0.3C278.5,315.7,278.2,315.6,278,315.4z"/>
	<path class="st9" d="M288,309.2c0.6,0.3,1,0.7,1.4,1.2c0.3,0.5,0.5,1.1,0.5,1.8c0,0.7-0.2,1.3-0.5,1.9s-0.8,0.9-1.4,1.2
		c-0.6,0.3-1.3,0.4-2,0.4c-1.5,0-2.7-0.5-3.5-1.5c-0.8-1-1.2-2.3-1.2-4.1c0-1.2,0.2-2.3,0.7-3.2c0.4-0.9,1.1-1.5,1.9-2
		s1.7-0.7,2.8-0.7c0.5,0,1.1,0.1,1.5,0.2c0.5,0.1,0.9,0.3,1.2,0.5l-0.6,1.2c-0.5-0.4-1.2-0.5-2.1-0.5c-1.2,0-2.1,0.4-2.7,1.1
		c-0.7,0.7-1,1.8-1,3.1c0,0.2,0,0.3,0,0.4c0.3-0.5,0.8-0.8,1.3-1.1c0.6-0.3,1.2-0.4,1.9-0.4C286.7,308.8,287.4,308.9,288,309.2z
		 M287.6,313.8c0.5-0.4,0.7-0.9,0.7-1.6s-0.2-1.2-0.7-1.6c-0.5-0.4-1.1-0.6-1.9-0.6c-0.5,0-0.9,0.1-1.3,0.3s-0.7,0.5-0.9,0.8
		s-0.3,0.7-0.3,1.1c0,0.4,0.1,0.8,0.3,1.1c0.2,0.3,0.5,0.6,0.9,0.8c0.4,0.2,0.9,0.3,1.4,0.3C286.6,314.4,287.2,314.2,287.6,313.8z"
		/>
	<path class="st9" d="M297.9,309.2c0.6,0.3,1,0.7,1.4,1.2c0.3,0.5,0.5,1.1,0.5,1.8c0,0.7-0.2,1.3-0.5,1.9s-0.8,0.9-1.4,1.2
		c-0.6,0.3-1.3,0.4-2,0.4c-1.5,0-2.7-0.5-3.5-1.5c-0.8-1-1.2-2.3-1.2-4.1c0-1.2,0.2-2.3,0.7-3.2c0.4-0.9,1.1-1.5,1.9-2
		s1.7-0.7,2.8-0.7c0.5,0,1.1,0.1,1.5,0.2c0.5,0.1,0.9,0.3,1.2,0.5l-0.6,1.2c-0.5-0.4-1.2-0.5-2.1-0.5c-1.2,0-2.1,0.4-2.7,1.1
		c-0.7,0.7-1,1.8-1,3.1c0,0.2,0,0.3,0,0.4c0.3-0.5,0.8-0.8,1.3-1.1c0.6-0.3,1.2-0.4,1.9-0.4C296.6,308.8,297.3,308.9,297.9,309.2z
		 M297.5,313.8c0.5-0.4,0.7-0.9,0.7-1.6s-0.2-1.2-0.7-1.6c-0.5-0.4-1.1-0.6-1.9-0.6c-0.5,0-0.9,0.1-1.3,0.3s-0.7,0.5-0.9,0.8
		s-0.3,0.7-0.3,1.1c0,0.4,0.1,0.8,0.3,1.1c0.2,0.3,0.5,0.6,0.9,0.8c0.4,0.2,0.9,0.3,1.4,0.3C296.4,314.4,297,314.2,297.5,313.8z"/>
	<path class="st9" d="M301.4,315.4c-0.2-0.2-0.3-0.5-0.3-0.8c0-0.3,0.1-0.6,0.3-0.8c0.2-0.2,0.5-0.3,0.8-0.3c0.3,0,0.5,0.1,0.8,0.3
		c0.2,0.2,0.3,0.5,0.3,0.8s-0.1,0.6-0.3,0.8s-0.5,0.3-0.7,0.3C301.8,315.7,301.6,315.6,301.4,315.4z"/>
	<path class="st9" d="M313.2,310.8c0.3,0.5,0.5,1,0.5,1.6c0,0.7-0.2,1.3-0.5,1.8c-0.4,0.5-0.9,0.9-1.6,1.1s-1.5,0.4-2.4,0.4
		c-0.9,0-1.7-0.1-2.3-0.4c-0.7-0.3-1.2-0.6-1.5-1.1s-0.5-1.1-0.5-1.8c0-0.6,0.2-1.2,0.5-1.6c0.3-0.5,0.8-0.8,1.5-1.1
		c-0.5-0.2-0.9-0.6-1.2-1s-0.4-0.9-0.4-1.4c0-0.6,0.2-1.2,0.5-1.6c0.3-0.5,0.8-0.8,1.4-1.1c0.6-0.2,1.3-0.4,2.1-0.4
		c0.8,0,1.5,0.1,2.1,0.4c0.6,0.2,1.1,0.6,1.4,1.1c0.3,0.5,0.5,1,0.5,1.6c0,0.5-0.1,1-0.4,1.4c-0.3,0.4-0.7,0.7-1.2,1
		C312.4,310,312.9,310.3,313.2,310.8z M311.3,313.9c0.5-0.4,0.8-0.9,0.8-1.5c0-0.6-0.3-1.1-0.8-1.5s-1.2-0.5-2.1-0.5
		c-0.9,0-1.6,0.2-2.1,0.5c-0.5,0.4-0.8,0.8-0.8,1.5c0,0.6,0.3,1.1,0.8,1.5c0.5,0.4,1.2,0.6,2.1,0.6
		C310.1,314.4,310.8,314.2,311.3,313.9z M307.5,306.1c-0.4,0.3-0.7,0.8-0.7,1.3s0.2,1,0.6,1.3c0.4,0.3,1,0.5,1.8,0.5
		c0.8,0,1.4-0.2,1.8-0.5c0.4-0.3,0.7-0.8,0.7-1.3s-0.2-1-0.7-1.3c-0.5-0.3-1.1-0.5-1.8-0.5C308.5,305.6,307.9,305.7,307.5,306.1z"/>
	<path class="st9" d="M323.3,304.4v1.1l-4.5,10.1h-1.7l4.4-9.8h-5.1v2h-1.5v-3.4H323.3z"/>
	<path class="st9" d="M324.2,315.4c-0.2-0.2-0.3-0.5-0.3-0.8c0-0.3,0.1-0.6,0.3-0.8c0.2-0.2,0.5-0.3,0.8-0.3s0.5,0.1,0.8,0.3
		c0.2,0.2,0.3,0.5,0.3,0.8s-0.1,0.6-0.3,0.8s-0.5,0.3-0.7,0.3C324.7,315.7,324.4,315.6,324.2,315.4z"/>
	<path class="st9" d="M337.1,312.8H335v2.8h-1.6v-2.8h-6.2v-1.1l5.7-7.3h1.7l-5.5,7.1h4.3V309h1.5v2.4h2.1V312.8z"/>
	<path class="st9" d="M344.8,309.8c0.8,0.6,1.1,1.4,1.1,2.5c0,0.7-0.2,1.3-0.5,1.8c-0.3,0.5-0.8,0.9-1.4,1.2
		c-0.6,0.3-1.4,0.5-2.3,0.5c-0.8,0-1.6-0.1-2.3-0.4c-0.7-0.2-1.3-0.6-1.8-1l0.7-1.3c0.4,0.4,0.9,0.7,1.5,0.9
		c0.6,0.2,1.2,0.3,1.9,0.3c0.8,0,1.5-0.2,2-0.5s0.7-0.8,0.7-1.5c0-0.7-0.3-1.2-0.8-1.5c-0.5-0.3-1.4-0.5-2.6-0.5h-2.5l0.6-5.9h6.3
		v1.4h-5l-0.3,3.1h1.2C342.9,308.9,344,309.2,344.8,309.8z"/>
</g>
<g>
	<path class="st18" d="M125.1,228.9c0.6,0.6,1,1.5,1,2.5c0,0.7-0.2,1.4-0.5,2c-0.4,0.6-0.9,1-1.6,1.4s-1.6,0.5-2.6,0.5
		c-0.9,0-1.8-0.1-2.6-0.4c-0.8-0.3-1.5-0.6-2-1.1l0.8-1.4c0.4,0.4,1,0.7,1.7,1c0.7,0.2,1.4,0.4,2.1,0.4c0.9,0,1.7-0.2,2.2-0.6
		c0.5-0.4,0.8-0.9,0.8-1.6c0-0.7-0.3-1.2-0.8-1.6c-0.5-0.4-1.3-0.6-2.3-0.6h-1V228l3.2-3.9h-6.1v-1.6h8.3v1.2l-3.3,4.1
		C123.5,227.9,124.5,228.3,125.1,228.9z"/>
	<path class="st18" d="M135.4,227.9c0.7,0.3,1.2,0.8,1.5,1.3c0.4,0.6,0.6,1.3,0.6,2c0,0.8-0.2,1.5-0.6,2.1c-0.4,0.6-0.9,1.1-1.6,1.4
		c-0.7,0.3-1.4,0.5-2.3,0.5c-1.7,0-3-0.5-3.9-1.6s-1.4-2.6-1.4-4.6c0-1.4,0.2-2.6,0.7-3.6s1.2-1.7,2.1-2.3c0.9-0.5,1.9-0.8,3.1-0.8
		c0.6,0,1.2,0.1,1.7,0.2s1,0.3,1.4,0.5l-0.7,1.4c-0.6-0.4-1.4-0.6-2.4-0.6c-1.3,0-2.3,0.4-3.1,1.2s-1.1,2-1.1,3.5c0,0.2,0,0.3,0,0.4
		c0.4-0.5,0.9-1,1.5-1.2c0.6-0.3,1.3-0.4,2.1-0.4C134,227.5,134.8,227.6,135.4,227.9z M135,233.1c0.5-0.4,0.8-1,0.8-1.8
		c0-0.7-0.3-1.3-0.8-1.8c-0.5-0.4-1.2-0.7-2.1-0.7c-0.6,0-1.1,0.1-1.5,0.3c-0.4,0.2-0.8,0.5-1,0.9c-0.2,0.4-0.4,0.8-0.4,1.2
		c0,0.4,0.1,0.8,0.4,1.2c0.2,0.4,0.6,0.7,1,0.9c0.4,0.2,1,0.3,1.6,0.3C133.8,233.8,134.5,233.6,135,233.1z"/>
	<path class="st18" d="M142.8,222.5v12.6H141v-11h-2.8v-1.6H142.8z"/>
	<path class="st18" d="M154.4,233.5v1.6h-9.1v-1.2l5.1-4.9c0.6-0.6,1-1.1,1.3-1.6c0.2-0.4,0.3-0.9,0.3-1.3c0-0.7-0.2-1.2-0.7-1.5
		c-0.5-0.4-1.1-0.5-2-0.5c-1.4,0-2.5,0.5-3.2,1.4l-1.2-1.1c0.5-0.6,1.1-1.1,1.9-1.4c0.8-0.3,1.7-0.5,2.7-0.5c1.3,0,2.4,0.3,3.1,0.9
		c0.8,0.6,1.2,1.5,1.2,2.6c0,0.7-0.1,1.3-0.4,1.9c-0.3,0.6-0.8,1.3-1.6,2.1l-3.9,3.7H154.4z"/>
	<path class="st18" d="M163.5,228.9c0.6,0.6,1,1.5,1,2.5c0,0.7-0.2,1.4-0.5,2c-0.4,0.6-0.9,1-1.6,1.4c-0.7,0.3-1.6,0.5-2.6,0.5
		c-0.9,0-1.8-0.1-2.6-0.4c-0.8-0.3-1.5-0.6-2-1.1l0.8-1.4c0.4,0.4,1,0.7,1.7,1c0.7,0.2,1.4,0.4,2.1,0.4c0.9,0,1.7-0.2,2.2-0.6
		c0.5-0.4,0.8-0.9,0.8-1.6c0-0.7-0.3-1.2-0.8-1.6c-0.5-0.4-1.3-0.6-2.3-0.6h-1V228l3.2-3.9h-6.1v-1.6h8.3v1.2l-3.3,4.1
		C161.9,227.9,162.9,228.3,163.5,228.9z"/>
</g>
</svg>
