<?xml version="1.0" encoding="utf-8"?>
<!-- Generator: Adobe Illustrator 23.0.3, SVG Export Plug-In . SVG Version: 6.00 Build 0)  -->
<svg version="1.1" id="Calque_1" xmlns="http://www.w3.org/2000/svg" xmlns:xlink="http://www.w3.org/1999/xlink" x="0px" y="0px"
	 viewBox="0 0 500 460" style="enable-background:new 0 0 500 460;" xml:space="preserve">
<style type="text/css">
	.st0{display:none;opacity:0.5;}
	.st1{display:inline;fill:#36334A;}
	.st2{display:inline;fill:#6C63FF;}
	.st3{display:inline;opacity:0.3;fill:#6C63FF;enable-background:new    ;}
	.st4{fill:#3F3D56;}
	.st5{fill:#E6E8EC;}
	.st6{fill:#36334A;}
	.st7{display:none;fill:#3195FF;}
	.st8{display:none;fill:#6ED397;}
	.st9{fill:#3195FF;}
	.st10{fill:#6ED397;}
	.st11{fill:none;stroke:#FFFFFF;stroke-linecap:round;stroke-miterlimit:10;}
	.st12{fill:none;stroke:#FF00FF;stroke-miterlimit:10;}
	.st13{fill:#F2F2F2;}
	.st14{display:none;}
	.st15{display:inline;fill:#4C4C4C;}
	.st16{display:inline;fill:#3195FF;}
	.st17{fill:#4C4C4C;}
	.st18{fill:#000333;}
</style>
<g>
	<g>
		<g id="ada6f7ae-8394-4767-8700-18704e9e9034">
			<title>note list</title>
			<g class="st0">
				<path class="st1" d="M320,8h364c10.5,0,19,8.5,19,19v83c0,10.5-8.5,19-19,19H320c-10.5,0-19-8.5-19-19V27
					C301,16.5,309.5,8,320,8z"/>
				<rect x="350" y="34" class="st2" width="93" height="21"/>
				<rect x="350" y="68" class="st3" width="285" height="11"/>
				<rect x="350" y="92" class="st3" width="114" height="11"/>
			</g>
			<g class="st0">
				<path class="st1" d="M-184,106.5h364c10.5,0,19,8.5,19,19v82.9c0,10.5-8.5,19-19,19h-364c-10.5,0-19-8.5-19-19v-82.9
					C-203,115-194.5,106.5-184,106.5z"/>
				<rect x="-154" y="132.5" class="st1" width="93" height="21"/>
				<rect x="-154" y="166.5" class="st1" width="285" height="11"/>
				<rect x="-154" y="190.5" class="st1" width="114" height="11"/>
				<path class="st1" d="M-184,106.5h364c10.5,0,19,8.5,19,19v82.9c0,10.5-8.5,19-19,19h-364c-10.5,0-19-8.5-19-19v-82.9
					C-203,115-194.5,106.5-184,106.5z"/>
				<rect x="-154" y="132.5" class="st2" width="93" height="21"/>
				<rect x="-154" y="166.5" class="st3" width="285" height="11"/>
				<rect x="-154" y="190.5" class="st3" width="114" height="11"/>
			</g>
			<path class="st4" d="M418.9,219.5h5.7c1.3,0,2.3,1,2.3,2.3v80.4c0,1.3-1,2.3-2.3,2.3h-5.7c-1.3,0-2.3-1-2.3-2.3v-80.4
				C416.6,220.6,417.6,219.5,418.9,219.5z"/>
			<path class="st4" d="M75.3,152.9h2.8c0.8,0,1.5,0.7,1.5,1.5v25c0,0.8-0.7,1.5-1.5,1.5h-2.8c-0.8,0-1.5-0.7-1.5-1.5v-25
				C73.8,153.6,74.4,152.9,75.3,152.9z"/>
			<path class="st4" d="M75.2,204.2h3.1c0.9,0,1.7,0.8,1.7,1.7v45.3c0,0.9-0.8,1.7-1.7,1.7h-3.1c-0.9,0-1.7-0.8-1.7-1.7v-45.3
				C73.5,204.9,74.3,204.2,75.2,204.2z"/>
			<path class="st4" d="M75.3,269.9h3c0.9,0,1.6,0.7,1.6,1.6v45.9c0,0.9-0.7,1.6-1.6,1.6h-3c-0.9,0-1.6-0.7-1.6-1.6v-45.9
				C73.6,270.7,74.4,269.9,75.3,269.9z"/>
			<path class="st4" d="M112.7,60.4h273.7c19.7,0,35.7,16,35.7,35.7v630c0,19.7-16,35.7-35.7,35.7H112.7c-19.7,0-35.7-16-35.7-35.7
				v-630C77,76.4,93,60.4,112.7,60.4z"/>
			<path class="st5" d="M218.8,81.4H262c1.4,0,2.5,1.1,2.5,2.5v4.7c0,1.4-1.1,2.5-2.5,2.5h-43.1c-1.4,0-2.5-1.1-2.5-2.5v-4.7
				C216.3,82.5,217.4,81.4,218.8,81.4z"/>
			<circle class="st5" cx="277.3" cy="86.3" r="5.5"/>
			<path class="st6" d="M400.8,106.1v610c0,15.1-12.3,27.4-27.4,27.4H125.8c-15.1,0-27.4-12.3-27.4-27.4v-610
				c0-15.1,12.3-27.4,27.4-27.4l0,0h37.1v4.8c0,12.5,10.1,22.6,22.6,22.6h126c12.4,0,22.5-10.1,22.5-22.6v-4.8h39.5
				C388.5,78.7,400.8,91,400.8,106.1z"/>
			<rect x="107" y="137" class="st4" width="31" height="4"/>
			<rect x="107" y="144" class="st4" width="31" height="4"/>
			<rect x="107" y="151" class="st4" width="31" height="4"/>
			<rect x="107" y="137" class="st5" width="31" height="4"/>
			<rect x="107" y="144" class="st5" width="31" height="4"/>
			<rect x="107" y="151" class="st5" width="31" height="4"/>
			<path class="st5" d="M386.7,147h-0.9l-0.3-0.3c1.1-1.4,1.8-3.1,1.8-4.9c0-4.1-3.4-7.4-7.5-7.4s-7.4,3.4-7.4,7.5s3.4,7.4,7.5,7.4
				c1.8,0,3.5-0.6,4.9-1.8l0.3,0.3v0.9l5.7,5.8l1.7-1.7L386.7,147z M379.8,147c-2.9,0-5.2-2.3-5.2-5.2s2.3-5.2,5.2-5.2
				s5.2,2.3,5.2,5.2l0,0C385,144.7,382.7,147,379.8,147L379.8,147L379.8,147z"/>
			<rect x="107" y="208" class="st7" width="93" height="21"/>
			<rect x="107" y="242" class="st8" width="285" height="11"/>
			<rect x="107" y="266" class="st8" width="114" height="11"/>
			<rect x="107" y="322" class="st7" width="93" height="21"/>
			<rect x="107" y="356" class="st8" width="285" height="11"/>
			<rect x="107" y="380" class="st8" width="114" height="11"/>
			<rect x="107" y="404" class="st9" width="93" height="21"/>
			<rect x="107" y="438" class="st10" width="285" height="11"/>
			<rect x="107" y="462" class="st10" width="114" height="11"/>
			<rect x="107" y="526" class="st9" width="93" height="21"/>
			<rect x="107" y="560" class="st10" width="285" height="11"/>
			<rect x="107" y="584" class="st10" width="114" height="11"/>
			<circle class="st9" cx="341" cy="684" r="34"/>
			<path class="st11" d="M358.3,681.3v16.4c0,0.7-0.6,1.3-1.3,1.3h-33.5c-0.7,0-1.3-0.6-1.3-1.3v-26.2c0-0.7,0.6-1.3,1.3-1.3h23.3"
				/>
			<line class="st11" x1="328.7" y1="680" x2="351.3" y2="680"/>
			<line class="st11" x1="329" y1="684.7" x2="351.7" y2="684.7"/>
			<line class="st11" x1="329.3" y1="689.3" x2="352" y2="689.3"/>
			<line class="st12" x1="354" y1="669" x2="354" y2="680.3"/>
			<line class="st12" x1="359.7" y1="674.7" x2="348.3" y2="674.7"/>
			<line class="st11" x1="354" y1="669" x2="354" y2="680.3"/>
			<line class="st11" x1="359.7" y1="674.7" x2="348.3" y2="674.7"/>
			<path class="st8" d="M-24,303h364c10.5,0,19,8.5,19,19v83c0,10.5-8.5,19-19,19H-24c-10.5,0-19-8.5-19-19v-83
				C-43,311.5-34.5,303-24,303z"/>
		</g>
	</g>
</g>
<g id="Calque_3">
	<path class="st13" d="M375.9,356H123.1c-8.9,0-16.1-7.2-16.1-16.1V224.1c0-8.9,7.2-16.1,16.1-16.1h252.8c8.9,0,16.1,7.2,16.1,16.1
		v115.8C392,348.8,384.8,356,375.9,356z"/>
	<g class="st14">
		<path class="st15" d="M128.6,271.6l-3,12.5h-1l-3-12.5h1l2.4,10.2l2.5-10.2H128.6z"/>
		<path class="st15" d="M129.7,283.6c-0.4-0.4-0.7-1-1-1.8c-0.2-0.8-0.3-1.5-0.3-2.6s0.1-1.8,0.3-2.6c0.2-0.8,0.6-1.3,1-1.7
			s0.9-0.6,1.4-0.6s1,0.3,1.4,0.6s0.7,1,1,1.7c0.2,0.8,0.3,1.5,0.3,2.6s-0.1,1.8-0.3,2.6c-0.2,0.8-0.6,1.3-1,1.8
			c-0.4,0.4-0.8,0.6-1.4,0.6C130.6,284.3,130.1,284,129.7,283.6z M132,282.3c0.3-0.3,0.5-0.6,0.6-1.2c0.1-0.5,0.2-1.2,0.2-1.8
			s-0.1-1.3-0.2-1.8c-0.1-0.5-0.3-0.9-0.6-1.2s-0.6-0.4-0.9-0.4s-0.6,0.1-0.9,0.4c-0.3,0.3-0.5,0.6-0.6,1.2
			c-0.1,0.5-0.2,1.2-0.2,1.8s0.1,1.3,0.2,1.8c0.1,0.5,0.3,0.9,0.6,1.2c0.3,0.3,0.6,0.4,0.9,0.4S131.7,282.6,132,282.3z"/>
		<path class="st15" d="M139.9,274.7v9.5H139v-1.4c-0.2,0.5-0.4,0.9-0.8,1.2c-0.3,0.3-0.6,0.4-1,0.4c-0.7,0-1.3-0.4-1.6-1
			c-0.4-0.6-0.6-1.8-0.6-3.1v-5.5h0.9v5.2c0,0.9,0.1,1.7,0.3,2c0.2,0.4,0.6,0.8,1,0.8s0.9-0.3,1.2-0.8s0.4-1.3,0.4-2.3v-4.9h1v-0.1
			H139.9z"/>
		<path class="st15" d="M142,283.9c-0.4-0.3-0.7-0.5-0.9-0.8l0.4-1.4c0.2,0.3,0.5,0.5,0.8,0.8s0.6,0.3,1,0.3c0.8,0,1.3-0.4,1.3-1.3
			c0-0.3-0.1-0.5-0.1-0.6c-0.1-0.1-0.3-0.3-0.4-0.4s-0.4-0.1-0.7-0.3c-0.4-0.1-0.8-0.3-1-0.4c-0.3-0.1-0.5-0.4-0.7-0.8
			s-0.3-0.9-0.3-1.5c0-0.9,0.2-1.5,0.6-2c0.4-0.5,0.9-0.8,1.6-0.8c0.3,0,0.7,0.1,1,0.3c0.3,0.1,0.6,0.4,0.8,0.6L145,277
			c-0.4-0.5-0.9-0.8-1.5-0.8c-0.4,0-0.7,0.1-0.9,0.4s-0.3,0.5-0.3,0.9c0,0.3,0.1,0.5,0.2,0.8c0.1,0.1,0.3,0.3,0.4,0.4
			s0.4,0.1,0.7,0.3c0.4,0.1,0.8,0.3,1,0.4s0.5,0.4,0.6,0.8c0.2,0.4,0.3,0.9,0.3,1.5c0,0.9-0.2,1.5-0.6,2c-0.4,0.5-1,0.8-1.6,0.8
			C142.7,284.3,142.4,284.1,142,283.9z"/>
		<path class="st15" d="M154.1,270.8v13.3h-0.9v-1.5c-0.2,0.5-0.5,0.9-0.8,1.2c-0.3,0.3-0.7,0.4-1,0.4c-0.5,0-1-0.3-1.3-0.6
			c-0.4-0.4-0.7-1-0.9-1.7c-0.2-0.8-0.3-1.5-0.3-2.6c0-1,0.1-1.8,0.3-2.6c0.2-0.8,0.6-1.3,0.9-1.7c0.4-0.4,0.8-0.6,1.3-0.6
			c0.3,0,0.7,0.1,1,0.4s0.6,0.6,0.8,1.2v-5.2L154.1,270.8L154.1,270.8z M152.3,282.3c0.3-0.3,0.5-0.6,0.6-1.2
			c0.1-0.5,0.2-1.2,0.2-1.8s-0.1-1.3-0.2-1.8c-0.1-0.5-0.3-0.9-0.6-1.2s-0.6-0.4-0.9-0.4s-0.6,0.1-0.9,0.4s-0.5,0.6-0.6,1.2
			c-0.1,0.5-0.2,1.2-0.2,1.8s0.1,1.3,0.2,1.8c0.1,0.5,0.3,0.9,0.6,1.2s0.6,0.4,0.9,0.4S152.1,282.6,152.3,282.3z"/>
		<path class="st15" d="M160.5,279.9h-4.2c0.1,0.9,0.3,1.5,0.6,2s0.8,0.8,1.3,0.8c0.6,0,1.1-0.4,1.5-1.2l0.5,1.2
			c-0.2,0.5-0.6,0.9-0.9,1.2c-0.3,0.3-0.8,0.4-1.2,0.4c-0.6,0-1-0.3-1.5-0.6c-0.4-0.4-0.8-1-1-1.8s-0.3-1.5-0.3-2.6
			c0-0.9,0.1-1.8,0.3-2.4c0.2-0.8,0.6-1.3,0.9-1.8c0.4-0.4,0.8-0.6,1.3-0.6s0.9,0.3,1.3,0.6s0.7,1,0.9,1.8s0.3,1.5,0.3,2.6
			C160.6,279.5,160.6,279.8,160.5,279.9z M156.9,276.7c-0.3,0.5-0.5,1.2-0.6,1.9h3.3c-0.1-0.8-0.2-1.4-0.6-1.9
			c-0.3-0.5-0.7-0.8-1.1-0.8S157.2,276.2,156.9,276.7z M158.6,271h1.2l-1.7,2.3h-0.8L158.6,271z"/>
		<path class="st15" d="M169.9,275.6c0.3,0.6,0.6,1.7,0.6,3.1v5.5h-0.9V279c0-0.9-0.1-1.7-0.3-2c-0.2-0.5-0.6-0.6-1-0.6
			c-0.5,0-0.8,0.3-1.1,0.8s-0.4,1.3-0.4,2.3v4.9h-0.9v-5.2c0-0.9-0.1-1.7-0.3-2c-0.2-0.5-0.6-0.6-1-0.6c-0.5,0-0.8,0.3-1.1,0.8
			s-0.4,1.3-0.4,2.3v4.9H162v-9.5h0.9v1.4c0.2-0.5,0.4-0.9,0.8-1.2c0.3-0.3,0.6-0.4,1-0.4s0.8,0.1,1,0.5c0.3,0.3,0.6,0.8,0.7,1.3
			c0.2-0.5,0.5-1,0.8-1.3s0.8-0.5,1.2-0.5C169,274.5,169.5,274.9,169.9,275.6z"/>
		<path class="st15" d="M176.8,279.9h-4.2c0.1,0.9,0.3,1.5,0.6,2s0.8,0.8,1.3,0.8c0.6,0,1.1-0.4,1.5-1.2l0.5,1.2
			c-0.2,0.5-0.6,0.9-0.9,1.2c-0.3,0.3-0.8,0.4-1.2,0.4c-0.6,0-1-0.3-1.5-0.6c-0.4-0.4-0.8-1-1-1.8s-0.3-1.5-0.3-2.6
			c0-0.9,0.1-1.8,0.3-2.4c0.2-0.8,0.6-1.3,0.9-1.8c0.4-0.4,0.8-0.6,1.3-0.6s0.9,0.3,1.3,0.6c0.4,0.4,0.7,1,0.9,1.8s0.3,1.5,0.3,2.6
			C176.9,279.5,176.9,279.8,176.8,279.9z M173.2,276.7c-0.3,0.5-0.5,1.2-0.6,1.9h3.3c-0.1-0.8-0.2-1.4-0.6-1.9
			c-0.3-0.5-0.7-0.8-1.1-0.8C173.9,275.9,173.5,276.2,173.2,276.7z M174.9,271h1.2l-1.7,2.3h-0.9L174.9,271z"/>
		<path class="st15" d="M182.5,275.6c0.4,0.6,0.6,1.7,0.6,3.1v5.5h-0.9V279c0-0.9-0.1-1.7-0.3-2c-0.2-0.5-0.6-0.6-1-0.6
			s-0.9,0.3-1.2,0.8s-0.4,1.3-0.4,2.3v4.9h-1v-9.5h0.9v1.4c0.2-0.5,0.4-0.9,0.8-1.2c0.3-0.3,0.7-0.4,1.1-0.4
			C181.6,274.5,182.1,274.9,182.5,275.6z"/>
		<path class="st15" d="M188.3,275.6c0.3,0.6,0.6,1.7,0.6,2.9v5.8H188V283c-0.1,0.4-0.3,0.8-0.7,1c-0.3,0.3-0.6,0.4-1,0.4
			c-0.6,0-1-0.3-1.4-0.8c-0.3-0.5-0.5-1.2-0.5-2c0-0.9,0.1-1.5,0.5-2s0.8-0.8,1.6-0.8h1.5v-0.4c0-0.8-0.1-1.3-0.3-1.7
			c-0.2-0.4-0.6-0.6-1-0.6c-0.3,0-0.6,0.1-0.9,0.3c-0.3,0.1-0.6,0.4-0.8,0.8l-0.4-1.3c0.3-0.4,0.6-0.6,1-0.9
			c0.3-0.3,0.8-0.3,1.2-0.3C187.4,274.5,188,274.9,188.3,275.6z M187.4,282.5c0.3-0.3,0.4-0.8,0.6-1.3v-1.3h-1.5
			c-0.8,0-1.2,0.5-1.2,1.4c0,0.5,0.1,0.9,0.3,1.2c0.2,0.3,0.5,0.4,0.8,0.4S187.2,282.7,187.4,282.5z"/>
		<path class="st15" d="M195.7,274.7v8.2c0,1.7-0.2,2.9-0.7,3.7c-0.4,0.8-1.1,1.2-2,1.2c-0.5,0-1-0.1-1.4-0.4s-0.8-0.6-1-1l0.4-1.3
			c0.2,0.4,0.6,0.6,0.9,0.9c0.3,0.3,0.7,0.4,1.1,0.4c0.6,0,1-0.3,1.3-0.8s0.4-1.3,0.4-2.4v-0.8c-0.2,0.5-0.5,0.9-0.8,1.2
			c-0.3,0.3-0.7,0.4-1,0.4c-0.5,0-1-0.3-1.3-0.6c-0.4-0.4-0.7-0.9-1-1.7c-0.2-0.6-0.3-1.5-0.3-2.4s0.1-1.7,0.3-2.4
			c0.2-0.6,0.6-1.3,1-1.7s0.8-0.5,1.3-0.5c0.4,0,0.8,0.1,1.1,0.4s0.6,0.6,0.8,1.2v-1.4L195.7,274.7L195.7,274.7z M193.9,281.8
			c0.3-0.3,0.5-0.6,0.6-1.2c0.1-0.5,0.2-1,0.2-1.7c0-0.9-0.1-1.7-0.5-2.2s-0.8-0.9-1.3-0.9c-0.6,0-1,0.3-1.3,0.9s-0.5,1.3-0.5,2.2
			c0,0.6,0.1,1.2,0.2,1.7c0.1,0.5,0.3,0.9,0.6,1.2c0.3,0.3,0.6,0.4,0.9,0.4C193.3,282.2,193.6,282.1,193.9,281.8z"/>
		<path class="st15" d="M202.1,279.9h-4.2c0.1,0.9,0.3,1.5,0.6,2s0.8,0.8,1.3,0.8c0.6,0,1.1-0.4,1.5-1.2l0.5,1.2
			c-0.2,0.5-0.6,0.9-0.9,1.2c-0.3,0.3-0.8,0.4-1.2,0.4c-0.6,0-1-0.3-1.5-0.6c-0.4-0.4-0.8-1-1-1.8s-0.3-1.5-0.3-2.6
			c0-0.9,0.1-1.8,0.3-2.4c0.2-0.8,0.6-1.3,0.9-1.8c0.4-0.4,0.8-0.6,1.3-0.6s0.9,0.3,1.3,0.6s0.7,1,0.9,1.8s0.3,1.5,0.3,2.6
			C202.1,279.5,202.1,279.8,202.1,279.9z M198.5,276.7c-0.3,0.5-0.5,1.2-0.6,1.9h3.3c-0.1-0.8-0.2-1.4-0.6-1.9
			c-0.3-0.5-0.7-0.8-1.1-0.8S198.7,276.2,198.5,276.7z"/>
		<path class="st15" d="M207.2,282.7v1.4h-4.3V283l3.1-6.9h-3v-1.4h4.2v1.2l-3.1,6.9h3.1V282.7z"/>
		<path class="st15" d="M212.6,278.9c0.1-0.4,0.2-0.6,0.3-0.9s0.3-0.5,0.5-0.9c0.3-0.4,0.4-0.8,0.6-1s0.2-0.6,0.2-1.2
			s-0.1-1-0.3-1.4c-0.3-0.4-0.6-0.5-1-0.5c-0.8,0-1.3,0.5-1.7,1.4l-0.7-0.9c0.3-0.6,0.6-1.2,1-1.5c0.4-0.4,0.9-0.5,1.5-0.5
			c0.7,0,1.3,0.3,1.7,0.9s0.6,1.4,0.6,2.3c0,0.5-0.1,0.9-0.1,1.3c-0.1,0.4-0.2,0.6-0.3,0.9s-0.3,0.5-0.5,0.9
			c-0.3,0.4-0.5,0.8-0.6,1.2c-0.1,0.4-0.2,0.8-0.2,1.3h-1C212.4,279.7,212.5,279.3,212.6,278.9z M212.5,283.9
			c-0.1-0.3-0.2-0.5-0.2-0.8s0.1-0.6,0.2-0.8c0.1-0.3,0.3-0.4,0.5-0.4s0.3,0.1,0.4,0.4c0.1,0.3,0.2,0.5,0.2,0.8s-0.1,0.6-0.2,0.8
			c-0.1,0.1-0.3,0.4-0.4,0.4C212.8,284.3,212.6,284.1,212.5,283.9z"/>
		<path class="st15" d="M225.4,271.6l-3,12.5h-1l-3-12.5h1l2.4,10.2l2.5-10.2H225.4z"/>
		<path class="st15" d="M230.4,279.9h-4.2c0.1,0.9,0.3,1.5,0.6,2s0.8,0.8,1.3,0.8c0.6,0,1.1-0.4,1.5-1.2l0.5,1.2
			c-0.2,0.5-0.6,0.9-0.9,1.2c-0.3,0.3-0.8,0.4-1.2,0.4c-0.6,0-1-0.3-1.5-0.6c-0.4-0.4-0.8-1-1-1.8s-0.3-1.5-0.3-2.6
			c0-0.9,0.1-1.8,0.3-2.4c0.2-0.8,0.6-1.3,0.9-1.8c0.4-0.4,0.8-0.6,1.3-0.6s0.9,0.3,1.3,0.6s0.7,1,0.9,1.8s0.3,1.5,0.3,2.6
			C230.4,279.5,230.4,279.8,230.4,279.9z M226.7,276.7c-0.3,0.5-0.5,1.2-0.6,1.9h3.3c-0.1-0.8-0.2-1.4-0.6-1.9
			c-0.3-0.5-0.7-0.8-1.1-0.8C227.4,275.9,227,276.2,226.7,276.7z"/>
		<path class="st15" d="M236.1,275.6c0.4,0.6,0.6,1.7,0.6,3.1v5.5h-0.9V279c0-0.9-0.1-1.7-0.3-2c-0.2-0.5-0.6-0.6-1-0.6
			s-0.9,0.3-1.2,0.8s-0.4,1.3-0.4,2.3v4.9H232v-9.5h0.9v1.4c0.2-0.5,0.4-0.9,0.8-1.2s0.7-0.4,1.1-0.4
			C235.2,274.5,235.6,274.9,236.1,275.6z"/>
		<path class="st15" d="M243,279.9h-4.2c0.1,0.9,0.3,1.5,0.6,2s0.8,0.8,1.3,0.8c0.6,0,1.1-0.4,1.5-1.2l0.5,1.2
			c-0.2,0.5-0.6,0.9-0.9,1.2c-0.3,0.3-0.8,0.4-1.2,0.4c-0.6,0-1-0.3-1.5-0.6c-0.4-0.4-0.8-1-1-1.8s-0.3-1.5-0.3-2.6
			c0-0.9,0.1-1.8,0.3-2.4c0.2-0.8,0.6-1.3,0.9-1.8c0.4-0.4,0.8-0.6,1.3-0.6s0.9,0.3,1.3,0.6s0.7,1,0.9,1.8s0.3,1.5,0.3,2.6
			C243,279.5,243,279.8,243,279.9z M239.3,276.7c-0.3,0.5-0.5,1.2-0.6,1.9h3.3c-0.1-0.8-0.2-1.4-0.6-1.9c-0.3-0.5-0.7-0.8-1.1-0.8
			C240,275.9,239.7,276.2,239.3,276.7z"/>
		<path class="st15" d="M248.1,282.7v1.4h-4.3V283l3.1-6.9h-3v-1.4h4.2v1.2l-3.1,6.9h3.1V282.7z"/>
		<path class="st15" d="M256.9,270.8v13.3H256v-1.5c-0.2,0.5-0.5,0.9-0.8,1.2c-0.3,0.3-0.7,0.4-1,0.4c-0.5,0-1-0.3-1.3-0.6
			c-0.4-0.4-0.7-1-0.9-1.7c-0.2-0.8-0.3-1.5-0.3-2.6c0-1,0.1-1.8,0.3-2.6s0.6-1.3,0.9-1.7c0.4-0.4,0.8-0.6,1.3-0.6
			c0.3,0,0.7,0.1,1,0.4s0.6,0.6,0.8,1.2v-5.2L256.9,270.8L256.9,270.8z M255.1,282.3c0.3-0.3,0.5-0.6,0.6-1.2s0.2-1.2,0.2-1.8
			s-0.1-1.3-0.2-1.8c-0.1-0.5-0.3-0.9-0.6-1.2c-0.3-0.3-0.6-0.4-0.9-0.4s-0.6,0.1-0.9,0.4s-0.5,0.6-0.6,1.2
			c-0.1,0.5-0.2,1.2-0.2,1.8s0.1,1.3,0.2,1.8c0.1,0.5,0.3,0.9,0.6,1.2c0.3,0.3,0.6,0.4,0.9,0.4S254.9,282.6,255.1,282.3z"/>
		<path class="st15" d="M263.3,279.9h-4.2c0.1,0.9,0.3,1.5,0.6,2s0.8,0.8,1.3,0.8c0.6,0,1.1-0.4,1.5-1.2l0.5,1.2
			c-0.2,0.5-0.6,0.9-0.9,1.2c-0.3,0.3-0.8,0.4-1.2,0.4c-0.6,0-1-0.3-1.5-0.6c-0.4-0.4-0.8-1-1-1.8s-0.3-1.5-0.3-2.6
			c0-0.9,0.1-1.8,0.3-2.4c0.2-0.6,0.6-1.3,0.9-1.8c0.4-0.4,0.8-0.6,1.3-0.6s0.9,0.3,1.3,0.6s0.7,1,0.9,1.8s0.3,1.5,0.3,2.6
			C263.3,279.5,263.3,279.8,263.3,279.9z M259.7,276.7c-0.3,0.5-0.5,1.2-0.6,1.9h3.3c-0.1-0.8-0.2-1.4-0.6-1.9
			c-0.3-0.5-0.7-0.8-1.1-0.8C260.3,275.9,260,276.2,259.7,276.7z M261.4,271h1.2l-1.7,2.3H260L261.4,271z"/>
		<path class="st15" d="M265.5,283.6c-0.4-0.4-0.8-1-1-1.8s-0.3-1.5-0.3-2.6s0.1-1.8,0.3-2.6c0.2-0.8,0.6-1.3,1-1.7
			c0.4-0.4,0.9-0.6,1.4-0.6s0.9,0.1,1.3,0.5c0.3,0.4,0.6,0.9,0.8,1.5l-0.7,0.9c-0.1-0.5-0.3-0.8-0.6-1c-0.3-0.3-0.5-0.4-0.8-0.4
			s-0.6,0.1-0.9,0.4s-0.5,0.6-0.6,1.2c-0.1,0.5-0.2,1.2-0.2,1.8c0,0.6,0.1,1.3,0.2,1.8s0.3,0.9,0.6,1.2s0.6,0.4,0.9,0.4
			s0.6-0.1,0.8-0.4c0.2-0.3,0.4-0.5,0.6-1l0.7,0.8c-0.2,0.6-0.5,1.2-0.8,1.5c-0.3,0.4-0.8,0.5-1.3,0.5
			C266.4,284.3,265.9,284,265.5,283.6z"/>
		<path class="st15" d="M271,283.6c-0.4-0.4-0.7-1-1-1.8c-0.2-0.8-0.3-1.5-0.3-2.6s0.1-1.8,0.3-2.6c0.2-0.8,0.6-1.3,1-1.7
			s0.9-0.6,1.4-0.6s1,0.3,1.4,0.6c0.4,0.4,0.7,1,1,1.7c0.2,0.8,0.3,1.5,0.3,2.6s-0.1,1.8-0.3,2.6c-0.2,0.8-0.6,1.3-1,1.8
			c-0.4,0.4-0.8,0.6-1.4,0.6C271.9,284.3,271.4,284,271,283.6z M273.3,282.3c0.3-0.3,0.5-0.6,0.6-1.2c0.1-0.5,0.2-1.2,0.2-1.8
			s-0.1-1.3-0.2-1.8s-0.3-0.9-0.6-1.2c-0.3-0.3-0.6-0.4-0.9-0.4s-0.6,0.1-0.9,0.4s-0.5,0.6-0.6,1.2c-0.1,0.5-0.2,1.2-0.2,1.8
			s0.1,1.3,0.2,1.8s0.3,0.9,0.6,1.2s0.6,0.4,0.9,0.4C272.7,282.7,273,282.6,273.3,282.3z"/>
		<path class="st15" d="M281.2,274.7v9.5h-0.9v-1.4c-0.2,0.5-0.4,0.9-0.8,1.2c-0.3,0.3-0.6,0.4-1,0.4c-0.7,0-1.3-0.4-1.6-1
			c-0.3-0.6-0.6-1.8-0.6-3.1v-5.5h0.9v5.2c0,0.9,0.1,1.7,0.3,2c0.2,0.5,0.6,0.8,1,0.8s0.9-0.3,1.2-0.8c0.3-0.5,0.4-1.3,0.4-2.3v-4.9
			h1v-0.1H281.2z"/>
		<path class="st15" d="M287.6,274.7l-2.2,9.5h-1l-2.2-9.5h1l1.7,7.5l1.8-7.5H287.6z"/>
		<path class="st15" d="M290.1,274.9c0.3-0.3,0.7-0.4,1.2-0.4v1.7c-0.1,0-0.1,0-0.2,0c-0.5,0-0.9,0.3-1.2,0.9
			c-0.3,0.5-0.4,1.4-0.4,2.4v4.7h-0.9v-9.5h0.9v1.5C289.5,275.7,289.7,275.3,290.1,274.9z"/>
		<path class="st15" d="M292.4,272.5c-0.1-0.3-0.2-0.5-0.2-0.8s0.1-0.6,0.2-0.8s0.3-0.4,0.5-0.4s0.3,0.1,0.5,0.3
			c0.1,0.3,0.2,0.5,0.2,0.8c0,0.4-0.1,0.6-0.2,0.8c-0.1,0.1-0.3,0.4-0.5,0.4C292.6,272.9,292.5,272.7,292.4,272.5z M292.4,274.7h0.9
			v9.5h-0.9V274.7z"/>
		<path class="st15" d="M296.7,274.9c0.3-0.3,0.7-0.4,1.2-0.4v1.7c-0.1,0-0.1,0-0.2,0c-0.5,0-0.9,0.3-1.2,0.9
			c-0.3,0.5-0.4,1.4-0.4,2.4v4.7h-0.9v-9.5h0.9v1.5C296.1,275.7,296.4,275.3,296.7,274.9z"/>
		<path class="st15" d="M306,275.6c0.4,0.6,0.6,1.7,0.6,3.1v5.5h-0.9V279c0-0.9-0.1-1.7-0.3-2c-0.2-0.5-0.6-0.6-1-0.6
			s-0.9,0.3-1.2,0.8c-0.3,0.5-0.4,1.3-0.4,2.3v4.9h-0.9v-9.5h0.9v1.4c0.2-0.5,0.4-0.9,0.8-1.2c0.3-0.3,0.7-0.4,1.1-0.4
			C305.1,274.5,305.7,274.9,306,275.6z"/>
		<path class="st15" d="M309.3,283.6c-0.4-0.4-0.7-1-1-1.8c-0.2-0.8-0.3-1.5-0.3-2.6s0.1-1.8,0.3-2.6c0.2-0.8,0.6-1.3,1-1.7
			c0.4-0.4,0.9-0.6,1.4-0.6s1,0.3,1.4,0.6c0.4,0.4,0.7,1,1,1.7c0.2,0.8,0.3,1.5,0.3,2.6s-0.1,1.8-0.3,2.6c-0.2,0.8-0.6,1.3-1,1.8
			c-0.4,0.4-0.8,0.6-1.4,0.6S309.7,284,309.3,283.6z M311.6,282.3c0.3-0.3,0.5-0.6,0.6-1.2c0.1-0.5,0.2-1.2,0.2-1.8
			s-0.1-1.3-0.2-1.8s-0.3-0.9-0.6-1.2c-0.3-0.3-0.6-0.4-0.9-0.4s-0.6,0.1-0.9,0.4s-0.5,0.6-0.6,1.2c-0.1,0.5-0.2,1.2-0.2,1.8
			s0.1,1.3,0.2,1.8s0.3,0.9,0.6,1.2s0.6,0.4,0.9,0.4C311,282.7,311.3,282.6,311.6,282.3z"/>
		<path class="st15" d="M314.9,283.9c-0.4-0.3-0.7-0.5-0.9-0.8l0.4-1.4c0.2,0.3,0.5,0.5,0.8,0.8s0.6,0.3,1,0.3
			c0.8,0,1.3-0.4,1.3-1.3c0-0.3-0.1-0.5-0.1-0.6c-0.1-0.1-0.3-0.3-0.4-0.4s-0.4-0.1-0.7-0.3c-0.4-0.1-0.8-0.3-1-0.4
			c-0.3-0.1-0.5-0.4-0.7-0.8s-0.3-0.9-0.3-1.5c0-0.9,0.2-1.5,0.6-2s0.9-0.8,1.6-0.8c0.3,0,0.7,0.1,1,0.3c0.3,0.1,0.6,0.4,0.8,0.6
			l-0.4,1.4c-0.4-0.5-0.9-0.8-1.5-0.8c-0.4,0-0.7,0.1-0.9,0.4c-0.2,0.3-0.3,0.5-0.3,0.9c0,0.3,0.1,0.5,0.2,0.8s0.3,0.3,0.4,0.4
			s0.4,0.1,0.7,0.3c0.4,0.1,0.8,0.3,1,0.4c0.3,0.1,0.5,0.4,0.6,0.8c0.2,0.4,0.3,0.9,0.3,1.5c0,0.9-0.2,1.5-0.6,2s-1,0.8-1.6,0.8
			C315.7,284.3,315.3,284.1,314.9,283.9z"/>
		<path class="st15" d="M325.6,275.6c0.3,0.6,0.6,1.7,0.6,2.9v5.8h-0.8V283c-0.1,0.4-0.3,0.8-0.7,1c-0.3,0.3-0.6,0.4-1,0.4
			c-0.6,0-1-0.3-1.4-0.8c-0.3-0.5-0.5-1.2-0.5-2c0-0.9,0.1-1.5,0.5-2c0.3-0.5,0.8-0.8,1.6-0.8h1.5v-0.4c0-0.8-0.1-1.3-0.3-1.7
			c-0.2-0.4-0.6-0.6-1-0.6c-0.3,0-0.6,0.1-0.9,0.3c-0.3,0.1-0.6,0.4-0.8,0.8l-0.4-1.3c0.3-0.4,0.6-0.6,1-0.9
			c0.3-0.3,0.8-0.3,1.2-0.3C324.7,274.5,325.3,274.9,325.6,275.6z M324.7,282.5c0.3-0.3,0.4-0.8,0.6-1.3v-1.3h-1.5
			c-0.8,0-1.2,0.5-1.2,1.4c0,0.5,0.1,0.9,0.3,1.2c0.2,0.3,0.5,0.4,0.8,0.4C324.1,282.9,324.5,282.7,324.7,282.5z"/>
		<path class="st15" d="M328.2,283.9c-0.4-0.3-0.7-0.5-0.9-0.8l0.4-1.4c0.2,0.3,0.5,0.5,0.8,0.8s0.6,0.3,1,0.3
			c0.8,0,1.3-0.4,1.3-1.3c0-0.3-0.1-0.5-0.1-0.6c-0.1-0.1-0.3-0.3-0.4-0.4s-0.4-0.1-0.7-0.3c-0.4-0.1-0.8-0.3-1-0.4
			c-0.3-0.1-0.5-0.4-0.7-0.8s-0.3-0.9-0.3-1.5c0-0.9,0.2-1.5,0.6-2s0.9-0.8,1.6-0.8c0.3,0,0.7,0.1,1,0.3c0.3,0.1,0.6,0.4,0.8,0.6
			l-0.4,1.4c-0.4-0.5-0.9-0.8-1.5-0.8c-0.4,0-0.7,0.1-0.9,0.4c-0.2,0.3-0.3,0.5-0.3,0.9c0,0.3,0.1,0.5,0.2,0.8s0.3,0.3,0.4,0.4
			s0.4,0.1,0.7,0.3c0.4,0.1,0.8,0.3,1,0.4c0.3,0.1,0.5,0.4,0.6,0.8c0.2,0.4,0.3,0.9,0.3,1.5c0,0.9-0.2,1.5-0.6,2s-1,0.8-1.6,0.8
			C329.1,284.3,328.6,284.1,328.2,283.9z"/>
		<path class="st15" d="M333.1,283.9c-0.4-0.3-0.7-0.5-0.9-0.8l0.4-1.4c0.2,0.3,0.5,0.5,0.8,0.8s0.6,0.3,1,0.3
			c0.8,0,1.3-0.4,1.3-1.3c0-0.3-0.1-0.5-0.1-0.6c-0.1-0.1-0.3-0.3-0.4-0.4s-0.4-0.1-0.7-0.3c-0.4-0.1-0.8-0.3-1-0.4
			c-0.3-0.1-0.5-0.4-0.7-0.8s-0.3-0.9-0.3-1.5c0-0.9,0.2-1.5,0.6-2s0.9-0.8,1.6-0.8c0.3,0,0.7,0.1,1,0.3c0.3,0.1,0.6,0.4,0.8,0.6
			L336,277c-0.4-0.5-0.9-0.8-1.5-0.8c-0.4,0-0.7,0.1-0.9,0.4c-0.2,0.3-0.3,0.5-0.3,0.9c0,0.3,0.1,0.5,0.2,0.8s0.3,0.3,0.4,0.4
			s0.4,0.1,0.7,0.3c0.4,0.1,0.8,0.3,1,0.4c0.3,0.1,0.5,0.4,0.6,0.8c0.2,0.4,0.3,0.9,0.3,1.5c0,0.9-0.2,1.5-0.6,2s-1,0.8-1.6,0.8
			C333.9,284.3,333.5,284.1,333.1,283.9z"/>
		<path class="st15" d="M342.6,274.7v9.5h-0.9v-1.4c-0.2,0.5-0.4,0.9-0.8,1.2c-0.3,0.3-0.6,0.4-1,0.4c-0.7,0-1.3-0.4-1.6-1
			c-0.3-0.6-0.6-1.8-0.6-3.1v-5.5h0.9v5.2c0,0.9,0.1,1.7,0.3,2c0.2,0.5,0.6,0.8,1,0.8c0.5,0,0.9-0.3,1.2-0.8
			c0.3-0.5,0.4-1.3,0.4-2.3v-4.9h1v-0.1H342.6z"/>
		<path class="st15" d="M346,274.9c0.3-0.3,0.7-0.4,1.2-0.4v1.7c-0.1,0-0.1,0-0.2,0c-0.5,0-0.9,0.3-1.2,0.9
			c-0.3,0.5-0.4,1.4-0.4,2.4v4.7h-0.9v-9.5h0.9v1.5C345.5,275.7,345.7,275.3,346,274.9z"/>
		<path class="st15" d="M351.8,275.6c0.3,0.6,0.6,1.7,0.6,2.9v5.8h-0.9V283c-0.1,0.4-0.3,0.8-0.7,1c-0.3,0.3-0.6,0.4-1,0.4
			c-0.6,0-1-0.3-1.4-0.8c-0.3-0.5-0.5-1.2-0.5-2c0-0.9,0.1-1.5,0.5-2c0.3-0.5,0.8-0.8,1.6-0.8h1.5v-0.4c0-0.8-0.1-1.3-0.3-1.7
			c-0.2-0.4-0.6-0.6-1-0.6c-0.3,0-0.6,0.1-0.9,0.3s-0.6,0.4-0.8,0.8l-0.4-1.3c0.3-0.4,0.6-0.6,1-0.9c0.3-0.3,0.8-0.3,1.2-0.3
			C350.9,274.5,351.5,274.9,351.8,275.6z M350.9,282.5c0.3-0.3,0.4-0.8,0.6-1.3v-1.3H350c-0.8,0-1.2,0.5-1.2,1.4
			c0,0.5,0.1,0.9,0.3,1.2c0.2,0.3,0.5,0.4,0.8,0.4C350.3,282.9,350.6,282.7,350.9,282.5z"/>
		<path class="st15" d="M358.5,275.6c0.4,0.6,0.6,1.7,0.6,3.1v5.5h-0.9V279c0-0.9-0.1-1.7-0.3-2c-0.2-0.5-0.6-0.6-1-0.6
			c-0.5,0-0.9,0.3-1.2,0.8c-0.3,0.5-0.4,1.3-0.4,2.3v4.9h-0.9v-9.5h0.9v1.4c0.2-0.5,0.4-0.9,0.8-1.2c0.3-0.3,0.7-0.4,1.1-0.4
			C357.6,274.5,358.1,274.9,358.5,275.6z"/>
		<path class="st15" d="M361.6,283.6c-0.4-0.4-0.8-1-1-1.8s-0.3-1.5-0.3-2.6s0.1-1.8,0.3-2.6c0.2-0.8,0.6-1.3,1-1.7
			c0.4-0.4,0.9-0.6,1.4-0.6s0.9,0.1,1.3,0.5c0.3,0.4,0.6,0.9,0.8,1.5l-0.7,0.9c-0.1-0.5-0.3-0.8-0.6-1c-0.2-0.3-0.5-0.4-0.8-0.4
			s-0.6,0.1-0.9,0.4s-0.5,0.6-0.6,1.2c-0.1,0.5-0.2,1.2-0.2,1.8c0,0.6,0.1,1.3,0.2,1.8s0.3,0.9,0.6,1.2c0.3,0.3,0.6,0.4,0.9,0.4
			s0.6-0.1,0.8-0.4s0.4-0.5,0.6-1l0.7,0.8c-0.2,0.6-0.5,1.2-0.8,1.5c-0.3,0.4-0.8,0.5-1.3,0.5C362.6,284.3,362.1,284,361.6,283.6z"
			/>
		<path class="st15" d="M371,279.9h-4.2c0.1,0.9,0.3,1.5,0.6,2c0.3,0.5,0.8,0.8,1.3,0.8c0.6,0,1.1-0.4,1.5-1.2l0.5,1.2
			c-0.2,0.5-0.6,0.9-0.9,1.2c-0.3,0.3-0.8,0.4-1.2,0.4c-0.6,0-1-0.3-1.5-0.6c-0.4-0.4-0.8-1-1-1.8s-0.3-1.5-0.3-2.6
			c0-0.9,0.1-1.8,0.3-2.4c0.2-0.8,0.6-1.3,0.9-1.8c0.4-0.4,0.8-0.6,1.3-0.6s0.9,0.3,1.3,0.6s0.7,1,0.9,1.8s0.3,1.5,0.3,2.6
			C371,279.5,371,279.8,371,279.9z M367.3,276.7c-0.3,0.5-0.5,1.2-0.6,1.9h3.3c-0.1-0.8-0.2-1.4-0.6-1.9c-0.3-0.5-0.7-0.8-1.1-0.8
			C368,275.9,367.6,276.2,367.3,276.7z"/>
		<path class="st15" d="M372.6,283.9c-0.4-0.3-0.7-0.5-0.9-0.8l0.4-1.4c0.2,0.3,0.5,0.5,0.8,0.8s0.6,0.3,1,0.3
			c0.8,0,1.3-0.4,1.3-1.3c0-0.3-0.1-0.5-0.1-0.6c-0.1-0.1-0.3-0.3-0.4-0.4s-0.4-0.1-0.7-0.3c-0.4-0.1-0.8-0.3-1-0.4
			c-0.3-0.1-0.5-0.4-0.7-0.8s-0.3-0.9-0.3-1.5c0-0.9,0.2-1.5,0.6-2s0.9-0.8,1.6-0.8c0.3,0,0.7,0.1,1,0.3c0.3,0.1,0.6,0.4,0.8,0.6
			l-0.4,1.4c-0.4-0.5-0.9-0.8-1.5-0.8c-0.4,0-0.7,0.1-0.9,0.4c-0.2,0.3-0.3,0.5-0.3,0.9c0,0.3,0.1,0.5,0.2,0.8s0.3,0.3,0.4,0.4
			s0.4,0.1,0.7,0.3c0.4,0.1,0.8,0.3,1,0.4c0.3,0.1,0.5,0.4,0.6,0.8c0.2,0.4,0.3,0.9,0.3,1.5c0,0.9-0.2,1.5-0.6,2s-1,0.8-1.6,0.8
			C373.4,284.3,372.9,284.1,372.6,283.9z"/>
		<path class="st15" d="M126.8,297.1c0.4,0.6,0.6,1.7,0.6,3.1v5.5h-0.9v-5.2c0-0.9-0.1-1.7-0.3-2c-0.2-0.5-0.6-0.6-1-0.6
			c-0.5,0-0.9,0.3-1.2,0.8c-0.3,0.5-0.4,1.3-0.4,2.3v4.9h-0.9v-13.3h0.9v5.1c0.2-0.5,0.4-0.8,0.8-1c0.3-0.3,0.7-0.4,1-0.4
			C125.9,296,126.4,296.4,126.8,297.1z"/>
		<path class="st15" d="M132.7,297.1c0.3,0.6,0.6,1.7,0.6,2.9v5.8h-0.9v-1.3c-0.1,0.4-0.3,0.8-0.7,1c-0.3,0.3-0.6,0.4-1,0.4
			c-0.6,0-1-0.3-1.4-0.8s-0.5-1.2-0.5-2s0.1-1.5,0.5-2c0.3-0.5,0.8-0.8,1.6-0.8h1.5v-0.4c0-0.8-0.1-1.3-0.3-1.7
			c-0.2-0.4-0.6-0.6-1-0.6c-0.3,0-0.6,0.1-0.9,0.3c-0.3,0.1-0.6,0.4-0.8,0.8l-0.4-1.3c0.3-0.4,0.6-0.6,1-0.9
			c0.3-0.3,0.8-0.3,1.2-0.3C131.7,296,132.3,296.4,132.7,297.1z M131.7,304c0.3-0.3,0.4-0.8,0.6-1.3v-1.3h-1.5
			c-0.8,0-1.2,0.5-1.2,1.4c0,0.5,0.1,0.9,0.3,1.2c0.2,0.3,0.5,0.4,0.8,0.4S131.4,304.2,131.7,304z"/>
		<path class="st15" d="M139,296.7c0.4,0.4,0.7,1,0.9,1.7c0.2,0.8,0.3,1.5,0.3,2.6s-0.1,1.8-0.3,2.6c-0.2,0.8-0.6,1.3-0.9,1.7
			c-0.4,0.4-0.8,0.6-1.3,0.6c-0.4,0-0.8-0.1-1-0.4c-0.3-0.3-0.6-0.6-0.8-1.2v1.5H135v-13.3h0.9v5.2c0.2-0.5,0.5-0.9,0.8-1.2
			c0.3-0.3,0.6-0.4,1-0.4C138.2,296,138.7,296.3,139,296.7z M138.5,303.8c0.3-0.3,0.5-0.6,0.6-1.2c0.1-0.5,0.2-1.2,0.2-1.8
			c0-0.6-0.1-1.3-0.2-1.8c-0.1-0.5-0.3-0.9-0.6-1.2c-0.3-0.3-0.6-0.4-0.9-0.4s-0.6,0.1-0.9,0.4c-0.3,0.3-0.5,0.6-0.6,1.2
			c-0.1,0.5-0.2,1.2-0.2,1.8c0,0.6,0.1,1.3,0.2,1.8c0.1,0.5,0.3,0.9,0.6,1.2c0.3,0.3,0.6,0.4,0.9,0.4
			C138,304.2,138.3,304.1,138.5,303.8z"/>
		<path class="st15" d="M141.6,294c-0.1-0.3-0.2-0.5-0.2-0.8s0.1-0.6,0.2-0.8s0.3-0.4,0.5-0.4s0.3,0.1,0.5,0.3
			c0.1,0.3,0.2,0.5,0.2,0.8c0,0.4-0.1,0.6-0.2,0.8c-0.1,0.3-0.3,0.4-0.5,0.4S141.7,294.2,141.6,294z M141.6,296.2h1v9.5h-0.9
			L141.6,296.2L141.6,296.2z"/>
		<path class="st15" d="M147.3,305.1c-0.1,0.3-0.3,0.4-0.5,0.5s-0.4,0.1-0.6,0.1c-0.5,0-0.9-0.3-1.2-0.8s-0.4-1.3-0.4-2.2v-5.2h-0.9
			v-1.4h0.9v-2h0.9v2h1.5v1.4h-1.5v5.1c0,0.5,0.1,0.9,0.2,1.2c0.1,0.3,0.3,0.4,0.6,0.4s0.6-0.1,0.7-0.5L147.3,305.1z"/>
		<path class="st15" d="M151.9,297.1c0.3,0.6,0.6,1.7,0.6,2.9v5.8h-0.9v-1.3c-0.1,0.4-0.3,0.8-0.7,1c-0.3,0.3-0.6,0.4-1,0.4
			c-0.6,0-1-0.3-1.4-0.8s-0.5-1.2-0.5-2s0.1-1.5,0.5-2c0.3-0.5,0.8-0.8,1.6-0.8h1.5v-0.4c0-0.8-0.1-1.3-0.3-1.7
			c-0.2-0.4-0.6-0.6-1-0.6c-0.3,0-0.6,0.1-0.9,0.3c-0.3,0.1-0.6,0.4-0.8,0.8l-0.4-1.3c0.3-0.4,0.6-0.6,1-0.9
			c0.3-0.3,0.8-0.3,1.2-0.3C151,296,151.5,296.4,151.9,297.1z M151,304c0.3-0.3,0.4-0.8,0.6-1.3v-1.3H150c-0.8,0-1.2,0.5-1.2,1.4
			c0,0.5,0.1,0.9,0.3,1.2c0.2,0.3,0.5,0.4,0.8,0.4S150.7,304.2,151,304z"/>
		<path class="st15" d="M157.2,305.1c-0.1,0.3-0.3,0.4-0.5,0.5s-0.4,0.1-0.6,0.1c-0.5,0-0.9-0.3-1.2-0.8s-0.4-1.3-0.4-2.2v-5.2h-0.9
			v-1.4h0.9v-2h0.9v2h1.5v1.4h-1.5v5.1c0,0.5,0.1,0.9,0.2,1.2c0.1,0.3,0.3,0.4,0.6,0.4s0.6-0.1,0.7-0.5L157.2,305.1z"/>
		<path class="st15" d="M158.3,294c-0.1-0.3-0.2-0.5-0.2-0.8s0.1-0.6,0.2-0.8c0.1-0.1,0.3-0.4,0.5-0.4s0.3,0.1,0.5,0.3
			c0.1,0.3,0.2,0.5,0.2,0.8c0,0.4-0.1,0.6-0.2,0.8c-0.1,0.3-0.3,0.4-0.5,0.4C158.6,294.2,158.4,294.2,158.3,294z M158.3,296.2h0.9
			v9.5h-0.9V296.2z"/>
		<path class="st15" d="M161.8,305.1c-0.4-0.4-0.7-1-1-1.8c-0.2-0.8-0.3-1.5-0.3-2.6c0-1,0.1-1.8,0.3-2.6c0.2-0.8,0.6-1.3,1-1.7
			c0.4-0.4,0.9-0.6,1.4-0.6s1,0.3,1.4,0.6c0.4,0.4,0.7,1,1,1.7c0.2,0.8,0.3,1.5,0.3,2.6c0,1-0.1,1.8-0.3,2.6c-0.2,0.8-0.6,1.3-1,1.8
			c-0.4,0.4-0.8,0.6-1.4,0.6S162.3,305.5,161.8,305.1z M164.1,303.8c0.3-0.3,0.5-0.6,0.6-1.2c0.1-0.5,0.2-1.2,0.2-1.8
			c0-0.6-0.1-1.3-0.2-1.8c-0.1-0.5-0.3-0.9-0.6-1.2c-0.3-0.3-0.6-0.4-0.9-0.4s-0.6,0.1-0.9,0.4c-0.3,0.3-0.5,0.6-0.6,1.2
			c-0.1,0.5-0.2,1.2-0.2,1.8c0,0.6,0.1,1.3,0.2,1.8c0.1,0.5,0.3,0.9,0.6,1.2c0.3,0.3,0.6,0.4,0.9,0.4S163.9,304.1,164.1,303.8z"/>
		<path class="st15" d="M171.5,297.1c0.4,0.6,0.6,1.7,0.6,3.1v5.5h-0.9v-5.2c0-0.9-0.1-1.7-0.3-2c-0.2-0.5-0.6-0.6-1-0.6
			s-0.9,0.3-1.2,0.8s-0.4,1.3-0.4,2.3v4.9h-0.9v-9.5h0.9v1.4c0.2-0.5,0.4-0.9,0.8-1.2c0.3-0.3,0.7-0.4,1.1-0.4
			C170.6,296,171.1,296.4,171.5,297.1z"/>
		<path class="st15" d="M174.1,305.4c-0.4-0.3-0.7-0.5-0.9-0.8l0.4-1.4c0.2,0.3,0.5,0.5,0.8,0.8s0.6,0.3,1,0.3
			c0.8,0,1.3-0.4,1.3-1.3c0-0.3-0.1-0.5-0.1-0.6c-0.1-0.1-0.3-0.3-0.4-0.4c-0.1-0.1-0.4-0.1-0.7-0.3c-0.4-0.1-0.8-0.3-1-0.4
			c-0.3-0.1-0.5-0.4-0.7-0.8s-0.3-0.9-0.3-1.5c0-0.9,0.2-1.5,0.6-2c0.3-0.5,0.9-0.8,1.6-0.8c0.3,0,0.7,0.1,1,0.3
			c0.3,0.1,0.6,0.4,0.8,0.6l-0.4,1.4c-0.4-0.5-0.9-0.8-1.5-0.8c-0.4,0-0.7,0.1-0.9,0.4s-0.3,0.5-0.3,0.9c0,0.3,0.1,0.5,0.2,0.8
			c0.1,0.1,0.3,0.3,0.4,0.4c0.1,0.1,0.4,0.1,0.7,0.3c0.4,0.1,0.8,0.3,1,0.4s0.5,0.4,0.6,0.8s0.3,0.9,0.3,1.5c0,0.9-0.2,1.5-0.6,2
			s-1,0.8-1.6,0.8C174.9,305.8,174.5,305.6,174.1,305.4z"/>
		<path class="st15" d="M186,301.4h-4.2c0.1,0.9,0.3,1.5,0.6,2s0.8,0.8,1.3,0.8c0.6,0,1.1-0.4,1.5-1.2l0.5,1.2
			c-0.2,0.5-0.6,0.9-0.9,1.2c-0.3,0.3-0.8,0.4-1.2,0.4c-0.6,0-1-0.3-1.5-0.6c-0.4-0.4-0.8-1-1-1.8s-0.3-1.5-0.3-2.6
			c0-0.9,0.1-1.8,0.3-2.4c0.2-0.8,0.6-1.3,0.9-1.8c0.4-0.4,0.8-0.6,1.3-0.6s0.9,0.3,1.3,0.6s0.7,1,0.9,1.8s0.3,1.5,0.3,2.6
			C186,301,186,301.3,186,301.4z M182.3,298.2c-0.3,0.5-0.5,1.2-0.6,1.9h3.3c-0.1-0.8-0.2-1.4-0.6-1.9c-0.3-0.5-0.7-0.8-1.1-0.8
			C183,297.4,182.6,297.7,182.3,298.2z"/>
		<path class="st15" d="M190.2,305.1c-0.1,0.3-0.3,0.4-0.5,0.5s-0.4,0.1-0.6,0.1c-0.5,0-0.9-0.3-1.2-0.8s-0.4-1.3-0.4-2.2v-5.2h-0.9
			v-1.4h0.9v-2h0.9v2h1.5v1.4h-1.5v5.1c0,0.5,0.1,0.9,0.2,1.2c0.1,0.3,0.3,0.4,0.6,0.4s0.6-0.1,0.7-0.5L190.2,305.1z"/>
		<path class="st15" d="M198.7,301.4h-4.2c0.1,0.9,0.3,1.5,0.6,2s0.8,0.8,1.3,0.8c0.6,0,1.1-0.4,1.5-1.2l0.5,1.2
			c-0.2,0.5-0.6,0.9-0.9,1.2c-0.3,0.3-0.8,0.4-1.2,0.4c-0.6,0-1-0.3-1.5-0.6c-0.4-0.4-0.8-1-1-1.8s-0.3-1.5-0.3-2.6
			c0-0.9,0.1-1.8,0.3-2.4c0.2-0.8,0.6-1.3,0.9-1.8c0.4-0.4,0.8-0.6,1.3-0.6s0.9,0.3,1.3,0.6s0.7,1,0.9,1.8s0.3,1.5,0.3,2.6
			C198.7,301,198.7,301.3,198.7,301.4z M195,298.2c-0.3,0.5-0.5,1.2-0.6,1.9h3.3c-0.1-0.8-0.2-1.4-0.6-1.9c-0.3-0.5-0.7-0.8-1.1-0.8
			C195.7,297.4,195.3,297.7,195,298.2z"/>
		<path class="st15" d="M200.3,305.4c-0.4-0.3-0.7-0.5-0.9-0.8l0.4-1.4c0.2,0.3,0.5,0.5,0.8,0.8s0.6,0.3,1,0.3
			c0.8,0,1.3-0.4,1.3-1.3c0-0.3-0.1-0.5-0.1-0.6c-0.1-0.1-0.3-0.3-0.4-0.4c-0.1-0.1-0.4-0.1-0.7-0.3c-0.4-0.1-0.8-0.3-1-0.4
			c-0.3-0.1-0.5-0.4-0.7-0.8s-0.3-0.9-0.3-1.5c0-0.9,0.2-1.5,0.6-2c0.3-0.5,0.9-0.8,1.6-0.8c0.3,0,0.7,0.1,1,0.3
			c0.3,0.1,0.6,0.4,0.8,0.6l-0.4,1.4c-0.4-0.5-0.9-0.8-1.5-0.8c-0.4,0-0.7,0.1-0.9,0.4s-0.3,0.5-0.3,0.9c0,0.3,0.1,0.5,0.2,0.8
			c0.1,0.1,0.3,0.3,0.4,0.4c0.1,0.1,0.4,0.1,0.7,0.3c0.4,0.1,0.8,0.3,1,0.4s0.5,0.4,0.6,0.8s0.3,0.9,0.3,1.5c0,0.9-0.2,1.5-0.6,2
			s-1,0.8-1.6,0.8C201,305.8,200.6,305.6,200.3,305.4z"/>
		<path class="st15" d="M207.8,305.1c-0.1,0.3-0.3,0.4-0.5,0.5s-0.4,0.1-0.6,0.1c-0.5,0-0.9-0.3-1.2-0.8s-0.4-1.3-0.4-2.2v-5.2h-0.9
			v-1.4h0.9v-2h0.9v2h1.5v1.4H206v5.1c0,0.5,0.1,0.9,0.2,1.2s0.3,0.4,0.6,0.4s0.6-0.1,0.7-0.5L207.8,305.1z"/>
		<path class="st15" d="M208.9,294c-0.1-0.3-0.2-0.5-0.2-0.8s0.1-0.6,0.2-0.8s0.3-0.4,0.5-0.4s0.3,0.1,0.5,0.3
			c0.1,0.3,0.2,0.5,0.2,0.8c0,0.4-0.1,0.6-0.2,0.8c-0.1,0.3-0.3,0.4-0.5,0.4C209.2,294.2,209.1,294.2,208.9,294z M208.9,296.2h0.9
			v9.5h-0.9V296.2z"/>
		<path class="st15" d="M219.7,297.1c0.3,0.6,0.6,1.7,0.6,3.1v5.5h-0.9v-5.2c0-0.9-0.1-1.7-0.3-2c-0.2-0.5-0.6-0.6-1-0.6
			c-0.5,0-0.8,0.3-1.1,0.8s-0.4,1.3-0.4,2.3v4.9h-0.9v-5.2c0-0.9-0.1-1.7-0.3-2c-0.2-0.5-0.6-0.6-1-0.6c-0.5,0-0.8,0.3-1.1,0.8
			s-0.4,1.3-0.4,2.3v4.9h-1v-9.5h0.9v1.4c0.2-0.5,0.4-0.9,0.8-1.2c0.3-0.3,0.6-0.4,1-0.4s0.8,0.1,1,0.4c0.3,0.3,0.6,0.8,0.7,1.3
			c0.2-0.5,0.5-1,0.8-1.3s0.8-0.5,1.2-0.5C218.8,296,219.3,296.4,219.7,297.1z"/>
		<path class="st15" d="M226.6,301.4h-4.2c0.1,0.9,0.3,1.5,0.6,2s0.8,0.8,1.3,0.8c0.6,0,1.1-0.4,1.5-1.2l0.5,1.2
			c-0.2,0.5-0.6,0.9-0.9,1.2s-0.8,0.4-1.2,0.4c-0.6,0-1-0.3-1.5-0.6c-0.4-0.4-0.8-1-1-1.8s-0.3-1.5-0.3-2.6c0-0.9,0.1-1.8,0.3-2.4
			c0.2-0.8,0.6-1.3,0.9-1.8c0.4-0.4,0.8-0.6,1.3-0.6s0.9,0.3,1.3,0.6s0.7,1,0.9,1.8s0.3,1.5,0.3,2.6
			C226.7,301,226.6,301.3,226.6,301.4z M223,298.2c-0.3,0.5-0.5,1.2-0.6,1.9h3.3c-0.1-0.8-0.2-1.4-0.6-1.9c-0.3-0.5-0.7-0.8-1.1-0.8
			S223.3,297.7,223,298.2z"/>
		<path class="st15" d="M231.7,304.2v1.4h-4.3v-1.2l3.1-6.9h-3v-1.4h4.2v1.2l-3.1,6.9H231.7z"/>
		<path class="st15" d="M240.3,296.2l-2.2,9.5h-1l-2.2-9.5h1l1.7,7.5l1.8-7.5H240.3z"/>
		<path class="st15" d="M241.8,305.1c-0.4-0.4-0.7-1-1-1.8c-0.2-0.8-0.3-1.5-0.3-2.6c0-1,0.1-1.8,0.3-2.6s0.6-1.3,1-1.7
			c0.4-0.4,0.9-0.6,1.4-0.6s1,0.3,1.4,0.6c0.4,0.4,0.7,1,1,1.7c0.2,0.8,0.3,1.5,0.3,2.6c0,1-0.1,1.8-0.3,2.6c-0.2,0.8-0.6,1.3-1,1.8
			c-0.4,0.4-0.8,0.6-1.4,0.6C242.7,305.8,242.2,305.5,241.8,305.1z M244.1,303.8c0.3-0.3,0.5-0.6,0.6-1.2c0.1-0.5,0.2-1.2,0.2-1.8
			c0-0.6-0.1-1.3-0.2-1.8c-0.1-0.5-0.3-0.9-0.6-1.2c-0.3-0.3-0.6-0.4-0.9-0.4c-0.3,0-0.6,0.1-0.9,0.4c-0.3,0.3-0.5,0.6-0.6,1.2
			c-0.1,0.5-0.2,1.2-0.2,1.8c0,0.6,0.1,1.3,0.2,1.8c0.1,0.5,0.3,0.9,0.6,1.2c0.3,0.3,0.6,0.4,0.9,0.4
			C243.5,304.2,243.8,304.1,244.1,303.8z"/>
		<path class="st15" d="M250.1,305.1c-0.1,0.3-0.3,0.4-0.5,0.5s-0.4,0.1-0.6,0.1c-0.5,0-0.9-0.3-1.2-0.8s-0.4-1.3-0.4-2.2v-5.2h-0.9
			v-1.4h0.9v-2h0.9v2h1.5v1.4h-1.5v5.1c0,0.5,0.1,0.9,0.2,1.2c0.1,0.3,0.3,0.4,0.6,0.4s0.6-0.1,0.7-0.5L250.1,305.1z"/>
		<path class="st15" d="M252.8,296.4c0.3-0.3,0.7-0.4,1.2-0.4v1.7c-0.1,0-0.1,0-0.2,0c-0.5,0-0.9,0.3-1.2,0.9
			c-0.3,0.5-0.4,1.4-0.4,2.4v4.7h-0.9v-9.5h0.9v1.5C252.3,297.2,252.5,296.8,252.8,296.4z"/>
		<path class="st15" d="M259.8,301.4h-4.2c0.1,0.9,0.3,1.5,0.6,2s0.8,0.8,1.3,0.8c0.6,0,1.1-0.4,1.5-1.2l0.5,1.2
			c-0.2,0.5-0.6,0.9-0.9,1.2c-0.3,0.3-0.8,0.4-1.2,0.4c-0.6,0-1-0.3-1.5-0.6c-0.4-0.4-0.8-1-1-1.8s-0.3-1.5-0.3-2.6
			c0-0.9,0.1-1.8,0.3-2.4c0.2-0.8,0.6-1.3,0.9-1.8c0.4-0.4,0.8-0.6,1.3-0.6s0.9,0.3,1.3,0.6c0.4,0.4,0.7,1,0.9,1.8
			c0.2,0.8,0.3,1.5,0.3,2.6C259.8,301,259.8,301.3,259.8,301.4z M256.1,298.2c-0.3,0.5-0.5,1.2-0.6,1.9h3.3
			c-0.1-0.8-0.2-1.4-0.6-1.9c-0.3-0.5-0.7-0.8-1.1-0.8C256.8,297.4,256.4,297.7,256.1,298.2z"/>
		<path class="st15" d="M266.6,305.1c-0.1,0.3-0.3,0.4-0.5,0.5s-0.4,0.1-0.6,0.1c-0.5,0-0.9-0.3-1.2-0.8c-0.3-0.5-0.4-1.3-0.4-2.2
			v-5.2H263v-1.4h0.9v-2h0.9v2h1.5v1.4h-1.5v5.1c0,0.5,0.1,0.9,0.2,1.2c0.1,0.3,0.3,0.4,0.6,0.4s0.6-0.1,0.7-0.5L266.6,305.1z"/>
		<path class="st15" d="M271.3,297.1c0.3,0.6,0.6,1.7,0.6,2.9v5.8H271v-1.3c-0.1,0.4-0.3,0.8-0.7,1c-0.3,0.3-0.6,0.4-1,0.4
			c-0.6,0-1-0.3-1.4-0.8s-0.5-1.2-0.5-2s0.1-1.5,0.5-2c0.3-0.5,0.8-0.8,1.6-0.8h1.5v-0.4c0-0.8-0.1-1.3-0.3-1.7
			c-0.2-0.4-0.6-0.6-1-0.6c-0.3,0-0.6,0.1-0.9,0.3s-0.6,0.4-0.8,0.8l-0.4-1.3c0.3-0.4,0.6-0.6,1-0.9c0.3-0.3,0.8-0.3,1.2-0.3
			C270.3,296,270.9,296.4,271.3,297.1z M270.3,304c0.3-0.3,0.4-0.8,0.6-1.3v-1.3h-1.5c-0.8,0-1.2,0.5-1.2,1.4c0,0.5,0.1,0.9,0.3,1.2
			s0.5,0.4,0.8,0.4C269.7,304.3,270.1,304.2,270.3,304z"/>
		<path class="st15" d="M275.2,296.4c0.3-0.3,0.7-0.4,1.2-0.4v1.7c-0.1,0-0.1,0-0.2,0c-0.5,0-0.9,0.3-1.2,0.9
			c-0.3,0.5-0.4,1.4-0.4,2.4v4.7h-0.9v-9.5h0.9v1.5C274.6,297.2,274.9,296.8,275.2,296.4z"/>
		<path class="st15" d="M277.5,294c-0.1-0.3-0.2-0.5-0.2-0.8s0.1-0.6,0.2-0.8s0.3-0.4,0.5-0.4s0.3,0.1,0.5,0.3
			c0.1,0.3,0.2,0.5,0.2,0.8c0,0.4-0.1,0.6-0.2,0.8c-0.1,0.3-0.3,0.4-0.5,0.4C277.8,294.4,277.6,294.2,277.5,294z M277.5,296.2h0.9
			v9.5h-0.9V296.2z"/>
		<path class="st15" d="M281.3,295.3v0.8h1.5v1.4h-1.5v8.1h-0.9v-8.1h-0.9V296h0.9v-0.9c0-0.9,0.1-1.7,0.4-2.3
			c0.3-0.5,0.7-0.8,1.3-0.8c0.2,0,0.4,0,0.6,0.1s0.3,0.3,0.5,0.4l-0.3,1.3c-0.2-0.3-0.5-0.5-0.7-0.5
			C281.6,293.6,281.3,294.2,281.3,295.3z"/>
		<path class="st15" d="M286.6,305.4c-0.4-0.3-0.7-0.5-0.9-0.8l0.4-1.4c0.2,0.3,0.5,0.5,0.8,0.8s0.6,0.3,1,0.3
			c0.8,0,1.3-0.4,1.3-1.3c0-0.3-0.1-0.5-0.1-0.6c-0.1-0.1-0.3-0.3-0.4-0.4s-0.4-0.1-0.7-0.3c-0.4-0.1-0.8-0.3-1-0.4
			c-0.3-0.1-0.5-0.4-0.7-0.8s-0.3-0.9-0.3-1.5c0-0.9,0.2-1.5,0.6-2s0.9-0.8,1.6-0.8c0.3,0,0.7,0.1,1,0.3c0.3,0.1,0.6,0.4,0.8,0.6
			l-0.4,1.4c-0.4-0.5-0.9-0.8-1.5-0.8c-0.4,0-0.7,0.1-0.9,0.4c-0.2,0.3-0.3,0.5-0.3,0.9c0,0.3,0.1,0.5,0.2,0.8s0.3,0.3,0.4,0.4
			s0.4,0.1,0.7,0.3c0.4,0.1,0.8,0.3,1,0.4c0.3,0.1,0.5,0.4,0.6,0.8c0.2,0.4,0.3,0.9,0.3,1.5c0,0.9-0.2,1.5-0.6,2s-1,0.8-1.6,0.8
			C287.4,305.8,287,305.6,286.6,305.4z"/>
		<path class="st15" d="M296.1,296.2v9.5h-0.9v-1.4c-0.2,0.5-0.4,0.9-0.8,1.2c-0.3,0.3-0.6,0.4-1,0.4c-0.7,0-1.3-0.4-1.6-1
			c-0.4-0.6-0.6-1.8-0.6-3.1v-5.5h0.9v5.2c0,0.9,0.1,1.7,0.3,2c0.2,0.5,0.6,0.8,1,0.8s0.9-0.3,1.2-0.8c0.3-0.5,0.4-1.3,0.4-2.3v-4.9
			h1v-0.1H296.1z"/>
		<path class="st15" d="M299.5,296.4c0.3-0.3,0.7-0.4,1.2-0.4v1.7c-0.1,0-0.1,0-0.2,0c-0.5,0-0.9,0.3-1.2,0.9
			c-0.3,0.5-0.4,1.4-0.4,2.4v4.7H298v-9.5h0.9v1.5C298.9,297.2,299.1,296.8,299.5,296.4z"/>
		<path class="st16" d="M126.8,318.6c0.4,0.6,0.6,1.7,0.6,3.1v5.5h-0.9V322c0-0.9-0.1-1.7-0.3-2c-0.2-0.5-0.6-0.6-1-0.6
			c-0.5,0-0.9,0.3-1.2,0.8c-0.3,0.5-0.4,1.3-0.4,2.3v4.9h-0.9v-13.3h0.9v5.1c0.2-0.5,0.4-0.8,0.8-1c0.3-0.3,0.7-0.4,1-0.4
			C125.9,317.5,126.4,317.9,126.8,318.6z"/>
		<path class="st16" d="M132,326.6c-0.1,0.3-0.3,0.4-0.5,0.5s-0.4,0.1-0.6,0.1c-0.5,0-0.9-0.3-1.2-0.8s-0.4-1.3-0.4-2.2V319h-0.9
			v-1.4h0.9v-2h0.9v2h1.5v1.4h-1.5v5.1c0,0.5,0.1,0.9,0.2,1.2c0.1,0.3,0.3,0.4,0.6,0.4s0.6-0.1,0.7-0.4L132,326.6z"/>
		<path class="st16" d="M136,326.6c-0.1,0.3-0.3,0.4-0.5,0.5s-0.4,0.1-0.6,0.1c-0.5,0-0.9-0.3-1.2-0.8s-0.4-1.3-0.4-2.2V319h-0.9
			v-1.4h0.9v-2h0.9v2h1.5v1.4h-1.5v5.1c0,0.5,0.1,0.9,0.2,1.2c0.1,0.3,0.3,0.4,0.6,0.4s0.6-0.1,0.7-0.4L136,326.6z"/>
		<path class="st16" d="M141.2,318.2c0.4,0.4,0.7,1,0.9,1.7c0.2,0.8,0.3,1.5,0.3,2.6c0,0.9-0.1,1.8-0.3,2.6
			c-0.2,0.8-0.6,1.3-0.9,1.7c-0.4,0.4-0.8,0.6-1.3,0.6c-0.3,0-0.7-0.1-1-0.4s-0.6-0.6-0.8-1.2v4.9h-0.9v-12.9h0.9v1.5
			c0.2-0.5,0.5-0.9,0.8-1.2c0.3-0.3,0.7-0.4,1-0.4C140.3,317.5,140.8,317.8,141.2,318.2z M140.6,325.3c0.3-0.3,0.5-0.6,0.6-1.2
			c0.1-0.5,0.2-1.2,0.2-1.8c0-0.6-0.1-1.3-0.2-1.8c-0.1-0.5-0.3-0.9-0.6-1.2c-0.3-0.3-0.6-0.4-0.9-0.4s-0.6,0.1-0.9,0.4
			c-0.3,0.3-0.5,0.6-0.6,1.2c-0.1,0.5-0.2,1-0.2,1.8c0,0.6,0.1,1.3,0.2,1.8s0.3,0.9,0.6,1.2c0.3,0.3,0.6,0.4,0.9,0.4
			C140.1,325.7,140.3,325.6,140.6,325.3z"/>
		<path class="st16" d="M143.5,319.7c-0.1-0.3-0.2-0.5-0.2-0.9s0.1-0.6,0.2-0.9c0.1-0.3,0.3-0.4,0.5-0.4s0.3,0.1,0.5,0.4
			s0.2,0.5,0.2,0.9s-0.1,0.6-0.2,0.9c-0.1,0.3-0.3,0.4-0.5,0.4C143.8,320,143.6,319.8,143.5,319.7z M143.5,326.9
			c-0.1-0.3-0.2-0.5-0.2-0.9s0.1-0.6,0.2-0.9c0.1-0.3,0.3-0.4,0.5-0.4s0.3,0.1,0.5,0.4c0.1,0.3,0.2,0.5,0.2,0.9s-0.1,0.6-0.2,0.9
			s-0.3,0.4-0.5,0.4S143.6,327.1,143.5,326.9z"/>
		<path class="st16" d="M148.5,312h0.8l-3.2,16.9h-0.8L148.5,312z"/>
		<path class="st16" d="M151.2,312h0.8l-3.2,16.9H148L151.2,312z"/>
		<path class="st16" d="M152.2,326.9c-0.4-0.3-0.7-0.5-0.9-0.8l0.4-1.4c0.2,0.3,0.5,0.5,0.8,0.8c0.3,0.1,0.6,0.3,1,0.3
			c0.8,0,1.3-0.4,1.3-1.3c0-0.3-0.1-0.5-0.1-0.6c-0.1-0.1-0.3-0.3-0.4-0.4c-0.1-0.1-0.4-0.1-0.7-0.3c-0.4-0.1-0.8-0.3-1-0.4
			c-0.3-0.1-0.5-0.4-0.7-0.8s-0.3-0.9-0.3-1.5c0-0.9,0.2-1.5,0.6-2c0.4-0.5,0.9-0.8,1.6-0.8c0.3,0,0.7,0.1,1,0.3
			c0.3,0.1,0.6,0.4,0.8,0.6l-0.4,1.4c-0.4-0.5-0.9-0.8-1.5-0.8c-0.4,0-0.7,0.1-0.9,0.4s-0.3,0.5-0.3,0.9c0,0.3,0.1,0.5,0.2,0.8
			c0.1,0.1,0.3,0.3,0.4,0.4s0.4,0.1,0.7,0.3c0.4,0.1,0.8,0.3,1,0.4c0.3,0.1,0.5,0.4,0.6,0.8c0.2,0.4,0.3,0.9,0.3,1.5
			c0,0.9-0.2,1.5-0.6,2c-0.4,0.5-1,0.8-1.6,0.8C153,327.3,152.6,327.1,152.2,326.9z"/>
		<path class="st16" d="M164.9,318.6c0.3,0.6,0.6,1.7,0.6,3.1v5.5h-0.9V322c0-0.9-0.1-1.7-0.3-2c-0.2-0.5-0.6-0.6-1-0.6
			c-0.5,0-0.8,0.3-1.1,0.8s-0.4,1.3-0.4,2.3v4.9h-1v-5.2c0-0.9-0.1-1.7-0.3-2c-0.2-0.5-0.6-0.6-1-0.6c-0.5,0-0.8,0.3-1.1,0.8
			s-0.4,1.3-0.4,2.3v4.9h-1v-9.5h0.9v1.4c0.2-0.5,0.4-0.9,0.8-1.2c0.3-0.3,0.6-0.4,1-0.4s0.8,0.1,1,0.4c0.3,0.3,0.6,0.8,0.7,1.3
			c0.2-0.5,0.5-1,0.8-1.3s0.8-0.5,1.2-0.5C164,317.5,164.5,317.9,164.9,318.6z"/>
		<path class="st16" d="M166.9,326.9c-0.1-0.3-0.2-0.5-0.2-0.9s0.1-0.6,0.2-0.9c0.1-0.3,0.3-0.4,0.5-0.4s0.3,0.1,0.5,0.4
			c0.1,0.3,0.2,0.5,0.2,0.9s-0.1,0.6-0.2,0.9c-0.1,0.3-0.3,0.4-0.5,0.4S167.1,327.1,166.9,326.9z"/>
		<path class="st16" d="M169.6,326.9c-0.4-0.3-0.7-0.5-0.9-0.8l0.4-1.4c0.2,0.3,0.5,0.5,0.8,0.8c0.3,0.1,0.6,0.3,1,0.3
			c0.8,0,1.3-0.4,1.3-1.3c0-0.3-0.1-0.5-0.1-0.6c-0.1-0.1-0.3-0.3-0.4-0.4c-0.1-0.1-0.4-0.1-0.7-0.3c-0.4-0.1-0.8-0.3-1-0.4
			c-0.3-0.1-0.5-0.4-0.7-0.8s-0.3-0.9-0.3-1.5c0-0.9,0.2-1.5,0.6-2c0.4-0.5,0.9-0.8,1.6-0.8c0.3,0,0.7,0.1,1,0.3
			c0.3,0.1,0.6,0.4,0.8,0.6l-0.4,1.4c-0.4-0.5-0.9-0.8-1.5-0.8c-0.4,0-0.7,0.1-0.9,0.4s-0.3,0.5-0.3,0.9c0,0.3,0.1,0.5,0.2,0.8
			c0.1,0.1,0.3,0.3,0.4,0.4s0.4,0.1,0.7,0.3c0.4,0.1,0.8,0.3,1,0.4c0.3,0.1,0.5,0.4,0.6,0.8c0.2,0.4,0.3,0.9,0.3,1.5
			c0,0.9-0.2,1.5-0.6,2c-0.4,0.5-1,0.8-1.6,0.8C170.5,327.3,170.1,327.1,169.6,326.9z"/>
		<path class="st16" d="M179.3,317.7v8.2c0,1.7-0.2,2.9-0.7,3.7c-0.4,0.8-1.1,1.2-2,1.2c-0.5,0-1-0.1-1.4-0.4s-0.8-0.6-1-1l0.4-1.3
			c0.2,0.4,0.6,0.6,0.9,0.9s0.7,0.4,1.1,0.4c0.6,0,1-0.3,1.3-0.8s0.4-1.3,0.4-2.4v-0.8c-0.2,0.5-0.5,0.9-0.8,1.2
			c-0.3,0.3-0.7,0.4-1,0.4c-0.5,0-1-0.3-1.3-0.6c-0.4-0.4-0.7-0.9-1-1.7c-0.2-0.6-0.3-1.5-0.3-2.4s0.1-1.7,0.3-2.4
			c0.2-0.6,0.6-1.3,1-1.7c0.4-0.4,0.8-0.5,1.3-0.5c0.4,0,0.8,0.1,1.1,0.4s0.6,0.6,0.8,1.2v-1.4h0.9V317.7z M177.5,324.8
			c0.3-0.3,0.5-0.6,0.6-1.2c0.1-0.5,0.2-1,0.2-1.7c0-0.9-0.1-1.7-0.5-2.2c-0.3-0.5-0.8-0.9-1.3-0.9c-0.6,0-1,0.3-1.3,0.9
			s-0.5,1.3-0.5,2.2c0,0.6,0.1,1.2,0.2,1.7c0.1,0.5,0.3,0.9,0.6,1.2c0.3,0.3,0.6,0.4,0.9,0.4S177.2,325.1,177.5,324.8z"/>
		<path class="st16" d="M183.1,312h0.8l-3.2,16.9h-0.8L183.1,312z"/>
		<path class="st16" d="M188.8,317.7v8.2c0,1.7-0.2,2.9-0.7,3.7c-0.4,0.8-1.1,1.2-2,1.2c-0.5,0-1-0.1-1.4-0.4s-0.8-0.6-1-1l0.4-1.3
			c0.2,0.4,0.6,0.6,0.9,0.9s0.7,0.4,1.1,0.4c0.6,0,1-0.3,1.3-0.8s0.4-1.3,0.4-2.4v-0.8c-0.2,0.5-0.5,0.9-0.8,1.2
			c-0.3,0.3-0.7,0.4-1,0.4c-0.5,0-1-0.3-1.3-0.6c-0.4-0.4-0.7-0.9-1-1.7c-0.2-0.6-0.3-1.5-0.3-2.4s0.1-1.7,0.3-2.4
			c0.2-0.6,0.6-1.3,1-1.7c0.4-0.4,0.8-0.5,1.3-0.5c0.4,0,0.8,0.1,1.1,0.4s0.6,0.6,0.8,1.2v-1.4h0.9V317.7z M187,324.8
			c0.3-0.3,0.5-0.6,0.6-1.2c0.1-0.5,0.2-1,0.2-1.7c0-0.9-0.1-1.7-0.5-2.2c-0.3-0.5-0.8-0.9-1.3-0.9c-0.6,0-1,0.3-1.3,0.9
			s-0.5,1.3-0.5,2.2c0,0.6,0.1,1.2,0.2,1.7c0.1,0.5,0.3,0.9,0.6,1.2c0.3,0.3,0.6,0.4,0.9,0.4C186.4,325.2,186.7,325.1,187,324.8z"/>
		<path class="st16" d="M197.1,327.1V318l-2.4,7.7h-0.4l-2.4-7.5v9.1h-1v-12.5h0.8l2.9,8.8l2.8-8.8h0.8v12.5h-0.8v-0.2H197.1z"/>
		<path class="st16" d="M203.2,327.1l-1.5-3.6l-1.5,3.6h-1l2-4.9l-2-4.6h1l1.4,3.5l1.4-3.5h1l-2,4.6l2.1,4.9H203.2z"/>
		<path class="st16" d="M206.6,326.5c-0.6-0.5-1-1.3-1.3-2.3s-0.5-2-0.5-3.3s0.1-2.3,0.5-3.3c0.3-1,0.8-1.8,1.3-2.3
			c0.6-0.5,1.2-0.9,1.9-0.9c0.6,0,1,0.1,1.5,0.5c0.4,0.4,0.8,0.8,1.1,1.4l-0.6,1.2c-0.5-1-1.2-1.5-2-1.5c-0.5,0-1,0.3-1.4,0.6
			c-0.4,0.4-0.7,1-1,1.7c-0.2,0.8-0.3,1.5-0.3,2.4s0.1,1.8,0.3,2.4c0.2,0.8,0.6,1.3,1,1.8c0.4,0.4,0.8,0.6,1.4,0.6
			c0.8,0,1.4-0.5,2-1.5l0.6,1.2c-0.3,0.6-0.7,1.2-1.1,1.4s-0.9,0.5-1.5,0.5C207.7,327.3,207.1,327,206.6,326.5z"/>
		<path class="st15" d="M215.2,326.9c-0.2-1.4-0.3-2.9-0.3-4.6s0.1-3.2,0.3-4.6s0.5-2.7,0.8-3.7h0.9c-0.4,1.3-0.7,2.6-0.8,4
			c-0.2,1.4-0.3,2.8-0.3,4.5c0,1.5,0.1,3.1,0.3,4.5s0.5,2.7,0.8,4H216C215.7,329.6,215.4,328.3,215.2,326.9z"/>
		<path class="st15" d="M218.8,326.9c-0.5-0.3-0.8-0.6-1.1-1.2l0.3-1.4c0.3,0.4,0.6,0.8,1,1c0.3,0.3,0.8,0.4,1.3,0.4
			c0.6,0,1-0.1,1.3-0.5s0.4-0.8,0.4-1.4c0-0.4-0.1-0.8-0.2-1c-0.1-0.3-0.3-0.5-0.6-0.6s-0.6-0.3-1-0.5c-0.5-0.3-0.9-0.5-1.3-0.6
			c-0.3-0.3-0.6-0.5-0.8-1s-0.3-1.2-0.3-1.9c0-0.6,0.1-1.3,0.3-1.8s0.5-1,0.9-1.3s0.9-0.5,1.5-0.5c0.4,0,0.8,0.1,1.2,0.3
			c0.4,0.1,0.7,0.5,1,0.8l-0.3,1.4c-0.3-0.4-0.6-0.6-0.9-0.8s-0.6-0.3-1-0.3c-0.6,0-1,0.1-1.3,0.5s-0.4,0.9-0.4,1.4
			c0,0.4,0.1,0.8,0.2,1c0.1,0.3,0.3,0.5,0.6,0.6c0.2,0.1,0.6,0.3,1,0.5c0.5,0.3,0.9,0.5,1.3,0.6c0.3,0.3,0.6,0.5,0.8,1
			s0.3,1.2,0.3,1.9c0,0.6-0.1,1.3-0.3,1.8s-0.5,1-0.9,1.3s-0.9,0.5-1.5,0.5C219.8,327.3,219.3,327.1,218.8,326.9z"/>
		<path class="st15" d="M225.7,316.1h-2.4v-1.5h5.7v1.5h-2.4v11h-1L225.7,316.1L225.7,316.1z"/>
		<path class="st15" d="M231.2,326.5c-0.6-0.5-1-1.3-1.3-2.3s-0.5-2-0.5-3.3s0.1-2.3,0.5-3.3s0.8-1.8,1.3-2.3s1.2-0.9,1.9-0.9
			s1.3,0.3,1.9,0.9c0.6,0.5,1,1.3,1.3,2.3s0.5,2,0.5,3.3s-0.1,2.3-0.5,3.3c-0.3,1-0.8,1.8-1.3,2.3c-0.6,0.5-1.2,0.9-1.9,0.9
			C232.3,327.3,231.7,327,231.2,326.5z M234.4,325.1c0.4-0.4,0.7-1,1-1.8c0.2-0.8,0.3-1.5,0.3-2.4s-0.1-1.8-0.3-2.4
			c-0.2-0.8-0.6-1.3-1-1.7c-0.4-0.4-0.8-0.6-1.3-0.6s-1,0.3-1.4,0.6c-0.4,0.4-0.7,1-1,1.7c-0.2,0.8-0.3,1.5-0.3,2.4s0.1,1.8,0.3,2.4
			c0.2,0.8,0.6,1.3,1,1.8c0.4,0.4,0.8,0.6,1.4,0.6C233.6,325.7,234,325.5,234.4,325.1z"/>
		<path class="st15" d="M242.9,315.7c0.5,0.8,0.8,1.8,0.8,3.2s-0.3,2.4-0.8,3.2c-0.5,0.8-1.2,1.2-2.1,1.2h-1.7v3.8h-1v-12.5h2.7
			C241.7,314.6,242.4,315,242.9,315.7z M242.2,321c0.3-0.5,0.5-1.2,0.5-2c0-0.9-0.1-1.7-0.5-2c-0.3-0.4-0.8-0.8-1.4-0.8h-1.7v5.6
			h1.7C241.4,321.8,241.9,321.5,242.2,321z"/>
		<path class="st15" d="M251.2,318.6c0.3,0.6,0.6,1.7,0.6,2.9v5.8h-0.9V326c-0.1,0.4-0.3,0.8-0.7,1c-0.3,0.3-0.6,0.4-1,0.4
			c-0.6,0-1-0.3-1.4-0.8c-0.3-0.5-0.5-1.2-0.5-2c0-0.9,0.1-1.5,0.5-2c0.3-0.5,0.8-0.8,1.6-0.8h1.5v-0.4c0-0.8-0.1-1.3-0.3-1.7
			c-0.2-0.4-0.6-0.6-1-0.6c-0.3,0-0.6,0.1-0.9,0.3c-0.3,0.1-0.6,0.4-0.8,0.8l-0.4-1.3c0.3-0.4,0.6-0.6,1-0.9
			c0.3-0.3,0.8-0.3,1.2-0.3C250.3,317.5,250.9,317.9,251.2,318.6z M250.3,325.5c0.3-0.3,0.4-0.8,0.6-1.3v-1.3h-1.5
			c-0.8,0-1.2,0.5-1.2,1.4c0,0.5,0.1,0.9,0.3,1.2c0.2,0.3,0.5,0.4,0.8,0.4S250,325.7,250.3,325.5z"/>
		<path class="st15" d="M258.3,317.7v9.5h-0.9v-1.4c-0.2,0.5-0.4,0.9-0.8,1.2c-0.3,0.3-0.6,0.4-1,0.4c-0.7,0-1.3-0.4-1.6-1
			c-0.4-0.6-0.6-1.8-0.6-3.1v-5.5h0.9v5.2c0,0.9,0.1,1.7,0.3,2c0.2,0.5,0.6,0.8,1,0.8c0.5,0,0.9-0.3,1.2-0.8s0.4-1.3,0.4-2.3v-4.9h1
			v-0.1H258.3z"/>
		<path class="st16" d="M266.5,321c0.3,0.6,0.6,1.4,0.6,2.4c0,0.8-0.1,1.4-0.3,1.9c-0.2,0.6-0.5,1-0.9,1.4s-0.8,0.5-1.4,0.5
			c-0.5,0-1-0.1-1.4-0.4s-0.8-0.6-1.1-1.2l0.4-1.4c0.2,0.4,0.6,0.8,0.9,1c0.3,0.3,0.8,0.4,1.2,0.4c0.5,0,0.9-0.3,1.2-0.6
			c0.3-0.4,0.4-0.9,0.4-1.7c0-0.6-0.1-1.3-0.4-1.7s-0.7-0.5-1.3-0.5h-0.6V320l1.7-3.8h-3.3v-1.5h4.5v1.3l-1.7,4
			C265.6,320,266.1,320.3,266.5,321z"/>
		<path class="st16" d="M272.1,320c0.3,0.3,0.6,0.8,0.8,1.3c0.2,0.6,0.3,1.3,0.3,2c0,0.8-0.1,1.5-0.3,2c-0.2,0.6-0.5,1-0.8,1.4
			s-0.8,0.5-1.3,0.5c-0.9,0-1.6-0.5-2.1-1.7c-0.5-1-0.8-2.7-0.8-4.6c0-1.4,0.1-2.6,0.4-3.6s0.6-1.8,1.1-2.3s1-0.8,1.7-0.8
			c0.3,0,0.6,0,0.9,0.1s0.6,0.3,0.8,0.5l-0.3,1.4c-0.3-0.4-0.8-0.6-1.3-0.6c-0.7,0-1.3,0.4-1.7,1.2c-0.4,0.8-0.6,1.9-0.6,3.6
			c0,0.1,0,0.4,0,0.5c0.2-0.5,0.5-0.9,0.8-1.3c0.3-0.3,0.7-0.4,1.2-0.4C271.3,319.4,271.7,319.7,272.1,320z M271.9,325.2
			c0.3-0.4,0.4-1,0.4-1.8s-0.1-1.3-0.4-1.8s-0.7-0.6-1.1-0.6c-0.3,0-0.6,0.1-0.8,0.4c-0.2,0.3-0.4,0.5-0.6,0.9s-0.2,0.8-0.2,1.3
			c0,0.4,0.1,0.9,0.2,1.2c0.1,0.4,0.3,0.6,0.6,0.9c0.2,0.3,0.6,0.4,0.9,0.4C271.2,325.8,271.6,325.6,271.9,325.2z"/>
		<path class="st16" d="M276,314.6v12.5h-1v-11h-1.5v-1.5H276L276,314.6z"/>
		<path class="st16" d="M282.4,325.6v1.5h-4.9v-1.3l2.8-4.9c0.3-0.6,0.6-1.2,0.7-1.5c0.1-0.4,0.2-0.9,0.2-1.3c0-0.6-0.1-1.2-0.3-1.5
			c-0.2-0.4-0.6-0.5-1-0.5c-0.8,0-1.3,0.5-1.7,1.4l-0.7-1c0.3-0.6,0.6-1,1-1.4s0.9-0.5,1.5-0.5c0.7,0,1.3,0.3,1.7,0.9
			c0.4,0.6,0.6,1.5,0.6,2.6c0,0.6-0.1,1.3-0.2,1.9s-0.4,1.3-0.9,2l-2.1,3.7h3.3V325.6z"/>
		<path class="st16" d="M287.3,321c0.3,0.6,0.6,1.4,0.6,2.4c0,0.8-0.1,1.4-0.3,1.9c-0.2,0.5-0.5,1-0.9,1.4s-0.8,0.5-1.4,0.5
			c-0.5,0-1-0.1-1.4-0.4s-0.8-0.6-1.1-1.2l0.4-1.4c0.2,0.4,0.6,0.8,0.9,1c0.3,0.3,0.8,0.4,1.2,0.4c0.5,0,0.9-0.3,1.2-0.6
			c0.3-0.4,0.4-0.9,0.4-1.7c0-0.6-0.1-1.3-0.4-1.7c-0.3-0.4-0.7-0.5-1.3-0.5h-0.6V320l1.7-3.8H283v-1.5h4.5v1.3l-1.8,4.1
			C286.4,320,287,320.3,287.3,321z"/>
		<path class="st15" d="M288.6,330.6c0.4-1.3,0.7-2.6,0.8-4c0.2-1.4,0.3-2.8,0.3-4.5c0-1.5-0.1-3.1-0.3-4.5s-0.5-2.7-0.8-4h0.9
			c0.3,1,0.7,2.3,0.8,3.7c0.2,1.4,0.3,2.9,0.3,4.6s-0.1,3.2-0.3,4.6c-0.2,1.4-0.5,2.7-0.8,3.8h-0.9V330.6z"/>
	</g>
</g>
<g>
	<path class="st17" d="M126.4,246.8l-4.9,11.2h-1.6l-4.9-11.2h1.7l4,9.2l4.1-9.2H126.4z"/>
	<path class="st17" d="M128.4,257.5c-0.7-0.4-1.2-0.9-1.6-1.5c-0.4-0.7-0.6-1.4-0.6-2.2s0.2-1.6,0.6-2.2c0.4-0.7,0.9-1.2,1.6-1.5
		c0.7-0.4,1.4-0.6,2.3-0.6s1.6,0.2,2.3,0.6c0.7,0.4,1.2,0.9,1.6,1.5c0.4,0.7,0.6,1.4,0.6,2.2s-0.2,1.6-0.6,2.2
		c-0.4,0.7-0.9,1.2-1.6,1.5c-0.7,0.4-1.4,0.6-2.3,0.6S129,257.9,128.4,257.5z M132.1,256.4c0.4-0.3,0.8-0.6,1-1.1s0.4-1,0.4-1.6
		s-0.1-1.1-0.4-1.6c-0.2-0.5-0.6-0.8-1-1s-0.9-0.4-1.5-0.4s-1,0.1-1.5,0.4c-0.4,0.2-0.8,0.6-1,1c-0.3,0.5-0.4,1-0.4,1.6
		s0.1,1.1,0.4,1.6s0.6,0.8,1,1.1s0.9,0.4,1.5,0.4S131.7,256.6,132.1,256.4z"/>
	<path class="st17" d="M145.1,249.5v8.5h-1.5v-1.3c-0.3,0.4-0.7,0.8-1.2,1s-1.1,0.4-1.7,0.4c-1.1,0-2-0.3-2.7-0.9s-1-1.5-1-2.8v-4.9
		h1.5v4.7c0,0.8,0.2,1.4,0.6,1.9s1,0.6,1.7,0.6c0.8,0,1.5-0.2,1.9-0.7c0.5-0.5,0.7-1.2,0.7-2.1v-4.4H145.1z"/>
	<path class="st17" d="M148.4,257.8c-0.6-0.2-1.1-0.4-1.5-0.7l0.6-1.2c0.4,0.3,0.8,0.5,1.4,0.6c0.5,0.2,1.1,0.2,1.6,0.2
		c1.3,0,2-0.4,2-1.2c0-0.3-0.1-0.5-0.3-0.6s-0.4-0.3-0.7-0.3s-0.7-0.1-1.2-0.2c-0.7-0.1-1.2-0.2-1.7-0.4s-0.8-0.4-1.1-0.7
		s-0.5-0.8-0.5-1.4c0-0.8,0.3-1.4,1-1.8c0.6-0.5,1.5-0.7,2.6-0.7c0.6,0,1.1,0.1,1.7,0.2c0.6,0.1,1,0.3,1.4,0.6l-0.7,1.2
		c-0.7-0.4-1.5-0.7-2.4-0.7c-0.7,0-1.1,0.1-1.5,0.3c-0.3,0.2-0.5,0.5-0.5,0.8s0.1,0.5,0.3,0.7s0.4,0.3,0.7,0.4
		c0.3,0.1,0.7,0.2,1.2,0.3c0.7,0.1,1.2,0.2,1.7,0.4c0.4,0.1,0.8,0.4,1.1,0.7s0.4,0.8,0.4,1.3c0,0.8-0.3,1.4-1,1.8
		c-0.7,0.5-1.5,0.7-2.7,0.7C149.7,258.1,149.1,258,148.4,257.8z"/>
	<path class="st17" d="M168.3,246.1V258h-1.5v-1.3c-0.3,0.5-0.8,0.8-1.3,1.1c-0.5,0.2-1.1,0.4-1.7,0.4c-0.8,0-1.6-0.2-2.2-0.5
		c-0.7-0.4-1.2-0.9-1.5-1.5c-0.4-0.7-0.6-1.4-0.6-2.3s0.2-1.6,0.6-2.3c0.4-0.7,0.9-1.2,1.5-1.5c0.7-0.4,1.4-0.5,2.2-0.5
		c0.6,0,1.2,0.1,1.7,0.3s0.9,0.6,1.3,1v-4.7h1.5V246.1z M165.4,256.4c0.4-0.3,0.8-0.6,1-1.1s0.4-1,0.4-1.6s-0.1-1.1-0.4-1.6
		c-0.2-0.5-0.6-0.8-1-1s-0.9-0.4-1.5-0.4c-0.5,0-1,0.1-1.5,0.4c-0.4,0.2-0.8,0.6-1,1c-0.3,0.5-0.4,1-0.4,1.6s0.1,1.1,0.4,1.6
		c0.3,0.5,0.6,0.8,1,1.1s0.9,0.4,1.5,0.4S165,256.6,165.4,256.4z"/>
	<path class="st17" d="M178.8,254.3H172c0.1,0.7,0.4,1.3,1,1.8s1.3,0.7,2.1,0.7c1,0,1.8-0.3,2.4-1l0.8,1c-0.4,0.4-0.9,0.8-1.4,1
		c-0.6,0.2-1.2,0.4-1.9,0.4c-0.9,0-1.7-0.2-2.4-0.6s-1.2-0.9-1.6-1.5c-0.4-0.7-0.6-1.4-0.6-2.2s0.2-1.6,0.6-2.2
		c0.4-0.7,0.9-1.2,1.5-1.5c0.6-0.4,1.4-0.6,2.2-0.6s1.5,0.2,2.2,0.6c0.6,0.4,1.1,0.9,1.5,1.5c0.4,0.7,0.5,1.4,0.5,2.3
		C178.9,253.9,178.9,254.1,178.8,254.3z M172.8,251.4c-0.5,0.4-0.8,1-0.9,1.8h5.4c-0.1-0.7-0.4-1.3-0.9-1.8s-1.1-0.7-1.8-0.7
		C173.9,250.7,173.3,251,172.8,251.4z M175.6,246.2h2l-2.7,2.1h-1.4L175.6,246.2z"/>
	<path class="st17" d="M194.1,250.4c0.6,0.6,0.9,1.5,0.9,2.8v4.9h-1.5v-4.7c0-0.8-0.2-1.4-0.6-1.9c-0.4-0.4-0.9-0.6-1.6-0.6
		c-0.8,0-1.4,0.2-1.9,0.7s-0.7,1.2-0.7,2.1v4.4h-1.5v-4.7c0-0.8-0.2-1.4-0.6-1.9c-0.4-0.4-0.9-0.6-1.6-0.6c-0.8,0-1.4,0.2-1.9,0.7
		s-0.7,1.2-0.7,2.1v4.4H181v-8.5h1.5v1.3c0.3-0.4,0.7-0.8,1.2-1s1.1-0.3,1.7-0.3c0.7,0,1.2,0.1,1.8,0.4c0.5,0.3,0.9,0.7,1.2,1.2
		c0.3-0.5,0.8-0.9,1.3-1.2c0.6-0.3,1.2-0.4,1.9-0.4C192.7,249.4,193.5,249.7,194.1,250.4z"/>
	<path class="st17" d="M205.6,254.3h-6.9c0.1,0.7,0.4,1.3,1,1.8s1.3,0.7,2.1,0.7c1,0,1.8-0.3,2.4-1l0.8,1c-0.4,0.4-0.9,0.8-1.4,1
		c-0.6,0.2-1.2,0.4-1.9,0.4c-0.9,0-1.7-0.2-2.4-0.6s-1.2-0.9-1.6-1.5c-0.4-0.7-0.6-1.4-0.6-2.2s0.2-1.6,0.6-2.2
		c0.4-0.7,0.9-1.2,1.5-1.5c0.6-0.4,1.4-0.6,2.2-0.6s1.5,0.2,2.2,0.6c0.6,0.4,1.1,0.9,1.5,1.5c0.4,0.7,0.5,1.4,0.5,2.3
		C205.6,253.9,205.6,254.1,205.6,254.3z M199.6,251.4c-0.5,0.4-0.8,1-0.9,1.8h5.4c-0.1-0.7-0.4-1.3-0.9-1.8s-1.1-0.7-1.8-0.7
		C200.7,250.7,200.1,251,199.6,251.4z M202.4,246.2h2l-2.7,2.1h-1.4L202.4,246.2z"/>
	<path class="st17" d="M214.9,250.4c0.6,0.6,1,1.5,1,2.7v4.9h-1.5v-4.7c0-0.8-0.2-1.4-0.6-1.9s-1-0.6-1.7-0.6c-0.8,0-1.5,0.2-2,0.7
		s-0.7,1.2-0.7,2.1v4.4h-1.5v-8.5h1.5v1.3c0.3-0.4,0.7-0.8,1.3-1c0.5-0.2,1.1-0.4,1.8-0.4C213.4,249.4,214.2,249.8,214.9,250.4z"/>
	<path class="st17" d="M224.4,250.3c0.6,0.6,0.9,1.4,0.9,2.6v5.1h-1.5v-1.1c-0.3,0.4-0.6,0.7-1.1,0.9s-1,0.3-1.7,0.3
		c-0.9,0-1.7-0.2-2.3-0.7s-0.9-1.1-0.9-1.8s0.3-1.3,0.8-1.8s1.4-0.7,2.6-0.7h2.4v-0.3c0-0.7-0.2-1.2-0.6-1.5
		c-0.4-0.4-0.9-0.5-1.7-0.5c-0.5,0-1,0.1-1.5,0.2c-0.5,0.2-0.9,0.4-1.2,0.7l-0.6-1.2c0.4-0.4,1-0.6,1.6-0.8s1.3-0.3,1.9-0.3
		C222.9,249.4,223.8,249.7,224.4,250.3z M222.9,256.5c0.4-0.3,0.7-0.6,0.9-1.1v-1.2h-2.4c-1.3,0-2,0.4-2,1.3c0,0.4,0.2,0.8,0.5,1
		s0.8,0.4,1.4,0.4S222.5,256.8,222.9,256.5z"/>
	<path class="st17" d="M236.4,249.5v7.3c0,1.5-0.4,2.6-1.1,3.3c-0.7,0.7-1.8,1.1-3.3,1.1c-0.8,0-1.6-0.1-2.3-0.3
		c-0.7-0.2-1.3-0.5-1.8-0.9l0.7-1.2c0.4,0.3,0.9,0.6,1.5,0.8s1.2,0.3,1.8,0.3c1,0,1.7-0.2,2.2-0.7s0.7-1.2,0.7-2.1v-0.7
		c-0.4,0.4-0.8,0.8-1.3,1s-1.1,0.3-1.7,0.3c-0.8,0-1.5-0.2-2.2-0.5s-1.2-0.8-1.5-1.5s-0.6-1.3-0.6-2.1s0.2-1.5,0.6-2.1
		s0.9-1.1,1.5-1.4c0.7-0.3,1.4-0.5,2.2-0.5c0.6,0,1.2,0.1,1.8,0.4s1,0.6,1.4,1v-1.3h1.4V249.5z M233.5,256c0.4-0.2,0.8-0.6,1-1
		c0.3-0.4,0.4-0.9,0.4-1.4c0-0.8-0.3-1.5-0.8-2s-1.2-0.8-2.1-0.8c-0.9,0-1.6,0.3-2.1,0.8s-0.8,1.2-0.8,2c0,0.5,0.1,1,0.4,1.4
		c0.3,0.4,0.6,0.7,1,1c0.4,0.2,0.9,0.4,1.5,0.4C232.5,256.3,233,256.2,233.5,256z"/>
	<path class="st17" d="M246.9,254.3H240c0.1,0.7,0.4,1.3,1,1.8s1.3,0.7,2.1,0.7c1,0,1.8-0.3,2.4-1l0.8,1c-0.4,0.4-0.9,0.8-1.4,1
		c-0.6,0.2-1.2,0.4-1.9,0.4c-0.9,0-1.7-0.2-2.4-0.6s-1.2-0.9-1.6-1.5c-0.4-0.7-0.6-1.4-0.6-2.2s0.2-1.6,0.6-2.2
		c0.4-0.7,0.9-1.2,1.5-1.5c0.6-0.4,1.4-0.6,2.2-0.6s1.5,0.2,2.2,0.6c0.6,0.4,1.1,0.9,1.5,1.5c0.4,0.7,0.5,1.4,0.5,2.3
		C247,253.9,247,254.1,246.9,254.3z M240.9,251.4c-0.5,0.4-0.8,1-0.9,1.8h5.4c-0.1-0.7-0.4-1.3-0.9-1.8s-1.1-0.7-1.8-0.7
		S241.4,251,240.9,251.4z"/>
	<path class="st17" d="M255.3,256.7v1.3h-7.1v-1l5-6.2h-4.9v-1.3h6.9v1l-5,6.2H255.3z"/>
	<path class="st17" d="M264.1,253.3c0.1-0.3,0.3-0.6,0.5-0.8s0.5-0.5,0.8-0.8c0.4-0.4,0.7-0.7,0.9-1c0.2-0.3,0.3-0.6,0.3-1
		c0-0.5-0.2-0.9-0.6-1.3s-1-0.5-1.7-0.5c-1.2,0-2.2,0.4-2.9,1.3l-1.2-0.8c0.4-0.6,1-1,1.7-1.3s1.5-0.5,2.4-0.5
		c1.2,0,2.1,0.3,2.8,0.8c0.7,0.5,1,1.2,1,2.1c0,0.4-0.1,0.8-0.2,1.2s-0.3,0.6-0.5,0.8s-0.5,0.5-0.8,0.8c-0.4,0.4-0.8,0.7-1,1
		s-0.3,0.7-0.3,1.1h-1.6C263.9,254,263.9,253.7,264.1,253.3z M263.9,257.8c-0.2-0.2-0.3-0.4-0.3-0.7c0-0.3,0.1-0.5,0.3-0.7
		c0.2-0.2,0.4-0.3,0.7-0.3s0.5,0.1,0.7,0.3s0.3,0.4,0.3,0.7c0,0.3-0.1,0.5-0.3,0.7s-0.4,0.3-0.7,0.3
		C264.4,258.1,264.1,258,263.9,257.8z"/>
	<path class="st17" d="M285.1,246.8l-4.9,11.2h-1.6l-4.9-11.2h1.7l4,9.2l4.1-9.2H285.1z"/>
	<path class="st17" d="M293.3,254.3h-6.9c0.1,0.7,0.4,1.3,1,1.8s1.3,0.7,2.1,0.7c1,0,1.8-0.3,2.4-1l0.8,1c-0.4,0.4-0.9,0.8-1.4,1
		c-0.6,0.2-1.2,0.4-1.9,0.4c-0.9,0-1.7-0.2-2.4-0.6s-1.2-0.9-1.6-1.5c-0.4-0.7-0.6-1.4-0.6-2.2s0.2-1.6,0.6-2.2
		c0.4-0.7,0.9-1.2,1.5-1.5c0.6-0.4,1.4-0.6,2.2-0.6s1.5,0.2,2.2,0.6c0.6,0.4,1.1,0.9,1.5,1.5c0.4,0.7,0.5,1.4,0.5,2.3
		C293.3,253.9,293.3,254.1,293.3,254.3z M287.3,251.4c-0.5,0.4-0.8,1-0.9,1.8h5.4c-0.1-0.7-0.4-1.3-0.9-1.8s-1.1-0.7-1.8-0.7
		S287.8,251,287.3,251.4z"/>
	<path class="st17" d="M302.5,250.4c0.6,0.6,1,1.5,1,2.7v4.9H302v-4.7c0-0.8-0.2-1.4-0.6-1.9s-1-0.6-1.7-0.6c-0.8,0-1.5,0.2-2,0.7
		s-0.7,1.2-0.7,2.1v4.4h-1.5v-8.5h1.5v1.3c0.3-0.4,0.7-0.8,1.3-1s1.1-0.4,1.8-0.4C301,249.4,301.9,249.8,302.5,250.4z"/>
	<path class="st17" d="M314,254.3h-6.9c0.1,0.7,0.4,1.3,1,1.8s1.3,0.7,2.1,0.7c1,0,1.8-0.3,2.4-1l0.8,1c-0.4,0.4-0.9,0.8-1.4,1
		c-0.6,0.2-1.2,0.4-1.9,0.4c-0.9,0-1.7-0.2-2.4-0.6c-0.7-0.4-1.2-0.9-1.6-1.5s-0.6-1.4-0.6-2.2s0.2-1.6,0.6-2.2
		c0.4-0.7,0.9-1.2,1.5-1.5c0.6-0.4,1.4-0.6,2.2-0.6c0.8,0,1.5,0.2,2.2,0.6c0.6,0.4,1.1,0.9,1.5,1.5c0.4,0.7,0.5,1.4,0.5,2.3
		C314,253.9,314,254.1,314,254.3z M308,251.4c-0.5,0.4-0.8,1-0.9,1.8h5.4c-0.1-0.7-0.4-1.3-0.9-1.8s-1.1-0.7-1.8-0.7
		C309.1,250.7,308.5,251,308,251.4z"/>
	<path class="st17" d="M322.4,256.7v1.3h-7.1v-1l5-6.2h-4.9v-1.3h6.9v1l-5,6.2H322.4z"/>
	<path class="st17" d="M336.7,246.1V258h-1.5v-1.3c-0.3,0.5-0.8,0.8-1.3,1.1c-0.5,0.2-1.1,0.4-1.7,0.4c-0.8,0-1.6-0.2-2.2-0.5
		c-0.7-0.4-1.2-0.9-1.5-1.5c-0.4-0.7-0.6-1.4-0.6-2.3s0.2-1.6,0.6-2.3s0.9-1.2,1.5-1.5c0.7-0.4,1.4-0.5,2.2-0.5
		c0.6,0,1.2,0.1,1.7,0.3s0.9,0.6,1.3,1v-4.7h1.5V246.1z M333.8,256.4c0.4-0.3,0.8-0.6,1-1.1s0.4-1,0.4-1.6s-0.1-1.1-0.4-1.6
		c-0.2-0.5-0.6-0.8-1-1s-0.9-0.4-1.5-0.4c-0.5,0-1,0.1-1.5,0.4c-0.4,0.2-0.8,0.6-1,1c-0.3,0.5-0.4,1-0.4,1.6s0.1,1.1,0.4,1.6
		s0.6,0.8,1,1.1c0.4,0.3,0.9,0.4,1.5,0.4S333.4,256.6,333.8,256.4z"/>
	<path class="st17" d="M347.3,254.3h-6.9c0.1,0.7,0.4,1.3,1,1.8s1.3,0.7,2.1,0.7c1,0,1.8-0.3,2.4-1l0.8,1c-0.4,0.4-0.9,0.8-1.4,1
		c-0.6,0.2-1.2,0.4-1.9,0.4c-0.9,0-1.7-0.2-2.4-0.6s-1.2-0.9-1.6-1.5c-0.4-0.7-0.6-1.4-0.6-2.2s0.2-1.6,0.6-2.2
		c0.4-0.7,0.9-1.2,1.5-1.5c0.6-0.4,1.4-0.6,2.2-0.6s1.5,0.2,2.2,0.6c0.6,0.4,1.1,0.9,1.5,1.5c0.4,0.7,0.5,1.4,0.5,2.3
		C347.3,253.9,347.3,254.1,347.3,254.3z M341.3,251.4c-0.5,0.4-0.8,1-0.9,1.8h5.4c-0.1-0.7-0.4-1.3-0.9-1.8s-1.1-0.7-1.8-0.7
		C342.4,250.7,341.8,251,341.3,251.4z M344.1,246.2h2l-2.7,2.1H342L344.1,246.2z"/>
	<path class="st17" d="M350.8,257.5c-0.7-0.4-1.2-0.9-1.6-1.5c-0.4-0.7-0.6-1.4-0.6-2.2s0.2-1.6,0.6-2.2c0.4-0.7,0.9-1.2,1.6-1.5
		c0.7-0.4,1.4-0.6,2.3-0.6c0.8,0,1.5,0.2,2.1,0.5s1.1,0.8,1.4,1.3l-1.2,0.8c-0.3-0.4-0.6-0.7-1-0.9s-0.8-0.3-1.3-0.3
		c-0.6,0-1.1,0.1-1.5,0.4c-0.4,0.2-0.8,0.6-1,1c-0.3,0.5-0.4,1-0.4,1.6s0.1,1.1,0.4,1.6c0.3,0.5,0.6,0.8,1,1s0.9,0.4,1.5,0.4
		c0.5,0,0.9-0.1,1.3-0.3c0.4-0.2,0.7-0.5,1-0.9l1.2,0.7c-0.3,0.6-0.8,1-1.4,1.4s-1.3,0.5-2.1,0.5
		C352.3,258.1,351.5,257.9,350.8,257.5z"/>
	<path class="st17" d="M359.8,257.5c-0.7-0.4-1.2-0.9-1.6-1.5c-0.4-0.7-0.6-1.4-0.6-2.2s0.2-1.6,0.6-2.2c0.4-0.7,0.9-1.2,1.6-1.5
		c0.7-0.4,1.4-0.6,2.3-0.6s1.6,0.2,2.3,0.6c0.7,0.4,1.2,0.9,1.6,1.5c0.4,0.7,0.6,1.4,0.6,2.2s-0.2,1.6-0.6,2.2
		c-0.4,0.7-0.9,1.2-1.6,1.5c-0.7,0.4-1.4,0.6-2.3,0.6S360.5,257.9,359.8,257.5z M363.5,256.4c0.4-0.3,0.8-0.6,1-1.1s0.4-1,0.4-1.6
		s-0.1-1.1-0.4-1.6c-0.2-0.5-0.6-0.8-1-1s-0.9-0.4-1.5-0.4s-1,0.1-1.5,0.4c-0.4,0.2-0.8,0.6-1,1c-0.3,0.5-0.4,1-0.4,1.6
		s0.1,1.1,0.4,1.6s0.6,0.8,1,1.1s0.9,0.4,1.5,0.4S363.1,256.6,363.5,256.4z"/>
	<path class="st17" d="M376.5,249.5v8.5H375v-1.3c-0.3,0.4-0.7,0.8-1.2,1s-1.1,0.4-1.7,0.4c-1.1,0-2-0.3-2.7-0.9s-1-1.5-1-2.8v-4.9
		h1.5v4.7c0,0.8,0.2,1.4,0.6,1.9s1,0.6,1.7,0.6c0.8,0,1.5-0.2,1.9-0.7c0.5-0.5,0.7-1.2,0.7-2.1v-4.4H376.5z"/>
	<path class="st17" d="M378.9,252.9h4.3v1.3h-4.3V252.9z"/>
	<path class="st17" d="M124,268.7l-3.7,8.5h-1.6l-3.7-8.5h1.6l2.9,6.8l3-6.8H124z"/>
	<path class="st17" d="M128.1,269c0.5-0.3,1.2-0.4,1.9-0.4v1.5c-0.1,0-0.2,0-0.4,0c-0.8,0-1.5,0.2-2,0.7s-0.7,1.2-0.7,2.1v4.2h-1.5
		v-8.5h1.5v1.4C127.2,269.7,127.6,269.3,128.1,269z"/>
	<path class="st17" d="M131.9,266.8c-0.2-0.2-0.3-0.4-0.3-0.7s0.1-0.5,0.3-0.7s0.4-0.3,0.7-0.3s0.5,0.1,0.7,0.3s0.3,0.4,0.3,0.7
		c0,0.3-0.1,0.5-0.3,0.7s-0.4,0.3-0.7,0.3C132.3,267.1,132.1,267,131.9,266.8z M131.9,268.7h1.5v8.5h-1.5V268.7z"/>
	<path class="st17" d="M139,269c0.5-0.3,1.2-0.4,1.9-0.4v1.5c-0.1,0-0.2,0-0.4,0c-0.8,0-1.5,0.2-2,0.7s-0.7,1.2-0.7,2.1v4.2h-1.5
		v-8.5h1.5v1.4C138.1,269.7,138.5,269.3,139,269z"/>
	<path class="st17" d="M154.3,269.6c0.6,0.6,1,1.5,1,2.7v4.9h-1.5v-4.7c0-0.8-0.2-1.4-0.6-1.9s-1-0.6-1.7-0.6c-0.8,0-1.5,0.2-2,0.7
		s-0.7,1.2-0.7,2.1v4.4h-1.5v-8.5h1.5v1.3c0.3-0.4,0.7-0.8,1.3-1c0.5-0.2,1.1-0.4,1.8-0.4C152.8,268.6,153.7,269,154.3,269.6z"/>
	<path class="st17" d="M159.5,276.7c-0.7-0.4-1.2-0.9-1.6-1.5c-0.4-0.7-0.6-1.4-0.6-2.2s0.2-1.6,0.6-2.2c0.4-0.7,0.9-1.2,1.6-1.5
		c0.7-0.4,1.4-0.6,2.3-0.6s1.6,0.2,2.3,0.6s1.2,0.9,1.6,1.5c0.4,0.7,0.6,1.4,0.6,2.2s-0.2,1.6-0.6,2.2c-0.4,0.7-0.9,1.2-1.6,1.5
		c-0.7,0.4-1.4,0.6-2.3,0.6S160.2,277.1,159.5,276.7z M163.2,275.6c0.4-0.3,0.8-0.6,1-1.1s0.4-1,0.4-1.6s-0.1-1.1-0.4-1.6
		c-0.2-0.5-0.6-0.8-1-1s-0.9-0.4-1.5-0.4s-1,0.1-1.5,0.4c-0.4,0.2-0.8,0.6-1,1c-0.3,0.5-0.4,1-0.4,1.6s0.1,1.1,0.4,1.6
		c0.3,0.5,0.6,0.8,1,1.1s0.9,0.4,1.5,0.4S162.8,275.8,163.2,275.6z"/>
	<path class="st17" d="M168.7,277c-0.6-0.2-1.1-0.4-1.5-0.7l0.6-1.2c0.4,0.3,0.8,0.5,1.4,0.6c0.5,0.2,1.1,0.2,1.6,0.2
		c1.3,0,2-0.4,2-1.2c0-0.3-0.1-0.5-0.3-0.6s-0.4-0.3-0.7-0.3s-0.7-0.1-1.2-0.2c-0.7-0.1-1.2-0.2-1.7-0.4s-0.8-0.4-1.1-0.7
		c-0.3-0.3-0.5-0.8-0.5-1.4c0-0.8,0.3-1.4,1-1.8c0.6-0.5,1.5-0.7,2.6-0.7c0.6,0,1.1,0.1,1.7,0.2c0.6,0.1,1,0.3,1.4,0.6l-0.7,1.2
		c-0.7-0.4-1.5-0.7-2.4-0.7c-0.7,0-1.1,0.1-1.5,0.3c-0.3,0.2-0.5,0.5-0.5,0.8s0.1,0.5,0.3,0.7s0.4,0.3,0.7,0.4s0.7,0.2,1.2,0.3
		c0.7,0.1,1.2,0.2,1.7,0.4c0.4,0.1,0.8,0.4,1.1,0.7c0.3,0.3,0.4,0.8,0.4,1.3c0,0.8-0.3,1.4-1,1.8c-0.7,0.5-1.5,0.7-2.7,0.7
		C170,277.3,169.4,277.2,168.7,277z"/>
	<path class="st17" d="M186.4,269.5c0.6,0.6,0.9,1.4,0.9,2.6v5.1h-1.5v-1.1c-0.3,0.4-0.6,0.7-1.1,0.9s-1,0.3-1.7,0.3
		c-0.9,0-1.7-0.2-2.3-0.7s-0.9-1.1-0.9-1.8c0-0.7,0.3-1.3,0.8-1.8s1.4-0.7,2.6-0.7h2.4V272c0-0.7-0.2-1.2-0.6-1.5
		c-0.4-0.4-0.9-0.5-1.7-0.5c-0.5,0-1,0.1-1.5,0.2c-0.5,0.2-0.9,0.4-1.2,0.7l-0.6-1.2c0.4-0.4,1-0.6,1.6-0.8s1.3-0.3,1.9-0.3
		C184.9,268.6,185.8,268.9,186.4,269.5z M184.9,275.7c0.4-0.3,0.7-0.6,0.9-1.1v-1.2h-2.4c-1.3,0-2,0.4-2,1.3c0,0.4,0.2,0.8,0.5,1
		s0.8,0.4,1.4,0.4S184.5,276,184.9,275.7z"/>
	<path class="st17" d="M190.6,277c-0.6-0.2-1.1-0.4-1.5-0.7l0.6-1.2c0.4,0.3,0.8,0.5,1.4,0.6c0.5,0.2,1.1,0.2,1.6,0.2
		c1.3,0,2-0.4,2-1.2c0-0.3-0.1-0.5-0.3-0.6s-0.4-0.3-0.7-0.3s-0.7-0.1-1.2-0.2c-0.7-0.1-1.2-0.2-1.7-0.4s-0.8-0.4-1.1-0.7
		c-0.3-0.3-0.5-0.8-0.5-1.4c0-0.8,0.3-1.4,1-1.8c0.6-0.5,1.5-0.7,2.6-0.7c0.6,0,1.1,0.1,1.7,0.2c0.6,0.1,1,0.3,1.4,0.6l-0.7,1.2
		c-0.7-0.4-1.5-0.7-2.4-0.7c-0.7,0-1.1,0.1-1.5,0.3c-0.3,0.2-0.5,0.5-0.5,0.8s0.1,0.5,0.3,0.7s0.4,0.3,0.7,0.4s0.7,0.2,1.2,0.3
		c0.7,0.1,1.2,0.2,1.7,0.4c0.4,0.1,0.8,0.4,1.1,0.7c0.3,0.3,0.4,0.8,0.4,1.3c0,0.8-0.3,1.4-1,1.8c-0.7,0.5-1.5,0.7-2.7,0.7
		C191.9,277.3,191.3,277.2,190.6,277z"/>
	<path class="st17" d="M198.6,277c-0.6-0.2-1.1-0.4-1.5-0.7l0.6-1.2c0.4,0.3,0.8,0.5,1.4,0.6c0.5,0.2,1.1,0.2,1.6,0.2
		c1.3,0,2-0.4,2-1.2c0-0.3-0.1-0.5-0.3-0.6s-0.4-0.3-0.7-0.3s-0.7-0.1-1.2-0.2c-0.7-0.1-1.2-0.2-1.7-0.4s-0.8-0.4-1.1-0.7
		c-0.3-0.3-0.5-0.8-0.5-1.4c0-0.8,0.3-1.4,1-1.8c0.6-0.5,1.5-0.7,2.6-0.7c0.6,0,1.1,0.1,1.7,0.2c0.6,0.1,1,0.3,1.4,0.6l-0.7,1.2
		c-0.7-0.4-1.5-0.7-2.4-0.7c-0.7,0-1.1,0.1-1.5,0.3c-0.3,0.2-0.5,0.5-0.5,0.8s0.1,0.5,0.3,0.7s0.4,0.3,0.7,0.4s0.7,0.2,1.2,0.3
		c0.7,0.1,1.2,0.2,1.7,0.4c0.4,0.1,0.8,0.4,1.1,0.7c0.3,0.3,0.4,0.8,0.4,1.3c0,0.8-0.3,1.4-1,1.8c-0.7,0.5-1.5,0.7-2.7,0.7
		C199.9,277.3,199.3,277.2,198.6,277z"/>
	<path class="st17" d="M214.1,268.7v8.5h-1.5v-1.3c-0.3,0.4-0.7,0.8-1.2,1s-1.1,0.4-1.7,0.4c-1.1,0-2-0.3-2.7-0.9s-1-1.5-1-2.8v-4.9
		h1.5v4.7c0,0.8,0.2,1.4,0.6,1.9s1,0.6,1.7,0.6c0.8,0,1.5-0.2,1.9-0.7c0.5-0.5,0.7-1.2,0.7-2.1v-4.4L214.1,268.7L214.1,268.7z"/>
	<path class="st17" d="M219.7,269c0.5-0.3,1.2-0.4,1.9-0.4v1.5c-0.1,0-0.2,0-0.4,0c-0.8,0-1.5,0.2-2,0.7s-0.7,1.2-0.7,2.1v4.2H217
		v-8.5h1.5v1.4C218.8,269.7,219.2,269.3,219.7,269z"/>
	<path class="st17" d="M229.3,269.5c0.6,0.6,0.9,1.4,0.9,2.6v5.1h-1.5v-1.1c-0.3,0.4-0.6,0.7-1.1,0.9s-1,0.3-1.7,0.3
		c-0.9,0-1.7-0.2-2.3-0.7s-0.9-1.1-0.9-1.8c0-0.7,0.3-1.3,0.8-1.8s1.4-0.7,2.6-0.7h2.4V272c0-0.7-0.2-1.2-0.6-1.5
		c-0.4-0.4-0.9-0.5-1.7-0.5c-0.5,0-1,0.1-1.5,0.2c-0.5,0.2-0.9,0.4-1.2,0.7l-0.6-1.2c0.4-0.4,1-0.6,1.6-0.8s1.3-0.3,1.9-0.3
		C227.7,268.6,228.6,268.9,229.3,269.5z M227.7,275.7c0.4-0.3,0.7-0.6,0.9-1.1v-1.2h-2.4c-1.3,0-2,0.4-2,1.3c0,0.4,0.2,0.8,0.5,1
		s0.8,0.4,1.4,0.4S227.3,276,227.7,275.7z"/>
	<path class="st17" d="M240.1,269.6c0.6,0.6,1,1.5,1,2.7v4.9h-1.5v-4.7c0-0.8-0.2-1.4-0.6-1.9s-1-0.6-1.7-0.6c-0.8,0-1.5,0.2-2,0.7
		s-0.7,1.2-0.7,2.1v4.4h-1.5v-8.5h1.5v1.3c0.3-0.4,0.7-0.8,1.3-1c0.5-0.2,1.1-0.4,1.8-0.4C238.7,268.6,239.5,269,240.1,269.6z"/>
	<path class="st17" d="M245.4,276.7c-0.7-0.4-1.2-0.9-1.6-1.5c-0.4-0.7-0.6-1.4-0.6-2.2s0.2-1.6,0.6-2.2c0.4-0.7,0.9-1.2,1.6-1.5
		c0.7-0.4,1.4-0.6,2.3-0.6c0.8,0,1.5,0.2,2.1,0.5s1.1,0.8,1.4,1.3l-1.2,0.8c-0.3-0.4-0.6-0.7-1-0.9c-0.4-0.2-0.8-0.3-1.3-0.3
		c-0.6,0-1.1,0.1-1.5,0.4c-0.4,0.2-0.8,0.6-1,1c-0.3,0.5-0.4,1-0.4,1.6s0.1,1.1,0.4,1.6c0.3,0.5,0.6,0.8,1,1s0.9,0.4,1.5,0.4
		c0.5,0,0.9-0.1,1.3-0.3c0.4-0.2,0.7-0.5,1-0.9l1.2,0.7c-0.3,0.6-0.8,1-1.4,1.4c-0.6,0.3-1.3,0.5-2.1,0.5
		C246.8,277.3,246.1,277.1,245.4,276.7z"/>
	<path class="st17" d="M260.6,273.5h-6.9c0.1,0.7,0.4,1.3,1,1.8s1.3,0.7,2.1,0.7c1,0,1.8-0.3,2.4-1l0.8,1c-0.4,0.4-0.9,0.8-1.4,1
		c-0.6,0.2-1.2,0.4-1.9,0.4c-0.9,0-1.7-0.2-2.4-0.6s-1.2-0.9-1.6-1.5s-0.6-1.4-0.6-2.2c0-0.8,0.2-1.6,0.6-2.2
		c0.4-0.7,0.9-1.2,1.5-1.5c0.6-0.4,1.4-0.6,2.2-0.6c0.8,0,1.5,0.2,2.2,0.6c0.6,0.4,1.1,0.9,1.5,1.5c0.4,0.7,0.5,1.4,0.5,2.3
		C260.7,273.1,260.7,273.3,260.6,273.5z M254.6,270.6c-0.5,0.4-0.8,1-0.9,1.8h5.4c-0.1-0.7-0.4-1.3-0.9-1.8s-1.1-0.7-1.8-0.7
		C255.7,269.9,255.1,270.2,254.6,270.6z"/>
	<path class="st17" d="M263.2,277c-0.6-0.2-1.1-0.4-1.5-0.7l0.6-1.2c0.4,0.3,0.8,0.5,1.4,0.6c0.5,0.2,1.1,0.2,1.6,0.2
		c1.3,0,2-0.4,2-1.2c0-0.3-0.1-0.5-0.3-0.6s-0.4-0.3-0.7-0.3c-0.3-0.1-0.7-0.1-1.2-0.2c-0.7-0.1-1.2-0.2-1.7-0.4
		c-0.4-0.1-0.8-0.4-1.1-0.7c-0.3-0.3-0.5-0.8-0.5-1.4c0-0.8,0.3-1.4,1-1.8s1.5-0.7,2.6-0.7c0.6,0,1.1,0.1,1.7,0.2s1,0.3,1.4,0.6
		l-0.7,1.2c-0.7-0.4-1.5-0.7-2.4-0.7c-0.7,0-1.1,0.1-1.5,0.3c-0.3,0.2-0.5,0.5-0.5,0.8s0.1,0.5,0.3,0.7c0.2,0.2,0.4,0.3,0.7,0.4
		c0.3,0.1,0.7,0.2,1.2,0.3c0.7,0.1,1.2,0.2,1.7,0.4c0.4,0.1,0.8,0.4,1.1,0.7c0.3,0.3,0.4,0.8,0.4,1.3c0,0.8-0.3,1.4-1,1.8
		s-1.5,0.7-2.7,0.7C264.5,277.3,263.9,277.2,263.2,277z"/>
	<path class="st17" d="M282.2,269.6c0.6,0.6,1,1.5,1,2.7v4.9h-1.5v-4.7c0-0.8-0.2-1.4-0.6-1.9s-1-0.6-1.7-0.6c-0.8,0-1.5,0.2-2,0.7
		s-0.7,1.2-0.7,2.1v4.4h-1.5v-11.9h1.5v4.6c0.3-0.4,0.7-0.7,1.3-0.9c0.5-0.2,1.1-0.3,1.7-0.3C280.7,268.6,281.6,269,282.2,269.6z"/>
	<path class="st17" d="M291.8,269.5c0.6,0.6,0.9,1.4,0.9,2.6v5.1h-1.5v-1.1c-0.3,0.4-0.6,0.7-1.1,0.9s-1,0.3-1.7,0.3
		c-1,0-1.7-0.2-2.3-0.7c-0.6-0.5-0.9-1.1-0.9-1.8c0-0.7,0.3-1.3,0.8-1.8s1.4-0.7,2.6-0.7h2.4V272c0-0.7-0.2-1.2-0.6-1.5
		c-0.4-0.4-1-0.5-1.7-0.5c-0.5,0-1,0.1-1.5,0.2c-0.5,0.2-0.9,0.4-1.2,0.7l-0.6-1.2c0.4-0.4,1-0.6,1.6-0.8c0.6-0.2,1.3-0.3,1.9-0.3
		C290.3,268.6,291.2,268.9,291.8,269.5z M290.3,275.7c0.4-0.3,0.7-0.6,0.9-1.1v-1.2h-2.4c-1.3,0-2,0.4-2,1.3c0,0.4,0.2,0.8,0.5,1
		s0.8,0.4,1.4,0.4C289.3,276.1,289.8,276,290.3,275.7z"/>
	<path class="st17" d="M302.3,269.2c0.7,0.4,1.2,0.9,1.5,1.5s0.6,1.4,0.6,2.3s-0.2,1.6-0.6,2.3c-0.4,0.7-0.9,1.2-1.5,1.5
		s-1.4,0.5-2.2,0.5c-0.6,0-1.2-0.1-1.7-0.4c-0.5-0.2-1-0.6-1.3-1.1v1.3h-1.5v-11.9h1.5v4.7c0.3-0.4,0.8-0.8,1.3-1s1.1-0.3,1.7-0.3
		C300.9,268.6,301.6,268.8,302.3,269.2z M301.4,275.6c0.4-0.3,0.8-0.6,1-1.1c0.3-0.5,0.4-1,0.4-1.6s-0.1-1.1-0.4-1.6s-0.6-0.8-1-1
		s-0.9-0.4-1.5-0.4c-0.5,0-1,0.1-1.5,0.4c-0.4,0.2-0.8,0.6-1,1c-0.2,0.5-0.4,1-0.4,1.6s0.1,1.1,0.4,1.6c0.2,0.5,0.6,0.8,1,1.1
		s0.9,0.4,1.5,0.4S301,275.8,301.4,275.6z"/>
	<path class="st17" d="M306.5,266.8c-0.2-0.2-0.3-0.4-0.3-0.7s0.1-0.5,0.3-0.7s0.4-0.3,0.7-0.3c0.3,0,0.5,0.1,0.7,0.3
		s0.3,0.4,0.3,0.7c0,0.3-0.1,0.5-0.3,0.7s-0.4,0.3-0.7,0.3C307,267.1,306.7,267,306.5,266.8z M306.5,268.7h1.5v8.5h-1.5V268.7z"/>
	<path class="st17" d="M315.7,276.7c-0.2,0.2-0.5,0.3-0.8,0.4s-0.7,0.2-1,0.2c-0.9,0-1.5-0.2-2-0.7s-0.7-1.1-0.7-2V270h-1.4v-1.3
		h1.4v-1.9h1.5v1.9h2.4v1.3h-2.4v4.6c0,0.5,0.1,0.8,0.3,1.1c0.2,0.2,0.6,0.4,1,0.4c0.5,0,0.9-0.1,1.2-0.4L315.7,276.7z"/>
	<path class="st17" d="M323.4,269.5c0.6,0.6,0.9,1.4,0.9,2.6v5.1h-1.5v-1.1c-0.3,0.4-0.6,0.7-1.1,0.9s-1,0.3-1.7,0.3
		c-1,0-1.7-0.2-2.3-0.7c-0.6-0.5-0.9-1.1-0.9-1.8c0-0.7,0.3-1.3,0.8-1.8s1.4-0.7,2.6-0.7h2.4V272c0-0.7-0.2-1.2-0.6-1.5
		c-0.4-0.4-1-0.5-1.7-0.5c-0.5,0-1,0.1-1.5,0.2c-0.5,0.2-0.9,0.4-1.2,0.7l-0.6-1.2c0.4-0.4,1-0.6,1.6-0.8c0.6-0.2,1.3-0.3,1.9-0.3
		C321.8,268.6,322.7,268.9,323.4,269.5z M321.8,275.7c0.4-0.3,0.7-0.6,0.9-1.1v-1.2h-2.4c-1.3,0-2,0.4-2,1.3c0,0.4,0.2,0.8,0.5,1
		s0.8,0.4,1.4,0.4C320.9,276.1,321.4,276,321.8,275.7z"/>
	<path class="st17" d="M331.9,276.7c-0.2,0.2-0.5,0.3-0.8,0.4s-0.7,0.2-1,0.2c-0.9,0-1.5-0.2-2-0.7s-0.7-1.1-0.7-2V270H326v-1.3h1.4
		v-1.9h1.5v1.9h2.4v1.3h-2.4v4.6c0,0.5,0.1,0.8,0.3,1.1c0.2,0.2,0.6,0.4,1,0.4c0.5,0,0.9-0.1,1.2-0.4L331.9,276.7z"/>
	<path class="st17" d="M333.8,266.8c-0.2-0.2-0.3-0.4-0.3-0.7s0.1-0.5,0.3-0.7c0.2-0.2,0.4-0.3,0.7-0.3s0.5,0.1,0.7,0.3
		s0.3,0.4,0.3,0.7c0,0.3-0.1,0.5-0.3,0.7s-0.4,0.3-0.7,0.3S334,267,333.8,266.8z M333.8,268.7h1.5v8.5h-1.5V268.7z"/>
	<path class="st17" d="M339.6,276.7c-0.7-0.4-1.2-0.9-1.6-1.5c-0.4-0.7-0.6-1.4-0.6-2.2s0.2-1.6,0.6-2.2c0.4-0.7,0.9-1.2,1.6-1.5
		c0.7-0.4,1.4-0.6,2.3-0.6s1.6,0.2,2.3,0.6c0.7,0.4,1.2,0.9,1.6,1.5c0.4,0.7,0.6,1.4,0.6,2.2s-0.2,1.6-0.6,2.2
		c-0.4,0.7-0.9,1.2-1.6,1.5c-0.7,0.4-1.4,0.6-2.3,0.6S340.3,277.1,339.6,276.7z M343.3,275.6c0.4-0.3,0.8-0.6,1-1.1s0.4-1,0.4-1.6
		s-0.1-1.1-0.4-1.6c-0.2-0.5-0.6-0.8-1-1s-0.9-0.4-1.5-0.4s-1,0.1-1.5,0.4c-0.4,0.2-0.8,0.6-1,1c-0.3,0.5-0.4,1-0.4,1.6
		s0.1,1.1,0.4,1.6s0.6,0.8,1,1.1s0.9,0.4,1.5,0.4S342.9,275.8,343.3,275.6z"/>
	<path class="st17" d="M355.5,269.6c0.6,0.6,1,1.5,1,2.7v4.9H355v-4.7c0-0.8-0.2-1.4-0.6-1.9s-1-0.6-1.7-0.6c-0.8,0-1.5,0.2-2,0.7
		s-0.7,1.2-0.7,2.1v4.4h-1.5v-8.5h1.5v1.3c0.3-0.4,0.7-0.8,1.3-1c0.5-0.2,1.1-0.4,1.8-0.4C354,268.6,354.9,269,355.5,269.6z"/>
	<path class="st17" d="M359.7,277c-0.6-0.2-1.1-0.4-1.5-0.7l0.6-1.2c0.4,0.3,0.8,0.5,1.4,0.6c0.5,0.2,1.1,0.2,1.6,0.2
		c1.3,0,2-0.4,2-1.2c0-0.3-0.1-0.5-0.3-0.6c-0.2-0.1-0.4-0.3-0.7-0.3c-0.3-0.1-0.7-0.1-1.2-0.2c-0.7-0.1-1.2-0.2-1.7-0.4
		c-0.4-0.1-0.8-0.4-1.1-0.7c-0.3-0.3-0.5-0.8-0.5-1.4c0-0.8,0.3-1.4,1-1.8c0.6-0.5,1.5-0.7,2.6-0.7c0.6,0,1.1,0.1,1.7,0.2
		s1,0.3,1.4,0.6l-0.7,1.2c-0.7-0.4-1.5-0.7-2.4-0.7c-0.7,0-1.1,0.1-1.5,0.3c-0.3,0.2-0.5,0.5-0.5,0.8s0.1,0.5,0.3,0.7
		c0.2,0.2,0.4,0.3,0.7,0.4c0.3,0.1,0.7,0.2,1.2,0.3c0.7,0.1,1.2,0.2,1.7,0.4c0.4,0.1,0.8,0.4,1.1,0.7c0.3,0.3,0.4,0.8,0.4,1.3
		c0,0.8-0.3,1.4-1,1.8c-0.7,0.5-1.5,0.7-2.7,0.7C361,277.3,360.4,277.2,359.7,277z"/>
	<path class="st17" d="M124.1,292.7h-6.9c0.1,0.7,0.4,1.3,1,1.8s1.3,0.7,2.1,0.7c1,0,1.8-0.3,2.4-1l0.8,1c-0.4,0.4-0.9,0.8-1.4,1
		c-0.6,0.2-1.2,0.4-1.9,0.4c-0.9,0-1.7-0.2-2.4-0.6c-0.7-0.4-1.2-0.9-1.6-1.5c-0.4-0.7-0.6-1.4-0.6-2.2c0-0.8,0.2-1.6,0.6-2.2
		c0.4-0.7,0.9-1.2,1.5-1.5c0.6-0.4,1.4-0.6,2.2-0.6c0.8,0,1.5,0.2,2.2,0.6c0.6,0.4,1.1,0.9,1.5,1.5s0.5,1.4,0.5,2.3
		C124.1,292.3,124.1,292.5,124.1,292.7z M118.1,289.8c-0.5,0.4-0.8,1-0.9,1.8h5.4c-0.1-0.7-0.4-1.3-0.9-1.8s-1.1-0.7-1.8-0.7
		C119.2,289.1,118.6,289.4,118.1,289.8z"/>
	<path class="st17" d="M131,295.9c-0.2,0.2-0.5,0.3-0.8,0.4s-0.7,0.2-1,0.2c-0.9,0-1.5-0.2-2-0.7s-0.7-1.1-0.7-2v-4.7h-1.4v-1.3h1.4
		v-1.9h1.5v1.9h2.4v1.3H128v4.6c0,0.5,0.1,0.8,0.3,1.1c0.2,0.2,0.6,0.4,1,0.4c0.5,0,0.9-0.1,1.2-0.4L131,295.9z"/>
	<path class="st17" d="M144.8,292.7H138c0.1,0.7,0.4,1.3,1,1.8s1.3,0.7,2.1,0.7c1,0,1.8-0.3,2.4-1l0.8,1c-0.4,0.4-0.9,0.8-1.4,1
		c-0.6,0.2-1.2,0.4-1.9,0.4c-0.9,0-1.7-0.2-2.4-0.6s-1.2-0.9-1.6-1.5c-0.4-0.7-0.6-1.4-0.6-2.2c0-0.8,0.2-1.6,0.6-2.2
		c0.4-0.7,0.9-1.2,1.5-1.5c0.6-0.4,1.4-0.6,2.2-0.6s1.5,0.2,2.2,0.6c0.6,0.4,1.1,0.9,1.5,1.5s0.5,1.4,0.5,2.3
		C144.9,292.3,144.9,292.5,144.8,292.7z M138.8,289.8c-0.5,0.4-0.8,1-0.9,1.8h5.4c-0.1-0.7-0.4-1.3-0.9-1.8s-1.1-0.7-1.8-0.7
		C139.9,289.1,139.3,289.4,138.8,289.8z"/>
	<path class="st17" d="M147.4,296.2c-0.6-0.2-1.1-0.4-1.5-0.7l0.6-1.2c0.4,0.3,0.8,0.5,1.4,0.6c0.5,0.2,1.1,0.2,1.6,0.2
		c1.3,0,2-0.4,2-1.2c0-0.3-0.1-0.5-0.3-0.6s-0.4-0.3-0.7-0.3s-0.7-0.1-1.2-0.2c-0.7-0.1-1.2-0.2-1.7-0.4s-0.8-0.4-1.1-0.7
		c-0.3-0.3-0.5-0.8-0.5-1.4c0-0.8,0.3-1.4,1-1.8c0.6-0.5,1.5-0.7,2.6-0.7c0.6,0,1.1,0.1,1.7,0.2c0.6,0.1,1,0.3,1.4,0.6l-0.7,1.2
		c-0.7-0.4-1.5-0.7-2.4-0.7c-0.7,0-1.1,0.1-1.5,0.3c-0.3,0.2-0.5,0.5-0.5,0.8s0.1,0.5,0.3,0.7s0.4,0.3,0.7,0.4s0.7,0.2,1.2,0.3
		c0.7,0.1,1.2,0.2,1.7,0.4c0.4,0.1,0.8,0.4,1.1,0.7c0.3,0.3,0.4,0.8,0.4,1.3c0,0.8-0.3,1.4-1,1.8c-0.7,0.5-1.5,0.7-2.7,0.7
		C148.7,296.5,148.1,296.4,147.4,296.2z"/>
	<path class="st17" d="M159.8,295.9c-0.2,0.2-0.5,0.3-0.8,0.4s-0.7,0.2-1,0.2c-0.9,0-1.5-0.2-2-0.7s-0.7-1.1-0.7-2v-4.7h-1.4v-1.3
		h1.4v-1.9h1.5v1.9h2.4v1.3h-2.4v4.6c0,0.5,0.1,0.8,0.3,1.1c0.2,0.2,0.6,0.4,1,0.4c0.5,0,0.9-0.1,1.2-0.4L159.8,295.9z"/>
	<path class="st17" d="M161.7,286c-0.2-0.2-0.3-0.4-0.3-0.7s0.1-0.5,0.3-0.7s0.4-0.3,0.7-0.3s0.5,0.1,0.7,0.3
		c0.2,0.2,0.3,0.4,0.3,0.7c0,0.3-0.1,0.5-0.3,0.7s-0.4,0.3-0.7,0.3C162.1,286.3,161.9,286.2,161.7,286z M161.6,287.9h1.5v8.5h-1.5
		V287.9z"/>
	<path class="st17" d="M179.2,288.8c0.6,0.6,0.9,1.5,0.9,2.8v4.9h-1.5v-4.7c0-0.8-0.2-1.4-0.6-1.9c-0.4-0.4-0.9-0.6-1.6-0.6
		c-0.8,0-1.4,0.2-1.9,0.7s-0.7,1.2-0.7,2.1v4.4h-1.5v-4.7c0-0.8-0.2-1.4-0.6-1.9c-0.4-0.4-0.9-0.6-1.6-0.6c-0.8,0-1.4,0.2-1.9,0.7
		s-0.7,1.2-0.7,2.1v4.4H166V288h1.5v1.3c0.3-0.4,0.7-0.8,1.2-1s1.1-0.3,1.7-0.3c0.7,0,1.2,0.1,1.8,0.4c0.5,0.3,0.9,0.7,1.2,1.2
		c0.3-0.5,0.8-0.9,1.3-1.2c0.6-0.3,1.2-0.4,1.9-0.4C177.8,287.8,178.6,288.1,179.2,288.8z"/>
	<path class="st17" d="M190.7,292.7h-6.9c0.1,0.7,0.4,1.3,1,1.8s1.3,0.7,2.1,0.7c1,0,1.8-0.3,2.4-1l0.8,1c-0.4,0.4-0.9,0.8-1.4,1
		c-0.6,0.2-1.2,0.4-1.9,0.4c-0.9,0-1.7-0.2-2.4-0.6s-1.2-0.9-1.6-1.5c-0.4-0.7-0.6-1.4-0.6-2.2c0-0.8,0.2-1.6,0.6-2.2
		c0.4-0.7,0.9-1.2,1.5-1.5c0.6-0.4,1.4-0.6,2.2-0.6s1.5,0.2,2.2,0.6c0.6,0.4,1.1,0.9,1.5,1.5s0.5,1.4,0.5,2.3
		C190.7,292.3,190.7,292.5,190.7,292.7z M184.7,289.8c-0.5,0.4-0.8,1-0.9,1.8h5.4c-0.1-0.7-0.4-1.3-0.9-1.8s-1.1-0.7-1.8-0.7
		C185.8,289.1,185.2,289.4,184.7,289.8z"/>
	<path class="st17" d="M199.1,295.1v1.3H192v-1l5-6.2h-5v-1.3h6.9v1l-5,6.2H199.1z"/>
	<path class="st17" d="M212.9,287.9l-3.7,8.5h-1.6l-3.7-8.5h1.6l2.9,6.8l3-6.8H212.9z"/>
	<path class="st17" d="M215.5,295.9c-0.7-0.4-1.2-0.9-1.6-1.5c-0.4-0.7-0.6-1.4-0.6-2.2c0-0.8,0.2-1.6,0.6-2.2
		c0.4-0.7,0.9-1.2,1.6-1.5s1.4-0.6,2.3-0.6s1.6,0.2,2.3,0.6s1.2,0.9,1.6,1.5c0.4,0.7,0.6,1.4,0.6,2.2c0,0.8-0.2,1.6-0.6,2.2
		c-0.4,0.7-0.9,1.2-1.6,1.5c-0.7,0.4-1.4,0.6-2.3,0.6S216.1,296.3,215.5,295.9z M219.2,294.8c0.4-0.3,0.8-0.6,1-1.1s0.4-1,0.4-1.6
		s-0.1-1.1-0.4-1.6s-0.6-0.8-1-1s-0.9-0.4-1.5-0.4s-1,0.1-1.5,0.4s-0.8,0.6-1,1c-0.3,0.5-0.4,1-0.4,1.6s0.1,1.1,0.4,1.6
		c0.3,0.5,0.6,0.8,1,1.1c0.4,0.3,0.9,0.4,1.5,0.4S218.8,295,219.2,294.8z"/>
	<path class="st17" d="M229,295.9c-0.2,0.2-0.5,0.3-0.8,0.4s-0.7,0.2-1,0.2c-0.9,0-1.5-0.2-2-0.7s-0.7-1.1-0.7-2v-4.7h-1.4v-1.3h1.4
		v-1.9h1.5v1.9h2.4v1.3H226v4.6c0,0.5,0.1,0.8,0.3,1.1c0.2,0.2,0.6,0.4,1,0.4c0.5,0,0.9-0.1,1.2-0.4L229,295.9z"/>
	<path class="st17" d="M233.5,288.2c0.5-0.3,1.2-0.4,1.9-0.4v1.5c-0.1,0-0.2,0-0.4,0c-0.8,0-1.5,0.2-2,0.7s-0.7,1.2-0.7,2.1v4.2
		h-1.5v-8.5h1.5v1.4C232.6,288.9,233,288.5,233.5,288.2z"/>
	<path class="st17" d="M244.9,292.7H238c0.1,0.7,0.4,1.3,1,1.8s1.3,0.7,2.1,0.7c1,0,1.8-0.3,2.4-1l0.8,1c-0.4,0.4-0.9,0.8-1.4,1
		c-0.6,0.2-1.2,0.4-1.9,0.4c-0.9,0-1.7-0.2-2.4-0.6s-1.2-0.9-1.6-1.5c-0.4-0.7-0.6-1.4-0.6-2.2c0-0.8,0.2-1.6,0.6-2.2
		c0.4-0.7,0.9-1.2,1.5-1.5c0.6-0.4,1.4-0.6,2.2-0.6s1.5,0.2,2.2,0.6c0.6,0.4,1.1,0.9,1.5,1.5s0.5,1.4,0.5,2.3
		C244.9,292.3,244.9,292.5,244.9,292.7z M238.9,289.8c-0.5,0.4-0.8,1-0.9,1.8h5.4c-0.1-0.7-0.4-1.3-0.9-1.8s-1.1-0.7-1.8-0.7
		C240,289.1,239.4,289.4,238.9,289.8z"/>
	<path class="st17" d="M256.1,295.9c-0.2,0.2-0.5,0.3-0.8,0.4s-0.7,0.2-1,0.2c-0.9,0-1.5-0.2-2-0.7s-0.7-1.1-0.7-2v-4.7h-1.4v-1.3
		h1.4v-1.9h1.5v1.9h2.4v1.3h-2.4v4.6c0,0.5,0.1,0.8,0.3,1.1c0.2,0.2,0.6,0.4,1,0.4c0.5,0,0.9-0.1,1.2-0.4L256.1,295.9z"/>
	<path class="st17" d="M263.8,288.7c0.6,0.6,0.9,1.4,0.9,2.6v5.1h-1.5v-1.1c-0.3,0.4-0.6,0.7-1.1,0.9s-1,0.3-1.7,0.3
		c-1,0-1.7-0.2-2.3-0.7c-0.6-0.5-0.9-1.1-0.9-1.8c0-0.7,0.3-1.3,0.8-1.8s1.4-0.7,2.6-0.7h2.4v-0.3c0-0.7-0.2-1.2-0.6-1.5
		c-0.4-0.4-1-0.5-1.7-0.5c-0.5,0-1,0.1-1.5,0.2c-0.5,0.2-0.9,0.4-1.2,0.7l-0.6-1.2c0.4-0.4,1-0.6,1.6-0.8c0.6-0.2,1.3-0.3,1.9-0.3
		C262.2,287.8,263.1,288.1,263.8,288.7z M262.2,294.9c0.4-0.3,0.7-0.6,0.9-1.1v-1.2h-2.4c-1.3,0-2,0.4-2,1.3c0,0.4,0.2,0.8,0.5,1
		s0.8,0.4,1.4,0.4C261.3,295.3,261.8,295.2,262.2,294.9z"/>
	<path class="st17" d="M270.2,288.2c0.5-0.3,1.2-0.4,1.9-0.4v1.5c-0.1,0-0.2,0-0.4,0c-0.8,0-1.5,0.2-2,0.7s-0.7,1.2-0.7,2.1v4.2
		h-1.5v-8.5h1.5v1.4C269.3,288.9,269.7,288.5,270.2,288.2z"/>
	<path class="st17" d="M274,286c-0.2-0.2-0.3-0.4-0.3-0.7s0.1-0.5,0.3-0.7s0.4-0.3,0.7-0.3s0.5,0.1,0.7,0.3c0.2,0.2,0.3,0.4,0.3,0.7
		c0,0.3-0.1,0.5-0.3,0.7c-0.2,0.2-0.4,0.3-0.7,0.3S274.2,286.2,274,286z M274,287.9h1.5v8.5H274V287.9z"/>
	<path class="st17" d="M280.2,287.2v0.7h2.5v1.3h-2.4v7.2h-1.5v-7.2h-1.4v-1.3h1.4v-0.8c0-0.8,0.2-1.5,0.7-2s1.2-0.7,2.1-0.7
		c0.3,0,0.7,0,1,0.1s0.6,0.2,0.8,0.4l-0.5,1.2c-0.4-0.3-0.7-0.4-1.2-0.4C280.6,285.7,280.2,286.2,280.2,287.2z"/>
	<path class="st17" d="M288.8,296.2c-0.6-0.2-1.1-0.4-1.5-0.7l0.6-1.2c0.4,0.3,0.8,0.5,1.4,0.6c0.5,0.2,1.1,0.2,1.6,0.2
		c1.3,0,2-0.4,2-1.2c0-0.3-0.1-0.5-0.3-0.6c-0.2-0.1-0.4-0.3-0.7-0.3c-0.3-0.1-0.7-0.1-1.2-0.2c-0.7-0.1-1.2-0.2-1.7-0.4
		c-0.4-0.1-0.8-0.4-1.1-0.7c-0.3-0.3-0.5-0.8-0.5-1.4c0-0.8,0.3-1.4,1-1.8c0.6-0.5,1.5-0.7,2.6-0.7c0.6,0,1.1,0.1,1.7,0.2
		s1,0.3,1.4,0.6l-0.7,1.2c-0.7-0.4-1.5-0.7-2.4-0.7c-0.7,0-1.1,0.1-1.5,0.3c-0.3,0.2-0.5,0.5-0.5,0.8s0.1,0.5,0.3,0.7
		c0.2,0.2,0.4,0.3,0.7,0.4c0.3,0.1,0.7,0.2,1.2,0.3c0.7,0.1,1.2,0.2,1.7,0.4c0.4,0.1,0.8,0.4,1.1,0.7c0.3,0.3,0.4,0.8,0.4,1.3
		c0,0.8-0.3,1.4-1,1.8c-0.7,0.5-1.5,0.7-2.7,0.7C290.2,296.5,289.5,296.4,288.8,296.2z"/>
	<path class="st17" d="M304.3,287.9v8.5h-1.5v-1.3c-0.3,0.4-0.7,0.8-1.2,1s-1.1,0.4-1.7,0.4c-1.1,0-2-0.3-2.7-0.9s-1-1.5-1-2.8v-4.9
		h1.5v4.7c0,0.8,0.2,1.4,0.6,1.9c0.4,0.4,1,0.6,1.7,0.6c0.8,0,1.5-0.2,1.9-0.7c0.5-0.5,0.7-1.2,0.7-2.1v-4.4L304.3,287.9
		L304.3,287.9z"/>
	<path class="st17" d="M309.9,288.2c0.5-0.3,1.2-0.4,1.9-0.4v1.5c-0.1,0-0.2,0-0.4,0c-0.8,0-1.5,0.2-2,0.7s-0.7,1.2-0.7,2.1v4.2
		h-1.5v-8.5h1.5v1.4C309,288.9,309.4,288.5,309.9,288.2z"/>
	<path class="st9" d="M123.6,308c0.6,0.6,1,1.5,1,2.7v4.9H123v-4.7c0-0.8-0.2-1.4-0.6-1.9s-1-0.6-1.7-0.6c-0.8,0-1.5,0.2-2,0.7
		s-0.7,1.2-0.7,2.1v4.4h-1.5v-11.9h1.5v4.6c0.3-0.4,0.7-0.7,1.3-0.9c0.5-0.2,1.1-0.3,1.7-0.3C122.1,307,122.9,307.4,123.6,308z"/>
	<path class="st9" d="M132.1,315.1c-0.2,0.2-0.5,0.3-0.8,0.4s-0.7,0.2-1,0.2c-0.9,0-1.5-0.2-2-0.7s-0.7-1.1-0.7-2v-4.7h-1.4V307h1.4
		v-1.9h1.5v1.9h2.4v1.3h-2.4v4.6c0,0.5,0.1,0.8,0.3,1.1c0.2,0.2,0.6,0.4,1,0.4c0.5,0,0.9-0.1,1.2-0.4L132.1,315.1z"/>
	<path class="st9" d="M138.6,315.1c-0.2,0.2-0.5,0.3-0.8,0.4s-0.7,0.2-1,0.2c-0.9,0-1.5-0.2-2-0.7s-0.7-1.1-0.7-2v-4.7h-1.4V307h1.4
		v-1.9h1.5v1.9h2.4v1.3h-2.4v4.6c0,0.5,0.1,0.8,0.3,1.1c0.2,0.2,0.6,0.4,1,0.4c0.5,0,0.9-0.1,1.2-0.4L138.6,315.1z"/>
	<path class="st9" d="M147.1,307.6c0.7,0.4,1.2,0.9,1.5,1.5c0.4,0.7,0.6,1.4,0.6,2.3s-0.2,1.6-0.6,2.3s-0.9,1.2-1.5,1.5
		c-0.7,0.4-1.4,0.5-2.2,0.5c-0.6,0-1.2-0.1-1.7-0.4c-0.5-0.2-0.9-0.6-1.3-1v4.4h-1.5v-11.6h1.5v1.3c0.3-0.5,0.8-0.8,1.3-1.1
		c0.5-0.2,1.1-0.4,1.7-0.4C145.7,307,146.5,307.2,147.1,307.6z M146.2,314c0.4-0.3,0.8-0.6,1-1.1c0.3-0.5,0.4-1,0.4-1.6
		s-0.1-1.1-0.4-1.6c-0.3-0.5-0.6-0.8-1-1s-0.9-0.4-1.5-0.4c-0.5,0-1,0.1-1.4,0.4s-0.8,0.6-1,1c-0.3,0.4-0.4,1-0.4,1.6
		s0.1,1.1,0.4,1.6c0.2,0.5,0.6,0.8,1,1.1c0.4,0.3,0.9,0.4,1.5,0.4C145.3,314.4,145.8,314.2,146.2,314z"/>
	<path class="st9" d="M150.9,308.9c-0.2-0.2-0.3-0.5-0.3-0.8s0.1-0.6,0.3-0.8c0.2-0.2,0.5-0.3,0.8-0.3s0.5,0.1,0.8,0.3
		c0.2,0.2,0.3,0.5,0.3,0.8s-0.1,0.6-0.3,0.8s-0.5,0.3-0.7,0.3C151.4,309.2,151.1,309.1,150.9,308.9z M150.9,315.4
		c-0.2-0.2-0.3-0.5-0.3-0.8s0.1-0.6,0.3-0.8c0.2-0.2,0.5-0.3,0.8-0.3s0.5,0.1,0.8,0.3c0.2,0.2,0.3,0.5,0.3,0.8s-0.1,0.6-0.3,0.8
		s-0.5,0.3-0.7,0.3C151.4,315.7,151.1,315.6,150.9,315.4z"/>
	<path class="st9" d="M159.1,302.1h1.4l-5.3,15.1h-1.4L159.1,302.1z"/>
	<path class="st9" d="M163.6,302.1h1.4l-5.3,15.1h-1.4L163.6,302.1z"/>
	<path class="st9" d="M165.3,315.4c-0.6-0.2-1.1-0.4-1.5-0.7l0.6-1.2c0.4,0.3,0.8,0.5,1.4,0.6c0.5,0.2,1.1,0.2,1.6,0.2
		c1.3,0,2-0.4,2-1.2c0-0.3-0.1-0.5-0.3-0.6s-0.4-0.3-0.7-0.3s-0.7-0.1-1.2-0.2c-0.7-0.1-1.2-0.2-1.7-0.4s-0.8-0.4-1.1-0.7
		c-0.3-0.3-0.5-0.8-0.5-1.4c0-0.8,0.3-1.4,1-1.8c0.6-0.5,1.5-0.7,2.6-0.7c0.6,0,1.1,0.1,1.7,0.2c0.6,0.1,1,0.3,1.4,0.6L170,309
		c-0.7-0.4-1.5-0.7-2.4-0.7c-0.7,0-1.1,0.1-1.5,0.3c-0.3,0.2-0.5,0.5-0.5,0.8s0.1,0.5,0.3,0.7s0.4,0.3,0.7,0.4s0.7,0.2,1.2,0.3
		c0.7,0.1,1.2,0.2,1.7,0.4c0.4,0.1,0.8,0.4,1.1,0.7c0.3,0.3,0.4,0.8,0.4,1.3c0,0.8-0.3,1.4-1,1.8c-0.7,0.5-1.5,0.7-2.7,0.7
		C166.6,315.7,165.9,315.6,165.3,315.4z"/>
	<path class="st9" d="M186,308c0.6,0.6,0.9,1.5,0.9,2.8v4.9h-1.5V311c0-0.8-0.2-1.4-0.6-1.9c-0.4-0.4-0.9-0.6-1.6-0.6
		c-0.8,0-1.4,0.2-1.9,0.7s-0.7,1.2-0.7,2.1v4.4h-1.5V311c0-0.8-0.2-1.4-0.6-1.9c-0.4-0.4-0.9-0.6-1.6-0.6c-0.8,0-1.4,0.2-1.9,0.7
		s-0.7,1.2-0.7,2.1v4.4h-1.5v-8.5h1.5v1.3c0.3-0.4,0.7-0.8,1.2-1s1.1-0.3,1.7-0.3c0.7,0,1.2,0.1,1.8,0.4c0.5,0.3,0.9,0.7,1.2,1.2
		c0.3-0.5,0.8-0.9,1.3-1.2c0.6-0.3,1.2-0.4,1.9-0.4C184.5,307,185.4,307.3,186,308z"/>
	<path class="st9" d="M189.4,315.4c-0.2-0.2-0.3-0.5-0.3-0.8s0.1-0.6,0.3-0.8c0.2-0.2,0.5-0.3,0.8-0.3s0.5,0.1,0.8,0.3
		c0.2,0.2,0.3,0.5,0.3,0.8s-0.1,0.6-0.3,0.8s-0.5,0.3-0.7,0.3C189.8,315.7,189.6,315.6,189.4,315.4z"/>
	<path class="st9" d="M193.8,315.4c-0.6-0.2-1.1-0.4-1.5-0.7l0.6-1.2c0.4,0.3,0.8,0.5,1.4,0.6c0.5,0.2,1.1,0.2,1.6,0.2
		c1.3,0,2-0.4,2-1.2c0-0.3-0.1-0.5-0.3-0.6s-0.4-0.3-0.7-0.3s-0.7-0.1-1.2-0.2c-0.7-0.1-1.2-0.2-1.7-0.4s-0.8-0.4-1.1-0.7
		c-0.3-0.3-0.5-0.8-0.5-1.4c0-0.8,0.3-1.4,1-1.8c0.6-0.5,1.5-0.7,2.6-0.7c0.6,0,1.1,0.1,1.7,0.2c0.6,0.1,1,0.3,1.4,0.6l-0.7,1.2
		c-0.7-0.4-1.5-0.7-2.4-0.7c-0.7,0-1.1,0.1-1.5,0.3c-0.3,0.2-0.5,0.5-0.5,0.8s0.1,0.5,0.3,0.7s0.4,0.3,0.7,0.4s0.7,0.2,1.2,0.3
		c0.7,0.1,1.2,0.2,1.7,0.4c0.4,0.1,0.8,0.4,1.1,0.7c0.3,0.3,0.4,0.8,0.4,1.3c0,0.8-0.3,1.4-1,1.8c-0.7,0.5-1.5,0.7-2.7,0.7
		C195.1,315.7,194.5,315.6,193.8,315.4z"/>
	<path class="st9" d="M209.5,307.1v7.3c0,1.5-0.4,2.6-1.1,3.3c-0.7,0.7-1.8,1.1-3.3,1.1c-0.8,0-1.6-0.1-2.3-0.3s-1.3-0.5-1.8-0.9
		l0.7-1.2c0.4,0.3,0.9,0.6,1.5,0.8c0.6,0.2,1.2,0.3,1.8,0.3c1,0,1.7-0.2,2.2-0.7s0.7-1.2,0.7-2.1V314c-0.4,0.4-0.8,0.8-1.3,1
		s-1.1,0.3-1.7,0.3c-0.8,0-1.5-0.2-2.2-0.5s-1.2-0.8-1.5-1.5s-0.6-1.3-0.6-2.1s0.2-1.5,0.6-2.1s0.9-1.1,1.5-1.4
		c0.7-0.3,1.4-0.5,2.2-0.5c0.6,0,1.2,0.1,1.8,0.4c0.5,0.2,1,0.6,1.4,1v-1.3h1.4V307.1z M206.6,313.6c0.4-0.2,0.8-0.6,1-1
		c0.3-0.4,0.4-0.9,0.4-1.4c0-0.8-0.3-1.5-0.8-2s-1.2-0.8-2.1-0.8c-0.9,0-1.6,0.3-2.1,0.8s-0.8,1.2-0.8,2c0,0.5,0.1,1,0.4,1.4
		c0.3,0.4,0.6,0.8,1,1s0.9,0.4,1.5,0.4C205.7,313.9,206.2,313.8,206.6,313.6z"/>
	<path class="st9" d="M215.8,302.1h1.4l-5.3,15.1h-1.4L215.8,302.1z"/>
	<path class="st9" d="M225.1,307.1v7.3c0,1.5-0.4,2.6-1.1,3.3c-0.7,0.7-1.8,1.1-3.3,1.1c-0.8,0-1.6-0.1-2.3-0.3s-1.3-0.5-1.8-0.9
		l0.7-1.2c0.4,0.3,0.9,0.6,1.5,0.8c0.6,0.2,1.2,0.3,1.8,0.3c1,0,1.7-0.2,2.2-0.7s0.7-1.2,0.7-2.1V314c-0.4,0.4-0.8,0.8-1.3,1
		s-1.1,0.3-1.7,0.3c-0.8,0-1.5-0.2-2.2-0.5s-1.2-0.8-1.5-1.5s-0.6-1.3-0.6-2.1s0.2-1.5,0.6-2.1s0.9-1.1,1.5-1.4
		c0.7-0.3,1.4-0.5,2.2-0.5c0.6,0,1.2,0.1,1.8,0.4c0.5,0.2,1,0.6,1.4,1v-1.3h1.4V307.1z M222.2,313.6c0.4-0.2,0.8-0.6,1-1
		c0.3-0.4,0.4-0.9,0.4-1.4c0-0.8-0.3-1.5-0.8-2s-1.2-0.8-2.1-0.8c-0.9,0-1.6,0.3-2.1,0.8s-0.8,1.2-0.8,2c0,0.5,0.1,1,0.4,1.4
		c0.3,0.4,0.6,0.8,1,1s0.9,0.4,1.5,0.4C221.3,313.9,221.8,313.8,222.2,313.6z"/>
	<path class="st9" d="M238.7,315.6v-8.2l-4,6.8H234l-4-6.8v8.1h-1.5v-11.2h1.3l4.7,7.9l4.6-7.9h1.3v11.2h-1.7V315.6z"/>
	<path class="st9" d="M248.7,315.6l-2.4-3.2l-2.5,3.2h-1.7l3.3-4.3l-3.2-4.1h1.7l2.3,3.1l2.3-3.1h1.7l-3.2,4.1l3.4,4.3H248.7z"/>
	<path class="st9" d="M254.2,315c-0.9-0.5-1.6-1.2-2.1-2c-0.5-0.9-0.8-1.8-0.8-2.9s0.3-2.1,0.8-2.9c0.5-0.9,1.2-1.6,2.1-2
		s1.9-0.7,3-0.7c0.9,0,1.7,0.1,2.4,0.4c0.7,0.3,1.3,0.7,1.9,1.3l-1,1c-0.8-0.9-1.9-1.3-3.2-1.3c-0.8,0-1.6,0.2-2.3,0.6
		s-1.2,0.9-1.6,1.5c-0.4,0.7-0.6,1.4-0.6,2.2s0.2,1.5,0.6,2.2c0.4,0.7,0.9,1.2,1.6,1.5c0.7,0.4,1.4,0.6,2.3,0.6
		c1.2,0,2.3-0.4,3.2-1.3l1,1c-0.5,0.6-1.1,1-1.9,1.3c-0.7,0.3-1.5,0.4-2.4,0.4C256.1,315.7,255.1,315.5,254.2,315z"/>
	<path class="st17" d="M117,334.5c-0.3-1.3-0.5-2.6-0.5-4.1s0.2-2.8,0.5-4.1c0.3-1.3,0.8-2.4,1.4-3.4h1.5c-0.6,1.1-1.1,2.3-1.4,3.5
		s-0.4,2.5-0.4,4c0,1.4,0.1,2.7,0.4,4c0.3,1.2,0.8,2.4,1.4,3.5h-1.5C117.8,336.9,117.4,335.8,117,334.5z"/>
	<path class="st17" d="M122.9,334.5c-0.8-0.3-1.4-0.6-1.8-1l0.6-1.2c0.4,0.4,1,0.7,1.6,0.9c0.7,0.2,1.4,0.4,2.1,0.4
		c0.9,0,1.6-0.2,2.1-0.5s0.7-0.7,0.7-1.3c0-0.4-0.1-0.7-0.4-0.9s-0.6-0.4-0.9-0.6c-0.4-0.1-0.9-0.3-1.6-0.4c-0.8-0.2-1.5-0.4-2-0.6
		s-1-0.5-1.3-0.9c-0.4-0.4-0.6-1-0.6-1.7c0-0.6,0.2-1.1,0.5-1.6s0.8-0.9,1.4-1.2s1.4-0.4,2.4-0.4c0.7,0,1.3,0.1,2,0.3
		s1.2,0.4,1.6,0.7l-0.5,1.3c-0.5-0.3-1-0.5-1.5-0.7s-1.1-0.2-1.6-0.2c-0.9,0-1.6,0.2-2,0.5c-0.5,0.3-0.7,0.8-0.7,1.3
		c0,0.4,0.1,0.7,0.4,0.9c0.3,0.2,0.6,0.4,1,0.6c0.4,0.1,0.9,0.3,1.5,0.4c0.8,0.2,1.5,0.4,2,0.6s1,0.5,1.3,0.9s0.6,1,0.6,1.7
		c0,0.6-0.2,1.1-0.5,1.6s-0.8,0.9-1.5,1.2c-0.7,0.3-1.5,0.4-2.4,0.4C124.5,334.9,123.7,334.8,122.9,334.5z"/>
	<path class="st17" d="M134.1,325h-3.8v-1.4h9.3v1.4h-3.8v9.8h-1.6L134.1,325L134.1,325z"/>
	<path class="st17" d="M143.1,334.2c-0.9-0.5-1.6-1.2-2.1-2.1s-0.8-1.9-0.8-2.9c0-1.1,0.3-2.1,0.8-2.9c0.5-0.9,1.2-1.6,2.1-2.1
		c0.9-0.5,1.9-0.7,3.1-0.7c1.1,0,2.1,0.2,3,0.7s1.6,1.2,2.1,2c0.5,0.9,0.8,1.8,0.8,2.9s-0.3,2.1-0.8,2.9c-0.5,0.9-1.2,1.6-2.1,2
		s-1.9,0.7-3,0.7C145,334.9,144,334.7,143.1,334.2z M148.4,332.9c0.7-0.4,1.2-0.9,1.6-1.5s0.6-1.4,0.6-2.2c0-0.8-0.2-1.5-0.6-2.2
		c-0.4-0.7-0.9-1.2-1.6-1.5c-0.7-0.4-1.4-0.6-2.2-0.6s-1.6,0.2-2.2,0.6c-0.7,0.4-1.2,0.9-1.6,1.5c-0.4,0.7-0.6,1.4-0.6,2.2
		c0,0.8,0.2,1.5,0.6,2.2c0.4,0.7,0.9,1.2,1.6,1.5c0.7,0.4,1.4,0.6,2.2,0.6S147.7,333.3,148.4,332.9z"/>
	<path class="st17" d="M162.3,324.6c0.8,0.7,1.2,1.6,1.2,2.9c0,1.2-0.4,2.2-1.2,2.9c-0.8,0.7-2,1-3.4,1h-2.8v3.4h-1.6v-11.2h4.4
		C160.4,323.6,161.5,323.9,162.3,324.6z M161.2,329.4c0.5-0.4,0.8-1.1,0.8-1.9s-0.3-1.4-0.8-1.9s-1.3-0.6-2.3-0.6h-2.7v5h2.7
		C159.9,330,160.6,329.8,161.2,329.4z"/>
	<path class="st17" d="M176,327.1c0.6,0.6,0.9,1.4,0.9,2.6v5.1h-1.5v-1.1c-0.3,0.4-0.6,0.7-1.1,0.9s-1,0.3-1.7,0.3
		c-0.9,0-1.7-0.2-2.3-0.7s-0.9-1.1-0.9-1.8c0-0.7,0.3-1.3,0.8-1.8s1.4-0.7,2.6-0.7h2.4v-0.3c0-0.7-0.2-1.2-0.6-1.5
		c-0.4-0.4-0.9-0.5-1.7-0.5c-0.5,0-1,0.1-1.5,0.2c-0.5,0.2-0.9,0.4-1.2,0.7l-0.6-1.2c0.4-0.4,1-0.6,1.6-0.8s1.3-0.3,1.9-0.3
		C174.4,326.2,175.3,326.5,176,327.1z M174.4,333.3c0.4-0.3,0.7-0.6,0.9-1.1V331H173c-1.3,0-2,0.4-2,1.3c0,0.4,0.2,0.8,0.5,1
		s0.8,0.4,1.4,0.4S174,333.6,174.4,333.3z"/>
	<path class="st17" d="M187.6,326.3v8.5h-1.5v-1.3c-0.3,0.4-0.7,0.8-1.2,1s-1.1,0.4-1.7,0.4c-1.1,0-2-0.3-2.7-0.9s-1-1.5-1-2.8v-4.9
		h1.5v4.7c0,0.8,0.2,1.4,0.6,1.9s1,0.6,1.7,0.6c0.8,0,1.5-0.2,1.9-0.7c0.5-0.5,0.7-1.2,0.7-2.1v-4.4L187.6,326.3L187.6,326.3z"/>
	<path class="st9" d="M201,329.3c0.6,0.6,0.9,1.3,0.9,2.2c0,0.6-0.2,1.2-0.5,1.7s-0.8,0.9-1.4,1.2c-0.6,0.3-1.4,0.5-2.3,0.5
		c-0.8,0-1.6-0.1-2.3-0.4c-0.7-0.2-1.3-0.6-1.8-1l0.7-1.3c0.4,0.4,0.9,0.7,1.5,0.9c0.6,0.2,1.2,0.3,1.9,0.3c0.8,0,1.5-0.2,1.9-0.5
		c0.5-0.4,0.7-0.8,0.7-1.5c0-0.6-0.2-1.1-0.7-1.4s-1.2-0.5-2.1-0.5h-0.9v-1.1l2.8-3.5H194v-1.4h7.4v1.1l-2.9,3.6
		C199.6,328.4,200.4,328.7,201,329.3z"/>
	<path class="st9" d="M210.1,328.4c0.6,0.3,1,0.7,1.4,1.2s0.5,1.1,0.5,1.8c0,0.7-0.2,1.3-0.5,1.9c-0.3,0.5-0.8,0.9-1.4,1.2
		c-0.6,0.3-1.3,0.4-2,0.4c-1.5,0-2.7-0.5-3.5-1.5s-1.2-2.3-1.2-4.1c0-1.2,0.2-2.3,0.7-3.2c0.4-0.9,1.1-1.5,1.9-2
		c0.8-0.5,1.7-0.7,2.8-0.7c0.5,0,1.1,0.1,1.5,0.2s0.9,0.3,1.2,0.5l-0.6,1.2c-0.5-0.4-1.2-0.5-2.1-0.5c-1.2,0-2.1,0.4-2.7,1.1
		c-0.7,0.7-1,1.8-1,3.1c0,0.2,0,0.3,0,0.4c0.3-0.5,0.8-0.8,1.3-1.1c0.6-0.3,1.2-0.4,1.9-0.4C208.9,328,209.6,328.1,210.1,328.4z
		 M209.8,333c0.5-0.4,0.7-0.9,0.7-1.6s-0.2-1.2-0.7-1.6s-1.1-0.6-1.9-0.6c-0.5,0-0.9,0.1-1.3,0.3c-0.4,0.2-0.7,0.5-0.9,0.8
		s-0.3,0.7-0.3,1.1s0.1,0.8,0.3,1.1s0.5,0.6,0.9,0.8s0.9,0.3,1.4,0.3C208.7,333.6,209.3,333.4,209.8,333z"/>
	<path class="st9" d="M216.7,323.6v11.2h-1.6V325h-2.5v-1.4H216.7z"/>
	<path class="st9" d="M227,333.4v1.4h-8v-1.1l4.6-4.4c0.6-0.5,0.9-1,1.1-1.4s0.3-0.8,0.3-1.2c0-0.6-0.2-1-0.6-1.4s-1-0.5-1.8-0.5
		c-1.2,0-2.2,0.4-2.9,1.2l-1.1-0.9c0.4-0.5,1-0.9,1.7-1.2s1.5-0.4,2.4-0.4c1.2,0,2.1,0.3,2.8,0.8c0.7,0.6,1,1.3,1,2.3
		c0,0.6-0.1,1.2-0.4,1.7c-0.3,0.5-0.7,1.1-1.5,1.8l-3.4,3.3L227,333.4L227,333.4z"/>
	<path class="st9" d="M235.1,329.3c0.6,0.6,0.9,1.3,0.9,2.2c0,0.6-0.2,1.2-0.5,1.7s-0.8,0.9-1.4,1.2c-0.6,0.3-1.4,0.5-2.3,0.5
		c-0.8,0-1.6-0.1-2.3-0.4c-0.7-0.2-1.3-0.6-1.8-1l0.7-1.3c0.4,0.4,0.9,0.7,1.5,0.9c0.6,0.2,1.2,0.3,1.9,0.3c0.8,0,1.5-0.2,1.9-0.5
		c0.5-0.4,0.7-0.8,0.7-1.5c0-0.6-0.2-1.1-0.7-1.4s-1.2-0.5-2.1-0.5h-0.9v-1.1l2.8-3.5h-5.4v-1.4h7.4v1.1l-2.9,3.6
		C233.7,328.4,234.5,328.7,235.1,329.3z"/>
	<path class="st17" d="M237.2,337.9c0.6-1.1,1.1-2.3,1.4-3.5c0.3-1.2,0.5-2.5,0.5-4c0-1.4-0.2-2.7-0.5-4c-0.3-1.2-0.8-2.4-1.4-3.5
		h1.5c0.6,1,1.1,2.1,1.4,3.4c0.3,1.3,0.5,2.7,0.5,4.1c0,1.5-0.2,2.8-0.5,4.1c-0.3,1.3-0.8,2.4-1.4,3.4H237.2z"/>
</g>
<g>
	<path class="st18" d="M126.5,232h-6.7l-1.4,3.2h-1.9l5.7-12.6h1.8l5.7,12.6h-1.9L126.5,232z M125.9,230.5l-2.7-6.2l-2.7,6.2H125.9z
		"/>
	<path class="st18" d="M131.8,234.9c-0.7-0.2-1.3-0.5-1.7-0.8l0.7-1.4c0.4,0.3,0.9,0.5,1.5,0.7s1.2,0.3,1.8,0.3
		c1.5,0,2.3-0.4,2.3-1.3c0-0.3-0.1-0.5-0.3-0.7s-0.5-0.3-0.8-0.4c-0.3-0.1-0.7-0.2-1.3-0.3c-0.8-0.1-1.4-0.3-1.9-0.4
		c-0.5-0.2-0.9-0.4-1.3-0.8c-0.3-0.4-0.5-0.9-0.5-1.6c0-0.9,0.4-1.6,1.1-2.1c0.7-0.5,1.7-0.8,2.9-0.8c0.6,0,1.3,0.1,1.9,0.2
		c0.6,0.2,1.2,0.4,1.6,0.6l-0.7,1.4c-0.8-0.5-1.7-0.8-2.8-0.8c-0.7,0-1.3,0.1-1.7,0.4c-0.4,0.2-0.6,0.6-0.6,1c0,0.3,0.1,0.6,0.3,0.7
		s0.5,0.3,0.8,0.4c0.3,0.1,0.8,0.2,1.3,0.3c0.8,0.1,1.4,0.3,1.9,0.4c0.5,0.2,0.9,0.4,1.2,0.8c0.3,0.4,0.5,0.9,0.5,1.5
		c0,0.9-0.4,1.6-1.1,2.1c-0.7,0.5-1.7,0.8-3,0.8C133.3,235.2,132.5,235.1,131.8,234.9z"/>
	<path class="st18" d="M140.8,234.9c-0.7-0.2-1.3-0.5-1.7-0.8l0.7-1.4c0.4,0.3,0.9,0.5,1.5,0.7s1.2,0.3,1.8,0.3
		c1.5,0,2.3-0.4,2.3-1.3c0-0.3-0.1-0.5-0.3-0.7s-0.5-0.3-0.8-0.4c-0.3-0.1-0.7-0.2-1.3-0.3c-0.8-0.1-1.4-0.3-1.9-0.4
		c-0.5-0.2-0.9-0.4-1.3-0.8c-0.3-0.4-0.5-0.9-0.5-1.6c0-0.9,0.4-1.6,1.1-2.1c0.7-0.5,1.7-0.8,2.9-0.8c0.6,0,1.3,0.1,1.9,0.2
		c0.6,0.2,1.2,0.4,1.6,0.6l-0.7,1.4c-0.8-0.5-1.7-0.8-2.8-0.8c-0.7,0-1.3,0.1-1.7,0.4c-0.4,0.2-0.6,0.6-0.6,1c0,0.3,0.1,0.6,0.3,0.7
		s0.5,0.3,0.8,0.4c0.3,0.1,0.8,0.2,1.3,0.3c0.8,0.1,1.4,0.3,1.9,0.4c0.5,0.2,0.9,0.4,1.2,0.8c0.3,0.4,0.5,0.9,0.5,1.5
		c0,0.9-0.4,1.6-1.1,2.1c-0.7,0.5-1.7,0.8-3,0.8C142.3,235.2,141.6,235.1,140.8,234.9z"/>
	<path class="st18" d="M158.3,225.6v9.5h-1.6v-1.4c-0.3,0.5-0.8,0.9-1.4,1.1c-0.6,0.3-1.2,0.4-1.9,0.4c-1.3,0-2.3-0.4-3-1.1
		s-1.1-1.7-1.1-3.1v-5.5h1.7v5.3c0,0.9,0.2,1.6,0.7,2.1c0.4,0.5,1.1,0.7,1.9,0.7c0.9,0,1.6-0.3,2.2-0.8c0.5-0.6,0.8-1.3,0.8-2.3
		v-4.9H158.3z"/>
	<path class="st18" d="M164.5,225.9c0.6-0.3,1.3-0.4,2.1-0.4v1.7c-0.1,0-0.2,0-0.4,0c-0.9,0-1.7,0.3-2.2,0.8
		c-0.5,0.6-0.8,1.4-0.8,2.4v4.8h-1.7v-9.5h1.7v1.6C163.5,226.6,164,226.2,164.5,225.9z"/>
	<path class="st18" d="M175.3,226.5c0.7,0.6,1.1,1.6,1.1,2.9v5.8h-1.6v-1.3c-0.3,0.4-0.7,0.8-1.2,1s-1.2,0.4-1.9,0.4
		c-1.1,0-1.9-0.3-2.6-0.8c-0.6-0.5-1-1.2-1-2s0.3-1.5,0.9-2c0.6-0.5,1.6-0.8,2.9-0.8h2.7v-0.3c0-0.7-0.2-1.3-0.6-1.7
		c-0.4-0.4-1.1-0.6-1.9-0.6c-0.6,0-1.1,0.1-1.7,0.3s-1,0.4-1.4,0.7l-0.7-1.3c0.5-0.4,1.1-0.7,1.8-0.9s1.4-0.3,2.2-0.3
		C173.6,225.5,174.6,225.8,175.3,226.5z M173.6,233.4c0.5-0.3,0.8-0.7,1-1.3v-1.3H172c-1.5,0-2.2,0.5-2.2,1.5c0,0.5,0.2,0.9,0.6,1.1
		c0.4,0.3,0.9,0.4,1.5,0.4S173.1,233.7,173.6,233.4z"/>
	<path class="st18" d="M187.5,226.5c0.7,0.7,1.1,1.7,1.1,3.1v5.5h-1.7v-5.3c0-0.9-0.2-1.6-0.7-2.1c-0.4-0.5-1.1-0.7-1.9-0.7
		c-0.9,0-1.7,0.3-2.2,0.8s-0.8,1.3-0.8,2.3v4.9h-1.7v-9.5h1.7v1.4c0.3-0.5,0.8-0.9,1.4-1.1s1.3-0.4,2-0.4
		C185.9,225.5,186.8,225.8,187.5,226.5z"/>
	<path class="st18" d="M193.4,234.6c-0.8-0.4-1.4-1-1.8-1.7c-0.4-0.7-0.6-1.6-0.6-2.5s0.2-1.8,0.6-2.5c0.4-0.7,1-1.3,1.8-1.7
		s1.6-0.6,2.6-0.6c0.9,0,1.6,0.2,2.3,0.5s1.2,0.9,1.6,1.5l-1.3,0.8c-0.3-0.5-0.7-0.8-1.1-1s-0.9-0.3-1.5-0.3s-1.2,0.1-1.7,0.4
		c-0.5,0.3-0.9,0.7-1.2,1.2s-0.4,1.1-0.4,1.8s0.1,1.3,0.4,1.8s0.7,0.9,1.2,1.2s1.1,0.4,1.7,0.4c0.5,0,1-0.1,1.5-0.3s0.8-0.6,1.1-1
		l1.3,0.8c-0.4,0.7-0.9,1.2-1.6,1.5c-0.7,0.4-1.4,0.5-2.3,0.5C195,235.2,194.2,235,193.4,234.6z"/>
	<path class="st18" d="M210.6,230.9h-7.7c0.1,0.8,0.5,1.5,1.1,2s1.4,0.8,2.3,0.8c1.1,0,2.1-0.4,2.8-1.2l1,1.1
		c-0.4,0.5-1,0.9-1.6,1.2s-1.4,0.4-2.2,0.4c-1,0-1.9-0.2-2.7-0.6c-0.8-0.4-1.4-1-1.8-1.7c-0.4-0.7-0.6-1.6-0.6-2.5s0.2-1.8,0.6-2.5
		s1-1.3,1.7-1.7s1.5-0.6,2.5-0.6s1.7,0.2,2.4,0.6c0.7,0.4,1.3,1,1.7,1.7s0.6,1.6,0.6,2.6C210.6,230.5,210.6,230.7,210.6,230.9z
		 M203.8,227.7c-0.6,0.5-0.9,1.2-1,2h6.1c-0.1-0.8-0.4-1.5-1-2s-1.3-0.8-2.1-0.8S204.4,227.2,203.8,227.7z"/>
</g>
</svg>
