<?xml version="1.0" encoding="utf-8"?>
<!-- Generator: Adobe Illustrator 23.0.3, SVG Export Plug-In . SVG Version: 6.00 Build 0)  -->
<svg version="1.1" xmlns="http://www.w3.org/2000/svg" xmlns:xlink="http://www.w3.org/1999/xlink" x="0px" y="0px"
	 viewBox="0 0 400 417" style="enable-background:new 0 0 400 417;" xml:space="preserve">
<style type="text/css">
	.st0{opacity:0.2;}
	.st1{fill:#3561AD;}
	.st2{opacity:0.1;fill:#3561AD;enable-background:new    ;}
	.st3{fill:#F16584;}
	.st4{fill:#F9BEBF;}
	.st5{fill:#403E56;}
	.st6{opacity:0.1;fill:#010101;enable-background:new    ;}
	.st7{fill:#93CFA5;}
	.st8{fill:#302E41;}
	.st9{fill:#F2F2F2;}
	.st10{display:none;fill:#6ED397;}
	.st11{display:none;fill:#F9F9FD;}
	.st12{enable-background:new    ;}
	.st13{fill:#000333;}
	.st14{fill:#4C4C4C;}
</style>
<g id="Calque_1">
	<g class="st0">
		<path class="st1" d="M274.8,383.1c-0.3,0.6-0.7,1.2-1.1,1.7c-3.7-2.6-7.5-5.2-11.3-7.8l0.2-0.5c0.9-1.7,2.2-3.2,3.8-4.2
			c2.1-1.3,4.5-1.6,6.4-0.5s3,3.2,3.2,5.7C276.2,379.5,275.7,381.4,274.8,383.1z"/>
		
			<ellipse transform="matrix(0.4508 -0.8926 0.8926 0.4508 -179.9367 447.7325)" class="st1" cx="273.9" cy="370.1" rx="9.1" ry="6.9"/>
		
			<ellipse transform="matrix(0.4508 -0.8926 0.8926 0.4508 -168.3744 446.9669)" class="st1" cx="279" cy="360.3" rx="9.1" ry="6.9"/>
		
			<ellipse transform="matrix(0.4508 -0.8926 0.8926 0.4508 -156.7164 446.0879)" class="st1" cx="284.2" cy="350.4" rx="9.1" ry="6.9"/>
		
			<ellipse transform="matrix(0.4508 -0.8926 0.8926 0.4508 -145.1566 445.3145)" class="st1" cx="289.3" cy="340.6" rx="9.1" ry="6.9"/>
		<path class="st1" d="M301.8,261.1c-0.3-1.5-0.5-3-0.5-4.6l17.4,5.9l-17.3-9.1c0.5-9.2,4.7-17.7,11.6-23.6l16.8,24.6l-13-27.3
			c15.4-9.8,35.7-5,45.3,10.6c9.6,15.6,5,36.2-10.4,45.9c-1.3,0.8-2.7,1.6-4.1,2.2c0.4,2.4,0.6,4.8,0.5,7.2l-26.4-0.2l26,4.3
			c-1.8,11.1-9,20.6-19.1,25.1c3.2,18.1-8.6,35.4-26.5,38.7c-17.9,3.3-35-8.7-38.2-26.8c-2.7-15.1,5.2-30.2,19-36.4
			C280.1,282.3,288,267.3,301.8,261.1L301.8,261.1z"/>
		<path class="st2" d="M344.2,307.1c-3.4,6.6-9,11.8-15.7,14.9c3.2,18.1-8.6,35.4-26.5,38.7s-35-8.7-38.2-26.8
			c-2.7-15.1,5.2-30.2,19-36.4C281.5,290.4,345.9,303.8,344.2,307.1z"/>
	</g>
	<g class="st0">
		<path class="st1" d="M125.1,315.4c0.3,1.2,0.7,2.3,1.1,3.4c7.2-2.8,14.6-5.6,22-8.2c-0.1-0.3-0.1-0.6-0.2-1
			c-0.8-3.3-2.3-6.3-4.6-8.8c-3-3.1-6.8-4.6-10.5-3.7s-6.4,4.1-7.6,8.2C124.4,308.7,124.3,312.1,125.1,315.4z"/>
		
			<ellipse transform="matrix(0.9762 -0.217 0.217 0.9762 -60.6091 35.6659)" class="st1" cx="132.1" cy="293.8" rx="11.8" ry="15.8"/>
		<ellipse transform="matrix(0.9762 -0.217 0.217 0.9762 -56.638 34.2409)" class="st1" cx="127.6" cy="275" rx="11.8" ry="15.8"/>
		
			<ellipse transform="matrix(0.9762 -0.217 0.217 0.9762 -52.6603 32.8367)" class="st1" cx="123.2" cy="256.2" rx="11.8" ry="15.8"/>
		
			<ellipse transform="matrix(0.9762 -0.217 0.217 0.9762 -48.6896 31.4116)" class="st1" cx="118.7" cy="237.4" rx="11.8" ry="15.8"/>
		<path class="st1" d="M130.9,98.2c1.1-2.4,2-4.9,2.7-7.5l-31.3,2.5l32.6-7.9c3-15.7-0.5-31.9-9.6-44.8l-38,34.1l33-40.4
			C98.7,11.1,63,10.4,40.5,32.5s-23.2,58.8-1.7,81.8c1.8,2,3.8,3.8,5.9,5.4c-1.7,3.8-3,7.7-3.8,11.8l44,11l-45-3.9
			c-1.7,19.5,6.4,38.5,21.4,50.6c-12.9,29.1-0.4,63.4,28,76.6s61.8,0.4,74.7-28.7c10.8-24.3,4-53-16.5-69.5
			C158.3,143.4,151.4,114.7,130.9,98.2z"/>
		<path class="st2" d="M41.3,157.5c3,12.6,10,23.8,20,31.8c-12.9,29.1-0.4,63.4,28,76.6c28.4,13.2,61.8,0.4,74.7-28.7
			c10.8-24.3,4-53-16.5-69.5C152.6,156.3,39.8,151.2,41.3,157.5z"/>
	</g>
	<path class="st3" d="M54.2,192c0,0,6.8,14.4,5.7,22.1s-2.2,14.4,0,18.1c2.2,3.7-11.7-0.6-11.7-0.6v-21.5L54.2,192z"/>
	<path class="st4" d="M68.7,230.8c0,0-16.4,20.7-21.6,15.5s-9.9-17.6-6.1-21.6c2.1-2.2,2.2-6.3,1.9-9.6c-0.2-1.7-0.4-3.4-0.8-5.1
		c0,0,8.2-2.8,8.4,2.8c0,0.6,0.2,1.3,0.4,1.9c1.6,3.1,6.6,1.5,6.6,1.5L68.7,230.8z"/>
	<path class="st4" d="M56.5,217l1.1-0.9c4.3-0.3,8.7,0.5,12.8,2.1c6.5,2.8,17.9,5.2,21.2,4.3s11.1-2.8,11.1-2.8s8.7-4,10.6,0.9
		s-11.7,4.9-11.7,4.9s-9.7,4.4-16.4,3.8s-15.6,2.9-19.7-0.8C61.4,225,56.5,217,56.5,217z"/>
	<path class="st4" d="M24.1,334.2h-7.3l-2.7,6.1l3.5,4.3c0,0,6.8-0.9,8.7-3.4C28.2,338.8,24.1,334.2,24.1,334.2z"/>
	<path class="st5" d="M23,334.2c0,0,3-1.5,1.1-3.4c-1.9-1.8-3.5-4.3-6.5-1.8s-17.7,15-15,19.3s3.5,3.4,4.9,2.5s5.7-4.6,9.2-4.6
		s2.2-5.2,0.8-6.7S21.9,334.2,23,334.2z"/>
	<path class="st4" d="M51.3,373.4l-3,5.8l3,3.7h8.4c0,0-2.7-6.1-1.6-8.9S51.3,373.4,51.3,373.4z"/>
	<path class="st5" d="M59.8,377.7c0,0-3,3.7-4.9,3.1s-5.2-4.1-5.2-4.1s-4.8,5.3-2.7,7.8c2.2,2.5,10.9,7.1,13.3,8.9
		s10.6,0.6,10.3-1.5c-0.3-2.1-4.3-4.6-6.3-7.4C62.5,381.7,59.8,377.7,59.8,377.7z"/>
	<path class="st5" d="M74.2,277.1c0,0,6,21.2-2.2,46c0,0-7.3,36.5-10.1,43.8s-2.7,10.4-2.7,10.4s-10.3,0.3-9.5-2.1
		c0,0,3.5-12,3.5-16.6s5.7-29.4,5.7-29.4l1.9-53L74.2,277.1z"/>
	<path class="st6" d="M74.2,277.1c0,0,6,21.2-2.2,46c0,0-7.3,36.5-10.1,43.8s-2.7,10.4-2.7,10.4s-10.3,0.3-9.5-2.1
		c0,0,3.5-12,3.5-16.6s5.7-29.4,5.7-29.4l1.9-53L74.2,277.1z"/>
	<path class="st5" d="M72.8,278.7c0,0,0,9.8-5.7,14.1c0,0,4.3,34.3-1.1,40.8c-5.4,6.4-14.4,3.7-14.4,3.7s-15,0.9-26.1,5.8
		c0,0-8.7-2.8-1.6-9.8c0,0,8.7-2.5,11.4-4.6s15.2-6.4,18.5-4.6c0,0-0.3-5.2-1.4-8.9c-1-3.3-2.7-13.5-2.7-13.5s-7.6-16.3,0-24.8
		S72.8,278.7,72.8,278.7z"/>
	<path class="st6" d="M51,214.6c-2.5,1.4-5.4,1.6-8,0.5c-0.2-1.7-0.4-3.4-0.8-5.1c0,0,8.2-2.8,8.4,2.8C50.5,213.4,50.7,214,51,214.6
		z"/>
	<ellipse class="st4" cx="46.4" cy="203.5" rx="10.1" ry="11.3"/>
	<path class="st7" d="M45.9,245.9c0,0,11.4,9.2,6.3,19c-5.2,9.8-3.5,15.3-3.5,15.3s9.8,0,13,2.5c3.3,2.5,13.6-1.8,13.6-1.8
		s1.6-12.3-0.5-18.1c-2.2-5.8-3.3-15-2.4-16.9s3-10.4-2.2-15.3l-2.9-1.8c0,0,1.9,8.8-10.7,3.3C56.5,232.1,53.8,250.2,45.9,245.9z"/>
	<polygon class="st7" points="56.6,216.3 56.9,216.7 67.2,228.8 67.5,229.2 67.6,229.3 67.8,230 68.2,231.5 66.5,229.5 56.6,217 
		56.1,216.4 	"/>
	<path class="st7" d="M57.4,233c0,0-8.5-8.3-14.5-6.1c-6,2.1,2.9,20.4,4.7,20.6l0.7-0.1c0,0-11.1-15.3-4.9-19.9
		c0,0,7.9,0.9,13.9,6.4L57.4,233z"/>
	<path class="st4" d="M52.1,231.1l19.8,7.1l32.9,2.1c0,0,9.5,0.3,7.9,5.2s-10.3,1.2-10.3,1.2l-28.3,0.6c0,0-23.4-2.8-25.3-4.3
		C47,241.6,50,230.2,52.1,231.1z"/>
	<path class="st3" d="M43.4,213.1c0,0-1.1-2.5,1.1-5.2c1.1-1.4,2.1-4.4,2.8-7c0.6-2.5,2.8-4,5.1-3.6c1.9,0.4,4,0.5,4.7-0.4
		c1.4-1.8-0.3-11.7-10.9-9.5c-10.6,2.1-17.4-2.8-17.4,8.9s6.5,15,1.9,26.7s-13.6,12.9-8.4,20.5c5.2,7.7,18.8,9.8,19.6,7.1
		s-3.3-13.5-0.5-17.8s7.3-8.9,6-11.7C45.9,218.3,43.4,213.1,43.4,213.1z"/>
	<path class="st4" d="M332.3,369.2c0,0,2.9,10.6,2.9,12.1s4.7,1.1,4.7,1.1l3.6-5.9c0,0-2.9-5.9-3.6-8.8
		C339.1,364.8,332.3,369.2,332.3,369.2z"/>
	<path class="st8" d="M337.7,379.1c0,0,4.3,1.1,4.3-2.2s1.8-1.8,1.8-1.8s4.3,2.6,2.5,5.1c-1.8,2.6-5.1,5.5-6.2,8.1s-4.3,9.5-8,8.1
		s-1.1-4.8-1.1-4.8s2.9-4.4,2.2-8.1c-0.7-3.7-1.1-5.5,0-5.5s2.9-1.1,2.9,0.4C336.2,379.8,337.7,379.1,337.7,379.1z"/>
	<ellipse class="st8" cx="337.5" cy="229.3" rx="13.8" ry="13.9"/>
	<ellipse class="st8" cx="336.1" cy="217.5" rx="12.3" ry="12.4"/>
	<polygon class="st5" points="329.5,291.1 322.3,290.4 319.3,283.1 319.8,276.5 329.5,276.5 	"/>
	<polygon class="st6" points="329.5,291.1 322.3,290.4 319.3,283.1 319.8,276.5 329.5,276.5 	"/>
	<path class="st4" d="M330.1,238.6c0,0-0.4,9.1-1.8,10.2c-1.4,1.1,2.2,5.5,2.2,5.5l5.8-1.5l4.3-4l-1.8-0.4c0,0,0-5.1,1.1-6.6
		C340.9,240.4,330.1,238.6,330.1,238.6z"/>
	<path class="st6" d="M330.1,238.6c0,0-0.4,9.1-1.8,10.2c-1.4,1.1,2.2,5.5,2.2,5.5l5.8-1.5l4.3-4l-1.8-0.4c0,0,0-5.1,1.1-6.6
		C340.9,240.4,330.1,238.6,330.1,238.6z"/>
	<path class="st4" d="M319.9,274.5c0,0,3.6,9.5,2.9,17.6s16.3,1.1,16.3,1.1l5.1-3.3c0,0,1.4-9.9,0-12.1s-4.3-9.9-4.3-9.9l-7.6-1.1
		L319.9,274.5z"/>
	<path class="st4" d="M380.8,316.5c0,0,6.2-6.9,7.2-7.6s-1.4-3.9-1.4-3.9h-5.8c0,0-2.8,4.7-4.6,6.6
		C374.6,313.5,380.8,316.5,380.8,316.5z"/>
	<path class="st8" d="M385.3,308.1c0,0-1.2-3.6-3.5-2.1s-2.1-0.5-2.1-0.5s-0.2-4.3,2.5-4.1s6.2,1.2,8.5,0.8c2.3-0.4,8.7-1.2,9.3,2.1
		c0.6,3.3-2.9,2.9-2.9,2.9s-4.4-0.1-6.7,2.1c-2.3,2.2-3.4,3.3-3.9,2.5s-2.1-1.6-1.1-2.3S385.3,308.1,385.3,308.1z"/>
	<path class="st4" d="M326.1,245.2c0,0-4.3-2.6-5.4-9.9c-1.1-7.3-8.7-32.9-8.7-32.9s-5.1-17.6-6.9-11.7c-1.8,5.9,2.2,12.4,2.2,12.4
		l5.1,23.8c0,0,4.3,30.7,6.5,32.2C321,260.5,326.1,245.2,326.1,245.2z"/>
	<path class="st4" d="M343.7,246.6c0,0,5-0.1,9.6-5.9c4.5-5.8,23.7-24.3,23.7-24.3s13-12.7,11.7-6.7s-8,9.7-8,9.7l-16,18.1
		c0,0-18.8,24.5-21.4,24.7C340.6,262.5,343.7,246.6,343.7,246.6z"/>
	<ellipse class="st4" cx="336.2" cy="235.3" rx="9.1" ry="9.1"/>
	<path class="st8" d="M344.8,284.1c0,0-12.6,9.1-17.3,7.6c-4.7-1.5-5.4-2.6-5.4-2.6s-4.3,30-1.1,41.7c0,0,0.4,11.7,3.6,16.1
		l7.6,25.3c0,0,8.3-0.4,8.3-3.3c0,0-1.1-6.2-1.1-10.6s-5.8-15.4-5.8-15.4l4-30.7c0,0,15.2,30.7,21.4,28.5
		c6.2-2.2,23.5-25.3,23.5-25.3l-5.4-5.1c0,0-15.2,9.1-17,13.9C360.1,324.2,348,286.7,344.8,284.1z"/>
	<path class="st5" d="M335.2,249.9c0,0,4.7-3.7,5.4-3.7h4.7c0,0,3.6,8.8,2.2,12.4c0,0-1.8,9.5-2.2,10.2c-0.4,0.7,0,2.9,0.7,5.1
		s2.9,7,1.8,8.1s-2.2,4-2.9,4c-0.7,0-6.5-5.5-7.6-9.1c-1.1-3.7-1.1-4.8-3.6-3.3s-13.8,0.7-13,6.6c0.3,3,0.8,5.9,1.4,8.8
		c0,0-4.3,1.5-5.1-5.5c-0.7-7-1.4-7.3,0.7-9.9c2.2-2.6-0.7-13.2-0.7-13.2s3.6-6.2,4.3-9.5s3.6-6.6,3.6-6.6s1.8-1.1,2.9-0.4
		c1.1,0.7,1.7,0.4,1.7,0.4s-2,5.1,0.1,5.1S335.2,249.9,335.2,249.9z"/>
	<ellipse class="st6" cx="329.7" cy="288.5" rx="0.5" ry="1.1"/>
	<ellipse class="st8" cx="337.1" cy="227.1" rx="10.9" ry="7"/>
</g>
<g id="Message">
	<path class="st9" d="M104.2,112.7H318c6.2,0,11.2,5.9,11.2,13.2v57.6c0,7.3-5,13.2-11.2,13.2H104.2c-6.2,0-11.2-5.9-11.2-13.2V126
		C93,118.7,98,112.7,104.2,112.7z"/>
	<path class="st10" d="M320.4,183.8H101.8c-4.9,0-8.8-3.9-8.8-8.8v-53.5c0-4.9,3.9-8.8,8.8-8.8h218.5c4.9,0,8.8,3.9,8.8,8.8V175
		C329.2,179.9,325.3,183.8,320.4,183.8z"/>
	<path class="st11" d="M317.6,180.9H104.5c-4.8,0-8.6-3.9-8.6-8.6v-47.9c0-4.8,3.9-8.6,8.6-8.6h213.1c4.8,0,8.6,3.9,8.6,8.6v47.9
		C326.3,177,322.4,180.9,317.6,180.9z"/>
	<g class="st12">
		<path class="st13" d="M115.4,134.2c-0.8-0.2-1.4-0.6-1.8-1l0.6-1.2c0.4,0.4,0.9,0.6,1.6,0.9c0.6,0.2,1.3,0.4,2,0.4
			c0.9,0,1.6-0.2,2-0.5c0.5-0.3,0.6-0.7,0.6-1.2c0-0.4-0.1-0.6-0.4-0.9c-0.2-0.2-0.5-0.4-0.9-0.5c-0.4-0.1-0.9-0.2-1.5-0.4
			c-0.8-0.2-1.5-0.4-2-0.6c-0.5-0.2-0.9-0.5-1.3-0.9c-0.4-0.4-0.5-0.9-0.5-1.6c0-0.6,0.2-1.1,0.5-1.6c0.3-0.5,0.8-0.8,1.4-1.1
			c0.6-0.3,1.4-0.4,2.3-0.4c0.6,0,1.3,0.1,1.9,0.2c0.6,0.2,1.2,0.4,1.6,0.7l-0.5,1.2c-0.5-0.3-0.9-0.5-1.5-0.6
			c-0.5-0.2-1-0.2-1.5-0.2c-0.9,0-1.5,0.2-2,0.5c-0.5,0.3-0.6,0.7-0.6,1.2c0,0.4,0.1,0.6,0.4,0.9c0.2,0.2,0.5,0.4,0.9,0.5
			c0.4,0.1,0.9,0.3,1.5,0.4c0.8,0.2,1.5,0.4,1.9,0.6c0.5,0.2,0.9,0.5,1.3,0.9c0.4,0.4,0.5,0.9,0.5,1.6c0,0.6-0.2,1.1-0.5,1.5
			c-0.3,0.5-0.8,0.8-1.4,1.1c-0.6,0.3-1.4,0.4-2.3,0.4C116.9,134.6,116.2,134.5,115.4,134.2z"/>
		<path class="st13" d="M133.6,123.6v10.8H132v-4.8h-6.2v4.8h-1.5v-10.8h1.5v4.7h6.2v-4.7H133.6z"/>
		<path class="st13" d="M138.7,133.9c-0.9-0.5-1.6-1.1-2.1-2c-0.5-0.8-0.8-1.8-0.8-2.8s0.2-2,0.8-2.8c0.5-0.8,1.2-1.5,2.1-2
			c0.9-0.5,1.9-0.7,2.9-0.7c1.1,0,2.1,0.2,2.9,0.7c0.9,0.5,1.6,1.1,2.1,2c0.5,0.8,0.8,1.8,0.8,2.8s-0.2,2-0.8,2.8
			c-0.5,0.8-1.2,1.5-2.1,2c-0.9,0.5-1.9,0.7-2.9,0.7C140.6,134.6,139.6,134.4,138.7,133.9z M143.8,132.7c0.6-0.4,1.1-0.9,1.5-1.5
			c0.4-0.6,0.5-1.4,0.5-2.1s-0.2-1.5-0.5-2.1c-0.4-0.6-0.9-1.1-1.5-1.5s-1.4-0.5-2.1-0.5s-1.5,0.2-2.2,0.5c-0.6,0.4-1.2,0.9-1.5,1.5
			c-0.4,0.6-0.5,1.4-0.5,2.1s0.2,1.5,0.5,2.1c0.4,0.6,0.9,1.1,1.5,1.5c0.6,0.4,1.4,0.5,2.2,0.5C142.5,133.2,143.2,133,143.8,132.7z"
			/>
		<path class="st13" d="M157.3,124.7c0.8,0.6,1.2,1.6,1.2,2.8s-0.4,2.1-1.2,2.8c-0.8,0.6-1.9,1-3.3,1h-2.7v3.3h-1.5v-10.9h4.2
			C155.4,123.6,156.5,124,157.3,124.7z M156.2,129.2c0.5-0.4,0.8-1,0.8-1.8c0-0.8-0.2-1.4-0.8-1.8c-0.5-0.4-1.2-0.6-2.2-0.6h-2.6
			v4.9h2.6C155,129.8,155.7,129.6,156.2,129.2z"/>
	</g>
	<g>
		<path class="st14" d="M114.5,147.7h3.8v1.2h-3.8V147.7z"/>
		<path class="st14" d="M126.4,150.9v1.2h-7v-1l4-3.8c0.5-0.5,0.8-0.9,1-1.2c0.2-0.3,0.3-0.7,0.3-1c0-0.5-0.2-0.9-0.5-1.2
			s-0.9-0.4-1.5-0.4c-1.1,0-1.9,0.4-2.5,1.1l-1-0.8c0.4-0.5,0.9-0.8,1.5-1.1c0.6-0.3,1.3-0.4,2.1-0.4c1,0,1.8,0.2,2.5,0.7
			c0.6,0.5,0.9,1.2,0.9,2c0,0.5-0.1,1-0.3,1.5c-0.2,0.5-0.6,1-1.3,1.6l-3,2.9H126.4z"/>
		<path class="st14" d="M129.4,151.7c-0.6-0.4-1.1-1-1.4-1.7c-0.3-0.8-0.5-1.7-0.5-2.7s0.2-1.9,0.5-2.7c0.3-0.8,0.8-1.3,1.4-1.7
			c0.6-0.4,1.3-0.6,2.1-0.6c0.8,0,1.4,0.2,2.1,0.6c0.6,0.4,1.1,1,1.4,1.7c0.3,0.8,0.5,1.7,0.5,2.7s-0.2,1.9-0.5,2.7
			c-0.3,0.8-0.8,1.3-1.4,1.7c-0.6,0.4-1.3,0.6-2.1,0.6C130.7,152.3,130,152.1,129.4,151.7z M133.4,150.1c0.5-0.6,0.7-1.6,0.7-2.8
			s-0.2-2.2-0.7-2.8c-0.5-0.6-1.1-1-1.9-1c-0.8,0-1.4,0.3-1.9,1c-0.5,0.6-0.7,1.6-0.7,2.8s0.2,2.2,0.7,2.8c0.5,0.6,1.1,1,1.9,1
			C132.3,151,132.9,150.7,133.4,150.1z"/>
		<path class="st14" d="M137.3,146.9c-0.4-0.5-0.6-1.1-0.6-1.9s0.2-1.4,0.6-1.9c0.4-0.5,1-0.7,1.7-0.7s1.2,0.2,1.6,0.7
			c0.4,0.5,0.6,1.1,0.6,1.9s-0.2,1.4-0.6,1.9c-0.4,0.5-1,0.7-1.6,0.7S137.7,147.4,137.3,146.9z M140,146.3c0.2-0.3,0.4-0.8,0.4-1.4
			s-0.1-1-0.4-1.4c-0.2-0.3-0.6-0.5-1-0.5c-0.4,0-0.8,0.2-1,0.5s-0.4,0.8-0.4,1.4s0.1,1,0.4,1.4s0.6,0.5,1,0.5
			C139.4,146.8,139.7,146.7,140,146.3z M144.9,142.4h1.1l-6.7,9.8h-1.1L144.9,142.4z M143.5,151.5c-0.4-0.5-0.6-1.1-0.6-1.9
			s0.2-1.4,0.6-1.9c0.4-0.5,1-0.7,1.6-0.7s1.2,0.2,1.7,0.7s0.6,1.1,0.6,1.9s-0.2,1.4-0.6,1.9c-0.4,0.5-1,0.7-1.7,0.7
			S143.9,152,143.5,151.5z M146.2,150.9c0.2-0.3,0.4-0.8,0.4-1.4s-0.1-1-0.4-1.4s-0.6-0.5-1-0.5c-0.4,0-0.8,0.2-1,0.5
			c-0.2,0.3-0.4,0.8-0.4,1.4c0,0.6,0.1,1,0.4,1.4c0.2,0.3,0.6,0.5,1,0.5C145.6,151.4,145.9,151.3,146.2,150.9z"/>
		<path class="st14" d="M153.4,152c-0.6-0.2-1-0.4-1.3-0.6l0.6-1.1c0.3,0.2,0.7,0.4,1.2,0.6s0.9,0.2,1.4,0.2c1.2,0,1.8-0.3,1.8-1
			c0-0.2-0.1-0.4-0.2-0.5c-0.2-0.1-0.4-0.2-0.6-0.3c-0.2-0.1-0.6-0.1-1-0.2c-0.6-0.1-1.1-0.2-1.5-0.3c-0.4-0.1-0.7-0.3-1-0.6
			c-0.3-0.3-0.4-0.7-0.4-1.2c0-0.7,0.3-1.2,0.8-1.6c0.6-0.4,1.3-0.6,2.3-0.6c0.5,0,1,0.1,1.5,0.2c0.5,0.1,0.9,0.3,1.2,0.5l-0.6,1.1
			c-0.6-0.4-1.3-0.6-2.1-0.6c-0.6,0-1,0.1-1.3,0.3c-0.3,0.2-0.4,0.4-0.4,0.7c0,0.2,0.1,0.4,0.3,0.6s0.4,0.2,0.6,0.3
			c0.2,0.1,0.6,0.1,1,0.2c0.6,0.1,1.1,0.2,1.4,0.3c0.4,0.1,0.7,0.3,0.9,0.6c0.3,0.3,0.4,0.7,0.4,1.2c0,0.7-0.3,1.2-0.9,1.6
			c-0.6,0.4-1.4,0.6-2.3,0.6C154.5,152.2,153.9,152.2,153.4,152z"/>
		<path class="st14" d="M166.9,144.7v7.4h-1.3V151c-0.3,0.4-0.6,0.7-1.1,0.9s-0.9,0.3-1.4,0.3c-1,0-1.8-0.3-2.3-0.8
			s-0.9-1.4-0.9-2.4v-4.3h1.3v4.1c0,0.7,0.2,1.3,0.5,1.6c0.3,0.4,0.8,0.6,1.5,0.6c0.7,0,1.3-0.2,1.7-0.6c0.4-0.4,0.6-1,0.6-1.8v-3.8
			H166.9z"/>
		<path class="st14" d="M171.8,145c0.5-0.2,1-0.3,1.7-0.3v1.3c-0.1,0-0.2,0-0.3,0c-0.7,0-1.3,0.2-1.7,0.7c-0.4,0.4-0.6,1.1-0.6,1.9
			v3.7h-1.3v-7.4h1.3v1.2C171,145.6,171.4,145.2,171.8,145z"/>
		<path class="st14" d="M183.2,151.7c-0.2,0.2-0.4,0.3-0.7,0.4c-0.3,0.1-0.6,0.1-0.9,0.1c-0.7,0-1.3-0.2-1.7-0.6
			c-0.4-0.4-0.6-1-0.6-1.7v-4.1h-1.3v-1.1h1.3v-1.6h1.3v1.6h2.1v1.1h-2.1v4c0,0.4,0.1,0.7,0.3,0.9c0.2,0.2,0.5,0.3,0.9,0.3
			c0.4,0,0.8-0.1,1.1-0.4L183.2,151.7z"/>
		<path class="st14" d="M185.7,151.8c-0.6-0.3-1-0.8-1.4-1.4c-0.3-0.6-0.5-1.2-0.5-2s0.2-1.4,0.5-2c0.3-0.6,0.8-1,1.4-1.3
			c0.6-0.3,1.3-0.5,2-0.5s1.4,0.2,2,0.5c0.6,0.3,1,0.8,1.4,1.3c0.3,0.6,0.5,1.2,0.5,2s-0.2,1.4-0.5,2c-0.3,0.6-0.8,1-1.4,1.4
			c-0.6,0.3-1.2,0.5-2,0.5S186.3,152.1,185.7,151.8z M189,150.7c0.4-0.2,0.7-0.5,0.9-0.9c0.2-0.4,0.3-0.9,0.3-1.4s-0.1-1-0.3-1.4
			c-0.2-0.4-0.5-0.7-0.9-0.9c-0.4-0.2-0.8-0.3-1.3-0.3c-0.5,0-0.9,0.1-1.3,0.3c-0.4,0.2-0.7,0.5-0.9,0.9c-0.2,0.4-0.3,0.9-0.3,1.4
			s0.1,1,0.3,1.4c0.2,0.4,0.5,0.7,0.9,0.9s0.8,0.3,1.3,0.3C188.2,151.1,188.6,151,189,150.7z"/>
		<path class="st14" d="M200.4,144.7v7.4h-1.3V151c-0.3,0.4-0.6,0.7-1.1,0.9s-0.9,0.3-1.4,0.3c-1,0-1.8-0.3-2.3-0.8
			s-0.9-1.4-0.9-2.4v-4.3h1.3v4.1c0,0.7,0.2,1.3,0.5,1.6c0.3,0.4,0.8,0.6,1.5,0.6c0.7,0,1.3-0.2,1.7-0.6c0.4-0.4,0.6-1,0.6-1.8v-3.8
			H200.4z"/>
		<path class="st14" d="M207.1,151.7c-0.2,0.2-0.4,0.3-0.7,0.4c-0.3,0.1-0.6,0.1-0.9,0.1c-0.7,0-1.3-0.2-1.7-0.6
			c-0.4-0.4-0.6-1-0.6-1.7v-4.1h-1.3v-1.1h1.3v-1.6h1.3v1.6h2.1v1.1h-2.1v4c0,0.4,0.1,0.7,0.3,0.9c0.2,0.2,0.5,0.3,0.9,0.3
			c0.4,0,0.8-0.1,1.1-0.4L207.1,151.7z"/>
		<path class="st14" d="M215.1,148.9h-6c0.1,0.7,0.4,1.2,0.9,1.6c0.5,0.4,1.1,0.6,1.8,0.6c0.9,0,1.6-0.3,2.1-0.9l0.7,0.9
			c-0.3,0.4-0.8,0.7-1.3,0.9c-0.5,0.2-1.1,0.3-1.7,0.3c-0.8,0-1.5-0.2-2.1-0.5c-0.6-0.3-1.1-0.8-1.4-1.4s-0.5-1.2-0.5-2
			c0-0.7,0.2-1.4,0.5-1.9c0.3-0.6,0.8-1,1.3-1.4c0.6-0.3,1.2-0.5,1.9-0.5c0.7,0,1.3,0.2,1.9,0.5c0.6,0.3,1,0.8,1.3,1.4
			s0.5,1.2,0.5,2C215.2,148.6,215.2,148.7,215.1,148.9z M209.9,146.4c-0.4,0.4-0.7,0.9-0.8,1.5h4.8c-0.1-0.6-0.3-1.1-0.8-1.5
			c-0.4-0.4-1-0.6-1.6-0.6C210.9,145.8,210.3,146,209.9,146.4z"/>
		<path class="st14" d="M220.8,141.8h1.3v10.4h-1.3V141.8z"/>
		<path class="st14" d="M229.8,145.4c0.5,0.5,0.8,1.3,0.8,2.3v4.5h-1.3v-1c-0.2,0.3-0.5,0.6-1,0.8s-0.9,0.3-1.5,0.3
			c-0.8,0-1.5-0.2-2-0.6c-0.5-0.4-0.7-0.9-0.7-1.6s0.2-1.2,0.7-1.6c0.5-0.4,1.2-0.6,2.3-0.6h2.1v-0.3c0-0.6-0.2-1-0.5-1.3
			c-0.3-0.3-0.8-0.5-1.5-0.5c-0.4,0-0.9,0.1-1.3,0.2s-0.8,0.3-1.1,0.6l-0.6-1c0.4-0.3,0.8-0.5,1.4-0.7c0.5-0.2,1.1-0.2,1.7-0.2
			C228.4,144.7,229.2,144.9,229.8,145.4z M228.4,150.9c0.4-0.2,0.6-0.6,0.8-1v-1h-2.1c-1.1,0-1.7,0.4-1.7,1.1c0,0.4,0.1,0.7,0.4,0.9
			s0.7,0.3,1.2,0.3S228.1,151.1,228.4,150.9z"/>
		<path class="st14" d="M242.7,145.1c0.6,0.3,1,0.8,1.3,1.3c0.3,0.6,0.5,1.2,0.5,2s-0.2,1.4-0.5,2c-0.3,0.6-0.8,1-1.3,1.3
			c-0.6,0.3-1.2,0.5-1.9,0.5c-0.6,0-1.1-0.1-1.5-0.3c-0.5-0.2-0.8-0.5-1.1-0.9v1.2h-1.3v-10.4h1.3v4.1c0.3-0.4,0.7-0.7,1.1-0.9
			c0.4-0.2,0.9-0.3,1.5-0.3C241.5,144.7,242.1,144.8,242.7,145.1z M241.9,150.7c0.4-0.2,0.7-0.5,0.9-0.9c0.2-0.4,0.3-0.9,0.3-1.4
			s-0.1-1-0.3-1.4c-0.2-0.4-0.5-0.7-0.9-0.9c-0.4-0.2-0.8-0.3-1.3-0.3c-0.5,0-0.9,0.1-1.3,0.3c-0.4,0.2-0.7,0.5-0.9,0.9
			c-0.2,0.4-0.3,0.9-0.3,1.4s0.1,1,0.3,1.4c0.2,0.4,0.5,0.7,0.9,0.9s0.8,0.3,1.3,0.3C241.1,151.1,241.6,151,241.9,150.7z"/>
		<path class="st14" d="M247.6,151.8c-0.6-0.3-1-0.8-1.4-1.4c-0.3-0.6-0.5-1.2-0.5-2s0.2-1.4,0.5-2c0.3-0.6,0.8-1,1.4-1.3
			c0.6-0.3,1.3-0.5,2-0.5s1.4,0.2,2,0.5c0.6,0.3,1,0.8,1.4,1.3c0.3,0.6,0.5,1.2,0.5,2s-0.2,1.4-0.5,2c-0.3,0.6-0.8,1-1.4,1.4
			c-0.6,0.3-1.2,0.5-2,0.5S248.2,152.1,247.6,151.8z M250.8,150.7c0.4-0.2,0.7-0.5,0.9-0.9c0.2-0.4,0.3-0.9,0.3-1.4s-0.1-1-0.3-1.4
			c-0.2-0.4-0.5-0.7-0.9-0.9c-0.4-0.2-0.8-0.3-1.3-0.3c-0.5,0-0.9,0.1-1.3,0.3c-0.4,0.2-0.7,0.5-0.9,0.9c-0.2,0.4-0.3,0.9-0.3,1.4
			s0.1,1,0.3,1.4c0.2,0.4,0.5,0.7,0.9,0.9s0.8,0.3,1.3,0.3C250,151.1,250.5,151,250.8,150.7z"/>
		<path class="st14" d="M262.2,144.7v7.4h-1.3V151c-0.3,0.4-0.6,0.7-1.1,0.9s-0.9,0.3-1.4,0.3c-1,0-1.8-0.3-2.3-0.8
			s-0.9-1.4-0.9-2.4v-4.3h1.3v4.1c0,0.7,0.2,1.3,0.5,1.6c0.3,0.4,0.8,0.6,1.5,0.6c0.7,0,1.3-0.2,1.7-0.6c0.4-0.4,0.6-1,0.6-1.8v-3.8
			H262.2z"/>
		<path class="st14" d="M268.9,151.7c-0.2,0.2-0.4,0.3-0.7,0.4c-0.3,0.1-0.6,0.1-0.9,0.1c-0.7,0-1.3-0.2-1.7-0.6
			c-0.4-0.4-0.6-1-0.6-1.7v-4.1h-1.3v-1.1h1.3v-1.6h1.3v1.6h2.1v1.1h-2.1v4c0,0.4,0.1,0.7,0.3,0.9c0.2,0.2,0.5,0.3,0.9,0.3
			c0.4,0,0.8-0.1,1.1-0.4L268.9,151.7z"/>
		<path class="st14" d="M270.6,143.1c-0.2-0.2-0.3-0.4-0.3-0.6s0.1-0.5,0.3-0.6s0.4-0.3,0.7-0.3c0.3,0,0.5,0.1,0.7,0.2
			c0.2,0.2,0.3,0.4,0.3,0.6c0,0.3-0.1,0.5-0.3,0.6s-0.4,0.3-0.7,0.3C271,143.3,270.7,143.2,270.6,143.1z M270.6,144.7h1.3v7.4h-1.3
			V144.7z"/>
		<path class="st14" d="M281.5,144.7v10.1h-1.3V151c-0.3,0.4-0.7,0.7-1.1,0.9c-0.4,0.2-0.9,0.3-1.5,0.3c-0.7,0-1.4-0.2-1.9-0.5
			c-0.6-0.3-1-0.8-1.3-1.3c-0.3-0.6-0.5-1.2-0.5-2s0.2-1.4,0.5-2c0.3-0.6,0.8-1,1.3-1.3c0.6-0.3,1.2-0.5,1.9-0.5
			c0.6,0,1.1,0.1,1.5,0.3c0.5,0.2,0.8,0.5,1.1,0.9v-1.2H281.5z M278.9,150.7c0.4-0.2,0.7-0.5,0.9-0.9c0.2-0.4,0.3-0.9,0.3-1.4
			s-0.1-1-0.3-1.4c-0.2-0.4-0.5-0.7-0.9-0.9s-0.8-0.3-1.3-0.3c-0.5,0-0.9,0.1-1.3,0.3c-0.4,0.2-0.7,0.5-0.9,0.9
			c-0.2,0.4-0.3,0.9-0.3,1.4s0.1,1,0.3,1.4c0.2,0.4,0.5,0.7,0.9,0.9s0.8,0.3,1.3,0.3C278.1,151.1,278.5,151,278.9,150.7z"/>
		<path class="st14" d="M290.9,144.7v7.4h-1.3V151c-0.3,0.4-0.6,0.7-1.1,0.9s-0.9,0.3-1.4,0.3c-1,0-1.8-0.3-2.3-0.8
			s-0.9-1.4-0.9-2.4v-4.3h1.3v4.1c0,0.7,0.2,1.3,0.5,1.6c0.3,0.4,0.8,0.6,1.5,0.6c0.7,0,1.3-0.2,1.7-0.6c0.4-0.4,0.6-1,0.6-1.8v-3.8
			H290.9z"/>
		<path class="st14" d="M300.2,148.9h-6c0.1,0.7,0.4,1.2,0.9,1.6c0.5,0.4,1.1,0.6,1.8,0.6c0.9,0,1.6-0.3,2.1-0.9l0.7,0.9
			c-0.3,0.4-0.8,0.7-1.3,0.9c-0.5,0.2-1.1,0.3-1.7,0.3c-0.8,0-1.5-0.2-2.1-0.5c-0.6-0.3-1.1-0.8-1.4-1.4s-0.5-1.2-0.5-2
			c0-0.7,0.2-1.4,0.5-1.9c0.3-0.6,0.8-1,1.3-1.4c0.6-0.3,1.2-0.5,1.9-0.5c0.7,0,1.3,0.2,1.9,0.5c0.6,0.3,1,0.8,1.3,1.4
			s0.5,1.2,0.5,2C300.2,148.6,300.2,148.7,300.2,148.9z M294.9,146.4c-0.4,0.4-0.7,0.9-0.8,1.5h4.8c-0.1-0.6-0.3-1.1-0.8-1.5
			c-0.4-0.4-1-0.6-1.6-0.6C295.9,145.8,295.3,146,294.9,146.4z"/>
		<path class="st14" d="M302,152c-0.2-0.2-0.3-0.4-0.3-0.6s0.1-0.5,0.3-0.6c0.2-0.2,0.4-0.3,0.7-0.3c0.3,0,0.5,0.1,0.6,0.3
			c0.2,0.2,0.3,0.4,0.3,0.6s-0.1,0.5-0.3,0.6c-0.2,0.2-0.4,0.3-0.6,0.3C302.4,152.2,302.2,152.2,302,152z M301.9,142.4h1.6l-0.3,6.7
			h-1.1L301.9,142.4z"/>
		<path class="st14" d="M121.9,160.1c0.7,0.6,1.1,1.4,1.1,2.5c0,1.1-0.4,1.9-1.1,2.5c-0.7,0.6-1.7,0.9-3,0.9h-2.4v3h-1.4v-9.8h3.8
			C120.2,159.2,121.2,159.5,121.9,160.1z M120.9,164.2c0.5-0.4,0.7-0.9,0.7-1.6c0-0.7-0.2-1.3-0.7-1.6s-1.1-0.6-2-0.6h-2.4v4.4h2.4
			C119.8,164.8,120.5,164.6,120.9,164.2z"/>
		<path class="st14" d="M127.1,161.8c0.5-0.2,1-0.3,1.7-0.3v1.3c-0.1,0-0.2,0-0.3,0c-0.7,0-1.3,0.2-1.7,0.7
			c-0.4,0.4-0.6,1.1-0.6,1.9v3.7h-1.3v-7.4h1.3v1.2C126.3,162.4,126.6,162,127.1,161.8z"/>
		<path class="st14" d="M131.5,168.6c-0.6-0.3-1-0.8-1.4-1.4c-0.3-0.6-0.5-1.2-0.5-2s0.2-1.4,0.5-2c0.3-0.6,0.8-1,1.4-1.3
			c0.6-0.3,1.3-0.5,2-0.5s1.4,0.2,2,0.5c0.6,0.3,1,0.8,1.4,1.3c0.3,0.6,0.5,1.2,0.5,2s-0.2,1.4-0.5,2c-0.3,0.6-0.8,1-1.4,1.4
			c-0.6,0.3-1.2,0.5-2,0.5S132.1,168.9,131.5,168.6z M134.8,167.5c0.4-0.2,0.7-0.5,0.9-0.9c0.2-0.4,0.3-0.9,0.3-1.4s-0.1-1-0.3-1.4
			c-0.2-0.4-0.5-0.7-0.9-0.9c-0.4-0.2-0.8-0.3-1.3-0.3c-0.5,0-0.9,0.1-1.3,0.3c-0.4,0.2-0.7,0.5-0.9,0.9c-0.2,0.4-0.3,0.9-0.3,1.4
			s0.1,1,0.3,1.4c0.2,0.4,0.5,0.7,0.9,0.9s0.8,0.3,1.3,0.3C134,167.9,134.4,167.8,134.8,167.5z"/>
		<path class="st14" d="M140.7,160.9v0.6h2.2v1.1h-2.1v6.3h-1.3v-6.3h-1.3v-1.1h1.3v-0.7c0-0.7,0.2-1.3,0.6-1.8
			c0.4-0.4,1-0.6,1.8-0.6c0.3,0,0.6,0,0.8,0.1c0.3,0.1,0.5,0.2,0.7,0.3l-0.4,1c-0.3-0.2-0.7-0.4-1-0.4
			C141.1,159.6,140.7,160,140.7,160.9z M145.3,159.9c-0.2-0.2-0.3-0.4-0.3-0.6s0.1-0.5,0.3-0.6c0.2-0.2,0.4-0.3,0.7-0.3
			c0.3,0,0.5,0.1,0.7,0.2c0.2,0.2,0.3,0.4,0.3,0.6c0,0.3-0.1,0.5-0.3,0.6s-0.4,0.3-0.7,0.3C145.7,160.1,145.5,160,145.3,159.9z
			 M145.3,161.5h1.3v7.4h-1.3V161.5z"/>
		<path class="st14" d="M153.4,168.5c-0.2,0.2-0.4,0.3-0.7,0.4c-0.3,0.1-0.6,0.1-0.9,0.1c-0.7,0-1.3-0.2-1.7-0.6
			c-0.4-0.4-0.6-1-0.6-1.7v-4.1h-1.3v-1.1h1.3v-1.6h1.3v1.6h2.1v1.1h-2.1v4c0,0.4,0.1,0.7,0.3,0.9c0.2,0.2,0.5,0.3,0.9,0.3
			c0.4,0,0.8-0.1,1.1-0.4L153.4,168.5z"/>
		<path class="st14" d="M161.4,165.7h-6c0.1,0.7,0.4,1.2,0.9,1.6c0.5,0.4,1.1,0.6,1.8,0.6c0.9,0,1.6-0.3,2.1-0.9l0.7,0.9
			c-0.3,0.4-0.8,0.7-1.3,0.9c-0.5,0.2-1.1,0.3-1.7,0.3c-0.8,0-1.5-0.2-2.1-0.5c-0.6-0.3-1.1-0.8-1.4-1.4s-0.5-1.2-0.5-2
			c0-0.7,0.2-1.4,0.5-1.9c0.3-0.6,0.8-1,1.3-1.4c0.6-0.3,1.2-0.5,1.9-0.5c0.7,0,1.3,0.2,1.9,0.5c0.6,0.3,1,0.8,1.3,1.4
			s0.5,1.2,0.5,2C161.5,165.4,161.4,165.5,161.4,165.7z M156.2,163.2c-0.4,0.4-0.7,0.9-0.8,1.5h4.8c-0.1-0.6-0.3-1.1-0.8-1.5
			c-0.4-0.4-1-0.6-1.6-0.6C157.1,162.6,156.6,162.8,156.2,163.2z"/>
		<path class="st14" d="M168.7,167.9v1.1h-6.2v-0.9l4.4-5.4h-4.3v-1.1h6v0.9l-4.4,5.4H168.7z"/>
		<path class="st14" d="M181.3,158.6V169H180v-1.2c-0.3,0.4-0.7,0.7-1.1,0.9c-0.5,0.2-1,0.3-1.5,0.3c-0.7,0-1.4-0.2-1.9-0.5
			c-0.6-0.3-1-0.8-1.3-1.3c-0.3-0.6-0.5-1.2-0.5-2s0.2-1.4,0.5-2c0.3-0.6,0.8-1,1.3-1.3c0.6-0.3,1.2-0.5,1.9-0.5
			c0.5,0,1,0.1,1.5,0.3c0.4,0.2,0.8,0.5,1.1,0.9v-4.1H181.3z M178.8,167.5c0.4-0.2,0.7-0.5,0.9-0.9c0.2-0.4,0.3-0.9,0.3-1.4
			s-0.1-1-0.3-1.4c-0.2-0.4-0.5-0.7-0.9-0.9c-0.4-0.2-0.8-0.3-1.3-0.3c-0.5,0-0.9,0.1-1.3,0.3c-0.4,0.2-0.7,0.5-0.9,0.9
			c-0.2,0.4-0.3,0.9-0.3,1.4s0.1,1,0.3,1.4c0.2,0.4,0.5,0.7,0.9,0.9s0.8,0.3,1.3,0.3C177.9,167.9,178.4,167.8,178.8,167.5z"/>
		<path class="st14" d="M190.5,165.7h-6c0.1,0.7,0.4,1.2,0.9,1.6c0.5,0.4,1.1,0.6,1.8,0.6c0.9,0,1.6-0.3,2.1-0.9l0.7,0.9
			c-0.3,0.4-0.8,0.7-1.3,0.9c-0.5,0.2-1.1,0.3-1.7,0.3c-0.8,0-1.5-0.2-2.1-0.5c-0.6-0.3-1.1-0.8-1.4-1.4s-0.5-1.2-0.5-2
			c0-0.7,0.2-1.4,0.5-1.9c0.3-0.6,0.8-1,1.3-1.4c0.6-0.3,1.2-0.5,1.9-0.5c0.7,0,1.3,0.2,1.9,0.5c0.6,0.3,1,0.8,1.3,1.4
			s0.5,1.2,0.5,2C190.6,165.4,190.5,165.5,190.5,165.7z M185.3,163.2c-0.4,0.4-0.7,0.9-0.8,1.5h4.8c-0.1-0.6-0.3-1.1-0.8-1.5
			c-0.4-0.4-1-0.6-1.6-0.6C186.2,162.6,185.7,162.8,185.3,163.2z"/>
		<path class="st14" d="M192.8,168.8c-0.6-0.2-1-0.4-1.3-0.6l0.6-1.1c0.3,0.2,0.7,0.4,1.2,0.6s0.9,0.2,1.4,0.2c1.2,0,1.8-0.3,1.8-1
			c0-0.2-0.1-0.4-0.2-0.5c-0.2-0.1-0.4-0.2-0.6-0.3c-0.2-0.1-0.6-0.1-1-0.2c-0.6-0.1-1.1-0.2-1.5-0.3c-0.4-0.1-0.7-0.3-1-0.6
			c-0.3-0.3-0.4-0.7-0.4-1.2c0-0.7,0.3-1.2,0.8-1.6c0.6-0.4,1.3-0.6,2.3-0.6c0.5,0,1,0.1,1.5,0.2c0.5,0.1,0.9,0.3,1.2,0.5l-0.6,1.1
			c-0.6-0.4-1.3-0.6-2.1-0.6c-0.6,0-1,0.1-1.3,0.3c-0.3,0.2-0.4,0.4-0.4,0.7c0,0.2,0.1,0.4,0.3,0.6s0.4,0.2,0.6,0.3
			c0.2,0.1,0.6,0.1,1,0.2c0.6,0.1,1.1,0.2,1.4,0.3c0.4,0.1,0.7,0.3,0.9,0.6c0.3,0.3,0.4,0.7,0.4,1.2c0,0.7-0.3,1.2-0.9,1.6
			c-0.6,0.4-1.4,0.6-2.3,0.6C193.9,169,193.4,169,192.8,168.8z"/>
		<path class="st14" d="M203.6,168.8c-0.6-0.2-1-0.4-1.3-0.6l0.6-1.1c0.3,0.2,0.7,0.4,1.2,0.6s0.9,0.2,1.4,0.2c1.2,0,1.8-0.3,1.8-1
			c0-0.2-0.1-0.4-0.2-0.5c-0.2-0.1-0.4-0.2-0.6-0.3c-0.2-0.1-0.6-0.1-1-0.2c-0.6-0.1-1.1-0.2-1.5-0.3c-0.4-0.1-0.7-0.3-1-0.6
			c-0.3-0.3-0.4-0.7-0.4-1.2c0-0.7,0.3-1.2,0.8-1.6c0.6-0.4,1.3-0.6,2.3-0.6c0.5,0,1,0.1,1.5,0.2c0.5,0.1,0.9,0.3,1.2,0.5l-0.6,1.1
			c-0.6-0.4-1.3-0.6-2.1-0.6c-0.6,0-1,0.1-1.3,0.3c-0.3,0.2-0.4,0.4-0.4,0.7c0,0.2,0.1,0.4,0.3,0.6s0.4,0.2,0.6,0.3
			c0.2,0.1,0.6,0.1,1,0.2c0.6,0.1,1.1,0.2,1.4,0.3c0.4,0.1,0.7,0.3,0.9,0.6c0.3,0.3,0.4,0.7,0.4,1.2c0,0.7-0.3,1.2-0.9,1.6
			c-0.6,0.4-1.4,0.6-2.3,0.6C204.7,169,204.1,169,203.6,168.8z"/>
		<path class="st14" d="M211.4,168.6c-0.6-0.3-1-0.8-1.4-1.4c-0.3-0.6-0.5-1.2-0.5-2s0.2-1.4,0.5-2c0.3-0.6,0.8-1,1.4-1.3
			c0.6-0.3,1.3-0.5,2-0.5s1.4,0.2,2,0.5c0.6,0.3,1,0.8,1.4,1.3c0.3,0.6,0.5,1.2,0.5,2s-0.2,1.4-0.5,2c-0.3,0.6-0.8,1-1.4,1.4
			c-0.6,0.3-1.2,0.5-2,0.5S212,168.9,211.4,168.6z M214.7,167.5c0.4-0.2,0.7-0.5,0.9-0.9c0.2-0.4,0.3-0.9,0.3-1.4s-0.1-1-0.3-1.4
			c-0.2-0.4-0.5-0.7-0.9-0.9c-0.4-0.2-0.8-0.3-1.3-0.3c-0.5,0-0.9,0.1-1.3,0.3c-0.4,0.2-0.7,0.5-0.9,0.9c-0.2,0.4-0.3,0.9-0.3,1.4
			s0.1,1,0.3,1.4c0.2,0.4,0.5,0.7,0.9,0.9s0.8,0.3,1.3,0.3C213.9,167.9,214.3,167.8,214.7,167.5z"/>
		<path class="st14" d="M219.1,158.6h1.3V169h-1.3V158.6z"/>
		<path class="st14" d="M230,158.6V169h-1.3v-1.2c-0.3,0.4-0.7,0.7-1.1,0.9c-0.5,0.2-1,0.3-1.5,0.3c-0.7,0-1.4-0.2-1.9-0.5
			c-0.6-0.3-1-0.8-1.3-1.3c-0.3-0.6-0.5-1.2-0.5-2s0.2-1.4,0.5-2c0.3-0.6,0.8-1,1.3-1.3c0.6-0.3,1.2-0.5,1.9-0.5
			c0.5,0,1,0.1,1.5,0.3c0.4,0.2,0.8,0.5,1.1,0.9v-4.1H230z M227.5,167.5c0.4-0.2,0.7-0.5,0.9-0.9c0.2-0.4,0.3-0.9,0.3-1.4
			s-0.1-1-0.3-1.4c-0.2-0.4-0.5-0.7-0.9-0.9c-0.4-0.2-0.8-0.3-1.3-0.3c-0.5,0-0.9,0.1-1.3,0.3c-0.4,0.2-0.7,0.5-0.9,0.9
			c-0.2,0.4-0.3,0.9-0.3,1.4s0.1,1,0.3,1.4c0.2,0.4,0.5,0.7,0.9,0.9s0.8,0.3,1.3,0.3C226.7,167.9,227.1,167.8,227.5,167.5z"/>
		<path class="st14" d="M239.2,165.7h-6c0.1,0.7,0.4,1.2,0.9,1.6c0.5,0.4,1.1,0.6,1.8,0.6c0.9,0,1.6-0.3,2.1-0.9l0.7,0.9
			c-0.3,0.4-0.8,0.7-1.3,0.9c-0.5,0.2-1.1,0.3-1.7,0.3c-0.8,0-1.5-0.2-2.1-0.5c-0.6-0.3-1.1-0.8-1.4-1.4s-0.5-1.2-0.5-2
			c0-0.7,0.2-1.4,0.5-1.9c0.3-0.6,0.8-1,1.3-1.4c0.6-0.3,1.2-0.5,1.9-0.5c0.7,0,1.3,0.2,1.9,0.5c0.6,0.3,1,0.8,1.3,1.4
			s0.5,1.2,0.5,2C239.3,165.4,239.3,165.5,239.2,165.7z M234,163.2c-0.4,0.4-0.7,0.9-0.8,1.5h4.8c-0.1-0.6-0.3-1.1-0.8-1.5
			c-0.4-0.4-1-0.6-1.6-0.6C234.9,162.6,234.4,162.8,234,163.2z"/>
		<path class="st14" d="M241.5,168.8c-0.6-0.2-1-0.4-1.3-0.6l0.6-1.1c0.3,0.2,0.7,0.4,1.2,0.6s0.9,0.2,1.4,0.2c1.2,0,1.8-0.3,1.8-1
			c0-0.2-0.1-0.4-0.2-0.5c-0.2-0.1-0.4-0.2-0.6-0.3c-0.2-0.1-0.6-0.1-1-0.2c-0.6-0.1-1.1-0.2-1.5-0.3c-0.4-0.1-0.7-0.3-1-0.6
			c-0.3-0.3-0.4-0.7-0.4-1.2c0-0.7,0.3-1.2,0.8-1.6c0.6-0.4,1.3-0.6,2.3-0.6c0.5,0,1,0.1,1.5,0.2c0.5,0.1,0.9,0.3,1.2,0.5l-0.6,1.1
			c-0.6-0.4-1.3-0.6-2.1-0.6c-0.6,0-1,0.1-1.3,0.3c-0.3,0.2-0.4,0.4-0.4,0.7c0,0.2,0.1,0.4,0.3,0.6s0.4,0.2,0.6,0.3
			c0.2,0.1,0.6,0.1,1,0.2c0.6,0.1,1.1,0.2,1.4,0.3c0.4,0.1,0.7,0.3,0.9,0.6c0.3,0.3,0.4,0.7,0.4,1.2c0,0.7-0.3,1.2-0.9,1.6
			c-0.6,0.4-1.4,0.6-2.3,0.6C242.6,169,242.1,169,241.5,168.8z"/>
		<path class="st14" d="M258.9,158.6V169h-1.3v-1.2c-0.3,0.4-0.7,0.7-1.1,0.9c-0.5,0.2-1,0.3-1.5,0.3c-0.7,0-1.4-0.2-1.9-0.5
			c-0.6-0.3-1-0.8-1.3-1.3c-0.3-0.6-0.5-1.2-0.5-2s0.2-1.4,0.5-2c0.3-0.6,0.8-1,1.3-1.3c0.6-0.3,1.2-0.5,1.9-0.5
			c0.5,0,1,0.1,1.5,0.3c0.4,0.2,0.8,0.5,1.1,0.9v-4.1H258.9z M256.4,167.5c0.4-0.2,0.7-0.5,0.9-0.9c0.2-0.4,0.3-0.9,0.3-1.4
			s-0.1-1-0.3-1.4c-0.2-0.4-0.5-0.7-0.9-0.9c-0.4-0.2-0.8-0.3-1.3-0.3c-0.5,0-0.9,0.1-1.3,0.3c-0.4,0.2-0.7,0.5-0.9,0.9
			c-0.2,0.4-0.3,0.9-0.3,1.4s0.1,1,0.3,1.4c0.2,0.4,0.5,0.7,0.9,0.9s0.8,0.3,1.3,0.3C255.5,167.9,256,167.8,256.4,167.5z"/>
		<path class="st14" d="M262.4,158.8c0.2,0.2,0.3,0.4,0.3,0.7c0,0.1,0,0.3,0,0.4c0,0.1-0.1,0.3-0.2,0.6l-0.7,2h-0.9l0.5-2.1
			c-0.2-0.1-0.3-0.2-0.4-0.3s-0.2-0.3-0.2-0.5c0-0.3,0.1-0.5,0.3-0.7c0.2-0.2,0.4-0.3,0.7-0.3C262,158.5,262.3,158.6,262.4,158.8z"
			/>
		<path class="st14" d="M270.9,165.7h-6c0.1,0.7,0.4,1.2,0.9,1.6c0.5,0.4,1.1,0.6,1.8,0.6c0.9,0,1.6-0.3,2.1-0.9l0.7,0.9
			c-0.3,0.4-0.8,0.7-1.3,0.9c-0.5,0.2-1.1,0.3-1.7,0.3c-0.8,0-1.5-0.2-2.1-0.5c-0.6-0.3-1.1-0.8-1.4-1.4s-0.5-1.2-0.5-2
			c0-0.7,0.2-1.4,0.5-1.9c0.3-0.6,0.8-1,1.3-1.4c0.6-0.3,1.2-0.5,1.9-0.5c0.7,0,1.3,0.2,1.9,0.5c0.6,0.3,1,0.8,1.3,1.4
			s0.5,1.2,0.5,2C271,165.4,270.9,165.5,270.9,165.7z M265.7,163.2c-0.4,0.4-0.7,0.9-0.8,1.5h4.8c-0.1-0.6-0.3-1.1-0.8-1.5
			c-0.4-0.4-1-0.6-1.6-0.6C266.6,162.6,266.1,162.8,265.7,163.2z M268.1,158.6h1.7l-2.4,1.8h-1.3L268.1,158.6z"/>
		<path class="st14" d="M277,168.5c-0.2,0.2-0.4,0.3-0.7,0.4c-0.3,0.1-0.6,0.1-0.9,0.1c-0.7,0-1.3-0.2-1.7-0.6
			c-0.4-0.4-0.6-1-0.6-1.7v-4.1h-1.3v-1.1h1.3v-1.6h1.3v1.6h2.1v1.1h-2.1v4c0,0.4,0.1,0.7,0.3,0.9c0.2,0.2,0.5,0.3,0.9,0.3
			c0.4,0,0.8-0.1,1.1-0.4L277,168.5z"/>
		<path class="st14" d="M285,165.7h-6c0.1,0.7,0.4,1.2,0.9,1.6c0.5,0.4,1.1,0.6,1.8,0.6c0.9,0,1.6-0.3,2.1-0.9l0.7,0.9
			c-0.3,0.4-0.8,0.7-1.3,0.9c-0.5,0.2-1.1,0.3-1.7,0.3c-0.8,0-1.5-0.2-2.1-0.5c-0.6-0.3-1.1-0.8-1.4-1.4s-0.5-1.2-0.5-2
			c0-0.7,0.2-1.4,0.5-1.9c0.3-0.6,0.8-1,1.3-1.4c0.6-0.3,1.2-0.5,1.9-0.5c0.7,0,1.3,0.2,1.9,0.5c0.6,0.3,1,0.8,1.3,1.4
			s0.5,1.2,0.5,2C285.1,165.4,285.1,165.5,285,165.7z M279.8,163.2c-0.4,0.4-0.7,0.9-0.8,1.5h4.8c-0.1-0.6-0.3-1.1-0.8-1.5
			c-0.4-0.4-1-0.6-1.6-0.6C280.8,162.6,280.2,162.8,279.8,163.2z M282.2,158.6h1.7l-2.4,1.8h-1.3L282.2,158.6z"/>
		<path class="st14" d="M297.7,158.6V169h-1.3v-1.2c-0.3,0.4-0.7,0.7-1.1,0.9c-0.5,0.2-1,0.3-1.5,0.3c-0.7,0-1.4-0.2-1.9-0.5
			c-0.6-0.3-1-0.8-1.3-1.3c-0.3-0.6-0.5-1.2-0.5-2s0.2-1.4,0.5-2c0.3-0.6,0.8-1,1.3-1.3c0.6-0.3,1.2-0.5,1.9-0.5
			c0.5,0,1,0.1,1.5,0.3c0.4,0.2,0.8,0.5,1.1,0.9v-4.1H297.7z M295.1,167.5c0.4-0.2,0.7-0.5,0.9-0.9c0.2-0.4,0.3-0.9,0.3-1.4
			s-0.1-1-0.3-1.4c-0.2-0.4-0.5-0.7-0.9-0.9c-0.4-0.2-0.8-0.3-1.3-0.3c-0.5,0-0.9,0.1-1.3,0.3c-0.4,0.2-0.7,0.5-0.9,0.9
			c-0.2,0.4-0.3,0.9-0.3,1.4s0.1,1,0.3,1.4c0.2,0.4,0.5,0.7,0.9,0.9s0.8,0.3,1.3,0.3C294.3,167.9,294.8,167.8,295.1,167.5z"/>
		<path class="st14" d="M306.9,165.7h-6c0.1,0.7,0.4,1.2,0.9,1.6c0.5,0.4,1.1,0.6,1.8,0.6c0.9,0,1.6-0.3,2.1-0.9l0.7,0.9
			c-0.3,0.4-0.8,0.7-1.3,0.9c-0.5,0.2-1.1,0.3-1.7,0.3c-0.8,0-1.5-0.2-2.1-0.5c-0.6-0.3-1.1-0.8-1.4-1.4s-0.5-1.2-0.5-2
			c0-0.7,0.2-1.4,0.5-1.9c0.3-0.6,0.8-1,1.3-1.4c0.6-0.3,1.2-0.5,1.9-0.5c0.7,0,1.3,0.2,1.9,0.5c0.6,0.3,1,0.8,1.3,1.4
			s0.5,1.2,0.5,2C307,165.4,306.9,165.5,306.9,165.7z M300.7,158.6h1.7l1.9,1.8h-1.3L300.7,158.6z M301.7,163.2
			c-0.4,0.4-0.7,0.9-0.8,1.5h4.8c-0.1-0.6-0.3-1.1-0.8-1.5c-0.4-0.4-1-0.6-1.6-0.6C302.6,162.6,302.1,162.8,301.7,163.2z"/>
		<path class="st14" d="M309.2,168.8c-0.6-0.2-1-0.4-1.3-0.6l0.6-1.1c0.3,0.2,0.7,0.4,1.2,0.6s0.9,0.2,1.4,0.2c1.2,0,1.8-0.3,1.8-1
			c0-0.2-0.1-0.4-0.2-0.5c-0.2-0.1-0.4-0.2-0.6-0.3c-0.2-0.1-0.6-0.1-1-0.2c-0.6-0.1-1.1-0.2-1.5-0.3c-0.4-0.1-0.7-0.3-1-0.6
			c-0.3-0.3-0.4-0.7-0.4-1.2c0-0.7,0.3-1.2,0.8-1.6c0.6-0.4,1.3-0.6,2.3-0.6c0.5,0,1,0.1,1.5,0.2c0.5,0.1,0.9,0.3,1.2,0.5l-0.6,1.1
			c-0.6-0.4-1.3-0.6-2.1-0.6c-0.6,0-1,0.1-1.3,0.3c-0.3,0.2-0.4,0.4-0.4,0.7c0,0.2,0.1,0.4,0.3,0.6s0.4,0.2,0.6,0.3
			c0.2,0.1,0.6,0.1,1,0.2c0.6,0.1,1.1,0.2,1.4,0.3c0.4,0.1,0.7,0.3,0.9,0.6c0.3,0.3,0.4,0.7,0.4,1.2c0,0.7-0.3,1.2-0.9,1.6
			c-0.6,0.4-1.4,0.6-2.3,0.6C310.3,169,309.8,169,309.2,168.8z"/>
		<path class="st14" d="M114.9,175.4h1.3v10.4h-1.3V175.4z"/>
		<path class="st14" d="M125.5,182.5h-6c0.1,0.7,0.4,1.2,0.9,1.6c0.5,0.4,1.1,0.6,1.8,0.6c0.9,0,1.6-0.3,2.1-0.9l0.7,0.9
			c-0.3,0.4-0.8,0.7-1.3,0.9c-0.5,0.2-1.1,0.3-1.7,0.3c-0.8,0-1.5-0.2-2.1-0.5c-0.6-0.3-1.1-0.8-1.4-1.4s-0.5-1.2-0.5-2
			c0-0.7,0.2-1.4,0.5-1.9c0.3-0.6,0.8-1,1.3-1.4c0.6-0.3,1.2-0.5,1.9-0.5c0.7,0,1.3,0.2,1.9,0.5c0.6,0.3,1,0.8,1.3,1.4
			s0.5,1.2,0.5,2C125.5,182.2,125.5,182.3,125.5,182.5z M120.3,180c-0.4,0.4-0.7,0.9-0.8,1.5h4.8c-0.1-0.6-0.3-1.1-0.8-1.5
			c-0.4-0.4-1-0.6-1.6-0.6C121.2,179.4,120.7,179.6,120.3,180z"/>
		<path class="st14" d="M137.5,184.5v1.2h-7v-1l4-3.8c0.5-0.5,0.8-0.9,1-1.2c0.2-0.3,0.3-0.7,0.3-1c0-0.5-0.2-0.9-0.5-1.2
			s-0.9-0.4-1.5-0.4c-1.1,0-1.9,0.4-2.5,1.1l-1-0.8c0.4-0.5,0.9-0.8,1.5-1.1c0.6-0.3,1.3-0.4,2.1-0.4c1,0,1.8,0.2,2.5,0.7
			c0.6,0.5,0.9,1.2,0.9,2c0,0.5-0.1,1-0.3,1.5c-0.2,0.5-0.6,1-1.3,1.6l-3,2.9H137.5z"/>
		<path class="st14" d="M146.9,183.4H145v2.4h-1.4v-2.4h-5.4v-1l5-6.4h1.5l-4.8,6.2h3.8V180h1.3v2.1h1.9V183.4z"/>
		<path class="st14" d="M151.6,174h1.2l-4.6,13.2H147L151.6,174z"/>
		<path class="st14" d="M154.7,185.3c-0.6-0.4-1.1-1-1.4-1.7c-0.3-0.8-0.5-1.7-0.5-2.7s0.2-1.9,0.5-2.7c0.3-0.8,0.8-1.3,1.4-1.7
			c0.6-0.4,1.3-0.6,2.1-0.6c0.8,0,1.4,0.2,2.1,0.6c0.6,0.4,1.1,1,1.4,1.7c0.3,0.8,0.5,1.7,0.5,2.7s-0.2,1.9-0.5,2.7
			c-0.3,0.8-0.8,1.3-1.4,1.7c-0.6,0.4-1.3,0.6-2.1,0.6C156,185.9,155.3,185.7,154.7,185.3z M158.6,183.7c0.5-0.6,0.7-1.6,0.7-2.8
			s-0.2-2.2-0.7-2.8c-0.5-0.6-1.1-1-1.9-1c-0.8,0-1.4,0.3-1.9,1c-0.5,0.6-0.7,1.6-0.7,2.8s0.2,2.2,0.7,2.8c0.5,0.6,1.1,1,1.9,1
			C157.5,184.6,158.1,184.3,158.6,183.7z"/>
		<path class="st14" d="M168,180.2c0.5,0.2,0.9,0.6,1.2,1c0.3,0.5,0.4,1,0.4,1.6c0,0.6-0.2,1.2-0.5,1.6c-0.3,0.5-0.7,0.8-1.2,1.1
			s-1.1,0.4-1.8,0.4c-1.3,0-2.3-0.4-3-1.3c-0.7-0.8-1.1-2.1-1.1-3.6c0-1.1,0.2-2,0.6-2.8s0.9-1.4,1.6-1.8s1.5-0.6,2.4-0.6
			c0.5,0,0.9,0,1.3,0.1c0.4,0.1,0.8,0.2,1.1,0.4l-0.5,1.1c-0.5-0.3-1.1-0.5-1.9-0.5c-1,0-1.8,0.3-2.4,0.9c-0.6,0.6-0.9,1.5-0.9,2.8
			c0,0.1,0,0.3,0,0.4c0.3-0.4,0.7-0.7,1.2-1c0.5-0.2,1-0.3,1.7-0.3C166.9,179.8,167.5,179.9,168,180.2z M167.7,184.2
			c0.4-0.3,0.6-0.8,0.6-1.4s-0.2-1-0.6-1.4c-0.4-0.3-1-0.5-1.6-0.5c-0.4,0-0.8,0.1-1.2,0.3s-0.6,0.4-0.8,0.7c-0.2,0.3-0.3,0.6-0.3,1
			c0,0.3,0.1,0.7,0.3,0.9c0.2,0.3,0.4,0.5,0.8,0.7c0.4,0.2,0.8,0.3,1.3,0.3C166.8,184.7,167.3,184.6,167.7,184.2z"/>
		<path class="st14" d="M176.3,185.4c-0.6-0.3-1.1-0.8-1.4-1.4c-0.3-0.6-0.5-1.2-0.5-2s0.2-1.4,0.5-2c0.3-0.6,0.8-1,1.4-1.3
			c0.6-0.3,1.3-0.5,2-0.5c0.7,0,1.3,0.1,1.8,0.4c0.5,0.3,0.9,0.7,1.2,1.2l-1,0.7c-0.2-0.4-0.5-0.6-0.9-0.8c-0.3-0.2-0.7-0.3-1.1-0.3
			c-0.5,0-0.9,0.1-1.3,0.3c-0.4,0.2-0.7,0.5-0.9,0.9c-0.2,0.4-0.3,0.9-0.3,1.4c0,0.5,0.1,1,0.3,1.4c0.2,0.4,0.5,0.7,0.9,0.9
			c0.4,0.2,0.8,0.3,1.3,0.3c0.4,0,0.8-0.1,1.1-0.3c0.3-0.2,0.6-0.4,0.9-0.8l1,0.6c-0.3,0.5-0.7,0.9-1.2,1.2
			c-0.5,0.3-1.1,0.4-1.8,0.4C177.5,185.8,176.9,185.7,176.3,185.4z"/>
		<path class="st14" d="M189.2,179.1c0.6,0.5,0.8,1.3,0.8,2.4v4.3h-1.3v-4.1c0-0.7-0.2-1.3-0.5-1.6c-0.3-0.4-0.8-0.5-1.5-0.5
			c-0.7,0-1.3,0.2-1.7,0.6s-0.6,1-0.6,1.8v3.8H183v-10.4h1.3v4c0.3-0.4,0.6-0.6,1.1-0.8c0.5-0.2,1-0.3,1.5-0.3
			C187.9,178.3,188.6,178.5,189.2,179.1z"/>
		<path class="st14" d="M199.2,182.5h-6c0.1,0.7,0.4,1.2,0.9,1.6c0.5,0.4,1.1,0.6,1.8,0.6c0.9,0,1.6-0.3,2.1-0.9l0.7,0.9
			c-0.3,0.4-0.8,0.7-1.3,0.9c-0.5,0.2-1.1,0.3-1.7,0.3c-0.8,0-1.5-0.2-2.1-0.5c-0.6-0.3-1.1-0.8-1.4-1.4s-0.5-1.2-0.5-2
			c0-0.7,0.2-1.4,0.5-1.9c0.3-0.6,0.8-1,1.3-1.4c0.6-0.3,1.2-0.5,1.9-0.5c0.7,0,1.3,0.2,1.9,0.5c0.6,0.3,1,0.8,1.3,1.4
			s0.5,1.2,0.5,2C199.3,182.2,199.2,182.3,199.2,182.5z M194,180c-0.4,0.4-0.7,0.9-0.8,1.5h4.8c-0.1-0.6-0.3-1.1-0.8-1.5
			c-0.4-0.4-1-0.6-1.6-0.6C194.9,179.4,194.4,179.6,194,180z"/>
		<path class="st14" d="M206.5,184.7v1.1h-6.2v-0.9l4.4-5.4h-4.3v-1.1h6v0.9l-4.4,5.4H206.5z"/>
		<path class="st14" d="M218.5,185.8l-2.9-4l-2.9,4H211l3.7-5l-3.5-4.8h1.6l2.7,3.8l2.7-3.8h1.5l-3.5,4.7l3.7,5.1H218.5z"/>
		<path class="st14" d="M227.6,185.8l-2.9-4l-2.9,4h-1.6l3.7-5l-3.5-4.8h1.6l2.7,3.8l2.7-3.8h1.5l-3.5,4.7l3.7,5.1H227.6z"/>
		<path class="st14" d="M236.8,185.8l-2.9-4l-2.9,4h-1.6l3.7-5l-3.5-4.8h1.6l2.7,3.8l2.7-3.8h1.5l-3.5,4.7l3.7,5.1H236.8z"/>
		<path class="st14" d="M239.8,185.6c-0.2-0.2-0.3-0.4-0.3-0.6s0.1-0.5,0.3-0.6c0.2-0.2,0.4-0.3,0.7-0.3c0.3,0,0.5,0.1,0.6,0.3
			c0.2,0.2,0.3,0.4,0.3,0.6s-0.1,0.5-0.3,0.6c-0.2,0.2-0.4,0.3-0.6,0.3C240.2,185.8,240,185.8,239.8,185.6z M239.7,176h1.6l-0.3,6.7
			h-1.1L239.7,176z"/>
	</g>
</g>
</svg>
