<?xml version="1.0" encoding="utf-8"?>
<!-- Generator: Adobe Illustrator 23.0.3, SVG Export Plug-In . SVG Version: 6.00 Build 0)  -->
<svg version="1.1" xmlns="http://www.w3.org/2000/svg" xmlns:xlink="http://www.w3.org/1999/xlink" x="0px" y="0px"
	 viewBox="0 0 840.5 702" style="enable-background:new 0 0 840.5 702;" xml:space="preserve">
<style type="text/css">
	.st0{fill:#F2F2F2;}
	.st1{fill:#FF6584;}
	.st2{fill:#3F3D56;}
	.st3{opacity:0.1;enable-background:new    ;}
	.st4{fill:#D0CDE1;}
	.st5{fill:#3195FF;}
	.st6{fill:#2F2E41;}
	.st7{fill:#A0616A;}
	.st8{display:none;fill:#F2F2F2;}
	.st9{display:none;fill:#6ED397;}
	.st10{display:none;}
	.st11{display:inline;}
	.st12{display:inline;enable-background:new    ;}
	.st13{fill:#000333;}
	.st14{enable-background:new    ;}
	.st15{fill:#4C4C4C;}
	.st16{fill:#F9F9FD;}
</style>
<g id="f8d7d8f4-b875-4767-a598-99b9608f6632">
	<title>dream_world</title>
	<path class="st0" d="M639.7,598.4H207.9C93.5,573,0,485.7,0,355.2c0-19.7,2.1-39.4,6.4-58.7l348-56.1l268.5-43.2
		c19.3,12.6,37.6,26.6,54.9,41.9l-257,98l-121.2,46.2l136.1-33.8l282.6-70.2c17.2,19.2,32.8,39.7,46.7,61.4l-85.5,63.9l96.5-45.7
		c0.4,0.7,0.8,1.4,1.2,2.1C837.8,466.7,761.5,598.4,639.7,598.4z"/>
	<path class="st0" d="M570.7,167.5c-65.4,13.5-145.7,30.6-228.3,48.3c-119.5,25.6-243.6,52.7-334,72.5c2-7.8,4.3-15.5,7-23
		C86.1,192.1,178.4,143.2,278.9,126h0c26.9-4.6,54.1-6.9,81.4-6.9C433.2,119,505.1,135.6,570.7,167.5z"/>
	<circle class="st1" cx="115.5" cy="120.6" r="69.9"/>
	<path class="st2" d="M638.8,598.4c-43,41.2-187.1,43-416.9,2.8c-4.7-0.8-9.4-1.7-14-2.8C93.5,573,0,485.7,0,355.2
		c0-19.7,2.1-39.4,6.4-58.7c0.6-2.7,1.2-5.5,1.9-8.2c2-7.8,4.3-15.5,7-23C47.6,174,127.9,109.3,221.9,109.3c23.3,0,41.7,6.2,57,16.7
		h0c27.9,19.2,45.3,52.8,63.4,89.8c4,8.1,7.9,16.3,12.1,24.6c17,34.2,36.5,69.1,66.4,96.6c4.8,4.4,9.7,8.5,14.9,12.4
		c2.6,2,5.3,3.9,8.1,5.7C622.6,474.8,682.3,556.7,638.8,598.4z"/>
	<ellipse class="st3" cx="494.7" cy="557.9" rx="74.5" ry="12.6"/>
	<ellipse class="st3" cx="94.4" cy="418.1" rx="74.5" ry="12.6"/>
	<path class="st4" d="M104.3,379.7c-12.3,16.1-10.9,37.8-10.9,37.8s21.4-4.3,33.7-20.4s10.9-37.8,10.9-37.8S116.6,363.6,104.3,379.7
		z"/>
	<path class="st5" d="M112.4,383.3c-2.4,20.1-18.5,34.7-18.5,34.7s-12.3-18-9.9-38.1s18.5-34.7,18.5-34.7S114.8,363.2,112.4,383.3z"
		/>
	<ellipse class="st3" cx="303.3" cy="500.3" rx="63.7" ry="10.8"/>
	<path class="st4" d="M311.8,467.5c-10.5,13.8-9.3,32.4-9.3,32.4s18.3-3.7,28.8-17.5s9.3-32.4,9.3-32.4S322.3,453.7,311.8,467.5z"/>
	<path class="st5" d="M318.7,470.6c-2,17.2-15.9,29.7-15.9,29.7s-10.5-15.4-8.5-32.6s15.9-29.7,15.9-29.7S320.7,453.4,318.7,470.6z"
		/>
	<path class="st5" d="M591.6,463.7c0,69.8-41.5,94.2-92.6,94.2c-1.2,0-2.4,0-3.5,0c-2.4-0.1-4.7-0.2-7-0.3
		c-46.2-3.2-82.1-28.9-82.1-93.8c0-67.2,85.8-152,92.2-158.3c0,0,0,0,0,0c0.2-0.2,0.4-0.4,0.4-0.4S591.6,393.9,591.6,463.7z"/>
	<path class="st2" d="M495.6,547.2l33.9-47.4l-34,52.6l-0.1,5.4c-2.4-0.1-4.7-0.2-7-0.3l3.6-69.8l0-0.5l0.1-0.1l0.3-6.6l-34.1-52.7
		l34.2,47.7l0.1,1.4l2.7-52.8l-29.2-54.4l29.5,45.2l2.8-109.4l0-0.4l0,0.4l-0.4,86.3l29-34.2l-29.1,41.6l-0.7,47.2l27.1-45.4
		l-27.2,52.3l-0.4,26.3l39.3-63.1l-39.5,72.3L495.6,547.2z"/>
	<ellipse class="st3" cx="196.3" cy="329.9" rx="97.2" ry="16.4"/>
	<path class="st5" d="M322.8,206.9c0,91.1-54.1,122.9-120.9,123c-1.6,0-3.1,0-4.6,0c-3.1-0.1-6.2-0.2-9.2-0.4
		c-60.3-4.2-107.2-37.7-107.2-122.4c0-87.7,112-198.4,120.4-206.6c0,0,0,0,0,0c0.3-0.3,0.5-0.5,0.5-0.5S322.8,115.8,322.8,206.9z"/>
	<path class="st2" d="M197.5,316l44.2-61.8l-44.3,68.6l-0.1,7.1c-3.1-0.1-6.2-0.2-9.2-0.4l4.7-91.1l0-0.7l0.1-0.1l0.4-8.6
		l-44.5-68.8l44.6,62.3l0.1,1.8l3.6-68.9L159,84.3l38.6,58.9l3.7-142.8l0-0.5l0,0.5l-0.6,112.6l37.9-44.7l-38,54.4l-1,61.7
		l35.4-59.2l-35.5,68.3l-0.5,34.3l51.3-82.4l-51.5,94.4L197.5,316z"/>
	<circle class="st6" cx="711.3" cy="214.4" r="66.9"/>
	<path class="st6" d="M834.8,597c-20.1,56.3-57.9,105-57.9,105h-92.6l12.4-25.5l6.2-12.8l9-18.4l4.4-9.1l11.9-24.5l-17.8,23.8
		l-7.7,10.3l-14.6,19.5L676,681.4c-39.1,8.5-78.7,14.2-118.6,17c-0.2-4.7,0.6-13.9,6.6-26.8c3.2-6.7,7-13.1,11.4-19.1
		c4.1-5.7,8.5-11.1,13.3-16.2c2.6-2.9,5.4-5.8,8.3-8.7c37.4-38.4,91.3-82.3,91.3-82.3l-15.4-61l111.1-18.9
		c5.5-0.9,10.6,2.7,11.6,8.2c0.1,0.3,0.1,0.6,0.1,0.9c0.6,8,2.7,18.4,9.2,23.6C816.3,507.5,854.9,540.7,834.8,597z"/>
	<path class="st2" d="M761.5,649.1c0,0.2,0,0.4-0.1,0.6c-1.6,6-25.7,16.6-64.7,26.7c-6.5,1.7-13.4,3.3-20.7,5
		c-39.1,8.5-78.7,14.2-118.6,17c-20.2,1.5-41.3,2.3-63,2.3c-145.3,0-263.5-37.6-267-51c-0.1-0.2-0.1-0.4-0.1-0.6c0-0.1,0-0.3,0-0.4
		c0-0.1,0-0.2,0.1-0.2c3.9-11.7,121.9,5.6,267,5.6c28.2,0,55.5-0.7,81-1.6c50.7-1.9,94.9-5.1,127.5-6.8c3.2-0.2,6.2-0.3,9.2-0.4
		c29.9-1.4,48-1.2,49.4,3.3c0,0.1,0.1,0.2,0.1,0.2C761.4,648.9,761.5,649,761.5,649.1z"/>
	<path class="st3" d="M761.5,649.1c0,0.2,0,0.4-0.1,0.6c-1.6,6-25.7,16.6-64.7,26.7c-6.5,1.7-13.4,3.3-20.7,5
		c-39.1,8.5-78.7,14.2-118.6,17c-20.2,1.5-41.3,2.3-63,2.3c-145.3,0-263.5-37.6-267-51c-0.1-0.2-0.1-0.4-0.1-0.6c0-0.1,0-0.3,0-0.4
		c0-0.1,0-0.2,0.1-0.2c3.9-11.7,121.9,5.6,267,5.6c28.2,0,55.5-0.7,81-1.6c50.7-1.9,94.9-5.1,127.5-6.8c3.2-0.2,6.2-0.3,9.2-0.4
		c29.9-1.4,48-1.2,49.4,3.3c0,0.1,0.1,0.2,0.1,0.2C761.4,648.9,761.5,649,761.5,649.1z"/>
	<ellipse class="st2" cx="494.3" cy="649.1" rx="267.1" ry="23.3"/>
	<ellipse class="st3" cx="652.5" cy="652.4" rx="45" ry="10"/>
	<ellipse class="st5" cx="652.5" cy="648.4" rx="24" ry="4"/>
	<path class="st7" d="M673.1,604.1c0,0-49.4,38.4-31.7,42.3s46.3-38.6,46.3-38.6L673.1,604.1z"/>
	<circle class="st7" cx="699.3" cy="238.9" r="44"/>
	<path class="st7" d="M699.3,278.3c0,0,15.4,39.4,3.1,46.3s-18.5,7.7-18.5,7.7l-13.1,22.4l-7.7,23.2l61.7,2.3l43.2-68.7
		c0,0-20.8-10.8-31.6-57.1L699.3,278.3z"/>
	<path class="st4" d="M780,312.6c0,0-7.9-5.2-15.1-3.4c-3.6,0.8-7,1.9-10.4,3.4c0,0-40.1,54.8-61.7,56.3c0,0-28.6,7.7-21.6-3.9
		s22.2-35.9,22.2-35.9s-27.6,6.6-27.6,15.9s-5.4,26.2-5.4,26.2s-26.2,26.2,0,57.1s16.2,58.7,16.2,58.7l115.8-20.8L780,312.6z"/>
	<path class="st4" d="M658.1,409.8l-6.9,106.5l6.9,98.8c0,0,28.6,6.2,35.5,0c6.9-6.2-14.7-165.9-14.7-165.9L658.1,409.8z"/>
	<circle class="st6" cx="739" cy="153.5" r="27.7"/>
	<path class="st6" d="M702.1,138.5c0-14.2,10.7-26.1,24.8-27.6c-1-0.1-1.9-0.1-2.9-0.1c-15.3,0-27.7,12.4-27.7,27.7
		s12.4,27.7,27.7,27.7l0,0c1,0,1.9-0.1,2.9-0.1C712.8,164.6,702.1,152.7,702.1,138.5z"/>
	
		<ellipse transform="matrix(0.2568 -0.9665 0.9665 0.2568 316.1872 839.4664)" class="st6" cx="703.9" cy="214.1" rx="27.7" ry="46.2"/>
	<path class="st7" d="M694.8,610.3c0,0-49.4,38.4-31.7,42.3c17.8,3.9,46.3-38.6,46.3-38.6L694.8,610.3z"/>
	<path class="st4" d="M760.7,317.2c0,0,21.6-18.5,31.6,6.9s-5.4,151.3-5.4,151.3l-74.1,149.7c0,0-35.5,1.5-27.8-23.9
		s59.8-145.5,62.9-148.6S760.7,317.2,760.7,317.2z"/>
	<path class="st3" d="M662.7,431.2c0,0,17,36.1,15.7,45.8S662.7,431.2,662.7,431.2z"/>
	<ellipse class="st7" cx="746.4" cy="236.6" rx="3.9" ry="7.7"/>
	<ellipse class="st3" cx="375.5" cy="652.4" rx="45" ry="10"/>
	<circle class="st5" cx="375.5" cy="628.4" r="24"/>
	<ellipse class="st3" cx="503.5" cy="652.4" rx="45" ry="10"/>
	
		<ellipse transform="matrix(0.1602 -0.9871 0.9871 0.1602 -197.4259 1024.6946)" class="st5" cx="503.5" cy="628.4" rx="24" ry="24"/>
	<rect x="372.2" y="613" class="st4" width="6" height="30"/>
	<rect x="495.2" y="613" class="st4" width="6" height="30"/>
	<rect x="504.2" y="613" class="st4" width="6" height="30"/>
</g>
<g id="Calque_2">
	<path class="st8" d="M58.9,450h364c10.5,0,19,8.5,19,19v83c0,10.5-8.5,19-19,19h-364c-10.5,0-19-8.5-19-19v-83
		C39.9,458.5,48.4,450,58.9,450z"/>
	<path class="st9" d="M432.3,524h-372c-8.3,0-15-6.7-15-15v-91c0-8.3,6.7-15,15-15h372c8.3,0,15,6.7,15,15v91
		C447.3,517.3,440.6,524,432.3,524z"/>
	<g class="st10">
		<g id="messages_1_" class="st11">
		</g>
		<g class="st12">
			<path class="st13" d="M88.7,482.9c0.9,0.9,1.4,2.1,1.4,3.6c0,1.1-0.3,2-0.8,2.9c-0.5,0.9-1.3,1.5-2.4,2c-1,0.5-2.3,0.8-3.8,0.8
				c-1.3,0-2.6-0.2-3.8-0.6c-1.2-0.4-2.2-0.9-3-1.6l1.2-2.1c0.6,0.6,1.4,1.1,2.4,1.4s2,0.5,3.1,0.5c1.4,0,2.4-0.3,3.2-0.9
				c0.8-0.6,1.1-1.4,1.1-2.4s-0.4-1.8-1.1-2.4c-0.8-0.6-1.9-0.8-3.4-0.8h-1.5v-1.8l4.6-5.7h-8.7v-2.3h12.2v1.8l-4.8,6
				C86.3,481.4,87.7,482,88.7,482.9z"/>
			<path class="st13" d="M105.3,489.7v2.3H92.1v-1.8l7.5-7.2c0.9-0.9,1.5-1.6,1.8-2.3c0.3-0.6,0.5-1.3,0.5-1.9c0-1-0.3-1.7-1-2.3
				c-0.7-0.5-1.6-0.8-2.9-0.8c-2,0-3.6,0.7-4.7,2l-1.8-1.6c0.7-0.9,1.7-1.6,2.8-2.1c1.2-0.5,2.5-0.7,3.9-0.7c1.9,0,3.5,0.5,4.6,1.4
				c1.1,0.9,1.7,2.2,1.7,3.8c0,1-0.2,1.9-0.6,2.8c-0.4,0.9-1.2,1.9-2.4,3l-5.6,5.4H105.3L105.3,489.7z"/>
			<path class="st13" d="M113.2,473.5V492h-2.6v-16.1h-4.2v-2.3h6.8V473.5z"/>
			<path class="st13" d="M130.2,489.7v2.3H117v-1.8l7.5-7.2c0.9-0.9,1.5-1.6,1.8-2.3c0.3-0.6,0.5-1.3,0.5-1.9c0-1-0.3-1.7-1-2.3
				c-0.7-0.5-1.6-0.8-2.9-0.8c-2,0-3.6,0.7-4.7,2l-1.8-1.6c0.7-0.9,1.7-1.6,2.8-2.1c1.2-0.5,2.5-0.7,3.9-0.7c1.9,0,3.5,0.5,4.6,1.4
				c1.1,0.9,1.7,2.2,1.7,3.8c0,1-0.2,1.9-0.6,2.8c-0.4,0.9-1.2,1.9-2.4,3l-5.6,5.4H130.2L130.2,489.7z"/>
			<path class="st13" d="M143.5,482.9c0.9,0.9,1.4,2.1,1.4,3.6c0,1.1-0.3,2-0.8,2.9c-0.5,0.9-1.3,1.5-2.4,2c-1,0.5-2.3,0.8-3.8,0.8
				c-1.3,0-2.6-0.2-3.8-0.6c-1.2-0.4-2.2-0.9-3-1.6l1.2-2.1c0.6,0.6,1.4,1.1,2.4,1.4s2,0.5,3.1,0.5c1.4,0,2.4-0.3,3.2-0.9
				c0.8-0.6,1.1-1.4,1.1-2.4s-0.4-1.8-1.1-2.4c-0.8-0.6-1.9-0.8-3.4-0.8h-1.5v-1.8l4.6-5.7h-8.9v-2.3h12.4v1.8l-4.8,6
				C141.2,481.4,142.6,482,143.5,482.9z"/>
		</g>
		<g class="st11">
			<g class="st14">
				<path class="st15" d="M77.6,520H84v2h-6.4V520z"/>
				<path class="st15" d="M97.8,525.4v2.1H85.9v-1.6l6.8-6.5c0.8-0.8,1.4-1.5,1.7-2.1c0.3-0.6,0.4-1.2,0.4-1.7c0-0.9-0.3-1.5-0.9-2
					s-1.5-0.7-2.6-0.7c-1.8,0-3.3,0.6-4.3,1.8l-1.6-1.4c0.6-0.8,1.5-1.4,2.6-1.9c1.1-0.4,2.2-0.7,3.5-0.7c1.7,0,3.1,0.4,4.2,1.2
					c1,0.8,1.5,2,1.5,3.4c0,0.9-0.2,1.7-0.6,2.5s-1.1,1.7-2.2,2.7l-5.1,4.9L97.8,525.4L97.8,525.4z"/>
				<path class="st15" d="M103,526.7c-1-0.7-1.8-1.7-2.4-2.9c-0.6-1.3-0.9-2.8-0.9-4.6c0-1.8,0.3-3.3,0.9-4.6s1.4-2.3,2.4-2.9
					c1-0.7,2.2-1,3.5-1s2.5,0.3,3.5,1s1.8,1.7,2.4,2.9c0.6,1.3,0.9,2.8,0.9,4.6c0,1.8-0.3,3.3-0.9,4.6c-0.6,1.3-1.4,2.3-2.4,2.9
					c-1,0.7-2.2,1-3.5,1S104,527.3,103,526.7z M109.7,523.9c0.8-1.1,1.2-2.7,1.2-4.8c0-2.1-0.4-3.7-1.2-4.8
					c-0.8-1.1-1.9-1.6-3.2-1.6c-1.3,0-2.4,0.5-3.2,1.6c-0.8,1.1-1.2,2.7-1.2,4.8s0.4,3.7,1.2,4.8c0.8,1.1,1.9,1.6,3.2,1.6
					S108.9,525,109.7,523.9z"/>
				<path class="st15" d="M116.3,518.5c-0.7-0.8-1.1-1.9-1.1-3.3c0-1.3,0.4-2.4,1.1-3.3c0.7-0.8,1.6-1.3,2.8-1.3
					c1.2,0,2.1,0.4,2.8,1.2c0.7,0.8,1.1,1.9,1.1,3.3c0,1.4-0.4,2.5-1.1,3.3s-1.6,1.2-2.8,1.2C118,519.8,117.1,519.4,116.3,518.5z
					 M120.9,517.6c0.4-0.6,0.6-1.3,0.6-2.3s-0.2-1.8-0.6-2.3c-0.4-0.6-1-0.8-1.7-0.8s-1.3,0.3-1.7,0.9c-0.4,0.6-0.6,1.3-0.6,2.3
					s0.2,1.8,0.6,2.3s1,0.9,1.7,0.9C119.9,518.4,120.4,518.1,120.9,517.6z M129.2,510.8h1.8l-11.4,16.6h-1.8L129.2,510.8z
					 M126.9,526.4c-0.7-0.8-1.1-1.9-1.1-3.3c0-1.4,0.4-2.5,1.1-3.3s1.6-1.2,2.8-1.2c1.2,0,2.1,0.4,2.8,1.3c0.7,0.8,1.1,1.9,1.1,3.3
					c0,1.3-0.4,2.4-1.1,3.3c-0.7,0.8-1.6,1.3-2.8,1.3C128.5,527.6,127.6,527.2,126.9,526.4z M131.4,525.4c0.4-0.6,0.6-1.3,0.6-2.3
					s-0.2-1.8-0.6-2.3c-0.4-0.6-1-0.9-1.7-0.9s-1.3,0.3-1.7,0.8c-0.4,0.6-0.6,1.3-0.6,2.3s0.2,1.8,0.6,2.3c0.4,0.6,1,0.8,1.7,0.8
					C130.4,526.3,130.9,526,131.4,525.4z"/>
				<path class="st15" d="M143.6,527.2c-0.9-0.3-1.7-0.6-2.2-1.1l0.9-1.8c0.6,0.4,1.2,0.7,2,1c0.8,0.2,1.6,0.4,2.4,0.4
					c2,0,3-0.6,3-1.7c0-0.4-0.1-0.7-0.4-0.9c-0.3-0.2-0.6-0.4-1-0.5c-0.4-0.1-1-0.2-1.7-0.3c-1-0.2-1.8-0.3-2.5-0.5
					c-0.6-0.2-1.2-0.6-1.7-1c-0.5-0.5-0.7-1.2-0.7-2.1c0-1.1,0.5-2.1,1.4-2.7c1-0.7,2.2-1,3.8-1c0.8,0,1.7,0.1,2.5,0.3
					c0.8,0.2,1.5,0.5,2.1,0.8l-1,1.8c-1-0.7-2.2-1-3.6-1c-1,0-1.7,0.2-2.2,0.5s-0.8,0.7-0.8,1.3c0,0.4,0.1,0.7,0.4,1
					s0.6,0.4,1.1,0.5c0.4,0.1,1,0.2,1.8,0.4c1,0.2,1.8,0.4,2.5,0.6c0.6,0.2,1.2,0.5,1.6,1s0.7,1.1,0.7,2c0,1.1-0.5,2-1.5,2.7
					s-2.3,1-4,1C145.6,527.6,144.6,527.5,143.6,527.2z"/>
				<path class="st15" d="M166.6,514.9v12.6h-2.2v-1.9c-0.5,0.6-1.1,1.2-1.8,1.5c-0.8,0.4-1.6,0.5-2.5,0.5c-1.7,0-3-0.5-4-1.4
					c-1-0.9-1.4-2.3-1.4-4.1v-7.2h2.3v7c0,1.2,0.3,2.1,0.9,2.8c0.6,0.6,1.4,0.9,2.5,0.9c1.2,0,2.2-0.4,2.9-1.1s1-1.8,1-3.1v-6.5
					L166.6,514.9L166.6,514.9z"/>
				<path class="st15" d="M174.9,515.3c0.8-0.4,1.7-0.6,2.8-0.6v2.2c-0.1,0-0.3,0-0.5,0c-1.2,0-2.2,0.4-2.9,1.1
					c-0.7,0.7-1.1,1.8-1.1,3.1v6.3h-2.3v-12.6h2.2v2.1C173.5,516.3,174.1,515.7,174.9,515.3z"/>
				<path class="st15" d="M194.2,526.7c-0.3,0.3-0.7,0.5-1.2,0.7s-1,0.2-1.5,0.2c-1.3,0-2.2-0.3-2.9-1c-0.7-0.7-1-1.7-1-2.9v-6.9
					h-2.1v-1.9h2.1v-2.8h2.3v2.8h3.6v1.9h-3.6v6.8c0,0.7,0.2,1.2,0.5,1.6c0.3,0.4,0.8,0.5,1.5,0.5s1.3-0.2,1.8-0.6L194.2,526.7z"/>
				<path class="st15" d="M198.5,526.8c-1-0.6-1.8-1.3-2.3-2.3c-0.6-1-0.8-2.1-0.8-3.3c0-1.2,0.3-2.3,0.8-3.3s1.3-1.7,2.3-2.3
					c1-0.5,2.1-0.8,3.4-0.8s2.4,0.3,3.4,0.8s1.8,1.3,2.3,2.3s0.8,2.1,0.8,3.3c0,1.2-0.3,2.3-0.8,3.3c-0.6,1-1.3,1.7-2.3,2.3
					c-1,0.6-2.1,0.8-3.4,0.8S199.5,527.3,198.5,526.8z M204.1,525.1c0.6-0.4,1.1-0.9,1.5-1.6s0.5-1.4,0.5-2.3c0-0.9-0.2-1.6-0.5-2.3
					c-0.4-0.7-0.9-1.2-1.5-1.6c-0.6-0.4-1.4-0.5-2.2-0.5s-1.5,0.2-2.2,0.5c-0.6,0.4-1.1,0.9-1.5,1.6s-0.6,1.4-0.6,2.3
					c0,0.9,0.2,1.6,0.6,2.3c0.4,0.7,0.9,1.2,1.5,1.6c0.6,0.4,1.4,0.6,2.2,0.6S203.4,525.4,204.1,525.1z"/>
				<path class="st15" d="M223.3,514.9v12.6h-2.2v-1.9c-0.5,0.6-1.1,1.2-1.8,1.5c-0.8,0.4-1.6,0.5-2.5,0.5c-1.7,0-3-0.5-4-1.4
					c-1-0.9-1.4-2.3-1.4-4.1v-7.2h2.3v7c0,1.2,0.3,2.1,0.9,2.8c0.6,0.6,1.4,0.9,2.5,0.9c1.2,0,2.2-0.4,2.9-1.1s1-1.8,1-3.1v-6.5
					L223.3,514.9L223.3,514.9z"/>
				<path class="st15" d="M228.3,527.2c-0.9-0.3-1.7-0.6-2.2-1.1l0.9-1.8c0.6,0.4,1.2,0.7,2,1c0.8,0.2,1.6,0.4,2.4,0.4
					c2,0,3-0.6,3-1.7c0-0.4-0.1-0.7-0.4-0.9c-0.3-0.2-0.6-0.4-1-0.5c-0.4-0.1-1-0.2-1.7-0.3c-1-0.2-1.8-0.3-2.5-0.5
					c-0.6-0.2-1.2-0.6-1.7-1c-0.5-0.5-0.7-1.2-0.7-2.1c0-1.1,0.5-2.1,1.4-2.7c1-0.7,2.2-1,3.8-1c0.8,0,1.7,0.1,2.5,0.3
					c0.8,0.2,1.5,0.5,2.1,0.8l-1,1.8c-1-0.7-2.2-1-3.6-1c-1,0-1.7,0.2-2.2,0.5s-0.8,0.7-0.8,1.3c0,0.4,0.1,0.7,0.4,1
					s0.6,0.4,1.1,0.5c0.4,0.1,1,0.2,1.8,0.4c1,0.2,1.8,0.4,2.5,0.6c0.6,0.2,1.2,0.5,1.6,1s0.7,1.1,0.7,2c0,1.1-0.5,2-1.5,2.7
					s-2.3,1-4,1C230.2,527.6,229.2,527.5,228.3,527.2z"/>
				<path class="st15" d="M256.5,516.2c0.9,0.9,1.4,2.3,1.4,4.1v7.2h-2.3v-7c0-1.2-0.3-2.1-0.9-2.8c-0.6-0.6-1.4-0.9-2.5-0.9
					c-1.2,0-2.2,0.4-2.9,1.1c-0.7,0.7-1.1,1.8-1.1,3.1v6.5h-2.3v-12.6h2.2v1.9c0.5-0.6,1.1-1.1,1.9-1.5c0.8-0.3,1.7-0.5,2.7-0.5
					C254.3,514.8,255.5,515.2,256.5,516.2z"/>
				<path class="st15" d="M264.2,526.8c-1-0.6-1.8-1.3-2.3-2.3c-0.6-1-0.8-2.1-0.8-3.3c0-1.2,0.3-2.3,0.8-3.3s1.3-1.7,2.3-2.3
					c1-0.5,2.1-0.8,3.4-0.8s2.4,0.3,3.4,0.8s1.8,1.3,2.3,2.3s0.8,2.1,0.8,3.3c0,1.2-0.3,2.3-0.8,3.3c-0.6,1-1.3,1.7-2.3,2.3
					c-1,0.6-2.1,0.8-3.4,0.8S265.2,527.3,264.2,526.8z M269.8,525.1c0.6-0.4,1.1-0.9,1.5-1.6s0.5-1.4,0.5-2.3c0-0.9-0.2-1.6-0.5-2.3
					c-0.4-0.7-0.9-1.2-1.5-1.6c-0.6-0.4-1.4-0.5-2.2-0.5s-1.5,0.2-2.2,0.5c-0.6,0.4-1.1,0.9-1.5,1.6s-0.6,1.4-0.6,2.3
					c0,0.9,0.2,1.6,0.6,2.3c0.4,0.7,0.9,1.2,1.5,1.6c0.6,0.4,1.4,0.6,2.2,0.6S269.1,525.4,269.8,525.1z"/>
				<path class="st15" d="M277.9,527.2c-0.9-0.3-1.7-0.6-2.2-1.1l0.9-1.8c0.6,0.4,1.2,0.7,2,1c0.8,0.2,1.6,0.4,2.4,0.4
					c2,0,3-0.6,3-1.7c0-0.4-0.1-0.7-0.4-0.9c-0.3-0.2-0.6-0.4-1-0.5c-0.4-0.1-1-0.2-1.7-0.3c-1-0.2-1.8-0.3-2.5-0.5
					c-0.6-0.2-1.2-0.6-1.7-1c-0.5-0.5-0.7-1.2-0.7-2.1c0-1.1,0.5-2.1,1.4-2.7c1-0.7,2.2-1,3.8-1c0.8,0,1.7,0.1,2.5,0.3
					c0.8,0.2,1.5,0.5,2.1,0.8l-1,1.8c-1-0.7-2.2-1-3.6-1c-1,0-1.7,0.2-2.2,0.5s-0.8,0.7-0.8,1.3c0,0.4,0.1,0.7,0.4,1
					s0.6,0.4,1.1,0.5c0.4,0.1,1,0.2,1.8,0.4c1,0.2,1.8,0.4,2.5,0.6c0.6,0.2,1.2,0.5,1.6,1s0.7,1.1,0.7,2c0,1.1-0.5,2-1.5,2.7
					s-2.3,1-4,1C279.9,527.6,278.9,527.5,277.9,527.2z"/>
				<path class="st15" d="M304.2,516c0.9,0.9,1.4,2.1,1.4,3.8v7.6h-2.2v-1.7c-0.4,0.6-0.9,1-1.6,1.3s-1.5,0.5-2.5,0.5
					c-1.4,0-2.5-0.3-3.4-1s-1.3-1.6-1.3-2.7c0-1.1,0.4-2,1.2-2.7c0.8-0.7,2.1-1,3.8-1h3.6v-0.5c0-1-0.3-1.7-0.9-2.3
					c-0.6-0.5-1.4-0.8-2.5-0.8c-0.7,0-1.5,0.1-2.2,0.4c-0.7,0.2-1.3,0.6-1.8,1l-1-1.7c0.6-0.5,1.4-0.9,2.3-1.2
					c0.9-0.3,1.9-0.4,2.9-0.4C301.9,514.8,303.2,515.2,304.2,516z M301.9,525.3c0.6-0.4,1.1-0.9,1.4-1.7v-1.8h-3.5
					c-1.9,0-2.9,0.6-2.9,1.9c0,0.6,0.2,1.1,0.7,1.5c0.5,0.4,1.2,0.5,2,0.5C300.5,525.9,301.3,525.7,301.9,525.3z"/>
				<path class="st15" d="M313.7,515.3c0.8-0.4,1.7-0.6,2.8-0.6v2.2c-0.1,0-0.3,0-0.5,0c-1.2,0-2.2,0.4-2.9,1.1
					c-0.7,0.7-1.1,1.8-1.1,3.1v6.3h-2.3v-12.6h2.2v2.1C312.4,516.3,312.9,515.7,313.7,515.3z"/>
				<path class="st15" d="M326.9,526.7c-0.3,0.3-0.7,0.5-1.2,0.7s-1,0.2-1.5,0.2c-1.3,0-2.2-0.3-2.9-1c-0.7-0.7-1-1.7-1-2.9v-6.9
					h-2.1v-1.9h2.1v-2.8h2.3v2.8h3.6v1.9h-3.6v6.8c0,0.7,0.2,1.2,0.5,1.6c0.3,0.4,0.8,0.5,1.5,0.5s1.3-0.2,1.8-0.6L326.9,526.7z"/>
				<path class="st15" d="M329.7,512c-0.3-0.3-0.4-0.6-0.4-1c0-0.4,0.1-0.8,0.4-1.1c0.3-0.3,0.7-0.4,1.1-0.4s0.8,0.1,1.1,0.4
					c0.3,0.3,0.4,0.6,0.4,1c0,0.4-0.1,0.8-0.4,1.1c-0.3,0.3-0.7,0.4-1.1,0.4S330,512.3,329.7,512z M329.7,514.9h2.3v12.6h-2.3V514.9
					z"/>
				<path class="st15" d="M338.4,526.8c-1-0.6-1.8-1.3-2.4-2.3s-0.9-2.1-0.9-3.3c0-1.2,0.3-2.3,0.9-3.3s1.4-1.7,2.4-2.3
					c1-0.5,2.2-0.8,3.4-0.8c1.1,0,2.2,0.2,3.1,0.7s1.6,1.1,2.1,2l-1.7,1.1c-0.4-0.6-0.9-1.1-1.5-1.4s-1.2-0.5-1.9-0.5
					c-0.8,0-1.6,0.2-2.2,0.5c-0.7,0.4-1.2,0.9-1.5,1.6c-0.4,0.7-0.6,1.4-0.6,2.3c0,0.9,0.2,1.7,0.6,2.3s0.9,1.2,1.5,1.6
					c0.6,0.4,1.4,0.5,2.2,0.5c0.7,0,1.4-0.2,1.9-0.5s1.1-0.8,1.5-1.4l1.7,1.1c-0.5,0.9-1.2,1.5-2.1,2s-1.9,0.7-3.1,0.7
					C340.5,527.6,339.4,527.3,338.4,526.8z"/>
				<path class="st15" d="M349.7,509.8h2.3v17.6h-2.3V509.8z"/>
				<path class="st15" d="M367.7,521.9h-10.2c0.1,1.1,0.6,2,1.5,2.7c0.8,0.7,1.9,1,3.1,1c1.5,0,2.7-0.5,3.6-1.5l1.3,1.5
					c-0.6,0.7-1.3,1.2-2.1,1.5s-1.8,0.5-2.8,0.5c-1.3,0-2.5-0.3-3.5-0.8s-1.8-1.3-2.4-2.3c-0.6-1-0.8-2.1-0.8-3.3
					c0-1.2,0.3-2.3,0.8-3.3s1.3-1.7,2.3-2.3c1-0.5,2-0.8,3.2-0.8s2.3,0.3,3.2,0.8s1.7,1.3,2.2,2.3s0.8,2.1,0.8,3.4
					C367.7,521.4,367.7,521.7,367.7,521.9z M358.8,517.7c-0.7,0.7-1.2,1.5-1.3,2.6h8.1c-0.1-1.1-0.6-1.9-1.3-2.6s-1.7-1-2.7-1
					C360.4,516.7,359.5,517,358.8,517.7z"/>
				<path class="st15" d="M371.5,527.2c-0.9-0.3-1.7-0.6-2.2-1.1l0.9-1.8c0.6,0.4,1.2,0.7,2,1s1.6,0.4,2.4,0.4c2,0,3-0.6,3-1.7
					c0-0.4-0.1-0.7-0.4-0.9c-0.3-0.2-0.6-0.4-1-0.5c-0.4-0.1-1-0.2-1.7-0.3c-1-0.2-1.8-0.3-2.5-0.5s-1.2-0.6-1.7-1
					c-0.5-0.5-0.7-1.2-0.7-2.1c0-1.1,0.5-2.1,1.4-2.7c1-0.7,2.2-1,3.8-1c0.8,0,1.7,0.1,2.5,0.3c0.8,0.2,1.5,0.5,2.1,0.8l-1,1.8
					c-1-0.7-2.2-1-3.6-1c-1,0-1.7,0.2-2.2,0.5s-0.8,0.7-0.8,1.3c0,0.4,0.1,0.7,0.4,1s0.6,0.4,1.1,0.5c0.4,0.1,1,0.2,1.8,0.4
					c1,0.2,1.8,0.4,2.5,0.6c0.6,0.2,1.2,0.5,1.6,1c0.4,0.5,0.7,1.1,0.7,2c0,1.1-0.5,2-1.5,2.7s-2.3,1-4,1
					C373.5,527.6,372.5,527.5,371.5,527.2z"/>
			</g>
			<g class="st14">
				<path class="st15" d="M89.7,550.4H79.5c0.1,1.1,0.6,2,1.5,2.7c0.8,0.7,1.9,1,3.1,1c1.5,0,2.7-0.5,3.6-1.5l1.3,1.5
					c-0.6,0.7-1.3,1.2-2.1,1.5s-1.8,0.5-2.8,0.5c-1.3,0-2.5-0.3-3.5-0.8s-1.8-1.3-2.4-2.3c-0.6-1-0.8-2.1-0.8-3.3
					c0-1.2,0.3-2.3,0.8-3.3s1.3-1.7,2.3-2.3c1-0.5,2-0.8,3.2-0.8s2.3,0.3,3.2,0.8s1.7,1.3,2.2,2.3s0.8,2.1,0.8,3.4
					C89.7,549.9,89.7,550.2,89.7,550.4z M80.8,546.2c-0.7,0.7-1.2,1.5-1.3,2.6h8.1c-0.1-1.1-0.6-1.9-1.3-2.6s-1.7-1-2.7-1
					C82.4,545.2,81.5,545.5,80.8,546.2z"/>
				<path class="st15" d="M103.4,544.7c0.9,0.9,1.4,2.3,1.4,4.1v7.2h-2.3v-7c0-1.2-0.3-2.1-0.9-2.8c-0.6-0.6-1.4-0.9-2.5-0.9
					c-1.2,0-2.2,0.4-2.9,1.1c-0.7,0.7-1.1,1.8-1.1,3.1v6.5h-2.3v-12.6H95v1.9c0.5-0.6,1.1-1.1,1.9-1.5c0.8-0.3,1.7-0.5,2.7-0.5
					C101.2,543.3,102.5,543.7,103.4,544.7z"/>
				<path class="st15" d="M135,544.6c0.9,0.9,1.4,2.3,1.4,4.1v7.2h-2.3v-7c0-1.2-0.3-2.1-0.8-2.8c-0.6-0.6-1.4-0.9-2.4-0.9
					c-1.2,0-2.1,0.4-2.8,1.1c-0.7,0.7-1,1.8-1,3.1v6.5h-2.3v-7c0-1.2-0.3-2.1-0.8-2.8c-0.6-0.6-1.4-0.9-2.4-0.9
					c-1.2,0-2.1,0.4-2.8,1.1c-0.7,0.7-1,1.8-1,3.1v6.5h-2.3v-12.6h2.2v1.9c0.5-0.6,1.1-1.1,1.8-1.5c0.7-0.3,1.6-0.5,2.5-0.5
					c1,0,1.9,0.2,2.6,0.6c0.8,0.4,1.3,1,1.8,1.7c0.5-0.7,1.1-1.3,2-1.7c0.8-0.4,1.8-0.6,2.9-0.6C132.8,543.3,134.1,543.7,135,544.6z
					"/>
				<path class="st15" d="M149.2,544.5c0.9,0.9,1.4,2.1,1.4,3.8v7.6h-2.2v-1.7c-0.4,0.6-0.9,1-1.6,1.3s-1.5,0.5-2.5,0.5
					c-1.4,0-2.5-0.3-3.4-1s-1.3-1.6-1.3-2.7c0-1.1,0.4-2,1.2-2.7c0.8-0.7,2.1-1,3.8-1h3.6v-0.5c0-1-0.3-1.7-0.9-2.3
					c-0.6-0.5-1.4-0.8-2.5-0.8c-0.7,0-1.5,0.1-2.2,0.4c-0.7,0.2-1.3,0.6-1.8,1l-1-1.7c0.6-0.5,1.4-0.9,2.3-1.2
					c0.9-0.3,1.9-0.4,2.9-0.4C146.9,543.3,148.2,543.7,149.2,544.5z M146.9,553.8c0.6-0.4,1.1-0.9,1.4-1.7v-1.8h-3.5
					c-1.9,0-2.9,0.6-2.9,1.9c0,0.6,0.2,1.1,0.7,1.5c0.5,0.4,1.2,0.5,2,0.5C145.5,554.4,146.3,554.2,146.9,553.8z"/>
				<path class="st15" d="M166.9,543.4v10.9c0,2.2-0.5,3.8-1.6,4.9c-1.1,1.1-2.7,1.6-4.9,1.6c-1.2,0-2.3-0.2-3.4-0.5
					s-1.9-0.8-2.6-1.4l1.1-1.8c0.6,0.5,1.3,0.9,2.2,1.2c0.9,0.3,1.8,0.4,2.7,0.4c1.5,0,2.6-0.3,3.3-1c0.7-0.7,1.1-1.8,1.1-3.2v-1
					c-0.5,0.6-1.2,1.1-2,1.5c-0.8,0.3-1.6,0.5-2.6,0.5c-1.2,0-2.3-0.3-3.3-0.8s-1.7-1.2-2.3-2.2c-0.6-0.9-0.8-2-0.8-3.2
					s0.3-2.2,0.8-3.2c0.6-0.9,1.3-1.6,2.3-2.1s2.1-0.8,3.3-0.8c1,0,1.8,0.2,2.6,0.5c0.8,0.3,1.5,0.9,2,1.5v-1.9h2.1V543.4z
					 M162.6,552.9c0.7-0.3,1.2-0.8,1.5-1.5c0.4-0.6,0.6-1.3,0.6-2.1c0-1.2-0.4-2.2-1.2-3c-0.8-0.8-1.8-1.1-3.1-1.1
					c-1.3,0-2.3,0.4-3.1,1.1c-0.8,0.8-1.2,1.7-1.2,3c0,0.8,0.2,1.5,0.6,2.1c0.4,0.6,0.9,1.1,1.5,1.5c0.7,0.3,1.4,0.5,2.2,0.5
					C161.2,553.5,161.9,553.3,162.6,552.9z"/>
				<path class="st15" d="M179.8,544.5c0.9,0.9,1.4,2.1,1.4,3.8v7.6H179v-1.7c-0.4,0.6-0.9,1-1.6,1.3s-1.5,0.5-2.5,0.5
					c-1.4,0-2.5-0.3-3.4-1s-1.3-1.6-1.3-2.7c0-1.1,0.4-2,1.2-2.7c0.8-0.7,2.1-1,3.8-1h3.6v-0.5c0-1-0.3-1.7-0.9-2.3
					c-0.6-0.5-1.4-0.8-2.5-0.8c-0.7,0-1.5,0.1-2.2,0.4c-0.7,0.2-1.3,0.6-1.8,1l-1-1.7c0.6-0.5,1.4-0.9,2.3-1.2
					c0.9-0.3,1.9-0.4,2.9-0.4C177.6,543.3,178.9,543.7,179.8,544.5z M177.6,553.8c0.6-0.4,1.1-0.9,1.4-1.7v-1.8h-3.5
					c-1.9,0-2.9,0.6-2.9,1.9c0,0.6,0.2,1.1,0.7,1.5c0.5,0.4,1.2,0.5,2,0.5C176.2,554.4,176.9,554.2,177.6,553.8z"/>
				<path class="st15" d="M186.1,555.7c-0.9-0.3-1.7-0.6-2.2-1.1l0.9-1.8c0.6,0.4,1.2,0.7,2,1c0.8,0.2,1.6,0.4,2.4,0.4
					c2,0,3-0.6,3-1.7c0-0.4-0.1-0.7-0.4-0.9c-0.3-0.2-0.6-0.4-1-0.5c-0.4-0.1-1-0.2-1.7-0.3c-1-0.2-1.8-0.3-2.5-0.5
					c-0.6-0.2-1.2-0.6-1.7-1c-0.5-0.5-0.7-1.2-0.7-2.1c0-1.1,0.5-2.1,1.4-2.7c1-0.7,2.2-1,3.8-1c0.8,0,1.7,0.1,2.5,0.3
					c0.8,0.2,1.5,0.5,2.1,0.8l-1,1.8c-1-0.7-2.2-1-3.6-1c-1,0-1.7,0.2-2.2,0.5s-0.8,0.7-0.8,1.3c0,0.4,0.1,0.7,0.4,1
					s0.6,0.4,1.1,0.5c0.4,0.1,1,0.2,1.8,0.4c1,0.2,1.8,0.4,2.5,0.6c0.6,0.2,1.2,0.5,1.6,1s0.7,1.1,0.7,2c0,1.1-0.5,2-1.5,2.7
					s-2.3,1-4,1C188,556.1,187,556,186.1,555.7z"/>
				<path class="st15" d="M197.4,540.5c-0.3-0.3-0.4-0.6-0.4-1c0-0.4,0.1-0.8,0.4-1.1s0.7-0.4,1.1-0.4s0.8,0.1,1.1,0.4
					c0.3,0.3,0.4,0.6,0.4,1c0,0.4-0.1,0.8-0.4,1.1c-0.3,0.3-0.7,0.4-1.1,0.4S197.7,540.8,197.4,540.5z M197.3,543.4h2.3V556h-2.3
					V543.4z"/>
				<path class="st15" d="M214.5,544.7c0.9,0.9,1.4,2.3,1.4,4.1v7.2h-2.3v-7c0-1.2-0.3-2.1-0.9-2.8c-0.6-0.6-1.4-0.9-2.5-0.9
					c-1.2,0-2.2,0.4-2.9,1.1c-0.7,0.7-1.1,1.8-1.1,3.1v6.5h-2.3v-12.6h2.2v1.9c0.5-0.6,1.1-1.1,1.9-1.5c0.8-0.3,1.7-0.5,2.7-0.5
					C212.3,543.3,213.6,543.7,214.5,544.7z"/>
				<path class="st15" d="M219.6,555.7c-0.3-0.3-0.5-0.7-0.5-1.2s0.2-0.8,0.5-1.2c0.3-0.3,0.7-0.5,1.1-0.5s0.8,0.2,1.1,0.5
					s0.5,0.7,0.5,1.2s-0.2,0.9-0.5,1.2s-0.7,0.5-1.1,0.5C220.3,556.1,219.9,556,219.6,555.7z"/>
			</g>
		</g>
	</g>
	<g class="st10">
		
			<image style="display:inline;overflow:visible;opacity:0.75;" width="417" height="136" xlink:href="88EDAF07.png"  transform="matrix(1 0 0 1 38.5496 395.4691)">
		</image>
		<g class="st11">
			<path class="st16" d="M428.6,519H65.9c-8.1,0-14.7-6.6-14.7-14.7v-81.6c0-8.1,6.6-14.7,14.7-14.7h362.7c8.1,0,14.7,6.6,14.7,14.7
				v81.6C443.3,512.4,436.7,519,428.6,519z"/>
		</g>
	</g>
	<path class="st0" d="M444.5,571.8H55.9c-8.3,0-15-6.7-15-15V431.9c0-8.3,6.7-15,15-15h388.6c8.3,0,15,6.7,15,15v124.9
		C459.5,565.1,452.8,571.8,444.5,571.8z"/>
	<g>
		<path class="st15" d="M71.4,461.7h6.2c1.6,0,2.9,0.3,4.1,0.9s2.1,1.5,2.8,2.6c0.7,1.1,1,2.4,1,3.8c0,1.4-0.3,2.7-1,3.8
			c-0.7,1.1-1.6,2-2.8,2.6s-2.6,0.9-4.1,0.9h-6.2V461.7z M77.4,474.6c1.2,0,2.2-0.2,3.1-0.7c0.9-0.5,1.6-1.1,2.1-1.9
			s0.7-1.8,0.7-2.9c0-1.1-0.2-2.1-0.7-2.9s-1.2-1.5-2.1-1.9c-0.9-0.5-1.9-0.7-3.1-0.7h-4v11H77.4z"/>
		<path class="st15" d="M98.4,471.5h-9c0.1,1,0.6,1.8,1.3,2.4c0.7,0.6,1.6,0.9,2.7,0.9c1.3,0,2.4-0.4,3.2-1.3l1.1,1.3
			c-0.5,0.6-1.1,1-1.9,1.3c-0.8,0.3-1.6,0.5-2.5,0.5c-1.2,0-2.2-0.2-3.1-0.7c-0.9-0.5-1.6-1.2-2.1-2c-0.5-0.9-0.7-1.8-0.7-2.9
			c0-1.1,0.2-2.1,0.7-2.9s1.1-1.5,2-2c0.8-0.5,1.8-0.7,2.9-0.7c1.1,0,2,0.2,2.8,0.7s1.5,1.2,2,2c0.5,0.9,0.7,1.9,0.7,3
			C98.5,471.1,98.5,471.3,98.4,471.5z M90.6,467.8c-0.7,0.6-1,1.4-1.1,2.3h7.1c-0.1-0.9-0.5-1.7-1.1-2.3s-1.5-0.9-2.4-0.9
			S91.2,467.2,90.6,467.8z M94.2,460.9h2.6l-3.5,2.7h-1.9L94.2,460.9z"/>
		<path class="st15" d="M103.1,475.8c-0.9-0.5-1.6-1.2-2.1-2s-0.8-1.8-0.8-2.9s0.3-2.1,0.8-2.9c0.5-0.9,1.2-1.5,2.1-2
			c0.9-0.5,1.9-0.7,3-0.7c1,0,1.9,0.2,2.7,0.6c0.8,0.4,1.4,1,1.8,1.8l-1.5,1c-0.3-0.5-0.8-0.9-1.3-1.2c-0.5-0.3-1.1-0.4-1.7-0.4
			c-0.7,0-1.4,0.2-2,0.5s-1,0.8-1.4,1.4c-0.3,0.6-0.5,1.3-0.5,2c0,0.8,0.2,1.5,0.5,2.1c0.3,0.6,0.8,1.1,1.4,1.4s1.2,0.5,2,0.5
			c0.6,0,1.2-0.1,1.7-0.4s1-0.7,1.3-1.2l1.5,1c-0.4,0.8-1,1.4-1.8,1.8c-0.8,0.4-1.7,0.6-2.7,0.6C105,476.5,104,476.3,103.1,475.8z"
			/>
		<path class="st15" d="M114.9,475.8c-0.9-0.5-1.6-1.2-2.1-2c-0.5-0.9-0.7-1.8-0.7-2.9s0.2-2.1,0.7-2.9c0.5-0.9,1.2-1.5,2.1-2
			s1.9-0.7,3-0.7c1.1,0,2.1,0.2,3,0.7s1.6,1.2,2.1,2c0.5,0.9,0.7,1.8,0.7,2.9s-0.2,2.1-0.7,2.9s-1.2,1.5-2.1,2s-1.9,0.7-3,0.7
			C116.8,476.5,115.8,476.3,114.9,475.8z M119.8,474.3c0.6-0.3,1-0.8,1.3-1.4s0.5-1.3,0.5-2c0-0.8-0.2-1.5-0.5-2
			c-0.3-0.6-0.8-1.1-1.3-1.4c-0.6-0.3-1.2-0.5-1.9-0.5s-1.4,0.2-1.9,0.5c-0.6,0.3-1,0.8-1.3,1.4c-0.3,0.6-0.5,1.3-0.5,2
			c0,0.8,0.2,1.5,0.5,2s0.8,1.1,1.3,1.4c0.6,0.3,1.2,0.5,1.9,0.5S119.2,474.6,119.8,474.3z"/>
		<path class="st15" d="M136.8,465.3v11.1h-1.9v-1.7c-0.4,0.6-0.9,1-1.6,1.3c-0.7,0.3-1.4,0.5-2.2,0.5c-1.5,0-2.7-0.4-3.5-1.2
			c-0.9-0.8-1.3-2-1.3-3.6v-6.4h2v6.2c0,1.1,0.3,1.9,0.8,2.4c0.5,0.6,1.3,0.8,2.2,0.8c1.1,0,1.9-0.3,2.5-1c0.6-0.6,0.9-1.6,0.9-2.7
			v-5.8H136.8z"/>
		<path class="st15" d="M150.5,465.3l-4.9,11.1h-2.1l-4.9-11.1h2.1l3.8,8.9l3.9-8.9H150.5z"/>
		<path class="st15" d="M155.9,465.7c0.7-0.3,1.5-0.5,2.5-0.5v2c-0.1,0-0.3,0-0.5,0c-1.1,0-1.9,0.3-2.6,1c-0.6,0.7-0.9,1.6-0.9,2.8
			v5.5h-2v-11.1h1.9v1.9C154.7,466.5,155.2,466,155.9,465.7z"/>
		<path class="st15" d="M170.8,471.5h-9c0.1,1,0.6,1.8,1.3,2.4c0.7,0.6,1.6,0.9,2.7,0.9c1.3,0,2.4-0.4,3.2-1.3l1.1,1.3
			c-0.5,0.6-1.1,1-1.9,1.3c-0.8,0.3-1.6,0.5-2.5,0.5c-1.2,0-2.2-0.2-3.1-0.7c-0.9-0.5-1.6-1.2-2.1-2c-0.5-0.9-0.7-1.8-0.7-2.9
			c0-1.1,0.2-2.1,0.7-2.9s1.1-1.5,2-2c0.8-0.5,1.8-0.7,2.9-0.7c1.1,0,2,0.2,2.8,0.7s1.5,1.2,2,2c0.5,0.9,0.7,1.9,0.7,3
			C170.8,471.1,170.8,471.3,170.8,471.5z M162.9,467.8c-0.7,0.6-1,1.4-1.1,2.3h7.1c-0.1-0.9-0.5-1.7-1.1-2.3s-1.5-0.9-2.4-0.9
			S163.5,467.2,162.9,467.8z"/>
		<path class="st15" d="M181.7,474.8v1.7h-9.3v-1.3l6.6-8.2h-6.4v-1.7h9v1.3l-6.6,8.1H181.7z"/>
		<path class="st15" d="M199.4,466.4c0.8,0.8,1.2,2,1.2,3.6v6.4h-2v-6.2c0-1.1-0.3-1.9-0.8-2.4c-0.5-0.5-1.3-0.8-2.2-0.8
			c-1.1,0-2,0.3-2.6,1s-0.9,1.6-0.9,2.7v5.7h-2v-11.1h1.9v1.7c0.4-0.6,1-1,1.6-1.3c0.7-0.3,1.5-0.5,2.4-0.5
			C197.4,465.2,198.6,465.6,199.4,466.4z"/>
		<path class="st15" d="M206.2,475.8c-0.9-0.5-1.6-1.2-2.1-2c-0.5-0.9-0.7-1.8-0.7-2.9s0.2-2.1,0.7-2.9c0.5-0.9,1.2-1.5,2.1-2
			s1.9-0.7,3-0.7c1.1,0,2.1,0.2,3,0.7s1.6,1.2,2.1,2c0.5,0.9,0.7,1.8,0.7,2.9s-0.2,2.1-0.7,2.9s-1.2,1.5-2.1,2s-1.9,0.7-3,0.7
			C208.1,476.5,207.1,476.3,206.2,475.8z M211.1,474.3c0.6-0.3,1-0.8,1.3-1.4s0.5-1.3,0.5-2c0-0.8-0.2-1.5-0.5-2
			c-0.3-0.6-0.8-1.1-1.3-1.4c-0.6-0.3-1.2-0.5-1.9-0.5s-1.4,0.2-1.9,0.5c-0.6,0.3-1,0.8-1.3,1.4c-0.3,0.6-0.5,1.3-0.5,2
			c0,0.8,0.2,1.5,0.5,2s0.8,1.1,1.3,1.4c0.6,0.3,1.2,0.5,1.9,0.5S210.6,474.6,211.1,474.3z"/>
		<path class="st15" d="M218.3,476.2c-0.8-0.2-1.5-0.6-2-0.9l0.8-1.6c0.5,0.4,1.1,0.6,1.8,0.8s1.4,0.3,2.1,0.3
			c1.8,0,2.6-0.5,2.6-1.5c0-0.3-0.1-0.6-0.4-0.8c-0.2-0.2-0.5-0.3-0.9-0.4s-0.9-0.2-1.5-0.3c-0.9-0.1-1.6-0.3-2.2-0.5
			c-0.6-0.2-1.1-0.5-1.5-0.9c-0.4-0.4-0.6-1-0.6-1.8c0-1,0.4-1.8,1.3-2.4c0.8-0.6,2-0.9,3.4-0.9c0.7,0,1.5,0.1,2.2,0.3
			s1.4,0.4,1.8,0.7l-0.9,1.6c-0.9-0.6-2-0.9-3.2-0.9c-0.9,0-1.5,0.1-2,0.4c-0.4,0.3-0.7,0.7-0.7,1.1c0,0.4,0.1,0.7,0.4,0.9
			s0.6,0.4,0.9,0.5c0.4,0.1,0.9,0.2,1.6,0.3c0.9,0.2,1.6,0.3,2.2,0.5c0.6,0.2,1,0.5,1.4,0.9c0.4,0.4,0.6,1,0.6,1.8
			c0,1-0.4,1.8-1.3,2.4c-0.9,0.6-2,0.9-3.5,0.9C220.1,476.5,219.2,476.4,218.3,476.2z"/>
		<path class="st15" d="M235.7,475.8c-0.9-0.5-1.6-1.2-2.1-2c-0.5-0.9-0.7-1.8-0.7-2.9s0.2-2.1,0.7-2.9c0.5-0.9,1.2-1.5,2.1-2
			s1.9-0.7,3-0.7c1.1,0,2.1,0.2,3,0.7s1.6,1.2,2.1,2c0.5,0.9,0.7,1.8,0.7,2.9s-0.2,2.1-0.7,2.9s-1.2,1.5-2.1,2s-1.9,0.7-3,0.7
			C237.6,476.5,236.6,476.3,235.7,475.8z M240.6,474.3c0.6-0.3,1-0.8,1.3-1.4s0.5-1.3,0.5-2c0-0.8-0.2-1.5-0.5-2
			c-0.3-0.6-0.8-1.1-1.3-1.4c-0.6-0.3-1.2-0.5-1.9-0.5s-1.4,0.2-1.9,0.5c-0.6,0.3-1,0.8-1.3,1.4c-0.3,0.6-0.5,1.3-0.5,2
			c0,0.8,0.2,1.5,0.5,2s0.8,1.1,1.3,1.4c0.6,0.3,1.2,0.5,1.9,0.5S240.1,474.6,240.6,474.3z"/>
		<path class="st15" d="M249.6,464.3v1h3.2v1.7h-3.2v9.5h-2v-9.5h-1.9v-1.7h1.9v-1c0-1.1,0.3-2,1-2.6c0.6-0.6,1.5-1,2.7-1
			c0.4,0,0.9,0.1,1.3,0.2c0.4,0.1,0.7,0.3,1,0.5l-0.6,1.5c-0.5-0.3-1-0.5-1.6-0.5C250.2,462.4,249.6,463,249.6,464.3z"/>
		<path class="st15" d="M257,464.3v1h3.2v1.7H257v9.5h-2v-9.5h-1.9v-1.7h1.9v-1c0-1.1,0.3-2,1-2.6c0.6-0.6,1.5-1,2.7-1
			c0.4,0,0.9,0.1,1.3,0.2c0.4,0.1,0.7,0.3,1,0.5l-0.6,1.5c-0.5-0.3-1-0.5-1.6-0.5C257.6,462.4,257,463,257,464.3z"/>
		<path class="st15" d="M267.3,465.7c0.7-0.3,1.5-0.5,2.5-0.5v2c-0.1,0-0.3,0-0.5,0c-1.1,0-1.9,0.3-2.6,1c-0.6,0.7-0.9,1.6-0.9,2.8
			v5.5h-2v-11.1h1.9v1.9C266.1,466.5,266.6,466,267.3,465.7z"/>
		<path class="st15" d="M282.2,471.5h-9c0.1,1,0.6,1.8,1.3,2.4c0.7,0.6,1.6,0.9,2.7,0.9c1.3,0,2.4-0.4,3.2-1.3l1.1,1.3
			c-0.5,0.6-1.1,1-1.9,1.3c-0.8,0.3-1.6,0.5-2.5,0.5c-1.2,0-2.2-0.2-3.1-0.7c-0.9-0.5-1.6-1.2-2.1-2c-0.5-0.9-0.7-1.8-0.7-2.9
			c0-1.1,0.2-2.1,0.7-2.9s1.1-1.5,2-2c0.8-0.5,1.8-0.7,2.9-0.7c1.1,0,2,0.2,2.8,0.7s1.5,1.2,2,2c0.5,0.9,0.7,1.9,0.7,3
			C282.2,471.1,282.2,471.3,282.2,471.5z M274.3,467.8c-0.7,0.6-1,1.4-1.1,2.3h7.1c-0.1-0.9-0.5-1.7-1.1-2.3s-1.5-0.9-2.4-0.9
			S274.9,467.2,274.3,467.8z"/>
		<path class="st15" d="M285.6,476.2c-0.8-0.2-1.5-0.6-2-0.9l0.8-1.6c0.5,0.4,1.1,0.6,1.8,0.8s1.4,0.3,2.1,0.3
			c1.8,0,2.6-0.5,2.6-1.5c0-0.3-0.1-0.6-0.4-0.8c-0.2-0.2-0.5-0.3-0.9-0.4s-0.9-0.2-1.5-0.3c-0.9-0.1-1.6-0.3-2.2-0.5
			c-0.6-0.2-1.1-0.5-1.5-0.9c-0.4-0.4-0.6-1-0.6-1.8c0-1,0.4-1.8,1.3-2.4c0.8-0.6,2-0.9,3.4-0.9c0.7,0,1.5,0.1,2.2,0.3
			s1.4,0.4,1.8,0.7l-0.9,1.6c-0.9-0.6-2-0.9-3.2-0.9c-0.9,0-1.5,0.1-2,0.4c-0.4,0.3-0.7,0.7-0.7,1.1c0,0.4,0.1,0.7,0.4,0.9
			s0.6,0.4,0.9,0.5c0.4,0.1,0.9,0.2,1.6,0.3c0.9,0.2,1.6,0.3,2.2,0.5c0.6,0.2,1,0.5,1.4,0.9c0.4,0.4,0.6,1,0.6,1.8
			c0,1-0.4,1.8-1.3,2.4c-0.9,0.6-2,0.9-3.5,0.9C287.3,476.5,286.4,476.4,285.6,476.2z"/>
		<path class="st15" d="M301.7,476.2c-0.8-0.2-1.5-0.6-2-0.9l0.8-1.6c0.5,0.4,1.1,0.6,1.8,0.8s1.4,0.3,2.1,0.3
			c1.8,0,2.6-0.5,2.6-1.5c0-0.3-0.1-0.6-0.4-0.8c-0.2-0.2-0.5-0.3-0.9-0.4s-0.9-0.2-1.5-0.3c-0.9-0.1-1.6-0.3-2.2-0.5
			c-0.6-0.2-1.1-0.5-1.5-0.9c-0.4-0.4-0.6-1-0.6-1.8c0-1,0.4-1.8,1.3-2.4c0.8-0.6,2-0.9,3.4-0.9c0.7,0,1.5,0.1,2.2,0.3
			s1.4,0.4,1.8,0.7l-0.9,1.6c-0.9-0.6-2-0.9-3.2-0.9c-0.9,0-1.5,0.1-2,0.4c-0.4,0.3-0.7,0.7-0.7,1.1c0,0.4,0.1,0.7,0.4,0.9
			s0.6,0.4,0.9,0.5c0.4,0.1,0.9,0.2,1.6,0.3c0.9,0.2,1.6,0.3,2.2,0.5c0.6,0.2,1,0.5,1.4,0.9c0.4,0.4,0.6,1,0.6,1.8
			c0,1-0.4,1.8-1.3,2.4c-0.9,0.6-2,0.9-3.5,0.9C303.5,476.5,302.6,476.4,301.7,476.2z"/>
		<path class="st15" d="M320.5,465.9c0.9,0.5,1.5,1.1,2,2c0.5,0.9,0.7,1.8,0.7,3s-0.2,2.1-0.7,3c-0.5,0.9-1.2,1.5-2,2
			c-0.9,0.5-1.8,0.7-2.9,0.7c-0.8,0-1.5-0.2-2.2-0.5s-1.2-0.8-1.7-1.3v5.8h-2v-15.2h1.9v1.8c0.4-0.6,1-1.1,1.7-1.4
			c0.7-0.3,1.4-0.5,2.3-0.5C318.7,465.2,319.6,465.4,320.5,465.9z M319.3,474.3c0.6-0.3,1-0.8,1.3-1.4s0.5-1.3,0.5-2
			c0-0.8-0.2-1.5-0.5-2c-0.3-0.6-0.8-1.1-1.3-1.4s-1.2-0.5-1.9-0.5c-0.7,0-1.3,0.2-1.9,0.5c-0.6,0.3-1,0.8-1.3,1.4s-0.5,1.3-0.5,2
			c0,0.8,0.2,1.5,0.5,2s0.8,1.1,1.3,1.4c0.6,0.3,1.2,0.5,1.9,0.5C318.1,474.8,318.8,474.6,319.3,474.3z"/>
		<path class="st15" d="M336,471.5h-9c0.1,1,0.6,1.8,1.3,2.4c0.7,0.6,1.6,0.9,2.7,0.9c1.3,0,2.4-0.4,3.2-1.3l1.1,1.3
			c-0.5,0.6-1.1,1-1.9,1.3c-0.8,0.3-1.6,0.5-2.5,0.5c-1.2,0-2.2-0.2-3.1-0.7c-0.9-0.5-1.6-1.2-2.1-2c-0.5-0.9-0.7-1.8-0.7-2.9
			c0-1.1,0.2-2.1,0.7-2.9s1.1-1.5,2-2c0.8-0.5,1.8-0.7,2.9-0.7c1.1,0,2,0.2,2.8,0.7s1.5,1.2,2,2c0.5,0.9,0.7,1.9,0.7,3
			C336.1,471.1,336.1,471.3,336,471.5z M328.1,467.8c-0.7,0.6-1,1.4-1.1,2.3h7.1c-0.1-0.9-0.5-1.7-1.1-2.3s-1.5-0.9-2.4-0.9
			S328.8,467.2,328.1,467.8z M331.8,460.9h2.6l-3.5,2.7H329L331.8,460.9z"/>
		<path class="st15" d="M340.7,475.8c-0.9-0.5-1.6-1.2-2.1-2s-0.8-1.8-0.8-2.9s0.3-2.1,0.8-2.9c0.5-0.9,1.2-1.5,2.1-2
			c0.9-0.5,1.9-0.7,3-0.7c1,0,1.9,0.2,2.7,0.6c0.8,0.4,1.4,1,1.8,1.8l-1.5,1c-0.3-0.5-0.8-0.9-1.3-1.2c-0.5-0.3-1.1-0.4-1.7-0.4
			c-0.7,0-1.4,0.2-2,0.5s-1,0.8-1.4,1.4c-0.3,0.6-0.5,1.3-0.5,2c0,0.8,0.2,1.5,0.5,2.1c0.3,0.6,0.8,1.1,1.4,1.4s1.2,0.5,2,0.5
			c0.6,0,1.2-0.1,1.7-0.4s1-0.7,1.3-1.2l1.5,1c-0.4,0.8-1,1.4-1.8,1.8c-0.8,0.4-1.7,0.6-2.7,0.6
			C342.6,476.5,341.6,476.3,340.7,475.8z"/>
		<path class="st15" d="M350.9,462.8c-0.3-0.3-0.4-0.6-0.4-0.9s0.1-0.7,0.4-0.9s0.6-0.4,1-0.4s0.7,0.1,1,0.4s0.4,0.5,0.4,0.9
			c0,0.4-0.1,0.7-0.4,1c-0.3,0.3-0.6,0.4-1,0.4S351.1,463,350.9,462.8z M350.9,465.3h2v11.1h-2V465.3z"/>
		<path class="st15" d="M364.3,466.3c0.8,0.8,1.2,1.9,1.2,3.4v6.7h-1.9v-1.5c-0.3,0.5-0.8,0.9-1.4,1.2c-0.6,0.3-1.4,0.4-2.2,0.4
			c-1.2,0-2.2-0.3-3-0.9c-0.7-0.6-1.1-1.4-1.1-2.4c0-1,0.4-1.8,1.1-2.4s1.8-0.9,3.4-0.9h3.2v-0.4c0-0.9-0.3-1.5-0.8-2
			c-0.5-0.5-1.2-0.7-2.2-0.7c-0.7,0-1.3,0.1-1.9,0.3c-0.6,0.2-1.2,0.5-1.6,0.9l-0.8-1.5c0.6-0.5,1.3-0.8,2.1-1.1
			c0.8-0.2,1.6-0.4,2.5-0.4C362.3,465.2,363.5,465.6,364.3,466.3z M362.3,474.5c0.6-0.3,1-0.8,1.2-1.5v-1.6h-3.1
			c-1.7,0-2.6,0.6-2.6,1.7c0,0.6,0.2,1,0.7,1.3c0.4,0.3,1,0.5,1.8,0.5C361.1,475,361.7,474.8,362.3,474.5z"/>
		<path class="st15" d="M369.3,460.8h2v15.6h-2V460.8z"/>
		<path class="st15" d="M385.1,471.5h-9c0.1,1,0.6,1.8,1.3,2.4c0.7,0.6,1.6,0.9,2.7,0.9c1.3,0,2.4-0.4,3.2-1.3l1.1,1.3
			c-0.5,0.6-1.1,1-1.9,1.3c-0.8,0.3-1.6,0.5-2.5,0.5c-1.2,0-2.2-0.2-3.1-0.7c-0.9-0.5-1.6-1.2-2.1-2c-0.5-0.9-0.7-1.8-0.7-2.9
			c0-1.1,0.2-2.1,0.7-2.9s1.1-1.5,2-2c0.8-0.5,1.8-0.7,2.9-0.7c1.1,0,2,0.2,2.8,0.7s1.5,1.2,2,2c0.5,0.9,0.7,1.9,0.7,3
			C385.2,471.1,385.2,471.3,385.1,471.5z M377.3,467.8c-0.7,0.6-1,1.4-1.1,2.3h7.1c-0.1-0.9-0.5-1.7-1.1-2.3s-1.5-0.9-2.4-0.9
			S377.9,467.2,377.3,467.8z"/>
		<path class="st15" d="M388.5,476.2c-0.8-0.2-1.5-0.6-2-0.9l0.8-1.6c0.5,0.4,1.1,0.6,1.8,0.8s1.4,0.3,2.1,0.3
			c1.8,0,2.6-0.5,2.6-1.5c0-0.3-0.1-0.6-0.4-0.8c-0.2-0.2-0.5-0.3-0.9-0.4s-0.9-0.2-1.5-0.3c-0.9-0.1-1.6-0.3-2.2-0.5
			c-0.6-0.2-1.1-0.5-1.5-0.9c-0.4-0.4-0.6-1-0.6-1.8c0-1,0.4-1.8,1.3-2.4c0.8-0.6,2-0.9,3.4-0.9c0.7,0,1.5,0.1,2.2,0.3
			s1.4,0.4,1.8,0.7l-0.9,1.6c-0.9-0.6-2-0.9-3.2-0.9c-0.9,0-1.5,0.1-2,0.4c-0.4,0.3-0.7,0.7-0.7,1.1c0,0.4,0.1,0.7,0.4,0.9
			s0.6,0.4,0.9,0.5c0.4,0.1,0.9,0.2,1.6,0.3c0.9,0.2,1.6,0.3,2.2,0.5c0.6,0.2,1,0.5,1.4,0.9c0.4,0.4,0.6,1,0.6,1.8
			c0,1-0.4,1.8-1.3,2.4c-0.9,0.6-2,0.9-3.5,0.9C390.3,476.5,389.4,476.4,388.5,476.2z"/>
		<path class="st15" d="M71.6,501.4c-0.8-0.2-1.5-0.6-2-0.9l0.8-1.6c0.5,0.4,1.1,0.6,1.8,0.8s1.4,0.3,2.1,0.3c1.8,0,2.6-0.5,2.6-1.5
			c0-0.3-0.1-0.6-0.4-0.8c-0.2-0.2-0.5-0.3-0.9-0.4s-0.9-0.2-1.5-0.3c-0.9-0.1-1.6-0.3-2.2-0.5c-0.6-0.2-1.1-0.5-1.5-0.9
			c-0.4-0.4-0.6-1-0.6-1.8c0-1,0.4-1.8,1.3-2.4c0.8-0.6,2-0.9,3.4-0.9c0.7,0,1.5,0.1,2.2,0.3s1.4,0.4,1.8,0.7l-0.9,1.6
			c-0.9-0.6-2-0.9-3.2-0.9c-0.9,0-1.5,0.1-2,0.4c-0.4,0.3-0.7,0.7-0.7,1.1c0,0.4,0.1,0.7,0.4,0.9s0.6,0.4,0.9,0.5
			c0.4,0.1,0.9,0.2,1.6,0.3c0.9,0.2,1.6,0.3,2.2,0.5c0.6,0.2,1,0.5,1.4,0.9c0.4,0.4,0.6,1,0.6,1.8c0,1-0.4,1.8-1.3,2.4
			c-0.9,0.6-2,0.9-3.5,0.9C73.4,501.7,72.5,501.6,71.6,501.4z"/>
		<path class="st15" d="M92,490.5v11.1h-1.9v-1.7c-0.4,0.6-0.9,1-1.6,1.3c-0.7,0.3-1.4,0.5-2.2,0.5c-1.5,0-2.7-0.4-3.5-1.2
			c-0.9-0.8-1.3-2-1.3-3.6v-6.4h2v6.2c0,1.1,0.3,1.9,0.8,2.4c0.5,0.6,1.3,0.8,2.2,0.8c1.1,0,1.9-0.3,2.5-1c0.6-0.6,0.9-1.6,0.9-2.7
			v-5.8H92z"/>
		<path class="st15" d="M99.3,490.9c0.7-0.3,1.5-0.5,2.5-0.5v2c-0.1,0-0.3,0-0.5,0c-1.1,0-1.9,0.3-2.6,1c-0.6,0.7-0.9,1.6-0.9,2.8
			v5.5h-2v-11.1h1.9v1.9C98.1,491.7,98.6,491.2,99.3,490.9z"/>
		<path class="st15" d="M119.4,491.6c0.8,0.8,1.2,2,1.2,3.6v6.4h-2v-6.2c0-1.1-0.3-1.9-0.8-2.4c-0.5-0.5-1.3-0.8-2.2-0.8
			c-1.1,0-2,0.3-2.6,1s-0.9,1.6-0.9,2.7v5.7h-2v-11.1h1.9v1.7c0.4-0.6,1-1,1.6-1.3c0.7-0.3,1.5-0.5,2.4-0.5
			C117.4,490.4,118.6,490.8,119.4,491.6z"/>
		<path class="st15" d="M126.2,501c-0.9-0.5-1.6-1.2-2.1-2c-0.5-0.9-0.7-1.8-0.7-2.9s0.2-2.1,0.7-2.9c0.5-0.9,1.2-1.5,2.1-2
			s1.9-0.7,3-0.7c1.1,0,2.1,0.2,3,0.7s1.6,1.2,2.1,2c0.5,0.9,0.7,1.8,0.7,2.9s-0.2,2.1-0.7,2.9s-1.2,1.5-2.1,2s-1.9,0.7-3,0.7
			C128.1,501.7,127.1,501.5,126.2,501z M131.1,499.5c0.6-0.3,1-0.8,1.3-1.4s0.5-1.3,0.5-2c0-0.8-0.2-1.5-0.5-2
			c-0.3-0.6-0.8-1.1-1.3-1.4c-0.6-0.3-1.2-0.5-1.9-0.5s-1.4,0.2-1.9,0.5c-0.6,0.3-1,0.8-1.3,1.4c-0.3,0.6-0.5,1.3-0.5,2
			c0,0.8,0.2,1.5,0.5,2s0.8,1.1,1.3,1.4c0.6,0.3,1.2,0.5,1.9,0.5S130.6,499.8,131.1,499.5z"/>
		<path class="st15" d="M144,501c-0.3,0.3-0.7,0.4-1.1,0.6c-0.4,0.1-0.9,0.2-1.3,0.2c-1.1,0-2-0.3-2.6-0.9c-0.6-0.6-0.9-1.5-0.9-2.6
			v-6.1h-1.9v-1.7h1.9V488h2v2.4h3.2v1.7h-3.2v6c0,0.6,0.2,1.1,0.5,1.4c0.3,0.3,0.7,0.5,1.3,0.5c0.6,0,1.1-0.2,1.6-0.5L144,501z"/>
		<path class="st15" d="M149.9,490.9c0.7-0.3,1.5-0.5,2.5-0.5v2c-0.1,0-0.3,0-0.5,0c-1.1,0-1.9,0.3-2.6,1c-0.6,0.7-0.9,1.6-0.9,2.8
			v5.5h-2v-11.1h1.9v1.9C148.7,491.7,149.3,491.2,149.9,490.9z"/>
		<path class="st15" d="M164.8,496.7h-9c0.1,1,0.6,1.8,1.3,2.4c0.7,0.6,1.6,0.9,2.7,0.9c1.3,0,2.4-0.4,3.2-1.3l1.1,1.3
			c-0.5,0.6-1.1,1-1.9,1.3c-0.8,0.3-1.6,0.5-2.5,0.5c-1.2,0-2.2-0.2-3.1-0.7c-0.9-0.5-1.6-1.2-2.1-2c-0.5-0.9-0.7-1.8-0.7-2.9
			c0-1.1,0.2-2.1,0.7-2.9s1.1-1.5,2-2c0.8-0.5,1.8-0.7,2.9-0.7c1.1,0,2,0.2,2.8,0.7s1.5,1.2,2,2c0.5,0.9,0.7,1.9,0.7,3
			C164.9,496.3,164.9,496.5,164.8,496.7z M157,493c-0.7,0.6-1,1.4-1.1,2.3h7.1c-0.1-0.9-0.5-1.7-1.1-2.3s-1.5-0.9-2.4-0.9
			S157.6,492.4,157,493z"/>
		<path class="st15" d="M173.9,501.4c-0.8-0.2-1.5-0.6-2-0.9l0.8-1.6c0.5,0.4,1.1,0.6,1.8,0.8s1.4,0.3,2.1,0.3
			c1.8,0,2.6-0.5,2.6-1.5c0-0.3-0.1-0.6-0.4-0.8c-0.2-0.2-0.5-0.3-0.9-0.4s-0.9-0.2-1.5-0.3c-0.9-0.1-1.6-0.3-2.2-0.5
			c-0.6-0.2-1.1-0.5-1.5-0.9c-0.4-0.4-0.6-1-0.6-1.8c0-1,0.4-1.8,1.3-2.4c0.8-0.6,2-0.9,3.4-0.9c0.7,0,1.5,0.1,2.2,0.3
			s1.4,0.4,1.8,0.7l-0.9,1.6c-0.9-0.6-2-0.9-3.2-0.9c-0.9,0-1.5,0.1-2,0.4c-0.4,0.3-0.7,0.7-0.7,1.1c0,0.4,0.1,0.7,0.4,0.9
			s0.6,0.4,0.9,0.5c0.4,0.1,0.9,0.2,1.6,0.3c0.9,0.2,1.6,0.3,2.2,0.5c0.6,0.2,1,0.5,1.4,0.9c0.4,0.4,0.6,1,0.6,1.8
			c0,1-0.4,1.8-1.3,2.4c-0.9,0.6-2,0.9-3.5,0.9C175.6,501.7,174.7,501.6,173.9,501.4z"/>
		<path class="st15" d="M183.9,488c-0.3-0.3-0.4-0.6-0.4-0.9s0.1-0.7,0.4-0.9s0.6-0.4,1-0.4s0.7,0.1,1,0.4s0.4,0.5,0.4,0.9
			c0,0.4-0.1,0.7-0.4,1c-0.3,0.3-0.6,0.4-1,0.4S184.1,488.2,183.9,488z M183.8,490.5h2v11.1h-2V490.5z"/>
		<path class="st15" d="M196,501c-0.3,0.3-0.7,0.4-1.1,0.6c-0.4,0.1-0.9,0.2-1.3,0.2c-1.1,0-2-0.3-2.6-0.9c-0.6-0.6-0.9-1.5-0.9-2.6
			v-6.1h-1.9v-1.7h1.9V488h2v2.4h3.2v1.7H192v6c0,0.6,0.2,1.1,0.5,1.4c0.3,0.3,0.7,0.5,1.3,0.5c0.6,0,1.1-0.2,1.6-0.5L196,501z"/>
		<path class="st15" d="M208,496.7h-9c0.1,1,0.6,1.8,1.3,2.4c0.7,0.6,1.6,0.9,2.7,0.9c1.3,0,2.4-0.4,3.2-1.3l1.1,1.3
			c-0.5,0.6-1.1,1-1.9,1.3c-0.8,0.3-1.6,0.5-2.5,0.5c-1.2,0-2.2-0.2-3.1-0.7c-0.9-0.5-1.6-1.2-2.1-2c-0.5-0.9-0.7-1.8-0.7-2.9
			c0-1.1,0.2-2.1,0.7-2.9s1.1-1.5,2-2c0.8-0.5,1.8-0.7,2.9-0.7c1.1,0,2,0.2,2.8,0.7s1.5,1.2,2,2c0.5,0.9,0.7,1.9,0.7,3
			C208.1,496.3,208.1,496.5,208,496.7z M200.1,493c-0.7,0.6-1,1.4-1.1,2.3h7.1c-0.1-0.9-0.5-1.7-1.1-2.3s-1.5-0.9-2.4-0.9
			S200.8,492.4,200.1,493z"/>
		<path class="st15" d="M210.3,492.8c-0.3-0.3-0.4-0.6-0.4-1c0-0.4,0.1-0.7,0.4-1c0.3-0.3,0.6-0.4,1-0.4c0.4,0,0.7,0.1,1,0.4
			s0.4,0.6,0.4,1s-0.1,0.8-0.4,1c-0.3,0.3-0.6,0.4-1,0.4C211,493.3,210.6,493.1,210.3,492.8z M210.3,501.3c-0.3-0.3-0.4-0.6-0.4-1
			c0-0.4,0.1-0.7,0.4-1c0.3-0.3,0.6-0.4,1-0.4c0.4,0,0.7,0.1,1,0.4c0.3,0.3,0.4,0.6,0.4,1s-0.1,0.8-0.4,1c-0.3,0.3-0.6,0.4-1,0.4
			C211,501.7,210.6,501.6,210.3,501.3z"/>
		<path class="st5" d="M230.6,491.6c0.8,0.8,1.2,2,1.2,3.6v6.4h-2v-6.2c0-1.1-0.3-1.9-0.8-2.4c-0.5-0.5-1.3-0.8-2.2-0.8
			c-1.1,0-2,0.3-2.6,1s-0.9,1.6-0.9,2.7v5.7h-2V486h2v6c0.4-0.5,1-0.9,1.6-1.2s1.4-0.4,2.3-0.4C228.6,490.4,229.8,490.8,230.6,491.6
			z"/>
		<path class="st5" d="M241.8,501c-0.3,0.3-0.7,0.4-1.1,0.6c-0.4,0.1-0.9,0.2-1.3,0.2c-1.1,0-2-0.3-2.6-0.9
			c-0.6-0.6-0.9-1.5-0.9-2.6v-6.1H234v-1.7h1.9V488h2v2.4h3.2v1.7h-3.2v6c0,0.6,0.2,1.1,0.5,1.4c0.3,0.3,0.7,0.5,1.3,0.5
			c0.6,0,1.1-0.2,1.6-0.5L241.8,501z"/>
		<path class="st5" d="M250.3,501c-0.3,0.3-0.7,0.4-1.1,0.6c-0.4,0.1-0.9,0.2-1.3,0.2c-1.1,0-2-0.3-2.6-0.9
			c-0.6-0.6-0.9-1.5-0.9-2.6v-6.1h-1.9v-1.7h1.9V488h2v2.4h3.2v1.7h-3.2v6c0,0.6,0.2,1.1,0.5,1.4c0.3,0.3,0.7,0.5,1.3,0.5
			c0.6,0,1.1-0.2,1.6-0.5L250.3,501z"/>
		<path class="st5" d="M261.5,491.1c0.9,0.5,1.5,1.1,2,2c0.5,0.9,0.7,1.8,0.7,3s-0.2,2.1-0.7,3c-0.5,0.9-1.2,1.5-2,2
			c-0.9,0.5-1.8,0.7-2.9,0.7c-0.8,0-1.5-0.2-2.2-0.5s-1.2-0.8-1.7-1.3v5.8h-2v-15.2h1.9v1.8c0.4-0.6,1-1.1,1.7-1.4
			c0.7-0.3,1.4-0.5,2.3-0.5C259.7,490.4,260.6,490.6,261.5,491.1z M260.4,499.5c0.6-0.3,1-0.8,1.3-1.4s0.5-1.3,0.5-2
			c0-0.8-0.2-1.5-0.5-2c-0.3-0.6-0.8-1.1-1.3-1.4s-1.2-0.5-1.9-0.5c-0.7,0-1.3,0.2-1.9,0.5c-0.6,0.3-1,0.8-1.3,1.4s-0.5,1.3-0.5,2
			c0,0.8,0.2,1.5,0.5,2s0.8,1.1,1.3,1.4c0.6,0.3,1.2,0.5,1.9,0.5C259.1,500,259.8,499.8,260.4,499.5z"/>
		<path class="st5" d="M267.6,501.4c-0.8-0.2-1.5-0.6-2-0.9l0.8-1.6c0.5,0.4,1.1,0.6,1.8,0.8s1.4,0.3,2.1,0.3c1.8,0,2.6-0.5,2.6-1.5
			c0-0.3-0.1-0.6-0.4-0.8c-0.2-0.2-0.5-0.3-0.9-0.4s-0.9-0.2-1.5-0.3c-0.9-0.1-1.6-0.3-2.2-0.5c-0.6-0.2-1.1-0.5-1.5-0.9
			c-0.4-0.4-0.6-1-0.6-1.8c0-1,0.4-1.8,1.3-2.4c0.8-0.6,2-0.9,3.4-0.9c0.7,0,1.5,0.1,2.2,0.3s1.4,0.4,1.8,0.7l-0.9,1.6
			c-0.9-0.6-2-0.9-3.2-0.9c-0.9,0-1.5,0.1-2,0.4c-0.4,0.3-0.7,0.7-0.7,1.1c0,0.4,0.1,0.7,0.4,0.9s0.6,0.4,0.9,0.5
			c0.4,0.1,0.9,0.2,1.6,0.3c0.9,0.2,1.6,0.3,2.2,0.5c0.6,0.2,1,0.5,1.4,0.9c0.4,0.4,0.6,1,0.6,1.8c0,1-0.4,1.8-1.3,2.4
			c-0.9,0.6-2,0.9-3.5,0.9C269.3,501.7,268.4,501.6,267.6,501.4z"/>
		<path class="st5" d="M277,492.8c-0.3-0.3-0.4-0.6-0.4-1c0-0.4,0.1-0.7,0.4-1c0.3-0.3,0.6-0.4,1-0.4c0.4,0,0.7,0.1,1,0.4
			s0.4,0.6,0.4,1s-0.1,0.8-0.4,1c-0.3,0.3-0.6,0.4-1,0.4C277.6,493.3,277.3,493.1,277,492.8z M277,501.3c-0.3-0.3-0.4-0.6-0.4-1
			c0-0.4,0.1-0.7,0.4-1c0.3-0.3,0.6-0.4,1-0.4c0.4,0,0.7,0.1,1,0.4c0.3,0.3,0.4,0.6,0.4,1s-0.1,0.8-0.4,1c-0.3,0.3-0.6,0.4-1,0.4
			C277.6,501.7,277.3,501.6,277,501.3z"/>
		<path class="st5" d="M287.7,483.9h1.8l-6.9,19.8h-1.8L287.7,483.9z"/>
		<path class="st5" d="M293.7,483.9h1.8l-6.9,19.8h-1.8L293.7,483.9z"/>
		<path class="st5" d="M295.8,501.4c-0.8-0.2-1.5-0.6-2-0.9l0.8-1.6c0.5,0.4,1.1,0.6,1.8,0.8s1.4,0.3,2.1,0.3c1.8,0,2.6-0.5,2.6-1.5
			c0-0.3-0.1-0.6-0.4-0.8c-0.2-0.2-0.5-0.3-0.9-0.4s-0.9-0.2-1.5-0.3c-0.9-0.1-1.6-0.3-2.2-0.5c-0.6-0.2-1.1-0.5-1.5-0.9
			c-0.4-0.4-0.6-1-0.6-1.8c0-1,0.4-1.8,1.3-2.4c0.8-0.6,2-0.9,3.4-0.9c0.7,0,1.5,0.1,2.2,0.3s1.4,0.4,1.8,0.7l-0.9,1.6
			c-0.9-0.6-2-0.9-3.2-0.9c-0.9,0-1.5,0.1-2,0.4c-0.4,0.3-0.7,0.7-0.7,1.1c0,0.4,0.1,0.7,0.4,0.9s0.6,0.4,0.9,0.5
			c0.4,0.1,0.9,0.2,1.6,0.3c0.9,0.2,1.6,0.3,2.2,0.5c0.6,0.2,1,0.5,1.4,0.9c0.4,0.4,0.6,1,0.6,1.8c0,1-0.4,1.8-1.3,2.4
			c-0.9,0.6-2,0.9-3.5,0.9C297.5,501.7,296.7,501.6,295.8,501.4z"/>
		<path class="st5" d="M323,491.6c0.8,0.8,1.2,2,1.2,3.6v6.4h-2v-6.2c0-1.1-0.2-1.9-0.7-2.4c-0.5-0.5-1.2-0.8-2.1-0.8
			c-1,0-1.8,0.3-2.4,1c-0.6,0.6-0.9,1.6-0.9,2.7v5.7h-2v-6.2c0-1.1-0.2-1.9-0.7-2.4s-1.2-0.8-2.1-0.8c-1,0-1.8,0.3-2.4,1
			c-0.6,0.6-0.9,1.6-0.9,2.7v5.7h-2v-11.1h1.9v1.7c0.4-0.6,0.9-1,1.6-1.3c0.7-0.3,1.4-0.5,2.2-0.5c0.9,0,1.6,0.2,2.3,0.5
			s1.2,0.9,1.6,1.5c0.4-0.6,1-1.1,1.8-1.5c0.7-0.4,1.6-0.5,2.5-0.5C321.1,490.4,322.2,490.8,323,491.6z"/>
		<path class="st5" d="M327.5,501.3c-0.3-0.3-0.4-0.6-0.4-1c0-0.4,0.1-0.7,0.4-1c0.3-0.3,0.6-0.4,1-0.4c0.4,0,0.7,0.1,1,0.4
			c0.3,0.3,0.4,0.6,0.4,1s-0.1,0.8-0.4,1c-0.3,0.3-0.6,0.4-1,0.4C328.1,501.7,327.7,501.6,327.5,501.3z"/>
		<path class="st5" d="M333.3,501.4c-0.8-0.2-1.5-0.6-2-0.9l0.8-1.6c0.5,0.4,1.1,0.6,1.8,0.8s1.4,0.3,2.1,0.3c1.8,0,2.6-0.5,2.6-1.5
			c0-0.3-0.1-0.6-0.4-0.8c-0.2-0.2-0.5-0.3-0.9-0.4s-0.9-0.2-1.5-0.3c-0.9-0.1-1.6-0.3-2.2-0.5c-0.6-0.2-1.1-0.5-1.5-0.9
			c-0.4-0.4-0.6-1-0.6-1.8c0-1,0.4-1.8,1.3-2.4c0.8-0.6,2-0.9,3.4-0.9c0.7,0,1.5,0.1,2.2,0.3s1.4,0.4,1.8,0.7l-0.9,1.6
			c-0.9-0.6-2-0.9-3.2-0.9c-0.9,0-1.5,0.1-2,0.4c-0.4,0.3-0.7,0.7-0.7,1.1c0,0.4,0.1,0.7,0.4,0.9s0.6,0.4,0.9,0.5
			c0.4,0.1,0.9,0.2,1.6,0.3c0.9,0.2,1.6,0.3,2.2,0.5c0.6,0.2,1,0.5,1.4,0.9c0.4,0.4,0.6,1,0.6,1.8c0,1-0.4,1.8-1.3,2.4
			c-0.9,0.6-2,0.9-3.5,0.9C335,501.7,334.2,501.6,333.3,501.4z"/>
		<path class="st5" d="M353.9,490.5v9.6c0,1.9-0.5,3.4-1.4,4.3c-1,0.9-2.4,1.4-4.3,1.4c-1,0-2.1-0.1-3-0.4c-1-0.3-1.7-0.7-2.3-1.2
			l1-1.6c0.5,0.4,1.2,0.8,1.9,1.1s1.6,0.4,2.4,0.4c1.3,0,2.3-0.3,2.9-0.9s0.9-1.6,0.9-2.8v-0.9c-0.5,0.6-1.1,1-1.8,1.3
			c-0.7,0.3-1.4,0.4-2.3,0.4c-1.1,0-2-0.2-2.9-0.7s-1.5-1.1-2-1.9c-0.5-0.8-0.7-1.8-0.7-2.8s0.2-2,0.7-2.8c0.5-0.8,1.2-1.5,2-1.9
			c0.9-0.4,1.8-0.7,2.9-0.7c0.8,0,1.6,0.2,2.3,0.5c0.7,0.3,1.3,0.8,1.8,1.4v-1.7H353.9z M350.1,498.9c0.6-0.3,1-0.7,1.4-1.3
			c0.3-0.6,0.5-1.2,0.5-1.9c0-1.1-0.4-1.9-1.1-2.6s-1.6-1-2.8-1c-1.1,0-2.1,0.3-2.8,1s-1.1,1.5-1.1,2.6c0,0.7,0.2,1.3,0.5,1.9
			s0.8,1,1.4,1.3c0.6,0.3,1.2,0.5,2,0.5C348.9,499.4,349.5,499.2,350.1,498.9z"/>
		<path class="st5" d="M362.2,483.9h1.8l-6.9,19.8h-1.8L362.2,483.9z"/>
		<path class="st5" d="M373.2,494.4c0.8,0.7,1.1,1.7,1.1,2.9c0,0.8-0.2,1.6-0.6,2.3c-0.4,0.7-1,1.2-1.9,1.6
			c-0.8,0.4-1.9,0.6-3.1,0.6c-1,0-2.1-0.2-3-0.5c-1-0.3-1.8-0.8-2.4-1.3l1-1.7c0.5,0.5,1.1,0.9,1.9,1.1s1.6,0.4,2.5,0.4
			c1.1,0,1.9-0.2,2.6-0.7c0.6-0.5,0.9-1.1,0.9-1.9c0-0.8-0.3-1.4-0.9-1.9c-0.6-0.4-1.5-0.7-2.7-0.7h-1.2v-1.5l3.7-4.5H364v-1.8h9.7
			v1.4l-3.8,4.7C371.3,493.2,372.4,493.7,373.2,494.4z"/>
		<path class="st5" d="M385.1,494.4c0.8,0.7,1.1,1.7,1.1,2.9c0,0.8-0.2,1.6-0.6,2.3c-0.4,0.7-1,1.2-1.9,1.6
			c-0.8,0.4-1.9,0.6-3.1,0.6c-1,0-2.1-0.2-3-0.5c-1-0.3-1.8-0.8-2.4-1.3l1-1.7c0.5,0.5,1.1,0.9,1.9,1.1s1.6,0.4,2.5,0.4
			c1.1,0,1.9-0.2,2.6-0.7c0.6-0.5,0.9-1.1,0.9-1.9c0-0.8-0.3-1.4-0.9-1.9c-0.6-0.4-1.5-0.7-2.7-0.7h-1.2v-1.5l3.7-4.5h-7.1v-1.8h9.7
			v1.4l-3.8,4.7C383.2,493.2,384.3,493.7,385.1,494.4z"/>
		<path class="st5" d="M401.3,495.3c0.5,0.6,0.7,1.4,0.7,2.4c0,1.3-0.5,2.3-1.4,2.9c-1,0.7-2.4,1-4.2,1h-7v-14.7h6.6
			c1.7,0,3,0.3,3.9,1s1.4,1.6,1.4,2.8c0,0.8-0.2,1.4-0.5,2c-0.4,0.6-0.8,1-1.4,1.3C400.1,494.2,400.8,494.7,401.3,495.3z
			 M391.5,488.6v4.7h4.3c1.1,0,1.9-0.2,2.5-0.6c0.6-0.4,0.9-1,0.9-1.8c0-0.8-0.3-1.4-0.9-1.8c-0.6-0.4-1.4-0.6-2.5-0.6H391.5z
			 M399,499.3c0.6-0.4,0.9-1,0.9-1.8c0-1.6-1.2-2.5-3.6-2.5h-4.8v4.9h4.8C397.5,499.9,398.4,499.7,399,499.3z"/>
		<path class="st5" d="M415.5,488.3c1.1,0.9,1.6,2.2,1.6,3.8s-0.5,2.8-1.6,3.8c-1.1,0.9-2.6,1.4-4.5,1.4h-3.6v4.5h-2.1v-14.7h5.7
			C412.9,486.9,414.4,487.4,415.5,488.3z M414,494.5c0.7-0.6,1-1.4,1-2.4c0-1.1-0.3-1.9-1-2.4c-0.7-0.6-1.7-0.9-3-0.9h-3.6v6.6h3.6
			C412.3,495.3,413.3,495.1,414,494.5z"/>
		<path class="st5" d="M422.7,488.7h-5v-1.8h12.2v1.8h-5v12.9h-2.1V488.7z"/>
		<path class="st15" d="M84,512.1v14.7h-1.7l-8.8-11v11h-2.1v-14.7h1.7l8.8,11v-11H84z"/>
		<path class="st15" d="M89.9,526.2c-0.9-0.5-1.6-1.2-2.1-2c-0.5-0.9-0.7-1.8-0.7-2.9c0-1.1,0.2-2.1,0.7-2.9c0.5-0.9,1.2-1.5,2.1-2
			c0.9-0.5,1.9-0.7,3-0.7c1.1,0,2.1,0.2,3,0.7c0.9,0.5,1.6,1.2,2.1,2s0.7,1.8,0.7,2.9c0,1.1-0.2,2.1-0.7,2.9c-0.5,0.9-1.2,1.5-2.1,2
			s-1.9,0.7-3,0.7C91.8,526.9,90.8,526.7,89.9,526.2z M94.8,524.7c0.6-0.3,1-0.8,1.3-1.4c0.3-0.6,0.5-1.3,0.5-2c0-0.8-0.2-1.5-0.5-2
			c-0.3-0.6-0.8-1.1-1.3-1.4c-0.6-0.3-1.2-0.5-1.9-0.5s-1.4,0.2-1.9,0.5c-0.6,0.3-1,0.8-1.3,1.4c-0.3,0.6-0.5,1.3-0.5,2
			c0,0.8,0.2,1.5,0.5,2c0.3,0.6,0.8,1.1,1.3,1.4c0.6,0.3,1.2,0.5,1.9,0.5S94.2,525,94.8,524.7z"/>
		<path class="st15" d="M111.8,515.7v11.1h-1.9v-1.7c-0.4,0.6-0.9,1-1.6,1.3c-0.7,0.3-1.4,0.5-2.2,0.5c-1.5,0-2.7-0.4-3.5-1.2
			c-0.9-0.8-1.3-2-1.3-3.6v-6.4h2v6.2c0,1.1,0.3,1.9,0.8,2.4c0.5,0.6,1.3,0.8,2.2,0.8c1.1,0,1.9-0.3,2.5-1s0.9-1.6,0.9-2.7v-5.8
			H111.8z"/>
		<path class="st15" d="M125.5,515.7l-4.9,11.1h-2.1l-4.9-11.1h2.1l3.8,8.9l3.9-8.9H125.5z"/>
		<path class="st15" d="M137.1,521.9h-9c0.1,1,0.6,1.8,1.3,2.4c0.7,0.6,1.6,0.9,2.7,0.9c1.3,0,2.4-0.4,3.2-1.3l1.1,1.3
			c-0.5,0.6-1.1,1-1.9,1.3c-0.8,0.3-1.6,0.5-2.5,0.5c-1.2,0-2.2-0.2-3.1-0.7c-0.9-0.5-1.6-1.2-2.1-2c-0.5-0.9-0.7-1.8-0.7-2.9
			c0-1.1,0.2-2.1,0.7-2.9s1.1-1.5,2-2c0.8-0.5,1.8-0.7,2.9-0.7c1.1,0,2,0.2,2.8,0.7c0.8,0.5,1.5,1.2,2,2c0.5,0.9,0.7,1.9,0.7,3
			C137.2,521.5,137.1,521.7,137.1,521.9z M129.2,518.2c-0.7,0.6-1,1.4-1.1,2.3h7.1c-0.1-0.9-0.5-1.7-1.1-2.3
			c-0.7-0.6-1.5-0.9-2.4-0.9S129.9,517.6,129.2,518.2z"/>
		<path class="st15" d="M147.2,516.7c0.8,0.8,1.2,1.9,1.2,3.4v6.7h-1.9v-1.5c-0.3,0.5-0.8,0.9-1.4,1.2c-0.6,0.3-1.4,0.4-2.2,0.4
			c-1.2,0-2.2-0.3-3-0.9c-0.7-0.6-1.1-1.4-1.1-2.4c0-1,0.4-1.8,1.1-2.4c0.7-0.6,1.8-0.9,3.4-0.9h3.2V520c0-0.9-0.3-1.5-0.8-2
			s-1.2-0.7-2.2-0.7c-0.7,0-1.3,0.1-1.9,0.3s-1.2,0.5-1.6,0.9l-0.8-1.5c0.6-0.5,1.3-0.8,2.1-1.1s1.6-0.4,2.5-0.4
			C145.2,515.6,146.4,516,147.2,516.7z M145.2,524.9c0.6-0.3,1-0.8,1.2-1.5v-1.6h-3.1c-1.7,0-2.6,0.6-2.6,1.7c0,0.6,0.2,1,0.7,1.3
			c0.4,0.3,1,0.5,1.8,0.5C144,525.4,144.7,525.2,145.2,524.9z"/>
		<path class="st15" d="M162.6,515.7v11.1h-1.9v-1.7c-0.4,0.6-0.9,1-1.6,1.3c-0.7,0.3-1.4,0.5-2.2,0.5c-1.5,0-2.7-0.4-3.5-1.2
			c-0.9-0.8-1.3-2-1.3-3.6v-6.4h2v6.2c0,1.1,0.3,1.9,0.8,2.4c0.5,0.6,1.3,0.8,2.2,0.8c1.1,0,1.9-0.3,2.5-1s0.9-1.6,0.9-2.7v-5.8
			H162.6z"/>
		<path class="st15" d="M173.5,526.8l-3.2-4.3l-3.3,4.3h-2.2l4.4-5.7l-4.2-5.4h2.2l3.1,4l3-4h2.2l-4.2,5.4l4.4,5.7H173.5z"/>
		<path class="st15" d="M200.9,516.8c0.8,0.8,1.2,2,1.2,3.6v6.4h-2v-6.2c0-1.1-0.2-1.9-0.7-2.4c-0.5-0.5-1.2-0.8-2.1-0.8
			c-1,0-1.8,0.3-2.4,1c-0.6,0.6-0.9,1.6-0.9,2.7v5.7h-2v-6.2c0-1.1-0.2-1.9-0.7-2.4s-1.2-0.8-2.1-0.8c-1,0-1.8,0.3-2.4,1
			c-0.6,0.6-0.9,1.6-0.9,2.7v5.7h-2v-11.1h1.9v1.7c0.4-0.6,0.9-1,1.6-1.3c0.7-0.3,1.4-0.5,2.2-0.5c0.9,0,1.6,0.2,2.3,0.5
			c0.7,0.4,1.2,0.9,1.6,1.5c0.4-0.6,1-1.1,1.8-1.5s1.6-0.5,2.5-0.5C199,515.6,200.1,516,200.9,516.8z"/>
		<path class="st15" d="M207.7,526.2c-0.9-0.5-1.6-1.2-2.1-2c-0.5-0.9-0.7-1.8-0.7-2.9c0-1.1,0.2-2.1,0.7-2.9c0.5-0.9,1.2-1.5,2.1-2
			c0.9-0.5,1.9-0.7,3-0.7c1.1,0,2.1,0.2,3,0.7c0.9,0.5,1.6,1.2,2.1,2s0.7,1.8,0.7,2.9c0,1.1-0.2,2.1-0.7,2.9c-0.5,0.9-1.2,1.5-2.1,2
			s-1.9,0.7-3,0.7C209.6,526.9,208.6,526.7,207.7,526.2z M212.6,524.7c0.6-0.3,1-0.8,1.3-1.4c0.3-0.6,0.5-1.3,0.5-2
			c0-0.8-0.2-1.5-0.5-2c-0.3-0.6-0.8-1.1-1.3-1.4c-0.6-0.3-1.2-0.5-1.9-0.5s-1.4,0.2-1.9,0.5c-0.6,0.3-1,0.8-1.3,1.4
			c-0.3,0.6-0.5,1.3-0.5,2c0,0.8,0.2,1.5,0.5,2c0.3,0.6,0.8,1.1,1.3,1.4c0.6,0.3,1.2,0.5,1.9,0.5S212,525,212.6,524.7z"/>
		<path class="st15" d="M229.7,511.2v15.6h-1.9v-1.8c-0.4,0.6-1,1.1-1.7,1.4c-0.7,0.3-1.4,0.5-2.3,0.5c-1.1,0-2-0.2-2.9-0.7
			c-0.9-0.5-1.5-1.1-2-2c-0.5-0.9-0.7-1.9-0.7-3s0.2-2.1,0.7-3c0.5-0.9,1.2-1.5,2-2c0.9-0.5,1.8-0.7,2.9-0.7c0.8,0,1.5,0.2,2.2,0.5
			s1.2,0.7,1.7,1.3v-6.1H229.7z M225.9,524.7c0.6-0.3,1-0.8,1.3-1.4c0.3-0.6,0.5-1.3,0.5-2c0-0.8-0.2-1.5-0.5-2
			c-0.3-0.6-0.8-1.1-1.3-1.4c-0.6-0.3-1.2-0.5-1.9-0.5c-0.7,0-1.4,0.2-1.9,0.5c-0.6,0.3-1,0.8-1.3,1.4c-0.3,0.6-0.5,1.3-0.5,2
			c0,0.8,0.2,1.5,0.5,2c0.3,0.6,0.8,1.1,1.3,1.4c0.6,0.3,1.2,0.5,1.9,0.5C224.7,525.2,225.4,525,225.9,524.7z"/>
		<path class="st15" d="M243.6,521.9h-9c0.1,1,0.6,1.8,1.3,2.4c0.7,0.6,1.6,0.9,2.7,0.9c1.3,0,2.4-0.4,3.2-1.3l1.1,1.3
			c-0.5,0.6-1.1,1-1.9,1.3c-0.8,0.3-1.6,0.5-2.5,0.5c-1.2,0-2.2-0.2-3.1-0.7c-0.9-0.5-1.6-1.2-2.1-2c-0.5-0.9-0.7-1.8-0.7-2.9
			c0-1.1,0.2-2.1,0.7-2.9s1.1-1.5,2-2c0.8-0.5,1.8-0.7,2.9-0.7c1.1,0,2,0.2,2.8,0.7c0.8,0.5,1.5,1.2,2,2c0.5,0.9,0.7,1.9,0.7,3
			C243.6,521.5,243.6,521.7,243.6,521.9z M234.3,511.3h2.6l2.9,2.7h-1.9L234.3,511.3z M235.7,518.2c-0.7,0.6-1,1.4-1.1,2.3h7.1
			c-0.1-0.9-0.5-1.7-1.1-2.3c-0.7-0.6-1.5-0.9-2.4-0.9S236.4,517.6,235.7,518.2z"/>
		<path class="st15" d="M246.4,511.2h2v15.6h-2V511.2z"/>
		<path class="st15" d="M262.3,521.9h-9c0.1,1,0.6,1.8,1.3,2.4c0.7,0.6,1.6,0.9,2.7,0.9c1.3,0,2.4-0.4,3.2-1.3l1.1,1.3
			c-0.5,0.6-1.1,1-1.9,1.3c-0.8,0.3-1.6,0.5-2.5,0.5c-1.2,0-2.2-0.2-3.1-0.7c-0.9-0.5-1.6-1.2-2.1-2c-0.5-0.9-0.7-1.8-0.7-2.9
			c0-1.1,0.2-2.1,0.7-2.9s1.1-1.5,2-2c0.8-0.5,1.8-0.7,2.9-0.7c1.1,0,2,0.2,2.8,0.7c0.8,0.5,1.5,1.2,2,2c0.5,0.9,0.7,1.9,0.7,3
			C262.3,521.5,262.3,521.7,262.3,521.9z M254.4,518.2c-0.7,0.6-1,1.4-1.1,2.3h7.1c-0.1-0.9-0.5-1.7-1.1-2.3
			c-0.7-0.6-1.5-0.9-2.4-0.9S255.1,517.6,254.4,518.2z"/>
		<path class="st15" d="M265.7,526.6c-0.8-0.2-1.5-0.6-2-0.9l0.8-1.6c0.5,0.3,1.1,0.6,1.8,0.8s1.4,0.3,2.1,0.3
			c1.8,0,2.6-0.5,2.6-1.5c0-0.3-0.1-0.6-0.4-0.8s-0.5-0.3-0.9-0.4c-0.4-0.1-0.9-0.2-1.5-0.3c-0.9-0.1-1.6-0.3-2.2-0.5
			c-0.6-0.2-1.1-0.5-1.5-0.9c-0.4-0.4-0.6-1-0.6-1.8c0-1,0.4-1.8,1.3-2.4s2-0.9,3.4-0.9c0.7,0,1.5,0.1,2.2,0.3
			c0.7,0.2,1.4,0.4,1.8,0.7l-0.9,1.6c-0.9-0.6-2-0.9-3.2-0.9c-0.9,0-1.5,0.1-2,0.4c-0.4,0.3-0.7,0.7-0.7,1.1c0,0.4,0.1,0.7,0.4,0.9
			s0.6,0.4,0.9,0.5c0.4,0.1,0.9,0.2,1.6,0.3c0.9,0.2,1.6,0.3,2.2,0.5s1,0.5,1.4,0.9c0.4,0.4,0.6,1,0.6,1.8c0,1-0.4,1.8-1.3,2.4
			c-0.9,0.6-2,0.9-3.5,0.9C267.4,526.9,266.5,526.8,265.7,526.6z"/>
		<path class="st15" d="M278.5,530.8c-0.4-0.1-0.8-0.3-1-0.5l0.7-1.6c0.4,0.3,1,0.5,1.6,0.5c0.5,0,0.9-0.2,1.2-0.5
			c0.3-0.3,0.4-0.8,0.4-1.5v-11.7h2v11.6c0,1.1-0.3,2.1-0.9,2.7c-0.6,0.7-1.5,1-2.6,1C279.4,531,278.9,531,278.5,530.8z
			 M281.4,513.2c-0.3-0.3-0.4-0.6-0.4-0.9c0-0.4,0.1-0.7,0.4-0.9c0.3-0.3,0.6-0.4,1-0.4c0.4,0,0.7,0.1,1,0.4
			c0.3,0.2,0.4,0.5,0.4,0.9c0,0.4-0.1,0.7-0.4,1c-0.3,0.3-0.6,0.4-1,0.4C282,513.5,281.7,513.4,281.4,513.2z"/>
		<path class="st15" d="M297.6,515.7v11.1h-1.9v-1.7c-0.4,0.6-0.9,1-1.6,1.3c-0.7,0.3-1.4,0.5-2.2,0.5c-1.5,0-2.7-0.4-3.5-1.2
			c-0.9-0.8-1.3-2-1.3-3.6v-6.4h2v6.2c0,1.1,0.3,1.9,0.8,2.4c0.5,0.6,1.3,0.8,2.2,0.8c1.1,0,1.9-0.3,2.5-1s0.9-1.6,0.9-2.7v-5.8
			H297.6z"/>
		<path class="st15" d="M302.1,526.6c-0.8-0.2-1.5-0.6-2-0.9l0.8-1.6c0.5,0.3,1.1,0.6,1.8,0.8s1.4,0.3,2.1,0.3
			c1.8,0,2.6-0.5,2.6-1.5c0-0.3-0.1-0.6-0.4-0.8s-0.5-0.3-0.9-0.4c-0.4-0.1-0.9-0.2-1.5-0.3c-0.9-0.1-1.6-0.3-2.2-0.5
			c-0.6-0.2-1.1-0.5-1.5-0.9c-0.4-0.4-0.6-1-0.6-1.8c0-1,0.4-1.8,1.3-2.4s2-0.9,3.4-0.9c0.7,0,1.5,0.1,2.2,0.3
			c0.7,0.2,1.4,0.4,1.8,0.7l-0.9,1.6c-0.9-0.6-2-0.9-3.2-0.9c-0.9,0-1.5,0.1-2,0.4c-0.4,0.3-0.7,0.7-0.7,1.1c0,0.4,0.1,0.7,0.4,0.9
			s0.6,0.4,0.9,0.5c0.4,0.1,0.9,0.2,1.6,0.3c0.9,0.2,1.6,0.3,2.2,0.5s1,0.5,1.4,0.9c0.4,0.4,0.6,1,0.6,1.8c0,1-0.4,1.8-1.3,2.4
			c-0.9,0.6-2,0.9-3.5,0.9C303.8,526.9,302.9,526.8,302.1,526.6z"/>
		<path class="st15" d="M322.5,515.7v15.2h-2v-5.8c-0.5,0.6-1,1-1.7,1.3c-0.7,0.3-1.4,0.5-2.2,0.5c-1.1,0-2-0.2-2.9-0.7
			c-0.9-0.5-1.5-1.1-2-2c-0.5-0.9-0.7-1.9-0.7-3s0.2-2.1,0.7-3c0.5-0.9,1.2-1.5,2-2c0.9-0.5,1.8-0.7,2.9-0.7c0.8,0,1.6,0.2,2.3,0.5
			c0.7,0.3,1.3,0.8,1.7,1.4v-1.8H322.5z M318.7,524.7c0.6-0.3,1-0.8,1.3-1.4c0.3-0.6,0.5-1.3,0.5-2c0-0.8-0.2-1.4-0.5-2
			c-0.3-0.6-0.8-1-1.3-1.4c-0.6-0.3-1.2-0.5-1.9-0.5c-0.7,0-1.4,0.2-1.9,0.5c-0.6,0.3-1,0.8-1.3,1.4c-0.3,0.6-0.5,1.3-0.5,2
			c0,0.8,0.2,1.5,0.5,2c0.3,0.6,0.8,1.1,1.3,1.4c0.6,0.3,1.2,0.5,1.9,0.5C317.5,525.2,318.1,525,318.7,524.7z"/>
		<path class="st15" d="M336.7,515.7v11.1h-1.9v-1.7c-0.4,0.6-0.9,1-1.6,1.3c-0.7,0.3-1.4,0.5-2.2,0.5c-1.5,0-2.7-0.4-3.5-1.2
			c-0.9-0.8-1.3-2-1.3-3.6v-6.4h2v6.2c0,1.1,0.3,1.9,0.8,2.4c0.5,0.6,1.3,0.8,2.2,0.8c1.1,0,1.9-0.3,2.5-1s0.9-1.6,0.9-2.7v-5.8
			H336.7z"/>
		<path class="st15" d="M342,511.5c0.3,0.3,0.4,0.6,0.4,1c0,0.2,0,0.4-0.1,0.6s-0.1,0.5-0.3,0.9l-1,2.9h-1.3l0.8-3.1
			c-0.3-0.1-0.5-0.3-0.6-0.5c-0.2-0.2-0.2-0.5-0.2-0.8c0-0.4,0.1-0.8,0.4-1c0.3-0.3,0.6-0.4,1-0.4
			C341.4,511.1,341.8,511.2,342,511.5z"/>
		<path class="st15" d="M352.7,516.7c0.8,0.8,1.2,1.9,1.2,3.4v6.7H352v-1.5c-0.3,0.5-0.8,0.9-1.4,1.2c-0.6,0.3-1.4,0.4-2.2,0.4
			c-1.2,0-2.2-0.3-3-0.9c-0.7-0.6-1.1-1.4-1.1-2.4c0-1,0.4-1.8,1.1-2.4c0.7-0.6,1.8-0.9,3.4-0.9h3.2V520c0-0.9-0.3-1.5-0.8-2
			s-1.2-0.7-2.2-0.7c-0.7,0-1.3,0.1-1.9,0.3s-1.2,0.5-1.6,0.9l-0.8-1.5c0.6-0.5,1.3-0.8,2.1-1.1s1.6-0.4,2.5-0.4
			C350.7,515.6,351.9,516,352.7,516.7z M345.5,511.3h2.6l2.9,2.7H349L345.5,511.3z M350.7,524.9c0.6-0.3,1-0.8,1.2-1.5v-1.6h-3.1
			c-1.7,0-2.6,0.6-2.6,1.7c0,0.6,0.2,1,0.7,1.3c0.4,0.3,1,0.5,1.8,0.5C349.5,525.4,350.1,525.2,350.7,524.9z"/>
		<path class="st15" d="M362.6,520.2h5.6v1.7h-5.6V520.2z"/>
		<path class="st15" d="M383.4,523.2h-2.8v3.6h-2v-3.6h-8.2v-1.5l7.5-9.6h2.3l-7.2,9.3h5.6v-3.2h2v3.2h2.8V523.2z"/>
		<path class="st15" d="M387.6,526.1c-0.9-0.6-1.6-1.5-2.1-2.6c-0.5-1.1-0.8-2.5-0.8-4s0.3-2.9,0.8-4c0.5-1.1,1.2-2,2.1-2.6
			c0.9-0.6,1.9-0.9,3.1-0.9c1.1,0,2.2,0.3,3.1,0.9c0.9,0.6,1.6,1.5,2.1,2.6c0.5,1.1,0.8,2.5,0.8,4s-0.3,2.9-0.8,4
			c-0.5,1.1-1.2,2-2.1,2.6c-0.9,0.6-1.9,0.9-3.1,0.9C389.5,527,388.5,526.7,387.6,526.1z M393.5,523.7c0.7-1,1.1-2.4,1.1-4.2
			s-0.4-3.2-1.1-4.2c-0.7-1-1.6-1.4-2.8-1.4c-1.2,0-2.1,0.5-2.8,1.4c-0.7,1-1.1,2.4-1.1,4.2s0.4,3.2,1.1,4.2c0.7,1,1.7,1.4,2.8,1.4
			C391.8,525.1,392.8,524.6,393.5,523.7z"/>
		<path class="st15" d="M399.4,518.9c-0.6-0.7-0.9-1.7-0.9-2.9c0-1.2,0.3-2.2,0.9-2.9s1.5-1.1,2.5-1.1c1,0,1.8,0.4,2.5,1.1
			c0.6,0.7,0.9,1.7,0.9,2.9s-0.3,2.2-0.9,2.9c-0.6,0.7-1.4,1.1-2.5,1.1C400.8,520,400,519.6,399.4,518.9z M403.4,518.1
			c0.4-0.5,0.5-1.2,0.5-2.1s-0.2-1.6-0.5-2.1s-0.9-0.7-1.5-0.7c-0.6,0-1.1,0.3-1.5,0.8s-0.6,1.2-0.6,2.1s0.2,1.6,0.6,2.1
			s0.9,0.8,1.5,0.8C402.5,518.8,403,518.6,403.4,518.1z M410.7,512.1h1.6l-10,14.7h-1.6L410.7,512.1z M408.7,525.8
			c-0.6-0.7-0.9-1.7-0.9-2.9s0.3-2.2,0.9-2.9c0.6-0.7,1.4-1.1,2.5-1.1c1,0,1.8,0.4,2.5,1.1c0.6,0.7,0.9,1.7,0.9,2.9
			c0,1.2-0.3,2.2-0.9,2.9c-0.6,0.7-1.5,1.1-2.5,1.1C410.1,526.9,409.3,526.6,408.7,525.8z M412.6,525c0.4-0.5,0.6-1.2,0.6-2.1
			s-0.2-1.6-0.6-2.1c-0.4-0.5-0.9-0.8-1.5-0.8c-0.6,0-1.1,0.2-1.5,0.7c-0.4,0.5-0.5,1.2-0.5,2.1s0.2,1.6,0.5,2.1
			c0.4,0.5,0.9,0.7,1.5,0.7C411.8,525.7,412.3,525.5,412.6,525z"/>
		<path class="st15" d="M71.8,551.6c-0.4-1.7-0.7-3.5-0.7-5.4s0.2-3.7,0.7-5.4c0.4-1.7,1-3.2,1.8-4.4h1.9c-0.8,1.5-1.5,3-1.8,4.6
			c-0.4,1.6-0.6,3.3-0.6,5.2c0,1.9,0.2,3.6,0.6,5.2c0.4,1.6,1,3.2,1.8,4.6h-1.9C72.9,554.8,72.2,553.3,71.8,551.6z"/>
		<path class="st15" d="M79.5,551.7c-1-0.3-1.8-0.8-2.4-1.3l0.8-1.6c0.6,0.5,1.3,0.9,2.2,1.2c0.9,0.3,1.8,0.5,2.7,0.5
			c1.2,0,2.1-0.2,2.7-0.6s0.9-1,0.9-1.6c0-0.5-0.2-0.9-0.5-1.2c-0.3-0.3-0.7-0.6-1.2-0.7c-0.5-0.2-1.2-0.4-2-0.6
			c-1.1-0.3-2-0.5-2.7-0.8c-0.7-0.3-1.3-0.7-1.7-1.2c-0.5-0.6-0.7-1.3-0.7-2.2c0-0.8,0.2-1.5,0.6-2.1c0.4-0.6,1-1.1,1.9-1.5
			s1.9-0.6,3.1-0.6c0.9,0,1.7,0.1,2.6,0.3c0.8,0.2,1.6,0.5,2.2,1l-0.7,1.7c-0.6-0.4-1.3-0.7-2-0.9c-0.7-0.2-1.4-0.3-2.1-0.3
			c-1.2,0-2.1,0.2-2.7,0.7c-0.6,0.4-0.9,1-0.9,1.7c0,0.5,0.2,0.9,0.5,1.2c0.3,0.3,0.8,0.6,1.2,0.7s1.2,0.4,2,0.6
			c1.1,0.3,2,0.5,2.7,0.8s1.3,0.7,1.7,1.2c0.5,0.5,0.7,1.3,0.7,2.2c0,0.8-0.2,1.5-0.6,2.1c-0.4,0.6-1.1,1.1-1.9,1.5
			c-0.9,0.4-1.9,0.6-3.1,0.6C81.6,552.2,80.6,552,79.5,551.7z"/>
		<path class="st15" d="M94.2,539.1h-5v-1.8h12.2v1.8h-5V552h-2.1V539.1z"/>
		<path class="st15" d="M106,551.2c-1.2-0.7-2.1-1.5-2.8-2.7c-0.7-1.1-1-2.4-1-3.8s0.3-2.7,1-3.8c0.7-1.1,1.6-2,2.8-2.7
			c1.2-0.7,2.5-1,4-1c1.5,0,2.8,0.3,4,1c1.2,0.7,2.1,1.5,2.8,2.7s1,2.4,1,3.9s-0.3,2.7-1,3.9s-1.6,2-2.8,2.7c-1.2,0.7-2.5,1-4,1
			C108.5,552.2,107.2,551.9,106,551.2z M112.9,549.6c0.9-0.5,1.5-1.2,2-2c0.5-0.9,0.7-1.8,0.7-2.9s-0.2-2-0.7-2.9s-1.2-1.5-2-2
			c-0.9-0.5-1.8-0.7-2.9-0.7s-2.1,0.2-2.9,0.7s-1.6,1.2-2.1,2s-0.7,1.8-0.7,2.9s0.2,2,0.7,2.9c0.5,0.9,1.2,1.5,2.1,2
			s1.9,0.7,2.9,0.7S112.1,550.1,112.9,549.6z"/>
		<path class="st15" d="M131.3,538.7c1.1,0.9,1.6,2.2,1.6,3.8c0,1.6-0.5,2.8-1.6,3.8c-1.1,0.9-2.6,1.4-4.5,1.4h-3.6v4.5H121v-14.7
			h5.7C128.7,537.3,130.2,537.8,131.3,538.7z M129.7,544.9c0.7-0.6,1-1.4,1-2.4c0-1.1-0.3-1.9-1-2.4c-0.7-0.6-1.7-0.9-3-0.9h-3.6
			v6.6h3.6C128,545.7,129,545.5,129.7,544.9z"/>
		<path class="st15" d="M149.1,541.9c0.8,0.8,1.2,1.9,1.2,3.4v6.7h-1.9v-1.5c-0.3,0.5-0.8,0.9-1.4,1.2c-0.6,0.3-1.4,0.4-2.2,0.4
			c-1.2,0-2.2-0.3-3-0.9c-0.7-0.6-1.1-1.4-1.1-2.4c0-1,0.4-1.8,1.1-2.4c0.7-0.6,1.8-0.9,3.4-0.9h3.2v-0.4c0-0.9-0.3-1.5-0.8-2
			s-1.2-0.7-2.2-0.7c-0.7,0-1.3,0.1-1.9,0.3s-1.2,0.5-1.6,0.9l-0.8-1.5c0.6-0.5,1.3-0.8,2.1-1.1s1.6-0.4,2.5-0.4
			C147.1,540.8,148.3,541.2,149.1,541.9z M147.1,550.1c0.6-0.3,1-0.8,1.2-1.5v-1.6h-3.1c-1.7,0-2.6,0.6-2.6,1.7c0,0.6,0.2,1,0.7,1.3
			c0.4,0.3,1,0.5,1.8,0.5C145.9,550.6,146.6,550.4,147.1,550.1z"/>
		<path class="st15" d="M164.5,540.9V552h-1.9v-1.7c-0.4,0.6-0.9,1-1.6,1.3c-0.7,0.3-1.4,0.5-2.2,0.5c-1.5,0-2.7-0.4-3.5-1.2
			c-0.9-0.8-1.3-2-1.3-3.6v-6.4h2v6.2c0,1.1,0.3,1.9,0.8,2.4c0.5,0.6,1.3,0.8,2.2,0.8c1.1,0,1.9-0.3,2.5-1s0.9-1.6,0.9-2.7v-5.8
			H164.5z"/>
		<path class="st5" d="M182,544.8c0.8,0.7,1.1,1.7,1.1,2.9c0,0.8-0.2,1.6-0.6,2.3c-0.4,0.7-1,1.2-1.9,1.6c-0.8,0.4-1.9,0.6-3.1,0.6
			c-1,0-2.1-0.2-3-0.5c-1-0.3-1.8-0.8-2.4-1.3l1-1.7c0.5,0.5,1.1,0.9,1.9,1.1s1.6,0.4,2.5,0.4c1.1,0,1.9-0.2,2.6-0.7
			c0.6-0.5,0.9-1.1,0.9-1.9c0-0.8-0.3-1.4-0.9-1.9c-0.6-0.4-1.5-0.7-2.7-0.7h-1.2v-1.5l3.7-4.5h-7.1v-1.8h9.7v1.4l-3.8,4.7
			C180.1,543.6,181.2,544.1,182,544.8z"/>
		<path class="st5" d="M194,543.6c0.8,0.4,1.4,0.9,1.8,1.6c0.4,0.7,0.7,1.5,0.7,2.3c0,0.9-0.2,1.7-0.7,2.4c-0.5,0.7-1.1,1.2-1.9,1.6
			c-0.8,0.4-1.7,0.6-2.7,0.6c-2,0-3.5-0.6-4.6-1.9c-1.1-1.3-1.6-3.1-1.6-5.4c0-1.6,0.3-3,0.9-4.2c0.6-1.2,1.4-2,2.4-2.6
			c1-0.6,2.3-0.9,3.6-0.9c0.7,0,1.4,0.1,2,0.2c0.6,0.1,1.2,0.4,1.6,0.6l-0.8,1.6c-0.7-0.5-1.6-0.7-2.8-0.7c-1.5,0-2.7,0.5-3.6,1.4
			c-0.9,0.9-1.3,2.3-1.3,4.1c0,0.2,0,0.4,0,0.5c0.4-0.6,1-1.1,1.7-1.4c0.7-0.3,1.6-0.5,2.5-0.5C192.4,543.1,193.3,543.3,194,543.6z
			 M193.5,549.7c0.6-0.5,0.9-1.2,0.9-2.1s-0.3-1.6-0.9-2.1s-1.4-0.8-2.4-0.8c-0.7,0-1.2,0.1-1.8,0.4s-0.9,0.6-1.2,1
			c-0.3,0.4-0.4,0.9-0.4,1.4c0,0.5,0.1,1,0.4,1.4s0.7,0.8,1.2,1c0.5,0.3,1.2,0.4,1.9,0.4C192.1,550.5,192.9,550.2,193.5,549.7z"/>
		<path class="st5" d="M202.6,537.3V552h-2.1v-12.9h-3.3v-1.8H202.6z"/>
		<path class="st5" d="M216.5,537.3v1.4l-5.9,13.3h-2.2l5.8-12.9h-6.7v2.6h-2v-4.5H216.5z"/>
		<path class="st5" d="M227.1,544.8c0.8,0.7,1.1,1.7,1.1,2.9c0,0.8-0.2,1.6-0.6,2.3c-0.4,0.7-1,1.2-1.9,1.6
			c-0.8,0.4-1.9,0.6-3.1,0.6c-1,0-2.1-0.2-3-0.5c-1-0.3-1.8-0.8-2.4-1.3l1-1.7c0.5,0.5,1.1,0.9,1.9,1.1s1.6,0.4,2.5,0.4
			c1.1,0,1.9-0.2,2.6-0.7c0.6-0.5,0.9-1.1,0.9-1.9c0-0.8-0.3-1.4-0.9-1.9c-0.6-0.4-1.5-0.7-2.7-0.7h-1.2v-1.5l3.7-4.5H218v-1.8h9.7
			v1.4l-3.8,4.7C225.3,543.6,226.4,544.1,227.1,544.8z"/>
		<path class="st15" d="M229.9,556.1c0.8-1.5,1.5-3,1.9-4.6c0.4-1.6,0.6-3.3,0.6-5.2c0-1.9-0.2-3.6-0.6-5.2c-0.4-1.6-1-3.1-1.9-4.6
			h1.9c0.8,1.3,1.4,2.7,1.9,4.4c0.4,1.7,0.7,3.5,0.7,5.4c0,1.9-0.2,3.7-0.7,5.4c-0.4,1.7-1.1,3.2-1.9,4.4H229.9z"/>
	</g>
	<g>
		<path class="st13" d="M93.2,432.4l-5.1,15.4h-2.3l-4.2-12.3l-4.2,12.3H75l-5.1-15.4h2.3l4.2,12.5l4.3-12.5h2l4.2,12.6l4.2-12.6
			H93.2z"/>
		<path class="st13" d="M105.2,444h-8.2l-1.7,3.9h-2.3l7-15.4h2.2l7,15.4h-2.3L105.2,444z M104.5,442.2l-3.3-7.5l-3.3,7.5H104.5z"/>
		<path class="st13" d="M113.8,434.3h-5.3v-1.9h12.7v1.9H116v13.5h-2.2V434.3z"/>
		<path class="st13" d="M126.2,447c-1.2-0.7-2.2-1.6-2.9-2.8s-1.1-2.5-1.1-4s0.4-2.8,1.1-4s1.7-2.1,2.9-2.8c1.2-0.7,2.6-1,4.2-1
			c1.2,0,2.3,0.2,3.3,0.6c1,0.4,1.8,1,2.6,1.8l-1.4,1.4c-1.2-1.2-2.6-1.8-4.3-1.8c-1.1,0-2.2,0.3-3.1,0.8c-0.9,0.5-1.6,1.2-2.2,2.1
			c-0.5,0.9-0.8,1.9-0.8,3s0.3,2.1,0.8,3c0.5,0.9,1.2,1.6,2.2,2.1c0.9,0.5,2,0.8,3.1,0.8c1.7,0,3.2-0.6,4.3-1.8l1.4,1.4
			c-0.7,0.8-1.6,1.4-2.6,1.8c-1,0.4-2.1,0.6-3.3,0.6C128.8,448,127.4,447.7,126.2,447z"/>
		<path class="st13" d="M152.6,432.4v15.4h-2.2V441h-8.8v6.9h-2.2v-15.4h2.2v6.6h8.8v-6.6H152.6z"/>
		<path class="st13" d="M158.4,447.5c-1.1-0.4-1.9-0.8-2.5-1.4l0.8-1.7c0.6,0.5,1.3,1,2.3,1.3c0.9,0.3,1.9,0.5,2.8,0.5
			c1.3,0,2.2-0.2,2.9-0.6c0.6-0.4,0.9-1,0.9-1.7c0-0.5-0.2-1-0.5-1.3s-0.8-0.6-1.3-0.8c-0.5-0.2-1.2-0.4-2.1-0.6
			c-1.2-0.3-2.1-0.6-2.8-0.8c-0.7-0.3-1.3-0.7-1.8-1.3s-0.8-1.4-0.8-2.3c0-0.8,0.2-1.6,0.6-2.2s1.1-1.2,2-1.6c0.9-0.4,2-0.6,3.3-0.6
			c0.9,0,1.8,0.1,2.7,0.4c0.9,0.2,1.6,0.6,2.3,1l-0.7,1.8c-0.6-0.4-1.3-0.7-2.1-0.9c-0.7-0.2-1.5-0.3-2.2-0.3
			c-1.2,0-2.2,0.2-2.8,0.7c-0.6,0.5-0.9,1-0.9,1.8c0,0.5,0.2,1,0.5,1.3s0.8,0.6,1.3,0.8s1.2,0.4,2.1,0.6c1.2,0.3,2.1,0.6,2.8,0.8
			c0.7,0.3,1.3,0.7,1.8,1.3c0.5,0.6,0.8,1.3,0.8,2.3c0,0.8-0.2,1.5-0.7,2.2c-0.4,0.7-1.1,1.2-2,1.6s-2,0.6-3.3,0.6
			C160.6,448,159.4,447.8,158.4,447.5z"/>
		<path class="st13" d="M173.7,434.3h-5.3v-1.9h12.7v1.9h-5.3v13.5h-2.2V434.3z"/>
		<path class="st13" d="M186.1,447c-1.2-0.7-2.2-1.6-2.9-2.8c-0.7-1.2-1.1-2.5-1.1-4s0.4-2.8,1.1-4c0.7-1.2,1.7-2.1,2.9-2.8
			c1.2-0.7,2.6-1,4.2-1c1.5,0,2.9,0.3,4.2,1c1.2,0.7,2.2,1.6,2.9,2.8s1.1,2.5,1.1,4s-0.4,2.8-1.1,4s-1.7,2.1-2.9,2.8
			c-1.2,0.7-2.6,1-4.2,1C188.8,448,187.4,447.7,186.1,447z M193.4,445.3c0.9-0.5,1.6-1.2,2.1-2.1c0.5-0.9,0.8-1.9,0.8-3
			s-0.3-2.1-0.8-3c-0.5-0.9-1.2-1.6-2.1-2.1c-0.9-0.5-1.9-0.8-3-0.8c-1.1,0-2.2,0.3-3.1,0.8c-0.9,0.5-1.6,1.2-2.2,2.1
			c-0.5,0.9-0.8,1.9-0.8,3s0.3,2.1,0.8,3c0.5,0.9,1.2,1.6,2.2,2.1c0.9,0.5,1.9,0.8,3.1,0.8C191.4,446.1,192.5,445.8,193.4,445.3z"/>
		<path class="st13" d="M212.1,447.8l-3.3-4.7c-0.4,0-0.7,0-1,0H204v4.7h-2.2v-15.4h6c2,0,3.6,0.5,4.7,1.4c1.1,1,1.7,2.3,1.7,3.9
			c0,1.2-0.3,2.2-0.9,3c-0.6,0.8-1.4,1.4-2.5,1.8l3.7,5.2H212.1z M211,440.4c0.7-0.6,1.1-1.5,1.1-2.6c0-1.1-0.4-2-1.1-2.6
			c-0.7-0.6-1.8-0.9-3.2-0.9H204v6.9h3.7C209.2,441.3,210.2,441,211,440.4z"/>
		<path class="st13" d="M229,445.9v1.9h-11.2v-15.4h10.9v1.9H220v4.7h7.7v1.9H220v5H229z"/>
	</g>
</g>
</svg>
