<?xml version="1.0" encoding="utf-8"?>
<!-- Generator: Adobe Illustrator 23.0.3, SVG Export Plug-In . SVG Version: 6.00 Build 0)  -->
<svg version="1.1" xmlns="http://www.w3.org/2000/svg" xmlns:xlink="http://www.w3.org/1999/xlink" x="0px" y="0px"
	 viewBox="0 0 400 420" style="enable-background:new 0 0 400 420;" xml:space="preserve">
<style type="text/css">
	.st0{display:none;fill:#F2F2F2;}
	.st1{display:none;fill:#6ED397;}
	.st2{display:none;fill:#F9F9FD;}
	.st3{fill:#F2F2F2;}
	.st4{fill:#000333;}
	.st5{fill:#4C4C4C;}
	.st6{fill:#3F3D56;}
	.st7{fill:#3195FF;}
	.st8{fill:#FFB8B8;}
	.st9{fill:#2F2E41;}
</style>
<g id="Calque_1">
	<g id="b5fd0f28-1473-49d3-b766-fd4b3ddcb807">
		<title>quitting time</title>
		<path class="st0" d="M152.1,246.5h83.4c2.4,0,4.4,2.3,4.4,5.1v22.5c0,2.8-2,5.1-4.4,5.1h-83.4c-2.4,0-4.4-2.3-4.4-5.1v-22.5
			C147.8,248.8,149.7,246.5,152.1,246.5z"/>
		<path class="st1" d="M236.5,274.2h-85.2c-1.9,0-3.4-1.5-3.4-3.4v-20.9c0-1.9,1.5-3.4,3.4-3.4h85.2c1.9,0,3.4,1.5,3.4,3.4v20.9
			C239.9,272.7,238.4,274.2,236.5,274.2z"/>
		<path class="st2" d="M235.4,273.1h-83.1c-1.9,0-3.4-1.5-3.4-3.4V251c0-1.9,1.5-3.4,3.4-3.4h83.1c1.9,0,3.4,1.5,3.4,3.4v18.7
			C238.8,271.6,237.3,273.1,235.4,273.1z"/>
	</g>
</g>
<g id="Calque_2">
	<path class="st3" d="M257,130H27c-8.3,0-15-6.7-15-15V25c0-8.3,6.7-15,15-15h230c8.3,0,15,6.7,15,15v90
		C272,123.3,265.3,130,257,130z"/>
	<g>
		<path class="st4" d="M35.7,30.5c-0.9-0.5-1.6-1.2-2.1-2.1c-0.5-0.9-0.8-1.9-0.8-2.9c0-1.1,0.3-2.1,0.8-2.9
			c0.5-0.9,1.2-1.6,2.1-2.1c0.9-0.5,1.9-0.7,3.1-0.7c1.1,0,2.1,0.2,3,0.7s1.6,1.2,2.1,2c0.5,0.9,0.8,1.8,0.8,2.9s-0.3,2.1-0.8,2.9
			c-0.5,0.9-1.2,1.6-2.1,2c-0.9,0.5-1.9,0.7-3,0.7C37.6,31.2,36.6,31,35.7,30.5z M41,29.2c0.7-0.4,1.2-0.9,1.6-1.5
			c0.4-0.7,0.6-1.4,0.6-2.2c0-0.8-0.2-1.5-0.6-2.2c-0.4-0.7-0.9-1.2-1.6-1.5c-0.7-0.4-1.4-0.6-2.2-0.6s-1.6,0.2-2.2,0.6
			c-0.7,0.4-1.2,0.9-1.6,1.5c-0.4,0.7-0.6,1.4-0.6,2.2c0,0.8,0.2,1.5,0.6,2.2c0.4,0.7,0.9,1.2,1.6,1.5s1.4,0.6,2.2,0.6
			S40.3,29.6,41,29.2z"/>
		<path class="st4" d="M54.9,20.9c0.8,0.7,1.2,1.6,1.2,2.9c0,1.2-0.4,2.2-1.2,2.9c-0.8,0.7-2,1-3.4,1h-2.8v3.4h-1.6V19.9h4.4
			C52.9,19.9,54.1,20.2,54.9,20.9z M53.8,25.7c0.5-0.4,0.8-1.1,0.8-1.9s-0.3-1.4-0.8-1.9c-0.5-0.4-1.3-0.6-2.3-0.6h-2.7v5h2.7
			C52.5,26.3,53.2,26.1,53.8,25.7z"/>
		<path class="st4" d="M60.4,21.3h-3.8v-1.4h9.3v1.4H62v9.8h-1.6V21.3z"/>
		<path class="st4" d="M67.6,19.9h1.6v11.2h-1.6V19.9z"/>
		<path class="st4" d="M74.5,30.5c-0.9-0.5-1.6-1.2-2.1-2c-0.5-0.9-0.8-1.8-0.8-2.9s0.3-2.1,0.8-2.9c0.5-0.9,1.2-1.6,2.1-2
			c0.9-0.5,1.9-0.7,3-0.7c0.9,0,1.7,0.1,2.4,0.4c0.7,0.3,1.3,0.7,1.9,1.3l-1,1c-0.8-0.9-1.9-1.3-3.2-1.3c-0.8,0-1.6,0.2-2.3,0.6
			c-0.7,0.4-1.2,0.9-1.6,1.5c-0.4,0.7-0.6,1.4-0.6,2.2c0,0.8,0.2,1.5,0.6,2.2c0.4,0.7,0.9,1.2,1.6,1.5c0.7,0.4,1.4,0.6,2.3,0.6
			c1.2,0,2.3-0.4,3.2-1.3l1,1c-0.5,0.6-1.1,1-1.9,1.3c-0.7,0.3-1.5,0.4-2.4,0.4C76.4,31.2,75.4,31,74.5,30.5z"/>
		<path class="st4" d="M84.1,19.9h1.6v11.2h-1.6V19.9z"/>
		<path class="st4" d="M97.2,29.7v1.4H89V19.9h7.9v1.4h-6.3v3.4h5.6v1.4h-5.6v3.6H97.2z"/>
		<path class="st4" d="M109.4,19.9v11.2h-1.3l-6.7-8.4v8.4h-1.6V19.9h1.3l6.7,8.4v-8.4H109.4z"/>
	</g>
	<g>
		<path class="st5" d="M42,42.1l-4.3,9.8h-1.4L32,42.1h1.5l3.5,8l3.6-8H42z"/>
		<path class="st5" d="M43.7,51.5c-0.6-0.3-1-0.8-1.4-1.4c-0.3-0.6-0.5-1.2-0.5-2s0.2-1.4,0.5-2c0.3-0.6,0.8-1,1.4-1.3
			c0.6-0.3,1.3-0.5,2-0.5c0.7,0,1.4,0.2,2,0.5c0.6,0.3,1,0.8,1.4,1.3c0.3,0.6,0.5,1.2,0.5,2s-0.2,1.4-0.5,2c-0.3,0.6-0.8,1-1.4,1.4
			c-0.6,0.3-1.2,0.5-2,0.5C44.9,52,44.2,51.9,43.7,51.5z M46.9,50.5c0.4-0.2,0.7-0.5,0.9-0.9c0.2-0.4,0.3-0.9,0.3-1.4
			s-0.1-1-0.3-1.4c-0.2-0.4-0.5-0.7-0.9-0.9c-0.4-0.2-0.8-0.3-1.3-0.3s-0.9,0.1-1.3,0.3c-0.4,0.2-0.7,0.5-0.9,0.9
			c-0.2,0.4-0.3,0.9-0.3,1.4s0.1,1,0.3,1.4c0.2,0.4,0.5,0.7,0.9,0.9s0.8,0.3,1.3,0.3S46.6,50.7,46.9,50.5z"/>
		<path class="st5" d="M55.5,51.5c-0.2,0.2-0.4,0.3-0.7,0.4C54.5,52,54.2,52,53.9,52c-0.7,0-1.3-0.2-1.7-0.6c-0.4-0.4-0.6-1-0.6-1.7
			v-4.1h-1.3v-1.1h1.3v-1.6h1.3v1.6H55v1.1h-2.1v4c0,0.4,0.1,0.7,0.3,0.9c0.2,0.2,0.5,0.3,0.9,0.3c0.4,0,0.8-0.1,1-0.4L55.5,51.5z"
			/>
		<path class="st5" d="M59.5,44.8c0.5-0.2,1-0.3,1.7-0.3v1.3c-0.1,0-0.2,0-0.3,0c-0.7,0-1.3,0.2-1.7,0.7c-0.4,0.4-0.6,1.1-0.6,1.9
			v3.7h-1.3v-7.4h1.3v1.2C58.7,45.3,59,45,59.5,44.8z"/>
		<path class="st5" d="M69.4,48.7h-6c0.1,0.7,0.4,1.2,0.9,1.6c0.5,0.4,1.1,0.6,1.8,0.6c0.9,0,1.6-0.3,2.1-0.9l0.7,0.9
			c-0.3,0.4-0.8,0.7-1.3,0.9C67.2,51.9,66.6,52,66,52c-0.8,0-1.5-0.2-2.1-0.5c-0.6-0.3-1.1-0.8-1.4-1.4c-0.3-0.6-0.5-1.2-0.5-2
			c0-0.7,0.2-1.4,0.5-1.9c0.3-0.6,0.8-1,1.3-1.4c0.6-0.3,1.2-0.5,1.9-0.5c0.7,0,1.3,0.2,1.9,0.5c0.6,0.3,1,0.8,1.3,1.4
			c0.3,0.6,0.5,1.2,0.5,2C69.4,48.4,69.4,48.5,69.4,48.7z M64.2,46.2c-0.4,0.4-0.7,0.9-0.8,1.5h4.8c-0.1-0.6-0.3-1.1-0.8-1.5
			c-0.4-0.4-1-0.6-1.6-0.6S64.6,45.8,64.2,46.2z"/>
		<path class="st5" d="M80.9,44.9c0.6,0.3,1,0.8,1.3,1.3c0.3,0.6,0.5,1.2,0.5,2s-0.2,1.4-0.5,2c-0.3,0.6-0.8,1-1.3,1.3
			C80.4,51.9,79.7,52,79,52c-0.5,0-1-0.1-1.5-0.3c-0.4-0.2-0.8-0.5-1.1-0.9v3.8h-1.3V44.5h1.3v1.2c0.3-0.4,0.7-0.7,1.1-0.9
			c0.5-0.2,1-0.3,1.5-0.3C79.7,44.5,80.4,44.6,80.9,44.9z M80.2,50.5c0.4-0.2,0.7-0.5,0.9-0.9c0.2-0.4,0.3-0.9,0.3-1.4
			s-0.1-1-0.3-1.4c-0.2-0.4-0.5-0.7-0.9-0.9c-0.4-0.2-0.8-0.3-1.3-0.3c-0.5,0-0.9,0.1-1.3,0.3s-0.7,0.5-0.9,0.9
			c-0.2,0.4-0.3,0.8-0.3,1.4s0.1,1,0.3,1.4c0.2,0.4,0.5,0.7,0.9,0.9s0.8,0.3,1.3,0.3C79.4,50.8,79.8,50.7,80.2,50.5z"/>
		<path class="st5" d="M89.6,45.2c0.5,0.5,0.8,1.3,0.8,2.3v4.5h-1.3v-1c-0.2,0.3-0.5,0.6-1,0.8S87.3,52,86.7,52
			c-0.8,0-1.5-0.2-2-0.6C84.2,51,84,50.5,84,49.8s0.2-1.2,0.7-1.6c0.5-0.4,1.2-0.6,2.3-0.6h2.1v-0.3c0-0.6-0.2-1-0.5-1.3
			c-0.3-0.3-0.8-0.5-1.5-0.5c-0.4,0-0.9,0.1-1.3,0.2c-0.4,0.1-0.8,0.3-1.1,0.6l-0.6-1c0.4-0.3,0.8-0.5,1.4-0.7
			c0.5-0.2,1.1-0.2,1.7-0.2C88.3,44.5,89.1,44.7,89.6,45.2z M88.3,50.6c0.4-0.2,0.6-0.6,0.8-1v-1H87c-1.1,0-1.7,0.4-1.7,1.1
			c0,0.4,0.1,0.7,0.4,0.9c0.3,0.2,0.7,0.3,1.2,0.3S87.9,50.9,88.3,50.6z"/>
		<path class="st5" d="M92.9,42.8c-0.2-0.2-0.3-0.4-0.3-0.6s0.1-0.5,0.3-0.6s0.4-0.3,0.7-0.3s0.5,0.1,0.7,0.2
			c0.2,0.2,0.3,0.4,0.3,0.6c0,0.3-0.1,0.5-0.3,0.6c-0.2,0.2-0.4,0.3-0.7,0.3S93.1,43,92.9,42.8z M92.9,44.5h1.3v7.4h-1.3V44.5z"/>
		<path class="st5" d="M99.1,44.8c0.5-0.2,1-0.3,1.7-0.3v1.3c-0.1,0-0.2,0-0.3,0c-0.7,0-1.3,0.2-1.7,0.7c-0.4,0.4-0.6,1.1-0.6,1.9
			v3.7h-1.3v-7.4h1.3v1.2C98.3,45.3,98.7,45,99.1,44.8z"/>
		<path class="st5" d="M109.1,48.7h-6c0.1,0.7,0.4,1.2,0.9,1.6c0.5,0.4,1.1,0.6,1.8,0.6c0.9,0,1.6-0.3,2.1-0.9l0.7,0.9
			c-0.3,0.4-0.8,0.7-1.3,0.9c-0.5,0.2-1.1,0.3-1.7,0.3c-0.8,0-1.5-0.2-2.1-0.5c-0.6-0.3-1.1-0.8-1.4-1.4c-0.3-0.6-0.5-1.2-0.5-2
			c0-0.7,0.2-1.4,0.5-1.9c0.3-0.6,0.8-1,1.3-1.4c0.6-0.3,1.2-0.5,1.9-0.5c0.7,0,1.3,0.2,1.9,0.5c0.6,0.3,1,0.8,1.3,1.4
			c0.3,0.6,0.5,1.2,0.5,2C109.1,48.4,109.1,48.5,109.1,48.7z M103.8,46.2c-0.4,0.4-0.7,0.9-0.8,1.5h4.8c-0.1-0.6-0.3-1.1-0.8-1.5
			c-0.4-0.4-1-0.6-1.6-0.6S104.2,45.8,103.8,46.2z"/>
		<path class="st5" d="M121.7,41.6v10.4h-1.3v-1.2c-0.3,0.4-0.7,0.7-1.1,0.9c-0.5,0.2-1,0.3-1.5,0.3c-0.7,0-1.4-0.2-1.9-0.5
			c-0.6-0.3-1-0.8-1.3-1.3c-0.3-0.6-0.5-1.2-0.5-2s0.2-1.4,0.5-2c0.3-0.6,0.8-1,1.3-1.3c0.6-0.3,1.2-0.5,1.9-0.5
			c0.5,0,1,0.1,1.5,0.3c0.4,0.2,0.8,0.5,1.1,0.9v-4.1H121.7z M119.2,50.5c0.4-0.2,0.7-0.5,0.9-0.9c0.2-0.4,0.3-0.9,0.3-1.4
			s-0.1-1-0.3-1.4c-0.2-0.4-0.5-0.7-0.9-0.9c-0.4-0.2-0.8-0.3-1.3-0.3c-0.5,0-0.9,0.1-1.3,0.3c-0.4,0.2-0.7,0.5-0.9,0.9
			c-0.2,0.4-0.3,0.9-0.3,1.4s0.1,1,0.3,1.4c0.2,0.4,0.5,0.7,0.9,0.9s0.8,0.3,1.3,0.3C118.4,50.8,118.8,50.7,119.2,50.5z"/>
		<path class="st5" d="M131,48.7h-6c0.1,0.7,0.4,1.2,0.9,1.6c0.5,0.4,1.1,0.6,1.8,0.6c0.9,0,1.6-0.3,2.1-0.9l0.7,0.9
			c-0.3,0.4-0.8,0.7-1.3,0.9c-0.5,0.2-1.1,0.3-1.7,0.3c-0.8,0-1.5-0.2-2.1-0.5c-0.6-0.3-1.1-0.8-1.4-1.4c-0.3-0.6-0.5-1.2-0.5-2
			c0-0.7,0.2-1.4,0.5-1.9c0.3-0.6,0.8-1,1.3-1.4c0.6-0.3,1.2-0.5,1.9-0.5c0.7,0,1.3,0.2,1.9,0.5c0.6,0.3,1,0.8,1.3,1.4
			c0.3,0.6,0.5,1.2,0.5,2C131,48.4,131,48.5,131,48.7z M125.7,46.2c-0.4,0.4-0.7,0.9-0.8,1.5h4.8c-0.1-0.6-0.3-1.1-0.8-1.5
			c-0.4-0.4-1-0.6-1.6-0.6S126.1,45.8,125.7,46.2z"/>
		<path class="st5" d="M136.6,41.6h1.3v10.4h-1.3V41.6z"/>
		<path class="st5" d="M147.4,44.5v7.4h-1.3v-1.1c-0.3,0.4-0.6,0.7-1.1,0.9c-0.4,0.2-0.9,0.3-1.4,0.3c-1,0-1.8-0.3-2.3-0.8
			c-0.6-0.5-0.9-1.4-0.9-2.4v-4.3h1.3v4.1c0,0.7,0.2,1.3,0.5,1.6s0.8,0.6,1.5,0.6c0.7,0,1.3-0.2,1.7-0.6c0.4-0.4,0.6-1,0.6-1.8v-3.8
			H147.4z"/>
		<path class="st5" d="M156.2,45.3c0.6,0.5,0.8,1.3,0.8,2.4v4.3h-1.3v-4.1c0-0.7-0.2-1.3-0.5-1.6c-0.3-0.4-0.8-0.5-1.5-0.5
			c-0.7,0-1.3,0.2-1.7,0.6s-0.6,1-0.6,1.8v3.8H150v-7.4h1.3v1.1c0.3-0.4,0.6-0.7,1.1-0.9c0.5-0.2,1-0.3,1.6-0.3
			C154.9,44.5,155.6,44.7,156.2,45.3z"/>
		<path class="st5" d="M166.2,48.7h-6c0.1,0.7,0.4,1.2,0.9,1.6c0.5,0.4,1.1,0.6,1.8,0.6c0.9,0,1.6-0.3,2.1-0.9l0.7,0.9
			c-0.3,0.4-0.8,0.7-1.3,0.9c-0.5,0.2-1.1,0.3-1.7,0.3c-0.8,0-1.5-0.2-2.1-0.5c-0.6-0.3-1.1-0.8-1.4-1.4c-0.3-0.6-0.5-1.2-0.5-2
			c0-0.7,0.2-1.4,0.5-1.9c0.3-0.6,0.8-1,1.3-1.4c0.6-0.3,1.2-0.5,1.9-0.5c0.7,0,1.3,0.2,1.9,0.5c0.6,0.3,1,0.8,1.3,1.4
			c0.3,0.6,0.5,1.2,0.5,2C166.3,48.4,166.3,48.5,166.2,48.7z M161,46.2c-0.4,0.4-0.7,0.9-0.8,1.5h4.8c-0.1-0.6-0.3-1.1-0.8-1.5
			c-0.4-0.4-1-0.6-1.6-0.6S161.4,45.8,161,46.2z"/>
		<path class="st5" d="M172.3,51.5c-0.2,0.2-0.4,0.3-0.7,0.4c-0.3,0.1-0.6,0.1-0.9,0.1c-0.7,0-1.3-0.2-1.7-0.6
			c-0.4-0.4-0.6-1-0.6-1.7v-4.1h-1.3v-1.1h1.3v-1.6h1.3v1.6h2.1v1.1h-2.1v4c0,0.4,0.1,0.7,0.3,0.9c0.2,0.2,0.5,0.3,0.9,0.3
			c0.4,0,0.8-0.1,1-0.4L172.3,51.5z"/>
		<path class="st5" d="M177.9,51.5c-0.2,0.2-0.4,0.3-0.7,0.4c-0.3,0.1-0.6,0.1-0.9,0.1c-0.7,0-1.3-0.2-1.7-0.6
			c-0.4-0.4-0.6-1-0.6-1.7v-4.1h-1.3v-1.1h1.3v-1.6h1.3v1.6h2.1v1.1h-2.1v4c0,0.4,0.1,0.7,0.3,0.9c0.2,0.2,0.5,0.3,0.9,0.3
			c0.4,0,0.8-0.1,1-0.4L177.9,51.5z"/>
		<path class="st5" d="M186,48.7h-6c0.1,0.7,0.4,1.2,0.9,1.6c0.5,0.4,1.1,0.6,1.8,0.6c0.9,0,1.6-0.3,2.1-0.9l0.7,0.9
			c-0.3,0.4-0.8,0.7-1.3,0.9c-0.5,0.2-1.1,0.3-1.7,0.3c-0.8,0-1.5-0.2-2.1-0.5c-0.6-0.3-1.1-0.8-1.4-1.4c-0.3-0.6-0.5-1.2-0.5-2
			c0-0.7,0.2-1.4,0.5-1.9c0.3-0.6,0.8-1,1.3-1.4c0.6-0.3,1.2-0.5,1.9-0.5c0.7,0,1.3,0.2,1.9,0.5c0.6,0.3,1,0.8,1.3,1.4
			c0.3,0.6,0.5,1.2,0.5,2C186,48.4,186,48.5,186,48.7z M180.7,46.2c-0.4,0.4-0.7,0.9-0.8,1.5h4.8c-0.1-0.6-0.3-1.1-0.8-1.5
			c-0.4-0.4-1-0.6-1.6-0.6S181.1,45.8,180.7,46.2z"/>
		<path class="st5" d="M188.2,51.8c-0.6-0.2-1-0.4-1.3-0.6l0.6-1.1c0.3,0.2,0.7,0.4,1.2,0.6s0.9,0.2,1.4,0.2c1.2,0,1.8-0.3,1.8-1
			c0-0.2-0.1-0.4-0.2-0.5c-0.2-0.1-0.4-0.2-0.6-0.3c-0.2-0.1-0.6-0.1-1-0.2c-0.6-0.1-1.1-0.2-1.5-0.3c-0.4-0.1-0.7-0.3-1-0.6
			c-0.3-0.3-0.4-0.7-0.4-1.2c0-0.7,0.3-1.2,0.8-1.6c0.6-0.4,1.3-0.6,2.3-0.6c0.5,0,1,0.1,1.5,0.2c0.5,0.1,0.9,0.3,1.2,0.5l-0.6,1.1
			c-0.6-0.4-1.3-0.6-2.1-0.6c-0.6,0-1,0.1-1.3,0.3c-0.3,0.2-0.4,0.4-0.4,0.7c0,0.2,0.1,0.4,0.3,0.6c0.2,0.1,0.4,0.2,0.6,0.3
			c0.2,0.1,0.6,0.1,1,0.2c0.6,0.1,1.1,0.2,1.4,0.3s0.7,0.3,0.9,0.6c0.3,0.3,0.4,0.7,0.4,1.2c0,0.7-0.3,1.2-0.9,1.6
			c-0.6,0.4-1.4,0.6-2.3,0.6C189.4,52,188.8,51.9,188.2,51.8z"/>
		<path class="st5" d="M205.3,48.7h-6c0.1,0.7,0.4,1.2,0.9,1.6c0.5,0.4,1.1,0.6,1.8,0.6c0.9,0,1.6-0.3,2.1-0.9l0.7,0.9
			c-0.3,0.4-0.8,0.7-1.3,0.9c-0.5,0.2-1.1,0.3-1.7,0.3c-0.8,0-1.5-0.2-2.1-0.5c-0.6-0.3-1.1-0.8-1.4-1.4c-0.3-0.6-0.5-1.2-0.5-2
			c0-0.7,0.2-1.4,0.5-1.9c0.3-0.6,0.8-1,1.3-1.4c0.6-0.3,1.2-0.5,1.9-0.5c0.7,0,1.3,0.2,1.9,0.5c0.6,0.3,1,0.8,1.3,1.4
			s0.5,1.2,0.5,2C205.3,48.4,205.3,48.5,205.3,48.7z M200.1,46.2c-0.4,0.4-0.7,0.9-0.8,1.5h4.8c-0.1-0.6-0.3-1.1-0.8-1.5
			c-0.4-0.4-1-0.6-1.6-0.6C201,45.6,200.5,45.8,200.1,46.2z"/>
		<path class="st5" d="M207.6,51.8c-0.6-0.2-1-0.4-1.3-0.6l0.6-1.1c0.3,0.2,0.7,0.4,1.2,0.6s0.9,0.2,1.4,0.2c1.2,0,1.8-0.3,1.8-1
			c0-0.2-0.1-0.4-0.2-0.5c-0.2-0.1-0.4-0.2-0.6-0.3c-0.2-0.1-0.6-0.1-1-0.2c-0.6-0.1-1.1-0.2-1.5-0.3c-0.4-0.1-0.7-0.3-1-0.6
			c-0.3-0.3-0.4-0.7-0.4-1.2c0-0.7,0.3-1.2,0.8-1.6c0.6-0.4,1.3-0.6,2.3-0.6c0.5,0,1,0.1,1.5,0.2c0.5,0.1,0.9,0.3,1.2,0.5l-0.6,1.1
			c-0.6-0.4-1.3-0.6-2.1-0.6c-0.6,0-1,0.1-1.3,0.3c-0.3,0.2-0.4,0.4-0.4,0.7c0,0.2,0.1,0.4,0.3,0.6s0.4,0.2,0.6,0.3
			c0.2,0.1,0.6,0.1,1,0.2c0.6,0.1,1.1,0.2,1.4,0.3c0.4,0.1,0.7,0.3,0.9,0.6c0.3,0.3,0.4,0.7,0.4,1.2c0,0.7-0.3,1.2-0.9,1.6
			c-0.6,0.4-1.4,0.6-2.3,0.6C208.7,52,208.1,51.9,207.6,51.8z"/>
		<path class="st5" d="M218.4,51.5c-0.2,0.2-0.4,0.3-0.7,0.4c-0.3,0.1-0.6,0.1-0.9,0.1c-0.7,0-1.3-0.2-1.7-0.6
			c-0.4-0.4-0.6-1-0.6-1.7v-4.1h-1.3v-1.1h1.3v-1.6h1.3v1.6h2.1v1.1h-2.1v4c0,0.4,0.1,0.7,0.3,0.9c0.2,0.2,0.5,0.3,0.9,0.3
			c0.4,0,0.8-0.1,1.1-0.4L218.4,51.5z"/>
		<path class="st5" d="M40.3,58.4v10.4H39v-1.2c-0.3,0.4-0.7,0.7-1.1,0.9c-0.5,0.2-1,0.3-1.5,0.3c-0.7,0-1.4-0.2-1.9-0.5
			c-0.6-0.3-1-0.8-1.3-1.3c-0.3-0.6-0.5-1.2-0.5-2s0.2-1.4,0.5-2c0.3-0.6,0.8-1,1.3-1.3c0.6-0.3,1.2-0.5,1.9-0.5
			c0.5,0,1,0.1,1.5,0.3c0.4,0.2,0.8,0.5,1.1,0.9v-4.1H40.3z M37.7,67.3c0.4-0.2,0.7-0.5,0.9-0.9c0.2-0.4,0.3-0.9,0.3-1.4
			s-0.1-1-0.3-1.4c-0.2-0.4-0.5-0.7-0.9-0.9c-0.4-0.2-0.8-0.3-1.3-0.3c-0.5,0-0.9,0.1-1.3,0.3c-0.4,0.2-0.7,0.5-0.9,0.9
			c-0.2,0.4-0.3,0.9-0.3,1.4s0.1,1,0.3,1.4c0.2,0.4,0.5,0.7,0.9,0.9s0.8,0.3,1.3,0.3C36.9,67.6,37.3,67.5,37.7,67.3z"/>
		<path class="st5" d="M42.8,59.6c-0.2-0.2-0.3-0.4-0.3-0.6s0.1-0.5,0.3-0.6s0.4-0.3,0.7-0.3s0.5,0.1,0.7,0.2
			c0.2,0.2,0.3,0.4,0.3,0.6c0,0.3-0.1,0.5-0.3,0.6c-0.2,0.2-0.4,0.3-0.7,0.3S43,59.8,42.8,59.6z M42.8,61.3h1.3v7.4h-1.3V61.3z"/>
		<path class="st5" d="M47.1,68.6c-0.6-0.2-1-0.4-1.3-0.6l0.6-1.1c0.3,0.2,0.7,0.4,1.2,0.6s0.9,0.2,1.4,0.2c1.2,0,1.8-0.3,1.8-1
			c0-0.2-0.1-0.4-0.2-0.5c-0.2-0.1-0.4-0.2-0.6-0.3c-0.2-0.1-0.6-0.1-1-0.2c-0.6-0.1-1.1-0.2-1.5-0.3c-0.4-0.1-0.7-0.3-1-0.6
			C46.2,64.4,46,64,46,63.5c0-0.7,0.3-1.2,0.8-1.6c0.6-0.4,1.3-0.6,2.3-0.6c0.5,0,1,0.1,1.5,0.2c0.5,0.1,0.9,0.3,1.2,0.5L51.2,63
			c-0.6-0.4-1.3-0.6-2.1-0.6c-0.6,0-1,0.1-1.3,0.3c-0.3,0.2-0.4,0.4-0.4,0.7c0,0.2,0.1,0.4,0.3,0.6c0.2,0.1,0.4,0.2,0.6,0.3
			c0.2,0.1,0.6,0.1,1,0.2c0.6,0.1,1.1,0.2,1.4,0.3s0.7,0.3,0.9,0.6c0.3,0.3,0.4,0.7,0.4,1.2c0,0.7-0.3,1.2-0.9,1.6
			c-0.6,0.4-1.4,0.6-2.3,0.6C48.2,68.8,47.7,68.7,47.1,68.6z"/>
		<path class="st5" d="M59.6,61.7c0.6,0.3,1,0.8,1.3,1.3c0.3,0.6,0.5,1.2,0.5,2s-0.2,1.4-0.5,2c-0.3,0.6-0.8,1-1.3,1.3
			c-0.6,0.3-1.2,0.5-1.9,0.5c-0.5,0-1-0.1-1.5-0.3c-0.4-0.2-0.8-0.5-1.1-0.9v3.8h-1.3V61.3H55v1.2c0.3-0.4,0.7-0.7,1.1-0.9
			c0.5-0.2,1-0.3,1.5-0.3C58.4,61.3,59,61.4,59.6,61.7z M58.8,67.3c0.4-0.2,0.7-0.5,0.9-0.9c0.2-0.4,0.3-0.9,0.3-1.4s-0.1-1-0.3-1.4
			c-0.2-0.4-0.5-0.7-0.9-0.9c-0.4-0.2-0.8-0.3-1.3-0.3c-0.5,0-0.9,0.1-1.3,0.3s-0.7,0.5-0.9,0.9c-0.2,0.4-0.3,0.8-0.3,1.4
			s0.1,1,0.3,1.4c0.2,0.4,0.5,0.7,0.9,0.9s0.8,0.3,1.3,0.3C58,67.6,58.5,67.5,58.8,67.3z"/>
		<path class="st5" d="M64.5,68.3c-0.6-0.3-1-0.8-1.4-1.4c-0.3-0.6-0.5-1.2-0.5-2s0.2-1.4,0.5-2c0.3-0.6,0.8-1,1.4-1.3
			c0.6-0.3,1.3-0.5,2-0.5c0.7,0,1.4,0.2,2,0.5c0.6,0.3,1,0.8,1.4,1.3c0.3,0.6,0.5,1.2,0.5,2s-0.2,1.4-0.5,2c-0.3,0.6-0.8,1-1.4,1.4
			c-0.6,0.3-1.2,0.5-2,0.5C65.7,68.8,65.1,68.7,64.5,68.3z M67.7,67.3c0.4-0.2,0.7-0.5,0.9-0.9C68.9,66,69,65.5,69,65
			s-0.1-1-0.3-1.4c-0.2-0.4-0.5-0.7-0.9-0.9c-0.4-0.2-0.8-0.3-1.3-0.3s-0.9,0.1-1.3,0.3c-0.4,0.2-0.7,0.5-0.9,0.9
			C64.1,64.1,64,64.5,64,65s0.1,1,0.3,1.4c0.2,0.4,0.5,0.7,0.9,0.9s0.8,0.3,1.3,0.3S67.4,67.5,67.7,67.3z"/>
		<path class="st5" d="M78.4,62.1c0.6,0.5,0.8,1.3,0.8,2.4v4.3h-1.3v-4.1c0-0.7-0.2-1.3-0.5-1.6c-0.3-0.4-0.8-0.5-1.5-0.5
			c-0.7,0-1.3,0.2-1.7,0.6s-0.6,1-0.6,1.8v3.8h-1.3v-7.4h1.3v1.1c0.3-0.4,0.6-0.7,1.1-0.9c0.5-0.2,1-0.3,1.6-0.3
			C77.1,61.3,77.8,61.5,78.4,62.1z"/>
		<path class="st5" d="M81.7,59.6c-0.2-0.2-0.3-0.4-0.3-0.6s0.1-0.5,0.3-0.6s0.4-0.3,0.7-0.3s0.5,0.1,0.7,0.2
			c0.2,0.2,0.3,0.4,0.3,0.6c0,0.3-0.1,0.5-0.3,0.6c-0.2,0.2-0.4,0.3-0.7,0.3S81.9,59.8,81.7,59.6z M81.7,61.3h1.3v7.4h-1.3V61.3z"/>
		<path class="st5" d="M91.5,61.7c0.6,0.3,1,0.8,1.3,1.3c0.3,0.6,0.5,1.2,0.5,2s-0.2,1.4-0.5,2c-0.3,0.6-0.8,1-1.3,1.3
			c-0.6,0.3-1.2,0.5-1.9,0.5c-0.6,0-1.1-0.1-1.5-0.3c-0.5-0.2-0.8-0.5-1.1-0.9v1.2h-1.3V58.4H87v4.1c0.3-0.4,0.7-0.7,1.1-0.9
			c0.4-0.2,0.9-0.3,1.5-0.3C90.3,61.3,90.9,61.4,91.5,61.7z M90.7,67.3c0.4-0.2,0.7-0.5,0.9-0.9c0.2-0.4,0.3-0.9,0.3-1.4
			s-0.1-1-0.3-1.4c-0.2-0.4-0.5-0.7-0.9-0.9c-0.4-0.2-0.8-0.3-1.3-0.3c-0.5,0-0.9,0.1-1.3,0.3c-0.4,0.2-0.7,0.5-0.9,0.9
			c-0.2,0.4-0.3,0.9-0.3,1.4s0.1,1,0.3,1.4c0.2,0.4,0.5,0.7,0.9,0.9s0.8,0.3,1.3,0.3C89.9,67.6,90.3,67.5,90.7,67.3z"/>
		<path class="st5" d="M95.2,58.4h1.3v10.4h-1.3V58.4z"/>
		<path class="st5" d="M105.8,65.5h-6c0.1,0.7,0.4,1.2,0.9,1.6c0.5,0.4,1.1,0.6,1.8,0.6c0.9,0,1.6-0.3,2.1-0.9l0.7,0.9
			c-0.3,0.4-0.8,0.7-1.3,0.9c-0.5,0.2-1.1,0.3-1.7,0.3c-0.8,0-1.5-0.2-2.1-0.5c-0.6-0.3-1.1-0.8-1.4-1.4c-0.3-0.6-0.5-1.2-0.5-2
			c0-0.7,0.2-1.4,0.5-1.9c0.3-0.6,0.8-1,1.3-1.4c0.6-0.3,1.2-0.5,1.9-0.5c0.7,0,1.3,0.2,1.9,0.5c0.6,0.3,1,0.8,1.3,1.4
			c0.3,0.6,0.5,1.2,0.5,2C105.8,65.2,105.8,65.3,105.8,65.5z M100.5,63c-0.4,0.4-0.7,0.9-0.8,1.5h4.8c-0.1-0.6-0.3-1.1-0.8-1.5
			c-0.4-0.4-1-0.6-1.6-0.6S100.9,62.6,100.5,63z"/>
		<path class="st5" d="M118.1,65.5h-6c0.1,0.7,0.4,1.2,0.9,1.6c0.5,0.4,1.1,0.6,1.8,0.6c0.9,0,1.6-0.3,2.1-0.9l0.7,0.9
			c-0.3,0.4-0.8,0.7-1.3,0.9c-0.5,0.2-1.1,0.3-1.7,0.3c-0.8,0-1.5-0.2-2.1-0.5c-0.6-0.3-1.1-0.8-1.4-1.4c-0.3-0.6-0.5-1.2-0.5-2
			c0-0.7,0.2-1.4,0.5-1.9c0.3-0.6,0.8-1,1.3-1.4c0.6-0.3,1.2-0.5,1.9-0.5c0.7,0,1.3,0.2,1.9,0.5c0.6,0.3,1,0.8,1.3,1.4
			c0.3,0.6,0.5,1.2,0.5,2C118.1,65.2,118.1,65.3,118.1,65.5z M112.8,63c-0.4,0.4-0.7,0.9-0.8,1.5h4.8c-0.1-0.6-0.3-1.1-0.8-1.5
			c-0.4-0.4-1-0.6-1.6-0.6S113.3,62.6,112.8,63z"/>
		<path class="st5" d="M126.2,62.1c0.6,0.5,0.8,1.3,0.8,2.4v4.3h-1.3v-4.1c0-0.7-0.2-1.3-0.5-1.6c-0.3-0.4-0.8-0.5-1.5-0.5
			c-0.7,0-1.3,0.2-1.7,0.6s-0.6,1-0.6,1.8v3.8H120v-7.4h1.3v1.1c0.3-0.4,0.6-0.7,1.1-0.9c0.5-0.2,1-0.3,1.6-0.3
			C124.9,61.3,125.6,61.5,126.2,62.1z"/>
		<path class="st5" d="M139.1,61.7c0.6,0.3,1,0.8,1.3,1.3c0.3,0.6,0.5,1.2,0.5,2s-0.2,1.4-0.5,2c-0.3,0.6-0.8,1-1.3,1.3
			c-0.6,0.3-1.2,0.5-1.9,0.5c-0.6,0-1.1-0.1-1.5-0.3c-0.5-0.2-0.8-0.5-1.1-0.9v1.2h-1.3V58.4h1.3v4.1c0.3-0.4,0.7-0.7,1.1-0.9
			c0.4-0.2,0.9-0.3,1.5-0.3C137.9,61.3,138.6,61.4,139.1,61.7z M138.4,67.3c0.4-0.2,0.7-0.5,0.9-0.9c0.2-0.4,0.3-0.9,0.3-1.4
			s-0.1-1-0.3-1.4c-0.2-0.4-0.5-0.7-0.9-0.9c-0.4-0.2-0.8-0.3-1.3-0.3c-0.5,0-0.9,0.1-1.3,0.3c-0.4,0.2-0.7,0.5-0.9,0.9
			c-0.2,0.4-0.3,0.9-0.3,1.4s0.1,1,0.3,1.4c0.2,0.4,0.5,0.7,0.9,0.9s0.8,0.3,1.3,0.3C137.6,67.6,138,67.5,138.4,67.3z"/>
		<path class="st5" d="M144,68.3c-0.6-0.3-1-0.8-1.4-1.4c-0.3-0.6-0.5-1.2-0.5-2s0.2-1.4,0.5-2c0.3-0.6,0.8-1,1.4-1.3
			c0.6-0.3,1.3-0.5,2-0.5c0.7,0,1.4,0.2,2,0.5c0.6,0.3,1,0.8,1.4,1.3c0.3,0.6,0.5,1.2,0.5,2s-0.2,1.4-0.5,2c-0.3,0.6-0.8,1-1.4,1.4
			c-0.6,0.3-1.2,0.5-2,0.5C145.3,68.8,144.6,68.7,144,68.3z M147.3,67.3c0.4-0.2,0.7-0.5,0.9-0.9c0.2-0.4,0.3-0.9,0.3-1.4
			s-0.1-1-0.3-1.4c-0.2-0.4-0.5-0.7-0.9-0.9c-0.4-0.2-0.8-0.3-1.3-0.3s-0.9,0.1-1.3,0.3c-0.4,0.2-0.7,0.5-0.9,0.9
			c-0.2,0.4-0.3,0.9-0.3,1.4s0.1,1,0.3,1.4c0.2,0.4,0.5,0.7,0.9,0.9s0.8,0.3,1.3,0.3S146.9,67.5,147.3,67.3z"/>
		<path class="st5" d="M158.6,61.3v7.4h-1.3v-1.1c-0.3,0.4-0.6,0.7-1.1,0.9c-0.4,0.2-0.9,0.3-1.4,0.3c-1,0-1.8-0.3-2.3-0.8
			c-0.6-0.5-0.9-1.4-0.9-2.4v-4.3h1.3v4.1c0,0.7,0.2,1.3,0.5,1.6s0.8,0.6,1.5,0.6c0.7,0,1.3-0.2,1.7-0.6c0.4-0.4,0.6-1,0.6-1.8v-3.8
			H158.6z"/>
		<path class="st5" d="M165.4,68.3c-0.2,0.2-0.4,0.3-0.7,0.4c-0.3,0.1-0.6,0.1-0.9,0.1c-0.7,0-1.3-0.2-1.7-0.6
			c-0.4-0.4-0.6-1-0.6-1.7v-4.1h-1.3v-1.1h1.3v-1.6h1.3v1.6h2.1v1.1h-2.1v4c0,0.4,0.1,0.7,0.3,0.9c0.2,0.2,0.5,0.3,0.9,0.3
			c0.4,0,0.8-0.1,1-0.4L165.4,68.3z"/>
		<path class="st5" d="M167,59.6c-0.2-0.2-0.3-0.4-0.3-0.6s0.1-0.5,0.3-0.6s0.4-0.3,0.7-0.3s0.5,0.1,0.7,0.2
			c0.2,0.2,0.3,0.4,0.3,0.6c0,0.3-0.1,0.5-0.3,0.6c-0.2,0.2-0.4,0.3-0.7,0.3S167.2,59.8,167,59.6z M167,61.3h1.3v7.4H167V61.3z"/>
		<path class="st5" d="M177.9,61.3v10.1h-1.3v-3.8c-0.3,0.4-0.7,0.7-1.1,0.9c-0.4,0.2-0.9,0.3-1.5,0.3c-0.7,0-1.4-0.2-1.9-0.5
			c-0.6-0.3-1-0.8-1.3-1.3c-0.3-0.6-0.5-1.2-0.5-2s0.2-1.4,0.5-2c0.3-0.6,0.8-1,1.3-1.3c0.6-0.3,1.2-0.5,1.9-0.5
			c0.6,0,1.1,0.1,1.5,0.3c0.5,0.2,0.8,0.5,1.1,0.9v-1.2H177.9z M175.3,67.3c0.4-0.2,0.7-0.5,0.9-0.9c0.2-0.4,0.3-0.9,0.3-1.4
			s-0.1-1-0.3-1.4c-0.2-0.4-0.5-0.7-0.9-0.9c-0.4-0.2-0.8-0.3-1.3-0.3c-0.5,0-0.9,0.1-1.3,0.3c-0.4,0.2-0.7,0.5-0.9,0.9
			c-0.2,0.4-0.3,0.9-0.3,1.4s0.1,1,0.3,1.4c0.2,0.4,0.5,0.7,0.9,0.9s0.8,0.3,1.3,0.3C174.5,67.6,175,67.5,175.3,67.3z"/>
		<path class="st5" d="M187.4,61.3v7.4h-1.3v-1.1c-0.3,0.4-0.6,0.7-1.1,0.9c-0.4,0.2-0.9,0.3-1.4,0.3c-1,0-1.8-0.3-2.3-0.8
			c-0.6-0.5-0.9-1.4-0.9-2.4v-4.3h1.3v4.1c0,0.7,0.2,1.3,0.5,1.6s0.8,0.6,1.5,0.6c0.7,0,1.3-0.2,1.7-0.6c0.4-0.4,0.6-1,0.6-1.8v-3.8
			H187.4z"/>
		<path class="st5" d="M196.6,65.5h-6c0.1,0.7,0.4,1.2,0.9,1.6c0.5,0.4,1.1,0.6,1.8,0.6c0.9,0,1.6-0.3,2.1-0.9l0.7,0.9
			c-0.3,0.4-0.8,0.7-1.3,0.9c-0.5,0.2-1.1,0.3-1.7,0.3c-0.8,0-1.5-0.2-2.1-0.5c-0.6-0.3-1.1-0.8-1.4-1.4c-0.3-0.6-0.5-1.2-0.5-2
			c0-0.7,0.2-1.4,0.5-1.9c0.3-0.6,0.8-1,1.3-1.4c0.6-0.3,1.2-0.5,1.9-0.5c0.7,0,1.3,0.2,1.9,0.5c0.6,0.3,1,0.8,1.3,1.4
			c0.3,0.6,0.5,1.2,0.5,2C196.6,65.2,196.6,65.3,196.6,65.5z M191.3,63c-0.4,0.4-0.7,0.9-0.8,1.5h4.8c-0.1-0.6-0.3-1.1-0.8-1.5
			c-0.4-0.4-1-0.6-1.6-0.6S191.8,62.6,191.3,63z"/>
		<path class="st5" d="M198.1,68.6c-0.2-0.2-0.3-0.4-0.3-0.7c0-0.3,0.1-0.5,0.3-0.7c0.2-0.2,0.4-0.3,0.7-0.3c0.3,0,0.5,0.1,0.7,0.3
			s0.3,0.4,0.3,0.7c0,0.3-0.1,0.5-0.3,0.7s-0.4,0.3-0.7,0.3C198.5,68.8,198.3,68.7,198.1,68.6z"/>
		<path class="st5" d="M41.9,75.7v9.8h-1.1l-5.9-7.3v7.3h-1.4v-9.8h1.1l5.9,7.3v-7.3H41.9z"/>
		<path class="st5" d="M45.8,85.1c-0.6-0.3-1-0.8-1.4-1.4c-0.3-0.6-0.5-1.2-0.5-2s0.2-1.4,0.5-2c0.3-0.6,0.8-1,1.4-1.3
			c0.6-0.3,1.3-0.5,2-0.5c0.7,0,1.4,0.2,2,0.5c0.6,0.3,1,0.8,1.4,1.3c0.3,0.6,0.5,1.2,0.5,2s-0.2,1.4-0.5,2c-0.3,0.6-0.8,1-1.4,1.4
			c-0.6,0.3-1.2,0.5-2,0.5C47.1,85.6,46.4,85.5,45.8,85.1z M49.1,84.1c0.4-0.2,0.7-0.5,0.9-0.9c0.2-0.4,0.3-0.9,0.3-1.4
			s-0.1-1-0.3-1.4c-0.2-0.4-0.5-0.7-0.9-0.9c-0.4-0.2-0.8-0.3-1.3-0.3s-0.9,0.1-1.3,0.3c-0.4,0.2-0.7,0.5-0.9,0.9
			c-0.2,0.4-0.3,0.9-0.3,1.4s0.1,1,0.3,1.4c0.2,0.4,0.5,0.7,0.9,0.9s0.8,0.3,1.3,0.3S48.7,84.3,49.1,84.1z"/>
		<path class="st5" d="M60.4,78.1v7.4h-1.3v-1.1c-0.3,0.4-0.6,0.7-1.1,0.9c-0.4,0.2-0.9,0.3-1.4,0.3c-1,0-1.8-0.3-2.3-0.8
			c-0.6-0.5-0.9-1.4-0.9-2.4v-4.3h1.3v4.1c0,0.7,0.2,1.3,0.5,1.6s0.8,0.6,1.5,0.6c0.7,0,1.3-0.2,1.7-0.6c0.4-0.4,0.6-1,0.6-1.8v-3.8
			H60.4z"/>
		<path class="st5" d="M63.4,85.4c-0.6-0.2-1-0.4-1.3-0.6l0.6-1.1c0.3,0.2,0.7,0.4,1.2,0.6s0.9,0.2,1.4,0.2c1.2,0,1.8-0.3,1.8-1
			c0-0.2-0.1-0.4-0.2-0.5c-0.2-0.1-0.4-0.2-0.6-0.3c-0.2-0.1-0.6-0.1-1-0.2c-0.6-0.1-1.1-0.2-1.5-0.3c-0.4-0.1-0.7-0.3-1-0.6
			c-0.3-0.3-0.4-0.7-0.4-1.2c0-0.7,0.3-1.2,0.8-1.6c0.6-0.4,1.3-0.6,2.3-0.6c0.5,0,1,0.1,1.5,0.2c0.5,0.1,0.9,0.3,1.2,0.5l-0.6,1.1
			c-0.6-0.4-1.3-0.6-2.1-0.6c-0.6,0-1,0.1-1.3,0.3c-0.3,0.2-0.4,0.4-0.4,0.7c0,0.2,0.1,0.4,0.3,0.6c0.2,0.1,0.4,0.2,0.6,0.3
			c0.2,0.1,0.6,0.1,1,0.2c0.6,0.1,1.1,0.2,1.4,0.3s0.7,0.3,0.9,0.6c0.3,0.3,0.4,0.7,0.4,1.2c0,0.7-0.3,1.2-0.9,1.6
			c-0.6,0.4-1.4,0.6-2.3,0.6C64.5,85.6,63.9,85.5,63.4,85.4z"/>
		<path class="st5" d="M74.2,85.4c-0.6-0.2-1-0.4-1.3-0.6l0.6-1.1c0.3,0.2,0.7,0.4,1.2,0.6s0.9,0.2,1.4,0.2c1.2,0,1.8-0.3,1.8-1
			c0-0.2-0.1-0.4-0.2-0.5c-0.2-0.1-0.4-0.2-0.6-0.3c-0.2-0.1-0.6-0.1-1-0.2c-0.6-0.1-1.1-0.2-1.5-0.3c-0.4-0.1-0.7-0.3-1-0.6
			c-0.3-0.3-0.4-0.7-0.4-1.2c0-0.7,0.3-1.2,0.8-1.6c0.6-0.4,1.3-0.6,2.3-0.6c0.5,0,1,0.1,1.5,0.2c0.5,0.1,0.9,0.3,1.2,0.5l-0.6,1.1
			c-0.6-0.4-1.3-0.6-2.1-0.6c-0.6,0-1,0.1-1.3,0.3c-0.3,0.2-0.4,0.4-0.4,0.7c0,0.2,0.1,0.4,0.3,0.6c0.2,0.1,0.4,0.2,0.6,0.3
			c0.2,0.1,0.6,0.1,1,0.2c0.6,0.1,1.1,0.2,1.4,0.3s0.7,0.3,0.9,0.6c0.3,0.3,0.4,0.7,0.4,1.2c0,0.7-0.3,1.2-0.9,1.6
			c-0.6,0.4-1.4,0.6-2.3,0.6C75.3,85.6,74.7,85.5,74.2,85.4z"/>
		<path class="st5" d="M82,85.1c-0.6-0.3-1-0.8-1.4-1.4c-0.3-0.6-0.5-1.2-0.5-2s0.2-1.4,0.5-2c0.3-0.6,0.8-1,1.4-1.3
			c0.6-0.3,1.3-0.5,2-0.5c0.7,0,1.4,0.2,2,0.5c0.6,0.3,1,0.8,1.4,1.3c0.3,0.6,0.5,1.2,0.5,2s-0.2,1.4-0.5,2c-0.3,0.6-0.8,1-1.4,1.4
			c-0.6,0.3-1.2,0.5-2,0.5C83.2,85.6,82.6,85.5,82,85.1z M85.3,84.1c0.4-0.2,0.7-0.5,0.9-0.9c0.2-0.4,0.3-0.9,0.3-1.4
			s-0.1-1-0.3-1.4c-0.2-0.4-0.5-0.7-0.9-0.9c-0.4-0.2-0.8-0.3-1.3-0.3s-0.9,0.1-1.3,0.3c-0.4,0.2-0.7,0.5-0.9,0.9
			c-0.2,0.4-0.3,0.9-0.3,1.4s0.1,1,0.3,1.4c0.2,0.4,0.5,0.7,0.9,0.9s0.8,0.3,1.3,0.3S84.9,84.3,85.3,84.1z"/>
		<path class="st5" d="M101.2,78.9c0.5,0.5,0.8,1.3,0.8,2.4v4.3h-1.3v-4.1c0-0.7-0.2-1.3-0.5-1.6c-0.3-0.4-0.8-0.5-1.4-0.5
			c-0.7,0-1.2,0.2-1.6,0.6s-0.6,1-0.6,1.8v3.8h-1.3v-4.1c0-0.7-0.2-1.3-0.5-1.6c-0.3-0.4-0.8-0.5-1.4-0.5c-0.7,0-1.2,0.2-1.6,0.6
			c-0.4,0.4-0.6,1-0.6,1.8v3.8h-1.3v-7.4H91v1.1c0.3-0.4,0.6-0.7,1.1-0.9c0.4-0.2,0.9-0.3,1.5-0.3c0.6,0,1.1,0.1,1.5,0.4
			c0.4,0.2,0.8,0.6,1,1c0.3-0.4,0.7-0.8,1.2-1c0.5-0.2,1.1-0.4,1.7-0.4C99.9,78.1,100.6,78.3,101.2,78.9z"/>
		<path class="st5" d="M116,78.9c0.5,0.5,0.8,1.3,0.8,2.4v4.3h-1.3v-4.1c0-0.7-0.2-1.3-0.5-1.6c-0.3-0.4-0.8-0.5-1.4-0.5
			c-0.7,0-1.2,0.2-1.6,0.6s-0.6,1-0.6,1.8v3.8H110v-4.1c0-0.7-0.2-1.3-0.5-1.6c-0.3-0.4-0.8-0.5-1.4-0.5c-0.7,0-1.2,0.2-1.6,0.6
			c-0.4,0.4-0.6,1-0.6,1.8v3.8h-1.3v-7.4h1.3v1.1c0.3-0.4,0.6-0.7,1.1-0.9c0.4-0.2,0.9-0.3,1.5-0.3c0.6,0,1.1,0.1,1.5,0.4
			c0.4,0.2,0.8,0.6,1,1c0.3-0.4,0.7-0.8,1.2-1c0.5-0.2,1.1-0.4,1.7-0.4C114.7,78.1,115.4,78.3,116,78.9z"/>
		<path class="st5" d="M126,82.3h-6c0.1,0.7,0.4,1.2,0.9,1.6c0.5,0.4,1.1,0.6,1.8,0.6c0.9,0,1.6-0.3,2.1-0.9l0.7,0.9
			c-0.3,0.4-0.8,0.7-1.3,0.9c-0.5,0.2-1.1,0.3-1.7,0.3c-0.8,0-1.5-0.2-2.1-0.5c-0.6-0.3-1.1-0.8-1.4-1.4c-0.3-0.6-0.5-1.2-0.5-2
			c0-0.7,0.2-1.4,0.5-1.9c0.3-0.6,0.8-1,1.3-1.4c0.6-0.3,1.2-0.5,1.9-0.5c0.7,0,1.3,0.2,1.9,0.5c0.6,0.3,1,0.8,1.3,1.4
			c0.3,0.6,0.5,1.2,0.5,2C126,82,126,82.1,126,82.3z M120.8,79.8c-0.4,0.4-0.7,0.9-0.8,1.5h4.8c-0.1-0.6-0.3-1.1-0.8-1.5
			c-0.4-0.4-1-0.6-1.6-0.6S121.2,79.4,120.8,79.8z"/>
		<path class="st5" d="M128.3,85.4c-0.6-0.2-1-0.4-1.3-0.6l0.6-1.1c0.3,0.2,0.7,0.4,1.2,0.6s0.9,0.2,1.4,0.2c1.2,0,1.8-0.3,1.8-1
			c0-0.2-0.1-0.4-0.2-0.5c-0.2-0.1-0.4-0.2-0.6-0.3c-0.2-0.1-0.6-0.1-1-0.2c-0.6-0.1-1.1-0.2-1.5-0.3c-0.4-0.1-0.7-0.3-1-0.6
			c-0.3-0.3-0.4-0.7-0.4-1.2c0-0.7,0.3-1.2,0.8-1.6c0.6-0.4,1.3-0.6,2.3-0.6c0.5,0,1,0.1,1.5,0.2c0.5,0.1,0.9,0.3,1.2,0.5l-0.6,1.1
			c-0.6-0.4-1.3-0.6-2.1-0.6c-0.6,0-1,0.1-1.3,0.3c-0.3,0.2-0.4,0.4-0.4,0.7c0,0.2,0.1,0.4,0.3,0.6c0.2,0.1,0.4,0.2,0.6,0.3
			c0.2,0.1,0.6,0.1,1,0.2c0.6,0.1,1.1,0.2,1.4,0.3s0.7,0.3,0.9,0.6c0.3,0.3,0.4,0.7,0.4,1.2c0,0.7-0.3,1.2-0.9,1.6
			c-0.6,0.4-1.4,0.6-2.3,0.6C129.4,85.6,128.8,85.5,128.3,85.4z"/>
		<path class="st5" d="M139.9,85.1c-0.6-0.3-1-0.8-1.4-1.4c-0.3-0.6-0.5-1.2-0.5-2s0.2-1.4,0.5-2c0.3-0.6,0.8-1,1.4-1.3
			c0.6-0.3,1.3-0.5,2-0.5c0.7,0,1.4,0.2,2,0.5c0.6,0.3,1,0.8,1.4,1.3c0.3,0.6,0.5,1.2,0.5,2s-0.2,1.4-0.5,2c-0.3,0.6-0.8,1-1.4,1.4
			c-0.6,0.3-1.2,0.5-2,0.5C141.1,85.6,140.5,85.5,139.9,85.1z M143.1,84.1c0.4-0.2,0.7-0.5,0.9-0.9c0.2-0.4,0.3-0.9,0.3-1.4
			s-0.1-1-0.3-1.4c-0.2-0.4-0.5-0.7-0.9-0.9c-0.4-0.2-0.8-0.3-1.3-0.3s-0.9,0.1-1.3,0.3c-0.4,0.2-0.7,0.5-0.9,0.9
			c-0.2,0.4-0.3,0.9-0.3,1.4s0.1,1,0.3,1.4c0.2,0.4,0.5,0.7,0.9,0.9s0.8,0.3,1.3,0.3S142.8,84.3,143.1,84.1z"/>
		<path class="st5" d="M154.5,78.1v7.4h-1.3v-1.1c-0.3,0.4-0.6,0.7-1.1,0.9c-0.4,0.2-0.9,0.3-1.4,0.3c-1,0-1.8-0.3-2.3-0.8
			c-0.6-0.5-0.9-1.4-0.9-2.4v-4.3h1.3v4.1c0,0.7,0.2,1.3,0.5,1.6s0.8,0.6,1.5,0.6c0.7,0,1.3-0.2,1.7-0.6c0.4-0.4,0.6-1,0.6-1.8v-3.8
			H154.5z"/>
		<path class="st5" d="M163.6,78.1l-3.2,7.4H159l-3.2-7.4h1.4l2.5,5.9l2.6-5.9H163.6z"/>
		<path class="st5" d="M171.3,82.3h-6c0.1,0.7,0.4,1.2,0.9,1.6c0.5,0.4,1.1,0.6,1.8,0.6c0.9,0,1.6-0.3,2.1-0.9l0.7,0.9
			c-0.3,0.4-0.8,0.7-1.3,0.9c-0.5,0.2-1.1,0.3-1.7,0.3c-0.8,0-1.5-0.2-2.1-0.5c-0.6-0.3-1.1-0.8-1.4-1.4c-0.3-0.6-0.5-1.2-0.5-2
			c0-0.7,0.2-1.4,0.5-1.9c0.3-0.6,0.8-1,1.3-1.4c0.6-0.3,1.2-0.5,1.9-0.5c0.7,0,1.3,0.2,1.9,0.5c0.6,0.3,1,0.8,1.3,1.4
			c0.3,0.6,0.5,1.2,0.5,2C171.4,82,171.4,82.1,171.3,82.3z M166.1,79.8c-0.4,0.4-0.7,0.9-0.8,1.5h4.8c-0.1-0.6-0.3-1.1-0.8-1.5
			c-0.4-0.4-1-0.6-1.6-0.6S166.5,79.4,166.1,79.8z"/>
		<path class="st5" d="M175.6,78.4c0.5-0.2,1-0.3,1.7-0.3v1.3c-0.1,0-0.2,0-0.3,0c-0.7,0-1.3,0.2-1.7,0.7c-0.4,0.4-0.6,1.1-0.6,1.9
			v3.7h-1.3v-7.4h1.3v1.2C174.8,78.9,175.1,78.6,175.6,78.4z"/>
		<path class="st5" d="M183.4,85.1c-0.2,0.2-0.4,0.3-0.7,0.4c-0.3,0.1-0.6,0.1-0.9,0.1c-0.7,0-1.3-0.2-1.7-0.6
			c-0.4-0.4-0.6-1-0.6-1.7v-4.1h-1.3v-1.1h1.3v-1.6h1.3v1.6h2.1v1.1h-2.1v4c0,0.4,0.1,0.7,0.3,0.9c0.2,0.2,0.5,0.3,0.9,0.3
			c0.4,0,0.8-0.1,1-0.4L183.4,85.1z"/>
		<path class="st5" d="M185.4,85.4c-0.6-0.2-1-0.4-1.3-0.6l0.6-1.1c0.3,0.2,0.7,0.4,1.2,0.6s0.9,0.2,1.4,0.2c1.2,0,1.8-0.3,1.8-1
			c0-0.2-0.1-0.4-0.2-0.5c-0.2-0.1-0.4-0.2-0.6-0.3c-0.2-0.1-0.6-0.1-1-0.2c-0.6-0.1-1.1-0.2-1.5-0.3c-0.4-0.1-0.7-0.3-1-0.6
			c-0.3-0.3-0.4-0.7-0.4-1.2c0-0.7,0.3-1.2,0.8-1.6c0.6-0.4,1.3-0.6,2.3-0.6c0.5,0,1,0.1,1.5,0.2c0.5,0.1,0.9,0.3,1.2,0.5l-0.6,1.1
			c-0.6-0.4-1.3-0.6-2.1-0.6c-0.6,0-1,0.1-1.3,0.3c-0.3,0.2-0.4,0.4-0.4,0.7c0,0.2,0.1,0.4,0.3,0.6c0.2,0.1,0.4,0.2,0.6,0.3
			c0.2,0.1,0.6,0.1,1,0.2c0.6,0.1,1.1,0.2,1.4,0.3s0.7,0.3,0.9,0.6c0.3,0.3,0.4,0.7,0.4,1.2c0,0.7-0.3,1.2-0.9,1.6
			c-0.6,0.4-1.4,0.6-2.3,0.6C186.5,85.6,185.9,85.5,185.4,85.4z"/>
		<path class="st5" d="M202.8,75.2v10.4h-1.3v-1.2c-0.3,0.4-0.7,0.7-1.1,0.9c-0.5,0.2-1,0.3-1.5,0.3c-0.7,0-1.4-0.2-1.9-0.5
			c-0.6-0.3-1-0.8-1.3-1.3c-0.3-0.6-0.5-1.2-0.5-2s0.2-1.4,0.5-2c0.3-0.6,0.8-1,1.3-1.3c0.6-0.3,1.2-0.5,1.9-0.5
			c0.5,0,1,0.1,1.5,0.3c0.4,0.2,0.8,0.5,1.1,0.9v-4.1H202.8z M200.2,84.1c0.4-0.2,0.7-0.5,0.9-0.9c0.2-0.4,0.3-0.9,0.3-1.4
			s-0.1-1-0.3-1.4c-0.2-0.4-0.5-0.7-0.9-0.9c-0.4-0.2-0.8-0.3-1.3-0.3c-0.5,0-0.9,0.1-1.3,0.3c-0.4,0.2-0.7,0.5-0.9,0.9
			c-0.2,0.4-0.3,0.9-0.3,1.4s0.1,1,0.3,1.4c0.2,0.4,0.5,0.7,0.9,0.9s0.8,0.3,1.3,0.3C199.4,84.4,199.8,84.3,200.2,84.1z"/>
		<path class="st5" d="M212.2,78.1v7.4h-1.3v-1.1c-0.3,0.4-0.6,0.7-1.1,0.9s-0.9,0.3-1.4,0.3c-1,0-1.8-0.3-2.3-0.8s-0.9-1.4-0.9-2.4
			v-4.3h1.3v4.1c0,0.7,0.2,1.3,0.5,1.6c0.3,0.4,0.8,0.6,1.5,0.6c0.7,0,1.3-0.2,1.7-0.6c0.4-0.4,0.6-1,0.6-1.8v-3.8H212.2z"/>
		<path class="st5" d="M33.5,92.5h1.4v8.6h5.3v1.2h-6.7V92.5z"/>
		<path class="st5" d="M48.4,94.9v7.4h-1.3v-1.1c-0.3,0.4-0.6,0.7-1.1,0.9c-0.4,0.2-0.9,0.3-1.4,0.3c-1,0-1.8-0.3-2.3-0.8
			c-0.6-0.5-0.9-1.4-0.9-2.4v-4.3h1.3V99c0,0.7,0.2,1.3,0.5,1.6s0.8,0.6,1.5,0.6c0.7,0,1.3-0.2,1.7-0.6c0.4-0.4,0.6-1,0.6-1.8v-3.8
			H48.4z"/>
		<path class="st5" d="M57.2,95.7c0.6,0.5,0.8,1.3,0.8,2.4v4.3h-1.3v-4.1c0-0.7-0.2-1.3-0.5-1.6c-0.3-0.4-0.8-0.5-1.5-0.5
			c-0.7,0-1.3,0.2-1.7,0.6s-0.6,1-0.6,1.8v3.8H51v-7.4h1.3V96c0.3-0.4,0.6-0.7,1.1-0.9c0.5-0.2,1-0.3,1.6-0.3
			C55.9,94.9,56.6,95.1,57.2,95.7z"/>
		<path class="st5" d="M67.5,92v10.4h-1.3v-1.2c-0.3,0.4-0.7,0.7-1.1,0.9c-0.5,0.2-1,0.3-1.5,0.3c-0.7,0-1.4-0.2-1.9-0.5
			c-0.6-0.3-1-0.8-1.3-1.3c-0.3-0.6-0.5-1.2-0.5-2s0.2-1.4,0.5-2c0.3-0.6,0.8-1,1.3-1.3c0.6-0.3,1.2-0.5,1.9-0.5
			c0.5,0,1,0.1,1.5,0.3c0.4,0.2,0.8,0.5,1.1,0.9V92H67.5z M65,100.9c0.4-0.2,0.7-0.5,0.9-0.9c0.2-0.4,0.3-0.9,0.3-1.4
			s-0.1-1-0.3-1.4c-0.2-0.4-0.5-0.7-0.9-0.9c-0.4-0.2-0.8-0.3-1.3-0.3c-0.5,0-0.9,0.1-1.3,0.3c-0.4,0.2-0.7,0.5-0.9,0.9
			c-0.2,0.4-0.3,0.9-0.3,1.4s0.1,1,0.3,1.4c0.2,0.4,0.5,0.7,0.9,0.9s0.8,0.3,1.3,0.3C64.2,101.2,64.6,101.1,65,100.9z"/>
		<path class="st5" d="M70.1,93.2c-0.2-0.2-0.3-0.4-0.3-0.6s0.1-0.5,0.3-0.6s0.4-0.3,0.7-0.3s0.5,0.1,0.7,0.2
			c0.2,0.2,0.3,0.4,0.3,0.6c0,0.3-0.1,0.5-0.3,0.6c-0.2,0.2-0.4,0.3-0.7,0.3S70.3,93.4,70.1,93.2z M70.1,94.9h1.3v7.4h-1.3V94.9z"/>
		<path class="st5" d="M82.8,95.6c0.5,0.5,0.8,1.3,0.8,2.3v4.5h-1.3v-1c-0.2,0.3-0.5,0.6-1,0.8s-0.9,0.3-1.5,0.3
			c-0.8,0-1.5-0.2-2-0.6c-0.5-0.4-0.7-0.9-0.7-1.6s0.2-1.2,0.7-1.6c0.5-0.4,1.2-0.6,2.3-0.6h2.1v-0.3c0-0.6-0.2-1-0.5-1.3
			C81.5,96.2,81,96,80.3,96c-0.4,0-0.9,0.1-1.3,0.2c-0.4,0.1-0.8,0.3-1.1,0.6l-0.6-1c0.4-0.3,0.8-0.5,1.4-0.7
			c0.5-0.2,1.1-0.2,1.7-0.2C81.5,94.9,82.3,95.1,82.8,95.6z M81.5,101c0.4-0.2,0.6-0.6,0.8-1v-1h-2.1c-1.1,0-1.7,0.4-1.7,1.1
			c0,0.4,0.1,0.7,0.4,0.9c0.3,0.2,0.7,0.3,1.2,0.3S81.1,101.3,81.5,101z"/>
		<path class="st5" d="M93.1,94.9v7.4h-1.3v-1.1c-0.3,0.4-0.6,0.7-1.1,0.9c-0.4,0.2-0.9,0.3-1.4,0.3c-1,0-1.8-0.3-2.3-0.8
			c-0.6-0.5-0.9-1.4-0.9-2.4v-4.3h1.3V99c0,0.7,0.2,1.3,0.5,1.6s0.8,0.6,1.5,0.6c0.7,0,1.3-0.2,1.7-0.6c0.4-0.4,0.6-1,0.6-1.8v-3.8
			H93.1z"/>
		<path class="st5" d="M108.1,92.5l-4.3,9.8h-1.4l-4.3-9.8h1.5l3.5,8l3.6-8H108.1z"/>
		<path class="st5" d="M115.3,99.1h-6c0.1,0.7,0.4,1.2,0.9,1.6c0.5,0.4,1.1,0.6,1.8,0.6c0.9,0,1.6-0.3,2.1-0.9l0.7,0.9
			c-0.3,0.4-0.8,0.7-1.3,0.9c-0.5,0.2-1.1,0.3-1.7,0.3c-0.8,0-1.5-0.2-2.1-0.5c-0.6-0.3-1.1-0.8-1.4-1.4c-0.3-0.6-0.5-1.2-0.5-2
			c0-0.7,0.2-1.4,0.5-1.9c0.3-0.6,0.8-1,1.3-1.4c0.6-0.3,1.2-0.5,1.9-0.5c0.7,0,1.3,0.2,1.9,0.5c0.6,0.3,1,0.8,1.3,1.4
			c0.3,0.6,0.5,1.2,0.5,2C115.3,98.8,115.3,98.9,115.3,99.1z M110,96.6c-0.4,0.4-0.7,0.9-0.8,1.5h4.8c-0.1-0.6-0.3-1.1-0.8-1.5
			c-0.4-0.4-1-0.6-1.6-0.6S110.4,96.2,110,96.6z"/>
		<path class="st5" d="M123.4,95.7c0.6,0.5,0.8,1.3,0.8,2.4v4.3h-1.3v-4.1c0-0.7-0.2-1.3-0.5-1.6c-0.3-0.4-0.8-0.5-1.5-0.5
			c-0.7,0-1.3,0.2-1.7,0.6s-0.6,1-0.6,1.8v3.8h-1.3v-7.4h1.3V96c0.3-0.4,0.6-0.7,1.1-0.9c0.5-0.2,1-0.3,1.6-0.3
			C122.1,94.9,122.8,95.1,123.4,95.7z"/>
		<path class="st5" d="M133.7,92v10.4h-1.3v-1.2c-0.3,0.4-0.7,0.7-1.1,0.9c-0.5,0.2-1,0.3-1.5,0.3c-0.7,0-1.4-0.2-1.9-0.5
			c-0.6-0.3-1-0.8-1.3-1.3c-0.3-0.6-0.5-1.2-0.5-2s0.2-1.4,0.5-2c0.3-0.6,0.8-1,1.3-1.3c0.6-0.3,1.2-0.5,1.9-0.5
			c0.5,0,1,0.1,1.5,0.3c0.4,0.2,0.8,0.5,1.1,0.9V92H133.7z M131.2,100.9c0.4-0.2,0.7-0.5,0.9-0.9c0.2-0.4,0.3-0.9,0.3-1.4
			s-0.1-1-0.3-1.4c-0.2-0.4-0.5-0.7-0.9-0.9c-0.4-0.2-0.8-0.3-1.3-0.3c-0.5,0-0.9,0.1-1.3,0.3c-0.4,0.2-0.7,0.5-0.9,0.9
			c-0.2,0.4-0.3,0.9-0.3,1.4s0.1,1,0.3,1.4c0.2,0.4,0.5,0.7,0.9,0.9s0.8,0.3,1.3,0.3C130.4,101.2,130.8,101.1,131.2,100.9z"/>
		<path class="st5" d="M138.6,95.2c0.5-0.2,1-0.3,1.7-0.3v1.3c-0.1,0-0.2,0-0.3,0c-0.7,0-1.3,0.2-1.7,0.7c-0.4,0.4-0.6,1.1-0.6,1.9
			v3.7h-1.3v-7.4h1.3v1.2C137.8,95.7,138.1,95.4,138.6,95.2z"/>
		<path class="st5" d="M148.5,99.1h-6c0.1,0.7,0.4,1.2,0.9,1.6c0.5,0.4,1.1,0.6,1.8,0.6c0.9,0,1.6-0.3,2.1-0.9l0.7,0.9
			c-0.3,0.4-0.8,0.7-1.3,0.9c-0.5,0.2-1.1,0.3-1.7,0.3c-0.8,0-1.5-0.2-2.1-0.5c-0.6-0.3-1.1-0.8-1.4-1.4c-0.3-0.6-0.5-1.2-0.5-2
			c0-0.7,0.2-1.4,0.5-1.9c0.3-0.6,0.8-1,1.3-1.4c0.6-0.3,1.2-0.5,1.9-0.5c0.7,0,1.3,0.2,1.9,0.5c0.6,0.3,1,0.8,1.3,1.4
			c0.3,0.6,0.5,1.2,0.5,2C148.5,98.8,148.5,98.9,148.5,99.1z M143.3,96.6c-0.4,0.4-0.7,0.9-0.8,1.5h4.8c-0.1-0.6-0.3-1.1-0.8-1.5
			c-0.4-0.4-1-0.6-1.6-0.6S143.7,96.2,143.3,96.6z"/>
		<path class="st5" d="M157.4,92v10.4h-1.3v-1.2c-0.3,0.4-0.7,0.7-1.1,0.9c-0.5,0.2-1,0.3-1.5,0.3c-0.7,0-1.4-0.2-1.9-0.5
			c-0.6-0.3-1-0.8-1.3-1.3c-0.3-0.6-0.5-1.2-0.5-2s0.2-1.4,0.5-2c0.3-0.6,0.8-1,1.3-1.3c0.6-0.3,1.2-0.5,1.9-0.5
			c0.5,0,1,0.1,1.5,0.3c0.4,0.2,0.8,0.5,1.1,0.9V92H157.4z M154.9,100.9c0.4-0.2,0.7-0.5,0.9-0.9c0.2-0.4,0.3-0.9,0.3-1.4
			s-0.1-1-0.3-1.4c-0.2-0.4-0.5-0.7-0.9-0.9c-0.4-0.2-0.8-0.3-1.3-0.3c-0.5,0-0.9,0.1-1.3,0.3c-0.4,0.2-0.7,0.5-0.9,0.9
			c-0.2,0.4-0.3,0.9-0.3,1.4s0.1,1,0.3,1.4c0.2,0.4,0.5,0.7,0.9,0.9s0.8,0.3,1.3,0.3C154.1,101.2,154.5,101.1,154.9,100.9z"/>
		<path class="st5" d="M160,93.2c-0.2-0.2-0.3-0.4-0.3-0.6s0.1-0.5,0.3-0.6s0.4-0.3,0.7-0.3s0.5,0.1,0.7,0.2
			c0.2,0.2,0.3,0.4,0.3,0.6c0,0.3-0.1,0.5-0.3,0.6c-0.2,0.2-0.4,0.3-0.7,0.3S160.2,93.4,160,93.2z M160,94.9h1.3v7.4H160V94.9z"/>
		<path class="st5" d="M174.6,92v10.4h-1.3v-1.2c-0.3,0.4-0.7,0.7-1.1,0.9c-0.5,0.2-1,0.3-1.5,0.3c-0.7,0-1.4-0.2-1.9-0.5
			c-0.6-0.3-1-0.8-1.3-1.3c-0.3-0.6-0.5-1.2-0.5-2s0.2-1.4,0.5-2c0.3-0.6,0.8-1,1.3-1.3c0.6-0.3,1.2-0.5,1.9-0.5
			c0.5,0,1,0.1,1.5,0.3c0.4,0.2,0.8,0.5,1.1,0.9V92H174.6z M172.1,100.9c0.4-0.2,0.7-0.5,0.9-0.9c0.2-0.4,0.3-0.9,0.3-1.4
			s-0.1-1-0.3-1.4c-0.2-0.4-0.5-0.7-0.9-0.9c-0.4-0.2-0.8-0.3-1.3-0.3c-0.5,0-0.9,0.1-1.3,0.3c-0.4,0.2-0.7,0.5-0.9,0.9
			c-0.2,0.4-0.3,0.9-0.3,1.4s0.1,1,0.3,1.4c0.2,0.4,0.5,0.7,0.9,0.9s0.8,0.3,1.3,0.3C171.3,101.2,171.7,101.1,172.1,100.9z"/>
		<path class="st5" d="M184.1,94.9v7.4h-1.3v-1.1c-0.3,0.4-0.6,0.7-1.1,0.9c-0.4,0.2-0.9,0.3-1.4,0.3c-1,0-1.8-0.3-2.3-0.8
			c-0.6-0.5-0.9-1.4-0.9-2.4v-4.3h1.3V99c0,0.7,0.2,1.3,0.5,1.6s0.8,0.6,1.5,0.6c0.7,0,1.3-0.2,1.7-0.6c0.4-0.4,0.6-1,0.6-1.8v-3.8
			H184.1z"/>
		<path class="st5" d="M192.9,92.5v9.8h-1.4v-8.6h-2.2v-1.2H192.9z"/>
		<path class="st5" d="M196.9,101.9c-0.6-0.4-1.1-1-1.4-1.7s-0.5-1.7-0.5-2.7s0.2-1.9,0.5-2.7c0.3-0.8,0.8-1.3,1.4-1.7
			s1.3-0.6,2.1-0.6c0.8,0,1.4,0.2,2.1,0.6c0.6,0.4,1.1,1,1.4,1.7c0.3,0.8,0.5,1.7,0.5,2.7s-0.2,1.9-0.5,2.7
			c-0.3,0.8-0.8,1.3-1.4,1.7c-0.6,0.4-1.3,0.6-2.1,0.6C198.2,102.5,197.5,102.3,196.9,101.9z M200.9,100.2c0.5-0.6,0.7-1.6,0.7-2.8
			s-0.2-2.2-0.7-2.8c-0.5-0.6-1.1-1-1.9-1c-0.8,0-1.4,0.3-1.9,1s-0.7,1.6-0.7,2.8s0.2,2.2,0.7,2.8s1.1,1,1.9,1
			C199.8,101.2,200.4,100.9,200.9,100.2z"/>
		<path class="st5" d="M211.1,95.7c0.6,0.5,0.8,1.3,0.8,2.4v4.3h-1.3v-4.1c0-0.7-0.2-1.3-0.5-1.6c-0.3-0.4-0.8-0.5-1.5-0.5
			c-0.7,0-1.3,0.2-1.7,0.6s-0.6,1-0.6,1.8v3.8h-1.3V92h1.3v4c0.3-0.4,0.6-0.6,1.1-0.8c0.5-0.2,1-0.3,1.5-0.3
			C209.8,94.9,210.6,95.1,211.1,95.7z"/>
		<path class="st5" d="M223.3,95.6c0.5,0.5,0.8,1.3,0.8,2.3v4.5h-1.3v-1c-0.2,0.3-0.5,0.6-1,0.8s-0.9,0.3-1.5,0.3
			c-0.8,0-1.5-0.2-2-0.6c-0.5-0.4-0.7-0.9-0.7-1.6s0.2-1.2,0.7-1.6c0.5-0.4,1.2-0.6,2.3-0.6h2.1v-0.3c0-0.6-0.2-1-0.5-1.3
			c-0.3-0.3-0.8-0.5-1.5-0.5c-0.4,0-0.9,0.1-1.3,0.2s-0.8,0.3-1.1,0.6l-0.6-1c0.4-0.3,0.8-0.5,1.4-0.7c0.5-0.2,1.1-0.2,1.7-0.2
			C222,94.9,222.8,95.1,223.3,95.6z M218.5,92h1.7l1.9,1.8h-1.3L218.5,92z M222,101c0.4-0.2,0.6-0.6,0.8-1v-1h-2.1
			c-1.1,0-1.7,0.4-1.7,1.1c0,0.4,0.1,0.7,0.4,0.9s0.7,0.3,1.2,0.3S221.6,101.3,222,101z"/>
		<path class="st5" d="M232.8,92.5v9.8h-1.4v-8.6h-2.2v-1.2H232.8z"/>
		<path class="st5" d="M242.2,98.1c0.3,0.4,0.4,0.9,0.4,1.4c0,0.6-0.2,1.1-0.5,1.5c-0.3,0.4-0.8,0.8-1.4,1c-0.6,0.2-1.3,0.3-2.1,0.3
			c-0.8,0-1.5-0.1-2.1-0.3c-0.6-0.2-1-0.6-1.4-1c-0.3-0.4-0.5-0.9-0.5-1.5c0-0.6,0.1-1,0.4-1.4s0.7-0.7,1.3-0.9
			c-0.4-0.2-0.8-0.5-1-0.9c-0.2-0.4-0.4-0.8-0.4-1.3c0-0.5,0.1-1,0.4-1.4s0.7-0.7,1.2-0.9c0.5-0.2,1.1-0.3,1.8-0.3
			c0.7,0,1.3,0.1,1.9,0.3c0.5,0.2,1,0.5,1.2,0.9s0.4,0.9,0.4,1.4c0,0.5-0.1,0.9-0.4,1.3c-0.2,0.4-0.6,0.6-1,0.9
			C241.5,97.4,241.9,97.7,242.2,98.1z M240.6,100.8c0.4-0.3,0.7-0.8,0.7-1.3c0-0.5-0.2-1-0.7-1.3c-0.4-0.3-1.1-0.5-1.8-0.5
			c-0.8,0-1.4,0.2-1.8,0.5c-0.4,0.3-0.7,0.7-0.7,1.3c0,0.6,0.2,1,0.7,1.3c0.4,0.3,1,0.5,1.8,0.5
			C239.6,101.3,240.2,101.2,240.6,100.8z M237.2,94c-0.4,0.3-0.6,0.7-0.6,1.2s0.2,0.9,0.6,1.1c0.4,0.3,0.9,0.4,1.6,0.4
			c0.7,0,1.2-0.1,1.6-0.4c0.4-0.3,0.6-0.7,0.6-1.1s-0.2-0.9-0.6-1.2s-0.9-0.4-1.6-0.4C238.1,93.6,237.6,93.7,237.2,94z"/>
		<path class="st5" d="M250.8,95.7c0.6,0.5,0.8,1.3,0.8,2.4v4.3h-1.3v-4.1c0-0.7-0.2-1.3-0.5-1.6c-0.3-0.4-0.8-0.5-1.5-0.5
			c-0.7,0-1.3,0.2-1.7,0.6s-0.6,1-0.6,1.8v3.8h-1.3V92h1.3v4c0.3-0.4,0.6-0.6,1.1-0.8c0.5-0.2,1-0.3,1.5-0.3
			C249.5,94.9,250.2,95.1,250.8,95.7z"/>
		<path class="st5" d="M253.8,102.2c-0.2-0.2-0.3-0.4-0.3-0.7c0-0.3,0.1-0.5,0.3-0.7s0.4-0.3,0.7-0.3c0.3,0,0.5,0.1,0.7,0.3
			s0.3,0.4,0.3,0.7c0,0.3-0.1,0.5-0.3,0.7s-0.4,0.3-0.7,0.3C254.2,102.4,253.9,102.3,253.8,102.2z"/>
		<path class="st5" d="M39.7,116.7h-5.2l-1.1,2.5H32l4.4-9.8h1.4l4.5,9.8h-1.5L39.7,116.7z M39.2,115.6l-2.1-4.8l-2.1,4.8H39.2z"/>
		<path class="st5" d="M51.5,118.7c-0.2,0.2-0.4,0.3-0.7,0.4c-0.3,0.1-0.6,0.1-0.9,0.1c-0.7,0-1.3-0.2-1.7-0.6
			c-0.4-0.4-0.6-1-0.6-1.7v-4.1h-1.3v-1.1h1.3v-1.6h1.3v1.6H51v1.1h-2.1v4c0,0.4,0.1,0.7,0.3,0.9c0.2,0.2,0.5,0.3,0.9,0.3
			c0.4,0,0.8-0.1,1-0.4L51.5,118.7z"/>
		<path class="st5" d="M55.4,112c0.5-0.2,1-0.3,1.7-0.3v1.3c-0.1,0-0.2,0-0.3,0c-0.7,0-1.3,0.2-1.7,0.7c-0.4,0.4-0.6,1.1-0.6,1.9
			v3.7h-1.3v-7.4h1.3v1.2C54.6,112.5,55,112.2,55.4,112z"/>
		<path class="st5" d="M65.3,115.9h-6c0.1,0.7,0.4,1.2,0.9,1.6c0.5,0.4,1.1,0.6,1.8,0.6c0.9,0,1.6-0.3,2.1-0.9l0.7,0.9
			c-0.3,0.4-0.8,0.7-1.3,0.9c-0.5,0.2-1.1,0.3-1.7,0.3c-0.8,0-1.5-0.2-2.1-0.5c-0.6-0.3-1.1-0.8-1.4-1.4c-0.3-0.6-0.5-1.2-0.5-2
			c0-0.7,0.2-1.4,0.5-1.9c0.3-0.6,0.8-1,1.3-1.4c0.6-0.3,1.2-0.5,1.9-0.5c0.7,0,1.3,0.2,1.9,0.5c0.6,0.3,1,0.8,1.3,1.4
			c0.3,0.6,0.5,1.2,0.5,2C65.4,115.6,65.4,115.7,65.3,115.9z M59.1,108.8h1.7l1.9,1.8h-1.3L59.1,108.8z M60.1,113.4
			c-0.4,0.4-0.7,0.9-0.8,1.5h4.8c-0.1-0.6-0.3-1.1-0.8-1.5c-0.4-0.4-1-0.6-1.6-0.6S60.5,113,60.1,113.4z"/>
		<path class="st5" d="M67.6,119c-0.6-0.2-1-0.4-1.3-0.6l0.6-1.1c0.3,0.2,0.7,0.4,1.2,0.6s0.9,0.2,1.4,0.2c1.2,0,1.8-0.3,1.8-1
			c0-0.2-0.1-0.4-0.2-0.5c-0.2-0.1-0.4-0.2-0.6-0.3c-0.2-0.1-0.6-0.1-1-0.2c-0.6-0.1-1.1-0.2-1.5-0.3c-0.4-0.1-0.7-0.3-1-0.6
			c-0.3-0.3-0.4-0.7-0.4-1.2c0-0.7,0.3-1.2,0.8-1.6c0.6-0.4,1.3-0.6,2.3-0.6c0.5,0,1,0.1,1.5,0.2c0.5,0.1,0.9,0.3,1.2,0.5l-0.6,1.1
			c-0.6-0.4-1.3-0.6-2.1-0.6c-0.6,0-1,0.1-1.3,0.3c-0.3,0.2-0.4,0.4-0.4,0.7c0,0.2,0.1,0.4,0.3,0.6c0.2,0.1,0.4,0.2,0.6,0.3
			c0.2,0.1,0.6,0.1,1,0.2c0.6,0.1,1.1,0.2,1.4,0.3s0.7,0.3,0.9,0.6c0.3,0.3,0.4,0.7,0.4,1.2c0,0.7-0.3,1.2-0.9,1.6
			c-0.6,0.4-1.4,0.6-2.3,0.6C68.7,119.2,68.2,119.1,67.6,119z"/>
		<path class="st5" d="M84.6,111.7l-3.2,7.4h-1.4l-3.2-7.4h1.4l2.5,5.9l2.6-5.9H84.6z"/>
		<path class="st5" d="M85.9,110c-0.2-0.2-0.3-0.4-0.3-0.6s0.1-0.5,0.3-0.6s0.4-0.3,0.7-0.3s0.5,0.1,0.7,0.2
			c0.2,0.2,0.3,0.4,0.3,0.6c0,0.3-0.1,0.5-0.3,0.6c-0.2,0.2-0.4,0.3-0.7,0.3S86,110.2,85.9,110z M85.8,111.7h1.3v7.4h-1.3V111.7z"/>
		<path class="st5" d="M93.9,118.7c-0.2,0.2-0.4,0.3-0.7,0.4c-0.3,0.1-0.6,0.1-0.9,0.1c-0.7,0-1.3-0.2-1.7-0.6
			c-0.4-0.4-0.6-1-0.6-1.7v-4.1h-1.3v-1.1h1.3v-1.6h1.3v1.6h2.1v1.1h-2.1v4c0,0.4,0.1,0.7,0.3,0.9c0.2,0.2,0.5,0.3,0.9,0.3
			c0.4,0,0.8-0.1,1-0.4L93.9,118.7z"/>
		<path class="st5" d="M102,115.9h-6c0.1,0.7,0.4,1.2,0.9,1.6c0.5,0.4,1.1,0.6,1.8,0.6c0.9,0,1.6-0.3,2.1-0.9l0.7,0.9
			c-0.3,0.4-0.8,0.7-1.3,0.9c-0.5,0.2-1.1,0.3-1.7,0.3c-0.8,0-1.5-0.2-2.1-0.5c-0.6-0.3-1.1-0.8-1.4-1.4c-0.3-0.6-0.5-1.2-0.5-2
			c0-0.7,0.2-1.4,0.5-1.9c0.3-0.6,0.8-1,1.3-1.4c0.6-0.3,1.2-0.5,1.9-0.5c0.7,0,1.3,0.2,1.9,0.5c0.6,0.3,1,0.8,1.3,1.4
			c0.3,0.6,0.5,1.2,0.5,2C102,115.6,102,115.7,102,115.9z M96.7,113.4c-0.4,0.4-0.7,0.9-0.8,1.5h4.8c-0.1-0.6-0.3-1.1-0.8-1.5
			c-0.4-0.4-1-0.6-1.6-0.6S97.1,113,96.7,113.4z"/>
		<path class="st5" d="M104.8,117.6c0.2,0.2,0.3,0.4,0.3,0.7c0,0.1,0,0.3,0,0.4c0,0.1-0.1,0.3-0.2,0.6l-0.7,1.9h-0.9l0.5-2.1
			c-0.2-0.1-0.3-0.2-0.4-0.3c-0.1-0.2-0.2-0.3-0.2-0.5c0-0.3,0.1-0.5,0.3-0.7s0.4-0.3,0.7-0.3C104.4,117.3,104.7,117.4,104.8,117.6z
			"/>
		<path class="st5" d="M119.5,109.3l-4.3,9.8h-1.4l-4.3-9.8h1.5l3.5,8l3.6-8H119.5z"/>
		<path class="st5" d="M122.4,118.6c-0.8-0.4-1.4-1-1.9-1.8c-0.5-0.8-0.7-1.6-0.7-2.6s0.2-1.8,0.7-2.6c0.5-0.8,1.1-1.4,1.9-1.8
			c0.8-0.4,1.7-0.7,2.7-0.7c1,0,1.9,0.2,2.7,0.7c0.8,0.4,1.4,1,1.9,1.8c0.4,0.8,0.7,1.6,0.7,2.6c0,1-0.2,1.8-0.7,2.6
			c-0.4,0.8-1.1,1.4-1.9,1.8c-0.8,0.4-1.7,0.7-2.7,0.7C124.1,119.3,123.2,119,122.4,118.6z M127,117.5c0.6-0.3,1-0.8,1.4-1.4
			c0.3-0.6,0.5-1.2,0.5-1.9s-0.2-1.4-0.5-1.9c-0.3-0.6-0.8-1-1.4-1.4s-1.2-0.5-1.9-0.5s-1.4,0.2-2,0.5s-1,0.8-1.4,1.4
			c-0.3,0.6-0.5,1.2-0.5,1.9s0.2,1.4,0.5,1.9c0.3,0.6,0.8,1,1.4,1.4s1.2,0.5,2,0.5S126.4,117.8,127,117.5z"/>
		<path class="st5" d="M134.2,110.6h-3.4v-1.2h8.1v1.2h-3.4v8.6h-1.4V110.6z"/>
		<path class="st5" d="M147,119.1l-2.1-3c-0.3,0-0.5,0-0.6,0h-2.4v3h-1.4v-9.8h3.8c1.3,0,2.3,0.3,3,0.9c0.7,0.6,1.1,1.4,1.1,2.5
			c0,0.8-0.2,1.4-0.6,1.9c-0.4,0.5-0.9,0.9-1.6,1.2l2.3,3.3H147z M146.3,114.4c0.5-0.4,0.7-0.9,0.7-1.6c0-0.7-0.2-1.3-0.7-1.6
			s-1.1-0.6-2-0.6h-2.4v4.4h2.4C145.2,115,145.8,114.8,146.3,114.4z"/>
		<path class="st5" d="M157.8,117.9v1.2h-7.1v-9.8h6.9v1.2h-5.5v3h4.9v1.2h-4.9v3.2H157.8z"/>
		<path class="st5" d="M165.6,118.6c-0.8-0.4-1.4-1-1.9-1.8c-0.5-0.8-0.7-1.6-0.7-2.6s0.2-1.8,0.7-2.6c0.5-0.8,1.1-1.4,1.9-1.8
			c0.8-0.4,1.7-0.7,2.7-0.7c1,0,1.9,0.2,2.7,0.7c0.8,0.4,1.4,1,1.9,1.8c0.4,0.8,0.7,1.6,0.7,2.6c0,1-0.2,1.8-0.7,2.6
			c-0.4,0.8-1.1,1.4-1.9,1.8c-0.8,0.4-1.7,0.7-2.7,0.7C167.2,119.3,166.4,119,165.6,118.6z M170.2,117.5c0.6-0.3,1-0.8,1.4-1.4
			c0.3-0.6,0.5-1.2,0.5-1.9s-0.2-1.4-0.5-1.9c-0.3-0.6-0.8-1-1.4-1.4s-1.2-0.5-1.9-0.5s-1.4,0.2-2,0.5s-1,0.8-1.4,1.4
			c-0.3,0.6-0.5,1.2-0.5,1.9s0.2,1.4,0.5,1.9c0.3,0.6,0.8,1,1.4,1.4s1.2,0.5,2,0.5S169.6,117.8,170.2,117.5z"/>
		<path class="st5" d="M182.4,110.3c0.7,0.6,1.1,1.4,1.1,2.5c0,1.1-0.4,1.9-1.1,2.5c-0.7,0.6-1.7,0.9-3,0.9H177v3h-1.4v-9.8h3.8
			C180.7,109.3,181.7,109.6,182.4,110.3z M181.4,114.4c0.5-0.4,0.7-0.9,0.7-1.6c0-0.7-0.2-1.3-0.7-1.6s-1.1-0.6-2-0.6H177v4.4h2.4
			C180.2,115,180.9,114.8,181.4,114.4z"/>
		<path class="st5" d="M187.2,110.6h-3.4v-1.2h8.1v1.2h-3.4v8.6h-1.4V110.6z"/>
		<path class="st5" d="M193.4,109.3h1.4v9.8h-1.4V109.3z"/>
		<path class="st5" d="M199.5,118.6c-0.8-0.4-1.4-1-1.9-1.8c-0.4-0.8-0.7-1.6-0.7-2.6c0-1,0.2-1.8,0.7-2.6c0.4-0.8,1.1-1.4,1.9-1.8
			c0.8-0.4,1.7-0.7,2.7-0.7c0.8,0,1.5,0.1,2.1,0.4s1.2,0.6,1.6,1.1l-0.9,0.9c-0.7-0.8-1.7-1.2-2.8-1.2c-0.7,0-1.4,0.2-2,0.5
			s-1,0.8-1.4,1.4c-0.3,0.6-0.5,1.2-0.5,1.9s0.2,1.4,0.5,1.9c0.3,0.6,0.8,1,1.4,1.4s1.2,0.5,2,0.5c1.1,0,2-0.4,2.8-1.2l0.9,0.9
			c-0.4,0.5-1,0.9-1.6,1.1c-0.6,0.3-1.3,0.4-2.1,0.4C201.2,119.3,200.3,119,199.5,118.6z"/>
		<path class="st5" d="M207.9,109.3h1.4v9.8h-1.4V109.3z"/>
		<path class="st5" d="M219.4,117.9v1.2h-7.1v-9.8h6.9v1.2h-5.5v3h4.9v1.2h-4.9v3.2H219.4z"/>
		<path class="st5" d="M230.1,109.3v9.8h-1.1l-5.9-7.3v7.3h-1.4v-9.8h1.1l5.9,7.3v-7.3H230.1z"/>
		<path class="st5" d="M232.4,119c-0.2-0.2-0.3-0.4-0.3-0.7c0-0.3,0.1-0.5,0.3-0.7s0.4-0.3,0.7-0.3c0.3,0,0.5,0.1,0.7,0.3
			s0.3,0.4,0.3,0.7c0,0.3-0.1,0.5-0.3,0.7s-0.4,0.3-0.7,0.3C232.9,119.2,232.6,119.1,232.4,119z"/>
	</g>
	<path class="st6" d="M196,193.5L196,193.5l12-2.8c1.2-0.3,2.4,0.3,2.9,1.4l12.3,25.5c0.5,1.1,0.1,2.3-1,2.8
		c-0.1,0.1-0.2,0.1-0.3,0.1l-12.2,3.5c-1.3,0.4-2.8-0.3-3.3-1.6l-7.8-18.2l-0.2,0.1l-1.5-3.4l0.2-0.1l-2.2-5.1
		c-0.4-0.8,0-1.8,0.8-2.1C195.8,193.5,195.9,193.5,196,193.5z"/>
	<path class="st7" d="M206.5,191.7l1.4-0.3c0.8-0.2,1.7,0.2,2,1l12,25.3c0.3,0.6,0,1.2-0.5,1.5c-0.1,0-0.1,0-0.2,0.1l-12.1,3.6
		c-0.7,0.2-1.5-0.1-1.8-0.8L196,195.6c-0.3-0.6,0-1.4,0.7-1.7c0.1,0,0.1-0.1,0.2-0.1l1.3-0.3c0.3-0.1,0.5,0.1,0.7,0.3l0,0
		c0.1,0.2,0.4,0.3,0.6,0.3l6.3-1.5C206.3,192.6,206.6,192.1,206.5,191.7z"/>
	<path class="st8" d="M282,157.7c-0.7-2.9-3.4-5-6.4-5c-4.3,0-9.5,1.1-8.4,6.2c1.9,8.4,15.9,45.1,15.9,45.1l-34.1,4.2
		c0,0-26.6-3.9-18.2,5.2c8.4,9.1,19.5,3.9,19.5,3.9s43.8,1.2,43.8-6.2c0-1.9-0.4-4.6-1.8-10.3L282,157.7z"/>
	<circle class="st8" cx="256.2" cy="129.7" r="16.9"/>
	<path class="st8" d="M267.6,139.1c0,0-1.3,13,3.2,18.2h-24.7c0,0,5.8-5.2,1.3-15.6C242.9,131.3,267.6,139.1,267.6,139.1z"/>
	<path class="st8" d="M283.8,188.5c-0.5,2-0.9,3.8-1.4,5.4v0c-1.7,5.9-3.3,8.7-4.2,9.9c-0.2,0.4-0.5,0.7-0.9,0.9l-39.6-11
		c0,0,1.3-13.6,4.5-16.9c3.2-3.2,1.9-20.8,1.9-20.8l10.4-3.2c0,0,9.6-0.3,16.3-0.3c2.1,0,3.9,0.1,4.9,0.2c0.3,0,0.6,0.1,0.9,0.1
		C279.3,153.4,287.1,174.2,283.8,188.5z"/>
	<path class="st9" d="M266,194.6c0,0-8.8-39.9-12-41.2c-3.1-1.2-9.1,1.9-9.1,1.9s10.8-6.2,16.3,39.3L266,194.6z"/>
	<path class="st9" d="M282.5,193.8L282.5,193.8c-1.7,5.9-3.3,8.7-4.2,9.9c-2.3-13-7-40.7-7.3-51.3c2.1,0,3.9,0.1,4.9,0.2
		C276.2,160.7,279.6,174.6,282.5,193.8z"/>
	<path class="st9" d="M239,185.9c0,0,5.5,8.1,10.1,7.5c4.5-0.6,30,2.1,31.2,6.6l-7.2,25.2v9.1c0,0,9.2,7.1,10.2,26.8
		c0.3,8-0.8,15.9-3.2,23.5l-3,9.5c0,0-3.2,16.9,0.6,24c3.9,7.1,1.9,22.7,1.9,22.7s34.7,48.4,15.3,52.9c-19.5,4.5-39.3,12.7-39.9,0.3
		c-0.6-12.3-4.5-96.1-4.5-96.1s3.9,94.1-11,96.1c-14.9,1.9-43.5,15.6-44.8-0.6s33.1-150,33.1-150s-0.6-20.1,10.4-27.9l2.6-10.4
		C240.6,205,233.2,189.8,239,185.9z"/>
	<polygon class="st9" points="241.6,170.3 238.1,188.8 238.1,191 243.6,173.5 	"/>
	<path class="st9" d="M269.1,383.9c0,0,1.5,17.2-3.4,18.8c-5,1.6-27.3-0.2-21.8,10.1s48.9,5.2,47.1-0.4
		c-1.9-5.6-10.4-31.7-10.4-31.7L269.1,383.9z"/>
	<path class="st9" d="M213.2,385.2c0,0,1.5,17.2-3.4,18.8c-5,1.6-27.3-0.2-21.8,10.1c5.5,10.3,48.9,5.2,47.1-0.4
		S224.6,382,224.6,382L213.2,385.2z"/>
	<path class="st8" d="M252.8,159.6c-0.7-2.9-3.4-5-6.4-5c-4.3,0-9.5,1.1-8.4,6.2c1.9,8.4,11,48,11,48l-29.2,1.3
		c0,0-26.6-3.9-18.2,5.2c8.4,9.1,19.5,3.9,19.5,3.9s32.1,4.9,37.3-0.3c0.1-0.1,0.1-0.1,0.2-0.2c4.2-4.2,6-10.2,4.6-16L252.8,159.6z"
		/>
	<path class="st9" d="M262.4,102.9L262.4,102.9c-10.8,0-19.5,12.1-19.5,27.1v19h4.7l2.7-7l-0.7,7h30.1l2.5-6.4l-0.6,6.4h3.4V134
		C284.9,116.8,274.8,102.9,262.4,102.9z"/>
	<path class="st9" d="M264.5,107.1c-2.4-3.2-6.1-5.1-10.1-5.1h-0.5c-9.2,0-16.7,8.4-16.7,18.7v0h3.1l0.5-3.8l0.7,3.8h18.3l1.5-3.2
		l-0.4,3.2h3.6c1.7,8.4-0.7,16.7-7.3,25.1h6.1l3.1-6.4l-0.8,6.4h11.7l2.3-14.8C279.8,119.8,273.4,110.4,264.5,107.1z"/>
	<path class="st6" d="M362.5,419.3c-0.1-0.2-3.7-6.1-4.9-18.3c-1.1-11.2-0.4-30,9.4-56.3c18.5-49.8-4.3-89.9-4.5-90.3l1.1-0.7
		c0.1,0.1,5.9,10.3,9.4,26.6c4.6,21.6,2.9,44.1-4.8,64.8c-18.5,49.7-4.7,73.2-4.6,73.5L362.5,419.3z"/>
	<circle class="st7" cx="355.2" cy="243" r="8.4"/>
	<circle class="st7" cx="381.9" cy="274.2" r="8.4"/>
	<circle class="st7" cx="363.7" cy="295" r="8.4"/>
	<circle class="st7" cx="385.8" cy="312.5" r="8.4"/>
	<circle class="st7" cx="357.2" cy="339.8" r="8.4"/>
	<path class="st6" d="M367.6,419.6c0,0-8.4-20.8,16.9-36.4L367.6,419.6z"/>
	<path class="st6" d="M357.2,419.2c0,0-3.8-22.1-33.6-21.9L357.2,419.2z"/>
	<rect x="85.8" y="418.3" class="st6" width="375.3" height="1.3"/>
	<g>
	</g>
	<g>
	</g>
	<g>
	</g>
	<g>
	</g>
	<g>
	</g>
	<g>
	</g>
	<g>
	</g>
	<g>
	</g>
	<g>
	</g>
	<g>
	</g>
	<g>
	</g>
	<g>
	</g>
	<g>
	</g>
	<g>
	</g>
	<g>
	</g>
</g>
</svg>
