<svg id="Capa_1" enable-background="new 0 0 512 512" height="512" viewBox="0 0 512 512" width="512" xmlns="http://www.w3.org/2000/svg"><g><g><path d="m499.96 26.74 12.04-18.15c-21.32-4.46-32.2-8.59-46-8.59-21.56 0-42.47 7.55-59.82 19.59-27.9-12.16-58.79-19.55-89.94-19.59h-.24c-107.52 0-195 75.02-195 166 0 14.41 2.17 28.39 6.43 41.53l4.38 13.47c8.95-1.91 30.13-10 64.19-10 58.22 0 95.9 19 120.24 41.64 31.27 29.08 40.56 64.17 43.16 72.75.09.31.17.57.25.81.04.12.08.22.11.32.14.4.25.66.33.77l14.03-3.69c81.88-21.56 137.88-84.9 137.88-157.6 0-30.92-11.12-61.01-30.33-87.33 1.78-18.14 7.91-35.59 18.29-51.93z" fill="#ecf2ff"/></g><path d="m481.67 78.67c19.21 26.32 30.33 56.41 30.33 87.33 0 72.7-56 136.04-137.88 157.6l-14.03 3.69c-.08-.11-.19-.37-.33-.77-.03-.1-.07-.21-.11-.32-.08-.24-.16-.5-.25-.81-2.64-8.53-12.07-43.44-43.16-72.48v-252.91c31.15.04 62.04 7.43 89.94 19.59 17.35-12.04 38.26-19.59 59.82-19.59 13.8 0 24.68 4.13 46 8.59l-12.04 18.15c-10.38 16.34-16.51 33.79-18.29 51.93z" fill="#d9e5ff"/><g><path d="m196 512c-31.23 0-62.212-7.401-90.176-19.589-17.358 12.041-38.261 19.589-59.824 19.589-13.8 0-24.677-4.127-46-8.588l12.045-18.149c10.371-16.348 16.509-33.794 18.281-51.929-19.204-26.338-30.326-56.411-30.326-87.334 0-90.29 86.403-165 196-165 114.059 0 195 78.95 195 165 0 90.981-87.48 166-195 166z" fill="#ffcb66"/></g><path d="m391 346c0-86.05-80.942-165-195-165v331c107.52 0 195-75.019 195-166z" fill="#ffa64d"/><g id="bribery_talk_1_"><path d="m196 331c-8.276 0-15-6.724-15-15s6.724-15 15-15 15 6.724 15 15h30c0-19.53-12.578-36.024-30-42.237v-32.763h-30v32.763c-17.422 6.213-30 22.707-30 42.237 0 24.814 20.186 45 45 45 8.276 0 15 6.724 15 15s-6.724 15-15 15-15-6.724-15-15h-30c0 19.53 12.578 36.024 30 42.237v32.763h30v-32.763c17.422-6.213 30-22.707 30-42.237 0-24.814-20.186-45-45-45z" fill="#ffea80"/><g><path d="m241 121h30v30h-30z" fill="#5f5166"/></g><g><path d="m301 121h30v30h-30z" fill="#5f5166"/></g><g><path d="m361 121h30v30h-30z" fill="#45354d"/></g></g><g fill="#ffcb66"><path d="m196 241v60c8.276 0 15 6.724 15 15h30c0-19.53-12.578-36.024-30-42.237v-32.763z"/><path d="m211 418.237c17.422-6.213 30-22.707 30-42.237 0-24.814-20.186-45-45-45v30c8.276 0 15 6.724 15 15s-6.724 15-15 15v60h15z"/></g><path d="m316.242 121h14.758v30h-14.758z" fill="#45354d"/></g></svg>