<?xml version="1.0" encoding="iso-8859-1"?>
<!-- Generator: Adobe Illustrator 19.0.0, SVG Export Plug-In . SVG Version: 6.00 Build 0)  -->
<svg version="1.1" id="Capa_1" xmlns="http://www.w3.org/2000/svg" xmlns:xlink="http://www.w3.org/1999/xlink" x="0px" y="0px"
	 viewBox="0 0 512 512" style="enable-background:new 0 0 512 512;" xml:space="preserve">
<path style="fill:#F3F1F1;" d="M428,0H204c-22.056,0-40,17.944-40,40v432c0,22.056,17.944,40,40,40h224c22.056,0,40-17.944,40-40V40
	C468,17.944,450.056,0,428,0z"/>
<g>
	<path style="fill:#E6E3E2;" d="M468,40c0-22.056-17.944-40-40-40H204c-22.056,0-40,17.944-40,40v432
		c0,18.971,13.279,34.887,31.027,38.973L468,238V40z"/>
	<polygon style="fill:#E6E3E2;" points="320,512 468,364 468,298 254,512 	"/>
</g>
<g>
	<path style="fill:#9B8E8B;" d="M468,432H164v40c0,22.091,17.909,40,40,40h224c22.091,0,40-17.909,40-40V432z"/>
	<path style="fill:#9B8E8B;" d="M428,0H204c-22.091,0-40,17.909-40,40v24h304V40C468,17.909,450.091,0,428,0z"/>
</g>
<path style="fill:#DAD5D4;" d="M332,480h-32c-4.418,0-8-3.582-8-8s3.582-8,8-8h32c4.418,0,8,3.582,8,8S336.418,480,332,480z"/>
<g>
	<path style="fill:#82716F;" d="M317,40h-1c-4.418,0-8-3.582-8-8s3.582-8,8-8h1c4.418,0,8,3.582,8,8S321.418,40,317,40z"/>
	<path style="fill:#82716F;" d="M349,40h-1c-4.418,0-8-3.582-8-8s3.582-8,8-8h1c4.418,0,8,3.582,8,8S353.418,40,349,40z"/>
	<path style="fill:#82716F;" d="M285,40h-1c-4.418,0-8-3.582-8-8s3.582-8,8-8h1c4.418,0,8,3.582,8,8S289.418,40,285,40z"/>
</g>
<rect x="164" y="64" style="fill:#DAD5D4;" width="32" height="368"/>
<g>
	<path style="fill:#8F807D;" d="M164,472c0,16.65,10.684,31.795,26.255,37.569C194.63,511.192,199.336,512,204,512h32
		c-18.811,0-34.58-12.988-38.852-30.483C196.387,478.413,196,475.196,196,472v-40h-32V472z"/>
	<path style="fill:#8F807D;" d="M196,40c0-22.091,17.909-40,40-40h-32c-22.091,0-40,17.909-40,40v24h32V40z"/>
</g>
<path style="fill:#C4A0DE;" d="M300,208c0-61.757-57.42-112-128-112S44,146.243,44,208s57.42,112,128,112
	c13.103,0,26.002-1.725,38.398-5.13l45.409,27.944c3.066,1.886,7.128,1.452,9.727-1.036c2.287-2.19,3.068-5.622,1.957-8.586
	L253.056,294.7C282.57,273.528,300,241.551,300,208z"/>
<path style="fill:#AE85CC;" d="M263.087,321.447l-36.688-22.577C214.002,302.275,201.103,304,188,304c-70.58,0-128-50.243-128-112
	c0-24.368,8.945-46.939,24.106-65.342C59.424,147.087,44,175.996,44,208c0,61.757,57.42,112,128,112
	c13.103,0,26.002-1.725,38.398-5.13l45.409,27.944c2.88,1.772,6.669,1.512,9.279-0.638c2.639-2.173,3.605-5.783,2.405-8.984
	L263.087,321.447z"/>
<g>
	<path style="fill:#F3F1F1;" d="M188,192h-32c-4.418,0-8,3.582-8,8v72c0,4.418,3.582,8,8,8h32c4.418,0,8-3.582,8-8v-72
		C196,195.582,192.418,192,188,192z"/>
	<path style="fill:#F3F1F1;" d="M172,184c13.234,0,24-10.766,24-24s-10.766-24-24-24s-24,10.766-24,24S158.766,184,172,184z"/>
</g>
<g>
</g>
<g>
</g>
<g>
</g>
<g>
</g>
<g>
</g>
<g>
</g>
<g>
</g>
<g>
</g>
<g>
</g>
<g>
</g>
<g>
</g>
<g>
</g>
<g>
</g>
<g>
</g>
<g>
</g>
</svg>
