<svg id="Capa_1" enable-background="new 0 0 512 512" height="512" viewBox="0 0 512 512" width="512" xmlns="http://www.w3.org/2000/svg" xmlns:xlink="http://www.w3.org/1999/xlink"><linearGradient id="SVGID_1_" gradientUnits="userSpaceOnUse" x1="25.546" x2="463.615" y1="486.454" y2="48.385"><stop offset="0" stop-color="#5558ff"/><stop offset="1" stop-color="#00c0ff"/></linearGradient><linearGradient id="SVGID_2_" gradientUnits="userSpaceOnUse" x1="197.258" x2="402.609" y1="314.742" y2="109.391"><stop offset="0" stop-color="#addcff"/><stop offset=".5028" stop-color="#eaf6ff"/><stop offset="1" stop-color="#eaf6ff"/></linearGradient><g><g><g><path d="m207.875 325.351 2.411-27.584-23.626 6.377-10.549-10.545c-5.859-5.859-15.352-5.859-21.211 0l-150.507 150.491c-5.856 5.856-5.859 15.352 0 21.211l42.305 42.305c5.859 5.859 15.352 5.859 21.211 0l150.507-150.506c5.86-5.86 5.856-15.355 0-21.211zm139.125-325.351c-90.967 0-165 74.019-165 165 0 40.104 14.412 76.886 38.291 105.513l-2.288 27.71 23.501-6.5c28.625 23.87 65.403 38.277 105.496 38.277 90.967 0 165-74.019 165-165s-74.033-165-165-165z" fill="url(#SVGID_1_)"/></g></g><g><g><path d="m220.291 270.513-33.631 33.631 21.215 21.207 33.629-33.629c-7.694-6.416-14.795-13.517-21.213-21.209zm186.709-150.513h-120c-8.291 0-15 6.709-15 15v60c0 8.291 6.709 15 15 15h120c8.291 0 15-6.709 15-15v-60c0-8.291-6.709-15-15-15z" fill="url(#SVGID_2_)"/></g></g></g></svg>