<svg height="512pt" viewBox="0 0 512 512" width="512pt" xmlns="http://www.w3.org/2000/svg"><path d="m15 391h14.5c8.097656 0 15.898438 2.101562 21 5.097656l123.601562 105.101563c11.699219 7.199219 24.898438 10.800781 38.398438 10.800781h178.5c16.570312 0 30-14.433594 30-31 0-16.570312-13.429688-30-30-30h-135c-12 0-23.402344-4.800781-31.800781-13.199219l-81.300781-81.300781c-5.699219-5.699219-5.699219-15.300781 0-21 5.699218-5.699219 14.402343-6 20.402343-.601562l77.398438 77.402343c10.152343 10.164063 28.1875 13.40625 42.300781 0 11.699219-11.699219 11.699219-30.902343 0-42.601562l-106.5-106.800781c-14.582031-14.582032-33.597656-21.898438-52.800781-21.898438h-108.699219c-8.402344 0-15 6.597656-15 15v120c0 8.398438 6.597656 15 15 15zm0 0"/><path d="m368.5 421c12.425781 0 22.5-10.074219 22.5-22.5s-10.074219-22.5-22.5-22.5h-48.835938c1.246094 4.863281 2.109376 9.84375 2.109376 15 0 10.707031-2.769532 20.992188-7.957032 30zm0 0"/><path d="m338.5 301h-81.644531l44.871093 45h36.773438c12.425781 0 22.5-10.074219 22.5-22.5s-10.074219-22.5-22.5-22.5zm0 0"/><path d="m497 121h-14.5c-8.097656 0-15.898438-2.101562-21-5.097656l-123.601562-104.101563c-11.699219-7.199219-24.898438-11.800781-38.398438-11.800781h-178.5c-16.570312 0-30 14.433594-30 31 0 16.570312 13.429688 30 30 30h135c12 0 23.402344 4.800781 31.800781 13.199219l81.300781 81.300781c5.699219 5.699219 5.699219 15.300781 0 21-5.699218 5.699219-14.402343 6-20.402343.601562l-77.398438-77.402343c-10.152343-10.164063-28.1875-13.40625-42.300781 0-11.699219 11.699219-11.699219 30.902343 0 42.601562l106.5 106.800781c14.582031 14.578126 33.597656 21.898438 52.800781 21.898438h108.699219c8.402344 0 15-6.597656 15-15v-120c0-8.398438-6.597656-15-15-15zm0 0"/><path d="m143.5 91c-12.425781 0-22.5 10.074219-22.5 22.5s10.074219 22.5 22.5 22.5h48.835938c-1.246094-4.863281-2.109376-9.84375-2.109376-15 0-10.707031 2.769532-20.992188 7.957032-30zm0 0"/><path d="m151 188.5c0 12.425781 10.074219 22.5 22.5 22.5h81.644531l-44.871093-45h-36.773438c-12.425781 0-22.5 10.074219-22.5 22.5zm0 0"/></svg>