<svg id="Layer_1" enable-background="new 0 0 510 510" height="512" viewBox="0 0 510 510" width="512" xmlns="http://www.w3.org/2000/svg"><g><path d="m120 510h-120v-225h120l10 120z" fill="#bcf0ae"/><path d="m240 510h-120v-225h120z" fill="#70c4af"/><path d="m120 225h-120v-225h120l10 117.706z" fill="#df666e"/><path d="m240 225h-120v-225h120z" fill="#cd4957"/><path d="m270 0h240v30h-240z" fill="#cd4957"/><g fill="#e7f1f9"><path d="m270 60h240v30h-240z"/><path d="m270 120h240v30h-240z"/><path d="m270 180h210v30h-210z"/></g><path d="m270 285h240v30h-240z" fill="#70c4af"/><path d="m270 345h240v30h-240z" fill="#e7f1f9"/><path d="m270 405h240v30h-240z" fill="#e7f1f9"/><path d="m270 465h210v30h-210z" fill="#e7f1f9"/><path d="m85.606 379.394-21.212 21.212 40.606 40.607 15-15 8-21.213-8-21.213-15 15z" fill="#f9f9f9"/><path d="m175.606 370.606-21.212-21.212-34.394 34.393v42.426z" fill="#e7f1f9"/><path d="m85.606 94.394-21.212 21.212 40.606 40.607 15-15 8.883-24.801-8.883-17.625-15 15z" fill="#f9f9f9"/><path d="m175.606 85.606-21.212-21.212-34.394 34.393v42.426z" fill="#e7f1f9"/></g></svg>