<svg id="Capa_1" enable-background="new 0 0 512 512" height="512" viewBox="0 0 512 512" width="512" xmlns="http://www.w3.org/2000/svg"><g><g><g><g><path d="m406.285 450.057c-16.227 0-29.429-13.202-29.429-29.429v-14.424h-105.925v14.424c0 16.227-13.202 29.429-29.429 29.429h-18.847v29.977h202.479v-29.977z" fill="#005fe4"/><g><g><g><path d="m512 356.759v-244.859h-204.145l-171.57 118.632v126.227z" fill="#f2f2fc"/></g></g></g></g></g></g><g><path d="m323.894 111.9h188.106v244.859h-188.106z" fill="#cbe8f8"/></g><g><g><circle cx="208.152" cy="148.163" fill="#f2f2fc" r="93.038"/><g><path d="m273.903 82.34-131.574 131.574c16.839 16.858 40.113 27.287 65.823 27.287 51.383 0 93.038-41.655 93.038-93.038 0-25.71-10.43-48.983-27.287-65.823z" fill="#cbe8f8"/></g></g><g><g><g><g><path d="m42.782 356.232c-10.955 0-21.911-4.17-30.251-12.51-8.081-8.08-12.531-18.824-12.531-30.252s4.45-22.171 12.531-30.251l46.188-46.189 36.148 24.335 24.355 36.168-46.189 46.188c-8.34 8.341-19.296 12.511-30.251 12.511z" fill="#fee37e"/></g></g></g><g><path d="m12.521 343.712.01.01c8.34 8.34 19.296 12.51 30.251 12.51s21.911-4.17 30.251-12.51l46.189-46.189-24.355-36.168z" fill="#fdb55d"/></g><g><path d="m119.222 297.533-5.851-40.455 6.168-21.72-21.597 2.267-39.223-.595z" fill="#fdb55d"/></g><g><path d="m88.961 267.272 30.261 30.261-.119-38.747.395-3.768.038-18.322z" fill="#fd9025"/></g></g><path d="m290.76 65.968c-21.926-21.927-51.079-34.002-82.087-34.002s-60.161 12.075-82.087 34.002c-41.679 41.678-44.977 107.423-9.9 152.914l-18.743 18.743 21.161 21.161 18.738-18.738c20.209 15.626 44.869 24.097 70.832 24.097 31.009 0 60.162-12.075 82.087-34.002 21.927-21.926 34.002-51.079 34.002-82.088-.001-31.008-12.076-60.161-34.003-82.087zm-21.161 143.014c-16.274 16.274-37.911 25.236-60.927 25.236-23.015 0-44.652-8.962-60.926-25.236-16.274-16.275-25.236-37.912-25.236-60.927s8.962-44.653 25.236-60.927 37.912-25.236 60.926-25.236c23.015 0 44.653 8.962 60.927 25.236s25.237 37.912 25.237 60.927-8.963 44.653-25.237 60.927z" fill="#00d7df"/><g><path d="m290.76 65.968c-.083-.083-.168-.162-.251-.245l-21.164 21.164c.083.083.171.159.254.242 16.274 16.274 25.237 37.912 25.237 60.927s-8.962 44.652-25.237 60.927c-16.274 16.274-37.911 25.236-60.927 25.236-23.015 0-44.652-8.962-60.926-25.236-.083-.083-.159-.171-.242-.254l-39.23 39.23 10.828 10.828 18.738-18.738c20.209 15.626 44.869 24.097 70.832 24.097 31.009 0 60.162-12.075 82.087-34.002 21.927-21.926 34.002-51.079 34.002-82.088.001-31.009-12.074-60.162-34.001-82.088z" fill="#00aadf"/></g></g><g><path d="m425.133 450.057h-18.848c-16.227 0-29.429-13.202-29.429-29.429v-14.424h-52.962v73.83h101.239z" fill="#00317e"/></g><g><g><path d="m136.285 354.438h375.715v65.755h-375.715z" fill="#0082ff"/></g></g><g><path d="m323.894 354.438h188.106v65.755h-188.106z" fill="#005fe4"/></g></g></svg>