<?xml version="1.0" encoding="iso-8859-1"?>
<!-- Generator: Adobe Illustrator 19.0.0, SVG Export Plug-In . SVG Version: 6.00 Build 0)  -->
<svg version="1.1" id="Capa_1" xmlns="http://www.w3.org/2000/svg" xmlns:xlink="http://www.w3.org/1999/xlink" x="0px" y="0px"
	 viewBox="0 0 512 512" style="enable-background:new 0 0 512 512;" xml:space="preserve">
<path style="fill:#EBBA16;" d="M304.137,485.517H66.622c-12.42,0-22.484-10.063-22.484-22.484V48.967
	c0-12.42,10.063-22.484,22.484-22.484h237.524c12.412,0,22.475,10.063,22.475,22.484v414.076
	C326.621,475.454,316.557,485.517,304.137,485.517z"/>
<polygon style="fill:#DD352E;" points="150.069,114.759 150.069,273.655 150.069,326.621 176.552,300.138 203.034,273.655 
	264.828,273.655 353.103,273.655 467.862,273.655 467.862,114.759 "/>
<g>
	<path style="fill:#E7ECED;" d="M326.621,70.621H44.138V22.484C44.138,10.063,54.201,0,66.622,0h237.524
		c12.412,0,22.475,10.063,22.475,22.484V70.621z"/>
	<path style="fill:#E7ECED;" d="M304.137,512H66.622c-12.42,0-22.484-10.063-22.484-22.484v-48.137h282.483v48.137
		C326.621,501.937,316.557,512,304.137,512z"/>
</g>
<g>
	<circle style="fill:#AFB6BB;" cx="185.379" cy="476.69" r="35.31"/>
	<path style="fill:#AFB6BB;" d="M211.862,44.138h-52.966c-4.873,0-8.828-3.955-8.828-8.828s3.955-8.828,8.828-8.828h52.966
		c4.873,0,8.828,3.955,8.828,8.828S216.735,44.138,211.862,44.138z"/>
</g>
<path style="fill:#25AE88;" d="M238.08,414.897H79.448c-4.873,0-8.828-3.955-8.828-8.828s3.955-8.828,8.828-8.828H238.08
	c4.873,0,8.828,3.955,8.828,8.828S242.953,414.897,238.08,414.897z"/>
<path style="fill:#F76363;" d="M291.31,414.897h-17.655c-4.873,0-8.828-3.955-8.828-8.828s3.955-8.828,8.828-8.828h17.655
	c4.873,0,8.828,3.955,8.828,8.828S296.183,414.897,291.31,414.897z"/>
<path style="fill:#75348B;" d="M291.31,379.586H256c-4.873,0-8.828-3.955-8.828-8.828c0-4.873,3.955-8.828,8.828-8.828h35.31
	c4.873,0,8.828,3.955,8.828,8.828C300.138,375.631,296.183,379.586,291.31,379.586z"/>
<path style="fill:#366DB6;" d="M97.103,379.586H79.448c-4.873,0-8.828-3.955-8.828-8.828c0-4.873,3.955-8.828,8.828-8.828h17.655
	c4.873,0,8.828,3.955,8.828,8.828C105.931,375.631,101.976,379.586,97.103,379.586z"/>
<path style="fill:#7383BF;" d="M220.69,379.586h-88.276c-4.873,0-8.828-3.955-8.828-8.828c0-4.873,3.955-8.828,8.828-8.828h88.276
	c4.873,0,8.828,3.955,8.828,8.828C229.517,375.631,225.562,379.586,220.69,379.586z"/>
<g>
	<path style="fill:#FFFFFF;" d="M229.517,247.172h-35.31c-4.873,0-8.828-3.955-8.828-8.828c0-4.873,3.955-8.828,8.828-8.828h26.483
		v-26.483h-26.483c-4.873,0-8.828-3.955-8.828-8.828v-44.138c0-4.873,3.955-8.828,8.828-8.828h35.31
		c4.873,0,8.828,3.955,8.828,8.828c0,4.873-3.955,8.828-8.828,8.828h-26.483v26.483h26.483c4.873,0,8.828,3.955,8.828,8.828v44.138
		C238.345,243.218,234.39,247.172,229.517,247.172z"/>
	<path style="fill:#FFFFFF;" d="M423.724,247.172h-35.31c-4.873,0-8.828-3.955-8.828-8.828c0-4.873,3.955-8.828,8.828-8.828h26.483
		v-26.483h-26.483c-4.873,0-8.828-3.955-8.828-8.828v-44.138c0-4.873,3.955-8.828,8.828-8.828h35.31
		c4.873,0,8.828,3.955,8.828,8.828c0,4.873-3.955,8.828-8.828,8.828h-26.483v26.483h26.483c4.873,0,8.828,3.955,8.828,8.828v44.138
		C432.552,243.218,428.597,247.172,423.724,247.172z"/>
	<path style="fill:#FFFFFF;" d="M273.655,247.172c-4.873,0-8.828-3.955-8.828-8.828v-88.276c0-4.873,3.955-8.828,8.828-8.828
		c4.873,0,8.828,3.955,8.828,8.828v88.276C282.483,243.218,278.528,247.172,273.655,247.172z"/>
	<path style="fill:#FFFFFF;" d="M308.974,203.034c-2.586,0-5.155-1.13-6.894-3.31l-35.31-44.138
		c-3.046-3.805-2.428-9.366,1.377-12.403c3.805-3.054,9.366-2.428,12.412,1.377l35.31,44.138c3.046,3.805,2.428,9.366-1.377,12.403
		C312.85,202.399,310.908,203.034,308.974,203.034z"/>
	<path style="fill:#FFFFFF;" d="M344.276,247.172c-4.873,0-8.828-3.955-8.828-8.828v-88.276c0-4.873,3.955-8.828,8.828-8.828
		c4.873,0,8.828,3.955,8.828,8.828v88.276C353.103,243.218,349.149,247.172,344.276,247.172z"/>
	<path style="fill:#FFFFFF;" d="M308.957,203.034c-1.933,0-3.884-0.636-5.508-1.933c-3.805-3.046-4.423-8.598-1.377-12.403
		l35.31-44.138c3.046-3.805,8.598-4.431,12.412-1.377c3.805,3.046,4.423,8.598,1.377,12.403l-35.31,44.138
		C314.112,201.905,311.552,203.034,308.957,203.034z"/>
</g>
<g>
</g>
<g>
</g>
<g>
</g>
<g>
</g>
<g>
</g>
<g>
</g>
<g>
</g>
<g>
</g>
<g>
</g>
<g>
</g>
<g>
</g>
<g>
</g>
<g>
</g>
<g>
</g>
<g>
</g>
</svg>
