<svg id="Capa_1" enable-background="new 0 0 512 512" height="512" viewBox="0 0 512 512" width="512" xmlns="http://www.w3.org/2000/svg"><g><g><path d="m256 0h30v317h-30z" fill="#405580"/></g><path d="m271 0h15v317h-15z" fill="#283d66"/><g><path d="m166 302v60l82.2 30 22.8-5.4 105-24.6v-60z" fill="#5c7099"/></g><path d="m376 302v60l-105 24.6v-84.6z" fill="#405580"/><path d="m376 362v75c0 41.4-33.6 75-75 75h-2.401l-8.399-9.901-19.2 4.799-20.099 5.102h-27.301l-13.2-8.401-34.499 8.401h-69.901v-30h15c24.901 0 45-20.101 45-45v-75z" fill="#ffea80"/><path d="m376 362v75c0 41.4-33.6 75-75 75h-2.401l-8.399-9.901-19.2 4.799v-144.898z" fill="#fc6"/><g><path d="m248.5 422v22.5c0 25.8-9.3 49.499-24.901 67.5h-47.699c25.199-12.001 42.599-37.8 42.599-67.5v-22.5z" fill="#fc6"/></g><g><g><path d="m323.5 422v22.5c0 25.8-9.3 49.499-24.901 67.5h-47.699c7.5-3.6 14.099-8.401 20.099-14.101 13.801-13.5 22.5-32.399 22.5-53.399v-22.5z" fill="#fc6"/></g></g><g><g><path d="m76 422h30v30h-30z" fill="#cce6ff"/></g></g><g><g><path d="m406 482h30v30h-30z" fill="#b3d9ff"/></g></g><path d="m323.5 422v22.5c0 25.8-9.3 49.499-24.901 67.5h-27.599v-14.101c13.801-13.5 22.5-32.399 22.5-53.399v-22.5z" fill="#f93"/></g></svg>