<?xml version="1.0" encoding="iso-8859-1"?>
<!-- Generator: Adobe Illustrator 19.0.0, SVG Export Plug-In . SVG Version: 6.00 Build 0)  -->
<svg version="1.1" id="Capa_1" xmlns="http://www.w3.org/2000/svg" xmlns:xlink="http://www.w3.org/1999/xlink" x="0px" y="0px"
	 viewBox="0 0 512 512" style="enable-background:new 0 0 512 512;" xml:space="preserve">
<g>
	<g>
		<path d="M467.692,12.308H44.308C19.876,12.308,0,32.184,0,56.615v236.308c0,24.431,19.876,44.308,44.308,44.308h423.385
			c24.431,0,44.308-19.876,44.308-44.308V56.615C512,32.184,492.124,12.308,467.692,12.308z M344.615,189.538H328.36
			c-1.919,9.415-5.643,18.176-10.78,25.925l11.524,11.524c5.768,5.767,5.768,15.119,0,20.887c-2.884,2.884-6.664,4.326-10.443,4.326
			s-7.56-1.443-10.443-4.326l-11.524-11.524c-7.748,5.138-16.51,8.862-25.925,10.78v16.255c0,8.156-6.613,14.769-14.769,14.769
			s-14.769-6.613-14.769-14.769V247.13c-9.414-1.918-18.176-5.643-25.924-10.78l-11.524,11.524
			c-2.884,2.884-6.664,4.326-10.443,4.326c-3.78,0-7.559-1.442-10.444-4.326c-5.767-5.767-5.767-15.119,0-20.887l11.524-11.524
			c-5.138-7.748-8.862-16.51-10.78-25.925h-16.257c-8.157,0-14.769-6.613-14.769-14.769S159.228,160,167.385,160h16.255
			c1.919-9.415,5.643-18.176,10.78-25.925l-11.524-11.524c-5.768-5.767-5.768-15.119,0-20.887c5.768-5.767,15.12-5.767,20.887,0
			l11.524,11.524c7.748-5.138,16.51-8.862,25.924-10.78V86.154c0-8.157,6.613-14.769,14.769-14.769s14.769,6.613,14.769,14.769
			v16.255c9.415,1.919,18.176,5.643,25.925,10.78l11.524-11.524c5.767-5.767,15.119-5.767,20.887,0s5.768,15.119,0,20.887
			l-11.524,11.524c5.138,7.748,8.862,16.51,10.78,25.925h16.256c8.157,0,14.769,6.613,14.769,14.769
			S352.772,189.538,344.615,189.538z"/>
	</g>
</g>
<g>
	<g>
		<path d="M256,130.462c-24.431,0-44.308,19.876-44.308,44.308s19.876,44.308,44.308,44.308s44.308-19.876,44.308-44.308
			S280.431,130.462,256,130.462z M275.692,189.538H256c-8.157,0-14.769-6.613-14.769-14.769S247.843,160,256,160h19.692
			c8.157,0,14.769,6.613,14.769,14.769S283.849,189.538,275.692,189.538z"/>
	</g>
</g>
<g>
	<g>
		<path d="M324.923,406.154h-14.769v-39.385H201.846v39.385h-14.769c-24.431,0-44.308,19.876-44.308,44.308v4.923
			c0,24.431,19.876,44.308,44.308,44.308h137.846c24.431,0,44.308-19.876,44.308-44.308v-4.923
			C369.231,426.03,349.354,406.154,324.923,406.154z"/>
	</g>
</g>
<g>
</g>
<g>
</g>
<g>
</g>
<g>
</g>
<g>
</g>
<g>
</g>
<g>
</g>
<g>
</g>
<g>
</g>
<g>
</g>
<g>
</g>
<g>
</g>
<g>
</g>
<g>
</g>
<g>
</g>
</svg>
