<svg id="color" enable-background="new 0 0 24 24" height="512" viewBox="0 0 24 24" width="512" xmlns="http://www.w3.org/2000/svg"><path d="m20 16h-16c-2.209 0-4-1.791-4-4s1.791-4 4-4h16c2.209 0 4 1.791 4 4s-1.791 4-4 4z" fill="#0097a7"/><path d="m20 8h-16c-2.209 0-4-1.791-4-4s1.791-4 4-4h16c2.209 0 4 1.791 4 4s-1.791 4-4 4z" fill="#00bcd4"/><path d="m20 24h-16c-2.209 0-4-1.791-4-4s1.791-4 4-4h16c2.209 0 4 1.791 4 4s-1.791 4-4 4z" fill="#00bcd4"/><path d="m12 8h-8c-2.209 0-4 1.791-4 4s1.791 4 4 4h8z" fill="#008391"/><path d="m12 0h-8c-2.209 0-4 1.791-4 4s1.791 4 4 4h8z" fill="#00a4b9"/><path d="m12 16h-8c-2.209 0-4 1.791-4 4s1.791 4 4 4h8z" fill="#00a4b9"/><g fill="#fff"><circle cx="9.5" cy="4" r="1"/><circle cx="4.5" cy="12" r="1"/><circle cx="9.5" cy="12" r="1"/><circle cx="4.5" cy="20" r="1"/><circle cx="9.5" cy="20" r="1"/><path d="m5.5 4c0 .552-.448 1-1 1s-1-.448-1-1 .448-1 1-1 1 .448 1 1z"/></g><path d="m5.5 4h-2c0 .552.448 1 1 1s1-.448 1-1z" fill="#dedede"/><path d="m10.5 4h-2c0 .552.448 1 1 1s1-.448 1-1z" fill="#dedede"/><path d="m5.5 12h-2c0 .552.448 1 1 1s1-.448 1-1z" fill="#dedede"/><path d="m10.5 12h-2c0 .552.448 1 1 1s1-.448 1-1z" fill="#dedede"/><path d="m5.5 20h-2c0 .552.448 1 1 1s1-.448 1-1z" fill="#dedede"/><path d="m10.5 20h-2c0 .552.448 1 1 1s1-.448 1-1z" fill="#dedede"/></svg>