<svg id="color" enable-background="new 0 0 24 24" height="512" viewBox="0 0 24 24" width="512" xmlns="http://www.w3.org/2000/svg"><g fill="#607d8b"><path d="m10.357 20.25h-2c-.414 0-.75-.336-.75-.75s.336-.75.75-.75h2c.414 0 .75.336.75.75s-.336.75-.75.75z"/><path d="m5.745 19.209c-.266 0-.523-.141-.659-.391-.22-.403-.336-.859-.336-1.318v-1c0-.414.336-.75.75-.75s.75.336.75.75v1c0 .212.052.414.152.599.198.364.064.819-.299 1.018-.114.062-.237.092-.358.092z"/><path d="m5.5 9.25c-.414 0-.75-.336-.75-.75v-2c0-.414.336-.75.75-.75s.75.336.75.75v2c0 .414-.336.75-.75.75z"/><path d="m6.5 11.75h-.25v-.25c0-.414-.336-.75-.75-.75s-.75.336-.75.75v2c0 .414.336.75.75.75s.75-.336.75-.75v-.25h.25c.414 0 .75-.336.75-.75s-.336-.75-.75-.75z"/></g><path d="m11.107 19.5h-3.5c0 .414.336.75.75.75h2c.414 0 .75-.336.75-.75z" fill="#546d79"/><path d="m5.5 15.75c-.414 0-.75.336-.75.75v1c0 .459.116.915.336 1.318.136.25.394.391.659.391.121 0 .244-.029.358-.092.042-.023.081-.05.117-.079-.44-.367-.72-.92-.72-1.538z" fill="#546d79"/><path d="m5.5 5.75c-.414 0-.75.336-.75.75v2c0 .414.336.75.75.75z" fill="#546d79"/><path d="m5.5 10.75c-.414 0-.75.336-.75.75v2c0 .414.336.75.75.75z" fill="#546d79"/><path d="m10.5 13.25h-1c-.414 0-.75-.336-.75-.75s.336-.75.75-.75h1c.414 0 .75.336.75.75s-.336.75-.75.75z" fill="#607d8b"/><path d="m11.25 12.5h-2.5c0 .414.336.75.75.75h1c.414 0 .75-.336.75-.75z" fill="#546d79"/><path d="m7.25 12.5h-1.75v.75h1c.414 0 .75-.336.75-.75z" fill="#546d79"/><path d="m11.5 2h-9c-1.379 0-2.5 1.122-2.5 2.5s1.121 2.5 2.5 2.5h9c1.379 0 2.5-1.122 2.5-2.5s-1.121-2.5-2.5-2.5z" fill="#00bcd4"/><path d="m7 2h-4.5c-1.379 0-2.5 1.122-2.5 2.5s1.121 2.5 2.5 2.5h4.5z" fill="#00a4b9"/><path d="m3 5.5c-.553 0-1-.448-1-1s.447-1 1-1 1 .448 1 1-.447 1-1 1z" fill="#fff"/><path d="m7 5.5c-.553 0-1-.448-1-1s.447-1 1-1 1 .448 1 1-.447 1-1 1z" fill="#fff"/><path d="m4 4.5h-2c0 .552.447 1 1 1s1-.448 1-1z" fill="#dedede"/><path d="m8 4.5h-2c0 .552.447 1 1 1s1-.448 1-1z" fill="#dedede"/><path d="m21.5 17h-9c-1.379 0-2.5 1.122-2.5 2.5s1.121 2.5 2.5 2.5h9c1.379 0 2.5-1.122 2.5-2.5s-1.121-2.5-2.5-2.5z" fill="#0097a7"/><path d="m17 17h-4.5c-1.379 0-2.5 1.122-2.5 2.5s1.121 2.5 2.5 2.5h4.5z" fill="#008391"/><circle cx="13" cy="19.5" fill="#fff" r="1"/><circle cx="17" cy="19.5" fill="#fff" r="1"/><path d="m14 19.5h-2c0 .552.447 1 1 1s1-.448 1-1z" fill="#dedede"/><path d="m18 19.5h-2c0 .552.447 1 1 1s1-.448 1-1z" fill="#dedede"/><path d="m21.5 10h-9c-1.379 0-2.5 1.122-2.5 2.5s1.121 2.5 2.5 2.5h9c1.379 0 2.5-1.122 2.5-2.5s-1.121-2.5-2.5-2.5z" fill="#0097a7"/><path d="m17 10h-4.5c-1.379 0-2.5 1.122-2.5 2.5s1.121 2.5 2.5 2.5h4.5z" fill="#008391"/><circle cx="13" cy="12.5" fill="#fff" r="1"/><circle cx="17" cy="12.5" fill="#fff" r="1"/><path d="m14 12.5h-2c0 .552.447 1 1 1s1-.448 1-1z" fill="#dedede"/><path d="m18 12.5h-2c0 .552.447 1 1 1s1-.448 1-1z" fill="#dedede"/></svg>