<svg id="color" enable-background="new 0 0 24 24" height="512" viewBox="0 0 24 24" width="512" xmlns="http://www.w3.org/2000/svg"><path d="m18.5 8h-15c-1.933 0-3.5-1.567-3.5-3.5 0-1.933 1.567-3.5 3.5-3.5h15c1.933 0 3.5 1.567 3.5 3.5 0 1.933-1.567 3.5-3.5 3.5z" fill="#cfd8dc"/><path d="m18.5 15h-15c-1.933 0-3.5-1.567-3.5-3.5 0-1.933 1.567-3.5 3.5-3.5h15c1.933 0 3.5 1.567 3.5 3.5 0 1.933-1.567 3.5-3.5 3.5z" fill="#90a4ae"/><path d="m18.5 22h-15c-1.933 0-3.5-1.567-3.5-3.5 0-1.933 1.567-3.5 3.5-3.5h15c1.933 0 3.5 1.567 3.5 3.5 0 1.933-1.567 3.5-3.5 3.5z" fill="#cfd8dc"/><path d="m11 1h-7.5c-1.933 0-3.5 1.567-3.5 3.5s1.567 3.5 3.5 3.5h7.5z" fill="#b4bcc0"/><path d="m11 8h-7.5c-1.933 0-3.5 1.567-3.5 3.5s1.567 3.5 3.5 3.5h7.5z" fill="#7d8f97"/><path d="m11 15h-7.5c-1.933 0-3.5 1.567-3.5 3.5s1.567 3.5 3.5 3.5h7.5z" fill="#b4bcc0"/><g fill="#fafafa"><circle cx="3.5" cy="4.5" r="1"/><circle cx="8.5" cy="4.5" r="1"/><circle cx="3.5" cy="11.5" r="1"/><circle cx="8.5" cy="11.5" r="1"/><circle cx="3.5" cy="18.5" r="1"/><circle cx="8.5" cy="18.5" r="1"/></g><circle cx="17.5" cy="17.5" fill="#fff" r="5.5"/><path d="m4.5 4.5h-2c0 .553.448 1 1 1s1-.447 1-1z" fill="#dadada"/><path d="m9.5 4.5h-2c0 .553.448 1 1 1s1-.447 1-1z" fill="#dadada"/><path d="m4.5 11.5h-2c0 .553.448 1 1 1s1-.447 1-1z" fill="#dadada"/><path d="m9.5 11.5h-2c0 .553.448 1 1 1s1-.447 1-1z" fill="#dadada"/><path d="m4.5 18.5h-2c0 .553.448 1 1 1s1-.447 1-1z" fill="#dadada"/><path d="m9.5 18.5h-2c0 .553.448 1 1 1s1-.447 1-1z" fill="#dadada"/><path d="m17.5 11c-3.584 0-6.5 2.916-6.5 6.5s2.916 6.5 6.5 6.5 6.5-2.916 6.5-6.5-2.916-6.5-6.5-6.5zm4.305 4h-1.805v-1.805c.749.437 1.368 1.056 1.805 1.805zm.695 2.5c0 .343-.035.677-.102 1h-2.398v-2h2.398c.067.323.102.657.102 1zm-10 0c0-.343.035-.677.102-1h2.398v2h-2.398c-.067-.323-.102-.657-.102-1zm4-1h2v2h-2zm2-3.898v2.398h-2v-2.398c.323-.066.657-.102 1-.102s.677.035 1 .102zm-3.5.593v1.805h-1.805c.437-.749 1.056-1.368 1.805-1.805zm-1.805 6.805h1.805v1.805c-.749-.437-1.368-1.056-1.805-1.805zm3.305 2.398v-2.398h2v2.398c-.323.066-.657.102-1 .102s-.677-.035-1-.102zm3.5-.593v-1.805h1.805c-.437.749-1.056 1.368-1.805 1.805z" fill="#00bcd4"/><path d="m15 21.805c-.749-.436-1.368-1.056-1.805-1.805h1.805zm-2.398-3.305c-.066-.323-.102-.657-.102-1s.035-.677.102-1h2.398v2zm.593-3.5c.436-.749 1.056-1.368 1.805-1.805v1.805zm4.305-4c-3.584 0-6.5 2.916-6.5 6.5s2.916 6.5 6.5 6.5v-1.5c-.343 0-.677-.035-1-.102v-2.398h1v-1.5h-1v-2h1v-1.5h-1v-2.398c.323-.066.657-.102 1-.102z" fill="#00a4b9"/></svg>