<svg id="Capa_1" enable-background="new 0 0 512 512" height="512" viewBox="0 0 512 512" width="512" xmlns="http://www.w3.org/2000/svg"><g><g fill="#e0f4ff"><path d="m0 271h76v30h-76z"/><path d="m0 181h76v30h-76z"/><path d="m0 91h76v30h-76z"/><path d="m0 361h76v30h-76z"/></g><path d="m436 271h76v30h-76z" fill="#bbdcff"/><path d="m436 181h76v30h-76z" fill="#bbdcff"/><path d="m436 91h76v30h-76z" fill="#bbdcff"/><path d="m436 361h76v30h-76z" fill="#bbdcff"/><path d="m91 0h30v76h-30z" fill="#e0f4ff"/><path d="m181 0h30v76h-30z" fill="#e0f4ff"/><path d="m271 0h30v76h-30z" fill="#bbdcff"/><path d="m361 0h30v76h-30z" fill="#bbdcff"/><path d="m91 436h30v76h-30z" fill="#e0f4ff"/><path d="m181 436h30v76h-30z" fill="#e0f4ff"/><path d="m271 436h30v76h-30z" fill="#bbdcff"/><path d="m361 436h30v76h-30z" fill="#bbdcff"/><path d="m61 61v390h390v-390z" fill="#537983"/><path d="m256 61h195v390h-195z" fill="#3e5959"/><path d="m361 121h30v30h-30z" fill="#293939"/><path d="m121 121h30v30h-30z" fill="#3e5959"/><path d="m361 361h30v30h-30z" fill="#293939"/><path d="m121 361h30v30h-30z" fill="#3e5959"/><g><path d="m331 226c0-19.501-12.599-36-30-42.299v-32.701h-30v30h-30v-30h-30v30h-30v30h30v90h-30v30h30v30h30v-30h30v30h30v-32.701c17.401-6.299 30-22.798 30-42.299 0-11.7-4.501-21.899-11.7-30 7.199-8.101 11.7-18.3 11.7-30zm-45 75h-45v-30h45c8.401 0 15 6.599 15 15s-6.599 15-15 15zm0-60h-45v-30h45c8.401 0 15 6.599 15 15s-6.599 15-15 15z" fill="#fdbf00"/><path d="m319.3 256c7.2 8.101 11.7 18.3 11.7 30 0 19.501-12.599 36-30 42.299v32.701h-30v-30h-15v-30h30c8.401 0 15-6.599 15-15s-6.599-15-15-15h-30v-30h30c8.401 0 15-6.599 15-15s-6.599-15-15-15h-30v-30h15v-30h30v32.701c17.401 6.299 30 22.798 30 42.299 0 11.7-4.501 21.899-11.7 30z" fill="#ff9100"/></g></g></svg>