<svg height="464pt" viewBox="-96 0 464 464" width="464pt" xmlns="http://www.w3.org/2000/svg"><path d="m0 64h272v336h-272zm0 0" fill="#78b9eb"/><path d="m272 400v32c0 17.671875-14.328125 32-32 32h-208c-17.671875 0-32-14.328125-32-32v-32zm0 0" fill="#acabb1"/><path d="m272 32v32h-272v-32c0-17.671875 14.328125-32 32-32h208c17.671875 0 32 14.328125 32 32zm0 0" fill="#acabb1"/><path d="m272 120v280h-272v-8zm0 0" fill="#5aaae7"/><g fill="#787680"><path d="m112 424h48v16h-48zm0 0"/><path d="m40 24h16v16h-16zm0 0"/><path d="m72 24h32v16h-32zm0 0"/></g><path d="m64 168h16v16h-16zm0 0" fill="#1a6fb0"/><path d="m96 168h48v16h-48zm0 0" fill="#3d9ae2"/><path d="m80 200h32v16h-32zm0 0" fill="#96c8ef"/><path d="m128 200h32v16h-32zm0 0" fill="#1a6fb0"/><path d="m96 232h96v16h-96zm0 0" fill="#3d9ae2"/><path d="m80 264h48v16h-48zm0 0" fill="#1a6fb0"/><path d="m144 264h32v16h-32zm0 0" fill="#1e81ce"/><path d="m112 296h16v16h-16zm0 0" fill="#1a6fb0"/><path d="m144 296h64v16h-64zm0 0" fill="#3d9ae2"/><path d="m104 328h80v16h-80zm0 0" fill="#3d9ae2"/><path d="m58.34375 141.65625-16-16c-3.121094-3.125-3.121094-8.1875 0-11.3125l16-16 11.3125 11.3125-10.34375 10.34375 10.34375 10.34375zm0 0" fill="#1e81ce"/><path d="m109.65625 141.65625-11.3125-11.3125 10.34375-10.34375-10.34375-10.34375 11.3125-11.3125 16 16c3.121094 3.125 3.121094 8.1875 0 11.3125zm0 0" fill="#1e81ce"/></svg>